{
	"asset":{
		"generator":"Khronos glTF Blender I/O v4.3.47",
		"version":"2.0"
	},
	"scene":0,
	"scenes":[
		{
			"name":"Scene",
			"nodes":[
				0,
				1
			]
		}
	],
	"nodes":[
		{
			"mesh":0,
			"name":"Maxis-3d3-mesh-2",
			"rotation":[
				0.70710688829422,
				0,
				0,
				0.7071066498756409
			]
		},
		{
			"extras":{
				"gd_node":"Decal",
				"lower_fade":9,
				"upper_fade":10
			},
			"mesh":1,
			"name":"Ground_AO",
			"scale":[
				48.2301139831543,
				1,
				48.40887451171875
			],
			"translation":[
				0.06744194030761719,
				-1.0835365173988976e-05,
				0.15682411193847656
			]
		}
	],
	"materials":[
		{
			"name":"matcolour-48.001",
			"occlusionTexture":{
				"index":0,
				"texCoord":1
			},
			"pbrMetallicRoughness":{
				"baseColorFactor":[
					0.05882352963089943,
					0.05882352963089943,
					0.05882352963089943,
					1
				],
				"metallicFactor":0
			}
		},
		{
			"name":"matcolour-128",
			"occlusionTexture":{
				"index":1,
				"texCoord":1
			},
			"pbrMetallicRoughness":{
				"baseColorFactor":[
					0.12156862765550613,
					0.08235294371843338,
					0.062745101749897,
					1
				],
				"metallicFactor":0
			}
		},
		{
			"name":"mat40-43",
			"occlusionTexture":{
				"index":2,
				"texCoord":1
			},
			"pbrMetallicRoughness":{
				"baseColorTexture":{
					"index":3
				},
				"metallicFactor":0
			}
		},
		{
			"name":"mat40-40",
			"occlusionTexture":{
				"index":4,
				"texCoord":1
			},
			"pbrMetallicRoughness":{
				"baseColorTexture":{
					"index":5
				},
				"metallicFactor":0
			}
		},
		{
			"name":"mat40-42",
			"occlusionTexture":{
				"index":6,
				"texCoord":1
			},
			"pbrMetallicRoughness":{
				"baseColorTexture":{
					"index":7
				},
				"metallicFactor":0
			}
		},
		{
			"name":"mat40-41",
			"occlusionTexture":{
				"index":8,
				"texCoord":1
			},
			"pbrMetallicRoughness":{
				"baseColorTexture":{
					"index":9
				},
				"metallicFactor":0
			}
		},
		{
			"name":"mat40-55",
			"occlusionTexture":{
				"index":10,
				"texCoord":1
			},
			"pbrMetallicRoughness":{
				"baseColorTexture":{
					"index":11
				},
				"metallicFactor":0
			}
		},
		{
			"name":"mat40-52",
			"occlusionTexture":{
				"index":12,
				"texCoord":1
			},
			"pbrMetallicRoughness":{
				"baseColorTexture":{
					"index":13
				},
				"metallicFactor":0
			}
		},
		{
			"name":"mat40-53",
			"occlusionTexture":{
				"index":14,
				"texCoord":1
			},
			"pbrMetallicRoughness":{
				"baseColorTexture":{
					"index":15
				},
				"metallicFactor":0
			}
		},
		{
			"name":"mat40-54",
			"occlusionTexture":{
				"index":16,
				"texCoord":1
			},
			"pbrMetallicRoughness":{
				"baseColorTexture":{
					"index":17
				},
				"metallicFactor":0
			}
		},
		{
			"name":"Ground_AO",
			"occlusionTexture":{
				"index":18
			},
			"pbrMetallicRoughness":{
				"baseColorFactor":[
					0.800000011920929,
					0.800000011920929,
					0.800000011920929,
					1
				],
				"metallicFactor":0,
				"roughnessFactor":0.5
			}
		}
	],
	"meshes":[
		{
			"name":"Maxis-3d3-mesh-2",
			"primitives":[
				{
					"attributes":{
						"POSITION":0,
						"NORMAL":1,
						"TEXCOORD_0":2,
						"TEXCOORD_1":3
					},
					"indices":4,
					"material":0
				},
				{
					"attributes":{
						"POSITION":5,
						"NORMAL":6,
						"TEXCOORD_0":7,
						"TEXCOORD_1":8
					},
					"indices":9,
					"material":1
				},
				{
					"attributes":{
						"POSITION":10,
						"NORMAL":11,
						"TEXCOORD_0":12,
						"TEXCOORD_1":13
					},
					"indices":14,
					"material":2
				},
				{
					"attributes":{
						"POSITION":15,
						"NORMAL":16,
						"TEXCOORD_0":17,
						"TEXCOORD_1":18
					},
					"indices":19,
					"material":3
				},
				{
					"attributes":{
						"POSITION":20,
						"NORMAL":21,
						"TEXCOORD_0":22,
						"TEXCOORD_1":23
					},
					"indices":24,
					"material":4
				},
				{
					"attributes":{
						"POSITION":25,
						"NORMAL":26,
						"TEXCOORD_0":27,
						"TEXCOORD_1":28
					},
					"indices":29,
					"material":5
				},
				{
					"attributes":{
						"POSITION":30,
						"NORMAL":31,
						"TEXCOORD_0":32,
						"TEXCOORD_1":33
					},
					"indices":34,
					"material":6
				},
				{
					"attributes":{
						"POSITION":35,
						"NORMAL":36,
						"TEXCOORD_0":37,
						"TEXCOORD_1":38
					},
					"indices":39,
					"material":7
				},
				{
					"attributes":{
						"POSITION":40,
						"NORMAL":41,
						"TEXCOORD_0":42,
						"TEXCOORD_1":43
					},
					"indices":44,
					"material":8
				},
				{
					"attributes":{
						"POSITION":45,
						"NORMAL":46,
						"TEXCOORD_0":47,
						"TEXCOORD_1":48
					},
					"indices":49,
					"material":9
				}
			]
		},
		{
			"name":"Plane",
			"primitives":[
				{
					"attributes":{
						"POSITION":50,
						"NORMAL":51,
						"TEXCOORD_0":52
					},
					"indices":53,
					"material":10
				}
			]
		}
	],
	"textures":[
		{
			"sampler":0,
			"source":0
		},
		{
			"sampler":0,
			"source":0
		},
		{
			"sampler":0,
			"source":0
		},
		{
			"sampler":0,
			"source":1
		},
		{
			"sampler":0,
			"source":0
		},
		{
			"sampler":0,
			"source":2
		},
		{
			"sampler":0,
			"source":0
		},
		{
			"sampler":0,
			"source":3
		},
		{
			"sampler":0,
			"source":0
		},
		{
			"sampler":0,
			"source":4
		},
		{
			"sampler":0,
			"source":0
		},
		{
			"sampler":0,
			"source":5
		},
		{
			"sampler":0,
			"source":0
		},
		{
			"sampler":0,
			"source":6
		},
		{
			"sampler":0,
			"source":0
		},
		{
			"sampler":0,
			"source":7
		},
		{
			"sampler":0,
			"source":0
		},
		{
			"sampler":0,
			"source":8
		},
		{
			"sampler":0,
			"source":9
		}
	],
	"images":[
		{
			"mimeType":"image/png",
			"name":"processing_1.png",
			"uri":"../../../Textures/ambient_occlusion/Buildings/Chemical/processing_1.png"
		},
		{
			"mimeType":"image/png",
			"name":"tex40-43",
			"uri":"../../../Textures/tex40-43.png"
		},
		{
			"mimeType":"image/png",
			"name":"tex40-40",
			"uri":"../../../Textures/tex40-40.png"
		},
		{
			"mimeType":"image/png",
			"name":"tex40-42",
			"uri":"../../../Textures/tex40-42.png"
		},
		{
			"mimeType":"image/png",
			"name":"tex40-41",
			"uri":"../../../Textures/tex40-41.png"
		},
		{
			"mimeType":"image/png",
			"name":"tex40-55",
			"uri":"../../../Textures/tex40-55.png"
		},
		{
			"mimeType":"image/png",
			"name":"tex40-52",
			"uri":"../../../Textures/tex40-52.png"
		},
		{
			"mimeType":"image/png",
			"name":"tex40-53",
			"uri":"../../../Textures/tex40-53.png"
		},
		{
			"mimeType":"image/png",
			"name":"tex40-54",
			"uri":"../../../Textures/tex40-54.png"
		},
		{
			"mimeType":"image/png",
			"name":"processing_1_ground.png",
			"uri":"../../../Textures/ambient_occlusion/Buildings/Chemical/processing_1_ground.png"
		}
	],
	"accessors":[
		{
			"bufferView":0,
			"componentType":5126,
			"count":53,
			"max":[
				23.682498931884766,
				23.861251831054688,
				-3.8309364318847656
			],
			"min":[
				-23.54761505126953,
				-23.54761505126953,
				-22.33722686767578
			],
			"type":"VEC3"
		},
		{
			"bufferView":1,
			"componentType":5126,
			"count":53,
			"type":"VEC3"
		},
		{
			"bufferView":2,
			"componentType":5126,
			"count":53,
			"type":"VEC2"
		},
		{
			"bufferView":3,
			"componentType":5126,
			"count":53,
			"type":"VEC2"
		},
		{
			"bufferView":4,
			"componentType":5123,
			"count":102,
			"type":"SCALAR"
		},
		{
			"bufferView":5,
			"componentType":5126,
			"count":12,
			"max":[
				19.549999237060547,
				23.861255645751953,
				-6.591419219970703
			],
			"min":[
				-23.1875,
				-0.9861984252929688,
				-13.775009155273438
			],
			"type":"VEC3"
		},
		{
			"bufferView":6,
			"componentType":5126,
			"count":12,
			"type":"VEC3"
		},
		{
			"bufferView":7,
			"componentType":5126,
			"count":12,
			"type":"VEC2"
		},
		{
			"bufferView":8,
			"componentType":5126,
			"count":12,
			"type":"VEC2"
		},
		{
			"bufferView":9,
			"componentType":5123,
			"count":18,
			"type":"SCALAR"
		},
		{
			"bufferView":10,
			"componentType":5126,
			"count":18,
			"max":[
				23.682498931884766,
				23.86125946044922,
				0
			],
			"min":[
				-23.54761505126953,
				-2.6163978576660156,
				-14.55185317993164
			],
			"type":"VEC3"
		},
		{
			"bufferView":11,
			"componentType":5126,
			"count":18,
			"type":"VEC3"
		},
		{
			"bufferView":12,
			"componentType":5126,
			"count":18,
			"type":"VEC2"
		},
		{
			"bufferView":13,
			"componentType":5126,
			"count":18,
			"type":"VEC2"
		},
		{
			"bufferView":14,
			"componentType":5123,
			"count":30,
			"type":"SCALAR"
		},
		{
			"bufferView":15,
			"componentType":5126,
			"count":18,
			"max":[
				23.682498931884766,
				-0.9337425231933594,
				7.62939453125e-06
			],
			"min":[
				-23.54761505126953,
				-23.54761505126953,
				-14.551849365234375
			],
			"type":"VEC3"
		},
		{
			"bufferView":16,
			"componentType":5126,
			"count":18,
			"type":"VEC3"
		},
		{
			"bufferView":17,
			"componentType":5126,
			"count":18,
			"type":"VEC2"
		},
		{
			"bufferView":18,
			"componentType":5126,
			"count":18,
			"type":"VEC2"
		},
		{
			"bufferView":19,
			"componentType":5123,
			"count":30,
			"type":"SCALAR"
		},
		{
			"bufferView":20,
			"componentType":5126,
			"count":20,
			"max":[
				23.682498931884766,
				23.86125946044922,
				7.62939453125e-06
			],
			"min":[
				-3.924602508544922,
				-23.54761505126953,
				-14.55185317993164
			],
			"type":"VEC3"
		},
		{
			"bufferView":21,
			"componentType":5126,
			"count":20,
			"type":"VEC3"
		},
		{
			"bufferView":22,
			"componentType":5126,
			"count":20,
			"type":"VEC2"
		},
		{
			"bufferView":23,
			"componentType":5126,
			"count":20,
			"type":"VEC2"
		},
		{
			"bufferView":24,
			"componentType":5123,
			"count":30,
			"type":"SCALAR"
		},
		{
			"bufferView":25,
			"componentType":5126,
			"count":12,
			"max":[
				-1.8937721252441406,
				23.861251831054688,
				7.62939453125e-06
			],
			"min":[
				-23.54761505126953,
				-23.54761505126953,
				-14.55185317993164
			],
			"type":"VEC3"
		},
		{
			"bufferView":26,
			"componentType":5126,
			"count":12,
			"type":"VEC3"
		},
		{
			"bufferView":27,
			"componentType":5126,
			"count":12,
			"type":"VEC2"
		},
		{
			"bufferView":28,
			"componentType":5126,
			"count":12,
			"type":"VEC2"
		},
		{
			"bufferView":29,
			"componentType":5123,
			"count":18,
			"type":"SCALAR"
		},
		{
			"bufferView":30,
			"componentType":5126,
			"count":16,
			"max":[
				19.549999237060547,
				23.861255645751953,
				-3.830944061279297
			],
			"min":[
				-20.695842742919922,
				-11.748466491699219,
				-22.33722686767578
			],
			"type":"VEC3"
		},
		{
			"bufferView":31,
			"componentType":5126,
			"count":16,
			"type":"VEC3"
		},
		{
			"bufferView":32,
			"componentType":5126,
			"count":16,
			"type":"VEC2"
		},
		{
			"bufferView":33,
			"componentType":5126,
			"count":16,
			"type":"VEC2"
		},
		{
			"bufferView":34,
			"componentType":5123,
			"count":24,
			"type":"SCALAR"
		},
		{
			"bufferView":35,
			"componentType":5126,
			"count":16,
			"max":[
				19.549999237060547,
				-0.933746337890625,
				-3.830944061279297
			],
			"min":[
				-20.695842742919922,
				-13.721431732177734,
				-22.33722686767578
			],
			"type":"VEC3"
		},
		{
			"bufferView":36,
			"componentType":5126,
			"count":16,
			"type":"VEC3"
		},
		{
			"bufferView":37,
			"componentType":5126,
			"count":16,
			"type":"VEC2"
		},
		{
			"bufferView":38,
			"componentType":5126,
			"count":16,
			"type":"VEC2"
		},
		{
			"bufferView":39,
			"componentType":5123,
			"count":24,
			"type":"SCALAR"
		},
		{
			"bufferView":40,
			"componentType":5126,
			"count":17,
			"max":[
				-9.558914184570312,
				23.640342712402344,
				0
			],
			"min":[
				-23.187503814697266,
				-13.721431732177734,
				-22.33722686767578
			],
			"type":"VEC3"
		},
		{
			"bufferView":41,
			"componentType":5126,
			"count":17,
			"type":"VEC3"
		},
		{
			"bufferView":42,
			"componentType":5126,
			"count":17,
			"type":"VEC2"
		},
		{
			"bufferView":43,
			"componentType":5126,
			"count":17,
			"type":"VEC2"
		},
		{
			"bufferView":44,
			"componentType":5123,
			"count":27,
			"type":"SCALAR"
		},
		{
			"bufferView":45,
			"componentType":5126,
			"count":17,
			"max":[
				-4.999996185302734,
				23.640342712402344,
				0
			],
			"min":[
				-18.36414337158203,
				-13.721431732177734,
				-22.33722686767578
			],
			"type":"VEC3"
		},
		{
			"bufferView":46,
			"componentType":5126,
			"count":17,
			"type":"VEC3"
		},
		{
			"bufferView":47,
			"componentType":5126,
			"count":17,
			"type":"VEC2"
		},
		{
			"bufferView":48,
			"componentType":5126,
			"count":17,
			"type":"VEC2"
		},
		{
			"bufferView":49,
			"componentType":5123,
			"count":27,
			"type":"SCALAR"
		},
		{
			"bufferView":50,
			"componentType":5126,
			"count":4,
			"max":[
				0.5,
				0,
				0.5
			],
			"min":[
				-0.5,
				0,
				-0.5
			],
			"type":"VEC3"
		},
		{
			"bufferView":51,
			"componentType":5126,
			"count":4,
			"type":"VEC3"
		},
		{
			"bufferView":52,
			"componentType":5126,
			"count":4,
			"type":"VEC2"
		},
		{
			"bufferView":53,
			"componentType":5123,
			"count":6,
			"type":"SCALAR"
		}
	],
	"bufferViews":[
		{
			"buffer":0,
			"byteLength":636,
			"byteOffset":0,
			"target":34962
		},
		{
			"buffer":0,
			"byteLength":636,
			"byteOffset":636,
			"target":34962
		},
		{
			"buffer":0,
			"byteLength":424,
			"byteOffset":1272,
			"target":34962
		},
		{
			"buffer":0,
			"byteLength":424,
			"byteOffset":1696,
			"target":34962
		},
		{
			"buffer":0,
			"byteLength":204,
			"byteOffset":2120,
			"target":34963
		},
		{
			"buffer":0,
			"byteLength":144,
			"byteOffset":2324,
			"target":34962
		},
		{
			"buffer":0,
			"byteLength":144,
			"byteOffset":2468,
			"target":34962
		},
		{
			"buffer":0,
			"byteLength":96,
			"byteOffset":2612,
			"target":34962
		},
		{
			"buffer":0,
			"byteLength":96,
			"byteOffset":2708,
			"target":34962
		},
		{
			"buffer":0,
			"byteLength":36,
			"byteOffset":2804,
			"target":34963
		},
		{
			"buffer":0,
			"byteLength":216,
			"byteOffset":2840,
			"target":34962
		},
		{
			"buffer":0,
			"byteLength":216,
			"byteOffset":3056,
			"target":34962
		},
		{
			"buffer":0,
			"byteLength":144,
			"byteOffset":3272,
			"target":34962
		},
		{
			"buffer":0,
			"byteLength":144,
			"byteOffset":3416,
			"target":34962
		},
		{
			"buffer":0,
			"byteLength":60,
			"byteOffset":3560,
			"target":34963
		},
		{
			"buffer":0,
			"byteLength":216,
			"byteOffset":3620,
			"target":34962
		},
		{
			"buffer":0,
			"byteLength":216,
			"byteOffset":3836,
			"target":34962
		},
		{
			"buffer":0,
			"byteLength":144,
			"byteOffset":4052,
			"target":34962
		},
		{
			"buffer":0,
			"byteLength":144,
			"byteOffset":4196,
			"target":34962
		},
		{
			"buffer":0,
			"byteLength":60,
			"byteOffset":4340,
			"target":34963
		},
		{
			"buffer":0,
			"byteLength":240,
			"byteOffset":4400,
			"target":34962
		},
		{
			"buffer":0,
			"byteLength":240,
			"byteOffset":4640,
			"target":34962
		},
		{
			"buffer":0,
			"byteLength":160,
			"byteOffset":4880,
			"target":34962
		},
		{
			"buffer":0,
			"byteLength":160,
			"byteOffset":5040,
			"target":34962
		},
		{
			"buffer":0,
			"byteLength":60,
			"byteOffset":5200,
			"target":34963
		},
		{
			"buffer":0,
			"byteLength":144,
			"byteOffset":5260,
			"target":34962
		},
		{
			"buffer":0,
			"byteLength":144,
			"byteOffset":5404,
			"target":34962
		},
		{
			"buffer":0,
			"byteLength":96,
			"byteOffset":5548,
			"target":34962
		},
		{
			"buffer":0,
			"byteLength":96,
			"byteOffset":5644,
			"target":34962
		},
		{
			"buffer":0,
			"byteLength":36,
			"byteOffset":5740,
			"target":34963
		},
		{
			"buffer":0,
			"byteLength":192,
			"byteOffset":5776,
			"target":34962
		},
		{
			"buffer":0,
			"byteLength":192,
			"byteOffset":5968,
			"target":34962
		},
		{
			"buffer":0,
			"byteLength":128,
			"byteOffset":6160,
			"target":34962
		},
		{
			"buffer":0,
			"byteLength":128,
			"byteOffset":6288,
			"target":34962
		},
		{
			"buffer":0,
			"byteLength":48,
			"byteOffset":6416,
			"target":34963
		},
		{
			"buffer":0,
			"byteLength":192,
			"byteOffset":6464,
			"target":34962
		},
		{
			"buffer":0,
			"byteLength":192,
			"byteOffset":6656,
			"target":34962
		},
		{
			"buffer":0,
			"byteLength":128,
			"byteOffset":6848,
			"target":34962
		},
		{
			"buffer":0,
			"byteLength":128,
			"byteOffset":6976,
			"target":34962
		},
		{
			"buffer":0,
			"byteLength":48,
			"byteOffset":7104,
			"target":34963
		},
		{
			"buffer":0,
			"byteLength":204,
			"byteOffset":7152,
			"target":34962
		},
		{
			"buffer":0,
			"byteLength":204,
			"byteOffset":7356,
			"target":34962
		},
		{
			"buffer":0,
			"byteLength":136,
			"byteOffset":7560,
			"target":34962
		},
		{
			"buffer":0,
			"byteLength":136,
			"byteOffset":7696,
			"target":34962
		},
		{
			"buffer":0,
			"byteLength":54,
			"byteOffset":7832,
			"target":34963
		},
		{
			"buffer":0,
			"byteLength":204,
			"byteOffset":7888,
			"target":34962
		},
		{
			"buffer":0,
			"byteLength":204,
			"byteOffset":8092,
			"target":34962
		},
		{
			"buffer":0,
			"byteLength":136,
			"byteOffset":8296,
			"target":34962
		},
		{
			"buffer":0,
			"byteLength":136,
			"byteOffset":8432,
			"target":34962
		},
		{
			"buffer":0,
			"byteLength":54,
			"byteOffset":8568,
			"target":34963
		},
		{
			"buffer":0,
			"byteLength":48,
			"byteOffset":8624,
			"target":34962
		},
		{
			"buffer":0,
			"byteLength":48,
			"byteOffset":8672,
			"target":34962
		},
		{
			"buffer":0,
			"byteLength":32,
			"byteOffset":8720,
			"target":34962
		},
		{
			"buffer":0,
			"byteLength":12,
			"byteOffset":8752,
			"target":34963
		}
	],
	"samplers":[
		{
			"magFilter":9729,
			"minFilter":9987
		}
	],
	"buffers":[
		{
			"byteLength":8764,
			"uri":"processing_1.bin"
		}
	]
}
