{
	"asset":{
		"generator":"Khronos glTF Blender I/O v4.3.47",
		"version":"2.0"
	},
	"scene":0,
	"scenes":[
		{
			"name":"Scene",
			"nodes":[
				0,
				1
			]
		}
	],
	"nodes":[
		{
			"mesh":0,
			"name":"Maxis-3d2-mesh-4-SIDE03",
			"rotation":[
				0.70710688829422,
				0,
				0,
				0.7071066498756409
			]
		},
		{
			"extras":{
				"gd_node":"Decal",
				"lower_fade":9,
				"upper_fade":10
			},
			"mesh":1,
			"name":"Ground_AO",
			"scale":[
				27.835784912109375,
				1,
				28.87984848022461
			],
			"translation":[
				-0.5858192443847656,
				-0.05175957456231117,
				-0.7959909439086914
			]
		}
	],
	"materials":[
		{
			"name":"matcolour-48.002",
			"occlusionTexture":{
				"index":0,
				"texCoord":1
			},
			"pbrMetallicRoughness":{
				"baseColorFactor":[
					0.05882352963089943,
					0.05882352963089943,
					0.05882352963089943,
					1
				],
				"metallicFactor":0
			}
		},
		{
			"name":"mat2-40",
			"occlusionTexture":{
				"index":1,
				"texCoord":1
			},
			"pbrMetallicRoughness":{
				"baseColorTexture":{
					"index":2
				},
				"metallicFactor":0
			}
		},
		{
			"name":"mat2-43",
			"occlusionTexture":{
				"index":3,
				"texCoord":1
			},
			"pbrMetallicRoughness":{
				"baseColorTexture":{
					"index":4
				},
				"metallicFactor":0
			}
		},
		{
			"name":"mat2-41",
			"occlusionTexture":{
				"index":5,
				"texCoord":1
			},
			"pbrMetallicRoughness":{
				"baseColorTexture":{
					"index":6
				},
				"metallicFactor":0
			}
		},
		{
			"name":"mat2-42",
			"occlusionTexture":{
				"index":7,
				"texCoord":1
			},
			"pbrMetallicRoughness":{
				"baseColorTexture":{
					"index":8
				},
				"metallicFactor":0
			}
		},
		{
			"name":"mat40-60",
			"occlusionTexture":{
				"index":9,
				"texCoord":1
			},
			"pbrMetallicRoughness":{
				"baseColorTexture":{
					"index":10
				},
				"metallicFactor":0
			}
		},
		{
			"name":"mat40-39",
			"occlusionTexture":{
				"index":11,
				"texCoord":1
			},
			"pbrMetallicRoughness":{
				"baseColorTexture":{
					"index":12
				},
				"metallicFactor":0
			}
		},
		{
			"name":"mat40-36",
			"occlusionTexture":{
				"index":13,
				"texCoord":1
			},
			"pbrMetallicRoughness":{
				"baseColorTexture":{
					"index":14
				},
				"metallicFactor":0
			}
		},
		{
			"name":"mat40-38",
			"occlusionTexture":{
				"index":15,
				"texCoord":1
			},
			"pbrMetallicRoughness":{
				"baseColorTexture":{
					"index":16
				},
				"metallicFactor":0
			}
		},
		{
			"name":"mat40-37",
			"occlusionTexture":{
				"index":17,
				"texCoord":1
			},
			"pbrMetallicRoughness":{
				"baseColorTexture":{
					"index":18
				},
				"metallicFactor":0
			}
		},
		{
			"name":"Ground_AO",
			"occlusionTexture":{
				"index":19
			},
			"pbrMetallicRoughness":{
				"baseColorFactor":[
					0.800000011920929,
					0.800000011920929,
					0.800000011920929,
					1
				],
				"metallicFactor":0,
				"roughnessFactor":0.5
			}
		}
	],
	"meshes":[
		{
			"name":"Maxis-3d2-mesh-4-SIDE03",
			"primitives":[
				{
					"attributes":{
						"POSITION":0,
						"NORMAL":1,
						"TEXCOORD_0":2,
						"TEXCOORD_1":3
					},
					"indices":4,
					"material":0
				},
				{
					"attributes":{
						"POSITION":5,
						"NORMAL":6,
						"TEXCOORD_0":7,
						"TEXCOORD_1":8
					},
					"indices":9,
					"material":1
				},
				{
					"attributes":{
						"POSITION":10,
						"NORMAL":11,
						"TEXCOORD_0":12,
						"TEXCOORD_1":13
					},
					"indices":14,
					"material":2
				},
				{
					"attributes":{
						"POSITION":15,
						"NORMAL":16,
						"TEXCOORD_0":17,
						"TEXCOORD_1":18
					},
					"indices":19,
					"material":3
				},
				{
					"attributes":{
						"POSITION":20,
						"NORMAL":21,
						"TEXCOORD_0":22,
						"TEXCOORD_1":23
					},
					"indices":24,
					"material":4
				},
				{
					"attributes":{
						"POSITION":25,
						"NORMAL":26,
						"TEXCOORD_0":27,
						"TEXCOORD_1":28
					},
					"indices":29,
					"material":5
				},
				{
					"attributes":{
						"POSITION":30,
						"NORMAL":31,
						"TEXCOORD_0":32,
						"TEXCOORD_1":33
					},
					"indices":34,
					"material":6
				},
				{
					"attributes":{
						"POSITION":35,
						"NORMAL":36,
						"TEXCOORD_0":37,
						"TEXCOORD_1":38
					},
					"indices":39,
					"material":7
				},
				{
					"attributes":{
						"POSITION":40,
						"NORMAL":41,
						"TEXCOORD_0":42,
						"TEXCOORD_1":43
					},
					"indices":44,
					"material":8
				},
				{
					"attributes":{
						"POSITION":45,
						"NORMAL":46,
						"TEXCOORD_0":47,
						"TEXCOORD_1":48
					},
					"indices":49,
					"material":9
				}
			]
		},
		{
			"name":"Plane",
			"primitives":[
				{
					"attributes":{
						"POSITION":50,
						"NORMAL":51,
						"TEXCOORD_0":52
					},
					"indices":53,
					"material":10
				}
			]
		}
	],
	"textures":[
		{
			"sampler":0,
			"source":0
		},
		{
			"sampler":0,
			"source":0
		},
		{
			"sampler":0,
			"source":1
		},
		{
			"sampler":0,
			"source":0
		},
		{
			"sampler":0,
			"source":2
		},
		{
			"sampler":0,
			"source":0
		},
		{
			"sampler":0,
			"source":3
		},
		{
			"sampler":0,
			"source":0
		},
		{
			"sampler":0,
			"source":4
		},
		{
			"sampler":0,
			"source":0
		},
		{
			"sampler":0,
			"source":5
		},
		{
			"sampler":0,
			"source":0
		},
		{
			"sampler":0,
			"source":6
		},
		{
			"sampler":0,
			"source":0
		},
		{
			"sampler":0,
			"source":7
		},
		{
			"sampler":0,
			"source":0
		},
		{
			"sampler":0,
			"source":8
		},
		{
			"sampler":0,
			"source":0
		},
		{
			"sampler":0,
			"source":9
		},
		{
			"sampler":0,
			"source":10
		}
	],
	"images":[
		{
			"mimeType":"image/png",
			"name":"processing_2.png",
			"uri":"../../../Textures/ambient_occlusion/Buildings/Chemical/processing_2.png"
		},
		{
			"mimeType":"image/png",
			"name":"tex2-40",
			"uri":"../../../Textures/tex2-40.png"
		},
		{
			"mimeType":"image/png",
			"name":"tex2-43",
			"uri":"../../../Textures/tex2-43.png"
		},
		{
			"mimeType":"image/png",
			"name":"tex2-41",
			"uri":"../../../Textures/tex2-41.png"
		},
		{
			"mimeType":"image/png",
			"name":"tex2-42",
			"uri":"../../../Textures/tex2-42.png"
		},
		{
			"mimeType":"image/png",
			"name":"tex40-60",
			"uri":"../../../Textures/tex40-60.png"
		},
		{
			"mimeType":"image/png",
			"name":"tex40-39",
			"uri":"../../../Textures/tex40-39.png"
		},
		{
			"mimeType":"image/png",
			"name":"tex40-36",
			"uri":"../../../Textures/tex40-36.png"
		},
		{
			"mimeType":"image/png",
			"name":"tex40-38",
			"uri":"../../../Textures/tex40-38.png"
		},
		{
			"mimeType":"image/png",
			"name":"tex40-37",
			"uri":"../../../Textures/tex40-37.png"
		},
		{
			"mimeType":"image/png",
			"name":"processing_2_ground.png",
			"uri":"../../../Textures/ambient_occlusion/Buildings/Chemical/processing_2_ground.png"
		}
	],
	"accessors":[
		{
			"bufferView":0,
			"componentType":5126,
			"count":104,
			"max":[
				12.832073211669922,
				13.143932342529297,
				0.03391265869140625
			],
			"min":[
				-14.003711700439453,
				-14.735916137695312,
				-11.759025573730469
			],
			"type":"VEC3"
		},
		{
			"bufferView":1,
			"componentType":5126,
			"count":104,
			"type":"VEC3"
		},
		{
			"bufferView":2,
			"componentType":5126,
			"count":104,
			"type":"VEC2"
		},
		{
			"bufferView":3,
			"componentType":5126,
			"count":104,
			"type":"VEC2"
		},
		{
			"bufferView":4,
			"componentType":5123,
			"count":168,
			"type":"SCALAR"
		},
		{
			"bufferView":5,
			"componentType":5126,
			"count":4,
			"max":[
				2.214885711669922,
				-8.8365478515625,
				0
			],
			"min":[
				-8.597503662109375,
				-8.836555480957031,
				-8.015605926513672
			],
			"type":"VEC3"
		},
		{
			"bufferView":6,
			"componentType":5126,
			"count":4,
			"type":"VEC3"
		},
		{
			"bufferView":7,
			"componentType":5126,
			"count":4,
			"type":"VEC2"
		},
		{
			"bufferView":8,
			"componentType":5126,
			"count":4,
			"type":"VEC2"
		},
		{
			"bufferView":9,
			"componentType":5123,
			"count":6,
			"type":"SCALAR"
		},
		{
			"bufferView":10,
			"componentType":5126,
			"count":6,
			"max":[
				2.2148666381835938,
				9.891075134277344,
				-3.814697265625e-06
			],
			"min":[
				-8.597522735595703,
				9.891056060791016,
				-8.015609741210938
			],
			"type":"VEC3"
		},
		{
			"bufferView":11,
			"componentType":5126,
			"count":6,
			"type":"VEC3"
		},
		{
			"bufferView":12,
			"componentType":5126,
			"count":6,
			"type":"VEC2"
		},
		{
			"bufferView":13,
			"componentType":5126,
			"count":6,
			"type":"VEC2"
		},
		{
			"bufferView":14,
			"componentType":5123,
			"count":6,
			"type":"SCALAR"
		},
		{
			"bufferView":15,
			"componentType":5126,
			"count":8,
			"max":[
				7.6210784912109375,
				0.5272598266601562,
				0
			],
			"min":[
				-14.003711700439453,
				-8.836555480957031,
				-8.015605926513672
			],
			"type":"VEC3"
		},
		{
			"bufferView":16,
			"componentType":5126,
			"count":8,
			"type":"VEC3"
		},
		{
			"bufferView":17,
			"componentType":5126,
			"count":8,
			"type":"VEC2"
		},
		{
			"bufferView":18,
			"componentType":5126,
			"count":8,
			"type":"VEC2"
		},
		{
			"bufferView":19,
			"componentType":5123,
			"count":12,
			"type":"SCALAR"
		},
		{
			"bufferView":20,
			"componentType":5126,
			"count":8,
			"max":[
				7.6210784912109375,
				9.891075134277344,
				0
			],
			"min":[
				-14.003711700439453,
				0.5272407531738281,
				-8.015609741210938
			],
			"type":"VEC3"
		},
		{
			"bufferView":21,
			"componentType":5126,
			"count":8,
			"type":"VEC3"
		},
		{
			"bufferView":22,
			"componentType":5126,
			"count":8,
			"type":"VEC2"
		},
		{
			"bufferView":23,
			"componentType":5126,
			"count":8,
			"type":"VEC2"
		},
		{
			"bufferView":24,
			"componentType":5123,
			"count":12,
			"type":"SCALAR"
		},
		{
			"bufferView":25,
			"componentType":5126,
			"count":8,
			"max":[
				-0.3843345642089844,
				-10.724678039550781,
				-6.791576385498047
			],
			"min":[
				-7.655170440673828,
				-12.025558471679688,
				-7.715202331542969
			],
			"type":"VEC3"
		},
		{
			"bufferView":26,
			"componentType":5126,
			"count":8,
			"type":"VEC3"
		},
		{
			"bufferView":27,
			"componentType":5126,
			"count":8,
			"type":"VEC2"
		},
		{
			"bufferView":28,
			"componentType":5126,
			"count":8,
			"type":"VEC2"
		},
		{
			"bufferView":29,
			"componentType":5123,
			"count":12,
			"type":"SCALAR"
		},
		{
			"bufferView":30,
			"componentType":5126,
			"count":8,
			"max":[
				-0.3843345642089844,
				-10.724674224853516,
				0.0517578125
			],
			"min":[
				-7.655170440673828,
				-10.80179214477539,
				-7.715202331542969
			],
			"type":"VEC3"
		},
		{
			"bufferView":31,
			"componentType":5126,
			"count":8,
			"type":"VEC3"
		},
		{
			"bufferView":32,
			"componentType":5126,
			"count":8,
			"type":"VEC2"
		},
		{
			"bufferView":33,
			"componentType":5126,
			"count":8,
			"type":"VEC2"
		},
		{
			"bufferView":34,
			"componentType":5123,
			"count":12,
			"type":"SCALAR"
		},
		{
			"bufferView":35,
			"componentType":5126,
			"count":8,
			"max":[
				-0.3843345642089844,
				-11.948440551757812,
				0.0517578125
			],
			"min":[
				-7.655170440673828,
				-12.025558471679688,
				-7.715202331542969
			],
			"type":"VEC3"
		},
		{
			"bufferView":36,
			"componentType":5126,
			"count":8,
			"type":"VEC3"
		},
		{
			"bufferView":37,
			"componentType":5126,
			"count":8,
			"type":"VEC2"
		},
		{
			"bufferView":38,
			"componentType":5126,
			"count":8,
			"type":"VEC2"
		},
		{
			"bufferView":39,
			"componentType":5123,
			"count":12,
			"type":"SCALAR"
		},
		{
			"bufferView":40,
			"componentType":5126,
			"count":8,
			"max":[
				-0.3843345642089844,
				-10.724674224853516,
				0.0517578125
			],
			"min":[
				-6.699626922607422,
				-12.025558471679688,
				-7.715202331542969
			],
			"type":"VEC3"
		},
		{
			"bufferView":41,
			"componentType":5126,
			"count":8,
			"type":"VEC3"
		},
		{
			"bufferView":42,
			"componentType":5126,
			"count":8,
			"type":"VEC2"
		},
		{
			"bufferView":43,
			"componentType":5126,
			"count":8,
			"type":"VEC2"
		},
		{
			"bufferView":44,
			"componentType":5123,
			"count":12,
			"type":"SCALAR"
		},
		{
			"bufferView":45,
			"componentType":5126,
			"count":8,
			"max":[
				-2.7149429321289062,
				-10.724674224853516,
				0.0517578125
			],
			"min":[
				-7.655170440673828,
				-12.025558471679688,
				-7.715202331542969
			],
			"type":"VEC3"
		},
		{
			"bufferView":46,
			"componentType":5126,
			"count":8,
			"type":"VEC3"
		},
		{
			"bufferView":47,
			"componentType":5126,
			"count":8,
			"type":"VEC2"
		},
		{
			"bufferView":48,
			"componentType":5126,
			"count":8,
			"type":"VEC2"
		},
		{
			"bufferView":49,
			"componentType":5123,
			"count":12,
			"type":"SCALAR"
		},
		{
			"bufferView":50,
			"componentType":5126,
			"count":4,
			"max":[
				0.5,
				0,
				0.5
			],
			"min":[
				-0.5,
				0,
				-0.5
			],
			"type":"VEC3"
		},
		{
			"bufferView":51,
			"componentType":5126,
			"count":4,
			"type":"VEC3"
		},
		{
			"bufferView":52,
			"componentType":5126,
			"count":4,
			"type":"VEC2"
		},
		{
			"bufferView":53,
			"componentType":5123,
			"count":6,
			"type":"SCALAR"
		}
	],
	"bufferViews":[
		{
			"buffer":0,
			"byteLength":1248,
			"byteOffset":0,
			"target":34962
		},
		{
			"buffer":0,
			"byteLength":1248,
			"byteOffset":1248,
			"target":34962
		},
		{
			"buffer":0,
			"byteLength":832,
			"byteOffset":2496,
			"target":34962
		},
		{
			"buffer":0,
			"byteLength":832,
			"byteOffset":3328,
			"target":34962
		},
		{
			"buffer":0,
			"byteLength":336,
			"byteOffset":4160,
			"target":34963
		},
		{
			"buffer":0,
			"byteLength":48,
			"byteOffset":4496,
			"target":34962
		},
		{
			"buffer":0,
			"byteLength":48,
			"byteOffset":4544,
			"target":34962
		},
		{
			"buffer":0,
			"byteLength":32,
			"byteOffset":4592,
			"target":34962
		},
		{
			"buffer":0,
			"byteLength":32,
			"byteOffset":4624,
			"target":34962
		},
		{
			"buffer":0,
			"byteLength":12,
			"byteOffset":4656,
			"target":34963
		},
		{
			"buffer":0,
			"byteLength":72,
			"byteOffset":4668,
			"target":34962
		},
		{
			"buffer":0,
			"byteLength":72,
			"byteOffset":4740,
			"target":34962
		},
		{
			"buffer":0,
			"byteLength":48,
			"byteOffset":4812,
			"target":34962
		},
		{
			"buffer":0,
			"byteLength":48,
			"byteOffset":4860,
			"target":34962
		},
		{
			"buffer":0,
			"byteLength":12,
			"byteOffset":4908,
			"target":34963
		},
		{
			"buffer":0,
			"byteLength":96,
			"byteOffset":4920,
			"target":34962
		},
		{
			"buffer":0,
			"byteLength":96,
			"byteOffset":5016,
			"target":34962
		},
		{
			"buffer":0,
			"byteLength":64,
			"byteOffset":5112,
			"target":34962
		},
		{
			"buffer":0,
			"byteLength":64,
			"byteOffset":5176,
			"target":34962
		},
		{
			"buffer":0,
			"byteLength":24,
			"byteOffset":5240,
			"target":34963
		},
		{
			"buffer":0,
			"byteLength":96,
			"byteOffset":5264,
			"target":34962
		},
		{
			"buffer":0,
			"byteLength":96,
			"byteOffset":5360,
			"target":34962
		},
		{
			"buffer":0,
			"byteLength":64,
			"byteOffset":5456,
			"target":34962
		},
		{
			"buffer":0,
			"byteLength":64,
			"byteOffset":5520,
			"target":34962
		},
		{
			"buffer":0,
			"byteLength":24,
			"byteOffset":5584,
			"target":34963
		},
		{
			"buffer":0,
			"byteLength":96,
			"byteOffset":5608,
			"target":34962
		},
		{
			"buffer":0,
			"byteLength":96,
			"byteOffset":5704,
			"target":34962
		},
		{
			"buffer":0,
			"byteLength":64,
			"byteOffset":5800,
			"target":34962
		},
		{
			"buffer":0,
			"byteLength":64,
			"byteOffset":5864,
			"target":34962
		},
		{
			"buffer":0,
			"byteLength":24,
			"byteOffset":5928,
			"target":34963
		},
		{
			"buffer":0,
			"byteLength":96,
			"byteOffset":5952,
			"target":34962
		},
		{
			"buffer":0,
			"byteLength":96,
			"byteOffset":6048,
			"target":34962
		},
		{
			"buffer":0,
			"byteLength":64,
			"byteOffset":6144,
			"target":34962
		},
		{
			"buffer":0,
			"byteLength":64,
			"byteOffset":6208,
			"target":34962
		},
		{
			"buffer":0,
			"byteLength":24,
			"byteOffset":6272,
			"target":34963
		},
		{
			"buffer":0,
			"byteLength":96,
			"byteOffset":6296,
			"target":34962
		},
		{
			"buffer":0,
			"byteLength":96,
			"byteOffset":6392,
			"target":34962
		},
		{
			"buffer":0,
			"byteLength":64,
			"byteOffset":6488,
			"target":34962
		},
		{
			"buffer":0,
			"byteLength":64,
			"byteOffset":6552,
			"target":34962
		},
		{
			"buffer":0,
			"byteLength":24,
			"byteOffset":6616,
			"target":34963
		},
		{
			"buffer":0,
			"byteLength":96,
			"byteOffset":6640,
			"target":34962
		},
		{
			"buffer":0,
			"byteLength":96,
			"byteOffset":6736,
			"target":34962
		},
		{
			"buffer":0,
			"byteLength":64,
			"byteOffset":6832,
			"target":34962
		},
		{
			"buffer":0,
			"byteLength":64,
			"byteOffset":6896,
			"target":34962
		},
		{
			"buffer":0,
			"byteLength":24,
			"byteOffset":6960,
			"target":34963
		},
		{
			"buffer":0,
			"byteLength":96,
			"byteOffset":6984,
			"target":34962
		},
		{
			"buffer":0,
			"byteLength":96,
			"byteOffset":7080,
			"target":34962
		},
		{
			"buffer":0,
			"byteLength":64,
			"byteOffset":7176,
			"target":34962
		},
		{
			"buffer":0,
			"byteLength":64,
			"byteOffset":7240,
			"target":34962
		},
		{
			"buffer":0,
			"byteLength":24,
			"byteOffset":7304,
			"target":34963
		},
		{
			"buffer":0,
			"byteLength":48,
			"byteOffset":7328,
			"target":34962
		},
		{
			"buffer":0,
			"byteLength":48,
			"byteOffset":7376,
			"target":34962
		},
		{
			"buffer":0,
			"byteLength":32,
			"byteOffset":7424,
			"target":34962
		},
		{
			"buffer":0,
			"byteLength":12,
			"byteOffset":7456,
			"target":34963
		}
	],
	"samplers":[
		{
			"magFilter":9729,
			"minFilter":9987
		}
	],
	"buffers":[
		{
			"byteLength":7468,
			"uri":"processing_2.bin"
		}
	]
}
