{
	"asset":{
		"generator":"Khronos glTF Blender I/O v4.3.47",
		"version":"2.0"
	},
	"scene":0,
	"scenes":[
		{
			"name":"Scene",
			"nodes":[
				0,
				1
			]
		}
	],
	"nodes":[
		{
			"mesh":0,
			"name":"Maxis-3d3-mesh-28",
			"rotation":[
				0.70710688829422,
				0,
				0,
				0.7071066498756409
			]
		},
		{
			"extras":{
				"gd_node":"Decal",
				"lower_fade":9,
				"upper_fade":10
			},
			"mesh":1,
			"name":"Ground_AO",
			"scale":[
				14.090576171875,
				1,
				14.917984008789062
			],
			"translation":[
				-0.5711555480957031,
				0,
				-0.9643206596374512
			]
		}
	],
	"materials":[
		{
			"name":"matcolour-48",
			"occlusionTexture":{
				"index":0,
				"texCoord":1
			},
			"pbrMetallicRoughness":{
				"baseColorFactor":[
					0.05882352963089943,
					0.05882352963089943,
					0.05882352963089943,
					1
				],
				"metallicFactor":0
			}
		},
		{
			"name":"mat39-0",
			"occlusionTexture":{
				"index":1,
				"texCoord":1
			},
			"pbrMetallicRoughness":{
				"baseColorTexture":{
					"index":2
				},
				"metallicFactor":0
			}
		},
		{
			"name":"mat39-3",
			"occlusionTexture":{
				"index":3,
				"texCoord":1
			},
			"pbrMetallicRoughness":{
				"baseColorTexture":{
					"index":4
				},
				"metallicFactor":0
			}
		},
		{
			"name":"mat39-1",
			"occlusionTexture":{
				"index":5,
				"texCoord":1
			},
			"pbrMetallicRoughness":{
				"baseColorTexture":{
					"index":6
				},
				"metallicFactor":0
			}
		},
		{
			"name":"mat39-2",
			"occlusionTexture":{
				"index":7,
				"texCoord":1
			},
			"pbrMetallicRoughness":{
				"baseColorTexture":{
					"index":8
				},
				"metallicFactor":0
			}
		},
		{
			"name":"mat40-20",
			"occlusionTexture":{
				"index":9,
				"texCoord":1
			},
			"pbrMetallicRoughness":{
				"baseColorTexture":{
					"index":10
				},
				"metallicFactor":0
			}
		},
		{
			"name":"mat40-23",
			"occlusionTexture":{
				"index":11,
				"texCoord":1
			},
			"pbrMetallicRoughness":{
				"baseColorTexture":{
					"index":12
				},
				"metallicFactor":0
			}
		},
		{
			"name":"mat40-21",
			"occlusionTexture":{
				"index":13,
				"texCoord":1
			},
			"pbrMetallicRoughness":{
				"baseColorTexture":{
					"index":14
				},
				"metallicFactor":0
			}
		},
		{
			"name":"mat40-22",
			"occlusionTexture":{
				"index":15,
				"texCoord":1
			},
			"pbrMetallicRoughness":{
				"baseColorTexture":{
					"index":16
				},
				"metallicFactor":0
			}
		},
		{
			"name":"Ground_AO",
			"occlusionTexture":{
				"index":17
			},
			"pbrMetallicRoughness":{
				"baseColorFactor":[
					0.800000011920929,
					0.800000011920929,
					0.800000011920929,
					1
				],
				"metallicFactor":0,
				"roughnessFactor":0.5
			}
		}
	],
	"meshes":[
		{
			"name":"Maxis-3d3-mesh-28",
			"primitives":[
				{
					"attributes":{
						"POSITION":0,
						"NORMAL":1,
						"TEXCOORD_0":2,
						"TEXCOORD_1":3
					},
					"indices":4,
					"material":0
				},
				{
					"attributes":{
						"POSITION":5,
						"NORMAL":6,
						"TEXCOORD_0":7,
						"TEXCOORD_1":8
					},
					"indices":9,
					"material":1
				},
				{
					"attributes":{
						"POSITION":10,
						"NORMAL":11,
						"TEXCOORD_0":12,
						"TEXCOORD_1":13
					},
					"indices":14,
					"material":2
				},
				{
					"attributes":{
						"POSITION":15,
						"NORMAL":16,
						"TEXCOORD_0":17,
						"TEXCOORD_1":18
					},
					"indices":19,
					"material":3
				},
				{
					"attributes":{
						"POSITION":20,
						"NORMAL":21,
						"TEXCOORD_0":22,
						"TEXCOORD_1":23
					},
					"indices":24,
					"material":4
				},
				{
					"attributes":{
						"POSITION":25,
						"NORMAL":26,
						"TEXCOORD_0":27,
						"TEXCOORD_1":28
					},
					"indices":29,
					"material":5
				},
				{
					"attributes":{
						"POSITION":30,
						"NORMAL":31,
						"TEXCOORD_0":32,
						"TEXCOORD_1":33
					},
					"indices":34,
					"material":6
				},
				{
					"attributes":{
						"POSITION":35,
						"NORMAL":36,
						"TEXCOORD_0":37,
						"TEXCOORD_1":38
					},
					"indices":39,
					"material":7
				},
				{
					"attributes":{
						"POSITION":40,
						"NORMAL":41,
						"TEXCOORD_0":42,
						"TEXCOORD_1":43
					},
					"indices":44,
					"material":8
				}
			]
		},
		{
			"name":"Plane",
			"primitives":[
				{
					"attributes":{
						"POSITION":45,
						"NORMAL":46,
						"TEXCOORD_0":47
					},
					"indices":48,
					"material":9
				}
			]
		}
	],
	"textures":[
		{
			"sampler":0,
			"source":0
		},
		{
			"sampler":0,
			"source":0
		},
		{
			"sampler":0,
			"source":1
		},
		{
			"sampler":0,
			"source":0
		},
		{
			"sampler":0,
			"source":2
		},
		{
			"sampler":0,
			"source":0
		},
		{
			"sampler":0,
			"source":3
		},
		{
			"sampler":0,
			"source":0
		},
		{
			"sampler":0,
			"source":4
		},
		{
			"sampler":0,
			"source":0
		},
		{
			"sampler":0,
			"source":5
		},
		{
			"sampler":0,
			"source":0
		},
		{
			"sampler":0,
			"source":6
		},
		{
			"sampler":0,
			"source":0
		},
		{
			"sampler":0,
			"source":7
		},
		{
			"sampler":0,
			"source":0
		},
		{
			"sampler":0,
			"source":8
		},
		{
			"sampler":0,
			"source":9
		}
	],
	"images":[
		{
			"mimeType":"image/png",
			"name":"storage.png",
			"uri":"../../../Textures/ambient_occlusion/Buildings/Chemical/storage.png"
		},
		{
			"mimeType":"image/png",
			"name":"tex39-0",
			"uri":"../../../Textures/tex39-0.png"
		},
		{
			"mimeType":"image/png",
			"name":"tex39-3",
			"uri":"../../../Textures/tex39-3.png"
		},
		{
			"mimeType":"image/png",
			"name":"tex39-1",
			"uri":"../../../Textures/tex39-1.png"
		},
		{
			"mimeType":"image/png",
			"name":"tex39-2",
			"uri":"../../../Textures/tex39-2.png"
		},
		{
			"mimeType":"image/png",
			"name":"tex40-20",
			"uri":"../../../Textures/tex40-20.png"
		},
		{
			"mimeType":"image/png",
			"name":"tex40-23",
			"uri":"../../../Textures/tex40-23.png"
		},
		{
			"mimeType":"image/png",
			"name":"tex40-21",
			"uri":"../../../Textures/tex40-21.png"
		},
		{
			"mimeType":"image/png",
			"name":"tex40-22",
			"uri":"../../../Textures/tex40-22.png"
		},
		{
			"mimeType":"image/png",
			"name":"storage_ground.png",
			"uri":"../../../Textures/ambient_occlusion/Buildings/Chemical/storage_ground.png"
		}
	],
	"accessors":[
		{
			"bufferView":0,
			"componentType":5126,
			"count":255,
			"max":[
				5.974132537841797,
				5.994670867919922,
				-1.3613471984863281
			],
			"min":[
				-7.116443634033203,
				-7.923309326171875,
				-8.607227325439453
			],
			"type":"VEC3"
		},
		{
			"bufferView":1,
			"componentType":5126,
			"count":255,
			"type":"VEC3"
		},
		{
			"bufferView":2,
			"componentType":5126,
			"count":255,
			"type":"VEC2"
		},
		{
			"bufferView":3,
			"componentType":5126,
			"count":255,
			"type":"VEC2"
		},
		{
			"bufferView":4,
			"componentType":5123,
			"count":456,
			"type":"SCALAR"
		},
		{
			"bufferView":5,
			"componentType":5126,
			"count":13,
			"max":[
				4.721782684326172,
				-4.075527191162109,
				0
			],
			"min":[
				-5.86871337890625,
				-6.4576416015625,
				-1.3750419616699219
			],
			"type":"VEC3"
		},
		{
			"bufferView":6,
			"componentType":5126,
			"count":13,
			"type":"VEC3"
		},
		{
			"bufferView":7,
			"componentType":5126,
			"count":13,
			"type":"VEC2"
		},
		{
			"bufferView":8,
			"componentType":5126,
			"count":13,
			"type":"VEC2"
		},
		{
			"bufferView":9,
			"componentType":5123,
			"count":18,
			"type":"SCALAR"
		},
		{
			"bufferView":10,
			"componentType":5126,
			"count":12,
			"max":[
				4.726409912109375,
				5.994670867919922,
				0
			],
			"min":[
				-5.8640899658203125,
				3.6125526428222656,
				-1.3750457763671875
			],
			"type":"VEC3"
		},
		{
			"bufferView":11,
			"componentType":5126,
			"count":12,
			"type":"VEC3"
		},
		{
			"bufferView":12,
			"componentType":5126,
			"count":12,
			"type":"VEC2"
		},
		{
			"bufferView":13,
			"componentType":5126,
			"count":12,
			"type":"VEC2"
		},
		{
			"bufferView":14,
			"componentType":5123,
			"count":18,
			"type":"SCALAR"
		},
		{
			"bufferView":15,
			"componentType":5126,
			"count":10,
			"max":[
				5.974132537841797,
				-0.22755050659179688,
				0
			],
			"min":[
				-7.116443634033203,
				-4.081882476806641,
				-1.3750457763671875
			],
			"type":"VEC3"
		},
		{
			"bufferView":16,
			"componentType":5126,
			"count":10,
			"type":"VEC3"
		},
		{
			"bufferView":17,
			"componentType":5126,
			"count":10,
			"type":"VEC2"
		},
		{
			"bufferView":18,
			"componentType":5126,
			"count":10,
			"type":"VEC2"
		},
		{
			"bufferView":19,
			"componentType":5123,
			"count":12,
			"type":"SCALAR"
		},
		{
			"bufferView":20,
			"componentType":5126,
			"count":8,
			"max":[
				5.974132537841797,
				3.6189231872558594,
				0
			],
			"min":[
				-7.116443634033203,
				-0.23540878295898438,
				-1.3750457763671875
			],
			"type":"VEC3"
		},
		{
			"bufferView":21,
			"componentType":5126,
			"count":8,
			"type":"VEC3"
		},
		{
			"bufferView":22,
			"componentType":5126,
			"count":8,
			"type":"VEC2"
		},
		{
			"bufferView":23,
			"componentType":5126,
			"count":8,
			"type":"VEC2"
		},
		{
			"bufferView":24,
			"componentType":5123,
			"count":12,
			"type":"SCALAR"
		},
		{
			"bufferView":25,
			"componentType":5126,
			"count":12,
			"max":[
				4.9662322998046875,
				-7.512393951416016,
				0
			],
			"min":[
				3.139373779296875,
				-7.923313140869141,
				-1.3613471984863281
			],
			"type":"VEC3"
		},
		{
			"bufferView":26,
			"componentType":5126,
			"count":12,
			"type":"VEC3"
		},
		{
			"bufferView":27,
			"componentType":5126,
			"count":12,
			"type":"VEC2"
		},
		{
			"bufferView":28,
			"componentType":5126,
			"count":12,
			"type":"VEC2"
		},
		{
			"bufferView":29,
			"componentType":5123,
			"count":18,
			"type":"SCALAR"
		},
		{
			"bufferView":30,
			"componentType":5126,
			"count":12,
			"max":[
				4.967033386230469,
				-5.775287628173828,
				0
			],
			"min":[
				3.1401710510253906,
				-6.1862030029296875,
				-1.3613471984863281
			],
			"type":"VEC3"
		},
		{
			"bufferView":31,
			"componentType":5126,
			"count":12,
			"type":"VEC3"
		},
		{
			"bufferView":32,
			"componentType":5126,
			"count":12,
			"type":"VEC2"
		},
		{
			"bufferView":33,
			"componentType":5126,
			"count":12,
			"type":"VEC2"
		},
		{
			"bufferView":34,
			"componentType":5123,
			"count":18,
			"type":"SCALAR"
		},
		{
			"bufferView":35,
			"componentType":5126,
			"count":8,
			"max":[
				5.182262420654297,
				-6.848621368408203,
				0
			],
			"min":[
				2.9241409301757812,
				-7.513492584228516,
				-1.3613471984863281
			],
			"type":"VEC3"
		},
		{
			"bufferView":36,
			"componentType":5126,
			"count":8,
			"type":"VEC3"
		},
		{
			"bufferView":37,
			"componentType":5126,
			"count":8,
			"type":"VEC2"
		},
		{
			"bufferView":38,
			"componentType":5126,
			"count":8,
			"type":"VEC2"
		},
		{
			"bufferView":39,
			"componentType":5123,
			"count":12,
			"type":"SCALAR"
		},
		{
			"bufferView":40,
			"componentType":5126,
			"count":8,
			"max":[
				5.182262420654297,
				-6.185100555419922,
				0
			],
			"min":[
				2.9241409301757812,
				-6.8499755859375,
				-1.3613471984863281
			],
			"type":"VEC3"
		},
		{
			"bufferView":41,
			"componentType":5126,
			"count":8,
			"type":"VEC3"
		},
		{
			"bufferView":42,
			"componentType":5126,
			"count":8,
			"type":"VEC2"
		},
		{
			"bufferView":43,
			"componentType":5126,
			"count":8,
			"type":"VEC2"
		},
		{
			"bufferView":44,
			"componentType":5123,
			"count":12,
			"type":"SCALAR"
		},
		{
			"bufferView":45,
			"componentType":5126,
			"count":4,
			"max":[
				0.5,
				0,
				0.5
			],
			"min":[
				-0.5,
				0,
				-0.5
			],
			"type":"VEC3"
		},
		{
			"bufferView":46,
			"componentType":5126,
			"count":4,
			"type":"VEC3"
		},
		{
			"bufferView":47,
			"componentType":5126,
			"count":4,
			"type":"VEC2"
		},
		{
			"bufferView":48,
			"componentType":5123,
			"count":6,
			"type":"SCALAR"
		}
	],
	"bufferViews":[
		{
			"buffer":0,
			"byteLength":3060,
			"byteOffset":0,
			"target":34962
		},
		{
			"buffer":0,
			"byteLength":3060,
			"byteOffset":3060,
			"target":34962
		},
		{
			"buffer":0,
			"byteLength":2040,
			"byteOffset":6120,
			"target":34962
		},
		{
			"buffer":0,
			"byteLength":2040,
			"byteOffset":8160,
			"target":34962
		},
		{
			"buffer":0,
			"byteLength":912,
			"byteOffset":10200,
			"target":34963
		},
		{
			"buffer":0,
			"byteLength":156,
			"byteOffset":11112,
			"target":34962
		},
		{
			"buffer":0,
			"byteLength":156,
			"byteOffset":11268,
			"target":34962
		},
		{
			"buffer":0,
			"byteLength":104,
			"byteOffset":11424,
			"target":34962
		},
		{
			"buffer":0,
			"byteLength":104,
			"byteOffset":11528,
			"target":34962
		},
		{
			"buffer":0,
			"byteLength":36,
			"byteOffset":11632,
			"target":34963
		},
		{
			"buffer":0,
			"byteLength":144,
			"byteOffset":11668,
			"target":34962
		},
		{
			"buffer":0,
			"byteLength":144,
			"byteOffset":11812,
			"target":34962
		},
		{
			"buffer":0,
			"byteLength":96,
			"byteOffset":11956,
			"target":34962
		},
		{
			"buffer":0,
			"byteLength":96,
			"byteOffset":12052,
			"target":34962
		},
		{
			"buffer":0,
			"byteLength":36,
			"byteOffset":12148,
			"target":34963
		},
		{
			"buffer":0,
			"byteLength":120,
			"byteOffset":12184,
			"target":34962
		},
		{
			"buffer":0,
			"byteLength":120,
			"byteOffset":12304,
			"target":34962
		},
		{
			"buffer":0,
			"byteLength":80,
			"byteOffset":12424,
			"target":34962
		},
		{
			"buffer":0,
			"byteLength":80,
			"byteOffset":12504,
			"target":34962
		},
		{
			"buffer":0,
			"byteLength":24,
			"byteOffset":12584,
			"target":34963
		},
		{
			"buffer":0,
			"byteLength":96,
			"byteOffset":12608,
			"target":34962
		},
		{
			"buffer":0,
			"byteLength":96,
			"byteOffset":12704,
			"target":34962
		},
		{
			"buffer":0,
			"byteLength":64,
			"byteOffset":12800,
			"target":34962
		},
		{
			"buffer":0,
			"byteLength":64,
			"byteOffset":12864,
			"target":34962
		},
		{
			"buffer":0,
			"byteLength":24,
			"byteOffset":12928,
			"target":34963
		},
		{
			"buffer":0,
			"byteLength":144,
			"byteOffset":12952,
			"target":34962
		},
		{
			"buffer":0,
			"byteLength":144,
			"byteOffset":13096,
			"target":34962
		},
		{
			"buffer":0,
			"byteLength":96,
			"byteOffset":13240,
			"target":34962
		},
		{
			"buffer":0,
			"byteLength":96,
			"byteOffset":13336,
			"target":34962
		},
		{
			"buffer":0,
			"byteLength":36,
			"byteOffset":13432,
			"target":34963
		},
		{
			"buffer":0,
			"byteLength":144,
			"byteOffset":13468,
			"target":34962
		},
		{
			"buffer":0,
			"byteLength":144,
			"byteOffset":13612,
			"target":34962
		},
		{
			"buffer":0,
			"byteLength":96,
			"byteOffset":13756,
			"target":34962
		},
		{
			"buffer":0,
			"byteLength":96,
			"byteOffset":13852,
			"target":34962
		},
		{
			"buffer":0,
			"byteLength":36,
			"byteOffset":13948,
			"target":34963
		},
		{
			"buffer":0,
			"byteLength":96,
			"byteOffset":13984,
			"target":34962
		},
		{
			"buffer":0,
			"byteLength":96,
			"byteOffset":14080,
			"target":34962
		},
		{
			"buffer":0,
			"byteLength":64,
			"byteOffset":14176,
			"target":34962
		},
		{
			"buffer":0,
			"byteLength":64,
			"byteOffset":14240,
			"target":34962
		},
		{
			"buffer":0,
			"byteLength":24,
			"byteOffset":14304,
			"target":34963
		},
		{
			"buffer":0,
			"byteLength":96,
			"byteOffset":14328,
			"target":34962
		},
		{
			"buffer":0,
			"byteLength":96,
			"byteOffset":14424,
			"target":34962
		},
		{
			"buffer":0,
			"byteLength":64,
			"byteOffset":14520,
			"target":34962
		},
		{
			"buffer":0,
			"byteLength":64,
			"byteOffset":14584,
			"target":34962
		},
		{
			"buffer":0,
			"byteLength":24,
			"byteOffset":14648,
			"target":34963
		},
		{
			"buffer":0,
			"byteLength":48,
			"byteOffset":14672,
			"target":34962
		},
		{
			"buffer":0,
			"byteLength":48,
			"byteOffset":14720,
			"target":34962
		},
		{
			"buffer":0,
			"byteLength":32,
			"byteOffset":14768,
			"target":34962
		},
		{
			"buffer":0,
			"byteLength":12,
			"byteOffset":14800,
			"target":34963
		}
	],
	"samplers":[
		{
			"magFilter":9729,
			"minFilter":9987
		}
	],
	"buffers":[
		{
			"byteLength":14812,
			"uri":"storage.bin"
		}
	]
}
