{
    "asset" : {
        "generator" : "Khronos glTF Blender I/O v1.7.33",
        "version" : "2.0"
    },
    "scene" : 0,
    "scenes" : [
        {
            "name" : "Scene",
            "nodes" : [
                0
            ]
        }
    ],
    "nodes" : [
        {
            "mesh" : 0,
            "name" : "Maxis-3d3-mesh-8",
            "rotation" : [
                0.7071068286895752,
                0,
                0,
                0.7071067094802856
            ]
        }
    ],
    "materials" : [
        {
            "doubleSided" : true,
            "name" : "matcolour-48.006",
            "pbrMetallicRoughness" : {
                "baseColorFactor" : [
                    0.05882352963089943,
                    0.05882352963089943,
                    0.05882352963089943,
                    1
                ],
                "metallicFactor" : 0
            }
        },
        {
            "doubleSided" : true,
            "name" : "mat2-15",
            "pbrMetallicRoughness" : {
                "baseColorTexture" : {
                    "index" : 0
                },
                "metallicFactor" : 0
            }
        },
        {
            "doubleSided" : true,
            "name" : "mat2-12",
            "pbrMetallicRoughness" : {
                "baseColorTexture" : {
                    "index" : 1
                },
                "metallicFactor" : 0
            }
        },
        {
            "doubleSided" : true,
            "name" : "mat2-13",
            "pbrMetallicRoughness" : {
                "baseColorTexture" : {
                    "index" : 2
                },
                "metallicFactor" : 0
            }
        },
        {
            "doubleSided" : true,
            "name" : "mat2-14",
            "pbrMetallicRoughness" : {
                "baseColorTexture" : {
                    "index" : 3
                },
                "metallicFactor" : 0
            }
        },
        {
            "doubleSided" : true,
            "name" : "mat2-36.001",
            "pbrMetallicRoughness" : {
                "baseColorTexture" : {
                    "index" : 4
                },
                "metallicFactor" : 0
            }
        },
        {
            "doubleSided" : true,
            "name" : "mat2-39.001",
            "pbrMetallicRoughness" : {
                "baseColorTexture" : {
                    "index" : 5
                },
                "metallicFactor" : 0
            }
        },
        {
            "doubleSided" : true,
            "name" : "mat2-38.001",
            "pbrMetallicRoughness" : {
                "baseColorTexture" : {
                    "index" : 6
                },
                "metallicFactor" : 0
            }
        },
        {
            "doubleSided" : true,
            "name" : "mat2-37.001",
            "pbrMetallicRoughness" : {
                "baseColorTexture" : {
                    "index" : 7
                },
                "metallicFactor" : 0
            }
        }
    ],
    "meshes" : [
        {
            "name" : "Maxis-3d3-mesh-8",
            "primitives" : [
                {
                    "attributes" : {
                        "POSITION" : 0,
                        "NORMAL" : 1,
                        "TEXCOORD_0" : 2
                    },
                    "indices" : 3,
                    "material" : 0
                },
                {
                    "attributes" : {
                        "POSITION" : 4,
                        "NORMAL" : 5,
                        "TEXCOORD_0" : 6
                    },
                    "indices" : 7,
                    "material" : 1
                },
                {
                    "attributes" : {
                        "POSITION" : 8,
                        "NORMAL" : 9,
                        "TEXCOORD_0" : 10
                    },
                    "indices" : 7,
                    "material" : 2
                },
                {
                    "attributes" : {
                        "POSITION" : 11,
                        "NORMAL" : 12,
                        "TEXCOORD_0" : 13
                    },
                    "indices" : 14,
                    "material" : 3
                },
                {
                    "attributes" : {
                        "POSITION" : 15,
                        "NORMAL" : 16,
                        "TEXCOORD_0" : 17
                    },
                    "indices" : 18,
                    "material" : 4
                },
                {
                    "attributes" : {
                        "POSITION" : 19,
                        "NORMAL" : 20,
                        "TEXCOORD_0" : 21
                    },
                    "indices" : 22,
                    "material" : 5
                },
                {
                    "attributes" : {
                        "POSITION" : 23,
                        "NORMAL" : 24,
                        "TEXCOORD_0" : 25
                    },
                    "indices" : 26,
                    "material" : 6
                },
                {
                    "attributes" : {
                        "POSITION" : 27,
                        "NORMAL" : 28,
                        "TEXCOORD_0" : 29
                    },
                    "indices" : 30,
                    "material" : 7
                },
                {
                    "attributes" : {
                        "POSITION" : 31,
                        "NORMAL" : 32,
                        "TEXCOORD_0" : 33
                    },
                    "indices" : 34,
                    "material" : 8
                }
            ]
        }
    ],
    "textures" : [
        {
            "sampler" : 0,
            "source" : 0
        },
        {
            "sampler" : 0,
            "source" : 1
        },
        {
            "sampler" : 0,
            "source" : 2
        },
        {
            "sampler" : 0,
            "source" : 3
        },
        {
            "sampler" : 0,
            "source" : 4
        },
        {
            "sampler" : 0,
            "source" : 5
        },
        {
            "sampler" : 0,
            "source" : 6
        },
        {
            "sampler" : 0,
            "source" : 7
        }
    ],
    "images" : [
        {
            "mimeType" : "image/png",
            "name" : "tex2-15",
            "uri" : "../../../Textures/tex2-15.png"
        },
        {
            "mimeType" : "image/png",
            "name" : "tex2-12",
            "uri" : "../../../Textures/tex2-12.png"
        },
        {
            "mimeType" : "image/png",
            "name" : "tex2-13",
            "uri" : "../../../Textures/tex2-13.png"
        },
        {
            "mimeType" : "image/png",
            "name" : "tex2-14",
            "uri" : "../../../Textures/tex2-14.png"
        },
        {
            "mimeType" : "image/png",
            "name" : "tex2-36",
            "uri" : "../../../Textures/tex2-36.png"
        },
        {
            "mimeType" : "image/png",
            "name" : "tex2-39",
            "uri" : "../../../Textures/tex2-39.png"
        },
        {
            "mimeType" : "image/png",
            "name" : "tex2-38",
            "uri" : "../../../Textures/tex2-38.png"
        },
        {
            "mimeType" : "image/png",
            "name" : "tex2-37",
            "uri" : "../../../Textures/tex2-37.png"
        }
    ],
    "accessors" : [
        {
            "bufferView" : 0,
            "componentType" : 5126,
            "count" : 135,
            "max" : [
                15.712646484375,
                15.570999145507812,
                -3.6640281677246094
            ],
            "min" : [
                -15.822525024414062,
                -15.963859558105469,
                -38.468013763427734
            ],
            "type" : "VEC3"
        },
        {
            "bufferView" : 1,
            "componentType" : 5126,
            "count" : 135,
            "type" : "VEC3"
        },
        {
            "bufferView" : 2,
            "componentType" : 5126,
            "count" : 135,
            "type" : "VEC2"
        },
        {
            "bufferView" : 3,
            "componentType" : 5123,
            "count" : 144,
            "type" : "SCALAR"
        },
        {
            "bufferView" : 4,
            "componentType" : 5126,
            "count" : 4,
            "max" : [
                15.014999389648438,
                14.851619720458984,
                0.030521392822265625
            ],
            "min" : [
                -15.014999389648438,
                14.851615905761719,
                -3.6640472412109375
            ],
            "type" : "VEC3"
        },
        {
            "bufferView" : 5,
            "componentType" : 5126,
            "count" : 4,
            "type" : "VEC3"
        },
        {
            "bufferView" : 6,
            "componentType" : 5126,
            "count" : 4,
            "type" : "VEC2"
        },
        {
            "bufferView" : 7,
            "componentType" : 5123,
            "count" : 6,
            "type" : "SCALAR"
        },
        {
            "bufferView" : 8,
            "componentType" : 5126,
            "count" : 4,
            "max" : [
                15.014999389648438,
                -15.17837905883789,
                0.030548095703125
            ],
            "min" : [
                -15.014999389648438,
                -15.178382873535156,
                -3.6640281677246094
            ],
            "type" : "VEC3"
        },
        {
            "bufferView" : 9,
            "componentType" : 5126,
            "count" : 4,
            "type" : "VEC3"
        },
        {
            "bufferView" : 10,
            "componentType" : 5126,
            "count" : 4,
            "type" : "VEC2"
        },
        {
            "bufferView" : 11,
            "componentType" : 5126,
            "count" : 6,
            "max" : [
                -15.014999389648438,
                14.851619720458984,
                0.030548095703125
            ],
            "min" : [
                -15.014999389648438,
                -15.178382873535156,
                -3.6640472412109375
            ],
            "type" : "VEC3"
        },
        {
            "bufferView" : 12,
            "componentType" : 5126,
            "count" : 6,
            "type" : "VEC3"
        },
        {
            "bufferView" : 13,
            "componentType" : 5126,
            "count" : 6,
            "type" : "VEC2"
        },
        {
            "bufferView" : 14,
            "componentType" : 5123,
            "count" : 6,
            "type" : "SCALAR"
        },
        {
            "bufferView" : 15,
            "componentType" : 5126,
            "count" : 6,
            "max" : [
                15.014999389648438,
                14.851619720458984,
                0.030548095703125
            ],
            "min" : [
                15.014999389648438,
                -15.178382873535156,
                -3.6640472412109375
            ],
            "type" : "VEC3"
        },
        {
            "bufferView" : 16,
            "componentType" : 5126,
            "count" : 6,
            "type" : "VEC3"
        },
        {
            "bufferView" : 17,
            "componentType" : 5126,
            "count" : 6,
            "type" : "VEC2"
        },
        {
            "bufferView" : 18,
            "componentType" : 5123,
            "count" : 6,
            "type" : "SCALAR"
        },
        {
            "bufferView" : 19,
            "componentType" : 5126,
            "count" : 16,
            "max" : [
                15.014999389648438,
                -6.262908935546875,
                -4.543056488037109
            ],
            "min" : [
                -15.014999389648438,
                -15.178394317626953,
                -34.393287658691406
            ],
            "type" : "VEC3"
        },
        {
            "bufferView" : 20,
            "componentType" : 5126,
            "count" : 16,
            "type" : "VEC3"
        },
        {
            "bufferView" : 21,
            "componentType" : 5126,
            "count" : 16,
            "type" : "VEC2"
        },
        {
            "bufferView" : 22,
            "componentType" : 5123,
            "count" : 18,
            "type" : "SCALAR"
        },
        {
            "bufferView" : 23,
            "componentType" : 5126,
            "count" : 16,
            "max" : [
                15.014999389648438,
                14.851615905761719,
                -4.5430755615234375
            ],
            "min" : [
                -15.014999389648438,
                5.946815490722656,
                -34.393287658691406
            ],
            "type" : "VEC3"
        },
        {
            "bufferView" : 24,
            "componentType" : 5126,
            "count" : 16,
            "type" : "VEC3"
        },
        {
            "bufferView" : 25,
            "componentType" : 5126,
            "count" : 16,
            "type" : "VEC2"
        },
        {
            "bufferView" : 26,
            "componentType" : 5123,
            "count" : 18,
            "type" : "SCALAR"
        },
        {
            "bufferView" : 27,
            "componentType" : 5126,
            "count" : 24,
            "max" : [
                15.014999389648438,
                14.851615905761719,
                -4.543056488037109
            ],
            "min" : [
                -7.207328796386719,
                -15.178394317626953,
                -34.393287658691406
            ],
            "type" : "VEC3"
        },
        {
            "bufferView" : 28,
            "componentType" : 5126,
            "count" : 24,
            "type" : "VEC3"
        },
        {
            "bufferView" : 29,
            "componentType" : 5126,
            "count" : 24,
            "type" : "VEC2"
        },
        {
            "bufferView" : 30,
            "componentType" : 5123,
            "count" : 24,
            "type" : "SCALAR"
        },
        {
            "bufferView" : 31,
            "componentType" : 5126,
            "count" : 24,
            "max" : [
                6.891254425048828,
                14.851615905761719,
                -4.543056488037109
            ],
            "min" : [
                -15.014999389648438,
                -15.178394317626953,
                -34.393287658691406
            ],
            "type" : "VEC3"
        },
        {
            "bufferView" : 32,
            "componentType" : 5126,
            "count" : 24,
            "type" : "VEC3"
        },
        {
            "bufferView" : 33,
            "componentType" : 5126,
            "count" : 24,
            "type" : "VEC2"
        },
        {
            "bufferView" : 34,
            "componentType" : 5123,
            "count" : 24,
            "type" : "SCALAR"
        }
    ],
    "bufferViews" : [
        {
            "buffer" : 0,
            "byteLength" : 1620,
            "byteOffset" : 0
        },
        {
            "buffer" : 0,
            "byteLength" : 1620,
            "byteOffset" : 1620
        },
        {
            "buffer" : 0,
            "byteLength" : 1080,
            "byteOffset" : 3240
        },
        {
            "buffer" : 0,
            "byteLength" : 288,
            "byteOffset" : 4320
        },
        {
            "buffer" : 0,
            "byteLength" : 48,
            "byteOffset" : 4608
        },
        {
            "buffer" : 0,
            "byteLength" : 48,
            "byteOffset" : 4656
        },
        {
            "buffer" : 0,
            "byteLength" : 32,
            "byteOffset" : 4704
        },
        {
            "buffer" : 0,
            "byteLength" : 12,
            "byteOffset" : 4736
        },
        {
            "buffer" : 0,
            "byteLength" : 48,
            "byteOffset" : 4748
        },
        {
            "buffer" : 0,
            "byteLength" : 48,
            "byteOffset" : 4796
        },
        {
            "buffer" : 0,
            "byteLength" : 32,
            "byteOffset" : 4844
        },
        {
            "buffer" : 0,
            "byteLength" : 72,
            "byteOffset" : 4876
        },
        {
            "buffer" : 0,
            "byteLength" : 72,
            "byteOffset" : 4948
        },
        {
            "buffer" : 0,
            "byteLength" : 48,
            "byteOffset" : 5020
        },
        {
            "buffer" : 0,
            "byteLength" : 12,
            "byteOffset" : 5068
        },
        {
            "buffer" : 0,
            "byteLength" : 72,
            "byteOffset" : 5080
        },
        {
            "buffer" : 0,
            "byteLength" : 72,
            "byteOffset" : 5152
        },
        {
            "buffer" : 0,
            "byteLength" : 48,
            "byteOffset" : 5224
        },
        {
            "buffer" : 0,
            "byteLength" : 12,
            "byteOffset" : 5272
        },
        {
            "buffer" : 0,
            "byteLength" : 192,
            "byteOffset" : 5284
        },
        {
            "buffer" : 0,
            "byteLength" : 192,
            "byteOffset" : 5476
        },
        {
            "buffer" : 0,
            "byteLength" : 128,
            "byteOffset" : 5668
        },
        {
            "buffer" : 0,
            "byteLength" : 36,
            "byteOffset" : 5796
        },
        {
            "buffer" : 0,
            "byteLength" : 192,
            "byteOffset" : 5832
        },
        {
            "buffer" : 0,
            "byteLength" : 192,
            "byteOffset" : 6024
        },
        {
            "buffer" : 0,
            "byteLength" : 128,
            "byteOffset" : 6216
        },
        {
            "buffer" : 0,
            "byteLength" : 36,
            "byteOffset" : 6344
        },
        {
            "buffer" : 0,
            "byteLength" : 288,
            "byteOffset" : 6380
        },
        {
            "buffer" : 0,
            "byteLength" : 288,
            "byteOffset" : 6668
        },
        {
            "buffer" : 0,
            "byteLength" : 192,
            "byteOffset" : 6956
        },
        {
            "buffer" : 0,
            "byteLength" : 48,
            "byteOffset" : 7148
        },
        {
            "buffer" : 0,
            "byteLength" : 288,
            "byteOffset" : 7196
        },
        {
            "buffer" : 0,
            "byteLength" : 288,
            "byteOffset" : 7484
        },
        {
            "buffer" : 0,
            "byteLength" : 192,
            "byteOffset" : 7772
        },
        {
            "buffer" : 0,
            "byteLength" : 48,
            "byteOffset" : 7964
        }
    ],
    "samplers" : [
        {
            "magFilter" : 9729,
            "minFilter" : 9987
        }
    ],
    "buffers" : [
        {
            "byteLength" : 8012,
            "uri" : "historic.bin"
        }
    ]
}
