{
    "asset" : {
        "generator" : "Khronos glTF Blender I/O v1.7.33",
        "version" : "2.0"
    },
    "scene" : 0,
    "scenes" : [
        {
            "name" : "Scene",
            "nodes" : [
                0
            ]
        }
    ],
    "nodes" : [
        {
            "mesh" : 0,
            "name" : "Maxis-3d1-mesh-44",
            "rotation" : [
                0.7071068286895752,
                0,
                0,
                0.7071067094802856
            ]
        }
    ],
    "materials" : [
        {
            "doubleSided" : true,
            "name" : "matcolour-16",
            "pbrMetallicRoughness" : {
                "baseColorFactor" : [
                    0.5607843399047852,
                    0.062745101749897,
                    0.019607843831181526,
                    1
                ],
                "metallicFactor" : 0
            }
        },
        {
            "doubleSided" : true,
            "name" : "matcolour-48.001",
            "pbrMetallicRoughness" : {
                "baseColorFactor" : [
                    0.05882352963089943,
                    0.05882352963089943,
                    0.05882352963089943,
                    1
                ],
                "metallicFactor" : 0
            }
        },
        {
            "doubleSided" : true,
            "name" : "mat39-1",
            "pbrMetallicRoughness" : {
                "baseColorTexture" : {
                    "index" : 0
                },
                "metallicFactor" : 0
            }
        },
        {
            "doubleSided" : true,
            "name" : "mat39-2",
            "pbrMetallicRoughness" : {
                "baseColorTexture" : {
                    "index" : 1
                },
                "metallicFactor" : 0
            }
        },
        {
            "doubleSided" : true,
            "name" : "mat2-56.001",
            "pbrMetallicRoughness" : {
                "baseColorTexture" : {
                    "index" : 2
                },
                "metallicFactor" : 0
            }
        },
        {
            "doubleSided" : true,
            "name" : "mat2-59.001",
            "pbrMetallicRoughness" : {
                "baseColorTexture" : {
                    "index" : 3
                },
                "metallicFactor" : 0
            }
        },
        {
            "doubleSided" : true,
            "name" : "mat2-57.001",
            "pbrMetallicRoughness" : {
                "baseColorTexture" : {
                    "index" : 4
                },
                "metallicFactor" : 0
            }
        },
        {
            "doubleSided" : true,
            "name" : "mat2-58.001",
            "pbrMetallicRoughness" : {
                "baseColorTexture" : {
                    "index" : 5
                },
                "metallicFactor" : 0
            }
        },
        {
            "doubleSided" : true,
            "name" : "mat39-3",
            "pbrMetallicRoughness" : {
                "baseColorTexture" : {
                    "index" : 6
                },
                "metallicFactor" : 0
            }
        },
        {
            "doubleSided" : true,
            "name" : "mat39-0",
            "pbrMetallicRoughness" : {
                "baseColorTexture" : {
                    "index" : 7
                },
                "metallicFactor" : 0
            }
        }
    ],
    "meshes" : [
        {
            "name" : "Maxis-3d1-mesh-44",
            "primitives" : [
                {
                    "attributes" : {
                        "POSITION" : 0,
                        "NORMAL" : 1,
                        "TEXCOORD_0" : 2
                    },
                    "indices" : 3,
                    "material" : 0
                },
                {
                    "attributes" : {
                        "POSITION" : 4,
                        "NORMAL" : 5,
                        "TEXCOORD_0" : 6
                    },
                    "indices" : 7,
                    "material" : 1
                },
                {
                    "attributes" : {
                        "POSITION" : 8,
                        "NORMAL" : 9,
                        "TEXCOORD_0" : 10
                    },
                    "indices" : 11,
                    "material" : 2
                },
                {
                    "attributes" : {
                        "POSITION" : 12,
                        "NORMAL" : 13,
                        "TEXCOORD_0" : 14
                    },
                    "indices" : 15,
                    "material" : 3
                },
                {
                    "attributes" : {
                        "POSITION" : 16,
                        "NORMAL" : 17,
                        "TEXCOORD_0" : 18
                    },
                    "indices" : 19,
                    "material" : 4
                },
                {
                    "attributes" : {
                        "POSITION" : 20,
                        "NORMAL" : 21,
                        "TEXCOORD_0" : 22
                    },
                    "indices" : 23,
                    "material" : 5
                },
                {
                    "attributes" : {
                        "POSITION" : 24,
                        "NORMAL" : 25,
                        "TEXCOORD_0" : 26
                    },
                    "indices" : 27,
                    "material" : 6
                },
                {
                    "attributes" : {
                        "POSITION" : 28,
                        "NORMAL" : 29,
                        "TEXCOORD_0" : 30
                    },
                    "indices" : 31,
                    "material" : 7
                },
                {
                    "attributes" : {
                        "POSITION" : 32,
                        "NORMAL" : 33,
                        "TEXCOORD_0" : 34
                    },
                    "indices" : 35,
                    "material" : 8
                },
                {
                    "attributes" : {
                        "POSITION" : 36,
                        "NORMAL" : 37,
                        "TEXCOORD_0" : 38
                    },
                    "indices" : 39,
                    "material" : 9
                }
            ]
        }
    ],
    "textures" : [
        {
            "sampler" : 0,
            "source" : 0
        },
        {
            "sampler" : 0,
            "source" : 1
        },
        {
            "sampler" : 0,
            "source" : 2
        },
        {
            "sampler" : 0,
            "source" : 3
        },
        {
            "sampler" : 0,
            "source" : 4
        },
        {
            "sampler" : 0,
            "source" : 5
        },
        {
            "sampler" : 0,
            "source" : 6
        },
        {
            "sampler" : 0,
            "source" : 7
        }
    ],
    "images" : [
        {
            "mimeType" : "image/png",
            "name" : "tex39-1",
            "uri" : "../../../Textures/tex39-1.png"
        },
        {
            "mimeType" : "image/png",
            "name" : "tex39-2",
            "uri" : "../../../Textures/tex39-2.png"
        },
        {
            "mimeType" : "image/png",
            "name" : "tex2-56",
            "uri" : "../../../Textures/tex2-56.png"
        },
        {
            "mimeType" : "image/png",
            "name" : "tex2-59",
            "uri" : "../../../Textures/tex2-59.png"
        },
        {
            "mimeType" : "image/png",
            "name" : "tex2-57",
            "uri" : "../../../Textures/tex2-57.png"
        },
        {
            "mimeType" : "image/png",
            "name" : "tex2-58",
            "uri" : "../../../Textures/tex2-58.png"
        },
        {
            "mimeType" : "image/png",
            "name" : "tex39-3",
            "uri" : "../../../Textures/tex39-3.png"
        },
        {
            "mimeType" : "image/png",
            "name" : "tex39-0",
            "uri" : "../../../Textures/tex39-0.png"
        }
    ],
    "accessors" : [
        {
            "bufferView" : 0,
            "componentType" : 5126,
            "count" : 28,
            "max" : [
                -5.879249572753906,
                -8.457897186279297,
                -48.74290084838867
            ],
            "min" : [
                -6.044376373291016,
                -8.62302017211914,
                -52.66059875488281
            ],
            "type" : "VEC3"
        },
        {
            "bufferView" : 1,
            "componentType" : 5126,
            "count" : 28,
            "type" : "VEC3"
        },
        {
            "bufferView" : 2,
            "componentType" : 5126,
            "count" : 28,
            "type" : "VEC2"
        },
        {
            "bufferView" : 3,
            "componentType" : 5123,
            "count" : 30,
            "type" : "SCALAR"
        },
        {
            "bufferView" : 4,
            "componentType" : 5126,
            "count" : 168,
            "max" : [
                15.075244903564453,
                15.112747192382812,
                -5.496604919433594
            ],
            "min" : [
                -15.042896270751953,
                -14.977916717529297,
                -48.74290084838867
            ],
            "type" : "VEC3"
        },
        {
            "bufferView" : 5,
            "componentType" : 5126,
            "count" : 168,
            "type" : "VEC3"
        },
        {
            "bufferView" : 6,
            "componentType" : 5126,
            "count" : 168,
            "type" : "VEC2"
        },
        {
            "bufferView" : 7,
            "componentType" : 5123,
            "count" : 183,
            "type" : "SCALAR"
        },
        {
            "bufferView" : 8,
            "componentType" : 5126,
            "count" : 24,
            "max" : [
                4.0194854736328125,
                14.600830078125,
                -6.202262878417969
            ],
            "min" : [
                -7.536537170410156,
                -14.546684265136719,
                -48.74290084838867
            ],
            "type" : "VEC3"
        },
        {
            "bufferView" : 9,
            "componentType" : 5126,
            "count" : 24,
            "type" : "VEC3"
        },
        {
            "bufferView" : 10,
            "componentType" : 5126,
            "count" : 24,
            "type" : "VEC2"
        },
        {
            "bufferView" : 11,
            "componentType" : 5123,
            "count" : 24,
            "type" : "SCALAR"
        },
        {
            "bufferView" : 12,
            "componentType" : 5126,
            "count" : 24,
            "max" : [
                14.619125366210938,
                14.600830078125,
                -6.202262878417969
            ],
            "min" : [
                3.0146141052246094,
                -14.546684265136719,
                -48.74290084838867
            ],
            "type" : "VEC3"
        },
        {
            "bufferView" : 13,
            "componentType" : 5126,
            "count" : 24,
            "type" : "VEC3"
        },
        {
            "bufferView" : 14,
            "componentType" : 5126,
            "count" : 24,
            "type" : "VEC2"
        },
        {
            "bufferView" : 15,
            "componentType" : 5123,
            "count" : 24,
            "type" : "SCALAR"
        },
        {
            "bufferView" : 16,
            "componentType" : 5126,
            "count" : 6,
            "max" : [
                15.075244903564453,
                -14.977916717529297,
                1.52587890625e-05
            ],
            "min" : [
                -15.02459716796875,
                -15.026397705078125,
                -6.202262878417969
            ],
            "type" : "VEC3"
        },
        {
            "bufferView" : 17,
            "componentType" : 5126,
            "count" : 6,
            "type" : "VEC3"
        },
        {
            "bufferView" : 18,
            "componentType" : 5126,
            "count" : 6,
            "type" : "VEC2"
        },
        {
            "bufferView" : 19,
            "componentType" : 5123,
            "count" : 6,
            "type" : "SCALAR"
        },
        {
            "bufferView" : 20,
            "componentType" : 5126,
            "count" : 12,
            "max" : [
                15.075244903564453,
                15.119758605957031,
                0
            ],
            "min" : [
                -15.042896270751953,
                2.0301666259765625,
                -6.2022705078125
            ],
            "type" : "VEC3"
        },
        {
            "bufferView" : 21,
            "componentType" : 5126,
            "count" : 12,
            "type" : "VEC3"
        },
        {
            "bufferView" : 22,
            "componentType" : 5126,
            "count" : 12,
            "type" : "VEC2"
        },
        {
            "bufferView" : 23,
            "componentType" : 5123,
            "count" : 12,
            "type" : "SCALAR"
        },
        {
            "bufferView" : 24,
            "componentType" : 5126,
            "count" : 6,
            "max" : [
                -15.012710571289062,
                15.119758605957031,
                1.52587890625e-05
            ],
            "min" : [
                -15.042896270751953,
                -15.026397705078125,
                -6.2022705078125
            ],
            "type" : "VEC3"
        },
        {
            "bufferView" : 25,
            "componentType" : 5126,
            "count" : 6,
            "type" : "VEC3"
        },
        {
            "bufferView" : 26,
            "componentType" : 5126,
            "count" : 6,
            "type" : "VEC2"
        },
        {
            "bufferView" : 27,
            "componentType" : 5123,
            "count" : 6,
            "type" : "SCALAR"
        },
        {
            "bufferView" : 28,
            "componentType" : 5126,
            "count" : 12,
            "max" : [
                15.075244903564453,
                15.119758605957031,
                7.62939453125e-06
            ],
            "min" : [
                10.551151275634766,
                -15.02639389038086,
                -6.2022705078125
            ],
            "type" : "VEC3"
        },
        {
            "bufferView" : 29,
            "componentType" : 5126,
            "count" : 12,
            "type" : "VEC3"
        },
        {
            "bufferView" : 30,
            "componentType" : 5126,
            "count" : 12,
            "type" : "VEC2"
        },
        {
            "bufferView" : 31,
            "componentType" : 5123,
            "count" : 12,
            "type" : "SCALAR"
        },
        {
            "bufferView" : 32,
            "componentType" : 5126,
            "count" : 34,
            "max" : [
                14.619125366210938,
                14.600830078125,
                -6.202262878417969
            ],
            "min" : [
                -7.536537170410156,
                0.5024223327636719,
                -48.74290084838867
            ],
            "type" : "VEC3"
        },
        {
            "bufferView" : 33,
            "componentType" : 5126,
            "count" : 34,
            "type" : "VEC3"
        },
        {
            "bufferView" : 34,
            "componentType" : 5126,
            "count" : 34,
            "type" : "VEC2"
        },
        {
            "bufferView" : 35,
            "componentType" : 5123,
            "count" : 36,
            "type" : "SCALAR"
        },
        {
            "bufferView" : 36,
            "componentType" : 5126,
            "count" : 18,
            "max" : [
                14.613994598388672,
                -9.04384994506836,
                -6.202262878417969
            ],
            "min" : [
                -7.488056182861328,
                -14.546684265136719,
                -48.74290084838867
            ],
            "type" : "VEC3"
        },
        {
            "bufferView" : 37,
            "componentType" : 5126,
            "count" : 18,
            "type" : "VEC3"
        },
        {
            "bufferView" : 38,
            "componentType" : 5126,
            "count" : 18,
            "type" : "VEC2"
        },
        {
            "bufferView" : 39,
            "componentType" : 5123,
            "count" : 18,
            "type" : "SCALAR"
        }
    ],
    "bufferViews" : [
        {
            "buffer" : 0,
            "byteLength" : 336,
            "byteOffset" : 0
        },
        {
            "buffer" : 0,
            "byteLength" : 336,
            "byteOffset" : 336
        },
        {
            "buffer" : 0,
            "byteLength" : 224,
            "byteOffset" : 672
        },
        {
            "buffer" : 0,
            "byteLength" : 60,
            "byteOffset" : 896
        },
        {
            "buffer" : 0,
            "byteLength" : 2016,
            "byteOffset" : 956
        },
        {
            "buffer" : 0,
            "byteLength" : 2016,
            "byteOffset" : 2972
        },
        {
            "buffer" : 0,
            "byteLength" : 1344,
            "byteOffset" : 4988
        },
        {
            "buffer" : 0,
            "byteLength" : 366,
            "byteOffset" : 6332
        },
        {
            "buffer" : 0,
            "byteLength" : 288,
            "byteOffset" : 6700
        },
        {
            "buffer" : 0,
            "byteLength" : 288,
            "byteOffset" : 6988
        },
        {
            "buffer" : 0,
            "byteLength" : 192,
            "byteOffset" : 7276
        },
        {
            "buffer" : 0,
            "byteLength" : 48,
            "byteOffset" : 7468
        },
        {
            "buffer" : 0,
            "byteLength" : 288,
            "byteOffset" : 7516
        },
        {
            "buffer" : 0,
            "byteLength" : 288,
            "byteOffset" : 7804
        },
        {
            "buffer" : 0,
            "byteLength" : 192,
            "byteOffset" : 8092
        },
        {
            "buffer" : 0,
            "byteLength" : 48,
            "byteOffset" : 8284
        },
        {
            "buffer" : 0,
            "byteLength" : 72,
            "byteOffset" : 8332
        },
        {
            "buffer" : 0,
            "byteLength" : 72,
            "byteOffset" : 8404
        },
        {
            "buffer" : 0,
            "byteLength" : 48,
            "byteOffset" : 8476
        },
        {
            "buffer" : 0,
            "byteLength" : 12,
            "byteOffset" : 8524
        },
        {
            "buffer" : 0,
            "byteLength" : 144,
            "byteOffset" : 8536
        },
        {
            "buffer" : 0,
            "byteLength" : 144,
            "byteOffset" : 8680
        },
        {
            "buffer" : 0,
            "byteLength" : 96,
            "byteOffset" : 8824
        },
        {
            "buffer" : 0,
            "byteLength" : 24,
            "byteOffset" : 8920
        },
        {
            "buffer" : 0,
            "byteLength" : 72,
            "byteOffset" : 8944
        },
        {
            "buffer" : 0,
            "byteLength" : 72,
            "byteOffset" : 9016
        },
        {
            "buffer" : 0,
            "byteLength" : 48,
            "byteOffset" : 9088
        },
        {
            "buffer" : 0,
            "byteLength" : 12,
            "byteOffset" : 9136
        },
        {
            "buffer" : 0,
            "byteLength" : 144,
            "byteOffset" : 9148
        },
        {
            "buffer" : 0,
            "byteLength" : 144,
            "byteOffset" : 9292
        },
        {
            "buffer" : 0,
            "byteLength" : 96,
            "byteOffset" : 9436
        },
        {
            "buffer" : 0,
            "byteLength" : 24,
            "byteOffset" : 9532
        },
        {
            "buffer" : 0,
            "byteLength" : 408,
            "byteOffset" : 9556
        },
        {
            "buffer" : 0,
            "byteLength" : 408,
            "byteOffset" : 9964
        },
        {
            "buffer" : 0,
            "byteLength" : 272,
            "byteOffset" : 10372
        },
        {
            "buffer" : 0,
            "byteLength" : 72,
            "byteOffset" : 10644
        },
        {
            "buffer" : 0,
            "byteLength" : 216,
            "byteOffset" : 10716
        },
        {
            "buffer" : 0,
            "byteLength" : 216,
            "byteOffset" : 10932
        },
        {
            "buffer" : 0,
            "byteLength" : 144,
            "byteOffset" : 11148
        },
        {
            "buffer" : 0,
            "byteLength" : 36,
            "byteOffset" : 11292
        }
    ],
    "samplers" : [
        {
            "magFilter" : 9729,
            "minFilter" : 9987
        }
    ],
    "buffers" : [
        {
            "byteLength" : 11328,
            "uri" : "medium_4.bin"
        }
    ]
}
