{
    "asset" : {
        "generator" : "Khronos glTF Blender I/O v1.7.33",
        "version" : "2.0"
    },
    "scene" : 0,
    "scenes" : [
        {
            "name" : "Scene",
            "nodes" : [
                0
            ]
        }
    ],
    "nodes" : [
        {
            "mesh" : 0,
            "name" : "Maxis-3d3-mesh-26",
            "rotation" : [
                0.7071068286895752,
                0,
                0,
                0.7071067094802856
            ]
        }
    ],
    "materials" : [
        {
            "doubleSided" : true,
            "name" : "matcolour-48.009",
            "pbrMetallicRoughness" : {
                "baseColorFactor" : [
                    0.05882352963089943,
                    0.05882352963089943,
                    0.05882352963089943,
                    1
                ],
                "metallicFactor" : 0
            }
        },
        {
            "doubleSided" : true,
            "name" : "mat39-40",
            "pbrMetallicRoughness" : {
                "baseColorTexture" : {
                    "index" : 0
                },
                "metallicFactor" : 0
            }
        },
        {
            "doubleSided" : true,
            "name" : "mat39-43",
            "pbrMetallicRoughness" : {
                "baseColorTexture" : {
                    "index" : 1
                },
                "metallicFactor" : 0
            }
        },
        {
            "doubleSided" : true,
            "name" : "mat39-42",
            "pbrMetallicRoughness" : {
                "baseColorTexture" : {
                    "index" : 2
                },
                "metallicFactor" : 0
            }
        },
        {
            "doubleSided" : true,
            "name" : "mat39-41",
            "pbrMetallicRoughness" : {
                "baseColorTexture" : {
                    "index" : 3
                },
                "metallicFactor" : 0
            }
        },
        {
            "doubleSided" : true,
            "name" : "mat2-41.001",
            "pbrMetallicRoughness" : {
                "baseColorTexture" : {
                    "index" : 4
                },
                "metallicFactor" : 0
            }
        },
        {
            "doubleSided" : true,
            "name" : "mat2-43.001",
            "pbrMetallicRoughness" : {
                "baseColorTexture" : {
                    "index" : 5
                },
                "metallicFactor" : 0
            }
        }
    ],
    "meshes" : [
        {
            "name" : "Maxis-3d3-mesh-26",
            "primitives" : [
                {
                    "attributes" : {
                        "POSITION" : 0,
                        "NORMAL" : 1,
                        "TEXCOORD_0" : 2
                    },
                    "indices" : 3,
                    "material" : 0
                },
                {
                    "attributes" : {
                        "POSITION" : 4,
                        "NORMAL" : 5,
                        "TEXCOORD_0" : 6
                    },
                    "indices" : 7,
                    "material" : 1
                },
                {
                    "attributes" : {
                        "POSITION" : 8,
                        "NORMAL" : 9,
                        "TEXCOORD_0" : 10
                    },
                    "indices" : 11,
                    "material" : 2
                },
                {
                    "attributes" : {
                        "POSITION" : 12,
                        "NORMAL" : 13,
                        "TEXCOORD_0" : 14
                    },
                    "indices" : 15,
                    "material" : 3
                },
                {
                    "attributes" : {
                        "POSITION" : 16,
                        "NORMAL" : 17,
                        "TEXCOORD_0" : 18
                    },
                    "indices" : 19,
                    "material" : 4
                },
                {
                    "attributes" : {
                        "POSITION" : 20,
                        "NORMAL" : 21,
                        "TEXCOORD_0" : 22
                    },
                    "indices" : 23,
                    "material" : 5
                },
                {
                    "attributes" : {
                        "POSITION" : 24,
                        "NORMAL" : 25,
                        "TEXCOORD_0" : 26
                    },
                    "indices" : 7,
                    "material" : 6
                }
            ]
        }
    ],
    "textures" : [
        {
            "sampler" : 0,
            "source" : 0
        },
        {
            "sampler" : 0,
            "source" : 1
        },
        {
            "sampler" : 0,
            "source" : 2
        },
        {
            "sampler" : 0,
            "source" : 3
        },
        {
            "sampler" : 0,
            "source" : 4
        },
        {
            "sampler" : 0,
            "source" : 5
        }
    ],
    "images" : [
        {
            "mimeType" : "image/png",
            "name" : "tex39-40",
            "uri" : "../../../Textures/tex39-40.png"
        },
        {
            "mimeType" : "image/png",
            "name" : "tex39-43",
            "uri" : "../../../Textures/tex39-43.png"
        },
        {
            "mimeType" : "image/png",
            "name" : "tex39-42",
            "uri" : "../../../Textures/tex39-42.png"
        },
        {
            "mimeType" : "image/png",
            "name" : "tex39-41",
            "uri" : "../../../Textures/tex39-41.png"
        },
        {
            "mimeType" : "image/png",
            "name" : "tex2-41",
            "uri" : "../../../Textures/tex2-41.png"
        },
        {
            "mimeType" : "image/png",
            "name" : "tex2-43",
            "uri" : "../../../Textures/tex2-43.png"
        }
    ],
    "accessors" : [
        {
            "bufferView" : 0,
            "componentType" : 5126,
            "count" : 10,
            "max" : [
                7.0233306884765625,
                7.0233306884765625,
                -10.149700164794922
            ],
            "min" : [
                -7.0233306884765625,
                -7.023338317871094,
                -20.817134857177734
            ],
            "type" : "VEC3"
        },
        {
            "bufferView" : 1,
            "componentType" : 5126,
            "count" : 10,
            "type" : "VEC3"
        },
        {
            "bufferView" : 2,
            "componentType" : 5126,
            "count" : 10,
            "type" : "VEC2"
        },
        {
            "bufferView" : 3,
            "componentType" : 5123,
            "count" : 12,
            "type" : "SCALAR"
        },
        {
            "bufferView" : 4,
            "componentType" : 5126,
            "count" : 4,
            "max" : [
                7.0233306884765625,
                -7.023323059082031,
                3.814697265625e-06
            ],
            "min" : [
                -7.0233306884765625,
                -7.023338317871094,
                -20.817134857177734
            ],
            "type" : "VEC3"
        },
        {
            "bufferView" : 5,
            "componentType" : 5126,
            "count" : 4,
            "type" : "VEC3"
        },
        {
            "bufferView" : 6,
            "componentType" : 5126,
            "count" : 4,
            "type" : "VEC2"
        },
        {
            "bufferView" : 7,
            "componentType" : 5123,
            "count" : 6,
            "type" : "SCALAR"
        },
        {
            "bufferView" : 8,
            "componentType" : 5126,
            "count" : 16,
            "max" : [
                7.0233306884765625,
                7.023342132568359,
                0
            ],
            "min" : [
                -7.0233306884765625,
                2.5175132751464844,
                -20.817134857177734
            ],
            "type" : "VEC3"
        },
        {
            "bufferView" : 9,
            "componentType" : 5126,
            "count" : 16,
            "type" : "VEC3"
        },
        {
            "bufferView" : 10,
            "componentType" : 5126,
            "count" : 16,
            "type" : "VEC2"
        },
        {
            "bufferView" : 11,
            "componentType" : 5123,
            "count" : 18,
            "type" : "SCALAR"
        },
        {
            "bufferView" : 12,
            "componentType" : 5126,
            "count" : 18,
            "max" : [
                7.0233306884765625,
                7.023342132568359,
                3.814697265625e-06
            ],
            "min" : [
                2.51751708984375,
                -7.023338317871094,
                -20.817134857177734
            ],
            "type" : "VEC3"
        },
        {
            "bufferView" : 13,
            "componentType" : 5126,
            "count" : 18,
            "type" : "VEC3"
        },
        {
            "bufferView" : 14,
            "componentType" : 5126,
            "count" : 18,
            "type" : "VEC2"
        },
        {
            "bufferView" : 15,
            "componentType" : 5123,
            "count" : 18,
            "type" : "SCALAR"
        },
        {
            "bufferView" : 16,
            "componentType" : 5126,
            "count" : 6,
            "max" : [
                -7.0233306884765625,
                7.023342132568359,
                3.814697265625e-06
            ],
            "min" : [
                -7.0233306884765625,
                -7.023338317871094,
                -20.817134857177734
            ],
            "type" : "VEC3"
        },
        {
            "bufferView" : 17,
            "componentType" : 5126,
            "count" : 6,
            "type" : "VEC3"
        },
        {
            "bufferView" : 18,
            "componentType" : 5126,
            "count" : 6,
            "type" : "VEC2"
        },
        {
            "bufferView" : 19,
            "componentType" : 5123,
            "count" : 6,
            "type" : "SCALAR"
        },
        {
            "bufferView" : 20,
            "componentType" : 5126,
            "count" : 6,
            "max" : [
                2.580883026123047,
                5.9736480712890625,
                0
            ],
            "min" : [
                2.5767288208007812,
                3.7713241577148438,
                -3.280223846435547
            ],
            "type" : "VEC3"
        },
        {
            "bufferView" : 21,
            "componentType" : 5126,
            "count" : 6,
            "type" : "VEC3"
        },
        {
            "bufferView" : 22,
            "componentType" : 5126,
            "count" : 6,
            "type" : "VEC2"
        },
        {
            "bufferView" : 23,
            "componentType" : 5123,
            "count" : 6,
            "type" : "SCALAR"
        },
        {
            "bufferView" : 24,
            "componentType" : 5126,
            "count" : 4,
            "max" : [
                5.816822052001953,
                2.5610198974609375,
                0
            ],
            "min" : [
                3.6144981384277344,
                2.561016082763672,
                -3.2802200317382812
            ],
            "type" : "VEC3"
        },
        {
            "bufferView" : 25,
            "componentType" : 5126,
            "count" : 4,
            "type" : "VEC3"
        },
        {
            "bufferView" : 26,
            "componentType" : 5126,
            "count" : 4,
            "type" : "VEC2"
        }
    ],
    "bufferViews" : [
        {
            "buffer" : 0,
            "byteLength" : 120,
            "byteOffset" : 0
        },
        {
            "buffer" : 0,
            "byteLength" : 120,
            "byteOffset" : 120
        },
        {
            "buffer" : 0,
            "byteLength" : 80,
            "byteOffset" : 240
        },
        {
            "buffer" : 0,
            "byteLength" : 24,
            "byteOffset" : 320
        },
        {
            "buffer" : 0,
            "byteLength" : 48,
            "byteOffset" : 344
        },
        {
            "buffer" : 0,
            "byteLength" : 48,
            "byteOffset" : 392
        },
        {
            "buffer" : 0,
            "byteLength" : 32,
            "byteOffset" : 440
        },
        {
            "buffer" : 0,
            "byteLength" : 12,
            "byteOffset" : 472
        },
        {
            "buffer" : 0,
            "byteLength" : 192,
            "byteOffset" : 484
        },
        {
            "buffer" : 0,
            "byteLength" : 192,
            "byteOffset" : 676
        },
        {
            "buffer" : 0,
            "byteLength" : 128,
            "byteOffset" : 868
        },
        {
            "buffer" : 0,
            "byteLength" : 36,
            "byteOffset" : 996
        },
        {
            "buffer" : 0,
            "byteLength" : 216,
            "byteOffset" : 1032
        },
        {
            "buffer" : 0,
            "byteLength" : 216,
            "byteOffset" : 1248
        },
        {
            "buffer" : 0,
            "byteLength" : 144,
            "byteOffset" : 1464
        },
        {
            "buffer" : 0,
            "byteLength" : 36,
            "byteOffset" : 1608
        },
        {
            "buffer" : 0,
            "byteLength" : 72,
            "byteOffset" : 1644
        },
        {
            "buffer" : 0,
            "byteLength" : 72,
            "byteOffset" : 1716
        },
        {
            "buffer" : 0,
            "byteLength" : 48,
            "byteOffset" : 1788
        },
        {
            "buffer" : 0,
            "byteLength" : 12,
            "byteOffset" : 1836
        },
        {
            "buffer" : 0,
            "byteLength" : 72,
            "byteOffset" : 1848
        },
        {
            "buffer" : 0,
            "byteLength" : 72,
            "byteOffset" : 1920
        },
        {
            "buffer" : 0,
            "byteLength" : 48,
            "byteOffset" : 1992
        },
        {
            "buffer" : 0,
            "byteLength" : 12,
            "byteOffset" : 2040
        },
        {
            "buffer" : 0,
            "byteLength" : 48,
            "byteOffset" : 2052
        },
        {
            "buffer" : 0,
            "byteLength" : 48,
            "byteOffset" : 2100
        },
        {
            "buffer" : 0,
            "byteLength" : 32,
            "byteOffset" : 2148
        }
    ],
    "samplers" : [
        {
            "magFilter" : 9729,
            "minFilter" : 9987
        }
    ],
    "buffers" : [
        {
            "byteLength" : 2180,
            "uri" : "small_2.bin"
        }
    ]
}
