{
    "asset" : {
        "generator" : "Khronos glTF Blender I/O v1.7.33",
        "version" : "2.0"
    },
    "scene" : 0,
    "scenes" : [
        {
            "name" : "Scene",
            "nodes" : [
                0
            ]
        }
    ],
    "nodes" : [
        {
            "mesh" : 0,
            "name" : "Maxis-3d1-mesh-9-abnd4story.001",
            "rotation" : [
                0.7071068286895752,
                0,
                0,
                0.7071067094802856
            ]
        }
    ],
    "materials" : [
        {
            "doubleSided" : true,
            "name" : "matcolour-48.005",
            "pbrMetallicRoughness" : {
                "baseColorFactor" : [
                    0.05882352963089943,
                    0.05882352963089943,
                    0.05882352963089943,
                    1
                ],
                "metallicFactor" : 0
            }
        },
        {
            "doubleSided" : true,
            "name" : "mat39-5.001",
            "pbrMetallicRoughness" : {
                "baseColorTexture" : {
                    "index" : 0
                },
                "metallicFactor" : 0
            }
        },
        {
            "doubleSided" : true,
            "name" : "mat39-6.001",
            "pbrMetallicRoughness" : {
                "baseColorTexture" : {
                    "index" : 1
                },
                "metallicFactor" : 0
            }
        },
        {
            "doubleSided" : true,
            "name" : "mat39-4.001",
            "pbrMetallicRoughness" : {
                "baseColorTexture" : {
                    "index" : 2
                },
                "metallicFactor" : 0
            }
        },
        {
            "doubleSided" : true,
            "name" : "mat39-7.001",
            "pbrMetallicRoughness" : {
                "baseColorTexture" : {
                    "index" : 3
                },
                "metallicFactor" : 0
            }
        },
        {
            "doubleSided" : true,
            "name" : "mat39-56.001",
            "pbrMetallicRoughness" : {
                "baseColorTexture" : {
                    "index" : 4
                },
                "metallicFactor" : 0
            }
        },
        {
            "doubleSided" : true,
            "name" : "mat39-59.001",
            "pbrMetallicRoughness" : {
                "baseColorTexture" : {
                    "index" : 5
                },
                "metallicFactor" : 0
            }
        },
        {
            "doubleSided" : true,
            "name" : "mat39-57.002",
            "pbrMetallicRoughness" : {
                "baseColorTexture" : {
                    "index" : 6
                },
                "metallicFactor" : 0
            }
        },
        {
            "doubleSided" : true,
            "name" : "mat39-58.002",
            "pbrMetallicRoughness" : {
                "baseColorTexture" : {
                    "index" : 7
                },
                "metallicFactor" : 0
            }
        }
    ],
    "meshes" : [
        {
            "name" : "Maxis-3d1-mesh-9-abnd4story.001",
            "primitives" : [
                {
                    "attributes" : {
                        "POSITION" : 0,
                        "NORMAL" : 1,
                        "TEXCOORD_0" : 2
                    },
                    "indices" : 3,
                    "material" : 0
                },
                {
                    "attributes" : {
                        "POSITION" : 4,
                        "NORMAL" : 5,
                        "TEXCOORD_0" : 6
                    },
                    "indices" : 7,
                    "material" : 1
                },
                {
                    "attributes" : {
                        "POSITION" : 8,
                        "NORMAL" : 9,
                        "TEXCOORD_0" : 10
                    },
                    "indices" : 11,
                    "material" : 2
                },
                {
                    "attributes" : {
                        "POSITION" : 12,
                        "NORMAL" : 13,
                        "TEXCOORD_0" : 14
                    },
                    "indices" : 15,
                    "material" : 3
                },
                {
                    "attributes" : {
                        "POSITION" : 16,
                        "NORMAL" : 17,
                        "TEXCOORD_0" : 18
                    },
                    "indices" : 19,
                    "material" : 4
                },
                {
                    "attributes" : {
                        "POSITION" : 20,
                        "NORMAL" : 21,
                        "TEXCOORD_0" : 22
                    },
                    "indices" : 23,
                    "material" : 5
                },
                {
                    "attributes" : {
                        "POSITION" : 24,
                        "NORMAL" : 25,
                        "TEXCOORD_0" : 26
                    },
                    "indices" : 27,
                    "material" : 6
                },
                {
                    "attributes" : {
                        "POSITION" : 28,
                        "NORMAL" : 29,
                        "TEXCOORD_0" : 30
                    },
                    "indices" : 31,
                    "material" : 7
                },
                {
                    "attributes" : {
                        "POSITION" : 32,
                        "NORMAL" : 33,
                        "TEXCOORD_0" : 34
                    },
                    "indices" : 35,
                    "material" : 8
                }
            ]
        }
    ],
    "textures" : [
        {
            "sampler" : 0,
            "source" : 0
        },
        {
            "sampler" : 0,
            "source" : 1
        },
        {
            "sampler" : 0,
            "source" : 2
        },
        {
            "sampler" : 0,
            "source" : 3
        },
        {
            "sampler" : 0,
            "source" : 4
        },
        {
            "sampler" : 0,
            "source" : 5
        },
        {
            "sampler" : 0,
            "source" : 6
        },
        {
            "sampler" : 0,
            "source" : 7
        }
    ],
    "images" : [
        {
            "mimeType" : "image/png",
            "name" : "tex39-5",
            "uri" : "../../../Textures/tex39-5.png"
        },
        {
            "mimeType" : "image/png",
            "name" : "tex39-6",
            "uri" : "../../../Textures/tex39-6.png"
        },
        {
            "mimeType" : "image/png",
            "name" : "tex39-4",
            "uri" : "../../../Textures/tex39-4.png"
        },
        {
            "mimeType" : "image/png",
            "name" : "tex39-7",
            "uri" : "../../../Textures/tex39-7.png"
        },
        {
            "mimeType" : "image/png",
            "name" : "tex39-56",
            "uri" : "../../../Textures/tex39-56.png"
        },
        {
            "mimeType" : "image/png",
            "name" : "tex39-59",
            "uri" : "../../../Textures/tex39-59.png"
        },
        {
            "mimeType" : "image/png",
            "name" : "tex39-57",
            "uri" : "../../../Textures/tex39-57.png"
        },
        {
            "mimeType" : "image/png",
            "name" : "tex39-58",
            "uri" : "../../../Textures/tex39-58.png"
        }
    ],
    "accessors" : [
        {
            "bufferView" : 0,
            "componentType" : 5126,
            "count" : 28,
            "max" : [
                8.583133697509766,
                8.913257598876953,
                -10.443840026855469
            ],
            "min" : [
                -8.583137512207031,
                -8.583137512207031,
                -10.945152282714844
            ],
            "type" : "VEC3"
        },
        {
            "bufferView" : 1,
            "componentType" : 5126,
            "count" : 28,
            "type" : "VEC3"
        },
        {
            "bufferView" : 2,
            "componentType" : 5126,
            "count" : 28,
            "type" : "VEC2"
        },
        {
            "bufferView" : 3,
            "componentType" : 5123,
            "count" : 66,
            "type" : "SCALAR"
        },
        {
            "bufferView" : 4,
            "componentType" : 5126,
            "count" : 8,
            "max" : [
                -3.961444854736328,
                8.913257598876953,
                0
            ],
            "min" : [
                -8.583137512207031,
                -8.583137512207031,
                -10.945148468017578
            ],
            "type" : "VEC3"
        },
        {
            "bufferView" : 5,
            "componentType" : 5126,
            "count" : 8,
            "type" : "VEC3"
        },
        {
            "bufferView" : 6,
            "componentType" : 5126,
            "count" : 8,
            "type" : "VEC2"
        },
        {
            "bufferView" : 7,
            "componentType" : 5123,
            "count" : 12,
            "type" : "SCALAR"
        },
        {
            "bufferView" : 8,
            "componentType" : 5126,
            "count" : 8,
            "max" : [
                8.583137512207031,
                8.913257598876953,
                0
            ],
            "min" : [
                3.961444854736328,
                -8.583137512207031,
                -10.945152282714844
            ],
            "type" : "VEC3"
        },
        {
            "bufferView" : 9,
            "componentType" : 5126,
            "count" : 8,
            "type" : "VEC3"
        },
        {
            "bufferView" : 10,
            "componentType" : 5126,
            "count" : 8,
            "type" : "VEC2"
        },
        {
            "bufferView" : 11,
            "componentType" : 5123,
            "count" : 12,
            "type" : "SCALAR"
        },
        {
            "bufferView" : 12,
            "componentType" : 5126,
            "count" : 4,
            "max" : [
                8.583137512207031,
                -8.583133697509766,
                0
            ],
            "min" : [
                -8.583137512207031,
                -8.583137512207031,
                -10.945148468017578
            ],
            "type" : "VEC3"
        },
        {
            "bufferView" : 13,
            "componentType" : 5126,
            "count" : 4,
            "type" : "VEC3"
        },
        {
            "bufferView" : 14,
            "componentType" : 5126,
            "count" : 4,
            "type" : "VEC2"
        },
        {
            "bufferView" : 15,
            "componentType" : 5123,
            "count" : 6,
            "type" : "SCALAR"
        },
        {
            "bufferView" : 16,
            "componentType" : 5126,
            "count" : 12,
            "max" : [
                8.583137512207031,
                8.913257598876953,
                0
            ],
            "min" : [
                -8.583137512207031,
                5.612049102783203,
                -10.945152282714844
            ],
            "type" : "VEC3"
        },
        {
            "bufferView" : 17,
            "componentType" : 5126,
            "count" : 12,
            "type" : "VEC3"
        },
        {
            "bufferView" : 18,
            "componentType" : 5126,
            "count" : 12,
            "type" : "VEC2"
        },
        {
            "bufferView" : 19,
            "componentType" : 5123,
            "count" : 18,
            "type" : "SCALAR"
        },
        {
            "bufferView" : 20,
            "componentType" : 5126,
            "count" : 12,
            "max" : [
                7.709476470947266,
                7.725791931152344,
                -10.443840026855469
            ],
            "min" : [
                -7.709480285644531,
                4.864383697509766,
                -10.945152282714844
            ],
            "type" : "VEC3"
        },
        {
            "bufferView" : 21,
            "componentType" : 5126,
            "count" : 12,
            "type" : "VEC3"
        },
        {
            "bufferView" : 22,
            "componentType" : 5126,
            "count" : 12,
            "type" : "VEC2"
        },
        {
            "bufferView" : 23,
            "componentType" : 5123,
            "count" : 18,
            "type" : "SCALAR"
        },
        {
            "bufferView" : 24,
            "componentType" : 5126,
            "count" : 4,
            "max" : [
                7.709476470947266,
                -7.439647674560547,
                -10.443840026855469
            ],
            "min" : [
                -7.709480285644531,
                -7.439647674560547,
                -10.945148468017578
            ],
            "type" : "VEC3"
        },
        {
            "bufferView" : 25,
            "componentType" : 5126,
            "count" : 4,
            "type" : "VEC3"
        },
        {
            "bufferView" : 26,
            "componentType" : 5126,
            "count" : 4,
            "type" : "VEC2"
        },
        {
            "bufferView" : 27,
            "componentType" : 5123,
            "count" : 6,
            "type" : "SCALAR"
        },
        {
            "bufferView" : 28,
            "componentType" : 5126,
            "count" : 8,
            "max" : [
                7.709476470947266,
                7.725791931152344,
                -10.443840026855469
            ],
            "min" : [
                3.5582199096679688,
                -7.439647674560547,
                -10.945152282714844
            ],
            "type" : "VEC3"
        },
        {
            "bufferView" : 29,
            "componentType" : 5126,
            "count" : 8,
            "type" : "VEC3"
        },
        {
            "bufferView" : 30,
            "componentType" : 5126,
            "count" : 8,
            "type" : "VEC2"
        },
        {
            "bufferView" : 31,
            "componentType" : 5123,
            "count" : 12,
            "type" : "SCALAR"
        },
        {
            "bufferView" : 32,
            "componentType" : 5126,
            "count" : 8,
            "max" : [
                -3.5582199096679688,
                7.725788116455078,
                -10.443840026855469
            ],
            "min" : [
                -7.709480285644531,
                -7.439647674560547,
                -10.945148468017578
            ],
            "type" : "VEC3"
        },
        {
            "bufferView" : 33,
            "componentType" : 5126,
            "count" : 8,
            "type" : "VEC3"
        },
        {
            "bufferView" : 34,
            "componentType" : 5126,
            "count" : 8,
            "type" : "VEC2"
        },
        {
            "bufferView" : 35,
            "componentType" : 5123,
            "count" : 12,
            "type" : "SCALAR"
        }
    ],
    "bufferViews" : [
        {
            "buffer" : 0,
            "byteLength" : 336,
            "byteOffset" : 0
        },
        {
            "buffer" : 0,
            "byteLength" : 336,
            "byteOffset" : 336
        },
        {
            "buffer" : 0,
            "byteLength" : 224,
            "byteOffset" : 672
        },
        {
            "buffer" : 0,
            "byteLength" : 132,
            "byteOffset" : 896
        },
        {
            "buffer" : 0,
            "byteLength" : 96,
            "byteOffset" : 1028
        },
        {
            "buffer" : 0,
            "byteLength" : 96,
            "byteOffset" : 1124
        },
        {
            "buffer" : 0,
            "byteLength" : 64,
            "byteOffset" : 1220
        },
        {
            "buffer" : 0,
            "byteLength" : 24,
            "byteOffset" : 1284
        },
        {
            "buffer" : 0,
            "byteLength" : 96,
            "byteOffset" : 1308
        },
        {
            "buffer" : 0,
            "byteLength" : 96,
            "byteOffset" : 1404
        },
        {
            "buffer" : 0,
            "byteLength" : 64,
            "byteOffset" : 1500
        },
        {
            "buffer" : 0,
            "byteLength" : 24,
            "byteOffset" : 1564
        },
        {
            "buffer" : 0,
            "byteLength" : 48,
            "byteOffset" : 1588
        },
        {
            "buffer" : 0,
            "byteLength" : 48,
            "byteOffset" : 1636
        },
        {
            "buffer" : 0,
            "byteLength" : 32,
            "byteOffset" : 1684
        },
        {
            "buffer" : 0,
            "byteLength" : 12,
            "byteOffset" : 1716
        },
        {
            "buffer" : 0,
            "byteLength" : 144,
            "byteOffset" : 1728
        },
        {
            "buffer" : 0,
            "byteLength" : 144,
            "byteOffset" : 1872
        },
        {
            "buffer" : 0,
            "byteLength" : 96,
            "byteOffset" : 2016
        },
        {
            "buffer" : 0,
            "byteLength" : 36,
            "byteOffset" : 2112
        },
        {
            "buffer" : 0,
            "byteLength" : 144,
            "byteOffset" : 2148
        },
        {
            "buffer" : 0,
            "byteLength" : 144,
            "byteOffset" : 2292
        },
        {
            "buffer" : 0,
            "byteLength" : 96,
            "byteOffset" : 2436
        },
        {
            "buffer" : 0,
            "byteLength" : 36,
            "byteOffset" : 2532
        },
        {
            "buffer" : 0,
            "byteLength" : 48,
            "byteOffset" : 2568
        },
        {
            "buffer" : 0,
            "byteLength" : 48,
            "byteOffset" : 2616
        },
        {
            "buffer" : 0,
            "byteLength" : 32,
            "byteOffset" : 2664
        },
        {
            "buffer" : 0,
            "byteLength" : 12,
            "byteOffset" : 2696
        },
        {
            "buffer" : 0,
            "byteLength" : 96,
            "byteOffset" : 2708
        },
        {
            "buffer" : 0,
            "byteLength" : 96,
            "byteOffset" : 2804
        },
        {
            "buffer" : 0,
            "byteLength" : 64,
            "byteOffset" : 2900
        },
        {
            "buffer" : 0,
            "byteLength" : 24,
            "byteOffset" : 2964
        },
        {
            "buffer" : 0,
            "byteLength" : 96,
            "byteOffset" : 2988
        },
        {
            "buffer" : 0,
            "byteLength" : 96,
            "byteOffset" : 3084
        },
        {
            "buffer" : 0,
            "byteLength" : 64,
            "byteOffset" : 3180
        },
        {
            "buffer" : 0,
            "byteLength" : 24,
            "byteOffset" : 3244
        }
    ],
    "samplers" : [
        {
            "magFilter" : 9729,
            "minFilter" : 9987
        }
    ],
    "buffers" : [
        {
            "byteLength" : 3268,
            "uri" : "building_4.bin"
        }
    ]
}
