{
    "asset" : {
        "generator" : "Khronos glTF Blender I/O v1.7.33",
        "version" : "2.0"
    },
    "scene" : 0,
    "scenes" : [
        {
            "name" : "Scene",
            "nodes" : [
                0
            ]
        }
    ],
    "nodes" : [
        {
            "mesh" : 0,
            "name" : "Maxis-3d1-mesh-10-abnd7story",
            "rotation" : [
                0.7071068286895752,
                0,
                0,
                0.7071067094802856
            ]
        }
    ],
    "materials" : [
        {
            "doubleSided" : true,
            "name" : "matcolour-48.003",
            "pbrMetallicRoughness" : {
                "baseColorFactor" : [
                    0.05882352963089943,
                    0.05882352963089943,
                    0.05882352963089943,
                    1
                ],
                "metallicFactor" : 0
            }
        },
        {
            "doubleSided" : true,
            "name" : "mat39-22",
            "pbrMetallicRoughness" : {
                "baseColorTexture" : {
                    "index" : 0
                },
                "metallicFactor" : 0
            }
        },
        {
            "doubleSided" : true,
            "name" : "mat39-21",
            "pbrMetallicRoughness" : {
                "baseColorTexture" : {
                    "index" : 1
                },
                "metallicFactor" : 0
            }
        },
        {
            "doubleSided" : true,
            "name" : "mat39-20",
            "pbrMetallicRoughness" : {
                "baseColorTexture" : {
                    "index" : 2
                },
                "metallicFactor" : 0
            }
        },
        {
            "doubleSided" : true,
            "name" : "mat39-23",
            "pbrMetallicRoughness" : {
                "baseColorTexture" : {
                    "index" : 3
                },
                "metallicFactor" : 0
            }
        },
        {
            "doubleSided" : true,
            "name" : "mat40-37",
            "pbrMetallicRoughness" : {
                "baseColorTexture" : {
                    "index" : 4
                },
                "metallicFactor" : 0
            }
        },
        {
            "doubleSided" : true,
            "name" : "mat40-38",
            "pbrMetallicRoughness" : {
                "baseColorTexture" : {
                    "index" : 5
                },
                "metallicFactor" : 0
            }
        },
        {
            "doubleSided" : true,
            "name" : "mat40-39.001",
            "pbrMetallicRoughness" : {
                "baseColorTexture" : {
                    "index" : 6
                },
                "metallicFactor" : 0
            }
        },
        {
            "doubleSided" : true,
            "name" : "mat40-36",
            "pbrMetallicRoughness" : {
                "baseColorTexture" : {
                    "index" : 7
                },
                "metallicFactor" : 0
            }
        }
    ],
    "meshes" : [
        {
            "name" : "Maxis-3d1-mesh-10-abnd7story",
            "primitives" : [
                {
                    "attributes" : {
                        "POSITION" : 0,
                        "NORMAL" : 1,
                        "TEXCOORD_0" : 2
                    },
                    "indices" : 3,
                    "material" : 0
                },
                {
                    "attributes" : {
                        "POSITION" : 4,
                        "NORMAL" : 5,
                        "TEXCOORD_0" : 6
                    },
                    "indices" : 7,
                    "material" : 1
                },
                {
                    "attributes" : {
                        "POSITION" : 8,
                        "NORMAL" : 9,
                        "TEXCOORD_0" : 10
                    },
                    "indices" : 11,
                    "material" : 2
                },
                {
                    "attributes" : {
                        "POSITION" : 12,
                        "NORMAL" : 13,
                        "TEXCOORD_0" : 14
                    },
                    "indices" : 15,
                    "material" : 3
                },
                {
                    "attributes" : {
                        "POSITION" : 16,
                        "NORMAL" : 17,
                        "TEXCOORD_0" : 18
                    },
                    "indices" : 19,
                    "material" : 4
                },
                {
                    "attributes" : {
                        "POSITION" : 20,
                        "NORMAL" : 21,
                        "TEXCOORD_0" : 22
                    },
                    "indices" : 23,
                    "material" : 5
                },
                {
                    "attributes" : {
                        "POSITION" : 24,
                        "NORMAL" : 25,
                        "TEXCOORD_0" : 26
                    },
                    "indices" : 27,
                    "material" : 6
                },
                {
                    "attributes" : {
                        "POSITION" : 28,
                        "NORMAL" : 29,
                        "TEXCOORD_0" : 30
                    },
                    "indices" : 31,
                    "material" : 7
                },
                {
                    "attributes" : {
                        "POSITION" : 32,
                        "NORMAL" : 33,
                        "TEXCOORD_0" : 34
                    },
                    "indices" : 23,
                    "material" : 8
                }
            ]
        }
    ],
    "textures" : [
        {
            "sampler" : 0,
            "source" : 0
        },
        {
            "sampler" : 0,
            "source" : 1
        },
        {
            "sampler" : 0,
            "source" : 2
        },
        {
            "sampler" : 0,
            "source" : 3
        },
        {
            "sampler" : 0,
            "source" : 4
        },
        {
            "sampler" : 0,
            "source" : 5
        },
        {
            "sampler" : 0,
            "source" : 6
        },
        {
            "sampler" : 0,
            "source" : 7
        }
    ],
    "images" : [
        {
            "mimeType" : "image/png",
            "name" : "tex39-22",
            "uri" : "../../../Textures/tex39-22.png"
        },
        {
            "mimeType" : "image/png",
            "name" : "tex39-21",
            "uri" : "../../../Textures/tex39-21.png"
        },
        {
            "mimeType" : "image/png",
            "name" : "tex39-20",
            "uri" : "../../../Textures/tex39-20.png"
        },
        {
            "mimeType" : "image/png",
            "name" : "tex39-23",
            "uri" : "../../../Textures/tex39-23.png"
        },
        {
            "mimeType" : "image/png",
            "name" : "tex40-37",
            "uri" : "../../../Textures/tex40-37.png"
        },
        {
            "mimeType" : "image/png",
            "name" : "tex40-38",
            "uri" : "../../../Textures/tex40-38.png"
        },
        {
            "mimeType" : "image/png",
            "name" : "tex40-39",
            "uri" : "../../../Textures/tex40-39.png"
        },
        {
            "mimeType" : "image/png",
            "name" : "tex40-36",
            "uri" : "../../../Textures/tex40-36.png"
        }
    ],
    "accessors" : [
        {
            "bufferView" : 0,
            "componentType" : 5126,
            "count" : 80,
            "max" : [
                9.03000259399414,
                10.83599853515625,
                -18.584381103515625
            ],
            "min" : [
                -9.029998779296875,
                -10.83599853515625,
                -21.672000885009766
            ],
            "type" : "VEC3"
        },
        {
            "bufferView" : 1,
            "componentType" : 5126,
            "count" : 80,
            "type" : "VEC3"
        },
        {
            "bufferView" : 2,
            "componentType" : 5126,
            "count" : 80,
            "type" : "VEC2"
        },
        {
            "bufferView" : 3,
            "componentType" : 5123,
            "count" : 108,
            "type" : "SCALAR"
        },
        {
            "bufferView" : 4,
            "componentType" : 5126,
            "count" : 12,
            "max" : [
                9.03000259399414,
                10.836002349853516,
                0
            ],
            "min" : [
                9.02999496459961,
                -10.83599853515625,
                -21.672000885009766
            ],
            "type" : "VEC3"
        },
        {
            "bufferView" : 5,
            "componentType" : 5126,
            "count" : 12,
            "type" : "VEC3"
        },
        {
            "bufferView" : 6,
            "componentType" : 5126,
            "count" : 12,
            "type" : "VEC2"
        },
        {
            "bufferView" : 7,
            "componentType" : 5123,
            "count" : 12,
            "type" : "SCALAR"
        },
        {
            "bufferView" : 8,
            "componentType" : 5126,
            "count" : 12,
            "max" : [
                -9.02999496459961,
                10.836002349853516,
                0
            ],
            "min" : [
                -9.03000259399414,
                -10.83599853515625,
                -21.672000885009766
            ],
            "type" : "VEC3"
        },
        {
            "bufferView" : 9,
            "componentType" : 5126,
            "count" : 12,
            "type" : "VEC3"
        },
        {
            "bufferView" : 10,
            "componentType" : 5126,
            "count" : 12,
            "type" : "VEC2"
        },
        {
            "bufferView" : 11,
            "componentType" : 5123,
            "count" : 12,
            "type" : "SCALAR"
        },
        {
            "bufferView" : 12,
            "componentType" : 5126,
            "count" : 8,
            "max" : [
                9.03000259399414,
                -7.506542205810547,
                0
            ],
            "min" : [
                -9.029998779296875,
                -10.83599853515625,
                -21.672000885009766
            ],
            "type" : "VEC3"
        },
        {
            "bufferView" : 13,
            "componentType" : 5126,
            "count" : 8,
            "type" : "VEC3"
        },
        {
            "bufferView" : 14,
            "componentType" : 5126,
            "count" : 8,
            "type" : "VEC2"
        },
        {
            "bufferView" : 15,
            "componentType" : 5123,
            "count" : 12,
            "type" : "SCALAR"
        },
        {
            "bufferView" : 16,
            "componentType" : 5126,
            "count" : 6,
            "max" : [
                9.029998779296875,
                10.836002349853516,
                0
            ],
            "min" : [
                -9.03000259399414,
                10.835994720458984,
                -21.672000885009766
            ],
            "type" : "VEC3"
        },
        {
            "bufferView" : 17,
            "componentType" : 5126,
            "count" : 6,
            "type" : "VEC3"
        },
        {
            "bufferView" : 18,
            "componentType" : 5126,
            "count" : 6,
            "type" : "VEC2"
        },
        {
            "bufferView" : 19,
            "componentType" : 5123,
            "count" : 6,
            "type" : "SCALAR"
        },
        {
            "bufferView" : 20,
            "componentType" : 5126,
            "count" : 4,
            "max" : [
                7.946399688720703,
                9.53567886352539,
                -21.172000885009766
            ],
            "min" : [
                7.946399688720703,
                -6.596317291259766,
                -21.672000885009766
            ],
            "type" : "VEC3"
        },
        {
            "bufferView" : 21,
            "componentType" : 5126,
            "count" : 4,
            "type" : "VEC3"
        },
        {
            "bufferView" : 22,
            "componentType" : 5126,
            "count" : 4,
            "type" : "VEC2"
        },
        {
            "bufferView" : 23,
            "componentType" : 5123,
            "count" : 6,
            "type" : "SCALAR"
        },
        {
            "bufferView" : 24,
            "componentType" : 5126,
            "count" : 4,
            "max" : [
                -7.9463958740234375,
                9.535675048828125,
                -21.172000885009766
            ],
            "min" : [
                -7.9463958740234375,
                -6.596321105957031,
                -21.672000885009766
            ],
            "type" : "VEC3"
        },
        {
            "bufferView" : 25,
            "componentType" : 5126,
            "count" : 4,
            "type" : "VEC3"
        },
        {
            "bufferView" : 26,
            "componentType" : 5126,
            "count" : 4,
            "type" : "VEC2"
        },
        {
            "bufferView" : 27,
            "componentType" : 5123,
            "count" : 6,
            "type" : "SCALAR"
        },
        {
            "bufferView" : 28,
            "componentType" : 5126,
            "count" : 4,
            "max" : [
                7.946399688720703,
                -6.596317291259766,
                -21.172000885009766
            ],
            "min" : [
                -7.9463958740234375,
                -6.596321105957031,
                -21.672000885009766
            ],
            "type" : "VEC3"
        },
        {
            "bufferView" : 29,
            "componentType" : 5126,
            "count" : 4,
            "type" : "VEC3"
        },
        {
            "bufferView" : 30,
            "componentType" : 5126,
            "count" : 4,
            "type" : "VEC2"
        },
        {
            "bufferView" : 31,
            "componentType" : 5123,
            "count" : 6,
            "type" : "SCALAR"
        },
        {
            "bufferView" : 32,
            "componentType" : 5126,
            "count" : 4,
            "max" : [
                7.946399688720703,
                9.53567886352539,
                -21.172000885009766
            ],
            "min" : [
                -7.9463958740234375,
                9.535675048828125,
                -21.672000885009766
            ],
            "type" : "VEC3"
        },
        {
            "bufferView" : 33,
            "componentType" : 5126,
            "count" : 4,
            "type" : "VEC3"
        },
        {
            "bufferView" : 34,
            "componentType" : 5126,
            "count" : 4,
            "type" : "VEC2"
        }
    ],
    "bufferViews" : [
        {
            "buffer" : 0,
            "byteLength" : 960,
            "byteOffset" : 0
        },
        {
            "buffer" : 0,
            "byteLength" : 960,
            "byteOffset" : 960
        },
        {
            "buffer" : 0,
            "byteLength" : 640,
            "byteOffset" : 1920
        },
        {
            "buffer" : 0,
            "byteLength" : 216,
            "byteOffset" : 2560
        },
        {
            "buffer" : 0,
            "byteLength" : 144,
            "byteOffset" : 2776
        },
        {
            "buffer" : 0,
            "byteLength" : 144,
            "byteOffset" : 2920
        },
        {
            "buffer" : 0,
            "byteLength" : 96,
            "byteOffset" : 3064
        },
        {
            "buffer" : 0,
            "byteLength" : 24,
            "byteOffset" : 3160
        },
        {
            "buffer" : 0,
            "byteLength" : 144,
            "byteOffset" : 3184
        },
        {
            "buffer" : 0,
            "byteLength" : 144,
            "byteOffset" : 3328
        },
        {
            "buffer" : 0,
            "byteLength" : 96,
            "byteOffset" : 3472
        },
        {
            "buffer" : 0,
            "byteLength" : 24,
            "byteOffset" : 3568
        },
        {
            "buffer" : 0,
            "byteLength" : 96,
            "byteOffset" : 3592
        },
        {
            "buffer" : 0,
            "byteLength" : 96,
            "byteOffset" : 3688
        },
        {
            "buffer" : 0,
            "byteLength" : 64,
            "byteOffset" : 3784
        },
        {
            "buffer" : 0,
            "byteLength" : 24,
            "byteOffset" : 3848
        },
        {
            "buffer" : 0,
            "byteLength" : 72,
            "byteOffset" : 3872
        },
        {
            "buffer" : 0,
            "byteLength" : 72,
            "byteOffset" : 3944
        },
        {
            "buffer" : 0,
            "byteLength" : 48,
            "byteOffset" : 4016
        },
        {
            "buffer" : 0,
            "byteLength" : 12,
            "byteOffset" : 4064
        },
        {
            "buffer" : 0,
            "byteLength" : 48,
            "byteOffset" : 4076
        },
        {
            "buffer" : 0,
            "byteLength" : 48,
            "byteOffset" : 4124
        },
        {
            "buffer" : 0,
            "byteLength" : 32,
            "byteOffset" : 4172
        },
        {
            "buffer" : 0,
            "byteLength" : 12,
            "byteOffset" : 4204
        },
        {
            "buffer" : 0,
            "byteLength" : 48,
            "byteOffset" : 4216
        },
        {
            "buffer" : 0,
            "byteLength" : 48,
            "byteOffset" : 4264
        },
        {
            "buffer" : 0,
            "byteLength" : 32,
            "byteOffset" : 4312
        },
        {
            "buffer" : 0,
            "byteLength" : 12,
            "byteOffset" : 4344
        },
        {
            "buffer" : 0,
            "byteLength" : 48,
            "byteOffset" : 4356
        },
        {
            "buffer" : 0,
            "byteLength" : 48,
            "byteOffset" : 4404
        },
        {
            "buffer" : 0,
            "byteLength" : 32,
            "byteOffset" : 4452
        },
        {
            "buffer" : 0,
            "byteLength" : 12,
            "byteOffset" : 4484
        },
        {
            "buffer" : 0,
            "byteLength" : 48,
            "byteOffset" : 4496
        },
        {
            "buffer" : 0,
            "byteLength" : 48,
            "byteOffset" : 4544
        },
        {
            "buffer" : 0,
            "byteLength" : 32,
            "byteOffset" : 4592
        }
    ],
    "samplers" : [
        {
            "magFilter" : 9729,
            "minFilter" : 9987
        }
    ],
    "buffers" : [
        {
            "byteLength" : 4624,
            "uri" : "building_5.bin"
        }
    ]
}
