{
    "asset" : {
        "generator" : "Khronos glTF Blender I/O v1.7.33",
        "version" : "2.0"
    },
    "scene" : 0,
    "scenes" : [
        {
            "name" : "Scene",
            "nodes" : [
                0
            ]
        }
    ],
    "nodes" : [
        {
            "mesh" : 0,
            "name" : "Maxis-3d1-mesh-11-ab173",
            "rotation" : [
                0.7071068286895752,
                0,
                0,
                0.7071067094802856
            ]
        }
    ],
    "materials" : [
        {
            "doubleSided" : true,
            "name" : "mat2-57",
            "pbrMetallicRoughness" : {
                "baseColorTexture" : {
                    "index" : 0
                },
                "metallicFactor" : 0
            }
        },
        {
            "doubleSided" : true,
            "name" : "mat39-57.001",
            "pbrMetallicRoughness" : {
                "baseColorTexture" : {
                    "index" : 1
                },
                "metallicFactor" : 0
            }
        },
        {
            "doubleSided" : true,
            "name" : "mat39-58.001",
            "pbrMetallicRoughness" : {
                "baseColorTexture" : {
                    "index" : 2
                },
                "metallicFactor" : 0
            }
        },
        {
            "doubleSided" : true,
            "name" : "mat2-58",
            "pbrMetallicRoughness" : {
                "baseColorTexture" : {
                    "index" : 3
                },
                "metallicFactor" : 0
            }
        },
        {
            "doubleSided" : true,
            "name" : "mat2-56",
            "pbrMetallicRoughness" : {
                "baseColorTexture" : {
                    "index" : 4
                },
                "metallicFactor" : 0
            }
        },
        {
            "doubleSided" : true,
            "name" : "mat2-40",
            "pbrMetallicRoughness" : {
                "baseColorTexture" : {
                    "index" : 5
                },
                "metallicFactor" : 0
            }
        },
        {
            "doubleSided" : true,
            "name" : "mat39-13",
            "pbrMetallicRoughness" : {
                "baseColorTexture" : {
                    "index" : 6
                },
                "metallicFactor" : 0
            }
        },
        {
            "doubleSided" : true,
            "name" : "mat40-52.002",
            "pbrMetallicRoughness" : {
                "baseColorTexture" : {
                    "index" : 7
                },
                "metallicFactor" : 0
            }
        },
        {
            "doubleSided" : true,
            "name" : "mat40-53.002",
            "pbrMetallicRoughness" : {
                "baseColorTexture" : {
                    "index" : 8
                },
                "metallicFactor" : 0
            }
        },
        {
            "doubleSided" : true,
            "name" : "mat40-54.002",
            "pbrMetallicRoughness" : {
                "baseColorTexture" : {
                    "index" : 9
                },
                "metallicFactor" : 0
            }
        },
        {
            "doubleSided" : true,
            "name" : "matcolour-48.004",
            "pbrMetallicRoughness" : {
                "baseColorFactor" : [
                    0.05882352963089943,
                    0.05882352963089943,
                    0.05882352963089943,
                    1
                ],
                "metallicFactor" : 0
            }
        },
        {
            "doubleSided" : true,
            "name" : "mat40-55.002",
            "pbrMetallicRoughness" : {
                "baseColorTexture" : {
                    "index" : 10
                },
                "metallicFactor" : 0
            }
        }
    ],
    "meshes" : [
        {
            "name" : "Maxis-3d1-mesh-11-ab173",
            "primitives" : [
                {
                    "attributes" : {
                        "POSITION" : 0,
                        "NORMAL" : 1,
                        "TEXCOORD_0" : 2
                    },
                    "indices" : 3,
                    "material" : 0
                },
                {
                    "attributes" : {
                        "POSITION" : 4,
                        "NORMAL" : 5,
                        "TEXCOORD_0" : 6
                    },
                    "indices" : 3,
                    "material" : 1
                },
                {
                    "attributes" : {
                        "POSITION" : 7,
                        "NORMAL" : 8,
                        "TEXCOORD_0" : 9
                    },
                    "indices" : 3,
                    "material" : 2
                },
                {
                    "attributes" : {
                        "POSITION" : 10,
                        "NORMAL" : 11,
                        "TEXCOORD_0" : 12
                    },
                    "indices" : 13,
                    "material" : 3
                },
                {
                    "attributes" : {
                        "POSITION" : 14,
                        "NORMAL" : 15,
                        "TEXCOORD_0" : 16
                    },
                    "indices" : 17,
                    "material" : 4
                },
                {
                    "attributes" : {
                        "POSITION" : 18,
                        "NORMAL" : 19,
                        "TEXCOORD_0" : 20
                    },
                    "indices" : 21,
                    "material" : 5
                },
                {
                    "attributes" : {
                        "POSITION" : 22,
                        "NORMAL" : 23,
                        "TEXCOORD_0" : 24
                    },
                    "indices" : 25,
                    "material" : 6
                },
                {
                    "attributes" : {
                        "POSITION" : 26,
                        "NORMAL" : 27,
                        "TEXCOORD_0" : 28
                    },
                    "indices" : 29,
                    "material" : 7
                },
                {
                    "attributes" : {
                        "POSITION" : 30,
                        "NORMAL" : 31,
                        "TEXCOORD_0" : 32
                    },
                    "indices" : 3,
                    "material" : 8
                },
                {
                    "attributes" : {
                        "POSITION" : 33,
                        "NORMAL" : 34,
                        "TEXCOORD_0" : 35
                    },
                    "indices" : 36,
                    "material" : 9
                },
                {
                    "attributes" : {
                        "POSITION" : 37,
                        "NORMAL" : 38,
                        "TEXCOORD_0" : 39
                    },
                    "indices" : 40,
                    "material" : 10
                },
                {
                    "attributes" : {
                        "POSITION" : 41,
                        "NORMAL" : 42,
                        "TEXCOORD_0" : 43
                    },
                    "indices" : 44,
                    "material" : 11
                }
            ]
        }
    ],
    "textures" : [
        {
            "sampler" : 0,
            "source" : 0
        },
        {
            "sampler" : 0,
            "source" : 1
        },
        {
            "sampler" : 0,
            "source" : 2
        },
        {
            "sampler" : 0,
            "source" : 3
        },
        {
            "sampler" : 0,
            "source" : 4
        },
        {
            "sampler" : 0,
            "source" : 5
        },
        {
            "sampler" : 0,
            "source" : 6
        },
        {
            "sampler" : 0,
            "source" : 7
        },
        {
            "sampler" : 0,
            "source" : 8
        },
        {
            "sampler" : 0,
            "source" : 9
        },
        {
            "sampler" : 0,
            "source" : 10
        }
    ],
    "images" : [
        {
            "mimeType" : "image/png",
            "name" : "tex2-57",
            "uri" : "../../../Textures/tex2-57.png"
        },
        {
            "mimeType" : "image/png",
            "name" : "tex39-57",
            "uri" : "../../../Textures/tex39-57.png"
        },
        {
            "mimeType" : "image/png",
            "name" : "tex39-58",
            "uri" : "../../../Textures/tex39-58.png"
        },
        {
            "mimeType" : "image/png",
            "name" : "tex2-58",
            "uri" : "../../../Textures/tex2-58.png"
        },
        {
            "mimeType" : "image/png",
            "name" : "tex2-56",
            "uri" : "../../../Textures/tex2-56.png"
        },
        {
            "mimeType" : "image/png",
            "name" : "tex2-40",
            "uri" : "../../../Textures/tex2-40.png"
        },
        {
            "mimeType" : "image/png",
            "name" : "tex39-13",
            "uri" : "../../../Textures/tex39-13.png"
        },
        {
            "mimeType" : "image/png",
            "name" : "tex40-52",
            "uri" : "../../../Textures/tex40-52.png"
        },
        {
            "mimeType" : "image/png",
            "name" : "tex40-53",
            "uri" : "../../../Textures/tex40-53.png"
        },
        {
            "mimeType" : "image/png",
            "name" : "tex40-54",
            "uri" : "../../../Textures/tex40-54.png"
        },
        {
            "mimeType" : "image/png",
            "name" : "tex40-55",
            "uri" : "../../../Textures/tex40-55.png"
        }
    ],
    "accessors" : [
        {
            "bufferView" : 0,
            "componentType" : 5126,
            "count" : 6,
            "max" : [
                -10.091022491455078,
                8.10886001586914,
                1.1444091796875e-05
            ],
            "min" : [
                -10.091033935546875,
                -9.910831451416016,
                -28.14449691772461
            ],
            "type" : "VEC3"
        },
        {
            "bufferView" : 1,
            "componentType" : 5126,
            "count" : 6,
            "type" : "VEC3"
        },
        {
            "bufferView" : 2,
            "componentType" : 5126,
            "count" : 6,
            "type" : "VEC2"
        },
        {
            "bufferView" : 3,
            "componentType" : 5123,
            "count" : 6,
            "type" : "SCALAR"
        },
        {
            "bufferView" : 4,
            "componentType" : 5126,
            "count" : 6,
            "max" : [
                -2.883148193359375,
                9.910835266113281,
                7.62939453125e-06
            ],
            "min" : [
                -2.8831520080566406,
                8.108856201171875,
                -28.144500732421875
            ],
            "type" : "VEC3"
        },
        {
            "bufferView" : 5,
            "componentType" : 5126,
            "count" : 6,
            "type" : "VEC3"
        },
        {
            "bufferView" : 6,
            "componentType" : 5126,
            "count" : 6,
            "type" : "VEC2"
        },
        {
            "bufferView" : 7,
            "componentType" : 5126,
            "count" : 6,
            "max" : [
                2.8831520080566406,
                9.910835266113281,
                7.62939453125e-06
            ],
            "min" : [
                2.883148193359375,
                8.108856201171875,
                -28.144500732421875
            ],
            "type" : "VEC3"
        },
        {
            "bufferView" : 8,
            "componentType" : 5126,
            "count" : 6,
            "type" : "VEC3"
        },
        {
            "bufferView" : 9,
            "componentType" : 5126,
            "count" : 6,
            "type" : "VEC2"
        },
        {
            "bufferView" : 10,
            "componentType" : 5126,
            "count" : 4,
            "max" : [
                10.091033935546875,
                8.10886001586914,
                7.62939453125e-06
            ],
            "min" : [
                10.091022491455078,
                -9.910835266113281,
                -28.144500732421875
            ],
            "type" : "VEC3"
        },
        {
            "bufferView" : 11,
            "componentType" : 5126,
            "count" : 4,
            "type" : "VEC3"
        },
        {
            "bufferView" : 12,
            "componentType" : 5126,
            "count" : 4,
            "type" : "VEC2"
        },
        {
            "bufferView" : 13,
            "componentType" : 5123,
            "count" : 6,
            "type" : "SCALAR"
        },
        {
            "bufferView" : 14,
            "componentType" : 5126,
            "count" : 6,
            "max" : [
                10.091026306152344,
                -9.910831451416016,
                1.1444091796875e-05
            ],
            "min" : [
                -10.091033935546875,
                -9.910835266113281,
                -28.14449691772461
            ],
            "type" : "VEC3"
        },
        {
            "bufferView" : 15,
            "componentType" : 5126,
            "count" : 6,
            "type" : "VEC3"
        },
        {
            "bufferView" : 16,
            "componentType" : 5126,
            "count" : 6,
            "type" : "VEC2"
        },
        {
            "bufferView" : 17,
            "componentType" : 5123,
            "count" : 6,
            "type" : "SCALAR"
        },
        {
            "bufferView" : 18,
            "componentType" : 5126,
            "count" : 12,
            "max" : [
                10.091033935546875,
                8.10886001586914,
                7.62939453125e-06
            ],
            "min" : [
                -10.091026306152344,
                8.108856201171875,
                -28.144500732421875
            ],
            "type" : "VEC3"
        },
        {
            "bufferView" : 19,
            "componentType" : 5126,
            "count" : 12,
            "type" : "VEC3"
        },
        {
            "bufferView" : 20,
            "componentType" : 5126,
            "count" : 12,
            "type" : "VEC2"
        },
        {
            "bufferView" : 21,
            "componentType" : 5123,
            "count" : 12,
            "type" : "SCALAR"
        },
        {
            "bufferView" : 22,
            "componentType" : 5126,
            "count" : 6,
            "max" : [
                2.8831520080566406,
                9.910835266113281,
                7.62939453125e-06
            ],
            "min" : [
                -2.8831520080566406,
                9.91082763671875,
                -28.144493103027344
            ],
            "type" : "VEC3"
        },
        {
            "bufferView" : 23,
            "componentType" : 5126,
            "count" : 6,
            "type" : "VEC3"
        },
        {
            "bufferView" : 24,
            "componentType" : 5126,
            "count" : 6,
            "type" : "VEC2"
        },
        {
            "bufferView" : 25,
            "componentType" : 5123,
            "count" : 6,
            "type" : "SCALAR"
        },
        {
            "bufferView" : 26,
            "componentType" : 5126,
            "count" : 16,
            "max" : [
                9.054176330566406,
                9.167526245117188,
                -27.69400405883789
            ],
            "min" : [
                -9.05417251586914,
                7.500698089599609,
                -28.144500732421875
            ],
            "type" : "VEC3"
        },
        {
            "bufferView" : 27,
            "componentType" : 5126,
            "count" : 16,
            "type" : "VEC3"
        },
        {
            "bufferView" : 28,
            "componentType" : 5126,
            "count" : 16,
            "type" : "VEC2"
        },
        {
            "bufferView" : 29,
            "componentType" : 5123,
            "count" : 18,
            "type" : "SCALAR"
        },
        {
            "bufferView" : 30,
            "componentType" : 5126,
            "count" : 6,
            "max" : [
                9.054168701171875,
                -9.167518615722656,
                -27.69400405883789
            ],
            "min" : [
                -9.054180145263672,
                -9.167518615722656,
                -28.14449691772461
            ],
            "type" : "VEC3"
        },
        {
            "bufferView" : 31,
            "componentType" : 5126,
            "count" : 6,
            "type" : "VEC3"
        },
        {
            "bufferView" : 32,
            "componentType" : 5126,
            "count" : 6,
            "type" : "VEC2"
        },
        {
            "bufferView" : 33,
            "componentType" : 5126,
            "count" : 6,
            "max" : [
                9.054176330566406,
                7.500701904296875,
                -27.694007873535156
            ],
            "min" : [
                9.054168701171875,
                -9.167518615722656,
                -28.144500732421875
            ],
            "type" : "VEC3"
        },
        {
            "bufferView" : 34,
            "componentType" : 5126,
            "count" : 6,
            "type" : "VEC3"
        },
        {
            "bufferView" : 35,
            "componentType" : 5126,
            "count" : 6,
            "type" : "VEC2"
        },
        {
            "bufferView" : 36,
            "componentType" : 5123,
            "count" : 6,
            "type" : "SCALAR"
        },
        {
            "bufferView" : 37,
            "componentType" : 5126,
            "count" : 76,
            "max" : [
                10.091022491455078,
                9.910835266113281,
                -27.69400405883789
            ],
            "min" : [
                -10.091033935546875,
                -9.910831451416016,
                -28.144500732421875
            ],
            "type" : "VEC3"
        },
        {
            "bufferView" : 38,
            "componentType" : 5126,
            "count" : 76,
            "type" : "VEC3"
        },
        {
            "bufferView" : 39,
            "componentType" : 5126,
            "count" : 76,
            "type" : "VEC2"
        },
        {
            "bufferView" : 40,
            "componentType" : 5123,
            "count" : 78,
            "type" : "SCALAR"
        },
        {
            "bufferView" : 41,
            "componentType" : 5126,
            "count" : 6,
            "max" : [
                -9.05417251586914,
                7.500701904296875,
                -27.69400405883789
            ],
            "min" : [
                -9.054180145263672,
                -9.167518615722656,
                -28.14449691772461
            ],
            "type" : "VEC3"
        },
        {
            "bufferView" : 42,
            "componentType" : 5126,
            "count" : 6,
            "type" : "VEC3"
        },
        {
            "bufferView" : 43,
            "componentType" : 5126,
            "count" : 6,
            "type" : "VEC2"
        },
        {
            "bufferView" : 44,
            "componentType" : 5123,
            "count" : 6,
            "type" : "SCALAR"
        }
    ],
    "bufferViews" : [
        {
            "buffer" : 0,
            "byteLength" : 72,
            "byteOffset" : 0
        },
        {
            "buffer" : 0,
            "byteLength" : 72,
            "byteOffset" : 72
        },
        {
            "buffer" : 0,
            "byteLength" : 48,
            "byteOffset" : 144
        },
        {
            "buffer" : 0,
            "byteLength" : 12,
            "byteOffset" : 192
        },
        {
            "buffer" : 0,
            "byteLength" : 72,
            "byteOffset" : 204
        },
        {
            "buffer" : 0,
            "byteLength" : 72,
            "byteOffset" : 276
        },
        {
            "buffer" : 0,
            "byteLength" : 48,
            "byteOffset" : 348
        },
        {
            "buffer" : 0,
            "byteLength" : 72,
            "byteOffset" : 396
        },
        {
            "buffer" : 0,
            "byteLength" : 72,
            "byteOffset" : 468
        },
        {
            "buffer" : 0,
            "byteLength" : 48,
            "byteOffset" : 540
        },
        {
            "buffer" : 0,
            "byteLength" : 48,
            "byteOffset" : 588
        },
        {
            "buffer" : 0,
            "byteLength" : 48,
            "byteOffset" : 636
        },
        {
            "buffer" : 0,
            "byteLength" : 32,
            "byteOffset" : 684
        },
        {
            "buffer" : 0,
            "byteLength" : 12,
            "byteOffset" : 716
        },
        {
            "buffer" : 0,
            "byteLength" : 72,
            "byteOffset" : 728
        },
        {
            "buffer" : 0,
            "byteLength" : 72,
            "byteOffset" : 800
        },
        {
            "buffer" : 0,
            "byteLength" : 48,
            "byteOffset" : 872
        },
        {
            "buffer" : 0,
            "byteLength" : 12,
            "byteOffset" : 920
        },
        {
            "buffer" : 0,
            "byteLength" : 144,
            "byteOffset" : 932
        },
        {
            "buffer" : 0,
            "byteLength" : 144,
            "byteOffset" : 1076
        },
        {
            "buffer" : 0,
            "byteLength" : 96,
            "byteOffset" : 1220
        },
        {
            "buffer" : 0,
            "byteLength" : 24,
            "byteOffset" : 1316
        },
        {
            "buffer" : 0,
            "byteLength" : 72,
            "byteOffset" : 1340
        },
        {
            "buffer" : 0,
            "byteLength" : 72,
            "byteOffset" : 1412
        },
        {
            "buffer" : 0,
            "byteLength" : 48,
            "byteOffset" : 1484
        },
        {
            "buffer" : 0,
            "byteLength" : 12,
            "byteOffset" : 1532
        },
        {
            "buffer" : 0,
            "byteLength" : 192,
            "byteOffset" : 1544
        },
        {
            "buffer" : 0,
            "byteLength" : 192,
            "byteOffset" : 1736
        },
        {
            "buffer" : 0,
            "byteLength" : 128,
            "byteOffset" : 1928
        },
        {
            "buffer" : 0,
            "byteLength" : 36,
            "byteOffset" : 2056
        },
        {
            "buffer" : 0,
            "byteLength" : 72,
            "byteOffset" : 2092
        },
        {
            "buffer" : 0,
            "byteLength" : 72,
            "byteOffset" : 2164
        },
        {
            "buffer" : 0,
            "byteLength" : 48,
            "byteOffset" : 2236
        },
        {
            "buffer" : 0,
            "byteLength" : 72,
            "byteOffset" : 2284
        },
        {
            "buffer" : 0,
            "byteLength" : 72,
            "byteOffset" : 2356
        },
        {
            "buffer" : 0,
            "byteLength" : 48,
            "byteOffset" : 2428
        },
        {
            "buffer" : 0,
            "byteLength" : 12,
            "byteOffset" : 2476
        },
        {
            "buffer" : 0,
            "byteLength" : 912,
            "byteOffset" : 2488
        },
        {
            "buffer" : 0,
            "byteLength" : 912,
            "byteOffset" : 3400
        },
        {
            "buffer" : 0,
            "byteLength" : 608,
            "byteOffset" : 4312
        },
        {
            "buffer" : 0,
            "byteLength" : 156,
            "byteOffset" : 4920
        },
        {
            "buffer" : 0,
            "byteLength" : 72,
            "byteOffset" : 5076
        },
        {
            "buffer" : 0,
            "byteLength" : 72,
            "byteOffset" : 5148
        },
        {
            "buffer" : 0,
            "byteLength" : 48,
            "byteOffset" : 5220
        },
        {
            "buffer" : 0,
            "byteLength" : 12,
            "byteOffset" : 5268
        }
    ],
    "samplers" : [
        {
            "magFilter" : 9729,
            "minFilter" : 9987
        }
    ],
    "buffers" : [
        {
            "byteLength" : 5280,
            "uri" : "building_6.bin"
        }
    ]
}
