{
    "asset" : {
        "generator" : "Khronos glTF Blender I/O v1.7.33",
        "version" : "2.0"
    },
    "scene" : 0,
    "scenes" : [
        {
            "name" : "Scene",
            "nodes" : [
                0
            ]
        }
    ],
    "nodes" : [
        {
            "mesh" : 0,
            "name" : "Maxis-3d1-mesh-7-Abandoned2",
            "rotation" : [
                0.7071068286895752,
                0,
                0,
                0.7071067094802856
            ]
        }
    ],
    "materials" : [
        {
            "doubleSided" : true,
            "name" : "mat39-62",
            "pbrMetallicRoughness" : {
                "baseColorTexture" : {
                    "index" : 0
                },
                "metallicFactor" : 0
            }
        },
        {
            "doubleSided" : true,
            "name" : "mat39-61",
            "pbrMetallicRoughness" : {
                "baseColorTexture" : {
                    "index" : 1
                },
                "metallicFactor" : 0
            }
        },
        {
            "doubleSided" : true,
            "name" : "mat39-60",
            "pbrMetallicRoughness" : {
                "baseColorTexture" : {
                    "index" : 2
                },
                "metallicFactor" : 0
            }
        },
        {
            "doubleSided" : true,
            "name" : "mat39-63",
            "pbrMetallicRoughness" : {
                "baseColorTexture" : {
                    "index" : 3
                },
                "metallicFactor" : 0
            }
        },
        {
            "doubleSided" : true,
            "name" : "mat40-39",
            "pbrMetallicRoughness" : {
                "baseColorTexture" : {
                    "index" : 4
                },
                "metallicFactor" : 0
            }
        },
        {
            "doubleSided" : true,
            "name" : "mat2-40",
            "pbrMetallicRoughness" : {
                "baseColorTexture" : {
                    "index" : 5
                },
                "metallicFactor" : 0
            }
        },
        {
            "doubleSided" : true,
            "name" : "mat2-42",
            "pbrMetallicRoughness" : {
                "baseColorTexture" : {
                    "index" : 6
                },
                "metallicFactor" : 0
            }
        },
        {
            "doubleSided" : true,
            "name" : "mat40-45",
            "pbrMetallicRoughness" : {
                "baseColorTexture" : {
                    "index" : 7
                },
                "metallicFactor" : 0
            }
        },
        {
            "doubleSided" : true,
            "name" : "matcolour-48",
            "pbrMetallicRoughness" : {
                "baseColorFactor" : [
                    0.05882352963089943,
                    0.05882352963089943,
                    0.05882352963089943,
                    1
                ],
                "metallicFactor" : 0
            }
        }
    ],
    "meshes" : [
        {
            "name" : "Maxis-3d1-mesh-7-Abandoned2",
            "primitives" : [
                {
                    "attributes" : {
                        "POSITION" : 0,
                        "NORMAL" : 1,
                        "TEXCOORD_0" : 2
                    },
                    "indices" : 3,
                    "material" : 0
                },
                {
                    "attributes" : {
                        "POSITION" : 4,
                        "NORMAL" : 5,
                        "TEXCOORD_0" : 6
                    },
                    "indices" : 7,
                    "material" : 1
                },
                {
                    "attributes" : {
                        "POSITION" : 8,
                        "NORMAL" : 9,
                        "TEXCOORD_0" : 10
                    },
                    "indices" : 11,
                    "material" : 2
                },
                {
                    "attributes" : {
                        "POSITION" : 12,
                        "NORMAL" : 13,
                        "TEXCOORD_0" : 14
                    },
                    "indices" : 15,
                    "material" : 3
                },
                {
                    "attributes" : {
                        "POSITION" : 16,
                        "NORMAL" : 17,
                        "TEXCOORD_0" : 18
                    },
                    "indices" : 19,
                    "material" : 4
                },
                {
                    "attributes" : {
                        "POSITION" : 20,
                        "NORMAL" : 21,
                        "TEXCOORD_0" : 22
                    },
                    "indices" : 23,
                    "material" : 5
                },
                {
                    "attributes" : {
                        "POSITION" : 24,
                        "NORMAL" : 25,
                        "TEXCOORD_0" : 26
                    },
                    "indices" : 19,
                    "material" : 6
                },
                {
                    "attributes" : {
                        "POSITION" : 27,
                        "NORMAL" : 28,
                        "TEXCOORD_0" : 29
                    },
                    "indices" : 30,
                    "material" : 7
                },
                {
                    "attributes" : {
                        "POSITION" : 31,
                        "NORMAL" : 32,
                        "TEXCOORD_0" : 33
                    },
                    "indices" : 34,
                    "material" : 8
                }
            ]
        }
    ],
    "textures" : [
        {
            "sampler" : 0,
            "source" : 0
        },
        {
            "sampler" : 0,
            "source" : 1
        },
        {
            "sampler" : 0,
            "source" : 2
        },
        {
            "sampler" : 0,
            "source" : 3
        },
        {
            "sampler" : 0,
            "source" : 4
        },
        {
            "sampler" : 0,
            "source" : 5
        },
        {
            "sampler" : 0,
            "source" : 6
        },
        {
            "sampler" : 0,
            "source" : 7
        }
    ],
    "images" : [
        {
            "mimeType" : "image/png",
            "name" : "tex39-62",
            "uri" : "../../../Textures/tex39-62.png"
        },
        {
            "mimeType" : "image/png",
            "name" : "tex39-61",
            "uri" : "../../../Textures/tex39-61.png"
        },
        {
            "mimeType" : "image/png",
            "name" : "tex39-60",
            "uri" : "../../../Textures/tex39-60.png"
        },
        {
            "mimeType" : "image/png",
            "name" : "tex39-63",
            "uri" : "../../../Textures/tex39-63.png"
        },
        {
            "mimeType" : "image/png",
            "name" : "tex40-39",
            "uri" : "../../../Textures/tex40-39.png"
        },
        {
            "mimeType" : "image/png",
            "name" : "tex2-40",
            "uri" : "../../../Textures/tex2-40.png"
        },
        {
            "mimeType" : "image/png",
            "name" : "tex2-42",
            "uri" : "../../../Textures/tex2-42.png"
        },
        {
            "mimeType" : "image/png",
            "name" : "tex40-45",
            "uri" : "../../../Textures/tex40-45.png"
        }
    ],
    "accessors" : [
        {
            "bufferView" : 0,
            "componentType" : 5126,
            "count" : 16,
            "max" : [
                7.377635955810547,
                6.3989715576171875,
                0
            ],
            "min" : [
                -2.032611846923828,
                -7.302356719970703,
                -4.9202117919921875
            ],
            "type" : "VEC3"
        },
        {
            "bufferView" : 1,
            "componentType" : 5126,
            "count" : 16,
            "type" : "VEC3"
        },
        {
            "bufferView" : 2,
            "componentType" : 5126,
            "count" : 16,
            "type" : "VEC2"
        },
        {
            "bufferView" : 3,
            "componentType" : 5123,
            "count" : 18,
            "type" : "SCALAR"
        },
        {
            "bufferView" : 4,
            "componentType" : 5126,
            "count" : 18,
            "max" : [
                3.462970733642578,
                6.3989715576171875,
                0
            ],
            "min" : [
                -6.775379180908203,
                -7.302356719970703,
                -4.9202117919921875
            ],
            "type" : "VEC3"
        },
        {
            "bufferView" : 5,
            "componentType" : 5126,
            "count" : 18,
            "type" : "VEC3"
        },
        {
            "bufferView" : 6,
            "componentType" : 5126,
            "count" : 18,
            "type" : "VEC2"
        },
        {
            "bufferView" : 7,
            "componentType" : 5123,
            "count" : 18,
            "type" : "SCALAR"
        },
        {
            "bufferView" : 8,
            "componentType" : 5126,
            "count" : 8,
            "max" : [
                7.377635955810547,
                -3.8393821716308594,
                0
            ],
            "min" : [
                -6.775379180908203,
                -7.302356719970703,
                -4.920204162597656
            ],
            "type" : "VEC3"
        },
        {
            "bufferView" : 9,
            "componentType" : 5126,
            "count" : 8,
            "type" : "VEC3"
        },
        {
            "bufferView" : 10,
            "componentType" : 5126,
            "count" : 8,
            "type" : "VEC2"
        },
        {
            "bufferView" : 11,
            "componentType" : 5123,
            "count" : 12,
            "type" : "SCALAR"
        },
        {
            "bufferView" : 12,
            "componentType" : 5126,
            "count" : 12,
            "max" : [
                7.377635955810547,
                6.3989715576171875,
                0
            ],
            "min" : [
                -6.775379180908203,
                -2.0326156616210938,
                -4.9202117919921875
            ],
            "type" : "VEC3"
        },
        {
            "bufferView" : 13,
            "componentType" : 5126,
            "count" : 12,
            "type" : "VEC3"
        },
        {
            "bufferView" : 14,
            "componentType" : 5126,
            "count" : 12,
            "type" : "VEC2"
        },
        {
            "bufferView" : 15,
            "componentType" : 5123,
            "count" : 18,
            "type" : "SCALAR"
        },
        {
            "bufferView" : 16,
            "componentType" : 5126,
            "count" : 8,
            "max" : [
                6.041664123535156,
                2.8493881225585938,
                0
            ],
            "min" : [
                -4.8916473388671875,
                -3.908374786376953,
                -2.4631576538085938
            ],
            "type" : "VEC3"
        },
        {
            "bufferView" : 17,
            "componentType" : 5126,
            "count" : 8,
            "type" : "VEC3"
        },
        {
            "bufferView" : 18,
            "componentType" : 5126,
            "count" : 8,
            "type" : "VEC2"
        },
        {
            "bufferView" : 19,
            "componentType" : 5123,
            "count" : 12,
            "type" : "SCALAR"
        },
        {
            "bufferView" : 20,
            "componentType" : 5126,
            "count" : 4,
            "max" : [
                6.314292907714844,
                -7.387413024902344,
                -1.2976531982421875
            ],
            "min" : [
                0.7681045532226562,
                -7.387413024902344,
                -2.4746742248535156
            ],
            "type" : "VEC3"
        },
        {
            "bufferView" : 21,
            "componentType" : 5126,
            "count" : 4,
            "type" : "VEC3"
        },
        {
            "bufferView" : 22,
            "componentType" : 5126,
            "count" : 4,
            "type" : "VEC2"
        },
        {
            "bufferView" : 23,
            "componentType" : 5123,
            "count" : 6,
            "type" : "SCALAR"
        },
        {
            "bufferView" : 24,
            "componentType" : 5126,
            "count" : 8,
            "max" : [
                7.471706390380859,
                1.5274200439453125,
                -1.2814521789550781
            ],
            "min" : [
                7.471706390380859,
                -6.131507873535156,
                -2.4979896545410156
            ],
            "type" : "VEC3"
        },
        {
            "bufferView" : 25,
            "componentType" : 5126,
            "count" : 8,
            "type" : "VEC3"
        },
        {
            "bufferView" : 26,
            "componentType" : 5126,
            "count" : 8,
            "type" : "VEC2"
        },
        {
            "bufferView" : 27,
            "componentType" : 5126,
            "count" : 16,
            "max" : [
                -3.5417098999023438,
                6.4734344482421875,
                -1.2757377624511719
            ],
            "min" : [
                -6.858951568603516,
                -3.064289093017578,
                -2.4984703063964844
            ],
            "type" : "VEC3"
        },
        {
            "bufferView" : 28,
            "componentType" : 5126,
            "count" : 16,
            "type" : "VEC3"
        },
        {
            "bufferView" : 29,
            "componentType" : 5126,
            "count" : 16,
            "type" : "VEC2"
        },
        {
            "bufferView" : 30,
            "componentType" : 5123,
            "count" : 18,
            "type" : "SCALAR"
        },
        {
            "bufferView" : 31,
            "componentType" : 5126,
            "count" : 19,
            "max" : [
                7.377635955810547,
                6.3989715576171875,
                -4.920204162597656
            ],
            "min" : [
                -6.775379180908203,
                -7.3023529052734375,
                -4.9202117919921875
            ],
            "type" : "VEC3"
        },
        {
            "bufferView" : 32,
            "componentType" : 5126,
            "count" : 19,
            "type" : "VEC3"
        },
        {
            "bufferView" : 33,
            "componentType" : 5126,
            "count" : 19,
            "type" : "VEC2"
        },
        {
            "bufferView" : 34,
            "componentType" : 5123,
            "count" : 21,
            "type" : "SCALAR"
        }
    ],
    "bufferViews" : [
        {
            "buffer" : 0,
            "byteLength" : 192,
            "byteOffset" : 0
        },
        {
            "buffer" : 0,
            "byteLength" : 192,
            "byteOffset" : 192
        },
        {
            "buffer" : 0,
            "byteLength" : 128,
            "byteOffset" : 384
        },
        {
            "buffer" : 0,
            "byteLength" : 36,
            "byteOffset" : 512
        },
        {
            "buffer" : 0,
            "byteLength" : 216,
            "byteOffset" : 548
        },
        {
            "buffer" : 0,
            "byteLength" : 216,
            "byteOffset" : 764
        },
        {
            "buffer" : 0,
            "byteLength" : 144,
            "byteOffset" : 980
        },
        {
            "buffer" : 0,
            "byteLength" : 36,
            "byteOffset" : 1124
        },
        {
            "buffer" : 0,
            "byteLength" : 96,
            "byteOffset" : 1160
        },
        {
            "buffer" : 0,
            "byteLength" : 96,
            "byteOffset" : 1256
        },
        {
            "buffer" : 0,
            "byteLength" : 64,
            "byteOffset" : 1352
        },
        {
            "buffer" : 0,
            "byteLength" : 24,
            "byteOffset" : 1416
        },
        {
            "buffer" : 0,
            "byteLength" : 144,
            "byteOffset" : 1440
        },
        {
            "buffer" : 0,
            "byteLength" : 144,
            "byteOffset" : 1584
        },
        {
            "buffer" : 0,
            "byteLength" : 96,
            "byteOffset" : 1728
        },
        {
            "buffer" : 0,
            "byteLength" : 36,
            "byteOffset" : 1824
        },
        {
            "buffer" : 0,
            "byteLength" : 96,
            "byteOffset" : 1860
        },
        {
            "buffer" : 0,
            "byteLength" : 96,
            "byteOffset" : 1956
        },
        {
            "buffer" : 0,
            "byteLength" : 64,
            "byteOffset" : 2052
        },
        {
            "buffer" : 0,
            "byteLength" : 24,
            "byteOffset" : 2116
        },
        {
            "buffer" : 0,
            "byteLength" : 48,
            "byteOffset" : 2140
        },
        {
            "buffer" : 0,
            "byteLength" : 48,
            "byteOffset" : 2188
        },
        {
            "buffer" : 0,
            "byteLength" : 32,
            "byteOffset" : 2236
        },
        {
            "buffer" : 0,
            "byteLength" : 12,
            "byteOffset" : 2268
        },
        {
            "buffer" : 0,
            "byteLength" : 96,
            "byteOffset" : 2280
        },
        {
            "buffer" : 0,
            "byteLength" : 96,
            "byteOffset" : 2376
        },
        {
            "buffer" : 0,
            "byteLength" : 64,
            "byteOffset" : 2472
        },
        {
            "buffer" : 0,
            "byteLength" : 192,
            "byteOffset" : 2536
        },
        {
            "buffer" : 0,
            "byteLength" : 192,
            "byteOffset" : 2728
        },
        {
            "buffer" : 0,
            "byteLength" : 128,
            "byteOffset" : 2920
        },
        {
            "buffer" : 0,
            "byteLength" : 36,
            "byteOffset" : 3048
        },
        {
            "buffer" : 0,
            "byteLength" : 228,
            "byteOffset" : 3084
        },
        {
            "buffer" : 0,
            "byteLength" : 228,
            "byteOffset" : 3312
        },
        {
            "buffer" : 0,
            "byteLength" : 152,
            "byteOffset" : 3540
        },
        {
            "buffer" : 0,
            "byteLength" : 42,
            "byteOffset" : 3692
        }
    ],
    "samplers" : [
        {
            "magFilter" : 9729,
            "minFilter" : 9987
        }
    ],
    "buffers" : [
        {
            "byteLength" : 3736,
            "uri" : "building_2.bin"
        }
    ]
}
