{
    "asset" : {
        "generator" : "Khronos glTF Blender I/O v1.7.33",
        "version" : "2.0"
    },
    "scene" : 0,
    "scenes" : [
        {
            "name" : "Scene",
            "nodes" : [
                0
            ]
        }
    ],
    "nodes" : [
        {
            "mesh" : 0,
            "name" : "Maxis-3d1-mesh-6-Abandoned",
            "rotation" : [
                0.7071068286895752,
                0,
                0,
                0.7071067094802856
            ]
        }
    ],
    "materials" : [
        {
            "doubleSided" : true,
            "name" : "mat40-23",
            "pbrMetallicRoughness" : {
                "baseColorTexture" : {
                    "index" : 0
                },
                "metallicFactor" : 0
            }
        },
        {
            "doubleSided" : true,
            "name" : "mat40-20",
            "pbrMetallicRoughness" : {
                "baseColorTexture" : {
                    "index" : 1
                },
                "metallicFactor" : 0
            }
        },
        {
            "doubleSided" : true,
            "name" : "mat40-55",
            "pbrMetallicRoughness" : {
                "baseColorTexture" : {
                    "index" : 2
                },
                "metallicFactor" : 0
            }
        },
        {
            "doubleSided" : true,
            "name" : "mat40-52",
            "pbrMetallicRoughness" : {
                "baseColorTexture" : {
                    "index" : 3
                },
                "metallicFactor" : 0
            }
        },
        {
            "doubleSided" : true,
            "name" : "mat40-54",
            "pbrMetallicRoughness" : {
                "baseColorTexture" : {
                    "index" : 4
                },
                "metallicFactor" : 0
            }
        },
        {
            "doubleSided" : true,
            "name" : "mat40-53",
            "pbrMetallicRoughness" : {
                "baseColorTexture" : {
                    "index" : 5
                },
                "metallicFactor" : 0
            }
        },
        {
            "doubleSided" : true,
            "name" : "matcolour-128",
            "pbrMetallicRoughness" : {
                "baseColorFactor" : [
                    0.12156862765550613,
                    0.08235294371843338,
                    0.062745101749897,
                    1
                ],
                "metallicFactor" : 0
            }
        }
    ],
    "meshes" : [
        {
            "name" : "Maxis-3d1-mesh-6-Abandoned",
            "primitives" : [
                {
                    "attributes" : {
                        "POSITION" : 0,
                        "NORMAL" : 1,
                        "TEXCOORD_0" : 2
                    },
                    "indices" : 3,
                    "material" : 0
                },
                {
                    "attributes" : {
                        "POSITION" : 4,
                        "NORMAL" : 5,
                        "TEXCOORD_0" : 6
                    },
                    "indices" : 7,
                    "material" : 1
                },
                {
                    "attributes" : {
                        "POSITION" : 8,
                        "NORMAL" : 9,
                        "TEXCOORD_0" : 10
                    },
                    "indices" : 11,
                    "material" : 2
                },
                {
                    "attributes" : {
                        "POSITION" : 12,
                        "NORMAL" : 13,
                        "TEXCOORD_0" : 14
                    },
                    "indices" : 11,
                    "material" : 3
                },
                {
                    "attributes" : {
                        "POSITION" : 15,
                        "NORMAL" : 16,
                        "TEXCOORD_0" : 17
                    },
                    "indices" : 18,
                    "material" : 4
                },
                {
                    "attributes" : {
                        "POSITION" : 19,
                        "NORMAL" : 20,
                        "TEXCOORD_0" : 21
                    },
                    "indices" : 22,
                    "material" : 5
                },
                {
                    "attributes" : {
                        "POSITION" : 23,
                        "NORMAL" : 24,
                        "TEXCOORD_0" : 25
                    },
                    "indices" : 26,
                    "material" : 6
                }
            ]
        }
    ],
    "textures" : [
        {
            "sampler" : 0,
            "source" : 0
        },
        {
            "sampler" : 0,
            "source" : 1
        },
        {
            "sampler" : 0,
            "source" : 2
        },
        {
            "sampler" : 0,
            "source" : 3
        },
        {
            "sampler" : 0,
            "source" : 4
        },
        {
            "sampler" : 0,
            "source" : 5
        }
    ],
    "images" : [
        {
            "mimeType" : "image/png",
            "name" : "tex40-23",
            "uri" : "../../../Textures/tex40-23.png"
        },
        {
            "mimeType" : "image/png",
            "name" : "tex40-20",
            "uri" : "../../../Textures/tex40-20.png"
        },
        {
            "mimeType" : "image/png",
            "name" : "tex40-55",
            "uri" : "../../../Textures/tex40-55.png"
        },
        {
            "mimeType" : "image/png",
            "name" : "tex40-52",
            "uri" : "../../../Textures/tex40-52.png"
        },
        {
            "mimeType" : "image/png",
            "name" : "tex40-54",
            "uri" : "../../../Textures/tex40-54.png"
        },
        {
            "mimeType" : "image/png",
            "name" : "tex40-53",
            "uri" : "../../../Textures/tex40-53.png"
        }
    ],
    "accessors" : [
        {
            "bufferView" : 0,
            "componentType" : 5126,
            "count" : 14,
            "max" : [
                5.977748870849609,
                7.723659515380859,
                0
            ],
            "min" : [
                -6.221981048583984,
                1.2653236389160156,
                -3.0103721618652344
            ],
            "type" : "VEC3"
        },
        {
            "bufferView" : 1,
            "componentType" : 5126,
            "count" : 14,
            "type" : "VEC3"
        },
        {
            "bufferView" : 2,
            "componentType" : 5126,
            "count" : 14,
            "type" : "VEC2"
        },
        {
            "bufferView" : 3,
            "componentType" : 5123,
            "count" : 18,
            "type" : "SCALAR"
        },
        {
            "bufferView" : 4,
            "componentType" : 5126,
            "count" : 4,
            "max" : [
                6.394416809082031,
                -3.943004608154297,
                0
            ],
            "min" : [
                5.130805969238281,
                -3.9430084228515625,
                -2.4003982543945312
            ],
            "type" : "VEC3"
        },
        {
            "bufferView" : 5,
            "componentType" : 5126,
            "count" : 4,
            "type" : "VEC3"
        },
        {
            "bufferView" : 6,
            "componentType" : 5126,
            "count" : 4,
            "type" : "VEC2"
        },
        {
            "bufferView" : 7,
            "componentType" : 5123,
            "count" : 6,
            "type" : "SCALAR"
        },
        {
            "bufferView" : 8,
            "componentType" : 5126,
            "count" : 8,
            "max" : [
                7.707244873046875,
                7.634029388427734,
                0
            ],
            "min" : [
                -7.558254241943359,
                1.2173576354980469,
                -4.666667938232422
            ],
            "type" : "VEC3"
        },
        {
            "bufferView" : 9,
            "componentType" : 5126,
            "count" : 8,
            "type" : "VEC3"
        },
        {
            "bufferView" : 10,
            "componentType" : 5126,
            "count" : 8,
            "type" : "VEC2"
        },
        {
            "bufferView" : 11,
            "componentType" : 5123,
            "count" : 12,
            "type" : "SCALAR"
        },
        {
            "bufferView" : 12,
            "componentType" : 5126,
            "count" : 8,
            "max" : [
                7.707244873046875,
                2.5465850830078125,
                0
            ],
            "min" : [
                -7.558254241943359,
                -3.8700790405273438,
                -4.666664123535156
            ],
            "type" : "VEC3"
        },
        {
            "bufferView" : 13,
            "componentType" : 5126,
            "count" : 8,
            "type" : "VEC3"
        },
        {
            "bufferView" : 14,
            "componentType" : 5126,
            "count" : 8,
            "type" : "VEC2"
        },
        {
            "bufferView" : 15,
            "componentType" : 5126,
            "count" : 12,
            "max" : [
                7.707244873046875,
                7.634029388427734,
                0
            ],
            "min" : [
                3.040576934814453,
                -3.8700790405273438,
                -4.666667938232422
            ],
            "type" : "VEC3"
        },
        {
            "bufferView" : 16,
            "componentType" : 5126,
            "count" : 12,
            "type" : "VEC3"
        },
        {
            "bufferView" : 17,
            "componentType" : 5126,
            "count" : 12,
            "type" : "VEC2"
        },
        {
            "bufferView" : 18,
            "componentType" : 5123,
            "count" : 12,
            "type" : "SCALAR"
        },
        {
            "bufferView" : 19,
            "componentType" : 5126,
            "count" : 12,
            "max" : [
                -2.8915863037109375,
                7.634029388427734,
                0
            ],
            "min" : [
                -7.558254241943359,
                -3.8700790405273438,
                -4.666667938232422
            ],
            "type" : "VEC3"
        },
        {
            "bufferView" : 20,
            "componentType" : 5126,
            "count" : 12,
            "type" : "VEC3"
        },
        {
            "bufferView" : 21,
            "componentType" : 5126,
            "count" : 12,
            "type" : "VEC2"
        },
        {
            "bufferView" : 22,
            "componentType" : 5123,
            "count" : 12,
            "type" : "SCALAR"
        },
        {
            "bufferView" : 23,
            "componentType" : 5126,
            "count" : 12,
            "max" : [
                7.707244873046875,
                7.634025573730469,
                -4.666660308837891
            ],
            "min" : [
                -7.558254241943359,
                -3.8700790405273438,
                -4.666667938232422
            ],
            "type" : "VEC3"
        },
        {
            "bufferView" : 24,
            "componentType" : 5126,
            "count" : 12,
            "type" : "VEC3"
        },
        {
            "bufferView" : 25,
            "componentType" : 5126,
            "count" : 12,
            "type" : "VEC2"
        },
        {
            "bufferView" : 26,
            "componentType" : 5123,
            "count" : 12,
            "type" : "SCALAR"
        }
    ],
    "bufferViews" : [
        {
            "buffer" : 0,
            "byteLength" : 168,
            "byteOffset" : 0
        },
        {
            "buffer" : 0,
            "byteLength" : 168,
            "byteOffset" : 168
        },
        {
            "buffer" : 0,
            "byteLength" : 112,
            "byteOffset" : 336
        },
        {
            "buffer" : 0,
            "byteLength" : 36,
            "byteOffset" : 448
        },
        {
            "buffer" : 0,
            "byteLength" : 48,
            "byteOffset" : 484
        },
        {
            "buffer" : 0,
            "byteLength" : 48,
            "byteOffset" : 532
        },
        {
            "buffer" : 0,
            "byteLength" : 32,
            "byteOffset" : 580
        },
        {
            "buffer" : 0,
            "byteLength" : 12,
            "byteOffset" : 612
        },
        {
            "buffer" : 0,
            "byteLength" : 96,
            "byteOffset" : 624
        },
        {
            "buffer" : 0,
            "byteLength" : 96,
            "byteOffset" : 720
        },
        {
            "buffer" : 0,
            "byteLength" : 64,
            "byteOffset" : 816
        },
        {
            "buffer" : 0,
            "byteLength" : 24,
            "byteOffset" : 880
        },
        {
            "buffer" : 0,
            "byteLength" : 96,
            "byteOffset" : 904
        },
        {
            "buffer" : 0,
            "byteLength" : 96,
            "byteOffset" : 1000
        },
        {
            "buffer" : 0,
            "byteLength" : 64,
            "byteOffset" : 1096
        },
        {
            "buffer" : 0,
            "byteLength" : 144,
            "byteOffset" : 1160
        },
        {
            "buffer" : 0,
            "byteLength" : 144,
            "byteOffset" : 1304
        },
        {
            "buffer" : 0,
            "byteLength" : 96,
            "byteOffset" : 1448
        },
        {
            "buffer" : 0,
            "byteLength" : 24,
            "byteOffset" : 1544
        },
        {
            "buffer" : 0,
            "byteLength" : 144,
            "byteOffset" : 1568
        },
        {
            "buffer" : 0,
            "byteLength" : 144,
            "byteOffset" : 1712
        },
        {
            "buffer" : 0,
            "byteLength" : 96,
            "byteOffset" : 1856
        },
        {
            "buffer" : 0,
            "byteLength" : 24,
            "byteOffset" : 1952
        },
        {
            "buffer" : 0,
            "byteLength" : 144,
            "byteOffset" : 1976
        },
        {
            "buffer" : 0,
            "byteLength" : 144,
            "byteOffset" : 2120
        },
        {
            "buffer" : 0,
            "byteLength" : 96,
            "byteOffset" : 2264
        },
        {
            "buffer" : 0,
            "byteLength" : 24,
            "byteOffset" : 2360
        }
    ],
    "samplers" : [
        {
            "magFilter" : 9729,
            "minFilter" : 9987
        }
    ],
    "buffers" : [
        {
            "byteLength" : 2384,
            "uri" : "building_1.bin"
        }
    ]
}
