{
    "asset" : {
        "generator" : "Khronos glTF Blender I/O v1.7.33",
        "version" : "2.0"
    },
    "scene" : 0,
    "scenes" : [
        {
            "name" : "Scene",
            "nodes" : [
                0
            ]
        }
    ],
    "nodes" : [
        {
            "mesh" : 0,
            "name" : "Maxis-3d3-mesh-61",
            "rotation" : [
                0.7071068286895752,
                0,
                0,
                0.7071067094802856
            ]
        }
    ],
    "materials" : [
        {
            "doubleSided" : true,
            "name" : "mat2-23",
            "pbrMetallicRoughness" : {
                "baseColorTexture" : {
                    "index" : 0
                },
                "metallicFactor" : 0
            }
        },
        {
            "doubleSided" : true,
            "name" : "mat2-20",
            "pbrMetallicRoughness" : {
                "baseColorTexture" : {
                    "index" : 1
                },
                "metallicFactor" : 0
            }
        },
        {
            "doubleSided" : true,
            "name" : "mat2-22",
            "pbrMetallicRoughness" : {
                "baseColorTexture" : {
                    "index" : 2
                },
                "metallicFactor" : 0
            }
        },
        {
            "doubleSided" : true,
            "name" : "mat2-21",
            "pbrMetallicRoughness" : {
                "baseColorTexture" : {
                    "index" : 3
                },
                "metallicFactor" : 0
            }
        },
        {
            "doubleSided" : true,
            "name" : "mat39-15.001",
            "pbrMetallicRoughness" : {
                "baseColorTexture" : {
                    "index" : 4
                },
                "metallicFactor" : 0
            }
        },
        {
            "doubleSided" : true,
            "name" : "mat39-12.001",
            "pbrMetallicRoughness" : {
                "baseColorTexture" : {
                    "index" : 5
                },
                "metallicFactor" : 0
            }
        },
        {
            "doubleSided" : true,
            "name" : "mat39-14.001",
            "pbrMetallicRoughness" : {
                "baseColorTexture" : {
                    "index" : 6
                },
                "metallicFactor" : 0
            }
        },
        {
            "doubleSided" : true,
            "name" : "mat39-13.001",
            "pbrMetallicRoughness" : {
                "baseColorTexture" : {
                    "index" : 7
                },
                "metallicFactor" : 0
            }
        },
        {
            "doubleSided" : true,
            "name" : "matcolour-48.009",
            "pbrMetallicRoughness" : {
                "baseColorFactor" : [
                    0.05882352963089943,
                    0.05882352963089943,
                    0.05882352963089943,
                    1
                ],
                "metallicFactor" : 0
            }
        },
        {
            "doubleSided" : true,
            "name" : "mat2-11",
            "pbrMetallicRoughness" : {
                "baseColorTexture" : {
                    "index" : 8
                },
                "metallicFactor" : 0
            }
        }
    ],
    "meshes" : [
        {
            "name" : "Maxis-3d3-mesh-61",
            "primitives" : [
                {
                    "attributes" : {
                        "POSITION" : 0,
                        "NORMAL" : 1,
                        "TEXCOORD_0" : 2
                    },
                    "indices" : 3,
                    "material" : 0
                },
                {
                    "attributes" : {
                        "POSITION" : 4,
                        "NORMAL" : 5,
                        "TEXCOORD_0" : 6
                    },
                    "indices" : 3,
                    "material" : 1
                },
                {
                    "attributes" : {
                        "POSITION" : 7,
                        "NORMAL" : 8,
                        "TEXCOORD_0" : 9
                    },
                    "indices" : 10,
                    "material" : 2
                },
                {
                    "attributes" : {
                        "POSITION" : 11,
                        "NORMAL" : 12,
                        "TEXCOORD_0" : 13
                    },
                    "indices" : 14,
                    "material" : 3
                },
                {
                    "attributes" : {
                        "POSITION" : 15,
                        "NORMAL" : 16,
                        "TEXCOORD_0" : 17
                    },
                    "indices" : 18,
                    "material" : 4
                },
                {
                    "attributes" : {
                        "POSITION" : 19,
                        "NORMAL" : 20,
                        "TEXCOORD_0" : 21
                    },
                    "indices" : 18,
                    "material" : 5
                },
                {
                    "attributes" : {
                        "POSITION" : 22,
                        "NORMAL" : 23,
                        "TEXCOORD_0" : 24
                    },
                    "indices" : 25,
                    "material" : 6
                },
                {
                    "attributes" : {
                        "POSITION" : 26,
                        "NORMAL" : 27,
                        "TEXCOORD_0" : 28
                    },
                    "indices" : 29,
                    "material" : 7
                },
                {
                    "attributes" : {
                        "POSITION" : 30,
                        "NORMAL" : 31,
                        "TEXCOORD_0" : 32
                    },
                    "indices" : 33,
                    "material" : 8
                },
                {
                    "attributes" : {
                        "POSITION" : 34,
                        "NORMAL" : 35,
                        "TEXCOORD_0" : 36
                    },
                    "indices" : 37,
                    "material" : 9
                },
                {
                    "attributes" : {
                        "POSITION" : 38
                    },
                    "material" : 0,
                    "mode" : 0
                }
            ]
        }
    ],
    "textures" : [
        {
            "sampler" : 0,
            "source" : 0
        },
        {
            "sampler" : 0,
            "source" : 1
        },
        {
            "sampler" : 0,
            "source" : 2
        },
        {
            "sampler" : 0,
            "source" : 3
        },
        {
            "sampler" : 0,
            "source" : 4
        },
        {
            "sampler" : 0,
            "source" : 5
        },
        {
            "sampler" : 0,
            "source" : 6
        },
        {
            "sampler" : 0,
            "source" : 7
        },
        {
            "sampler" : 0,
            "source" : 8
        }
    ],
    "images" : [
        {
            "mimeType" : "image/png",
            "name" : "tex2-23",
            "uri" : "../../../Textures/tex2-23.png"
        },
        {
            "mimeType" : "image/png",
            "name" : "tex2-20",
            "uri" : "../../../Textures/tex2-20.png"
        },
        {
            "mimeType" : "image/png",
            "name" : "tex2-22",
            "uri" : "../../../Textures/tex2-22.png"
        },
        {
            "mimeType" : "image/png",
            "name" : "tex2-21",
            "uri" : "../../../Textures/tex2-21.png"
        },
        {
            "mimeType" : "image/png",
            "name" : "tex39-15",
            "uri" : "../../../Textures/tex39-15.png"
        },
        {
            "mimeType" : "image/png",
            "name" : "tex39-12",
            "uri" : "../../../Textures/tex39-12.png"
        },
        {
            "mimeType" : "image/png",
            "name" : "tex39-14",
            "uri" : "../../../Textures/tex39-14.png"
        },
        {
            "mimeType" : "image/png",
            "name" : "tex39-13",
            "uri" : "../../../Textures/tex39-13.png"
        },
        {
            "mimeType" : "image/png",
            "name" : "tex2-11",
            "uri" : "../../../Textures/tex2-11.png"
        }
    ],
    "accessors" : [
        {
            "bufferView" : 0,
            "componentType" : 5126,
            "count" : 4,
            "max" : [
                20.67565155029297,
                20.9193115234375,
                -3.814697265625e-06
            ],
            "min" : [
                -21.013431549072266,
                20.9193115234375,
                -3.1942787170410156
            ],
            "type" : "VEC3"
        },
        {
            "bufferView" : 1,
            "componentType" : 5126,
            "count" : 4,
            "type" : "VEC3"
        },
        {
            "bufferView" : 2,
            "componentType" : 5126,
            "count" : 4,
            "type" : "VEC2"
        },
        {
            "bufferView" : 3,
            "componentType" : 5123,
            "count" : 6,
            "type" : "SCALAR"
        },
        {
            "bufferView" : 4,
            "componentType" : 5126,
            "count" : 4,
            "max" : [
                20.67565155029297,
                -20.769760131835938,
                0
            ],
            "min" : [
                -21.013431549072266,
                -20.769763946533203,
                -3.1942710876464844
            ],
            "type" : "VEC3"
        },
        {
            "bufferView" : 5,
            "componentType" : 5126,
            "count" : 4,
            "type" : "VEC3"
        },
        {
            "bufferView" : 6,
            "componentType" : 5126,
            "count" : 4,
            "type" : "VEC2"
        },
        {
            "bufferView" : 7,
            "componentType" : 5126,
            "count" : 6,
            "max" : [
                20.67565155029297,
                20.9193115234375,
                0
            ],
            "min" : [
                20.67565155029297,
                -20.769763946533203,
                -3.1942787170410156
            ],
            "type" : "VEC3"
        },
        {
            "bufferView" : 8,
            "componentType" : 5126,
            "count" : 6,
            "type" : "VEC3"
        },
        {
            "bufferView" : 9,
            "componentType" : 5126,
            "count" : 6,
            "type" : "VEC2"
        },
        {
            "bufferView" : 10,
            "componentType" : 5123,
            "count" : 6,
            "type" : "SCALAR"
        },
        {
            "bufferView" : 11,
            "componentType" : 5126,
            "count" : 4,
            "max" : [
                -21.013431549072266,
                20.9193115234375,
                0
            ],
            "min" : [
                -21.013431549072266,
                -20.769763946533203,
                -3.1942787170410156
            ],
            "type" : "VEC3"
        },
        {
            "bufferView" : 12,
            "componentType" : 5126,
            "count" : 4,
            "type" : "VEC3"
        },
        {
            "bufferView" : 13,
            "componentType" : 5126,
            "count" : 4,
            "type" : "VEC2"
        },
        {
            "bufferView" : 14,
            "componentType" : 5123,
            "count" : 6,
            "type" : "SCALAR"
        },
        {
            "bufferView" : 15,
            "componentType" : 5126,
            "count" : 10,
            "max" : [
                20.67565155029297,
                20.9193115234375,
                -3.1942787170410156
            ],
            "min" : [
                -21.013431549072266,
                9.975921630859375,
                -34.053016662597656
            ],
            "type" : "VEC3"
        },
        {
            "bufferView" : 16,
            "componentType" : 5126,
            "count" : 10,
            "type" : "VEC3"
        },
        {
            "bufferView" : 17,
            "componentType" : 5126,
            "count" : 10,
            "type" : "VEC2"
        },
        {
            "bufferView" : 18,
            "componentType" : 5123,
            "count" : 12,
            "type" : "SCALAR"
        },
        {
            "bufferView" : 19,
            "componentType" : 5126,
            "count" : 10,
            "max" : [
                20.67565155029297,
                -9.826385498046875,
                -3.1942710876464844
            ],
            "min" : [
                -21.013431549072266,
                -20.76976776123047,
                -34.05301284790039
            ],
            "type" : "VEC3"
        },
        {
            "bufferView" : 20,
            "componentType" : 5126,
            "count" : 10,
            "type" : "VEC3"
        },
        {
            "bufferView" : 21,
            "componentType" : 5126,
            "count" : 10,
            "type" : "VEC2"
        },
        {
            "bufferView" : 22,
            "componentType" : 5126,
            "count" : 10,
            "max" : [
                20.67565155029297,
                20.9193115234375,
                -3.1942710876464844
            ],
            "min" : [
                9.73226547241211,
                -20.76976776123047,
                -34.053016662597656
            ],
            "type" : "VEC3"
        },
        {
            "bufferView" : 23,
            "componentType" : 5126,
            "count" : 10,
            "type" : "VEC3"
        },
        {
            "bufferView" : 24,
            "componentType" : 5126,
            "count" : 10,
            "type" : "VEC2"
        },
        {
            "bufferView" : 25,
            "componentType" : 5123,
            "count" : 12,
            "type" : "SCALAR"
        },
        {
            "bufferView" : 26,
            "componentType" : 5126,
            "count" : 12,
            "max" : [
                -10.070045471191406,
                20.9193115234375,
                -3.1942710876464844
            ],
            "min" : [
                -21.013431549072266,
                -20.76976776123047,
                -34.053016662597656
            ],
            "type" : "VEC3"
        },
        {
            "bufferView" : 27,
            "componentType" : 5126,
            "count" : 12,
            "type" : "VEC3"
        },
        {
            "bufferView" : 28,
            "componentType" : 5126,
            "count" : 12,
            "type" : "VEC2"
        },
        {
            "bufferView" : 29,
            "componentType" : 5123,
            "count" : 12,
            "type" : "SCALAR"
        },
        {
            "bufferView" : 30,
            "componentType" : 5126,
            "count" : 24,
            "max" : [
                20.67565155029297,
                20.919307708740234,
                -26.948394775390625
            ],
            "min" : [
                -21.013431549072266,
                -20.76976776123047,
                -26.948406219482422
            ],
            "type" : "VEC3"
        },
        {
            "bufferView" : 31,
            "componentType" : 5126,
            "count" : 24,
            "type" : "VEC3"
        },
        {
            "bufferView" : 32,
            "componentType" : 5126,
            "count" : 24,
            "type" : "VEC2"
        },
        {
            "bufferView" : 33,
            "componentType" : 5123,
            "count" : 24,
            "type" : "SCALAR"
        },
        {
            "bufferView" : 34,
            "componentType" : 5126,
            "count" : 6,
            "max" : [
                9.73226547241211,
                9.975921630859375,
                -34.05301284790039
            ],
            "min" : [
                -10.070045471191406,
                -9.826385498046875,
                -34.053016662597656
            ],
            "type" : "VEC3"
        },
        {
            "bufferView" : 35,
            "componentType" : 5126,
            "count" : 6,
            "type" : "VEC3"
        },
        {
            "bufferView" : 36,
            "componentType" : 5126,
            "count" : 6,
            "type" : "VEC2"
        },
        {
            "bufferView" : 37,
            "componentType" : 5123,
            "count" : 6,
            "type" : "SCALAR"
        },
        {
            "bufferView" : 38,
            "componentType" : 5126,
            "count" : 12,
            "max" : [
                8.402084350585938,
                9.25,
                -34.208335876464844
            ],
            "min" : [
                -9.327079772949219,
                -8.864585876464844,
                -34.208335876464844
            ],
            "type" : "VEC3"
        }
    ],
    "bufferViews" : [
        {
            "buffer" : 0,
            "byteLength" : 48,
            "byteOffset" : 0
        },
        {
            "buffer" : 0,
            "byteLength" : 48,
            "byteOffset" : 48
        },
        {
            "buffer" : 0,
            "byteLength" : 32,
            "byteOffset" : 96
        },
        {
            "buffer" : 0,
            "byteLength" : 12,
            "byteOffset" : 128
        },
        {
            "buffer" : 0,
            "byteLength" : 48,
            "byteOffset" : 140
        },
        {
            "buffer" : 0,
            "byteLength" : 48,
            "byteOffset" : 188
        },
        {
            "buffer" : 0,
            "byteLength" : 32,
            "byteOffset" : 236
        },
        {
            "buffer" : 0,
            "byteLength" : 72,
            "byteOffset" : 268
        },
        {
            "buffer" : 0,
            "byteLength" : 72,
            "byteOffset" : 340
        },
        {
            "buffer" : 0,
            "byteLength" : 48,
            "byteOffset" : 412
        },
        {
            "buffer" : 0,
            "byteLength" : 12,
            "byteOffset" : 460
        },
        {
            "buffer" : 0,
            "byteLength" : 48,
            "byteOffset" : 472
        },
        {
            "buffer" : 0,
            "byteLength" : 48,
            "byteOffset" : 520
        },
        {
            "buffer" : 0,
            "byteLength" : 32,
            "byteOffset" : 568
        },
        {
            "buffer" : 0,
            "byteLength" : 12,
            "byteOffset" : 600
        },
        {
            "buffer" : 0,
            "byteLength" : 120,
            "byteOffset" : 612
        },
        {
            "buffer" : 0,
            "byteLength" : 120,
            "byteOffset" : 732
        },
        {
            "buffer" : 0,
            "byteLength" : 80,
            "byteOffset" : 852
        },
        {
            "buffer" : 0,
            "byteLength" : 24,
            "byteOffset" : 932
        },
        {
            "buffer" : 0,
            "byteLength" : 120,
            "byteOffset" : 956
        },
        {
            "buffer" : 0,
            "byteLength" : 120,
            "byteOffset" : 1076
        },
        {
            "buffer" : 0,
            "byteLength" : 80,
            "byteOffset" : 1196
        },
        {
            "buffer" : 0,
            "byteLength" : 120,
            "byteOffset" : 1276
        },
        {
            "buffer" : 0,
            "byteLength" : 120,
            "byteOffset" : 1396
        },
        {
            "buffer" : 0,
            "byteLength" : 80,
            "byteOffset" : 1516
        },
        {
            "buffer" : 0,
            "byteLength" : 24,
            "byteOffset" : 1596
        },
        {
            "buffer" : 0,
            "byteLength" : 144,
            "byteOffset" : 1620
        },
        {
            "buffer" : 0,
            "byteLength" : 144,
            "byteOffset" : 1764
        },
        {
            "buffer" : 0,
            "byteLength" : 96,
            "byteOffset" : 1908
        },
        {
            "buffer" : 0,
            "byteLength" : 24,
            "byteOffset" : 2004
        },
        {
            "buffer" : 0,
            "byteLength" : 288,
            "byteOffset" : 2028
        },
        {
            "buffer" : 0,
            "byteLength" : 288,
            "byteOffset" : 2316
        },
        {
            "buffer" : 0,
            "byteLength" : 192,
            "byteOffset" : 2604
        },
        {
            "buffer" : 0,
            "byteLength" : 48,
            "byteOffset" : 2796
        },
        {
            "buffer" : 0,
            "byteLength" : 72,
            "byteOffset" : 2844
        },
        {
            "buffer" : 0,
            "byteLength" : 72,
            "byteOffset" : 2916
        },
        {
            "buffer" : 0,
            "byteLength" : 48,
            "byteOffset" : 2988
        },
        {
            "buffer" : 0,
            "byteLength" : 12,
            "byteOffset" : 3036
        },
        {
            "buffer" : 0,
            "byteLength" : 144,
            "byteOffset" : 3048
        }
    ],
    "samplers" : [
        {
            "magFilter" : 9729,
            "minFilter" : 9987
        }
    ],
    "buffers" : [
        {
            "byteLength" : 3192,
            "uri" : "fire.bin"
        }
    ]
}
