{
    "asset" : {
        "generator" : "Khronos glTF Blender I/O v1.7.33",
        "version" : "2.0"
    },
    "scene" : 0,
    "scenes" : [
        {
            "name" : "Scene",
            "nodes" : [
                0
            ]
        }
    ],
    "nodes" : [
        {
            "mesh" : 0,
            "name" : "Maxis-3d3-mesh-21",
            "rotation" : [
                0.7071068286895752,
                0,
                0,
                0.7071067094802856
            ]
        }
    ],
    "materials" : [
        {
            "doubleSided" : true,
            "name" : "matcolour-128.001",
            "pbrMetallicRoughness" : {
                "baseColorFactor" : [
                    0.12156862765550613,
                    0.08235294371843338,
                    0.062745101749897,
                    1
                ],
                "metallicFactor" : 0
            }
        },
        {
            "doubleSided" : true,
            "name" : "matcolour-48.005",
            "pbrMetallicRoughness" : {
                "baseColorFactor" : [
                    0.05882352963089943,
                    0.05882352963089943,
                    0.05882352963089943,
                    1
                ],
                "metallicFactor" : 0
            }
        },
        {
            "doubleSided" : true,
            "name" : "matcolour-80.001",
            "pbrMetallicRoughness" : {
                "baseColorFactor" : [
                    0.18431372940540314,
                    0.14509804546833038,
                    0.03921568766236305,
                    1
                ],
                "metallicFactor" : 0
            }
        },
        {
            "doubleSided" : true,
            "name" : "matcolour-255.001",
            "pbrMetallicRoughness" : {
                "metallicFactor" : 0
            }
        },
        {
            "doubleSided" : true,
            "name" : "mat40-23",
            "pbrMetallicRoughness" : {
                "baseColorTexture" : {
                    "index" : 0
                },
                "metallicFactor" : 0
            }
        },
        {
            "doubleSided" : true,
            "name" : "mat2-40.001",
            "pbrMetallicRoughness" : {
                "baseColorTexture" : {
                    "index" : 1
                },
                "metallicFactor" : 0
            }
        },
        {
            "doubleSided" : true,
            "name" : "mat40-36",
            "pbrMetallicRoughness" : {
                "baseColorTexture" : {
                    "index" : 2
                },
                "metallicFactor" : 0
            }
        },
        {
            "doubleSided" : true,
            "name" : "mat2-0.001",
            "pbrMetallicRoughness" : {
                "baseColorTexture" : {
                    "index" : 3
                },
                "metallicFactor" : 0
            }
        }
    ],
    "meshes" : [
        {
            "name" : "Maxis-3d3-mesh-21",
            "primitives" : [
                {
                    "attributes" : {
                        "POSITION" : 0,
                        "NORMAL" : 1,
                        "TEXCOORD_0" : 2
                    },
                    "indices" : 3,
                    "material" : 0
                },
                {
                    "attributes" : {
                        "POSITION" : 4,
                        "NORMAL" : 5,
                        "TEXCOORD_0" : 6
                    },
                    "indices" : 7,
                    "material" : 1
                },
                {
                    "attributes" : {
                        "POSITION" : 8,
                        "NORMAL" : 9,
                        "TEXCOORD_0" : 10
                    },
                    "indices" : 11,
                    "material" : 2
                },
                {
                    "attributes" : {
                        "POSITION" : 12,
                        "NORMAL" : 13,
                        "TEXCOORD_0" : 14
                    },
                    "indices" : 15,
                    "material" : 3
                },
                {
                    "attributes" : {
                        "POSITION" : 16,
                        "NORMAL" : 17,
                        "TEXCOORD_0" : 18
                    },
                    "indices" : 19,
                    "material" : 4
                },
                {
                    "attributes" : {
                        "POSITION" : 20,
                        "NORMAL" : 21,
                        "TEXCOORD_0" : 22
                    },
                    "indices" : 23,
                    "material" : 5
                },
                {
                    "attributes" : {
                        "POSITION" : 24,
                        "NORMAL" : 25,
                        "TEXCOORD_0" : 26
                    },
                    "indices" : 19,
                    "material" : 6
                },
                {
                    "attributes" : {
                        "POSITION" : 27,
                        "NORMAL" : 28,
                        "TEXCOORD_0" : 29
                    },
                    "indices" : 30,
                    "material" : 7
                }
            ]
        }
    ],
    "textures" : [
        {
            "sampler" : 0,
            "source" : 0
        },
        {
            "sampler" : 0,
            "source" : 1
        },
        {
            "sampler" : 0,
            "source" : 2
        },
        {
            "sampler" : 0,
            "source" : 3
        }
    ],
    "images" : [
        {
            "mimeType" : "image/png",
            "name" : "tex40-23",
            "uri" : "../../../Textures/tex40-23.png"
        },
        {
            "mimeType" : "image/png",
            "name" : "tex2-40",
            "uri" : "../../../Textures/tex2-40.png"
        },
        {
            "mimeType" : "image/png",
            "name" : "tex40-36",
            "uri" : "../../../Textures/tex40-36.png"
        },
        {
            "mimeType" : "image/png",
            "name" : "tex2-0",
            "uri" : "../../../Textures/tex2-0.png"
        }
    ],
    "accessors" : [
        {
            "bufferView" : 0,
            "componentType" : 5126,
            "count" : 94,
            "max" : [
                7.183353424072266,
                0.3596687316894531,
                -4.588871002197266
            ],
            "min" : [
                -7.529541015625,
                -7.775691986083984,
                -6.5390167236328125
            ],
            "type" : "VEC3"
        },
        {
            "bufferView" : 1,
            "componentType" : 5126,
            "count" : 94,
            "type" : "VEC3"
        },
        {
            "bufferView" : 2,
            "componentType" : 5126,
            "count" : 94,
            "type" : "VEC2"
        },
        {
            "bufferView" : 3,
            "componentType" : 5123,
            "count" : 102,
            "type" : "SCALAR"
        },
        {
            "bufferView" : 4,
            "componentType" : 5126,
            "count" : 38,
            "max" : [
                6.590232849121094,
                5.80963134765625,
                0.00762176513671875
            ],
            "min" : [
                -7.602329254150391,
                -7.384235382080078,
                -6.416667938232422
            ],
            "type" : "VEC3"
        },
        {
            "bufferView" : 5,
            "componentType" : 5126,
            "count" : 38,
            "type" : "VEC3"
        },
        {
            "bufferView" : 6,
            "componentType" : 5126,
            "count" : 38,
            "type" : "VEC2"
        },
        {
            "bufferView" : 7,
            "componentType" : 5123,
            "count" : 48,
            "type" : "SCALAR"
        },
        {
            "bufferView" : 8,
            "componentType" : 5126,
            "count" : 14,
            "max" : [
                -7.304836273193359,
                7.860637664794922,
                -6.416664123535156
            ],
            "min" : [
                -7.701839447021484,
                3.255413055419922,
                -8.874794006347656
            ],
            "type" : "VEC3"
        },
        {
            "bufferView" : 9,
            "componentType" : 5126,
            "count" : 14,
            "type" : "VEC3"
        },
        {
            "bufferView" : 10,
            "componentType" : 5126,
            "count" : 14,
            "type" : "VEC2"
        },
        {
            "bufferView" : 11,
            "componentType" : 5123,
            "count" : 18,
            "type" : "SCALAR"
        },
        {
            "bufferView" : 12,
            "componentType" : 5126,
            "count" : 18,
            "max" : [
                -7.304836273193359,
                7.860637664794922,
                -6.416664123535156
            ],
            "min" : [
                -7.701839447021484,
                3.255413055419922,
                -8.874794006347656
            ],
            "type" : "VEC3"
        },
        {
            "bufferView" : 13,
            "componentType" : 5126,
            "count" : 18,
            "type" : "VEC3"
        },
        {
            "bufferView" : 14,
            "componentType" : 5126,
            "count" : 18,
            "type" : "VEC2"
        },
        {
            "bufferView" : 15,
            "componentType" : 5123,
            "count" : 18,
            "type" : "SCALAR"
        },
        {
            "bufferView" : 16,
            "componentType" : 5126,
            "count" : 4,
            "max" : [
                5.8851165771484375,
                0.19424819946289062,
                0
            ],
            "min" : [
                0.14125442504882812,
                0.194244384765625,
                -4.292568206787109
            ],
            "type" : "VEC3"
        },
        {
            "bufferView" : 17,
            "componentType" : 5126,
            "count" : 4,
            "type" : "VEC3"
        },
        {
            "bufferView" : 18,
            "componentType" : 5126,
            "count" : 4,
            "type" : "VEC2"
        },
        {
            "bufferView" : 19,
            "componentType" : 5123,
            "count" : 6,
            "type" : "SCALAR"
        },
        {
            "bufferView" : 20,
            "componentType" : 5126,
            "count" : 6,
            "max" : [
                -0.5572586059570312,
                0.19424819946289062,
                0.00113677978515625
            ],
            "min" : [
                -2.1739883422851562,
                0.194244384765625,
                -3.1383209228515625
            ],
            "type" : "VEC3"
        },
        {
            "bufferView" : 21,
            "componentType" : 5126,
            "count" : 6,
            "type" : "VEC3"
        },
        {
            "bufferView" : 22,
            "componentType" : 5126,
            "count" : 6,
            "type" : "VEC2"
        },
        {
            "bufferView" : 23,
            "componentType" : 5123,
            "count" : 6,
            "type" : "SCALAR"
        },
        {
            "bufferView" : 24,
            "componentType" : 5126,
            "count" : 4,
            "max" : [
                -4.71563720703125,
                0.19424819946289062,
                -1.2987213134765625
            ],
            "min" : [
                -5.653984069824219,
                0.194244384765625,
                -2.580768585205078
            ],
            "type" : "VEC3"
        },
        {
            "bufferView" : 25,
            "componentType" : 5126,
            "count" : 4,
            "type" : "VEC3"
        },
        {
            "bufferView" : 26,
            "componentType" : 5126,
            "count" : 4,
            "type" : "VEC2"
        },
        {
            "bufferView" : 27,
            "componentType" : 5126,
            "count" : 12,
            "max" : [
                -7.166355133056641,
                6.568748474121094,
                -6.585140228271484
            ],
            "min" : [
                -7.845485687255859,
                4.431247711181641,
                -8.722640991210938
            ],
            "type" : "VEC3"
        },
        {
            "bufferView" : 28,
            "componentType" : 5126,
            "count" : 12,
            "type" : "VEC3"
        },
        {
            "bufferView" : 29,
            "componentType" : 5126,
            "count" : 12,
            "type" : "VEC2"
        },
        {
            "bufferView" : 30,
            "componentType" : 5123,
            "count" : 12,
            "type" : "SCALAR"
        }
    ],
    "bufferViews" : [
        {
            "buffer" : 0,
            "byteLength" : 1128,
            "byteOffset" : 0
        },
        {
            "buffer" : 0,
            "byteLength" : 1128,
            "byteOffset" : 1128
        },
        {
            "buffer" : 0,
            "byteLength" : 752,
            "byteOffset" : 2256
        },
        {
            "buffer" : 0,
            "byteLength" : 204,
            "byteOffset" : 3008
        },
        {
            "buffer" : 0,
            "byteLength" : 456,
            "byteOffset" : 3212
        },
        {
            "buffer" : 0,
            "byteLength" : 456,
            "byteOffset" : 3668
        },
        {
            "buffer" : 0,
            "byteLength" : 304,
            "byteOffset" : 4124
        },
        {
            "buffer" : 0,
            "byteLength" : 96,
            "byteOffset" : 4428
        },
        {
            "buffer" : 0,
            "byteLength" : 168,
            "byteOffset" : 4524
        },
        {
            "buffer" : 0,
            "byteLength" : 168,
            "byteOffset" : 4692
        },
        {
            "buffer" : 0,
            "byteLength" : 112,
            "byteOffset" : 4860
        },
        {
            "buffer" : 0,
            "byteLength" : 36,
            "byteOffset" : 4972
        },
        {
            "buffer" : 0,
            "byteLength" : 216,
            "byteOffset" : 5008
        },
        {
            "buffer" : 0,
            "byteLength" : 216,
            "byteOffset" : 5224
        },
        {
            "buffer" : 0,
            "byteLength" : 144,
            "byteOffset" : 5440
        },
        {
            "buffer" : 0,
            "byteLength" : 36,
            "byteOffset" : 5584
        },
        {
            "buffer" : 0,
            "byteLength" : 48,
            "byteOffset" : 5620
        },
        {
            "buffer" : 0,
            "byteLength" : 48,
            "byteOffset" : 5668
        },
        {
            "buffer" : 0,
            "byteLength" : 32,
            "byteOffset" : 5716
        },
        {
            "buffer" : 0,
            "byteLength" : 12,
            "byteOffset" : 5748
        },
        {
            "buffer" : 0,
            "byteLength" : 72,
            "byteOffset" : 5760
        },
        {
            "buffer" : 0,
            "byteLength" : 72,
            "byteOffset" : 5832
        },
        {
            "buffer" : 0,
            "byteLength" : 48,
            "byteOffset" : 5904
        },
        {
            "buffer" : 0,
            "byteLength" : 12,
            "byteOffset" : 5952
        },
        {
            "buffer" : 0,
            "byteLength" : 48,
            "byteOffset" : 5964
        },
        {
            "buffer" : 0,
            "byteLength" : 48,
            "byteOffset" : 6012
        },
        {
            "buffer" : 0,
            "byteLength" : 32,
            "byteOffset" : 6060
        },
        {
            "buffer" : 0,
            "byteLength" : 144,
            "byteOffset" : 6092
        },
        {
            "buffer" : 0,
            "byteLength" : 144,
            "byteOffset" : 6236
        },
        {
            "buffer" : 0,
            "byteLength" : 96,
            "byteOffset" : 6380
        },
        {
            "buffer" : 0,
            "byteLength" : 24,
            "byteOffset" : 6476
        }
    ],
    "samplers" : [
        {
            "magFilter" : 9729,
            "minFilter" : 9987
        }
    ],
    "buffers" : [
        {
            "byteLength" : 6500,
            "uri" : "gas_1.bin"
        }
    ]
}
