{
	"asset":{
		"generator":"Khronos glTF Blender I/O v4.3.47",
		"version":"2.0"
	},
	"scene":0,
	"scenes":[
		{
			"name":"Scene",
			"nodes":[
				0,
				1
			]
		}
	],
	"nodes":[
		{
			"mesh":0,
			"name":"Maxis-3d3-mesh-24",
			"rotation":[
				0.70710688829422,
				0,
				0,
				0.7071066498756409
			]
		},
		{
			"extras":{
				"gd_node":"Decal",
				"lower_fade":9,
				"upper_fade":10
			},
			"mesh":1,
			"name":"Ground_AO",
			"scale":[
				14.243614196777344,
				1,
				15.499996185302734
			],
			"translation":[
				-1.1663131713867188,
				-0.02038668841123581,
				-0.19180035591125488
			]
		}
	],
	"materials":[
		{
			"name":"mat40-39",
			"occlusionTexture":{
				"index":0,
				"texCoord":1
			},
			"pbrMetallicRoughness":{
				"baseColorTexture":{
					"index":1
				},
				"metallicFactor":0
			}
		},
		{
			"name":"mat40-36.001",
			"occlusionTexture":{
				"index":2,
				"texCoord":1
			},
			"pbrMetallicRoughness":{
				"baseColorTexture":{
					"index":3
				},
				"metallicFactor":0
			}
		},
		{
			"name":"mat40-52.001",
			"occlusionTexture":{
				"index":4,
				"texCoord":1
			},
			"pbrMetallicRoughness":{
				"baseColorTexture":{
					"index":5
				},
				"metallicFactor":0
			}
		},
		{
			"name":"mat40-37",
			"occlusionTexture":{
				"index":6,
				"texCoord":1
			},
			"pbrMetallicRoughness":{
				"baseColorTexture":{
					"index":7
				},
				"metallicFactor":0
			}
		},
		{
			"name":"mat40-38",
			"occlusionTexture":{
				"index":8,
				"texCoord":1
			},
			"pbrMetallicRoughness":{
				"baseColorTexture":{
					"index":9
				},
				"metallicFactor":0
			}
		},
		{
			"name":"mat2-63",
			"occlusionTexture":{
				"index":10,
				"texCoord":1
			},
			"pbrMetallicRoughness":{
				"baseColorTexture":{
					"index":11
				},
				"metallicFactor":0
			}
		},
		{
			"name":"mat40-53.001",
			"occlusionTexture":{
				"index":12,
				"texCoord":1
			},
			"pbrMetallicRoughness":{
				"baseColorTexture":{
					"index":13
				},
				"metallicFactor":0
			}
		},
		{
			"name":"mat40-54.001",
			"occlusionTexture":{
				"index":14,
				"texCoord":1
			},
			"pbrMetallicRoughness":{
				"baseColorTexture":{
					"index":15
				},
				"metallicFactor":0
			}
		},
		{
			"name":"matcolour-80.002",
			"occlusionTexture":{
				"index":16,
				"texCoord":1
			},
			"pbrMetallicRoughness":{
				"baseColorFactor":[
					0.18431372940540314,
					0.14509804546833038,
					0.03921568766236305,
					1
				],
				"metallicFactor":0
			}
		},
		{
			"name":"matcolour-255.002",
			"occlusionTexture":{
				"index":17,
				"texCoord":1
			},
			"pbrMetallicRoughness":{
				"metallicFactor":0
			}
		},
		{
			"name":"matcolour-64",
			"occlusionTexture":{
				"index":18,
				"texCoord":1
			},
			"pbrMetallicRoughness":{
				"baseColorFactor":[
					0,
					0,
					0.250980406999588,
					1
				],
				"metallicFactor":0
			}
		},
		{
			"name":"mat40-46",
			"occlusionTexture":{
				"index":19,
				"texCoord":1
			},
			"pbrMetallicRoughness":{
				"baseColorTexture":{
					"index":20
				},
				"metallicFactor":0
			}
		},
		{
			"name":"mat2-0.002",
			"occlusionTexture":{
				"index":21,
				"texCoord":1
			},
			"pbrMetallicRoughness":{
				"baseColorTexture":{
					"index":22
				},
				"metallicFactor":0
			}
		},
		{
			"name":"Ground_AO",
			"occlusionTexture":{
				"index":23
			},
			"pbrMetallicRoughness":{
				"baseColorFactor":[
					0.800000011920929,
					0.800000011920929,
					0.800000011920929,
					1
				],
				"metallicFactor":0,
				"roughnessFactor":0.5
			}
		}
	],
	"meshes":[
		{
			"name":"Maxis-3d3-mesh-24",
			"primitives":[
				{
					"attributes":{
						"POSITION":0,
						"NORMAL":1,
						"TEXCOORD_0":2,
						"TEXCOORD_1":3
					},
					"indices":4,
					"material":0
				},
				{
					"attributes":{
						"POSITION":5,
						"NORMAL":6,
						"TEXCOORD_0":7,
						"TEXCOORD_1":8
					},
					"indices":9,
					"material":1
				},
				{
					"attributes":{
						"POSITION":10,
						"NORMAL":11,
						"TEXCOORD_0":12,
						"TEXCOORD_1":13
					},
					"indices":14,
					"material":2
				},
				{
					"attributes":{
						"POSITION":15,
						"NORMAL":16,
						"TEXCOORD_0":17,
						"TEXCOORD_1":18
					},
					"indices":19,
					"material":3
				},
				{
					"attributes":{
						"POSITION":20,
						"NORMAL":21,
						"TEXCOORD_0":22,
						"TEXCOORD_1":23
					},
					"indices":24,
					"material":4
				},
				{
					"attributes":{
						"POSITION":25,
						"NORMAL":26,
						"TEXCOORD_0":27,
						"TEXCOORD_1":28
					},
					"indices":29,
					"material":5
				},
				{
					"attributes":{
						"POSITION":30,
						"NORMAL":31,
						"TEXCOORD_0":32,
						"TEXCOORD_1":33
					},
					"indices":34,
					"material":6
				},
				{
					"attributes":{
						"POSITION":35,
						"NORMAL":36,
						"TEXCOORD_0":37,
						"TEXCOORD_1":38
					},
					"indices":39,
					"material":7
				},
				{
					"attributes":{
						"POSITION":40,
						"NORMAL":41,
						"TEXCOORD_0":42,
						"TEXCOORD_1":43
					},
					"indices":44,
					"material":8
				},
				{
					"attributes":{
						"POSITION":45,
						"NORMAL":46,
						"TEXCOORD_0":47,
						"TEXCOORD_1":48
					},
					"indices":49,
					"material":9
				},
				{
					"attributes":{
						"POSITION":50,
						"NORMAL":51,
						"TEXCOORD_0":52,
						"TEXCOORD_1":53
					},
					"indices":54,
					"material":10
				},
				{
					"attributes":{
						"POSITION":55,
						"NORMAL":56,
						"TEXCOORD_0":57,
						"TEXCOORD_1":58
					},
					"indices":59,
					"material":11
				},
				{
					"attributes":{
						"POSITION":60,
						"NORMAL":61,
						"TEXCOORD_0":62,
						"TEXCOORD_1":63
					},
					"indices":64,
					"material":12
				}
			]
		},
		{
			"name":"Plane",
			"primitives":[
				{
					"attributes":{
						"POSITION":65,
						"NORMAL":66,
						"TEXCOORD_0":67
					},
					"indices":68,
					"material":13
				}
			]
		}
	],
	"textures":[
		{
			"sampler":0,
			"source":0
		},
		{
			"sampler":0,
			"source":1
		},
		{
			"sampler":0,
			"source":0
		},
		{
			"sampler":0,
			"source":2
		},
		{
			"sampler":0,
			"source":0
		},
		{
			"sampler":0,
			"source":3
		},
		{
			"sampler":0,
			"source":0
		},
		{
			"sampler":0,
			"source":4
		},
		{
			"sampler":0,
			"source":0
		},
		{
			"sampler":0,
			"source":5
		},
		{
			"sampler":0,
			"source":0
		},
		{
			"sampler":0,
			"source":6
		},
		{
			"sampler":0,
			"source":0
		},
		{
			"sampler":0,
			"source":7
		},
		{
			"sampler":0,
			"source":0
		},
		{
			"sampler":0,
			"source":8
		},
		{
			"sampler":0,
			"source":0
		},
		{
			"sampler":0,
			"source":0
		},
		{
			"sampler":0,
			"source":0
		},
		{
			"sampler":0,
			"source":0
		},
		{
			"sampler":0,
			"source":9
		},
		{
			"sampler":0,
			"source":0
		},
		{
			"sampler":0,
			"source":10
		},
		{
			"sampler":0,
			"source":11
		}
	],
	"images":[
		{
			"mimeType":"image/png",
			"name":"gas_2.png",
			"uri":"../../../Textures/ambient_occlusion/Buildings/Station/gas_2.png"
		},
		{
			"mimeType":"image/png",
			"name":"tex40-39",
			"uri":"../../../Textures/tex40-39.png"
		},
		{
			"mimeType":"image/png",
			"name":"tex40-36",
			"uri":"../../../Textures/tex40-36.png"
		},
		{
			"mimeType":"image/png",
			"name":"tex40-52",
			"uri":"../../../Textures/tex40-52.png"
		},
		{
			"mimeType":"image/png",
			"name":"tex40-37",
			"uri":"../../../Textures/tex40-37.png"
		},
		{
			"mimeType":"image/png",
			"name":"tex40-38",
			"uri":"../../../Textures/tex40-38.png"
		},
		{
			"mimeType":"image/png",
			"name":"tex2-63",
			"uri":"../../../Textures/tex2-63.png"
		},
		{
			"mimeType":"image/png",
			"name":"tex40-53",
			"uri":"../../../Textures/tex40-53.png"
		},
		{
			"mimeType":"image/png",
			"name":"tex40-54",
			"uri":"../../../Textures/tex40-54.png"
		},
		{
			"mimeType":"image/png",
			"name":"tex40-46",
			"uri":"../../../Textures/tex40-46.png"
		},
		{
			"mimeType":"image/png",
			"name":"tex2-0",
			"uri":"../../../Textures/tex2-0.png"
		},
		{
			"mimeType":"image/png",
			"name":"gas_2_ground.png",
			"uri":"../../../Textures/ambient_occlusion/Buildings/Station/gas_2_ground.png"
		}
	],
	"accessors":[
		{
			"bufferView":0,
			"componentType":5126,
			"count":8,
			"max":[
				4.25,
				6.5,
				0
			],
			"min":[
				1.25,
				6.5,
				-3.0056800842285156
			],
			"type":"VEC3"
		},
		{
			"bufferView":1,
			"componentType":5126,
			"count":8,
			"type":"VEC3"
		},
		{
			"bufferView":2,
			"componentType":5126,
			"count":8,
			"type":"VEC2"
		},
		{
			"bufferView":3,
			"componentType":5126,
			"count":8,
			"type":"VEC2"
		},
		{
			"bufferView":4,
			"componentType":5123,
			"count":12,
			"type":"SCALAR"
		},
		{
			"bufferView":5,
			"componentType":5126,
			"count":8,
			"max":[
				4.25,
				5.75,
				0
			],
			"min":[
				1.25,
				5.75,
				-3.0056800842285156
			],
			"type":"VEC3"
		},
		{
			"bufferView":6,
			"componentType":5126,
			"count":8,
			"type":"VEC3"
		},
		{
			"bufferView":7,
			"componentType":5126,
			"count":8,
			"type":"VEC2"
		},
		{
			"bufferView":8,
			"componentType":5126,
			"count":8,
			"type":"VEC2"
		},
		{
			"bufferView":9,
			"componentType":5123,
			"count":12,
			"type":"SCALAR"
		},
		{
			"bufferView":10,
			"componentType":5126,
			"count":4,
			"max":[
				5,
				-6.749996185302734,
				0
			],
			"min":[
				-2.75,
				-6.75,
				-3.00567626953125
			],
			"type":"VEC3"
		},
		{
			"bufferView":11,
			"componentType":5126,
			"count":4,
			"type":"VEC3"
		},
		{
			"bufferView":12,
			"componentType":5126,
			"count":4,
			"type":"VEC2"
		},
		{
			"bufferView":13,
			"componentType":5126,
			"count":4,
			"type":"VEC2"
		},
		{
			"bufferView":14,
			"componentType":5123,
			"count":6,
			"type":"SCALAR"
		},
		{
			"bufferView":15,
			"componentType":5126,
			"count":8,
			"max":[
				3.4999961853027344,
				6.5,
				0
			],
			"min":[
				1.25,
				5.75,
				-3.0056800842285156
			],
			"type":"VEC3"
		},
		{
			"bufferView":16,
			"componentType":5126,
			"count":8,
			"type":"VEC3"
		},
		{
			"bufferView":17,
			"componentType":5126,
			"count":8,
			"type":"VEC2"
		},
		{
			"bufferView":18,
			"componentType":5126,
			"count":8,
			"type":"VEC2"
		},
		{
			"bufferView":19,
			"componentType":5123,
			"count":12,
			"type":"SCALAR"
		},
		{
			"bufferView":20,
			"componentType":5126,
			"count":8,
			"max":[
				4.25,
				6.5,
				0
			],
			"min":[
				2,
				5.75,
				-3.0056800842285156
			],
			"type":"VEC3"
		},
		{
			"bufferView":21,
			"componentType":5126,
			"count":8,
			"type":"VEC3"
		},
		{
			"bufferView":22,
			"componentType":5126,
			"count":8,
			"type":"VEC2"
		},
		{
			"bufferView":23,
			"componentType":5126,
			"count":8,
			"type":"VEC2"
		},
		{
			"bufferView":24,
			"componentType":5123,
			"count":12,
			"type":"SCALAR"
		},
		{
			"bufferView":25,
			"componentType":5126,
			"count":23,
			"max":[
				5.455493927001953,
				7.058197021484375,
				-3.00567626953125
			],
			"min":[
				-3.5445022583007812,
				-7.441799163818359,
				-3.0056800842285156
			],
			"type":"VEC3"
		},
		{
			"bufferView":26,
			"componentType":5126,
			"count":23,
			"type":"VEC3"
		},
		{
			"bufferView":27,
			"componentType":5126,
			"count":23,
			"type":"VEC2"
		},
		{
			"bufferView":28,
			"componentType":5126,
			"count":23,
			"type":"VEC2"
		},
		{
			"bufferView":29,
			"componentType":5123,
			"count":72,
			"type":"SCALAR"
		},
		{
			"bufferView":30,
			"componentType":5126,
			"count":4,
			"max":[
				-2.75,
				0.75,
				0
			],
			"min":[
				-2.75,
				-6.75,
				-3.0056800842285156
			],
			"type":"VEC3"
		},
		{
			"bufferView":31,
			"componentType":5126,
			"count":4,
			"type":"VEC3"
		},
		{
			"bufferView":32,
			"componentType":5126,
			"count":4,
			"type":"VEC2"
		},
		{
			"bufferView":33,
			"componentType":5126,
			"count":4,
			"type":"VEC2"
		},
		{
			"bufferView":34,
			"componentType":5123,
			"count":6,
			"type":"SCALAR"
		},
		{
			"bufferView":35,
			"componentType":5126,
			"count":4,
			"max":[
				5,
				0.75,
				0
			],
			"min":[
				5,
				-6.75,
				-3.00567626953125
			],
			"type":"VEC3"
		},
		{
			"bufferView":36,
			"componentType":5126,
			"count":4,
			"type":"VEC3"
		},
		{
			"bufferView":37,
			"componentType":5126,
			"count":4,
			"type":"VEC2"
		},
		{
			"bufferView":38,
			"componentType":5126,
			"count":4,
			"type":"VEC2"
		},
		{
			"bufferView":39,
			"componentType":5123,
			"count":6,
			"type":"SCALAR"
		},
		{
			"bufferView":40,
			"componentType":5126,
			"count":55,
			"max":[
				5.455493927001953,
				7.058197021484375,
				0.0203857421875
			],
			"min":[
				-7.788120269775391,
				-7.441799163818359,
				-12.253055572509766
			],
			"type":"VEC3"
		},
		{
			"bufferView":41,
			"componentType":5126,
			"count":55,
			"type":"VEC3"
		},
		{
			"bufferView":42,
			"componentType":5126,
			"count":55,
			"type":"VEC2"
		},
		{
			"bufferView":43,
			"componentType":5126,
			"count":55,
			"type":"VEC2"
		},
		{
			"bufferView":44,
			"componentType":5123,
			"count":84,
			"type":"SCALAR"
		},
		{
			"bufferView":45,
			"componentType":5126,
			"count":8,
			"max":[
				-2.6281166076660156,
				5.4521942138671875,
				-6.1163330078125
			],
			"min":[
				-7.788116455078125,
				4.807186126708984,
				-12.253055572509766
			],
			"type":"VEC3"
		},
		{
			"bufferView":46,
			"componentType":5126,
			"count":8,
			"type":"VEC3"
		},
		{
			"bufferView":47,
			"componentType":5126,
			"count":8,
			"type":"VEC2"
		},
		{
			"bufferView":48,
			"componentType":5126,
			"count":8,
			"type":"VEC2"
		},
		{
			"bufferView":49,
			"componentType":5123,
			"count":12,
			"type":"SCALAR"
		},
		{
			"bufferView":50,
			"componentType":5126,
			"count":26,
			"max":[
				-2.6281166076660156,
				5.4521942138671875,
				0.0203857421875
			],
			"min":[
				-7.788120269775391,
				4.807186126708984,
				-12.253055572509766
			],
			"type":"VEC3"
		},
		{
			"bufferView":51,
			"componentType":5126,
			"count":26,
			"type":"VEC3"
		},
		{
			"bufferView":52,
			"componentType":5126,
			"count":26,
			"type":"VEC2"
		},
		{
			"bufferView":53,
			"componentType":5126,
			"count":26,
			"type":"VEC2"
		},
		{
			"bufferView":54,
			"componentType":5123,
			"count":36,
			"type":"SCALAR"
		},
		{
			"bufferView":55,
			"componentType":5126,
			"count":4,
			"max":[
				5,
				0.75,
				0
			],
			"min":[
				-2.75,
				0.7499961853027344,
				-3.0056800842285156
			],
			"type":"VEC3"
		},
		{
			"bufferView":56,
			"componentType":5126,
			"count":4,
			"type":"VEC3"
		},
		{
			"bufferView":57,
			"componentType":5126,
			"count":4,
			"type":"VEC2"
		},
		{
			"bufferView":58,
			"componentType":5126,
			"count":4,
			"type":"VEC2"
		},
		{
			"bufferView":59,
			"componentType":5123,
			"count":6,
			"type":"SCALAR"
		},
		{
			"bufferView":60,
			"componentType":5126,
			"count":8,
			"max":[
				-3.4221343994140625,
				5.671848297119141,
				-8.025779724121094
			],
			"min":[
				-7.0783843994140625,
				4.610130310058594,
				-11.682029724121094
			],
			"type":"VEC3"
		},
		{
			"bufferView":61,
			"componentType":5126,
			"count":8,
			"type":"VEC3"
		},
		{
			"bufferView":62,
			"componentType":5126,
			"count":8,
			"type":"VEC2"
		},
		{
			"bufferView":63,
			"componentType":5126,
			"count":8,
			"type":"VEC2"
		},
		{
			"bufferView":64,
			"componentType":5123,
			"count":12,
			"type":"SCALAR"
		},
		{
			"bufferView":65,
			"componentType":5126,
			"count":4,
			"max":[
				0.5,
				0,
				0.5
			],
			"min":[
				-0.5,
				0,
				-0.5
			],
			"type":"VEC3"
		},
		{
			"bufferView":66,
			"componentType":5126,
			"count":4,
			"type":"VEC3"
		},
		{
			"bufferView":67,
			"componentType":5126,
			"count":4,
			"type":"VEC2"
		},
		{
			"bufferView":68,
			"componentType":5123,
			"count":6,
			"type":"SCALAR"
		}
	],
	"bufferViews":[
		{
			"buffer":0,
			"byteLength":96,
			"byteOffset":0,
			"target":34962
		},
		{
			"buffer":0,
			"byteLength":96,
			"byteOffset":96,
			"target":34962
		},
		{
			"buffer":0,
			"byteLength":64,
			"byteOffset":192,
			"target":34962
		},
		{
			"buffer":0,
			"byteLength":64,
			"byteOffset":256,
			"target":34962
		},
		{
			"buffer":0,
			"byteLength":24,
			"byteOffset":320,
			"target":34963
		},
		{
			"buffer":0,
			"byteLength":96,
			"byteOffset":344,
			"target":34962
		},
		{
			"buffer":0,
			"byteLength":96,
			"byteOffset":440,
			"target":34962
		},
		{
			"buffer":0,
			"byteLength":64,
			"byteOffset":536,
			"target":34962
		},
		{
			"buffer":0,
			"byteLength":64,
			"byteOffset":600,
			"target":34962
		},
		{
			"buffer":0,
			"byteLength":24,
			"byteOffset":664,
			"target":34963
		},
		{
			"buffer":0,
			"byteLength":48,
			"byteOffset":688,
			"target":34962
		},
		{
			"buffer":0,
			"byteLength":48,
			"byteOffset":736,
			"target":34962
		},
		{
			"buffer":0,
			"byteLength":32,
			"byteOffset":784,
			"target":34962
		},
		{
			"buffer":0,
			"byteLength":32,
			"byteOffset":816,
			"target":34962
		},
		{
			"buffer":0,
			"byteLength":12,
			"byteOffset":848,
			"target":34963
		},
		{
			"buffer":0,
			"byteLength":96,
			"byteOffset":860,
			"target":34962
		},
		{
			"buffer":0,
			"byteLength":96,
			"byteOffset":956,
			"target":34962
		},
		{
			"buffer":0,
			"byteLength":64,
			"byteOffset":1052,
			"target":34962
		},
		{
			"buffer":0,
			"byteLength":64,
			"byteOffset":1116,
			"target":34962
		},
		{
			"buffer":0,
			"byteLength":24,
			"byteOffset":1180,
			"target":34963
		},
		{
			"buffer":0,
			"byteLength":96,
			"byteOffset":1204,
			"target":34962
		},
		{
			"buffer":0,
			"byteLength":96,
			"byteOffset":1300,
			"target":34962
		},
		{
			"buffer":0,
			"byteLength":64,
			"byteOffset":1396,
			"target":34962
		},
		{
			"buffer":0,
			"byteLength":64,
			"byteOffset":1460,
			"target":34962
		},
		{
			"buffer":0,
			"byteLength":24,
			"byteOffset":1524,
			"target":34963
		},
		{
			"buffer":0,
			"byteLength":276,
			"byteOffset":1548,
			"target":34962
		},
		{
			"buffer":0,
			"byteLength":276,
			"byteOffset":1824,
			"target":34962
		},
		{
			"buffer":0,
			"byteLength":184,
			"byteOffset":2100,
			"target":34962
		},
		{
			"buffer":0,
			"byteLength":184,
			"byteOffset":2284,
			"target":34962
		},
		{
			"buffer":0,
			"byteLength":144,
			"byteOffset":2468,
			"target":34963
		},
		{
			"buffer":0,
			"byteLength":48,
			"byteOffset":2612,
			"target":34962
		},
		{
			"buffer":0,
			"byteLength":48,
			"byteOffset":2660,
			"target":34962
		},
		{
			"buffer":0,
			"byteLength":32,
			"byteOffset":2708,
			"target":34962
		},
		{
			"buffer":0,
			"byteLength":32,
			"byteOffset":2740,
			"target":34962
		},
		{
			"buffer":0,
			"byteLength":12,
			"byteOffset":2772,
			"target":34963
		},
		{
			"buffer":0,
			"byteLength":48,
			"byteOffset":2784,
			"target":34962
		},
		{
			"buffer":0,
			"byteLength":48,
			"byteOffset":2832,
			"target":34962
		},
		{
			"buffer":0,
			"byteLength":32,
			"byteOffset":2880,
			"target":34962
		},
		{
			"buffer":0,
			"byteLength":32,
			"byteOffset":2912,
			"target":34962
		},
		{
			"buffer":0,
			"byteLength":12,
			"byteOffset":2944,
			"target":34963
		},
		{
			"buffer":0,
			"byteLength":660,
			"byteOffset":2956,
			"target":34962
		},
		{
			"buffer":0,
			"byteLength":660,
			"byteOffset":3616,
			"target":34962
		},
		{
			"buffer":0,
			"byteLength":440,
			"byteOffset":4276,
			"target":34962
		},
		{
			"buffer":0,
			"byteLength":440,
			"byteOffset":4716,
			"target":34962
		},
		{
			"buffer":0,
			"byteLength":168,
			"byteOffset":5156,
			"target":34963
		},
		{
			"buffer":0,
			"byteLength":96,
			"byteOffset":5324,
			"target":34962
		},
		{
			"buffer":0,
			"byteLength":96,
			"byteOffset":5420,
			"target":34962
		},
		{
			"buffer":0,
			"byteLength":64,
			"byteOffset":5516,
			"target":34962
		},
		{
			"buffer":0,
			"byteLength":64,
			"byteOffset":5580,
			"target":34962
		},
		{
			"buffer":0,
			"byteLength":24,
			"byteOffset":5644,
			"target":34963
		},
		{
			"buffer":0,
			"byteLength":312,
			"byteOffset":5668,
			"target":34962
		},
		{
			"buffer":0,
			"byteLength":312,
			"byteOffset":5980,
			"target":34962
		},
		{
			"buffer":0,
			"byteLength":208,
			"byteOffset":6292,
			"target":34962
		},
		{
			"buffer":0,
			"byteLength":208,
			"byteOffset":6500,
			"target":34962
		},
		{
			"buffer":0,
			"byteLength":72,
			"byteOffset":6708,
			"target":34963
		},
		{
			"buffer":0,
			"byteLength":48,
			"byteOffset":6780,
			"target":34962
		},
		{
			"buffer":0,
			"byteLength":48,
			"byteOffset":6828,
			"target":34962
		},
		{
			"buffer":0,
			"byteLength":32,
			"byteOffset":6876,
			"target":34962
		},
		{
			"buffer":0,
			"byteLength":32,
			"byteOffset":6908,
			"target":34962
		},
		{
			"buffer":0,
			"byteLength":12,
			"byteOffset":6940,
			"target":34963
		},
		{
			"buffer":0,
			"byteLength":96,
			"byteOffset":6952,
			"target":34962
		},
		{
			"buffer":0,
			"byteLength":96,
			"byteOffset":7048,
			"target":34962
		},
		{
			"buffer":0,
			"byteLength":64,
			"byteOffset":7144,
			"target":34962
		},
		{
			"buffer":0,
			"byteLength":64,
			"byteOffset":7208,
			"target":34962
		},
		{
			"buffer":0,
			"byteLength":24,
			"byteOffset":7272,
			"target":34963
		},
		{
			"buffer":0,
			"byteLength":48,
			"byteOffset":7296,
			"target":34962
		},
		{
			"buffer":0,
			"byteLength":48,
			"byteOffset":7344,
			"target":34962
		},
		{
			"buffer":0,
			"byteLength":32,
			"byteOffset":7392,
			"target":34962
		},
		{
			"buffer":0,
			"byteLength":12,
			"byteOffset":7424,
			"target":34963
		}
	],
	"samplers":[
		{
			"magFilter":9729,
			"minFilter":9987
		}
	],
	"buffers":[
		{
			"byteLength":7436,
			"uri":"gas_2.bin"
		}
	]
}
