{
	"asset":{
		"generator":"Khronos glTF Blender I/O v4.3.47",
		"version":"2.0"
	},
	"scene":0,
	"scenes":[
		{
			"name":"Scene",
			"nodes":[
				0,
				1
			]
		}
	],
	"nodes":[
		{
			"mesh":0,
			"name":"Maxis-3d3-mesh-21",
			"rotation":[
				0.70710688829422,
				0,
				0,
				0.7071066498756409
			]
		},
		{
			"extras":{
				"gd_node":"Decal",
				"lower_fade":9,
				"upper_fade":10
			},
			"mesh":1,
			"name":"Ground_AO",
			"scale":[
				16.028839111328125,
				1,
				16.636329650878906
			],
			"translation":[
				-0.3310661315917969,
				-0.007622820790857077,
				0.042473554611206055
			]
		}
	],
	"materials":[
		{
			"name":"matcolour-128.001",
			"occlusionTexture":{
				"index":0,
				"texCoord":1
			},
			"pbrMetallicRoughness":{
				"baseColorFactor":[
					0.12156862765550613,
					0.08235294371843338,
					0.062745101749897,
					1
				],
				"metallicFactor":0
			}
		},
		{
			"name":"matcolour-48.005",
			"occlusionTexture":{
				"index":1,
				"texCoord":1
			},
			"pbrMetallicRoughness":{
				"baseColorFactor":[
					0.05882352963089943,
					0.05882352963089943,
					0.05882352963089943,
					1
				],
				"metallicFactor":0
			}
		},
		{
			"name":"matcolour-80.001",
			"occlusionTexture":{
				"index":2,
				"texCoord":1
			},
			"pbrMetallicRoughness":{
				"baseColorFactor":[
					0.18431372940540314,
					0.14509804546833038,
					0.03921568766236305,
					1
				],
				"metallicFactor":0
			}
		},
		{
			"name":"matcolour-255.001",
			"occlusionTexture":{
				"index":3,
				"texCoord":1
			},
			"pbrMetallicRoughness":{
				"metallicFactor":0
			}
		},
		{
			"name":"mat40-23",
			"occlusionTexture":{
				"index":4,
				"texCoord":1
			},
			"pbrMetallicRoughness":{
				"baseColorTexture":{
					"index":5
				},
				"metallicFactor":0
			}
		},
		{
			"name":"mat2-40.001",
			"occlusionTexture":{
				"index":6,
				"texCoord":1
			},
			"pbrMetallicRoughness":{
				"baseColorTexture":{
					"index":7
				},
				"metallicFactor":0
			}
		},
		{
			"name":"mat40-36",
			"occlusionTexture":{
				"index":8,
				"texCoord":1
			},
			"pbrMetallicRoughness":{
				"baseColorTexture":{
					"index":9
				},
				"metallicFactor":0
			}
		},
		{
			"name":"mat2-0.001",
			"occlusionTexture":{
				"index":10,
				"texCoord":1
			},
			"pbrMetallicRoughness":{
				"baseColorTexture":{
					"index":11
				},
				"metallicFactor":0
			}
		},
		{
			"name":"Ground_AO",
			"occlusionTexture":{
				"index":12
			},
			"pbrMetallicRoughness":{
				"baseColorFactor":[
					0.800000011920929,
					0.800000011920929,
					0.800000011920929,
					1
				],
				"metallicFactor":0,
				"roughnessFactor":0.5
			}
		}
	],
	"meshes":[
		{
			"name":"Maxis-3d3-mesh-21",
			"primitives":[
				{
					"attributes":{
						"POSITION":0,
						"NORMAL":1,
						"TEXCOORD_0":2,
						"TEXCOORD_1":3
					},
					"indices":4,
					"material":0
				},
				{
					"attributes":{
						"POSITION":5,
						"NORMAL":6,
						"TEXCOORD_0":7,
						"TEXCOORD_1":8
					},
					"indices":9,
					"material":1
				},
				{
					"attributes":{
						"POSITION":10,
						"NORMAL":11,
						"TEXCOORD_0":12,
						"TEXCOORD_1":13
					},
					"indices":14,
					"material":2
				},
				{
					"attributes":{
						"POSITION":15,
						"NORMAL":16,
						"TEXCOORD_0":17,
						"TEXCOORD_1":18
					},
					"indices":19,
					"material":3
				},
				{
					"attributes":{
						"POSITION":20,
						"NORMAL":21,
						"TEXCOORD_0":22,
						"TEXCOORD_1":23
					},
					"indices":24,
					"material":4
				},
				{
					"attributes":{
						"POSITION":25,
						"NORMAL":26,
						"TEXCOORD_0":27,
						"TEXCOORD_1":28
					},
					"indices":24,
					"material":5
				},
				{
					"attributes":{
						"POSITION":29,
						"NORMAL":30,
						"TEXCOORD_0":31,
						"TEXCOORD_1":32
					},
					"indices":24,
					"material":6
				},
				{
					"attributes":{
						"POSITION":33,
						"NORMAL":34,
						"TEXCOORD_0":35,
						"TEXCOORD_1":36
					},
					"indices":37,
					"material":7
				}
			]
		},
		{
			"name":"Plane",
			"primitives":[
				{
					"attributes":{
						"POSITION":38,
						"NORMAL":39,
						"TEXCOORD_0":40
					},
					"indices":41,
					"material":8
				}
			]
		}
	],
	"textures":[
		{
			"sampler":0,
			"source":0
		},
		{
			"sampler":0,
			"source":0
		},
		{
			"sampler":0,
			"source":0
		},
		{
			"sampler":0,
			"source":0
		},
		{
			"sampler":0,
			"source":0
		},
		{
			"sampler":0,
			"source":1
		},
		{
			"sampler":0,
			"source":0
		},
		{
			"sampler":0,
			"source":2
		},
		{
			"sampler":0,
			"source":0
		},
		{
			"sampler":0,
			"source":3
		},
		{
			"sampler":0,
			"source":0
		},
		{
			"sampler":0,
			"source":4
		},
		{
			"sampler":0,
			"source":5
		}
	],
	"images":[
		{
			"mimeType":"image/png",
			"name":"gas_1.png",
			"uri":"../../../Textures/ambient_occlusion/Buildings/Station/gas_1.png"
		},
		{
			"mimeType":"image/png",
			"name":"tex40-23",
			"uri":"../../../Textures/tex40-23.png"
		},
		{
			"mimeType":"image/png",
			"name":"tex2-40",
			"uri":"../../../Textures/tex2-40.png"
		},
		{
			"mimeType":"image/png",
			"name":"tex40-36",
			"uri":"../../../Textures/tex40-36.png"
		},
		{
			"mimeType":"image/png",
			"name":"tex2-0",
			"uri":"../../../Textures/tex2-0.png"
		},
		{
			"mimeType":"image/png",
			"name":"gas_1_ground.png",
			"uri":"../../../Textures/ambient_occlusion/Buildings/Station/gas_1_ground.png"
		}
	],
	"accessors":[
		{
			"bufferView":0,
			"componentType":5126,
			"count":52,
			"max":[
				7.183353424072266,
				0.3596687316894531,
				-4.588871002197266
			],
			"min":[
				-7.529541015625,
				-7.775691986083984,
				-6.5390167236328125
			],
			"type":"VEC3"
		},
		{
			"bufferView":1,
			"componentType":5126,
			"count":52,
			"type":"VEC3"
		},
		{
			"bufferView":2,
			"componentType":5126,
			"count":52,
			"type":"VEC2"
		},
		{
			"bufferView":3,
			"componentType":5126,
			"count":52,
			"type":"VEC2"
		},
		{
			"bufferView":4,
			"componentType":5123,
			"count":102,
			"type":"SCALAR"
		},
		{
			"bufferView":5,
			"componentType":5126,
			"count":32,
			"max":[
				6.590232849121094,
				5.80963134765625,
				0.00762176513671875
			],
			"min":[
				-7.602329254150391,
				-7.384235382080078,
				-6.416667938232422
			],
			"type":"VEC3"
		},
		{
			"bufferView":6,
			"componentType":5126,
			"count":32,
			"type":"VEC3"
		},
		{
			"bufferView":7,
			"componentType":5126,
			"count":32,
			"type":"VEC2"
		},
		{
			"bufferView":8,
			"componentType":5126,
			"count":32,
			"type":"VEC2"
		},
		{
			"bufferView":9,
			"componentType":5123,
			"count":48,
			"type":"SCALAR"
		},
		{
			"bufferView":10,
			"componentType":5126,
			"count":12,
			"max":[
				-7.304836273193359,
				7.860637664794922,
				-6.416664123535156
			],
			"min":[
				-7.701839447021484,
				3.255413055419922,
				-8.874794006347656
			],
			"type":"VEC3"
		},
		{
			"bufferView":11,
			"componentType":5126,
			"count":12,
			"type":"VEC3"
		},
		{
			"bufferView":12,
			"componentType":5126,
			"count":12,
			"type":"VEC2"
		},
		{
			"bufferView":13,
			"componentType":5126,
			"count":12,
			"type":"VEC2"
		},
		{
			"bufferView":14,
			"componentType":5123,
			"count":18,
			"type":"SCALAR"
		},
		{
			"bufferView":15,
			"componentType":5126,
			"count":12,
			"max":[
				-7.304836273193359,
				7.860637664794922,
				-6.416664123535156
			],
			"min":[
				-7.701839447021484,
				3.255413055419922,
				-8.874794006347656
			],
			"type":"VEC3"
		},
		{
			"bufferView":16,
			"componentType":5126,
			"count":12,
			"type":"VEC3"
		},
		{
			"bufferView":17,
			"componentType":5126,
			"count":12,
			"type":"VEC2"
		},
		{
			"bufferView":18,
			"componentType":5126,
			"count":12,
			"type":"VEC2"
		},
		{
			"bufferView":19,
			"componentType":5123,
			"count":18,
			"type":"SCALAR"
		},
		{
			"bufferView":20,
			"componentType":5126,
			"count":4,
			"max":[
				5.8851165771484375,
				0.19424819946289062,
				0
			],
			"min":[
				0.14125442504882812,
				0.194244384765625,
				-4.292568206787109
			],
			"type":"VEC3"
		},
		{
			"bufferView":21,
			"componentType":5126,
			"count":4,
			"type":"VEC3"
		},
		{
			"bufferView":22,
			"componentType":5126,
			"count":4,
			"type":"VEC2"
		},
		{
			"bufferView":23,
			"componentType":5126,
			"count":4,
			"type":"VEC2"
		},
		{
			"bufferView":24,
			"componentType":5123,
			"count":6,
			"type":"SCALAR"
		},
		{
			"bufferView":25,
			"componentType":5126,
			"count":4,
			"max":[
				-0.5572586059570312,
				0.19424819946289062,
				0.00113677978515625
			],
			"min":[
				-2.1739883422851562,
				0.194244384765625,
				-3.1383209228515625
			],
			"type":"VEC3"
		},
		{
			"bufferView":26,
			"componentType":5126,
			"count":4,
			"type":"VEC3"
		},
		{
			"bufferView":27,
			"componentType":5126,
			"count":4,
			"type":"VEC2"
		},
		{
			"bufferView":28,
			"componentType":5126,
			"count":4,
			"type":"VEC2"
		},
		{
			"bufferView":29,
			"componentType":5126,
			"count":4,
			"max":[
				-4.71563720703125,
				0.19424819946289062,
				-1.2987213134765625
			],
			"min":[
				-5.653984069824219,
				0.194244384765625,
				-2.580768585205078
			],
			"type":"VEC3"
		},
		{
			"bufferView":30,
			"componentType":5126,
			"count":4,
			"type":"VEC3"
		},
		{
			"bufferView":31,
			"componentType":5126,
			"count":4,
			"type":"VEC2"
		},
		{
			"bufferView":32,
			"componentType":5126,
			"count":4,
			"type":"VEC2"
		},
		{
			"bufferView":33,
			"componentType":5126,
			"count":8,
			"max":[
				-7.166355133056641,
				6.568748474121094,
				-6.585140228271484
			],
			"min":[
				-7.845485687255859,
				4.431247711181641,
				-8.722640991210938
			],
			"type":"VEC3"
		},
		{
			"bufferView":34,
			"componentType":5126,
			"count":8,
			"type":"VEC3"
		},
		{
			"bufferView":35,
			"componentType":5126,
			"count":8,
			"type":"VEC2"
		},
		{
			"bufferView":36,
			"componentType":5126,
			"count":8,
			"type":"VEC2"
		},
		{
			"bufferView":37,
			"componentType":5123,
			"count":12,
			"type":"SCALAR"
		},
		{
			"bufferView":38,
			"componentType":5126,
			"count":4,
			"max":[
				0.5,
				0,
				0.5
			],
			"min":[
				-0.5,
				0,
				-0.5
			],
			"type":"VEC3"
		},
		{
			"bufferView":39,
			"componentType":5126,
			"count":4,
			"type":"VEC3"
		},
		{
			"bufferView":40,
			"componentType":5126,
			"count":4,
			"type":"VEC2"
		},
		{
			"bufferView":41,
			"componentType":5123,
			"count":6,
			"type":"SCALAR"
		}
	],
	"bufferViews":[
		{
			"buffer":0,
			"byteLength":624,
			"byteOffset":0,
			"target":34962
		},
		{
			"buffer":0,
			"byteLength":624,
			"byteOffset":624,
			"target":34962
		},
		{
			"buffer":0,
			"byteLength":416,
			"byteOffset":1248,
			"target":34962
		},
		{
			"buffer":0,
			"byteLength":416,
			"byteOffset":1664,
			"target":34962
		},
		{
			"buffer":0,
			"byteLength":204,
			"byteOffset":2080,
			"target":34963
		},
		{
			"buffer":0,
			"byteLength":384,
			"byteOffset":2284,
			"target":34962
		},
		{
			"buffer":0,
			"byteLength":384,
			"byteOffset":2668,
			"target":34962
		},
		{
			"buffer":0,
			"byteLength":256,
			"byteOffset":3052,
			"target":34962
		},
		{
			"buffer":0,
			"byteLength":256,
			"byteOffset":3308,
			"target":34962
		},
		{
			"buffer":0,
			"byteLength":96,
			"byteOffset":3564,
			"target":34963
		},
		{
			"buffer":0,
			"byteLength":144,
			"byteOffset":3660,
			"target":34962
		},
		{
			"buffer":0,
			"byteLength":144,
			"byteOffset":3804,
			"target":34962
		},
		{
			"buffer":0,
			"byteLength":96,
			"byteOffset":3948,
			"target":34962
		},
		{
			"buffer":0,
			"byteLength":96,
			"byteOffset":4044,
			"target":34962
		},
		{
			"buffer":0,
			"byteLength":36,
			"byteOffset":4140,
			"target":34963
		},
		{
			"buffer":0,
			"byteLength":144,
			"byteOffset":4176,
			"target":34962
		},
		{
			"buffer":0,
			"byteLength":144,
			"byteOffset":4320,
			"target":34962
		},
		{
			"buffer":0,
			"byteLength":96,
			"byteOffset":4464,
			"target":34962
		},
		{
			"buffer":0,
			"byteLength":96,
			"byteOffset":4560,
			"target":34962
		},
		{
			"buffer":0,
			"byteLength":36,
			"byteOffset":4656,
			"target":34963
		},
		{
			"buffer":0,
			"byteLength":48,
			"byteOffset":4692,
			"target":34962
		},
		{
			"buffer":0,
			"byteLength":48,
			"byteOffset":4740,
			"target":34962
		},
		{
			"buffer":0,
			"byteLength":32,
			"byteOffset":4788,
			"target":34962
		},
		{
			"buffer":0,
			"byteLength":32,
			"byteOffset":4820,
			"target":34962
		},
		{
			"buffer":0,
			"byteLength":12,
			"byteOffset":4852,
			"target":34963
		},
		{
			"buffer":0,
			"byteLength":48,
			"byteOffset":4864,
			"target":34962
		},
		{
			"buffer":0,
			"byteLength":48,
			"byteOffset":4912,
			"target":34962
		},
		{
			"buffer":0,
			"byteLength":32,
			"byteOffset":4960,
			"target":34962
		},
		{
			"buffer":0,
			"byteLength":32,
			"byteOffset":4992,
			"target":34962
		},
		{
			"buffer":0,
			"byteLength":48,
			"byteOffset":5024,
			"target":34962
		},
		{
			"buffer":0,
			"byteLength":48,
			"byteOffset":5072,
			"target":34962
		},
		{
			"buffer":0,
			"byteLength":32,
			"byteOffset":5120,
			"target":34962
		},
		{
			"buffer":0,
			"byteLength":32,
			"byteOffset":5152,
			"target":34962
		},
		{
			"buffer":0,
			"byteLength":96,
			"byteOffset":5184,
			"target":34962
		},
		{
			"buffer":0,
			"byteLength":96,
			"byteOffset":5280,
			"target":34962
		},
		{
			"buffer":0,
			"byteLength":64,
			"byteOffset":5376,
			"target":34962
		},
		{
			"buffer":0,
			"byteLength":64,
			"byteOffset":5440,
			"target":34962
		},
		{
			"buffer":0,
			"byteLength":24,
			"byteOffset":5504,
			"target":34963
		},
		{
			"buffer":0,
			"byteLength":48,
			"byteOffset":5528,
			"target":34962
		},
		{
			"buffer":0,
			"byteLength":48,
			"byteOffset":5576,
			"target":34962
		},
		{
			"buffer":0,
			"byteLength":32,
			"byteOffset":5624,
			"target":34962
		},
		{
			"buffer":0,
			"byteLength":12,
			"byteOffset":5656,
			"target":34963
		}
	],
	"samplers":[
		{
			"magFilter":9729,
			"minFilter":9987
		}
	],
	"buffers":[
		{
			"byteLength":5668,
			"uri":"gas_1.bin"
		}
	]
}
