{
	"asset":{
		"generator":"Khronos glTF Blender I/O v4.3.47",
		"version":"2.0"
	},
	"scene":0,
	"scenes":[
		{
			"name":"Scene",
			"nodes":[
				0,
				1
			]
		}
	],
	"nodes":[
		{
			"mesh":0,
			"name":"Maxis-3d1-mesh-50-hospital",
			"rotation":[
				0.70710688829422,
				0,
				0,
				0.7071066498756409
			]
		},
		{
			"extras":{
				"gd_node":"Decal",
				"lower_fade":9,
				"upper_fade":10
			},
			"mesh":1,
			"name":"Ground_AO",
			"scale":[
				44.69915771484375,
				1,
				35.06584930419922
			],
			"translation":[
				0,
				-6.103220584918745e-06,
				0
			]
		}
	],
	"materials":[
		{
			"name":"mat39-3",
			"occlusionTexture":{
				"index":0,
				"texCoord":1
			},
			"pbrMetallicRoughness":{
				"baseColorTexture":{
					"index":1
				},
				"metallicFactor":0
			}
		},
		{
			"name":"mat39-0",
			"occlusionTexture":{
				"index":2,
				"texCoord":1
			},
			"pbrMetallicRoughness":{
				"baseColorTexture":{
					"index":3
				},
				"metallicFactor":0
			}
		},
		{
			"name":"mat39-1",
			"occlusionTexture":{
				"index":4,
				"texCoord":1
			},
			"pbrMetallicRoughness":{
				"baseColorTexture":{
					"index":5
				},
				"metallicFactor":0
			}
		},
		{
			"name":"mat39-2",
			"occlusionTexture":{
				"index":6,
				"texCoord":1
			},
			"pbrMetallicRoughness":{
				"baseColorTexture":{
					"index":7
				},
				"metallicFactor":0
			}
		},
		{
			"name":"matcolour-48.003",
			"occlusionTexture":{
				"index":8,
				"texCoord":1
			},
			"pbrMetallicRoughness":{
				"baseColorFactor":[
					0.05882352963089943,
					0.05882352963089943,
					0.05882352963089943,
					1
				],
				"metallicFactor":0
			}
		},
		{
			"name":"mat2-9",
			"occlusionTexture":{
				"index":9,
				"texCoord":1
			},
			"pbrMetallicRoughness":{
				"baseColorTexture":{
					"index":10
				},
				"metallicFactor":0
			}
		},
		{
			"name":"matcolour-160",
			"occlusionTexture":{
				"index":11,
				"texCoord":1
			},
			"pbrMetallicRoughness":{
				"baseColorFactor":[
					0.019607843831181526,
					0.16470588743686676,
					0.14509804546833038,
					1
				],
				"metallicFactor":0
			}
		},
		{
			"name":"Ground_AO",
			"occlusionTexture":{
				"index":12
			},
			"pbrMetallicRoughness":{
				"baseColorFactor":[
					0.800000011920929,
					0.800000011920929,
					0.800000011920929,
					1
				],
				"metallicFactor":0,
				"roughnessFactor":0.5
			}
		}
	],
	"meshes":[
		{
			"name":"Maxis-3d1-mesh-50-hospital",
			"primitives":[
				{
					"attributes":{
						"POSITION":0,
						"NORMAL":1,
						"TEXCOORD_0":2,
						"TEXCOORD_1":3
					},
					"indices":4,
					"material":0
				},
				{
					"attributes":{
						"POSITION":5,
						"NORMAL":6,
						"TEXCOORD_0":7,
						"TEXCOORD_1":8
					},
					"indices":9,
					"material":1
				},
				{
					"attributes":{
						"POSITION":10,
						"NORMAL":11,
						"TEXCOORD_0":12,
						"TEXCOORD_1":13
					},
					"indices":14,
					"material":2
				},
				{
					"attributes":{
						"POSITION":15,
						"NORMAL":16,
						"TEXCOORD_0":17,
						"TEXCOORD_1":18
					},
					"indices":19,
					"material":3
				},
				{
					"attributes":{
						"POSITION":20,
						"NORMAL":21,
						"TEXCOORD_0":22,
						"TEXCOORD_1":23
					},
					"indices":24,
					"material":4
				},
				{
					"attributes":{
						"POSITION":25,
						"NORMAL":26,
						"TEXCOORD_0":27,
						"TEXCOORD_1":28
					},
					"indices":29,
					"material":5
				},
				{
					"attributes":{
						"POSITION":30,
						"NORMAL":31,
						"TEXCOORD_0":32,
						"TEXCOORD_1":33
					},
					"indices":34,
					"material":6
				}
			]
		},
		{
			"name":"Plane",
			"primitives":[
				{
					"attributes":{
						"POSITION":35,
						"NORMAL":36,
						"TEXCOORD_0":37
					},
					"indices":38,
					"material":7
				}
			]
		}
	],
	"textures":[
		{
			"sampler":0,
			"source":0
		},
		{
			"sampler":0,
			"source":1
		},
		{
			"sampler":0,
			"source":0
		},
		{
			"sampler":0,
			"source":2
		},
		{
			"sampler":0,
			"source":0
		},
		{
			"sampler":0,
			"source":3
		},
		{
			"sampler":0,
			"source":0
		},
		{
			"sampler":0,
			"source":4
		},
		{
			"sampler":0,
			"source":0
		},
		{
			"sampler":0,
			"source":0
		},
		{
			"sampler":0,
			"source":5
		},
		{
			"sampler":0,
			"source":0
		},
		{
			"sampler":0,
			"source":6
		}
	],
	"images":[
		{
			"mimeType":"image/png",
			"name":"hospital.png",
			"uri":"../../../Textures/ambient_occlusion/Buildings/Station/hospital.png"
		},
		{
			"mimeType":"image/png",
			"name":"tex39-3",
			"uri":"../../../Textures/tex39-3.png"
		},
		{
			"mimeType":"image/png",
			"name":"tex39-0",
			"uri":"../../../Textures/tex39-0.png"
		},
		{
			"mimeType":"image/png",
			"name":"tex39-1",
			"uri":"../../../Textures/tex39-1.png"
		},
		{
			"mimeType":"image/png",
			"name":"tex39-2",
			"uri":"../../../Textures/tex39-2.png"
		},
		{
			"mimeType":"image/png",
			"name":"tex2-9",
			"uri":"../../../Textures/tex2-9.png"
		},
		{
			"mimeType":"image/png",
			"name":"hospital_ground.png",
			"uri":"../../../Textures/ambient_occlusion/Buildings/Station/hospital_ground.png"
		}
	],
	"accessors":[
		{
			"bufferView":0,
			"componentType":5126,
			"count":24,
			"max":[
				21.849578857421875,
				17.032920837402344,
				0
			],
			"min":[
				-21.849578857421875,
				11.84896469116211,
				-52.823028564453125
			],
			"type":"VEC3"
		},
		{
			"bufferView":1,
			"componentType":5126,
			"count":24,
			"type":"VEC3"
		},
		{
			"bufferView":2,
			"componentType":5126,
			"count":24,
			"type":"VEC2"
		},
		{
			"bufferView":3,
			"componentType":5126,
			"count":24,
			"type":"VEC2"
		},
		{
			"bufferView":4,
			"componentType":5123,
			"count":42,
			"type":"SCALAR"
		},
		{
			"bufferView":5,
			"componentType":5126,
			"count":22,
			"max":[
				21.849578857421875,
				-11.84897232055664,
				3.814697265625e-06
			],
			"min":[
				-21.849578857421875,
				-17.03292465209961,
				-52.823028564453125
			],
			"type":"VEC3"
		},
		{
			"bufferView":6,
			"componentType":5126,
			"count":22,
			"type":"VEC3"
		},
		{
			"bufferView":7,
			"componentType":5126,
			"count":22,
			"type":"VEC2"
		},
		{
			"bufferView":8,
			"componentType":5126,
			"count":22,
			"type":"VEC2"
		},
		{
			"bufferView":9,
			"componentType":5123,
			"count":42,
			"type":"SCALAR"
		},
		{
			"bufferView":10,
			"componentType":5126,
			"count":18,
			"max":[
				-16.6656494140625,
				17.032920837402344,
				3.814697265625e-06
			],
			"min":[
				-21.849578857421875,
				-17.03292465209961,
				-52.823028564453125
			],
			"type":"VEC3"
		},
		{
			"bufferView":11,
			"componentType":5126,
			"count":18,
			"type":"VEC3"
		},
		{
			"bufferView":12,
			"componentType":5126,
			"count":18,
			"type":"VEC2"
		},
		{
			"bufferView":13,
			"componentType":5126,
			"count":18,
			"type":"VEC2"
		},
		{
			"bufferView":14,
			"componentType":5123,
			"count":36,
			"type":"SCALAR"
		},
		{
			"bufferView":15,
			"componentType":5126,
			"count":20,
			"max":[
				21.849578857421875,
				17.032920837402344,
				3.814697265625e-06
			],
			"min":[
				7.032314300537109,
				-17.03292465209961,
				-52.823028564453125
			],
			"type":"VEC3"
		},
		{
			"bufferView":16,
			"componentType":5126,
			"count":20,
			"type":"VEC3"
		},
		{
			"bufferView":17,
			"componentType":5126,
			"count":20,
			"type":"VEC2"
		},
		{
			"bufferView":18,
			"componentType":5126,
			"count":20,
			"type":"VEC2"
		},
		{
			"bufferView":19,
			"componentType":5123,
			"count":36,
			"type":"SCALAR"
		},
		{
			"bufferView":20,
			"componentType":5126,
			"count":22,
			"max":[
				21.849578857421875,
				17.03289794921875,
				-26.411510467529297
			],
			"min":[
				-21.849578857421875,
				-17.03292465209961,
				-52.823028564453125
			],
			"type":"VEC3"
		},
		{
			"bufferView":21,
			"componentType":5126,
			"count":22,
			"type":"VEC3"
		},
		{
			"bufferView":22,
			"componentType":5126,
			"count":22,
			"type":"VEC2"
		},
		{
			"bufferView":23,
			"componentType":5126,
			"count":22,
			"type":"VEC2"
		},
		{
			"bufferView":24,
			"componentType":5123,
			"count":54,
			"type":"SCALAR"
		},
		{
			"bufferView":25,
			"componentType":5126,
			"count":4,
			"max":[
				5.166099548339844,
				9.98275375366211,
				-53.13734817504883
			],
			"min":[
				-14.799434661865234,
				-9.982776641845703,
				-53.13734817504883
			],
			"type":"VEC3"
		},
		{
			"bufferView":26,
			"componentType":5126,
			"count":4,
			"type":"VEC3"
		},
		{
			"bufferView":27,
			"componentType":5126,
			"count":4,
			"type":"VEC2"
		},
		{
			"bufferView":28,
			"componentType":5126,
			"count":4,
			"type":"VEC2"
		},
		{
			"bufferView":29,
			"componentType":5123,
			"count":6,
			"type":"SCALAR"
		},
		{
			"bufferView":30,
			"componentType":5126,
			"count":16,
			"max":[
				5.166099548339844,
				9.98275375366211,
				-52.823028564453125
			],
			"min":[
				-14.799434661865234,
				-9.982780456542969,
				-53.13734817504883
			],
			"type":"VEC3"
		},
		{
			"bufferView":31,
			"componentType":5126,
			"count":16,
			"type":"VEC3"
		},
		{
			"bufferView":32,
			"componentType":5126,
			"count":16,
			"type":"VEC2"
		},
		{
			"bufferView":33,
			"componentType":5126,
			"count":16,
			"type":"VEC2"
		},
		{
			"bufferView":34,
			"componentType":5123,
			"count":24,
			"type":"SCALAR"
		},
		{
			"bufferView":35,
			"componentType":5126,
			"count":4,
			"max":[
				0.5,
				0,
				0.5
			],
			"min":[
				-0.5,
				0,
				-0.5
			],
			"type":"VEC3"
		},
		{
			"bufferView":36,
			"componentType":5126,
			"count":4,
			"type":"VEC3"
		},
		{
			"bufferView":37,
			"componentType":5126,
			"count":4,
			"type":"VEC2"
		},
		{
			"bufferView":38,
			"componentType":5123,
			"count":6,
			"type":"SCALAR"
		}
	],
	"bufferViews":[
		{
			"buffer":0,
			"byteLength":288,
			"byteOffset":0,
			"target":34962
		},
		{
			"buffer":0,
			"byteLength":288,
			"byteOffset":288,
			"target":34962
		},
		{
			"buffer":0,
			"byteLength":192,
			"byteOffset":576,
			"target":34962
		},
		{
			"buffer":0,
			"byteLength":192,
			"byteOffset":768,
			"target":34962
		},
		{
			"buffer":0,
			"byteLength":84,
			"byteOffset":960,
			"target":34963
		},
		{
			"buffer":0,
			"byteLength":264,
			"byteOffset":1044,
			"target":34962
		},
		{
			"buffer":0,
			"byteLength":264,
			"byteOffset":1308,
			"target":34962
		},
		{
			"buffer":0,
			"byteLength":176,
			"byteOffset":1572,
			"target":34962
		},
		{
			"buffer":0,
			"byteLength":176,
			"byteOffset":1748,
			"target":34962
		},
		{
			"buffer":0,
			"byteLength":84,
			"byteOffset":1924,
			"target":34963
		},
		{
			"buffer":0,
			"byteLength":216,
			"byteOffset":2008,
			"target":34962
		},
		{
			"buffer":0,
			"byteLength":216,
			"byteOffset":2224,
			"target":34962
		},
		{
			"buffer":0,
			"byteLength":144,
			"byteOffset":2440,
			"target":34962
		},
		{
			"buffer":0,
			"byteLength":144,
			"byteOffset":2584,
			"target":34962
		},
		{
			"buffer":0,
			"byteLength":72,
			"byteOffset":2728,
			"target":34963
		},
		{
			"buffer":0,
			"byteLength":240,
			"byteOffset":2800,
			"target":34962
		},
		{
			"buffer":0,
			"byteLength":240,
			"byteOffset":3040,
			"target":34962
		},
		{
			"buffer":0,
			"byteLength":160,
			"byteOffset":3280,
			"target":34962
		},
		{
			"buffer":0,
			"byteLength":160,
			"byteOffset":3440,
			"target":34962
		},
		{
			"buffer":0,
			"byteLength":72,
			"byteOffset":3600,
			"target":34963
		},
		{
			"buffer":0,
			"byteLength":264,
			"byteOffset":3672,
			"target":34962
		},
		{
			"buffer":0,
			"byteLength":264,
			"byteOffset":3936,
			"target":34962
		},
		{
			"buffer":0,
			"byteLength":176,
			"byteOffset":4200,
			"target":34962
		},
		{
			"buffer":0,
			"byteLength":176,
			"byteOffset":4376,
			"target":34962
		},
		{
			"buffer":0,
			"byteLength":108,
			"byteOffset":4552,
			"target":34963
		},
		{
			"buffer":0,
			"byteLength":48,
			"byteOffset":4660,
			"target":34962
		},
		{
			"buffer":0,
			"byteLength":48,
			"byteOffset":4708,
			"target":34962
		},
		{
			"buffer":0,
			"byteLength":32,
			"byteOffset":4756,
			"target":34962
		},
		{
			"buffer":0,
			"byteLength":32,
			"byteOffset":4788,
			"target":34962
		},
		{
			"buffer":0,
			"byteLength":12,
			"byteOffset":4820,
			"target":34963
		},
		{
			"buffer":0,
			"byteLength":192,
			"byteOffset":4832,
			"target":34962
		},
		{
			"buffer":0,
			"byteLength":192,
			"byteOffset":5024,
			"target":34962
		},
		{
			"buffer":0,
			"byteLength":128,
			"byteOffset":5216,
			"target":34962
		},
		{
			"buffer":0,
			"byteLength":128,
			"byteOffset":5344,
			"target":34962
		},
		{
			"buffer":0,
			"byteLength":48,
			"byteOffset":5472,
			"target":34963
		},
		{
			"buffer":0,
			"byteLength":48,
			"byteOffset":5520,
			"target":34962
		},
		{
			"buffer":0,
			"byteLength":48,
			"byteOffset":5568,
			"target":34962
		},
		{
			"buffer":0,
			"byteLength":32,
			"byteOffset":5616,
			"target":34962
		},
		{
			"buffer":0,
			"byteLength":12,
			"byteOffset":5648,
			"target":34963
		}
	],
	"samplers":[
		{
			"magFilter":9729,
			"minFilter":9987
		}
	],
	"buffers":[
		{
			"byteLength":5660,
			"uri":"hospital.bin"
		}
	]
}
