{
    "asset" : {
        "generator" : "Khronos glTF Blender I/O v1.7.33",
        "version" : "2.0"
    },
    "scene" : 0,
    "scenes" : [
        {
            "name" : "Scene",
            "nodes" : [
                0
            ]
        }
    ],
    "nodes" : [
        {
            "mesh" : 0,
            "name" : "Maxis-3d1-mesh-1",
            "rotation" : [
                0.7071068286895752,
                0,
                0,
                0.7071067094802856
            ]
        }
    ],
    "materials" : [
        {
            "doubleSided" : true,
            "name" : "matcolour-160.002",
            "pbrMetallicRoughness" : {
                "baseColorFactor" : [
                    0.019607843831181526,
                    0.16470588743686676,
                    0.14509804546833038,
                    1
                ],
                "metallicFactor" : 0
            }
        },
        {
            "doubleSided" : true,
            "name" : "mat2-42.001",
            "pbrMetallicRoughness" : {
                "baseColorTexture" : {
                    "index" : 0
                },
                "metallicFactor" : 0
            }
        },
        {
            "doubleSided" : true,
            "name" : "matcolour-48.002",
            "pbrMetallicRoughness" : {
                "baseColorFactor" : [
                    0.05882352963089943,
                    0.05882352963089943,
                    0.05882352963089943,
                    1
                ],
                "metallicFactor" : 0
            }
        },
        {
            "doubleSided" : true,
            "name" : "mat2-60",
            "pbrMetallicRoughness" : {
                "baseColorTexture" : {
                    "index" : 1
                },
                "metallicFactor" : 0
            }
        },
        {
            "doubleSided" : true,
            "name" : "mat2-63.001",
            "pbrMetallicRoughness" : {
                "baseColorTexture" : {
                    "index" : 2
                },
                "metallicFactor" : 0
            }
        },
        {
            "doubleSided" : true,
            "name" : "mat2-61",
            "pbrMetallicRoughness" : {
                "baseColorTexture" : {
                    "index" : 3
                },
                "metallicFactor" : 0
            }
        },
        {
            "doubleSided" : true,
            "name" : "mat2-62",
            "pbrMetallicRoughness" : {
                "baseColorTexture" : {
                    "index" : 4
                },
                "metallicFactor" : 0
            }
        },
        {
            "doubleSided" : true,
            "name" : "mat2-8",
            "pbrMetallicRoughness" : {
                "baseColorTexture" : {
                    "index" : 5
                },
                "metallicFactor" : 0
            }
        }
    ],
    "meshes" : [
        {
            "name" : "Maxis-3d1-mesh-1",
            "primitives" : [
                {
                    "attributes" : {
                        "POSITION" : 0,
                        "NORMAL" : 1,
                        "TEXCOORD_0" : 2
                    },
                    "indices" : 3,
                    "material" : 0
                },
                {
                    "attributes" : {
                        "POSITION" : 4,
                        "NORMAL" : 5,
                        "TEXCOORD_0" : 6
                    },
                    "indices" : 7,
                    "material" : 1
                },
                {
                    "attributes" : {
                        "POSITION" : 8,
                        "NORMAL" : 9,
                        "TEXCOORD_0" : 10
                    },
                    "indices" : 11,
                    "material" : 2
                },
                {
                    "attributes" : {
                        "POSITION" : 12,
                        "NORMAL" : 13,
                        "TEXCOORD_0" : 14
                    },
                    "indices" : 15,
                    "material" : 3
                },
                {
                    "attributes" : {
                        "POSITION" : 16,
                        "NORMAL" : 17,
                        "TEXCOORD_0" : 18
                    },
                    "indices" : 19,
                    "material" : 4
                },
                {
                    "attributes" : {
                        "POSITION" : 20,
                        "NORMAL" : 21,
                        "TEXCOORD_0" : 22
                    },
                    "indices" : 23,
                    "material" : 5
                },
                {
                    "attributes" : {
                        "POSITION" : 24,
                        "NORMAL" : 25,
                        "TEXCOORD_0" : 26
                    },
                    "indices" : 27,
                    "material" : 6
                },
                {
                    "attributes" : {
                        "POSITION" : 28,
                        "NORMAL" : 29,
                        "TEXCOORD_0" : 30
                    },
                    "indices" : 31,
                    "material" : 7
                }
            ]
        }
    ],
    "textures" : [
        {
            "sampler" : 0,
            "source" : 0
        },
        {
            "sampler" : 0,
            "source" : 1
        },
        {
            "sampler" : 0,
            "source" : 2
        },
        {
            "sampler" : 0,
            "source" : 3
        },
        {
            "sampler" : 0,
            "source" : 4
        },
        {
            "sampler" : 0,
            "source" : 5
        }
    ],
    "images" : [
        {
            "mimeType" : "image/png",
            "name" : "tex2-42",
            "uri" : "../../../Textures/tex2-42.png"
        },
        {
            "mimeType" : "image/png",
            "name" : "tex2-60",
            "uri" : "../../../Textures/tex2-60.png"
        },
        {
            "mimeType" : "image/png",
            "name" : "tex2-63",
            "uri" : "../../../Textures/tex2-63.png"
        },
        {
            "mimeType" : "image/png",
            "name" : "tex2-61",
            "uri" : "../../../Textures/tex2-61.png"
        },
        {
            "mimeType" : "image/png",
            "name" : "tex2-62",
            "uri" : "../../../Textures/tex2-62.png"
        },
        {
            "mimeType" : "image/png",
            "name" : "tex2-8",
            "uri" : "../../../Textures/tex2-8.png"
        }
    ],
    "accessors" : [
        {
            "bufferView" : 0,
            "componentType" : 5126,
            "count" : 46,
            "max" : [
                11.999626159667969,
                11.249645233154297,
                -42.86264419555664
            ],
            "min" : [
                -11.999626159667969,
                -11.249652862548828,
                -43.3739013671875
            ],
            "type" : "VEC3"
        },
        {
            "bufferView" : 1,
            "componentType" : 5126,
            "count" : 46,
            "type" : "VEC3"
        },
        {
            "bufferView" : 2,
            "componentType" : 5126,
            "count" : 46,
            "type" : "VEC2"
        },
        {
            "bufferView" : 3,
            "componentType" : 5123,
            "count" : 48,
            "type" : "SCALAR"
        },
        {
            "bufferView" : 4,
            "componentType" : 5126,
            "count" : 4,
            "max" : [
                11.681846618652344,
                11.337093353271484,
                -0.01087188720703125
            ],
            "min" : [
                -11.097755432128906,
                11.337089538574219,
                -3.9272193908691406
            ],
            "type" : "VEC3"
        },
        {
            "bufferView" : 5,
            "componentType" : 5126,
            "count" : 4,
            "type" : "VEC3"
        },
        {
            "bufferView" : 6,
            "componentType" : 5126,
            "count" : 4,
            "type" : "VEC2"
        },
        {
            "bufferView" : 7,
            "componentType" : 5123,
            "count" : 6,
            "type" : "SCALAR"
        },
        {
            "bufferView" : 8,
            "componentType" : 5126,
            "count" : 24,
            "max" : [
                22.499298095703125,
                16.49948501586914,
                -18.200817108154297
            ],
            "min" : [
                -22.499298095703125,
                -22.499298095703125,
                -18.200824737548828
            ],
            "type" : "VEC3"
        },
        {
            "bufferView" : 9,
            "componentType" : 5126,
            "count" : 24,
            "type" : "VEC3"
        },
        {
            "bufferView" : 10,
            "componentType" : 5126,
            "count" : 24,
            "type" : "VEC2"
        },
        {
            "bufferView" : 11,
            "componentType" : 5123,
            "count" : 24,
            "type" : "SCALAR"
        },
        {
            "bufferView" : 12,
            "componentType" : 5126,
            "count" : 12,
            "max" : [
                22.499298095703125,
                -11.249649047851562,
                1.1444091796875e-05
            ],
            "min" : [
                -22.499298095703125,
                -22.499298095703125,
                -42.86265182495117
            ],
            "type" : "VEC3"
        },
        {
            "bufferView" : 13,
            "componentType" : 5126,
            "count" : 12,
            "type" : "VEC3"
        },
        {
            "bufferView" : 14,
            "componentType" : 5126,
            "count" : 12,
            "type" : "VEC2"
        },
        {
            "bufferView" : 15,
            "componentType" : 5123,
            "count" : 12,
            "type" : "SCALAR"
        },
        {
            "bufferView" : 16,
            "componentType" : 5126,
            "count" : 22,
            "max" : [
                22.499298095703125,
                16.499492645263672,
                0
            ],
            "min" : [
                -22.499298095703125,
                8.249744415283203,
                -42.86265182495117
            ],
            "type" : "VEC3"
        },
        {
            "bufferView" : 17,
            "componentType" : 5126,
            "count" : 22,
            "type" : "VEC3"
        },
        {
            "bufferView" : 18,
            "componentType" : 5126,
            "count" : 22,
            "type" : "VEC2"
        },
        {
            "bufferView" : 19,
            "componentType" : 5123,
            "count" : 24,
            "type" : "SCALAR"
        },
        {
            "bufferView" : 20,
            "componentType" : 5126,
            "count" : 12,
            "max" : [
                -11.999626159667969,
                16.499492645263672,
                1.1444091796875e-05
            ],
            "min" : [
                -22.499298095703125,
                -22.499298095703125,
                -42.86265182495117
            ],
            "type" : "VEC3"
        },
        {
            "bufferView" : 21,
            "componentType" : 5126,
            "count" : 12,
            "type" : "VEC3"
        },
        {
            "bufferView" : 22,
            "componentType" : 5126,
            "count" : 12,
            "type" : "VEC2"
        },
        {
            "bufferView" : 23,
            "componentType" : 5123,
            "count" : 12,
            "type" : "SCALAR"
        },
        {
            "bufferView" : 24,
            "componentType" : 5126,
            "count" : 24,
            "max" : [
                22.499298095703125,
                16.499492645263672,
                1.1444091796875e-05
            ],
            "min" : [
                -11.249649047851562,
                -22.499298095703125,
                -42.86265182495117
            ],
            "type" : "VEC3"
        },
        {
            "bufferView" : 25,
            "componentType" : 5126,
            "count" : 24,
            "type" : "VEC3"
        },
        {
            "bufferView" : 26,
            "componentType" : 5126,
            "count" : 24,
            "type" : "VEC2"
        },
        {
            "bufferView" : 27,
            "componentType" : 5123,
            "count" : 24,
            "type" : "SCALAR"
        },
        {
            "bufferView" : 28,
            "componentType" : 5126,
            "count" : 4,
            "max" : [
                8.798637390136719,
                7.673164367675781,
                -43.3739013671875
            ],
            "min" : [
                -7.9639434814453125,
                -9.08941650390625,
                -43.3739013671875
            ],
            "type" : "VEC3"
        },
        {
            "bufferView" : 29,
            "componentType" : 5126,
            "count" : 4,
            "type" : "VEC3"
        },
        {
            "bufferView" : 30,
            "componentType" : 5126,
            "count" : 4,
            "type" : "VEC2"
        },
        {
            "bufferView" : 31,
            "componentType" : 5123,
            "count" : 6,
            "type" : "SCALAR"
        }
    ],
    "bufferViews" : [
        {
            "buffer" : 0,
            "byteLength" : 552,
            "byteOffset" : 0
        },
        {
            "buffer" : 0,
            "byteLength" : 552,
            "byteOffset" : 552
        },
        {
            "buffer" : 0,
            "byteLength" : 368,
            "byteOffset" : 1104
        },
        {
            "buffer" : 0,
            "byteLength" : 96,
            "byteOffset" : 1472
        },
        {
            "buffer" : 0,
            "byteLength" : 48,
            "byteOffset" : 1568
        },
        {
            "buffer" : 0,
            "byteLength" : 48,
            "byteOffset" : 1616
        },
        {
            "buffer" : 0,
            "byteLength" : 32,
            "byteOffset" : 1664
        },
        {
            "buffer" : 0,
            "byteLength" : 12,
            "byteOffset" : 1696
        },
        {
            "buffer" : 0,
            "byteLength" : 288,
            "byteOffset" : 1708
        },
        {
            "buffer" : 0,
            "byteLength" : 288,
            "byteOffset" : 1996
        },
        {
            "buffer" : 0,
            "byteLength" : 192,
            "byteOffset" : 2284
        },
        {
            "buffer" : 0,
            "byteLength" : 48,
            "byteOffset" : 2476
        },
        {
            "buffer" : 0,
            "byteLength" : 144,
            "byteOffset" : 2524
        },
        {
            "buffer" : 0,
            "byteLength" : 144,
            "byteOffset" : 2668
        },
        {
            "buffer" : 0,
            "byteLength" : 96,
            "byteOffset" : 2812
        },
        {
            "buffer" : 0,
            "byteLength" : 24,
            "byteOffset" : 2908
        },
        {
            "buffer" : 0,
            "byteLength" : 264,
            "byteOffset" : 2932
        },
        {
            "buffer" : 0,
            "byteLength" : 264,
            "byteOffset" : 3196
        },
        {
            "buffer" : 0,
            "byteLength" : 176,
            "byteOffset" : 3460
        },
        {
            "buffer" : 0,
            "byteLength" : 48,
            "byteOffset" : 3636
        },
        {
            "buffer" : 0,
            "byteLength" : 144,
            "byteOffset" : 3684
        },
        {
            "buffer" : 0,
            "byteLength" : 144,
            "byteOffset" : 3828
        },
        {
            "buffer" : 0,
            "byteLength" : 96,
            "byteOffset" : 3972
        },
        {
            "buffer" : 0,
            "byteLength" : 24,
            "byteOffset" : 4068
        },
        {
            "buffer" : 0,
            "byteLength" : 288,
            "byteOffset" : 4092
        },
        {
            "buffer" : 0,
            "byteLength" : 288,
            "byteOffset" : 4380
        },
        {
            "buffer" : 0,
            "byteLength" : 192,
            "byteOffset" : 4668
        },
        {
            "buffer" : 0,
            "byteLength" : 48,
            "byteOffset" : 4860
        },
        {
            "buffer" : 0,
            "byteLength" : 48,
            "byteOffset" : 4908
        },
        {
            "buffer" : 0,
            "byteLength" : 48,
            "byteOffset" : 4956
        },
        {
            "buffer" : 0,
            "byteLength" : 32,
            "byteOffset" : 5004
        },
        {
            "buffer" : 0,
            "byteLength" : 12,
            "byteOffset" : 5036
        }
    ],
    "samplers" : [
        {
            "magFilter" : 9729,
            "minFilter" : 9987
        }
    ],
    "buffers" : [
        {
            "byteLength" : 5048,
            "uri" : "police.bin"
        }
    ]
}
