{
	"asset":{
		"generator":"Khronos glTF Blender I/O v4.1.63",
		"version":"2.0"
	},
	"scene":0,
	"scenes":[
		{
			"name":"Scene",
			"nodes":[
				0
			]
		}
	],
	"nodes":[
		{
			"mesh":0,
			"name":"Maxis-3d1-mesh-1",
			"rotation":[
				0.70710688829422,
				0,
				0,
				0.7071066498756409
			]
		}
	],
	"materials":[
		{
			"doubleSided":true,
			"name":"matcolour-160",
			"pbrMetallicRoughness":{
				"baseColorFactor":[
					0.019607843831181526,
					0.16470588743686676,
					0.14509804546833038,
					1
				],
				"metallicFactor":0
			}
		},
		{
			"doubleSided":true,
			"name":"mat2-42",
			"pbrMetallicRoughness":{
				"baseColorTexture":{
					"index":0
				},
				"metallicFactor":0
			}
		},
		{
			"doubleSided":true,
			"name":"matcolour-48",
			"pbrMetallicRoughness":{
				"baseColorFactor":[
					0.05882352963089943,
					0.05882352963089943,
					0.05882352963089943,
					1
				],
				"metallicFactor":0
			}
		},
		{
			"doubleSided":true,
			"name":"mat2-60",
			"pbrMetallicRoughness":{
				"baseColorTexture":{
					"index":1
				},
				"metallicFactor":0
			}
		},
		{
			"doubleSided":true,
			"name":"mat2-8",
			"pbrMetallicRoughness":{
				"baseColorTexture":{
					"index":2
				},
				"metallicFactor":0
			}
		}
	],
	"meshes":[
		{
			"name":"Maxis-3d1-mesh-1",
			"primitives":[
				{
					"attributes":{
						"POSITION":0,
						"NORMAL":1,
						"TEXCOORD_0":2,
						"TEXCOORD_1":3
					},
					"indices":4,
					"material":0
				},
				{
					"attributes":{
						"POSITION":5,
						"NORMAL":6,
						"TEXCOORD_0":7,
						"TEXCOORD_1":8
					},
					"indices":9,
					"material":1
				},
				{
					"attributes":{
						"POSITION":10,
						"NORMAL":11,
						"TEXCOORD_0":12,
						"TEXCOORD_1":13
					},
					"indices":14,
					"material":2
				},
				{
					"attributes":{
						"POSITION":15,
						"NORMAL":16,
						"TEXCOORD_0":17,
						"TEXCOORD_1":18
					},
					"indices":19,
					"material":3
				},
				{
					"attributes":{
						"POSITION":20,
						"NORMAL":21,
						"TEXCOORD_0":22,
						"TEXCOORD_1":23
					},
					"indices":24,
					"material":3
				},
				{
					"attributes":{
						"POSITION":25,
						"NORMAL":26,
						"TEXCOORD_0":27,
						"TEXCOORD_1":28
					},
					"indices":29,
					"material":3
				},
				{
					"attributes":{
						"POSITION":30,
						"NORMAL":31,
						"TEXCOORD_0":32,
						"TEXCOORD_1":33
					},
					"indices":34,
					"material":3
				},
				{
					"attributes":{
						"POSITION":35,
						"NORMAL":36,
						"TEXCOORD_0":37,
						"TEXCOORD_1":38
					},
					"indices":39,
					"material":4
				}
			]
		}
	],
	"textures":[
		{
			"sampler":0,
			"source":0
		},
		{
			"sampler":0,
			"source":1
		},
		{
			"sampler":0,
			"source":2
		}
	],
	"images":[
		{
			"mimeType":"image/png",
			"name":"tex2-42",
			"uri":"../../../Textures/tex2-42.png"
		},
		{
			"mimeType":"image/png",
			"name":"tex2-60",
			"uri":"../../../Textures/tex2-60.png"
		},
		{
			"mimeType":"image/png",
			"name":"tex2-8",
			"uri":"../../../Textures/tex2-8.png"
		},
		{
			"mimeType":"image/png",
			"name":"police_station_ao",
			"uri":"../../../Textures/police_station_ao.png"
		},
		{
			"mimeType":"image/png",
			"name":"tex2-61",
			"uri":"../../../Textures/tex2-61.png"
		},
		{
			"mimeType":"image/png",
			"name":"tex2-62",
			"uri":"../../../Textures/tex2-62.png"
		},
		{
			"mimeType":"image/png",
			"name":"tex2-63",
			"uri":"../../../Textures/tex2-63.png"
		}
	],
	"accessors":[
		{
			"bufferView":0,
			"componentType":5126,
			"count":48,
			"max":[
				11.999626159667969,
				11.249645233154297,
				-42.86264419555664
			],
			"min":[
				-11.999626159667969,
				-11.249652862548828,
				-43.3739013671875
			],
			"type":"VEC3"
		},
		{
			"bufferView":1,
			"componentType":5126,
			"count":48,
			"type":"VEC3"
		},
		{
			"bufferView":2,
			"componentType":5126,
			"count":48,
			"type":"VEC2"
		},
		{
			"bufferView":3,
			"componentType":5126,
			"count":48,
			"type":"VEC2"
		},
		{
			"bufferView":4,
			"componentType":5123,
			"count":48,
			"type":"SCALAR"
		},
		{
			"bufferView":5,
			"componentType":5126,
			"count":6,
			"max":[
				11.681846618652344,
				11.337093353271484,
				-0.01087188720703125
			],
			"min":[
				-11.097755432128906,
				11.337089538574219,
				-3.9272193908691406
			],
			"type":"VEC3"
		},
		{
			"bufferView":6,
			"componentType":5126,
			"count":6,
			"type":"VEC3"
		},
		{
			"bufferView":7,
			"componentType":5126,
			"count":6,
			"type":"VEC2"
		},
		{
			"bufferView":8,
			"componentType":5126,
			"count":6,
			"type":"VEC2"
		},
		{
			"bufferView":9,
			"componentType":5123,
			"count":6,
			"type":"SCALAR"
		},
		{
			"bufferView":10,
			"componentType":5126,
			"count":24,
			"max":[
				22.499298095703125,
				16.49948501586914,
				-18.200817108154297
			],
			"min":[
				-22.499298095703125,
				-22.499298095703125,
				-18.200824737548828
			],
			"type":"VEC3"
		},
		{
			"bufferView":11,
			"componentType":5126,
			"count":24,
			"type":"VEC3"
		},
		{
			"bufferView":12,
			"componentType":5126,
			"count":24,
			"type":"VEC2"
		},
		{
			"bufferView":13,
			"componentType":5126,
			"count":24,
			"type":"VEC2"
		},
		{
			"bufferView":14,
			"componentType":5123,
			"count":24,
			"type":"SCALAR"
		},
		{
			"bufferView":15,
			"componentType":5126,
			"count":12,
			"max":[
				22.499298095703125,
				-11.249649047851562,
				1.1444091796875e-05
			],
			"min":[
				-22.499298095703125,
				-22.499298095703125,
				-42.86265182495117
			],
			"type":"VEC3"
		},
		{
			"bufferView":16,
			"componentType":5126,
			"count":12,
			"type":"VEC3"
		},
		{
			"bufferView":17,
			"componentType":5126,
			"count":12,
			"type":"VEC2"
		},
		{
			"bufferView":18,
			"componentType":5126,
			"count":12,
			"type":"VEC2"
		},
		{
			"bufferView":19,
			"componentType":5123,
			"count":12,
			"type":"SCALAR"
		},
		{
			"bufferView":20,
			"componentType":5126,
			"count":24,
			"max":[
				22.499298095703125,
				16.499492645263672,
				0
			],
			"min":[
				-22.499298095703125,
				8.249744415283203,
				-42.86265182495117
			],
			"type":"VEC3"
		},
		{
			"bufferView":21,
			"componentType":5126,
			"count":24,
			"type":"VEC3"
		},
		{
			"bufferView":22,
			"componentType":5126,
			"count":24,
			"type":"VEC2"
		},
		{
			"bufferView":23,
			"componentType":5126,
			"count":24,
			"type":"VEC2"
		},
		{
			"bufferView":24,
			"componentType":5123,
			"count":24,
			"type":"SCALAR"
		},
		{
			"bufferView":25,
			"componentType":5126,
			"count":12,
			"max":[
				-11.999626159667969,
				16.499492645263672,
				1.1444091796875e-05
			],
			"min":[
				-22.499298095703125,
				-22.499298095703125,
				-42.86265182495117
			],
			"type":"VEC3"
		},
		{
			"bufferView":26,
			"componentType":5126,
			"count":12,
			"type":"VEC3"
		},
		{
			"bufferView":27,
			"componentType":5126,
			"count":12,
			"type":"VEC2"
		},
		{
			"bufferView":28,
			"componentType":5126,
			"count":12,
			"type":"VEC2"
		},
		{
			"bufferView":29,
			"componentType":5123,
			"count":12,
			"type":"SCALAR"
		},
		{
			"bufferView":30,
			"componentType":5126,
			"count":24,
			"max":[
				22.499298095703125,
				16.499492645263672,
				1.1444091796875e-05
			],
			"min":[
				-11.249649047851562,
				-22.499298095703125,
				-42.86265182495117
			],
			"type":"VEC3"
		},
		{
			"bufferView":31,
			"componentType":5126,
			"count":24,
			"type":"VEC3"
		},
		{
			"bufferView":32,
			"componentType":5126,
			"count":24,
			"type":"VEC2"
		},
		{
			"bufferView":33,
			"componentType":5126,
			"count":24,
			"type":"VEC2"
		},
		{
			"bufferView":34,
			"componentType":5123,
			"count":24,
			"type":"SCALAR"
		},
		{
			"bufferView":35,
			"componentType":5126,
			"count":6,
			"max":[
				8.798637390136719,
				7.673164367675781,
				-43.3739013671875
			],
			"min":[
				-7.9639434814453125,
				-9.08941650390625,
				-43.3739013671875
			],
			"type":"VEC3"
		},
		{
			"bufferView":36,
			"componentType":5126,
			"count":6,
			"type":"VEC3"
		},
		{
			"bufferView":37,
			"componentType":5126,
			"count":6,
			"type":"VEC2"
		},
		{
			"bufferView":38,
			"componentType":5126,
			"count":6,
			"type":"VEC2"
		},
		{
			"bufferView":39,
			"componentType":5123,
			"count":6,
			"type":"SCALAR"
		}
	],
	"bufferViews":[
		{
			"buffer":0,
			"byteLength":576,
			"byteOffset":0,
			"target":34962
		},
		{
			"buffer":0,
			"byteLength":576,
			"byteOffset":576,
			"target":34962
		},
		{
			"buffer":0,
			"byteLength":384,
			"byteOffset":1152,
			"target":34962
		},
		{
			"buffer":0,
			"byteLength":384,
			"byteOffset":1536,
			"target":34962
		},
		{
			"buffer":0,
			"byteLength":96,
			"byteOffset":1920,
			"target":34963
		},
		{
			"buffer":0,
			"byteLength":72,
			"byteOffset":2016,
			"target":34962
		},
		{
			"buffer":0,
			"byteLength":72,
			"byteOffset":2088,
			"target":34962
		},
		{
			"buffer":0,
			"byteLength":48,
			"byteOffset":2160,
			"target":34962
		},
		{
			"buffer":0,
			"byteLength":48,
			"byteOffset":2208,
			"target":34962
		},
		{
			"buffer":0,
			"byteLength":12,
			"byteOffset":2256,
			"target":34963
		},
		{
			"buffer":0,
			"byteLength":288,
			"byteOffset":2268,
			"target":34962
		},
		{
			"buffer":0,
			"byteLength":288,
			"byteOffset":2556,
			"target":34962
		},
		{
			"buffer":0,
			"byteLength":192,
			"byteOffset":2844,
			"target":34962
		},
		{
			"buffer":0,
			"byteLength":192,
			"byteOffset":3036,
			"target":34962
		},
		{
			"buffer":0,
			"byteLength":48,
			"byteOffset":3228,
			"target":34963
		},
		{
			"buffer":0,
			"byteLength":144,
			"byteOffset":3276,
			"target":34962
		},
		{
			"buffer":0,
			"byteLength":144,
			"byteOffset":3420,
			"target":34962
		},
		{
			"buffer":0,
			"byteLength":96,
			"byteOffset":3564,
			"target":34962
		},
		{
			"buffer":0,
			"byteLength":96,
			"byteOffset":3660,
			"target":34962
		},
		{
			"buffer":0,
			"byteLength":24,
			"byteOffset":3756,
			"target":34963
		},
		{
			"buffer":0,
			"byteLength":288,
			"byteOffset":3780,
			"target":34962
		},
		{
			"buffer":0,
			"byteLength":288,
			"byteOffset":4068,
			"target":34962
		},
		{
			"buffer":0,
			"byteLength":192,
			"byteOffset":4356,
			"target":34962
		},
		{
			"buffer":0,
			"byteLength":192,
			"byteOffset":4548,
			"target":34962
		},
		{
			"buffer":0,
			"byteLength":48,
			"byteOffset":4740,
			"target":34963
		},
		{
			"buffer":0,
			"byteLength":144,
			"byteOffset":4788,
			"target":34962
		},
		{
			"buffer":0,
			"byteLength":144,
			"byteOffset":4932,
			"target":34962
		},
		{
			"buffer":0,
			"byteLength":96,
			"byteOffset":5076,
			"target":34962
		},
		{
			"buffer":0,
			"byteLength":96,
			"byteOffset":5172,
			"target":34962
		},
		{
			"buffer":0,
			"byteLength":24,
			"byteOffset":5268,
			"target":34963
		},
		{
			"buffer":0,
			"byteLength":288,
			"byteOffset":5292,
			"target":34962
		},
		{
			"buffer":0,
			"byteLength":288,
			"byteOffset":5580,
			"target":34962
		},
		{
			"buffer":0,
			"byteLength":192,
			"byteOffset":5868,
			"target":34962
		},
		{
			"buffer":0,
			"byteLength":192,
			"byteOffset":6060,
			"target":34962
		},
		{
			"buffer":0,
			"byteLength":48,
			"byteOffset":6252,
			"target":34963
		},
		{
			"buffer":0,
			"byteLength":72,
			"byteOffset":6300,
			"target":34962
		},
		{
			"buffer":0,
			"byteLength":72,
			"byteOffset":6372,
			"target":34962
		},
		{
			"buffer":0,
			"byteLength":48,
			"byteOffset":6444,
			"target":34962
		},
		{
			"buffer":0,
			"byteLength":48,
			"byteOffset":6492,
			"target":34962
		},
		{
			"buffer":0,
			"byteLength":12,
			"byteOffset":6540,
			"target":34963
		}
	],
	"samplers":[
		{
			"magFilter":9729,
			"minFilter":9987
		}
	],
	"buffers":[
		{
			"byteLength":6552,
			"uri":"police.bin"
		}
	]
}
