{
	"asset":{
		"generator":"Khronos glTF Blender I/O v4.3.47",
		"version":"2.0"
	},
	"scene":0,
	"scenes":[
		{
			"name":"Scene",
			"nodes":[
				0,
				1
			]
		}
	],
	"nodes":[
		{
			"mesh":0,
			"name":"Maxis-3d1-mesh-1",
			"rotation":[
				0.70710688829422,
				0,
				0,
				0.7071066498756409
			]
		},
		{
			"extras":{
				"gd_node":"Decal",
				"lower_fade":9,
				"upper_fade":10
			},
			"mesh":1,
			"name":"Ground_AO",
			"scale":[
				45.99859619140625,
				1,
				39.99879455566406
			],
			"translation":[
				0,
				-1.3660943295690231e-05,
				-2.9998998641967773
			]
		}
	],
	"materials":[
		{
			"name":"matcolour-160.002",
			"occlusionTexture":{
				"index":0,
				"texCoord":1
			},
			"pbrMetallicRoughness":{
				"baseColorFactor":[
					0.019607843831181526,
					0.16470588743686676,
					0.14509804546833038,
					1
				],
				"metallicFactor":0
			}
		},
		{
			"name":"mat2-42.001",
			"occlusionTexture":{
				"index":1,
				"texCoord":1
			},
			"pbrMetallicRoughness":{
				"baseColorTexture":{
					"index":2
				},
				"metallicFactor":0
			}
		},
		{
			"name":"matcolour-48.002",
			"occlusionTexture":{
				"index":3,
				"texCoord":1
			},
			"pbrMetallicRoughness":{
				"baseColorFactor":[
					0.05882352963089943,
					0.05882352963089943,
					0.05882352963089943,
					1
				],
				"metallicFactor":0
			}
		},
		{
			"name":"mat2-60",
			"occlusionTexture":{
				"index":4,
				"texCoord":1
			},
			"pbrMetallicRoughness":{
				"baseColorTexture":{
					"index":5
				},
				"metallicFactor":0
			}
		},
		{
			"name":"mat2-63.001",
			"occlusionTexture":{
				"index":6,
				"texCoord":1
			},
			"pbrMetallicRoughness":{
				"baseColorTexture":{
					"index":7
				},
				"metallicFactor":0
			}
		},
		{
			"name":"mat2-61",
			"occlusionTexture":{
				"index":8,
				"texCoord":1
			},
			"pbrMetallicRoughness":{
				"baseColorTexture":{
					"index":9
				},
				"metallicFactor":0
			}
		},
		{
			"name":"mat2-62",
			"occlusionTexture":{
				"index":10,
				"texCoord":1
			},
			"pbrMetallicRoughness":{
				"baseColorTexture":{
					"index":11
				},
				"metallicFactor":0
			}
		},
		{
			"name":"mat2-8",
			"occlusionTexture":{
				"index":12,
				"texCoord":1
			},
			"pbrMetallicRoughness":{
				"baseColorTexture":{
					"index":13
				},
				"metallicFactor":0
			}
		},
		{
			"name":"Ground_AO",
			"occlusionTexture":{
				"index":14
			},
			"pbrMetallicRoughness":{
				"baseColorFactor":[
					0.800000011920929,
					0.800000011920929,
					0.800000011920929,
					1
				],
				"metallicFactor":0,
				"roughnessFactor":0.5
			}
		}
	],
	"meshes":[
		{
			"name":"Maxis-3d1-mesh-1",
			"primitives":[
				{
					"attributes":{
						"POSITION":0,
						"NORMAL":1,
						"TEXCOORD_0":2,
						"TEXCOORD_1":3
					},
					"indices":4,
					"material":0
				},
				{
					"attributes":{
						"POSITION":5,
						"NORMAL":6,
						"TEXCOORD_0":7,
						"TEXCOORD_1":8
					},
					"indices":9,
					"material":1
				},
				{
					"attributes":{
						"POSITION":10,
						"NORMAL":11,
						"TEXCOORD_0":12,
						"TEXCOORD_1":13
					},
					"indices":14,
					"material":2
				},
				{
					"attributes":{
						"POSITION":15,
						"NORMAL":16,
						"TEXCOORD_0":17,
						"TEXCOORD_1":18
					},
					"indices":19,
					"material":3
				},
				{
					"attributes":{
						"POSITION":20,
						"NORMAL":21,
						"TEXCOORD_0":22,
						"TEXCOORD_1":23
					},
					"indices":24,
					"material":4
				},
				{
					"attributes":{
						"POSITION":25,
						"NORMAL":26,
						"TEXCOORD_0":27,
						"TEXCOORD_1":28
					},
					"indices":29,
					"material":5
				},
				{
					"attributes":{
						"POSITION":30,
						"NORMAL":31,
						"TEXCOORD_0":32,
						"TEXCOORD_1":33
					},
					"indices":34,
					"material":6
				},
				{
					"attributes":{
						"POSITION":35,
						"NORMAL":36,
						"TEXCOORD_0":37,
						"TEXCOORD_1":38
					},
					"indices":39,
					"material":7
				}
			]
		},
		{
			"name":"Plane",
			"primitives":[
				{
					"attributes":{
						"POSITION":40,
						"NORMAL":41,
						"TEXCOORD_0":42
					},
					"indices":43,
					"material":8
				}
			]
		}
	],
	"textures":[
		{
			"sampler":0,
			"source":0
		},
		{
			"sampler":0,
			"source":0
		},
		{
			"sampler":0,
			"source":1
		},
		{
			"sampler":0,
			"source":0
		},
		{
			"sampler":0,
			"source":0
		},
		{
			"sampler":0,
			"source":2
		},
		{
			"sampler":0,
			"source":0
		},
		{
			"sampler":0,
			"source":3
		},
		{
			"sampler":0,
			"source":0
		},
		{
			"sampler":0,
			"source":4
		},
		{
			"sampler":0,
			"source":0
		},
		{
			"sampler":0,
			"source":5
		},
		{
			"sampler":0,
			"source":0
		},
		{
			"sampler":0,
			"source":6
		},
		{
			"sampler":0,
			"source":7
		}
	],
	"images":[
		{
			"mimeType":"image/png",
			"name":"police.png",
			"uri":"../../../Textures/ambient_occlusion/Buildings/Station/police.png"
		},
		{
			"mimeType":"image/png",
			"name":"tex2-42",
			"uri":"../../../Textures/tex2-42.png"
		},
		{
			"mimeType":"image/png",
			"name":"tex2-60",
			"uri":"../../../Textures/tex2-60.png"
		},
		{
			"mimeType":"image/png",
			"name":"tex2-63",
			"uri":"../../../Textures/tex2-63.png"
		},
		{
			"mimeType":"image/png",
			"name":"tex2-61",
			"uri":"../../../Textures/tex2-61.png"
		},
		{
			"mimeType":"image/png",
			"name":"tex2-62",
			"uri":"../../../Textures/tex2-62.png"
		},
		{
			"mimeType":"image/png",
			"name":"tex2-8",
			"uri":"../../../Textures/tex2-8.png"
		},
		{
			"mimeType":"image/png",
			"name":"police_ground.png",
			"uri":"../../../Textures/ambient_occlusion/Buildings/Station/police_ground.png"
		}
	],
	"accessors":[
		{
			"bufferView":0,
			"componentType":5126,
			"count":24,
			"max":[
				11.999626159667969,
				11.249645233154297,
				-42.86264419555664
			],
			"min":[
				-11.999626159667969,
				-11.249652862548828,
				-43.3739013671875
			],
			"type":"VEC3"
		},
		{
			"bufferView":1,
			"componentType":5126,
			"count":24,
			"type":"VEC3"
		},
		{
			"bufferView":2,
			"componentType":5126,
			"count":24,
			"type":"VEC2"
		},
		{
			"bufferView":3,
			"componentType":5126,
			"count":24,
			"type":"VEC2"
		},
		{
			"bufferView":4,
			"componentType":5123,
			"count":48,
			"type":"SCALAR"
		},
		{
			"bufferView":5,
			"componentType":5126,
			"count":4,
			"max":[
				11.681846618652344,
				11.337093353271484,
				-0.01087188720703125
			],
			"min":[
				-11.097755432128906,
				11.337089538574219,
				-3.9272193908691406
			],
			"type":"VEC3"
		},
		{
			"bufferView":6,
			"componentType":5126,
			"count":4,
			"type":"VEC3"
		},
		{
			"bufferView":7,
			"componentType":5126,
			"count":4,
			"type":"VEC2"
		},
		{
			"bufferView":8,
			"componentType":5126,
			"count":4,
			"type":"VEC2"
		},
		{
			"bufferView":9,
			"componentType":5123,
			"count":6,
			"type":"SCALAR"
		},
		{
			"bufferView":10,
			"componentType":5126,
			"count":10,
			"max":[
				22.499298095703125,
				16.49948501586914,
				-18.200817108154297
			],
			"min":[
				-22.499298095703125,
				-22.499298095703125,
				-18.200824737548828
			],
			"type":"VEC3"
		},
		{
			"bufferView":11,
			"componentType":5126,
			"count":10,
			"type":"VEC3"
		},
		{
			"bufferView":12,
			"componentType":5126,
			"count":10,
			"type":"VEC2"
		},
		{
			"bufferView":13,
			"componentType":5126,
			"count":10,
			"type":"VEC2"
		},
		{
			"bufferView":14,
			"componentType":5123,
			"count":24,
			"type":"SCALAR"
		},
		{
			"bufferView":15,
			"componentType":5126,
			"count":8,
			"max":[
				22.499298095703125,
				-11.249649047851562,
				1.1444091796875e-05
			],
			"min":[
				-22.499298095703125,
				-22.499298095703125,
				-42.86265182495117
			],
			"type":"VEC3"
		},
		{
			"bufferView":16,
			"componentType":5126,
			"count":8,
			"type":"VEC3"
		},
		{
			"bufferView":17,
			"componentType":5126,
			"count":8,
			"type":"VEC2"
		},
		{
			"bufferView":18,
			"componentType":5126,
			"count":8,
			"type":"VEC2"
		},
		{
			"bufferView":19,
			"componentType":5123,
			"count":12,
			"type":"SCALAR"
		},
		{
			"bufferView":20,
			"componentType":5126,
			"count":14,
			"max":[
				22.499298095703125,
				16.499492645263672,
				0
			],
			"min":[
				-22.499298095703125,
				8.249744415283203,
				-42.86265182495117
			],
			"type":"VEC3"
		},
		{
			"bufferView":21,
			"componentType":5126,
			"count":14,
			"type":"VEC3"
		},
		{
			"bufferView":22,
			"componentType":5126,
			"count":14,
			"type":"VEC2"
		},
		{
			"bufferView":23,
			"componentType":5126,
			"count":14,
			"type":"VEC2"
		},
		{
			"bufferView":24,
			"componentType":5123,
			"count":24,
			"type":"SCALAR"
		},
		{
			"bufferView":25,
			"componentType":5126,
			"count":8,
			"max":[
				-11.999626159667969,
				16.499492645263672,
				1.1444091796875e-05
			],
			"min":[
				-22.499298095703125,
				-22.499298095703125,
				-42.86265182495117
			],
			"type":"VEC3"
		},
		{
			"bufferView":26,
			"componentType":5126,
			"count":8,
			"type":"VEC3"
		},
		{
			"bufferView":27,
			"componentType":5126,
			"count":8,
			"type":"VEC2"
		},
		{
			"bufferView":28,
			"componentType":5126,
			"count":8,
			"type":"VEC2"
		},
		{
			"bufferView":29,
			"componentType":5123,
			"count":12,
			"type":"SCALAR"
		},
		{
			"bufferView":30,
			"componentType":5126,
			"count":14,
			"max":[
				22.499298095703125,
				16.499492645263672,
				1.1444091796875e-05
			],
			"min":[
				-11.249649047851562,
				-22.499298095703125,
				-42.86265182495117
			],
			"type":"VEC3"
		},
		{
			"bufferView":31,
			"componentType":5126,
			"count":14,
			"type":"VEC3"
		},
		{
			"bufferView":32,
			"componentType":5126,
			"count":14,
			"type":"VEC2"
		},
		{
			"bufferView":33,
			"componentType":5126,
			"count":14,
			"type":"VEC2"
		},
		{
			"bufferView":34,
			"componentType":5123,
			"count":24,
			"type":"SCALAR"
		},
		{
			"bufferView":35,
			"componentType":5126,
			"count":4,
			"max":[
				8.798637390136719,
				7.673164367675781,
				-43.3739013671875
			],
			"min":[
				-7.9639434814453125,
				-9.08941650390625,
				-43.3739013671875
			],
			"type":"VEC3"
		},
		{
			"bufferView":36,
			"componentType":5126,
			"count":4,
			"type":"VEC3"
		},
		{
			"bufferView":37,
			"componentType":5126,
			"count":4,
			"type":"VEC2"
		},
		{
			"bufferView":38,
			"componentType":5126,
			"count":4,
			"type":"VEC2"
		},
		{
			"bufferView":39,
			"componentType":5123,
			"count":6,
			"type":"SCALAR"
		},
		{
			"bufferView":40,
			"componentType":5126,
			"count":4,
			"max":[
				0.5,
				0,
				0.5
			],
			"min":[
				-0.5,
				0,
				-0.5
			],
			"type":"VEC3"
		},
		{
			"bufferView":41,
			"componentType":5126,
			"count":4,
			"type":"VEC3"
		},
		{
			"bufferView":42,
			"componentType":5126,
			"count":4,
			"type":"VEC2"
		},
		{
			"bufferView":43,
			"componentType":5123,
			"count":6,
			"type":"SCALAR"
		}
	],
	"bufferViews":[
		{
			"buffer":0,
			"byteLength":288,
			"byteOffset":0,
			"target":34962
		},
		{
			"buffer":0,
			"byteLength":288,
			"byteOffset":288,
			"target":34962
		},
		{
			"buffer":0,
			"byteLength":192,
			"byteOffset":576,
			"target":34962
		},
		{
			"buffer":0,
			"byteLength":192,
			"byteOffset":768,
			"target":34962
		},
		{
			"buffer":0,
			"byteLength":96,
			"byteOffset":960,
			"target":34963
		},
		{
			"buffer":0,
			"byteLength":48,
			"byteOffset":1056,
			"target":34962
		},
		{
			"buffer":0,
			"byteLength":48,
			"byteOffset":1104,
			"target":34962
		},
		{
			"buffer":0,
			"byteLength":32,
			"byteOffset":1152,
			"target":34962
		},
		{
			"buffer":0,
			"byteLength":32,
			"byteOffset":1184,
			"target":34962
		},
		{
			"buffer":0,
			"byteLength":12,
			"byteOffset":1216,
			"target":34963
		},
		{
			"buffer":0,
			"byteLength":120,
			"byteOffset":1228,
			"target":34962
		},
		{
			"buffer":0,
			"byteLength":120,
			"byteOffset":1348,
			"target":34962
		},
		{
			"buffer":0,
			"byteLength":80,
			"byteOffset":1468,
			"target":34962
		},
		{
			"buffer":0,
			"byteLength":80,
			"byteOffset":1548,
			"target":34962
		},
		{
			"buffer":0,
			"byteLength":48,
			"byteOffset":1628,
			"target":34963
		},
		{
			"buffer":0,
			"byteLength":96,
			"byteOffset":1676,
			"target":34962
		},
		{
			"buffer":0,
			"byteLength":96,
			"byteOffset":1772,
			"target":34962
		},
		{
			"buffer":0,
			"byteLength":64,
			"byteOffset":1868,
			"target":34962
		},
		{
			"buffer":0,
			"byteLength":64,
			"byteOffset":1932,
			"target":34962
		},
		{
			"buffer":0,
			"byteLength":24,
			"byteOffset":1996,
			"target":34963
		},
		{
			"buffer":0,
			"byteLength":168,
			"byteOffset":2020,
			"target":34962
		},
		{
			"buffer":0,
			"byteLength":168,
			"byteOffset":2188,
			"target":34962
		},
		{
			"buffer":0,
			"byteLength":112,
			"byteOffset":2356,
			"target":34962
		},
		{
			"buffer":0,
			"byteLength":112,
			"byteOffset":2468,
			"target":34962
		},
		{
			"buffer":0,
			"byteLength":48,
			"byteOffset":2580,
			"target":34963
		},
		{
			"buffer":0,
			"byteLength":96,
			"byteOffset":2628,
			"target":34962
		},
		{
			"buffer":0,
			"byteLength":96,
			"byteOffset":2724,
			"target":34962
		},
		{
			"buffer":0,
			"byteLength":64,
			"byteOffset":2820,
			"target":34962
		},
		{
			"buffer":0,
			"byteLength":64,
			"byteOffset":2884,
			"target":34962
		},
		{
			"buffer":0,
			"byteLength":24,
			"byteOffset":2948,
			"target":34963
		},
		{
			"buffer":0,
			"byteLength":168,
			"byteOffset":2972,
			"target":34962
		},
		{
			"buffer":0,
			"byteLength":168,
			"byteOffset":3140,
			"target":34962
		},
		{
			"buffer":0,
			"byteLength":112,
			"byteOffset":3308,
			"target":34962
		},
		{
			"buffer":0,
			"byteLength":112,
			"byteOffset":3420,
			"target":34962
		},
		{
			"buffer":0,
			"byteLength":48,
			"byteOffset":3532,
			"target":34963
		},
		{
			"buffer":0,
			"byteLength":48,
			"byteOffset":3580,
			"target":34962
		},
		{
			"buffer":0,
			"byteLength":48,
			"byteOffset":3628,
			"target":34962
		},
		{
			"buffer":0,
			"byteLength":32,
			"byteOffset":3676,
			"target":34962
		},
		{
			"buffer":0,
			"byteLength":32,
			"byteOffset":3708,
			"target":34962
		},
		{
			"buffer":0,
			"byteLength":12,
			"byteOffset":3740,
			"target":34963
		},
		{
			"buffer":0,
			"byteLength":48,
			"byteOffset":3752,
			"target":34962
		},
		{
			"buffer":0,
			"byteLength":48,
			"byteOffset":3800,
			"target":34962
		},
		{
			"buffer":0,
			"byteLength":32,
			"byteOffset":3848,
			"target":34962
		},
		{
			"buffer":0,
			"byteLength":12,
			"byteOffset":3880,
			"target":34963
		}
	],
	"samplers":[
		{
			"magFilter":9729,
			"minFilter":9987
		}
	],
	"buffers":[
		{
			"byteLength":3892,
			"uri":"police.bin"
		}
	]
}
