{
    "asset" : {
        "generator" : "Khronos glTF Blender I/O v1.7.33",
        "version" : "2.0"
    },
    "scene" : 0,
    "scenes" : [
        {
            "name" : "Scene",
            "nodes" : [
                0
            ]
        }
    ],
    "nodes" : [
        {
            "mesh" : 0,
            "name" : "Maxis-3d1-mesh-50-hospital",
            "rotation" : [
                0.7071068286895752,
                0,
                0,
                0.7071067094802856
            ]
        }
    ],
    "materials" : [
        {
            "doubleSided" : true,
            "name" : "mat39-3",
            "pbrMetallicRoughness" : {
                "baseColorTexture" : {
                    "index" : 0
                },
                "metallicFactor" : 0
            }
        },
        {
            "doubleSided" : true,
            "name" : "mat39-0",
            "pbrMetallicRoughness" : {
                "baseColorTexture" : {
                    "index" : 1
                },
                "metallicFactor" : 0
            }
        },
        {
            "doubleSided" : true,
            "name" : "mat39-1",
            "pbrMetallicRoughness" : {
                "baseColorTexture" : {
                    "index" : 2
                },
                "metallicFactor" : 0
            }
        },
        {
            "doubleSided" : true,
            "name" : "mat39-2",
            "pbrMetallicRoughness" : {
                "baseColorTexture" : {
                    "index" : 3
                },
                "metallicFactor" : 0
            }
        },
        {
            "doubleSided" : true,
            "name" : "matcolour-48.003",
            "pbrMetallicRoughness" : {
                "baseColorFactor" : [
                    0.05882352963089943,
                    0.05882352963089943,
                    0.05882352963089943,
                    1
                ],
                "metallicFactor" : 0
            }
        },
        {
            "doubleSided" : true,
            "name" : "mat2-9",
            "pbrMetallicRoughness" : {
                "baseColorTexture" : {
                    "index" : 4
                },
                "metallicFactor" : 0
            }
        },
        {
            "doubleSided" : true,
            "name" : "matcolour-160",
            "pbrMetallicRoughness" : {
                "baseColorFactor" : [
                    0.019607843831181526,
                    0.16470588743686676,
                    0.14509804546833038,
                    1
                ],
                "metallicFactor" : 0
            }
        }
    ],
    "meshes" : [
        {
            "name" : "Maxis-3d1-mesh-50-hospital",
            "primitives" : [
                {
                    "attributes" : {
                        "POSITION" : 0,
                        "NORMAL" : 1,
                        "TEXCOORD_0" : 2
                    },
                    "indices" : 3,
                    "material" : 0
                },
                {
                    "attributes" : {
                        "POSITION" : 4,
                        "NORMAL" : 5,
                        "TEXCOORD_0" : 6
                    },
                    "indices" : 7,
                    "material" : 1
                },
                {
                    "attributes" : {
                        "POSITION" : 8,
                        "NORMAL" : 9,
                        "TEXCOORD_0" : 10
                    },
                    "indices" : 11,
                    "material" : 2
                },
                {
                    "attributes" : {
                        "POSITION" : 12,
                        "NORMAL" : 13,
                        "TEXCOORD_0" : 14
                    },
                    "indices" : 15,
                    "material" : 3
                },
                {
                    "attributes" : {
                        "POSITION" : 16,
                        "NORMAL" : 17,
                        "TEXCOORD_0" : 18
                    },
                    "indices" : 19,
                    "material" : 4
                },
                {
                    "attributes" : {
                        "POSITION" : 20,
                        "NORMAL" : 21,
                        "TEXCOORD_0" : 22
                    },
                    "indices" : 23,
                    "material" : 5
                },
                {
                    "attributes" : {
                        "POSITION" : 24,
                        "NORMAL" : 25,
                        "TEXCOORD_0" : 26
                    },
                    "indices" : 27,
                    "material" : 6
                }
            ]
        }
    ],
    "textures" : [
        {
            "sampler" : 0,
            "source" : 0
        },
        {
            "sampler" : 0,
            "source" : 1
        },
        {
            "sampler" : 0,
            "source" : 2
        },
        {
            "sampler" : 0,
            "source" : 3
        },
        {
            "sampler" : 0,
            "source" : 4
        }
    ],
    "images" : [
        {
            "mimeType" : "image/png",
            "name" : "tex39-3",
            "uri" : "../../../Textures/tex39-3.png"
        },
        {
            "mimeType" : "image/png",
            "name" : "tex39-0",
            "uri" : "../../../Textures/tex39-0.png"
        },
        {
            "mimeType" : "image/png",
            "name" : "tex39-1",
            "uri" : "../../../Textures/tex39-1.png"
        },
        {
            "mimeType" : "image/png",
            "name" : "tex39-2",
            "uri" : "../../../Textures/tex39-2.png"
        },
        {
            "mimeType" : "image/png",
            "name" : "tex2-9",
            "uri" : "../../../Textures/tex2-9.png"
        }
    ],
    "accessors" : [
        {
            "bufferView" : 0,
            "componentType" : 5126,
            "count" : 37,
            "max" : [
                21.849578857421875,
                17.032920837402344,
                0
            ],
            "min" : [
                -21.849578857421875,
                11.84896469116211,
                -52.823028564453125
            ],
            "type" : "VEC3"
        },
        {
            "bufferView" : 1,
            "componentType" : 5126,
            "count" : 37,
            "type" : "VEC3"
        },
        {
            "bufferView" : 2,
            "componentType" : 5126,
            "count" : 37,
            "type" : "VEC2"
        },
        {
            "bufferView" : 3,
            "componentType" : 5123,
            "count" : 42,
            "type" : "SCALAR"
        },
        {
            "bufferView" : 4,
            "componentType" : 5126,
            "count" : 32,
            "max" : [
                21.849578857421875,
                -11.84897232055664,
                3.814697265625e-06
            ],
            "min" : [
                -21.849578857421875,
                -17.03292465209961,
                -52.823028564453125
            ],
            "type" : "VEC3"
        },
        {
            "bufferView" : 5,
            "componentType" : 5126,
            "count" : 32,
            "type" : "VEC3"
        },
        {
            "bufferView" : 6,
            "componentType" : 5126,
            "count" : 32,
            "type" : "VEC2"
        },
        {
            "bufferView" : 7,
            "componentType" : 5123,
            "count" : 42,
            "type" : "SCALAR"
        },
        {
            "bufferView" : 8,
            "componentType" : 5126,
            "count" : 35,
            "max" : [
                -16.6656494140625,
                17.032920837402344,
                3.814697265625e-06
            ],
            "min" : [
                -21.849578857421875,
                -17.03292465209961,
                -52.823028564453125
            ],
            "type" : "VEC3"
        },
        {
            "bufferView" : 9,
            "componentType" : 5126,
            "count" : 35,
            "type" : "VEC3"
        },
        {
            "bufferView" : 10,
            "componentType" : 5126,
            "count" : 35,
            "type" : "VEC2"
        },
        {
            "bufferView" : 11,
            "componentType" : 5123,
            "count" : 36,
            "type" : "SCALAR"
        },
        {
            "bufferView" : 12,
            "componentType" : 5126,
            "count" : 34,
            "max" : [
                21.849578857421875,
                17.032920837402344,
                3.814697265625e-06
            ],
            "min" : [
                7.032314300537109,
                -17.03292465209961,
                -52.823028564453125
            ],
            "type" : "VEC3"
        },
        {
            "bufferView" : 13,
            "componentType" : 5126,
            "count" : 34,
            "type" : "VEC3"
        },
        {
            "bufferView" : 14,
            "componentType" : 5126,
            "count" : 34,
            "type" : "VEC2"
        },
        {
            "bufferView" : 15,
            "componentType" : 5123,
            "count" : 36,
            "type" : "SCALAR"
        },
        {
            "bufferView" : 16,
            "componentType" : 5126,
            "count" : 47,
            "max" : [
                21.849578857421875,
                17.03289794921875,
                -26.411510467529297
            ],
            "min" : [
                -21.849578857421875,
                -17.03292465209961,
                -52.823028564453125
            ],
            "type" : "VEC3"
        },
        {
            "bufferView" : 17,
            "componentType" : 5126,
            "count" : 47,
            "type" : "VEC3"
        },
        {
            "bufferView" : 18,
            "componentType" : 5126,
            "count" : 47,
            "type" : "VEC2"
        },
        {
            "bufferView" : 19,
            "componentType" : 5123,
            "count" : 54,
            "type" : "SCALAR"
        },
        {
            "bufferView" : 20,
            "componentType" : 5126,
            "count" : 4,
            "max" : [
                5.166099548339844,
                9.98275375366211,
                -53.13734817504883
            ],
            "min" : [
                -14.799434661865234,
                -9.982776641845703,
                -53.13734817504883
            ],
            "type" : "VEC3"
        },
        {
            "bufferView" : 21,
            "componentType" : 5126,
            "count" : 4,
            "type" : "VEC3"
        },
        {
            "bufferView" : 22,
            "componentType" : 5126,
            "count" : 4,
            "type" : "VEC2"
        },
        {
            "bufferView" : 23,
            "componentType" : 5123,
            "count" : 6,
            "type" : "SCALAR"
        },
        {
            "bufferView" : 24,
            "componentType" : 5126,
            "count" : 24,
            "max" : [
                5.166099548339844,
                9.98275375366211,
                -52.823028564453125
            ],
            "min" : [
                -14.799434661865234,
                -9.982780456542969,
                -53.13734817504883
            ],
            "type" : "VEC3"
        },
        {
            "bufferView" : 25,
            "componentType" : 5126,
            "count" : 24,
            "type" : "VEC3"
        },
        {
            "bufferView" : 26,
            "componentType" : 5126,
            "count" : 24,
            "type" : "VEC2"
        },
        {
            "bufferView" : 27,
            "componentType" : 5123,
            "count" : 24,
            "type" : "SCALAR"
        }
    ],
    "bufferViews" : [
        {
            "buffer" : 0,
            "byteLength" : 444,
            "byteOffset" : 0
        },
        {
            "buffer" : 0,
            "byteLength" : 444,
            "byteOffset" : 444
        },
        {
            "buffer" : 0,
            "byteLength" : 296,
            "byteOffset" : 888
        },
        {
            "buffer" : 0,
            "byteLength" : 84,
            "byteOffset" : 1184
        },
        {
            "buffer" : 0,
            "byteLength" : 384,
            "byteOffset" : 1268
        },
        {
            "buffer" : 0,
            "byteLength" : 384,
            "byteOffset" : 1652
        },
        {
            "buffer" : 0,
            "byteLength" : 256,
            "byteOffset" : 2036
        },
        {
            "buffer" : 0,
            "byteLength" : 84,
            "byteOffset" : 2292
        },
        {
            "buffer" : 0,
            "byteLength" : 420,
            "byteOffset" : 2376
        },
        {
            "buffer" : 0,
            "byteLength" : 420,
            "byteOffset" : 2796
        },
        {
            "buffer" : 0,
            "byteLength" : 280,
            "byteOffset" : 3216
        },
        {
            "buffer" : 0,
            "byteLength" : 72,
            "byteOffset" : 3496
        },
        {
            "buffer" : 0,
            "byteLength" : 408,
            "byteOffset" : 3568
        },
        {
            "buffer" : 0,
            "byteLength" : 408,
            "byteOffset" : 3976
        },
        {
            "buffer" : 0,
            "byteLength" : 272,
            "byteOffset" : 4384
        },
        {
            "buffer" : 0,
            "byteLength" : 72,
            "byteOffset" : 4656
        },
        {
            "buffer" : 0,
            "byteLength" : 564,
            "byteOffset" : 4728
        },
        {
            "buffer" : 0,
            "byteLength" : 564,
            "byteOffset" : 5292
        },
        {
            "buffer" : 0,
            "byteLength" : 376,
            "byteOffset" : 5856
        },
        {
            "buffer" : 0,
            "byteLength" : 108,
            "byteOffset" : 6232
        },
        {
            "buffer" : 0,
            "byteLength" : 48,
            "byteOffset" : 6340
        },
        {
            "buffer" : 0,
            "byteLength" : 48,
            "byteOffset" : 6388
        },
        {
            "buffer" : 0,
            "byteLength" : 32,
            "byteOffset" : 6436
        },
        {
            "buffer" : 0,
            "byteLength" : 12,
            "byteOffset" : 6468
        },
        {
            "buffer" : 0,
            "byteLength" : 288,
            "byteOffset" : 6480
        },
        {
            "buffer" : 0,
            "byteLength" : 288,
            "byteOffset" : 6768
        },
        {
            "buffer" : 0,
            "byteLength" : 192,
            "byteOffset" : 7056
        },
        {
            "buffer" : 0,
            "byteLength" : 48,
            "byteOffset" : 7248
        }
    ],
    "samplers" : [
        {
            "magFilter" : 9729,
            "minFilter" : 9987
        }
    ],
    "buffers" : [
        {
            "byteLength" : 7296,
            "uri" : "hospital.bin"
        }
    ]
}
