{
    "asset" : {
        "generator" : "Khronos glTF Blender I/O v1.7.33",
        "version" : "2.0"
    },
    "scene" : 0,
    "scenes" : [
        {
            "name" : "Scene",
            "nodes" : [
                0
            ]
        }
    ],
    "nodes" : [
        {
            "mesh" : 0,
            "name" : "Maxis-3d3-mesh-23",
            "rotation" : [
                0.7071068286895752,
                0,
                0,
                0.7071067094802856
            ]
        }
    ],
    "materials" : [
        {
            "doubleSided" : true,
            "name" : "mat39-31",
            "pbrMetallicRoughness" : {
                "baseColorTexture" : {
                    "index" : 0
                },
                "metallicFactor" : 0
            }
        },
        {
            "doubleSided" : true,
            "name" : "matcolour-128",
            "pbrMetallicRoughness" : {
                "baseColorFactor" : [
                    0.12156862765550613,
                    0.08235294371843338,
                    0.062745101749897,
                    1
                ],
                "metallicFactor" : 0
            }
        },
        {
            "doubleSided" : true,
            "name" : "matcolour-48.004",
            "pbrMetallicRoughness" : {
                "baseColorFactor" : [
                    0.05882352963089943,
                    0.05882352963089943,
                    0.05882352963089943,
                    1
                ],
                "metallicFactor" : 0
            }
        },
        {
            "doubleSided" : true,
            "name" : "matcolour-16",
            "pbrMetallicRoughness" : {
                "baseColorFactor" : [
                    0.5607843399047852,
                    0.062745101749897,
                    0.019607843831181526,
                    1
                ],
                "metallicFactor" : 0
            }
        },
        {
            "doubleSided" : true,
            "name" : "matcolour-255",
            "pbrMetallicRoughness" : {
                "metallicFactor" : 0
            }
        },
        {
            "doubleSided" : true,
            "name" : "matcolour-112",
            "pbrMetallicRoughness" : {
                "baseColorFactor" : [
                    1,
                    1,
                    0,
                    1
                ],
                "metallicFactor" : 0
            }
        },
        {
            "doubleSided" : true,
            "name" : "mat2-43.001",
            "pbrMetallicRoughness" : {
                "baseColorTexture" : {
                    "index" : 1
                },
                "metallicFactor" : 0
            }
        },
        {
            "doubleSided" : true,
            "name" : "mat2-0",
            "pbrMetallicRoughness" : {
                "baseColorTexture" : {
                    "index" : 2
                },
                "metallicFactor" : 0
            }
        }
    ],
    "meshes" : [
        {
            "name" : "Maxis-3d3-mesh-23",
            "primitives" : [
                {
                    "attributes" : {
                        "POSITION" : 0,
                        "NORMAL" : 1,
                        "TEXCOORD_0" : 2
                    },
                    "indices" : 3,
                    "material" : 0
                },
                {
                    "attributes" : {
                        "POSITION" : 4,
                        "NORMAL" : 5,
                        "TEXCOORD_0" : 6
                    },
                    "indices" : 7,
                    "material" : 1
                },
                {
                    "attributes" : {
                        "POSITION" : 8,
                        "NORMAL" : 9,
                        "TEXCOORD_0" : 10
                    },
                    "indices" : 11,
                    "material" : 2
                },
                {
                    "attributes" : {
                        "POSITION" : 12,
                        "NORMAL" : 13,
                        "TEXCOORD_0" : 14
                    },
                    "indices" : 15,
                    "material" : 3
                },
                {
                    "attributes" : {
                        "POSITION" : 16,
                        "NORMAL" : 17,
                        "TEXCOORD_0" : 18
                    },
                    "indices" : 19,
                    "material" : 4
                },
                {
                    "attributes" : {
                        "POSITION" : 20,
                        "NORMAL" : 21,
                        "TEXCOORD_0" : 22
                    },
                    "indices" : 23,
                    "material" : 5
                },
                {
                    "attributes" : {
                        "POSITION" : 24,
                        "NORMAL" : 25,
                        "TEXCOORD_0" : 26
                    },
                    "indices" : 27,
                    "material" : 6
                },
                {
                    "attributes" : {
                        "POSITION" : 28,
                        "NORMAL" : 29,
                        "TEXCOORD_0" : 30
                    },
                    "indices" : 3,
                    "material" : 7
                }
            ]
        }
    ],
    "textures" : [
        {
            "sampler" : 0,
            "source" : 0
        },
        {
            "sampler" : 0,
            "source" : 1
        },
        {
            "sampler" : 0,
            "source" : 2
        }
    ],
    "images" : [
        {
            "mimeType" : "image/png",
            "name" : "tex39-31",
            "uri" : "../../Textures/tex39-31.png"
        },
        {
            "mimeType" : "image/png",
            "name" : "tex2-43",
            "uri" : "../../Textures/tex2-43.png"
        },
        {
            "mimeType" : "image/png",
            "name" : "tex2-0",
            "uri" : "../../Textures/tex2-0.png"
        }
    ],
    "accessors" : [
        {
            "bufferView" : 0,
            "componentType" : 5126,
            "count" : 8,
            "max" : [
                1.0676040649414062,
                0.9468002319335938,
                -1.2154312133789062
            ],
            "min" : [
                -2.758941650390625,
                0.9468002319335938,
                -2.5009117126464844
            ],
            "type" : "VEC3"
        },
        {
            "bufferView" : 1,
            "componentType" : 5126,
            "count" : 8,
            "type" : "VEC3"
        },
        {
            "bufferView" : 2,
            "componentType" : 5126,
            "count" : 8,
            "type" : "VEC2"
        },
        {
            "bufferView" : 3,
            "componentType" : 5123,
            "count" : 12,
            "type" : "SCALAR"
        },
        {
            "bufferView" : 4,
            "componentType" : 5126,
            "count" : 20,
            "max" : [
                4.339866638183594,
                0.8345909118652344,
                0
            ],
            "min" : [
                -4.006031036376953,
                -4.006031036376953,
                -3.195423126220703
            ],
            "type" : "VEC3"
        },
        {
            "bufferView" : 5,
            "componentType" : 5126,
            "count" : 20,
            "type" : "VEC3"
        },
        {
            "bufferView" : 6,
            "componentType" : 5126,
            "count" : 20,
            "type" : "VEC2"
        },
        {
            "bufferView" : 7,
            "componentType" : 5123,
            "count" : 24,
            "type" : "SCALAR"
        },
        {
            "bufferView" : 8,
            "componentType" : 5126,
            "count" : 118,
            "max" : [
                4.673702239990234,
                4.595024108886719,
                0
            ],
            "min" : [
                -4.339866638183594,
                -4.339866638183594,
                -5.028949737548828
            ],
            "type" : "VEC3"
        },
        {
            "bufferView" : 9,
            "componentType" : 5126,
            "count" : 118,
            "type" : "VEC3"
        },
        {
            "bufferView" : 10,
            "componentType" : 5126,
            "count" : 118,
            "type" : "VEC2"
        },
        {
            "bufferView" : 11,
            "componentType" : 5123,
            "count" : 138,
            "type" : "SCALAR"
        },
        {
            "bufferView" : 12,
            "componentType" : 5126,
            "count" : 14,
            "max" : [
                5.547840118408203,
                4.673702239990234,
                -3.530193328857422
            ],
            "min" : [
                3.3383560180664062,
                4.339862823486328,
                -4.86553955078125
            ],
            "type" : "VEC3"
        },
        {
            "bufferView" : 13,
            "componentType" : 5126,
            "count" : 14,
            "type" : "VEC3"
        },
        {
            "bufferView" : 14,
            "componentType" : 5126,
            "count" : 14,
            "type" : "VEC2"
        },
        {
            "bufferView" : 15,
            "componentType" : 5123,
            "count" : 18,
            "type" : "SCALAR"
        },
        {
            "bufferView" : 16,
            "componentType" : 5126,
            "count" : 22,
            "max" : [
                5.547840118408203,
                4.673702239990234,
                -3.530193328857422
            ],
            "min" : [
                3.3383560180664062,
                4.339862823486328,
                -4.86553955078125
            ],
            "type" : "VEC3"
        },
        {
            "bufferView" : 17,
            "componentType" : 5126,
            "count" : 22,
            "type" : "VEC3"
        },
        {
            "bufferView" : 18,
            "componentType" : 5126,
            "count" : 22,
            "type" : "VEC2"
        },
        {
            "bufferView" : 19,
            "componentType" : 5123,
            "count" : 24,
            "type" : "SCALAR"
        },
        {
            "bufferView" : 20,
            "componentType" : 5126,
            "count" : 10,
            "max" : [
                5.547840118408203,
                4.673702239990234,
                -3.530193328857422
            ],
            "min" : [
                3.3383560180664062,
                4.339862823486328,
                -4.86553955078125
            ],
            "type" : "VEC3"
        },
        {
            "bufferView" : 21,
            "componentType" : 5126,
            "count" : 10,
            "type" : "VEC3"
        },
        {
            "bufferView" : 22,
            "componentType" : 5126,
            "count" : 10,
            "type" : "VEC2"
        },
        {
            "bufferView" : 23,
            "componentType" : 5123,
            "count" : 12,
            "type" : "SCALAR"
        },
        {
            "bufferView" : 24,
            "componentType" : 5126,
            "count" : 4,
            "max" : [
                3.3229713439941406,
                0.9468040466308594,
                -0.004726409912109375
            ],
            "min" : [
                2.068683624267578,
                0.9468002319335938,
                -2.5954818725585938
            ],
            "type" : "VEC3"
        },
        {
            "bufferView" : 25,
            "componentType" : 5126,
            "count" : 4,
            "type" : "VEC3"
        },
        {
            "bufferView" : 26,
            "componentType" : 5126,
            "count" : 4,
            "type" : "VEC2"
        },
        {
            "bufferView" : 27,
            "componentType" : 5123,
            "count" : 6,
            "type" : "SCALAR"
        },
        {
            "bufferView" : 28,
            "componentType" : 5126,
            "count" : 8,
            "max" : [
                5.106468200683594,
                4.741645812988281,
                -3.6543006896972656
            ],
            "min" : [
                4.023654937744141,
                4.246685028076172,
                -4.737110137939453
            ],
            "type" : "VEC3"
        },
        {
            "bufferView" : 29,
            "componentType" : 5126,
            "count" : 8,
            "type" : "VEC3"
        },
        {
            "bufferView" : 30,
            "componentType" : 5126,
            "count" : 8,
            "type" : "VEC2"
        }
    ],
    "bufferViews" : [
        {
            "buffer" : 0,
            "byteLength" : 96,
            "byteOffset" : 0
        },
        {
            "buffer" : 0,
            "byteLength" : 96,
            "byteOffset" : 96
        },
        {
            "buffer" : 0,
            "byteLength" : 64,
            "byteOffset" : 192
        },
        {
            "buffer" : 0,
            "byteLength" : 24,
            "byteOffset" : 256
        },
        {
            "buffer" : 0,
            "byteLength" : 240,
            "byteOffset" : 280
        },
        {
            "buffer" : 0,
            "byteLength" : 240,
            "byteOffset" : 520
        },
        {
            "buffer" : 0,
            "byteLength" : 160,
            "byteOffset" : 760
        },
        {
            "buffer" : 0,
            "byteLength" : 48,
            "byteOffset" : 920
        },
        {
            "buffer" : 0,
            "byteLength" : 1416,
            "byteOffset" : 968
        },
        {
            "buffer" : 0,
            "byteLength" : 1416,
            "byteOffset" : 2384
        },
        {
            "buffer" : 0,
            "byteLength" : 944,
            "byteOffset" : 3800
        },
        {
            "buffer" : 0,
            "byteLength" : 276,
            "byteOffset" : 4744
        },
        {
            "buffer" : 0,
            "byteLength" : 168,
            "byteOffset" : 5020
        },
        {
            "buffer" : 0,
            "byteLength" : 168,
            "byteOffset" : 5188
        },
        {
            "buffer" : 0,
            "byteLength" : 112,
            "byteOffset" : 5356
        },
        {
            "buffer" : 0,
            "byteLength" : 36,
            "byteOffset" : 5468
        },
        {
            "buffer" : 0,
            "byteLength" : 264,
            "byteOffset" : 5504
        },
        {
            "buffer" : 0,
            "byteLength" : 264,
            "byteOffset" : 5768
        },
        {
            "buffer" : 0,
            "byteLength" : 176,
            "byteOffset" : 6032
        },
        {
            "buffer" : 0,
            "byteLength" : 48,
            "byteOffset" : 6208
        },
        {
            "buffer" : 0,
            "byteLength" : 120,
            "byteOffset" : 6256
        },
        {
            "buffer" : 0,
            "byteLength" : 120,
            "byteOffset" : 6376
        },
        {
            "buffer" : 0,
            "byteLength" : 80,
            "byteOffset" : 6496
        },
        {
            "buffer" : 0,
            "byteLength" : 24,
            "byteOffset" : 6576
        },
        {
            "buffer" : 0,
            "byteLength" : 48,
            "byteOffset" : 6600
        },
        {
            "buffer" : 0,
            "byteLength" : 48,
            "byteOffset" : 6648
        },
        {
            "buffer" : 0,
            "byteLength" : 32,
            "byteOffset" : 6696
        },
        {
            "buffer" : 0,
            "byteLength" : 12,
            "byteOffset" : 6728
        },
        {
            "buffer" : 0,
            "byteLength" : 96,
            "byteOffset" : 6740
        },
        {
            "buffer" : 0,
            "byteLength" : 96,
            "byteOffset" : 6836
        },
        {
            "buffer" : 0,
            "byteLength" : 64,
            "byteOffset" : 6932
        }
    ],
    "samplers" : [
        {
            "magFilter" : 9729,
            "minFilter" : 9987
        }
    ],
    "buffers" : [
        {
            "byteLength" : 6996,
            "uri" : "convenience_store.bin"
        }
    ]
}
