{
    "asset" : {
        "generator" : "Khronos glTF Blender I/O v1.7.33",
        "version" : "2.0"
    },
    "scene" : 0,
    "scenes" : [
        {
            "name" : "Scene",
            "nodes" : [
                0
            ]
        }
    ],
    "nodes" : [
        {
            "mesh" : 0,
            "name" : "Maxis-3d2-mesh-2",
            "rotation" : [
                0.7071068286895752,
                0,
                0,
                0.7071067094802856
            ]
        }
    ],
    "materials" : [
        {
            "doubleSided" : true,
            "name" : "mat40-27.001",
            "pbrMetallicRoughness" : {
                "baseColorTexture" : {
                    "index" : 0
                },
                "metallicFactor" : 0
            }
        },
        {
            "doubleSided" : true,
            "name" : "mat40-24.001",
            "pbrMetallicRoughness" : {
                "baseColorTexture" : {
                    "index" : 1
                },
                "metallicFactor" : 0
            }
        },
        {
            "doubleSided" : true,
            "name" : "mat40-26.001",
            "pbrMetallicRoughness" : {
                "baseColorTexture" : {
                    "index" : 2
                },
                "metallicFactor" : 0
            }
        },
        {
            "doubleSided" : true,
            "name" : "mat40-25.001",
            "pbrMetallicRoughness" : {
                "baseColorTexture" : {
                    "index" : 3
                },
                "metallicFactor" : 0
            }
        },
        {
            "doubleSided" : true,
            "name" : "mat40-54.001",
            "pbrMetallicRoughness" : {
                "baseColorTexture" : {
                    "index" : 4
                },
                "metallicFactor" : 0
            }
        },
        {
            "doubleSided" : true,
            "name" : "mat40-53.001",
            "pbrMetallicRoughness" : {
                "baseColorTexture" : {
                    "index" : 5
                },
                "metallicFactor" : 0
            }
        },
        {
            "doubleSided" : true,
            "name" : "mat40-52.007",
            "pbrMetallicRoughness" : {
                "baseColorTexture" : {
                    "index" : 6
                },
                "metallicFactor" : 0
            }
        },
        {
            "doubleSided" : true,
            "name" : "mat40-55.002",
            "pbrMetallicRoughness" : {
                "baseColorTexture" : {
                    "index" : 7
                },
                "metallicFactor" : 0
            }
        },
        {
            "doubleSided" : true,
            "name" : "matcolour-48.005",
            "pbrMetallicRoughness" : {
                "baseColorFactor" : [
                    0.05882352963089943,
                    0.05882352963089943,
                    0.05882352963089943,
                    1
                ],
                "metallicFactor" : 0
            }
        }
    ],
    "meshes" : [
        {
            "name" : "Maxis-3d2-mesh-2",
            "primitives" : [
                {
                    "attributes" : {
                        "POSITION" : 0,
                        "NORMAL" : 1,
                        "TEXCOORD_0" : 2
                    },
                    "indices" : 3,
                    "material" : 0
                },
                {
                    "attributes" : {
                        "POSITION" : 4,
                        "NORMAL" : 5,
                        "TEXCOORD_0" : 6
                    },
                    "indices" : 3,
                    "material" : 1
                },
                {
                    "attributes" : {
                        "POSITION" : 7,
                        "NORMAL" : 8,
                        "TEXCOORD_0" : 9
                    },
                    "indices" : 10,
                    "material" : 2
                },
                {
                    "attributes" : {
                        "POSITION" : 11,
                        "NORMAL" : 12,
                        "TEXCOORD_0" : 13
                    },
                    "indices" : 14,
                    "material" : 3
                },
                {
                    "attributes" : {
                        "POSITION" : 15,
                        "NORMAL" : 16,
                        "TEXCOORD_0" : 17
                    },
                    "indices" : 18,
                    "material" : 4
                },
                {
                    "attributes" : {
                        "POSITION" : 19,
                        "NORMAL" : 20,
                        "TEXCOORD_0" : 21
                    },
                    "indices" : 22,
                    "material" : 5
                },
                {
                    "attributes" : {
                        "POSITION" : 23,
                        "NORMAL" : 24,
                        "TEXCOORD_0" : 25
                    },
                    "indices" : 26,
                    "material" : 6
                },
                {
                    "attributes" : {
                        "POSITION" : 27,
                        "NORMAL" : 28,
                        "TEXCOORD_0" : 29
                    },
                    "indices" : 30,
                    "material" : 7
                },
                {
                    "attributes" : {
                        "POSITION" : 31,
                        "NORMAL" : 32,
                        "TEXCOORD_0" : 33
                    },
                    "indices" : 34,
                    "material" : 8
                }
            ]
        }
    ],
    "textures" : [
        {
            "sampler" : 0,
            "source" : 0
        },
        {
            "sampler" : 0,
            "source" : 1
        },
        {
            "sampler" : 0,
            "source" : 2
        },
        {
            "sampler" : 0,
            "source" : 3
        },
        {
            "sampler" : 0,
            "source" : 4
        },
        {
            "sampler" : 0,
            "source" : 5
        },
        {
            "sampler" : 0,
            "source" : 6
        },
        {
            "sampler" : 0,
            "source" : 7
        }
    ],
    "images" : [
        {
            "mimeType" : "image/png",
            "name" : "tex40-27",
            "uri" : "../../Textures/tex40-27.png"
        },
        {
            "mimeType" : "image/png",
            "name" : "tex40-24",
            "uri" : "../../Textures/tex40-24.png"
        },
        {
            "mimeType" : "image/png",
            "name" : "tex40-26",
            "uri" : "../../Textures/tex40-26.png"
        },
        {
            "mimeType" : "image/png",
            "name" : "tex40-25",
            "uri" : "../../Textures/tex40-25.png"
        },
        {
            "mimeType" : "image/png",
            "name" : "tex40-54",
            "uri" : "../../Textures/tex40-54.png"
        },
        {
            "mimeType" : "image/png",
            "name" : "tex40-53",
            "uri" : "../../Textures/tex40-53.png"
        },
        {
            "mimeType" : "image/png",
            "name" : "tex40-52",
            "uri" : "../../Textures/tex40-52.png"
        },
        {
            "mimeType" : "image/png",
            "name" : "tex40-55",
            "uri" : "../../Textures/tex40-55.png"
        }
    ],
    "accessors" : [
        {
            "bufferView" : 0,
            "componentType" : 5126,
            "count" : 4,
            "max" : [
                7.059429168701172,
                7.124839782714844,
                0
            ],
            "min" : [
                -6.9843292236328125,
                7.124835968017578,
                -10.85000228881836
            ],
            "type" : "VEC3"
        },
        {
            "bufferView" : 1,
            "componentType" : 5126,
            "count" : 4,
            "type" : "VEC3"
        },
        {
            "bufferView" : 2,
            "componentType" : 5126,
            "count" : 4,
            "type" : "VEC2"
        },
        {
            "bufferView" : 3,
            "componentType" : 5123,
            "count" : 6,
            "type" : "SCALAR"
        },
        {
            "bufferView" : 4,
            "componentType" : 5126,
            "count" : 4,
            "max" : [
                7.059429168701172,
                -6.994014739990234,
                0
            ],
            "min" : [
                -6.9843292236328125,
                -6.9940185546875,
                -10.849994659423828
            ],
            "type" : "VEC3"
        },
        {
            "bufferView" : 5,
            "componentType" : 5126,
            "count" : 4,
            "type" : "VEC3"
        },
        {
            "bufferView" : 6,
            "componentType" : 5126,
            "count" : 4,
            "type" : "VEC2"
        },
        {
            "bufferView" : 7,
            "componentType" : 5126,
            "count" : 6,
            "max" : [
                7.059429168701172,
                7.124839782714844,
                0
            ],
            "min" : [
                7.059429168701172,
                -6.9940185546875,
                -10.85000228881836
            ],
            "type" : "VEC3"
        },
        {
            "bufferView" : 8,
            "componentType" : 5126,
            "count" : 6,
            "type" : "VEC3"
        },
        {
            "bufferView" : 9,
            "componentType" : 5126,
            "count" : 6,
            "type" : "VEC2"
        },
        {
            "bufferView" : 10,
            "componentType" : 5123,
            "count" : 6,
            "type" : "SCALAR"
        },
        {
            "bufferView" : 11,
            "componentType" : 5126,
            "count" : 6,
            "max" : [
                -6.9843292236328125,
                7.124839782714844,
                0
            ],
            "min" : [
                -6.9843292236328125,
                -6.9940185546875,
                -10.85000228881836
            ],
            "type" : "VEC3"
        },
        {
            "bufferView" : 12,
            "componentType" : 5126,
            "count" : 6,
            "type" : "VEC3"
        },
        {
            "bufferView" : 13,
            "componentType" : 5126,
            "count" : 6,
            "type" : "VEC2"
        },
        {
            "bufferView" : 14,
            "componentType" : 5123,
            "count" : 6,
            "type" : "SCALAR"
        },
        {
            "bufferView" : 15,
            "componentType" : 5126,
            "count" : 13,
            "max" : [
                5.671123504638672,
                4.133415222167969,
                -10.849998474121094
            ],
            "min" : [
                -3.8427085876464844,
                -5.1665802001953125,
                -14.983333587646484
            ],
            "type" : "VEC3"
        },
        {
            "bufferView" : 16,
            "componentType" : 5126,
            "count" : 13,
            "type" : "VEC3"
        },
        {
            "bufferView" : 17,
            "componentType" : 5126,
            "count" : 13,
            "type" : "VEC2"
        },
        {
            "bufferView" : 18,
            "componentType" : 5123,
            "count" : 15,
            "type" : "SCALAR"
        },
        {
            "bufferView" : 19,
            "componentType" : 5126,
            "count" : 13,
            "max" : [
                1.429595947265625,
                4.133415222167969,
                -10.849998474121094
            ],
            "min" : [
                -5.4572906494140625,
                -5.1665802001953125,
                -14.983333587646484
            ],
            "type" : "VEC3"
        },
        {
            "bufferView" : 20,
            "componentType" : 5126,
            "count" : 13,
            "type" : "VEC3"
        },
        {
            "bufferView" : 21,
            "componentType" : 5126,
            "count" : 13,
            "type" : "VEC2"
        },
        {
            "bufferView" : 22,
            "componentType" : 5123,
            "count" : 15,
            "type" : "SCALAR"
        },
        {
            "bufferView" : 23,
            "componentType" : 5126,
            "count" : 8,
            "max" : [
                5.671123504638672,
                -4.4305877685546875,
                -10.849998474121094
            ],
            "min" : [
                -5.4572906494140625,
                -5.1665802001953125,
                -14.983333587646484
            ],
            "type" : "VEC3"
        },
        {
            "bufferView" : 24,
            "componentType" : 5126,
            "count" : 8,
            "type" : "VEC3"
        },
        {
            "bufferView" : 25,
            "componentType" : 5126,
            "count" : 8,
            "type" : "VEC2"
        },
        {
            "bufferView" : 26,
            "componentType" : 5123,
            "count" : 12,
            "type" : "SCALAR"
        },
        {
            "bufferView" : 27,
            "componentType" : 5126,
            "count" : 8,
            "max" : [
                5.671123504638672,
                4.133415222167969,
                -10.849998474121094
            ],
            "min" : [
                -5.4572906494140625,
                0.012908935546875,
                -13.38504409790039
            ],
            "type" : "VEC3"
        },
        {
            "bufferView" : 28,
            "componentType" : 5126,
            "count" : 8,
            "type" : "VEC3"
        },
        {
            "bufferView" : 29,
            "componentType" : 5126,
            "count" : 8,
            "type" : "VEC2"
        },
        {
            "bufferView" : 30,
            "componentType" : 5123,
            "count" : 12,
            "type" : "SCALAR"
        },
        {
            "bufferView" : 31,
            "componentType" : 5126,
            "count" : 56,
            "max" : [
                7.059429168701172,
                7.124835968017578,
                -10.849994659423828
            ],
            "min" : [
                -6.9843292236328125,
                -6.9940185546875,
                -14.983333587646484
            ],
            "type" : "VEC3"
        },
        {
            "bufferView" : 32,
            "componentType" : 5126,
            "count" : 56,
            "type" : "VEC3"
        },
        {
            "bufferView" : 33,
            "componentType" : 5126,
            "count" : 56,
            "type" : "VEC2"
        },
        {
            "bufferView" : 34,
            "componentType" : 5123,
            "count" : 60,
            "type" : "SCALAR"
        }
    ],
    "bufferViews" : [
        {
            "buffer" : 0,
            "byteLength" : 48,
            "byteOffset" : 0
        },
        {
            "buffer" : 0,
            "byteLength" : 48,
            "byteOffset" : 48
        },
        {
            "buffer" : 0,
            "byteLength" : 32,
            "byteOffset" : 96
        },
        {
            "buffer" : 0,
            "byteLength" : 12,
            "byteOffset" : 128
        },
        {
            "buffer" : 0,
            "byteLength" : 48,
            "byteOffset" : 140
        },
        {
            "buffer" : 0,
            "byteLength" : 48,
            "byteOffset" : 188
        },
        {
            "buffer" : 0,
            "byteLength" : 32,
            "byteOffset" : 236
        },
        {
            "buffer" : 0,
            "byteLength" : 72,
            "byteOffset" : 268
        },
        {
            "buffer" : 0,
            "byteLength" : 72,
            "byteOffset" : 340
        },
        {
            "buffer" : 0,
            "byteLength" : 48,
            "byteOffset" : 412
        },
        {
            "buffer" : 0,
            "byteLength" : 12,
            "byteOffset" : 460
        },
        {
            "buffer" : 0,
            "byteLength" : 72,
            "byteOffset" : 472
        },
        {
            "buffer" : 0,
            "byteLength" : 72,
            "byteOffset" : 544
        },
        {
            "buffer" : 0,
            "byteLength" : 48,
            "byteOffset" : 616
        },
        {
            "buffer" : 0,
            "byteLength" : 12,
            "byteOffset" : 664
        },
        {
            "buffer" : 0,
            "byteLength" : 156,
            "byteOffset" : 676
        },
        {
            "buffer" : 0,
            "byteLength" : 156,
            "byteOffset" : 832
        },
        {
            "buffer" : 0,
            "byteLength" : 104,
            "byteOffset" : 988
        },
        {
            "buffer" : 0,
            "byteLength" : 30,
            "byteOffset" : 1092
        },
        {
            "buffer" : 0,
            "byteLength" : 156,
            "byteOffset" : 1124
        },
        {
            "buffer" : 0,
            "byteLength" : 156,
            "byteOffset" : 1280
        },
        {
            "buffer" : 0,
            "byteLength" : 104,
            "byteOffset" : 1436
        },
        {
            "buffer" : 0,
            "byteLength" : 30,
            "byteOffset" : 1540
        },
        {
            "buffer" : 0,
            "byteLength" : 96,
            "byteOffset" : 1572
        },
        {
            "buffer" : 0,
            "byteLength" : 96,
            "byteOffset" : 1668
        },
        {
            "buffer" : 0,
            "byteLength" : 64,
            "byteOffset" : 1764
        },
        {
            "buffer" : 0,
            "byteLength" : 24,
            "byteOffset" : 1828
        },
        {
            "buffer" : 0,
            "byteLength" : 96,
            "byteOffset" : 1852
        },
        {
            "buffer" : 0,
            "byteLength" : 96,
            "byteOffset" : 1948
        },
        {
            "buffer" : 0,
            "byteLength" : 64,
            "byteOffset" : 2044
        },
        {
            "buffer" : 0,
            "byteLength" : 24,
            "byteOffset" : 2108
        },
        {
            "buffer" : 0,
            "byteLength" : 672,
            "byteOffset" : 2132
        },
        {
            "buffer" : 0,
            "byteLength" : 672,
            "byteOffset" : 2804
        },
        {
            "buffer" : 0,
            "byteLength" : 448,
            "byteOffset" : 3476
        },
        {
            "buffer" : 0,
            "byteLength" : 120,
            "byteOffset" : 3924
        }
    ],
    "samplers" : [
        {
            "magFilter" : 9729,
            "minFilter" : 9987
        }
    ],
    "buffers" : [
        {
            "byteLength" : 4044,
            "uri" : "industrial_substation.bin"
        }
    ]
}
