{
    "asset" : {
        "generator" : "Khronos glTF Blender I/O v1.7.33",
        "version" : "2.0"
    },
    "scene" : 0,
    "scenes" : [
        {
            "name" : "Scene",
            "nodes" : [
                0
            ]
        }
    ],
    "nodes" : [
        {
            "mesh" : 0,
            "name" : "Maxis-3d3-mesh-77",
            "rotation" : [
                0.7071068286895752,
                0,
                0,
                0.7071067094802856
            ]
        }
    ],
    "materials" : [
        {
            "doubleSided" : true,
            "name" : "matcolour-16.001",
            "pbrMetallicRoughness" : {
                "baseColorFactor" : [
                    0.5607843399047852,
                    0.062745101749897,
                    0.019607843831181526,
                    1
                ],
                "metallicFactor" : 0
            }
        },
        {
            "doubleSided" : true,
            "name" : "mat40-55.007",
            "pbrMetallicRoughness" : {
                "baseColorTexture" : {
                    "index" : 0
                },
                "metallicFactor" : 0
            }
        },
        {
            "doubleSided" : true,
            "name" : "mat40-54.002",
            "pbrMetallicRoughness" : {
                "baseColorTexture" : {
                    "index" : 1
                },
                "metallicFactor" : 0
            }
        },
        {
            "doubleSided" : true,
            "name" : "mat40-53.002",
            "pbrMetallicRoughness" : {
                "baseColorTexture" : {
                    "index" : 2
                },
                "metallicFactor" : 0
            }
        },
        {
            "doubleSided" : true,
            "name" : "matcolour-128.001",
            "pbrMetallicRoughness" : {
                "baseColorFactor" : [
                    0.12156862765550613,
                    0.08235294371843338,
                    0.062745101749897,
                    1
                ],
                "metallicFactor" : 0
            }
        },
        {
            "doubleSided" : true,
            "name" : "mat40-30.001",
            "pbrMetallicRoughness" : {
                "baseColorTexture" : {
                    "index" : 3
                },
                "metallicFactor" : 0
            }
        },
        {
            "doubleSided" : true,
            "name" : "mat40-29.001",
            "pbrMetallicRoughness" : {
                "baseColorTexture" : {
                    "index" : 4
                },
                "metallicFactor" : 0
            }
        },
        {
            "doubleSided" : true,
            "name" : "mat40-31.001",
            "pbrMetallicRoughness" : {
                "baseColorTexture" : {
                    "index" : 5
                },
                "metallicFactor" : 0
            }
        },
        {
            "doubleSided" : true,
            "name" : "mat40-28",
            "pbrMetallicRoughness" : {
                "baseColorTexture" : {
                    "index" : 6
                },
                "metallicFactor" : 0
            }
        }
    ],
    "meshes" : [
        {
            "name" : "Maxis-3d3-mesh-77",
            "primitives" : [
                {
                    "attributes" : {
                        "POSITION" : 0,
                        "NORMAL" : 1,
                        "TEXCOORD_0" : 2
                    },
                    "indices" : 3,
                    "material" : 0
                },
                {
                    "attributes" : {
                        "POSITION" : 4,
                        "NORMAL" : 5,
                        "TEXCOORD_0" : 6
                    },
                    "indices" : 7,
                    "material" : 1
                },
                {
                    "attributes" : {
                        "POSITION" : 8,
                        "NORMAL" : 9,
                        "TEXCOORD_0" : 10
                    },
                    "indices" : 11,
                    "material" : 2
                },
                {
                    "attributes" : {
                        "POSITION" : 12,
                        "NORMAL" : 13,
                        "TEXCOORD_0" : 14
                    },
                    "indices" : 15,
                    "material" : 3
                },
                {
                    "attributes" : {
                        "POSITION" : 16,
                        "NORMAL" : 17,
                        "TEXCOORD_0" : 18
                    },
                    "indices" : 19,
                    "material" : 4
                },
                {
                    "attributes" : {
                        "POSITION" : 20,
                        "NORMAL" : 21,
                        "TEXCOORD_0" : 22
                    },
                    "indices" : 23,
                    "material" : 5
                },
                {
                    "attributes" : {
                        "POSITION" : 24,
                        "NORMAL" : 25,
                        "TEXCOORD_0" : 26
                    },
                    "indices" : 27,
                    "material" : 6
                },
                {
                    "attributes" : {
                        "POSITION" : 28,
                        "NORMAL" : 29,
                        "TEXCOORD_0" : 30
                    },
                    "indices" : 31,
                    "material" : 7
                },
                {
                    "attributes" : {
                        "POSITION" : 32,
                        "NORMAL" : 33,
                        "TEXCOORD_0" : 34
                    },
                    "indices" : 35,
                    "material" : 8
                }
            ]
        }
    ],
    "textures" : [
        {
            "sampler" : 0,
            "source" : 0
        },
        {
            "sampler" : 0,
            "source" : 1
        },
        {
            "sampler" : 0,
            "source" : 2
        },
        {
            "sampler" : 0,
            "source" : 3
        },
        {
            "sampler" : 0,
            "source" : 4
        },
        {
            "sampler" : 0,
            "source" : 5
        },
        {
            "sampler" : 0,
            "source" : 6
        }
    ],
    "images" : [
        {
            "mimeType" : "image/png",
            "name" : "tex40-55",
            "uri" : "../../Textures/tex40-55.png"
        },
        {
            "mimeType" : "image/png",
            "name" : "tex40-54",
            "uri" : "../../Textures/tex40-54.png"
        },
        {
            "mimeType" : "image/png",
            "name" : "tex40-53",
            "uri" : "../../Textures/tex40-53.png"
        },
        {
            "mimeType" : "image/png",
            "name" : "tex40-30",
            "uri" : "../../Textures/tex40-30.png"
        },
        {
            "mimeType" : "image/png",
            "name" : "tex40-29",
            "uri" : "../../Textures/tex40-29.png"
        },
        {
            "mimeType" : "image/png",
            "name" : "tex40-31",
            "uri" : "../../Textures/tex40-31.png"
        },
        {
            "mimeType" : "image/png",
            "name" : "tex40-28",
            "uri" : "../../Textures/tex40-28.png"
        }
    ],
    "accessors" : [
        {
            "bufferView" : 0,
            "componentType" : 5126,
            "count" : 115,
            "max" : [
                23,
                22.999996185302734,
                -0.166656494140625
            ],
            "min" : [
                -23,
                -22.999996185302734,
                -0.16667556762695312
            ],
            "type" : "VEC3"
        },
        {
            "bufferView" : 1,
            "componentType" : 5126,
            "count" : 115,
            "type" : "VEC3"
        },
        {
            "bufferView" : 2,
            "componentType" : 5126,
            "count" : 115,
            "type" : "VEC2"
        },
        {
            "bufferView" : 3,
            "componentType" : 5123,
            "count" : 132,
            "type" : "SCALAR"
        },
        {
            "bufferView" : 4,
            "componentType" : 5126,
            "count" : 16,
            "max" : [
                10.029537200927734,
                2.6164016723632812,
                -0.16666793823242188
            ],
            "min" : [
                -8.939369201660156,
                2.6163978576660156,
                -6.666664123535156
            ],
            "type" : "VEC3"
        },
        {
            "bufferView" : 5,
            "componentType" : 5126,
            "count" : 16,
            "type" : "VEC3"
        },
        {
            "bufferView" : 6,
            "componentType" : 5126,
            "count" : 16,
            "type" : "VEC2"
        },
        {
            "bufferView" : 7,
            "componentType" : 5123,
            "count" : 18,
            "type" : "SCALAR"
        },
        {
            "bufferView" : 8,
            "componentType" : 5126,
            "count" : 9,
            "max" : [
                10.029537200927734,
                5.429035186767578,
                -0.16666793823242188
            ],
            "min" : [
                2.932544708251953,
                -8.503303527832031,
                -9.666664123535156
            ],
            "type" : "VEC3"
        },
        {
            "bufferView" : 9,
            "componentType" : 5126,
            "count" : 9,
            "type" : "VEC3"
        },
        {
            "bufferView" : 10,
            "componentType" : 5126,
            "count" : 9,
            "type" : "VEC2"
        },
        {
            "bufferView" : 11,
            "componentType" : 5123,
            "count" : 9,
            "type" : "SCALAR"
        },
        {
            "bufferView" : 12,
            "componentType" : 5126,
            "count" : 9,
            "max" : [
                -7.974571228027344,
                5.429035186767578,
                -0.16666793823242188
            ],
            "min" : [
                -8.939369201660156,
                -8.503303527832031,
                -9.666664123535156
            ],
            "type" : "VEC3"
        },
        {
            "bufferView" : 13,
            "componentType" : 5126,
            "count" : 9,
            "type" : "VEC3"
        },
        {
            "bufferView" : 14,
            "componentType" : 5126,
            "count" : 9,
            "type" : "VEC2"
        },
        {
            "bufferView" : 15,
            "componentType" : 5123,
            "count" : 9,
            "type" : "SCALAR"
        },
        {
            "bufferView" : 16,
            "componentType" : 5126,
            "count" : 18,
            "max" : [
                10.029537200927734,
                5.4290313720703125,
                -3.6106109619140625
            ],
            "min" : [
                -8.939369201660156,
                -8.503303527832031,
                -9.666664123535156
            ],
            "type" : "VEC3"
        },
        {
            "bufferView" : 17,
            "componentType" : 5126,
            "count" : 18,
            "type" : "VEC3"
        },
        {
            "bufferView" : 18,
            "componentType" : 5126,
            "count" : 18,
            "type" : "VEC2"
        },
        {
            "bufferView" : 19,
            "componentType" : 5123,
            "count" : 18,
            "type" : "SCALAR"
        },
        {
            "bufferView" : 20,
            "componentType" : 5126,
            "count" : 6,
            "max" : [
                10.029537200927734,
                2.6164016723632812,
                -0.16666030883789062
            ],
            "min" : [
                10.029537200927734,
                -8.503303527832031,
                -6.666664123535156
            ],
            "type" : "VEC3"
        },
        {
            "bufferView" : 21,
            "componentType" : 5126,
            "count" : 6,
            "type" : "VEC3"
        },
        {
            "bufferView" : 22,
            "componentType" : 5126,
            "count" : 6,
            "type" : "VEC2"
        },
        {
            "bufferView" : 23,
            "componentType" : 5123,
            "count" : 6,
            "type" : "SCALAR"
        },
        {
            "bufferView" : 24,
            "componentType" : 5126,
            "count" : 6,
            "max" : [
                -8.939369201660156,
                2.6164016723632812,
                -0.16666030883789062
            ],
            "min" : [
                -8.939369201660156,
                -8.503303527832031,
                -6.666664123535156
            ],
            "type" : "VEC3"
        },
        {
            "bufferView" : 25,
            "componentType" : 5126,
            "count" : 6,
            "type" : "VEC3"
        },
        {
            "bufferView" : 26,
            "componentType" : 5126,
            "count" : 6,
            "type" : "VEC2"
        },
        {
            "bufferView" : 27,
            "componentType" : 5123,
            "count" : 6,
            "type" : "SCALAR"
        },
        {
            "bufferView" : 28,
            "componentType" : 5126,
            "count" : 4,
            "max" : [
                2.932544708251953,
                5.429035186767578,
                -0.16666793823242188
            ],
            "min" : [
                -7.974571228027344,
                5.4290313720703125,
                -3.6106109619140625
            ],
            "type" : "VEC3"
        },
        {
            "bufferView" : 29,
            "componentType" : 5126,
            "count" : 4,
            "type" : "VEC3"
        },
        {
            "bufferView" : 30,
            "componentType" : 5126,
            "count" : 4,
            "type" : "VEC2"
        },
        {
            "bufferView" : 31,
            "componentType" : 5123,
            "count" : 6,
            "type" : "SCALAR"
        },
        {
            "bufferView" : 32,
            "componentType" : 5126,
            "count" : 6,
            "max" : [
                10.029537200927734,
                -8.503299713134766,
                -0.16666030883789062
            ],
            "min" : [
                -8.939369201660156,
                -8.503303527832031,
                -6.666660308837891
            ],
            "type" : "VEC3"
        },
        {
            "bufferView" : 33,
            "componentType" : 5126,
            "count" : 6,
            "type" : "VEC3"
        },
        {
            "bufferView" : 34,
            "componentType" : 5126,
            "count" : 6,
            "type" : "VEC2"
        },
        {
            "bufferView" : 35,
            "componentType" : 5123,
            "count" : 6,
            "type" : "SCALAR"
        }
    ],
    "bufferViews" : [
        {
            "buffer" : 0,
            "byteLength" : 1380,
            "byteOffset" : 0
        },
        {
            "buffer" : 0,
            "byteLength" : 1380,
            "byteOffset" : 1380
        },
        {
            "buffer" : 0,
            "byteLength" : 920,
            "byteOffset" : 2760
        },
        {
            "buffer" : 0,
            "byteLength" : 264,
            "byteOffset" : 3680
        },
        {
            "buffer" : 0,
            "byteLength" : 192,
            "byteOffset" : 3944
        },
        {
            "buffer" : 0,
            "byteLength" : 192,
            "byteOffset" : 4136
        },
        {
            "buffer" : 0,
            "byteLength" : 128,
            "byteOffset" : 4328
        },
        {
            "buffer" : 0,
            "byteLength" : 36,
            "byteOffset" : 4456
        },
        {
            "buffer" : 0,
            "byteLength" : 108,
            "byteOffset" : 4492
        },
        {
            "buffer" : 0,
            "byteLength" : 108,
            "byteOffset" : 4600
        },
        {
            "buffer" : 0,
            "byteLength" : 72,
            "byteOffset" : 4708
        },
        {
            "buffer" : 0,
            "byteLength" : 18,
            "byteOffset" : 4780
        },
        {
            "buffer" : 0,
            "byteLength" : 108,
            "byteOffset" : 4800
        },
        {
            "buffer" : 0,
            "byteLength" : 108,
            "byteOffset" : 4908
        },
        {
            "buffer" : 0,
            "byteLength" : 72,
            "byteOffset" : 5016
        },
        {
            "buffer" : 0,
            "byteLength" : 18,
            "byteOffset" : 5088
        },
        {
            "buffer" : 0,
            "byteLength" : 216,
            "byteOffset" : 5108
        },
        {
            "buffer" : 0,
            "byteLength" : 216,
            "byteOffset" : 5324
        },
        {
            "buffer" : 0,
            "byteLength" : 144,
            "byteOffset" : 5540
        },
        {
            "buffer" : 0,
            "byteLength" : 36,
            "byteOffset" : 5684
        },
        {
            "buffer" : 0,
            "byteLength" : 72,
            "byteOffset" : 5720
        },
        {
            "buffer" : 0,
            "byteLength" : 72,
            "byteOffset" : 5792
        },
        {
            "buffer" : 0,
            "byteLength" : 48,
            "byteOffset" : 5864
        },
        {
            "buffer" : 0,
            "byteLength" : 12,
            "byteOffset" : 5912
        },
        {
            "buffer" : 0,
            "byteLength" : 72,
            "byteOffset" : 5924
        },
        {
            "buffer" : 0,
            "byteLength" : 72,
            "byteOffset" : 5996
        },
        {
            "buffer" : 0,
            "byteLength" : 48,
            "byteOffset" : 6068
        },
        {
            "buffer" : 0,
            "byteLength" : 12,
            "byteOffset" : 6116
        },
        {
            "buffer" : 0,
            "byteLength" : 48,
            "byteOffset" : 6128
        },
        {
            "buffer" : 0,
            "byteLength" : 48,
            "byteOffset" : 6176
        },
        {
            "buffer" : 0,
            "byteLength" : 32,
            "byteOffset" : 6224
        },
        {
            "buffer" : 0,
            "byteLength" : 12,
            "byteOffset" : 6256
        },
        {
            "buffer" : 0,
            "byteLength" : 72,
            "byteOffset" : 6268
        },
        {
            "buffer" : 0,
            "byteLength" : 72,
            "byteOffset" : 6340
        },
        {
            "buffer" : 0,
            "byteLength" : 48,
            "byteOffset" : 6412
        },
        {
            "buffer" : 0,
            "byteLength" : 12,
            "byteOffset" : 6460
        }
    ],
    "samplers" : [
        {
            "magFilter" : 9729,
            "minFilter" : 9987
        }
    ],
    "buffers" : [
        {
            "byteLength" : 6472,
            "uri" : "marina.bin"
        }
    ]
}
