{
    "asset" : {
        "generator" : "Khronos glTF Blender I/O v1.7.33",
        "version" : "2.0"
    },
    "scene" : 0,
    "scenes" : [
        {
            "name" : "Scene",
            "nodes" : [
                0
            ]
        }
    ],
    "nodes" : [
        {
            "mesh" : 0,
            "name" : "Maxis-3d1-mesh-52",
            "rotation" : [
                0.7071068286895752,
                0,
                0,
                0.7071067094802856
            ]
        }
    ],
    "materials" : [
        {
            "doubleSided" : true,
            "name" : "mat40-3",
            "pbrMetallicRoughness" : {
                "baseColorTexture" : {
                    "index" : 0
                },
                "metallicFactor" : 0
            }
        },
        {
            "doubleSided" : true,
            "name" : "mat40-0",
            "pbrMetallicRoughness" : {
                "baseColorTexture" : {
                    "index" : 1
                },
                "metallicFactor" : 0
            }
        },
        {
            "doubleSided" : true,
            "name" : "mat40-1",
            "pbrMetallicRoughness" : {
                "baseColorTexture" : {
                    "index" : 2
                },
                "metallicFactor" : 0
            }
        },
        {
            "doubleSided" : true,
            "name" : "mat40-2",
            "pbrMetallicRoughness" : {
                "baseColorTexture" : {
                    "index" : 3
                },
                "metallicFactor" : 0
            }
        },
        {
            "doubleSided" : true,
            "name" : "mat2-41",
            "pbrMetallicRoughness" : {
                "baseColorTexture" : {
                    "index" : 4
                },
                "metallicFactor" : 0
            }
        },
        {
            "doubleSided" : true,
            "name" : "matcolour-48.012",
            "pbrMetallicRoughness" : {
                "baseColorFactor" : [
                    0.05882352963089943,
                    0.05882352963089943,
                    0.05882352963089943,
                    1
                ],
                "metallicFactor" : 0
            }
        }
    ],
    "meshes" : [
        {
            "name" : "Maxis-3d1-mesh-52",
            "primitives" : [
                {
                    "attributes" : {
                        "POSITION" : 0,
                        "NORMAL" : 1,
                        "TEXCOORD_0" : 2
                    },
                    "indices" : 3,
                    "material" : 0
                },
                {
                    "attributes" : {
                        "POSITION" : 4,
                        "NORMAL" : 5,
                        "TEXCOORD_0" : 6
                    },
                    "indices" : 7,
                    "material" : 1
                },
                {
                    "attributes" : {
                        "POSITION" : 8,
                        "NORMAL" : 9,
                        "TEXCOORD_0" : 10
                    },
                    "indices" : 11,
                    "material" : 2
                },
                {
                    "attributes" : {
                        "POSITION" : 12,
                        "NORMAL" : 13,
                        "TEXCOORD_0" : 14
                    },
                    "indices" : 15,
                    "material" : 3
                },
                {
                    "attributes" : {
                        "POSITION" : 16,
                        "NORMAL" : 17,
                        "TEXCOORD_0" : 18
                    },
                    "indices" : 19,
                    "material" : 4
                },
                {
                    "attributes" : {
                        "POSITION" : 20,
                        "NORMAL" : 21,
                        "TEXCOORD_0" : 22
                    },
                    "indices" : 23,
                    "material" : 5
                }
            ]
        }
    ],
    "textures" : [
        {
            "sampler" : 0,
            "source" : 0
        },
        {
            "sampler" : 0,
            "source" : 1
        },
        {
            "sampler" : 0,
            "source" : 2
        },
        {
            "sampler" : 0,
            "source" : 3
        },
        {
            "sampler" : 0,
            "source" : 4
        }
    ],
    "images" : [
        {
            "mimeType" : "image/png",
            "name" : "tex40-3",
            "uri" : "../../Textures/tex40-3.png"
        },
        {
            "mimeType" : "image/png",
            "name" : "tex40-0",
            "uri" : "../../Textures/tex40-0.png"
        },
        {
            "mimeType" : "image/png",
            "name" : "tex40-1",
            "uri" : "../../Textures/tex40-1.png"
        },
        {
            "mimeType" : "image/png",
            "name" : "tex40-2",
            "uri" : "../../Textures/tex40-2.png"
        },
        {
            "mimeType" : "image/png",
            "name" : "tex2-41",
            "uri" : "../../Textures/tex2-41.png"
        }
    ],
    "accessors" : [
        {
            "bufferView" : 0,
            "componentType" : 5126,
            "count" : 38,
            "max" : [
                22.499996185302734,
                22.00000762939453,
                0
            ],
            "min" : [
                -22.500003814697266,
                -13,
                -30
            ],
            "type" : "VEC3"
        },
        {
            "bufferView" : 1,
            "componentType" : 5126,
            "count" : 38,
            "type" : "VEC3"
        },
        {
            "bufferView" : 2,
            "componentType" : 5126,
            "count" : 38,
            "type" : "VEC2"
        },
        {
            "bufferView" : 3,
            "componentType" : 5123,
            "count" : 42,
            "type" : "SCALAR"
        },
        {
            "bufferView" : 4,
            "componentType" : 5126,
            "count" : 28,
            "max" : [
                22.500003814697266,
                9.000003814697266,
                3.814697265625e-06
            ],
            "min" : [
                -22.49999237060547,
                -22.000003814697266,
                -29.999996185302734
            ],
            "type" : "VEC3"
        },
        {
            "bufferView" : 5,
            "componentType" : 5126,
            "count" : 28,
            "type" : "VEC3"
        },
        {
            "bufferView" : 6,
            "componentType" : 5126,
            "count" : 28,
            "type" : "VEC2"
        },
        {
            "bufferView" : 7,
            "componentType" : 5123,
            "count" : 36,
            "type" : "SCALAR"
        },
        {
            "bufferView" : 8,
            "componentType" : 5126,
            "count" : 28,
            "max" : [
                19.500003814697266,
                22,
                3.814697265625e-06
            ],
            "min" : [
                -22.500003814697266,
                -22.000003814697266,
                -30
            ],
            "type" : "VEC3"
        },
        {
            "bufferView" : 9,
            "componentType" : 5126,
            "count" : 28,
            "type" : "VEC3"
        },
        {
            "bufferView" : 10,
            "componentType" : 5126,
            "count" : 28,
            "type" : "VEC2"
        },
        {
            "bufferView" : 11,
            "componentType" : 5123,
            "count" : 30,
            "type" : "SCALAR"
        },
        {
            "bufferView" : 12,
            "componentType" : 5126,
            "count" : 42,
            "max" : [
                22.500003814697266,
                22.00000762939453,
                0
            ],
            "min" : [
                -4.5,
                -21.99999237060547,
                -30
            ],
            "type" : "VEC3"
        },
        {
            "bufferView" : 13,
            "componentType" : 5126,
            "count" : 42,
            "type" : "VEC3"
        },
        {
            "bufferView" : 14,
            "componentType" : 5126,
            "count" : 42,
            "type" : "VEC2"
        },
        {
            "bufferView" : 15,
            "componentType" : 5123,
            "count" : 48,
            "type" : "SCALAR"
        },
        {
            "bufferView" : 16,
            "componentType" : 5126,
            "count" : 6,
            "max" : [
                22.511539459228516,
                6.8223419189453125,
                0
            ],
            "min" : [
                22.511539459228516,
                -6.719322204589844,
                -3.691497802734375
            ],
            "type" : "VEC3"
        },
        {
            "bufferView" : 17,
            "componentType" : 5126,
            "count" : 6,
            "type" : "VEC3"
        },
        {
            "bufferView" : 18,
            "componentType" : 5126,
            "count" : 6,
            "type" : "VEC2"
        },
        {
            "bufferView" : 19,
            "componentType" : 5123,
            "count" : 6,
            "type" : "SCALAR"
        },
        {
            "bufferView" : 20,
            "componentType" : 5126,
            "count" : 94,
            "max" : [
                22.500003814697266,
                22.000003814697266,
                -13.954559326171875
            ],
            "min" : [
                -22.500003814697266,
                -22.000003814697266,
                -30
            ],
            "type" : "VEC3"
        },
        {
            "bufferView" : 21,
            "componentType" : 5126,
            "count" : 94,
            "type" : "VEC3"
        },
        {
            "bufferView" : 22,
            "componentType" : 5126,
            "count" : 94,
            "type" : "VEC2"
        },
        {
            "bufferView" : 23,
            "componentType" : 5123,
            "count" : 102,
            "type" : "SCALAR"
        }
    ],
    "bufferViews" : [
        {
            "buffer" : 0,
            "byteLength" : 456,
            "byteOffset" : 0
        },
        {
            "buffer" : 0,
            "byteLength" : 456,
            "byteOffset" : 456
        },
        {
            "buffer" : 0,
            "byteLength" : 304,
            "byteOffset" : 912
        },
        {
            "buffer" : 0,
            "byteLength" : 84,
            "byteOffset" : 1216
        },
        {
            "buffer" : 0,
            "byteLength" : 336,
            "byteOffset" : 1300
        },
        {
            "buffer" : 0,
            "byteLength" : 336,
            "byteOffset" : 1636
        },
        {
            "buffer" : 0,
            "byteLength" : 224,
            "byteOffset" : 1972
        },
        {
            "buffer" : 0,
            "byteLength" : 72,
            "byteOffset" : 2196
        },
        {
            "buffer" : 0,
            "byteLength" : 336,
            "byteOffset" : 2268
        },
        {
            "buffer" : 0,
            "byteLength" : 336,
            "byteOffset" : 2604
        },
        {
            "buffer" : 0,
            "byteLength" : 224,
            "byteOffset" : 2940
        },
        {
            "buffer" : 0,
            "byteLength" : 60,
            "byteOffset" : 3164
        },
        {
            "buffer" : 0,
            "byteLength" : 504,
            "byteOffset" : 3224
        },
        {
            "buffer" : 0,
            "byteLength" : 504,
            "byteOffset" : 3728
        },
        {
            "buffer" : 0,
            "byteLength" : 336,
            "byteOffset" : 4232
        },
        {
            "buffer" : 0,
            "byteLength" : 96,
            "byteOffset" : 4568
        },
        {
            "buffer" : 0,
            "byteLength" : 72,
            "byteOffset" : 4664
        },
        {
            "buffer" : 0,
            "byteLength" : 72,
            "byteOffset" : 4736
        },
        {
            "buffer" : 0,
            "byteLength" : 48,
            "byteOffset" : 4808
        },
        {
            "buffer" : 0,
            "byteLength" : 12,
            "byteOffset" : 4856
        },
        {
            "buffer" : 0,
            "byteLength" : 1128,
            "byteOffset" : 4868
        },
        {
            "buffer" : 0,
            "byteLength" : 1128,
            "byteOffset" : 5996
        },
        {
            "buffer" : 0,
            "byteLength" : 752,
            "byteOffset" : 7124
        },
        {
            "buffer" : 0,
            "byteLength" : 204,
            "byteOffset" : 7876
        }
    ],
    "samplers" : [
        {
            "magFilter" : 9729,
            "minFilter" : 9987
        }
    ],
    "buffers" : [
        {
            "byteLength" : 8080,
            "uri" : "museum.bin"
        }
    ]
}
