{
    "asset" : {
        "generator" : "Khronos glTF Blender I/O v1.7.33",
        "version" : "2.0"
    },
    "scene" : 0,
    "scenes" : [
        {
            "name" : "Scene",
            "nodes" : [
                0
            ]
        }
    ],
    "nodes" : [
        {
            "mesh" : 0,
            "name" : "Maxis-3d1-mesh-55",
            "rotation" : [
                0.7071068286895752,
                0,
                0,
                0.7071067094802856
            ]
        }
    ],
    "materials" : [
        {
            "doubleSided" : true,
            "name" : "mat40-12.003",
            "pbrMetallicRoughness" : {
                "baseColorTexture" : {
                    "index" : 0
                },
                "metallicFactor" : 0
            }
        },
        {
            "doubleSided" : true,
            "name" : "mat40-15.003",
            "pbrMetallicRoughness" : {
                "baseColorTexture" : {
                    "index" : 1
                },
                "metallicFactor" : 0
            }
        },
        {
            "doubleSided" : true,
            "name" : "mat40-13.003",
            "pbrMetallicRoughness" : {
                "baseColorTexture" : {
                    "index" : 2
                },
                "metallicFactor" : 0
            }
        },
        {
            "doubleSided" : true,
            "name" : "mat40-14.003",
            "pbrMetallicRoughness" : {
                "baseColorTexture" : {
                    "index" : 3
                },
                "metallicFactor" : 0
            }
        },
        {
            "doubleSided" : true,
            "name" : "matcolour-48.015",
            "pbrMetallicRoughness" : {
                "baseColorFactor" : [
                    0.05882352963089943,
                    0.05882352963089943,
                    0.05882352963089943,
                    1
                ],
                "metallicFactor" : 0
            }
        },
        {
            "doubleSided" : true,
            "name" : "mat40-52.009",
            "pbrMetallicRoughness" : {
                "baseColorTexture" : {
                    "index" : 4
                },
                "metallicFactor" : 0
            }
        },
        {
            "doubleSided" : true,
            "name" : "mat40-55.009",
            "pbrMetallicRoughness" : {
                "baseColorTexture" : {
                    "index" : 5
                },
                "metallicFactor" : 0
            }
        },
        {
            "doubleSided" : true,
            "name" : "mat40-53.008",
            "pbrMetallicRoughness" : {
                "baseColorTexture" : {
                    "index" : 6
                },
                "metallicFactor" : 0
            }
        },
        {
            "doubleSided" : true,
            "name" : "mat40-54.008",
            "pbrMetallicRoughness" : {
                "baseColorTexture" : {
                    "index" : 7
                },
                "metallicFactor" : 0
            }
        }
    ],
    "meshes" : [
        {
            "name" : "Maxis-3d1-mesh-55",
            "primitives" : [
                {
                    "attributes" : {
                        "POSITION" : 0,
                        "NORMAL" : 1,
                        "TEXCOORD_0" : 2
                    },
                    "indices" : 3,
                    "material" : 0
                },
                {
                    "attributes" : {
                        "POSITION" : 4,
                        "NORMAL" : 5,
                        "TEXCOORD_0" : 6
                    },
                    "indices" : 7,
                    "material" : 1
                },
                {
                    "attributes" : {
                        "POSITION" : 8,
                        "NORMAL" : 9,
                        "TEXCOORD_0" : 10
                    },
                    "indices" : 11,
                    "material" : 2
                },
                {
                    "attributes" : {
                        "POSITION" : 12,
                        "NORMAL" : 13,
                        "TEXCOORD_0" : 14
                    },
                    "indices" : 15,
                    "material" : 3
                },
                {
                    "attributes" : {
                        "POSITION" : 16,
                        "NORMAL" : 17,
                        "TEXCOORD_0" : 18
                    },
                    "indices" : 19,
                    "material" : 4
                },
                {
                    "attributes" : {
                        "POSITION" : 20,
                        "NORMAL" : 21,
                        "TEXCOORD_0" : 22
                    },
                    "indices" : 23,
                    "material" : 5
                },
                {
                    "attributes" : {
                        "POSITION" : 24,
                        "NORMAL" : 25,
                        "TEXCOORD_0" : 26
                    },
                    "indices" : 27,
                    "material" : 6
                },
                {
                    "attributes" : {
                        "POSITION" : 28,
                        "NORMAL" : 29,
                        "TEXCOORD_0" : 30
                    },
                    "indices" : 31,
                    "material" : 7
                },
                {
                    "attributes" : {
                        "POSITION" : 32,
                        "NORMAL" : 33,
                        "TEXCOORD_0" : 34
                    },
                    "indices" : 35,
                    "material" : 8
                }
            ]
        }
    ],
    "textures" : [
        {
            "sampler" : 0,
            "source" : 0
        },
        {
            "sampler" : 0,
            "source" : 1
        },
        {
            "sampler" : 0,
            "source" : 2
        },
        {
            "sampler" : 0,
            "source" : 3
        },
        {
            "sampler" : 0,
            "source" : 4
        },
        {
            "sampler" : 0,
            "source" : 5
        },
        {
            "sampler" : 0,
            "source" : 6
        },
        {
            "sampler" : 0,
            "source" : 7
        }
    ],
    "images" : [
        {
            "mimeType" : "image/png",
            "name" : "tex40-12",
            "uri" : "../../Textures/tex40-12.png"
        },
        {
            "mimeType" : "image/png",
            "name" : "tex40-15",
            "uri" : "../../Textures/tex40-15.png"
        },
        {
            "mimeType" : "image/png",
            "name" : "tex40-13",
            "uri" : "../../Textures/tex40-13.png"
        },
        {
            "mimeType" : "image/png",
            "name" : "tex40-14",
            "uri" : "../../Textures/tex40-14.png"
        },
        {
            "mimeType" : "image/png",
            "name" : "tex40-52",
            "uri" : "../../Textures/tex40-52.png"
        },
        {
            "mimeType" : "image/png",
            "name" : "tex40-55",
            "uri" : "../../Textures/tex40-55.png"
        },
        {
            "mimeType" : "image/png",
            "name" : "tex40-53",
            "uri" : "../../Textures/tex40-53.png"
        },
        {
            "mimeType" : "image/png",
            "name" : "tex40-54",
            "uri" : "../../Textures/tex40-54.png"
        }
    ],
    "accessors" : [
        {
            "bufferView" : 0,
            "componentType" : 5126,
            "count" : 10,
            "max" : [
                21.004375457763672,
                -11.772388458251953,
                3.814697265625e-06
            ],
            "min" : [
                -21.33002471923828,
                -19.08769989013672,
                -21.58199691772461
            ],
            "type" : "VEC3"
        },
        {
            "bufferView" : 1,
            "componentType" : 5126,
            "count" : 10,
            "type" : "VEC3"
        },
        {
            "bufferView" : 2,
            "componentType" : 5126,
            "count" : 10,
            "type" : "VEC2"
        },
        {
            "bufferView" : 3,
            "componentType" : 5123,
            "count" : 12,
            "type" : "SCALAR"
        },
        {
            "bufferView" : 4,
            "componentType" : 5126,
            "count" : 20,
            "max" : [
                21.004375457763672,
                16.570892333984375,
                0
            ],
            "min" : [
                -21.33002471923828,
                2.1374168395996094,
                -21.58199691772461
            ],
            "type" : "VEC3"
        },
        {
            "bufferView" : 5,
            "componentType" : 5126,
            "count" : 20,
            "type" : "VEC3"
        },
        {
            "bufferView" : 6,
            "componentType" : 5126,
            "count" : 20,
            "type" : "VEC2"
        },
        {
            "bufferView" : 7,
            "componentType" : 5123,
            "count" : 24,
            "type" : "SCALAR"
        },
        {
            "bufferView" : 8,
            "componentType" : 5126,
            "count" : 10,
            "max" : [
                -10.655193328857422,
                16.570892333984375,
                3.814697265625e-06
            ],
            "min" : [
                -21.33002471923828,
                -19.08769989013672,
                -21.58199691772461
            ],
            "type" : "VEC3"
        },
        {
            "bufferView" : 9,
            "componentType" : 5126,
            "count" : 10,
            "type" : "VEC3"
        },
        {
            "bufferView" : 10,
            "componentType" : 5126,
            "count" : 10,
            "type" : "VEC2"
        },
        {
            "bufferView" : 11,
            "componentType" : 5123,
            "count" : 12,
            "type" : "SCALAR"
        },
        {
            "bufferView" : 12,
            "componentType" : 5126,
            "count" : 24,
            "max" : [
                21.004375457763672,
                16.570892333984375,
                3.814697265625e-06
            ],
            "min" : [
                -7.250312805175781,
                -19.08769989013672,
                -21.58199691772461
            ],
            "type" : "VEC3"
        },
        {
            "bufferView" : 13,
            "componentType" : 5126,
            "count" : 24,
            "type" : "VEC3"
        },
        {
            "bufferView" : 14,
            "componentType" : 5126,
            "count" : 24,
            "type" : "VEC2"
        },
        {
            "bufferView" : 15,
            "componentType" : 5123,
            "count" : 24,
            "type" : "SCALAR"
        },
        {
            "bufferView" : 16,
            "componentType" : 5126,
            "count" : 52,
            "max" : [
                21.004375457763672,
                16.57088851928711,
                -15.119422912597656
            ],
            "min" : [
                -21.33002471923828,
                -19.08769989013672,
                -21.58199691772461
            ],
            "type" : "VEC3"
        },
        {
            "bufferView" : 17,
            "componentType" : 5126,
            "count" : 52,
            "type" : "VEC3"
        },
        {
            "bufferView" : 18,
            "componentType" : 5126,
            "count" : 52,
            "type" : "VEC2"
        },
        {
            "bufferView" : 19,
            "componentType" : 5123,
            "count" : 54,
            "type" : "SCALAR"
        },
        {
            "bufferView" : 20,
            "componentType" : 5126,
            "count" : 4,
            "max" : [
                18.399181365966797,
                -13.388839721679688,
                -15.119422912597656
            ],
            "min" : [
                13.025970458984375,
                -13.388839721679688,
                -16.190715789794922
            ],
            "type" : "VEC3"
        },
        {
            "bufferView" : 21,
            "componentType" : 5126,
            "count" : 4,
            "type" : "VEC3"
        },
        {
            "bufferView" : 22,
            "componentType" : 5126,
            "count" : 4,
            "type" : "VEC2"
        },
        {
            "bufferView" : 23,
            "componentType" : 5123,
            "count" : 6,
            "type" : "SCALAR"
        },
        {
            "bufferView" : 24,
            "componentType" : 5126,
            "count" : 4,
            "max" : [
                18.399181365966797,
                -4.270660400390625,
                -15.119426727294922
            ],
            "min" : [
                13.025970458984375,
                -4.270660400390625,
                -16.190719604492188
            ],
            "type" : "VEC3"
        },
        {
            "bufferView" : 25,
            "componentType" : 5126,
            "count" : 4,
            "type" : "VEC3"
        },
        {
            "bufferView" : 26,
            "componentType" : 5126,
            "count" : 4,
            "type" : "VEC2"
        },
        {
            "bufferView" : 27,
            "componentType" : 5123,
            "count" : 6,
            "type" : "SCALAR"
        },
        {
            "bufferView" : 28,
            "componentType" : 5126,
            "count" : 4,
            "max" : [
                13.025970458984375,
                -4.270660400390625,
                -15.119422912597656
            ],
            "min" : [
                13.025970458984375,
                -13.388839721679688,
                -16.190719604492188
            ],
            "type" : "VEC3"
        },
        {
            "bufferView" : 29,
            "componentType" : 5126,
            "count" : 4,
            "type" : "VEC3"
        },
        {
            "bufferView" : 30,
            "componentType" : 5126,
            "count" : 4,
            "type" : "VEC2"
        },
        {
            "bufferView" : 31,
            "componentType" : 5123,
            "count" : 6,
            "type" : "SCALAR"
        },
        {
            "bufferView" : 32,
            "componentType" : 5126,
            "count" : 4,
            "max" : [
                18.399181365966797,
                -4.270660400390625,
                -15.119422912597656
            ],
            "min" : [
                18.399181365966797,
                -13.388839721679688,
                -16.190719604492188
            ],
            "type" : "VEC3"
        },
        {
            "bufferView" : 33,
            "componentType" : 5126,
            "count" : 4,
            "type" : "VEC3"
        },
        {
            "bufferView" : 34,
            "componentType" : 5126,
            "count" : 4,
            "type" : "VEC2"
        },
        {
            "bufferView" : 35,
            "componentType" : 5123,
            "count" : 6,
            "type" : "SCALAR"
        }
    ],
    "bufferViews" : [
        {
            "buffer" : 0,
            "byteLength" : 120,
            "byteOffset" : 0
        },
        {
            "buffer" : 0,
            "byteLength" : 120,
            "byteOffset" : 120
        },
        {
            "buffer" : 0,
            "byteLength" : 80,
            "byteOffset" : 240
        },
        {
            "buffer" : 0,
            "byteLength" : 24,
            "byteOffset" : 320
        },
        {
            "buffer" : 0,
            "byteLength" : 240,
            "byteOffset" : 344
        },
        {
            "buffer" : 0,
            "byteLength" : 240,
            "byteOffset" : 584
        },
        {
            "buffer" : 0,
            "byteLength" : 160,
            "byteOffset" : 824
        },
        {
            "buffer" : 0,
            "byteLength" : 48,
            "byteOffset" : 984
        },
        {
            "buffer" : 0,
            "byteLength" : 120,
            "byteOffset" : 1032
        },
        {
            "buffer" : 0,
            "byteLength" : 120,
            "byteOffset" : 1152
        },
        {
            "buffer" : 0,
            "byteLength" : 80,
            "byteOffset" : 1272
        },
        {
            "buffer" : 0,
            "byteLength" : 24,
            "byteOffset" : 1352
        },
        {
            "buffer" : 0,
            "byteLength" : 288,
            "byteOffset" : 1376
        },
        {
            "buffer" : 0,
            "byteLength" : 288,
            "byteOffset" : 1664
        },
        {
            "buffer" : 0,
            "byteLength" : 192,
            "byteOffset" : 1952
        },
        {
            "buffer" : 0,
            "byteLength" : 48,
            "byteOffset" : 2144
        },
        {
            "buffer" : 0,
            "byteLength" : 624,
            "byteOffset" : 2192
        },
        {
            "buffer" : 0,
            "byteLength" : 624,
            "byteOffset" : 2816
        },
        {
            "buffer" : 0,
            "byteLength" : 416,
            "byteOffset" : 3440
        },
        {
            "buffer" : 0,
            "byteLength" : 108,
            "byteOffset" : 3856
        },
        {
            "buffer" : 0,
            "byteLength" : 48,
            "byteOffset" : 3964
        },
        {
            "buffer" : 0,
            "byteLength" : 48,
            "byteOffset" : 4012
        },
        {
            "buffer" : 0,
            "byteLength" : 32,
            "byteOffset" : 4060
        },
        {
            "buffer" : 0,
            "byteLength" : 12,
            "byteOffset" : 4092
        },
        {
            "buffer" : 0,
            "byteLength" : 48,
            "byteOffset" : 4104
        },
        {
            "buffer" : 0,
            "byteLength" : 48,
            "byteOffset" : 4152
        },
        {
            "buffer" : 0,
            "byteLength" : 32,
            "byteOffset" : 4200
        },
        {
            "buffer" : 0,
            "byteLength" : 12,
            "byteOffset" : 4232
        },
        {
            "buffer" : 0,
            "byteLength" : 48,
            "byteOffset" : 4244
        },
        {
            "buffer" : 0,
            "byteLength" : 48,
            "byteOffset" : 4292
        },
        {
            "buffer" : 0,
            "byteLength" : 32,
            "byteOffset" : 4340
        },
        {
            "buffer" : 0,
            "byteLength" : 12,
            "byteOffset" : 4372
        },
        {
            "buffer" : 0,
            "byteLength" : 48,
            "byteOffset" : 4384
        },
        {
            "buffer" : 0,
            "byteLength" : 48,
            "byteOffset" : 4432
        },
        {
            "buffer" : 0,
            "byteLength" : 32,
            "byteOffset" : 4480
        },
        {
            "buffer" : 0,
            "byteLength" : 12,
            "byteOffset" : 4512
        }
    ],
    "samplers" : [
        {
            "magFilter" : 9729,
            "minFilter" : 9987
        }
    ],
    "buffers" : [
        {
            "byteLength" : 4524,
            "uri" : "school.bin"
        }
    ]
}
