{
    "asset" : {
        "generator" : "Khronos glTF Blender I/O v1.7.33",
        "version" : "2.0"
    },
    "scene" : 0,
    "scenes" : [
        {
            "name" : "Scene",
            "nodes" : [
                0
            ]
        }
    ],
    "nodes" : [
        {
            "mesh" : 0,
            "name" : "Maxis-3d1-mesh-58-mall1",
            "rotation" : [
                0.7071068286895752,
                0,
                0,
                0.7071067094802856
            ]
        }
    ],
    "materials" : [
        {
            "doubleSided" : true,
            "name" : "matcolour-128.005",
            "pbrMetallicRoughness" : {
                "baseColorFactor" : [
                    0.12156862765550613,
                    0.08235294371843338,
                    0.062745101749897,
                    1
                ],
                "metallicFactor" : 0
            }
        },
        {
            "doubleSided" : true,
            "name" : "mat40-51",
            "pbrMetallicRoughness" : {
                "baseColorTexture" : {
                    "index" : 0
                },
                "metallicFactor" : 0
            }
        },
        {
            "doubleSided" : true,
            "name" : "mat40-48",
            "pbrMetallicRoughness" : {
                "baseColorTexture" : {
                    "index" : 1
                },
                "metallicFactor" : 0
            }
        },
        {
            "doubleSided" : true,
            "name" : "mat40-49",
            "pbrMetallicRoughness" : {
                "baseColorTexture" : {
                    "index" : 2
                },
                "metallicFactor" : 0
            }
        },
        {
            "doubleSided" : true,
            "name" : "mat40-50",
            "pbrMetallicRoughness" : {
                "baseColorTexture" : {
                    "index" : 3
                },
                "metallicFactor" : 0
            }
        },
        {
            "doubleSided" : true,
            "name" : "matcolour-48.016",
            "pbrMetallicRoughness" : {
                "baseColorFactor" : [
                    0.05882352963089943,
                    0.05882352963089943,
                    0.05882352963089943,
                    1
                ],
                "metallicFactor" : 0
            }
        },
        {
            "doubleSided" : true,
            "name" : "matcolour-0.002",
            "pbrMetallicRoughness" : {
                "baseColorFactor" : [
                    0,
                    0,
                    0,
                    1
                ],
                "metallicFactor" : 0
            }
        }
    ],
    "meshes" : [
        {
            "name" : "Maxis-3d1-mesh-58-mall1",
            "primitives" : [
                {
                    "attributes" : {
                        "POSITION" : 0,
                        "NORMAL" : 1,
                        "TEXCOORD_0" : 2
                    },
                    "indices" : 3,
                    "material" : 0
                },
                {
                    "attributes" : {
                        "POSITION" : 4,
                        "NORMAL" : 5,
                        "TEXCOORD_0" : 6
                    },
                    "indices" : 7,
                    "material" : 1
                },
                {
                    "attributes" : {
                        "POSITION" : 8,
                        "NORMAL" : 9,
                        "TEXCOORD_0" : 10
                    },
                    "indices" : 11,
                    "material" : 2
                },
                {
                    "attributes" : {
                        "POSITION" : 12,
                        "NORMAL" : 13,
                        "TEXCOORD_0" : 14
                    },
                    "indices" : 15,
                    "material" : 3
                },
                {
                    "attributes" : {
                        "POSITION" : 16,
                        "NORMAL" : 17,
                        "TEXCOORD_0" : 18
                    },
                    "indices" : 19,
                    "material" : 4
                },
                {
                    "attributes" : {
                        "POSITION" : 20,
                        "NORMAL" : 21,
                        "TEXCOORD_0" : 22
                    },
                    "indices" : 23,
                    "material" : 5
                },
                {
                    "attributes" : {
                        "POSITION" : 24,
                        "NORMAL" : 25,
                        "TEXCOORD_0" : 26
                    },
                    "indices" : 27,
                    "material" : 6
                },
                {
                    "attributes" : {
                        "POSITION" : 28
                    },
                    "indices" : 29,
                    "material" : 0,
                    "mode" : 1
                }
            ]
        }
    ],
    "textures" : [
        {
            "sampler" : 0,
            "source" : 0
        },
        {
            "sampler" : 0,
            "source" : 1
        },
        {
            "sampler" : 0,
            "source" : 2
        },
        {
            "sampler" : 0,
            "source" : 3
        }
    ],
    "images" : [
        {
            "mimeType" : "image/png",
            "name" : "tex40-51",
            "uri" : "../../Textures/tex40-51.png"
        },
        {
            "mimeType" : "image/png",
            "name" : "tex40-48",
            "uri" : "../../Textures/tex40-48.png"
        },
        {
            "mimeType" : "image/png",
            "name" : "tex40-49",
            "uri" : "../../Textures/tex40-49.png"
        },
        {
            "mimeType" : "image/png",
            "name" : "tex40-50",
            "uri" : "../../Textures/tex40-50.png"
        }
    ],
    "accessors" : [
        {
            "bufferView" : 0,
            "componentType" : 5126,
            "count" : 4,
            "max" : [
                -2.685832977294922,
                11.964164733886719,
                -3.2300033569335938
            ],
            "min" : [
                -2.685832977294922,
                6.104164123535156,
                -3.8874473571777344
            ],
            "type" : "VEC3"
        },
        {
            "bufferView" : 1,
            "componentType" : 5126,
            "count" : 4,
            "type" : "VEC3"
        },
        {
            "bufferView" : 2,
            "componentType" : 5126,
            "count" : 4,
            "type" : "VEC2"
        },
        {
            "bufferView" : 3,
            "componentType" : 5123,
            "count" : 6,
            "type" : "SCALAR"
        },
        {
            "bufferView" : 4,
            "componentType" : 5126,
            "count" : 18,
            "max" : [
                13.912559509277344,
                12.940834045410156,
                0
            ],
            "min" : [
                -13.434104919433594,
                7.080829620361328,
                -3.8874473571777344
            ],
            "type" : "VEC3"
        },
        {
            "bufferView" : 5,
            "componentType" : 5126,
            "count" : 18,
            "type" : "VEC3"
        },
        {
            "bufferView" : 6,
            "componentType" : 5126,
            "count" : 18,
            "type" : "VEC2"
        },
        {
            "bufferView" : 7,
            "componentType" : 5123,
            "count" : 18,
            "type" : "SCALAR"
        },
        {
            "bufferView" : 8,
            "componentType" : 5126,
            "count" : 10,
            "max" : [
                13.912567138671875,
                12.940834045410156,
                3.814697265625e-06
            ],
            "min" : [
                -13.434101104736328,
                -12.940834045410156,
                -3.8874473571777344
            ],
            "type" : "VEC3"
        },
        {
            "bufferView" : 9,
            "componentType" : 5126,
            "count" : 10,
            "type" : "VEC3"
        },
        {
            "bufferView" : 10,
            "componentType" : 5126,
            "count" : 10,
            "type" : "VEC2"
        },
        {
            "bufferView" : 11,
            "componentType" : 5123,
            "count" : 12,
            "type" : "SCALAR"
        },
        {
            "bufferView" : 12,
            "componentType" : 5126,
            "count" : 12,
            "max" : [
                -3.6674346923828125,
                12.940834045410156,
                3.814697265625e-06
            ],
            "min" : [
                -13.434104919433594,
                -12.940834045410156,
                -3.8874473571777344
            ],
            "type" : "VEC3"
        },
        {
            "bufferView" : 13,
            "componentType" : 5126,
            "count" : 12,
            "type" : "VEC3"
        },
        {
            "bufferView" : 14,
            "componentType" : 5126,
            "count" : 12,
            "type" : "VEC2"
        },
        {
            "bufferView" : 15,
            "componentType" : 5123,
            "count" : 12,
            "type" : "SCALAR"
        },
        {
            "bufferView" : 16,
            "componentType" : 5126,
            "count" : 6,
            "max" : [
                13.912567138671875,
                10.01083755493164,
                0
            ],
            "min" : [
                13.912559509277344,
                -12.940826416015625,
                -3.8874473571777344
            ],
            "type" : "VEC3"
        },
        {
            "bufferView" : 17,
            "componentType" : 5126,
            "count" : 6,
            "type" : "VEC3"
        },
        {
            "bufferView" : 18,
            "componentType" : 5126,
            "count" : 6,
            "type" : "VEC2"
        },
        {
            "bufferView" : 19,
            "componentType" : 5123,
            "count" : 6,
            "type" : "SCALAR"
        },
        {
            "bufferView" : 20,
            "componentType" : 5126,
            "count" : 235,
            "max" : [
                13.91256332397461,
                12.940834045410156,
                -3.229991912841797
            ],
            "min" : [
                -13.434104919433594,
                -12.940834045410156,
                -8.124958038330078
            ],
            "type" : "VEC3"
        },
        {
            "bufferView" : 21,
            "componentType" : 5126,
            "count" : 235,
            "type" : "VEC3"
        },
        {
            "bufferView" : 22,
            "componentType" : 5126,
            "count" : 235,
            "type" : "VEC2"
        },
        {
            "bufferView" : 23,
            "componentType" : 5123,
            "count" : 264,
            "type" : "SCALAR"
        },
        {
            "bufferView" : 24,
            "componentType" : 5126,
            "count" : 22,
            "max" : [
                3.425403594970703,
                2.67718505859375,
                -4.601459503173828
            ],
            "min" : [
                2.58209228515625,
                1.3228111267089844,
                -5.331787109375
            ],
            "type" : "VEC3"
        },
        {
            "bufferView" : 25,
            "componentType" : 5126,
            "count" : 22,
            "type" : "VEC3"
        },
        {
            "bufferView" : 26,
            "componentType" : 5126,
            "count" : 22,
            "type" : "VEC2"
        },
        {
            "bufferView" : 27,
            "componentType" : 5123,
            "count" : 24,
            "type" : "SCALAR"
        },
        {
            "bufferView" : 28,
            "componentType" : 5126,
            "count" : 8,
            "max" : [
                0.25,
                6.682399749755859,
                -6.098049163818359
            ],
            "min" : [
                0.24999618530273438,
                5.317596435546875,
                -7.342876434326172
            ],
            "type" : "VEC3"
        },
        {
            "bufferView" : 29,
            "componentType" : 5123,
            "count" : 8,
            "type" : "SCALAR"
        }
    ],
    "bufferViews" : [
        {
            "buffer" : 0,
            "byteLength" : 48,
            "byteOffset" : 0
        },
        {
            "buffer" : 0,
            "byteLength" : 48,
            "byteOffset" : 48
        },
        {
            "buffer" : 0,
            "byteLength" : 32,
            "byteOffset" : 96
        },
        {
            "buffer" : 0,
            "byteLength" : 12,
            "byteOffset" : 128
        },
        {
            "buffer" : 0,
            "byteLength" : 216,
            "byteOffset" : 140
        },
        {
            "buffer" : 0,
            "byteLength" : 216,
            "byteOffset" : 356
        },
        {
            "buffer" : 0,
            "byteLength" : 144,
            "byteOffset" : 572
        },
        {
            "buffer" : 0,
            "byteLength" : 36,
            "byteOffset" : 716
        },
        {
            "buffer" : 0,
            "byteLength" : 120,
            "byteOffset" : 752
        },
        {
            "buffer" : 0,
            "byteLength" : 120,
            "byteOffset" : 872
        },
        {
            "buffer" : 0,
            "byteLength" : 80,
            "byteOffset" : 992
        },
        {
            "buffer" : 0,
            "byteLength" : 24,
            "byteOffset" : 1072
        },
        {
            "buffer" : 0,
            "byteLength" : 144,
            "byteOffset" : 1096
        },
        {
            "buffer" : 0,
            "byteLength" : 144,
            "byteOffset" : 1240
        },
        {
            "buffer" : 0,
            "byteLength" : 96,
            "byteOffset" : 1384
        },
        {
            "buffer" : 0,
            "byteLength" : 24,
            "byteOffset" : 1480
        },
        {
            "buffer" : 0,
            "byteLength" : 72,
            "byteOffset" : 1504
        },
        {
            "buffer" : 0,
            "byteLength" : 72,
            "byteOffset" : 1576
        },
        {
            "buffer" : 0,
            "byteLength" : 48,
            "byteOffset" : 1648
        },
        {
            "buffer" : 0,
            "byteLength" : 12,
            "byteOffset" : 1696
        },
        {
            "buffer" : 0,
            "byteLength" : 2820,
            "byteOffset" : 1708
        },
        {
            "buffer" : 0,
            "byteLength" : 2820,
            "byteOffset" : 4528
        },
        {
            "buffer" : 0,
            "byteLength" : 1880,
            "byteOffset" : 7348
        },
        {
            "buffer" : 0,
            "byteLength" : 528,
            "byteOffset" : 9228
        },
        {
            "buffer" : 0,
            "byteLength" : 264,
            "byteOffset" : 9756
        },
        {
            "buffer" : 0,
            "byteLength" : 264,
            "byteOffset" : 10020
        },
        {
            "buffer" : 0,
            "byteLength" : 176,
            "byteOffset" : 10284
        },
        {
            "buffer" : 0,
            "byteLength" : 48,
            "byteOffset" : 10460
        },
        {
            "buffer" : 0,
            "byteLength" : 96,
            "byteOffset" : 10508
        },
        {
            "buffer" : 0,
            "byteLength" : 16,
            "byteOffset" : 10604
        }
    ],
    "samplers" : [
        {
            "magFilter" : 9729,
            "minFilter" : 9987
        }
    ],
    "buffers" : [
        {
            "byteLength" : 10620,
            "uri" : "shopping_centre.bin"
        }
    ]
}
