{
    "asset" : {
        "generator" : "Khronos glTF Blender I/O v1.7.33",
        "version" : "2.0"
    },
    "scene" : 0,
    "scenes" : [
        {
            "name" : "Scene",
            "nodes" : [
                0
            ]
        }
    ],
    "nodes" : [
        {
            "mesh" : 0,
            "name" : "Maxis-3d3-mesh-67",
            "rotation" : [
                0.7071068286895752,
                0,
                0,
                0.7071067094802856
            ]
        }
    ],
    "materials" : [
        {
            "doubleSided" : true,
            "name" : "matcolour-48.017",
            "pbrMetallicRoughness" : {
                "baseColorFactor" : [
                    0.05882352963089943,
                    0.05882352963089943,
                    0.05882352963089943,
                    1
                ],
                "metallicFactor" : 0
            }
        },
        {
            "doubleSided" : true,
            "name" : "mat40-36.002",
            "pbrMetallicRoughness" : {
                "baseColorTexture" : {
                    "index" : 0
                },
                "metallicFactor" : 0
            }
        },
        {
            "doubleSided" : true,
            "name" : "mat40-39.002",
            "pbrMetallicRoughness" : {
                "baseColorTexture" : {
                    "index" : 1
                },
                "metallicFactor" : 0
            }
        },
        {
            "doubleSided" : true,
            "name" : "mat40-37.002",
            "pbrMetallicRoughness" : {
                "baseColorTexture" : {
                    "index" : 2
                },
                "metallicFactor" : 0
            }
        },
        {
            "doubleSided" : true,
            "name" : "mat40-38.002",
            "pbrMetallicRoughness" : {
                "baseColorTexture" : {
                    "index" : 3
                },
                "metallicFactor" : 0
            }
        },
        {
            "doubleSided" : true,
            "name" : "mat40-47.001",
            "pbrMetallicRoughness" : {
                "baseColorTexture" : {
                    "index" : 4
                },
                "metallicFactor" : 0
            }
        },
        {
            "doubleSided" : true,
            "name" : "mat40-44.001",
            "pbrMetallicRoughness" : {
                "baseColorTexture" : {
                    "index" : 5
                },
                "metallicFactor" : 0
            }
        },
        {
            "doubleSided" : true,
            "name" : "mat40-45.002",
            "pbrMetallicRoughness" : {
                "baseColorTexture" : {
                    "index" : 6
                },
                "metallicFactor" : 0
            }
        },
        {
            "doubleSided" : true,
            "name" : "mat40-46.001",
            "pbrMetallicRoughness" : {
                "baseColorTexture" : {
                    "index" : 7
                },
                "metallicFactor" : 0
            }
        },
        {
            "doubleSided" : true,
            "name" : "mat40-60.003",
            "pbrMetallicRoughness" : {
                "baseColorTexture" : {
                    "index" : 8
                },
                "metallicFactor" : 0
            }
        },
        {
            "doubleSided" : true,
            "name" : "mat40-61.003",
            "pbrMetallicRoughness" : {
                "baseColorTexture" : {
                    "index" : 9
                },
                "metallicFactor" : 0
            }
        }
    ],
    "meshes" : [
        {
            "name" : "Maxis-3d3-mesh-67",
            "primitives" : [
                {
                    "attributes" : {
                        "POSITION" : 0,
                        "NORMAL" : 1,
                        "TEXCOORD_0" : 2
                    },
                    "indices" : 3,
                    "material" : 0
                },
                {
                    "attributes" : {
                        "POSITION" : 4,
                        "NORMAL" : 5,
                        "TEXCOORD_0" : 6
                    },
                    "indices" : 7,
                    "material" : 1
                },
                {
                    "attributes" : {
                        "POSITION" : 8,
                        "NORMAL" : 9,
                        "TEXCOORD_0" : 10
                    },
                    "indices" : 7,
                    "material" : 2
                },
                {
                    "attributes" : {
                        "POSITION" : 11,
                        "NORMAL" : 12,
                        "TEXCOORD_0" : 13
                    },
                    "indices" : 14,
                    "material" : 3
                },
                {
                    "attributes" : {
                        "POSITION" : 15,
                        "NORMAL" : 16,
                        "TEXCOORD_0" : 17
                    },
                    "indices" : 18,
                    "material" : 4
                },
                {
                    "attributes" : {
                        "POSITION" : 19,
                        "NORMAL" : 20,
                        "TEXCOORD_0" : 21
                    },
                    "indices" : 7,
                    "material" : 5
                },
                {
                    "attributes" : {
                        "POSITION" : 22,
                        "NORMAL" : 23,
                        "TEXCOORD_0" : 24
                    },
                    "indices" : 7,
                    "material" : 6
                },
                {
                    "attributes" : {
                        "POSITION" : 25,
                        "NORMAL" : 26,
                        "TEXCOORD_0" : 27
                    },
                    "indices" : 28,
                    "material" : 7
                },
                {
                    "attributes" : {
                        "POSITION" : 29,
                        "NORMAL" : 30,
                        "TEXCOORD_0" : 31
                    },
                    "indices" : 32,
                    "material" : 8
                },
                {
                    "attributes" : {
                        "POSITION" : 33,
                        "NORMAL" : 34,
                        "TEXCOORD_0" : 35
                    },
                    "indices" : 36,
                    "material" : 9
                },
                {
                    "attributes" : {
                        "POSITION" : 37,
                        "NORMAL" : 38,
                        "TEXCOORD_0" : 39
                    },
                    "indices" : 40,
                    "material" : 10
                }
            ]
        }
    ],
    "textures" : [
        {
            "sampler" : 0,
            "source" : 0
        },
        {
            "sampler" : 0,
            "source" : 1
        },
        {
            "sampler" : 0,
            "source" : 2
        },
        {
            "sampler" : 0,
            "source" : 3
        },
        {
            "sampler" : 0,
            "source" : 4
        },
        {
            "sampler" : 0,
            "source" : 5
        },
        {
            "sampler" : 0,
            "source" : 6
        },
        {
            "sampler" : 0,
            "source" : 7
        },
        {
            "sampler" : 0,
            "source" : 8
        },
        {
            "sampler" : 0,
            "source" : 9
        }
    ],
    "images" : [
        {
            "mimeType" : "image/png",
            "name" : "tex40-36",
            "uri" : "../../Textures/tex40-36.png"
        },
        {
            "mimeType" : "image/png",
            "name" : "tex40-39",
            "uri" : "../../Textures/tex40-39.png"
        },
        {
            "mimeType" : "image/png",
            "name" : "tex40-37",
            "uri" : "../../Textures/tex40-37.png"
        },
        {
            "mimeType" : "image/png",
            "name" : "tex40-38",
            "uri" : "../../Textures/tex40-38.png"
        },
        {
            "mimeType" : "image/png",
            "name" : "tex40-47",
            "uri" : "../../Textures/tex40-47.png"
        },
        {
            "mimeType" : "image/png",
            "name" : "tex40-44",
            "uri" : "../../Textures/tex40-44.png"
        },
        {
            "mimeType" : "image/png",
            "name" : "tex40-45",
            "uri" : "../../Textures/tex40-45.png"
        },
        {
            "mimeType" : "image/png",
            "name" : "tex40-46",
            "uri" : "../../Textures/tex40-46.png"
        },
        {
            "mimeType" : "image/png",
            "name" : "tex40-60",
            "uri" : "../../Textures/tex40-60.png"
        },
        {
            "mimeType" : "image/png",
            "name" : "tex40-61",
            "uri" : "../../Textures/tex40-61.png"
        }
    ],
    "accessors" : [
        {
            "bufferView" : 0,
            "componentType" : 5126,
            "count" : 476,
            "max" : [
                6.789100646972656,
                3.0748672485351562,
                -2.205059051513672
            ],
            "min" : [
                -2.3891525268554688,
                -3.5684051513671875,
                -12.256053924560547
            ],
            "type" : "VEC3"
        },
        {
            "bufferView" : 1,
            "componentType" : 5126,
            "count" : 476,
            "type" : "VEC3"
        },
        {
            "bufferView" : 2,
            "componentType" : 5126,
            "count" : 476,
            "type" : "VEC2"
        },
        {
            "bufferView" : 3,
            "componentType" : 5123,
            "count" : 480,
            "type" : "SCALAR"
        },
        {
            "bufferView" : 4,
            "componentType" : 5126,
            "count" : 4,
            "max" : [
                6.865242004394531,
                -5.685478210449219,
                0
            ],
            "min" : [
                -7.321708679199219,
                -5.685478210449219,
                -2.205059051513672
            ],
            "type" : "VEC3"
        },
        {
            "bufferView" : 5,
            "componentType" : 5126,
            "count" : 4,
            "type" : "VEC3"
        },
        {
            "bufferView" : 6,
            "componentType" : 5126,
            "count" : 4,
            "type" : "VEC2"
        },
        {
            "bufferView" : 7,
            "componentType" : 5123,
            "count" : 6,
            "type" : "SCALAR"
        },
        {
            "bufferView" : 8,
            "componentType" : 5126,
            "count" : 4,
            "max" : [
                6.865238189697266,
                5.658077239990234,
                0
            ],
            "min" : [
                -7.321712493896484,
                5.658077239990234,
                -2.205059051513672
            ],
            "type" : "VEC3"
        },
        {
            "bufferView" : 9,
            "componentType" : 5126,
            "count" : 4,
            "type" : "VEC3"
        },
        {
            "bufferView" : 10,
            "componentType" : 5126,
            "count" : 4,
            "type" : "VEC2"
        },
        {
            "bufferView" : 11,
            "componentType" : 5126,
            "count" : 4,
            "max" : [
                -7.321708679199219,
                5.658077239990234,
                0
            ],
            "min" : [
                -7.321712493896484,
                -5.685478210449219,
                -2.205059051513672
            ],
            "type" : "VEC3"
        },
        {
            "bufferView" : 12,
            "componentType" : 5126,
            "count" : 4,
            "type" : "VEC3"
        },
        {
            "bufferView" : 13,
            "componentType" : 5126,
            "count" : 4,
            "type" : "VEC2"
        },
        {
            "bufferView" : 14,
            "componentType" : 5123,
            "count" : 6,
            "type" : "SCALAR"
        },
        {
            "bufferView" : 15,
            "componentType" : 5126,
            "count" : 4,
            "max" : [
                6.865242004394531,
                5.658077239990234,
                0
            ],
            "min" : [
                6.865238189697266,
                -5.685478210449219,
                -2.205059051513672
            ],
            "type" : "VEC3"
        },
        {
            "bufferView" : 16,
            "componentType" : 5126,
            "count" : 4,
            "type" : "VEC3"
        },
        {
            "bufferView" : 17,
            "componentType" : 5126,
            "count" : 4,
            "type" : "VEC2"
        },
        {
            "bufferView" : 18,
            "componentType" : 5123,
            "count" : 6,
            "type" : "SCALAR"
        },
        {
            "bufferView" : 19,
            "componentType" : 5126,
            "count" : 4,
            "max" : [
                -0.614105224609375,
                4.250968933105469,
                -2.205059051513672
            ],
            "min" : [
                -6.385410308837891,
                4.250968933105469,
                -3.058216094970703
            ],
            "type" : "VEC3"
        },
        {
            "bufferView" : 20,
            "componentType" : 5126,
            "count" : 4,
            "type" : "VEC3"
        },
        {
            "bufferView" : 21,
            "componentType" : 5126,
            "count" : 4,
            "type" : "VEC2"
        },
        {
            "bufferView" : 22,
            "componentType" : 5126,
            "count" : 4,
            "max" : [
                -0.614105224609375,
                -4.372425079345703,
                -2.205059051513672
            ],
            "min" : [
                -6.385410308837891,
                -4.372425079345703,
                -3.058216094970703
            ],
            "type" : "VEC3"
        },
        {
            "bufferView" : 23,
            "componentType" : 5126,
            "count" : 4,
            "type" : "VEC3"
        },
        {
            "bufferView" : 24,
            "componentType" : 5126,
            "count" : 4,
            "type" : "VEC2"
        },
        {
            "bufferView" : 25,
            "componentType" : 5126,
            "count" : 6,
            "max" : [
                -6.385410308837891,
                4.250968933105469,
                -2.205059051513672
            ],
            "min" : [
                -6.385410308837891,
                -4.372425079345703,
                -3.058216094970703
            ],
            "type" : "VEC3"
        },
        {
            "bufferView" : 26,
            "componentType" : 5126,
            "count" : 6,
            "type" : "VEC3"
        },
        {
            "bufferView" : 27,
            "componentType" : 5126,
            "count" : 6,
            "type" : "VEC2"
        },
        {
            "bufferView" : 28,
            "componentType" : 5123,
            "count" : 6,
            "type" : "SCALAR"
        },
        {
            "bufferView" : 29,
            "componentType" : 5126,
            "count" : 6,
            "max" : [
                -0.614105224609375,
                4.250968933105469,
                -2.205059051513672
            ],
            "min" : [
                -0.614105224609375,
                -4.372425079345703,
                -3.058216094970703
            ],
            "type" : "VEC3"
        },
        {
            "bufferView" : 30,
            "componentType" : 5126,
            "count" : 6,
            "type" : "VEC3"
        },
        {
            "bufferView" : 31,
            "componentType" : 5126,
            "count" : 6,
            "type" : "VEC2"
        },
        {
            "bufferView" : 32,
            "componentType" : 5123,
            "count" : 6,
            "type" : "SCALAR"
        },
        {
            "bufferView" : 33,
            "componentType" : 5126,
            "count" : 6,
            "max" : [
                -0.614105224609375,
                4.250968933105469,
                -3.058216094970703
            ],
            "min" : [
                -6.385410308837891,
                -4.372425079345703,
                -3.058216094970703
            ],
            "type" : "VEC3"
        },
        {
            "bufferView" : 34,
            "componentType" : 5126,
            "count" : 6,
            "type" : "VEC3"
        },
        {
            "bufferView" : 35,
            "componentType" : 5126,
            "count" : 6,
            "type" : "VEC2"
        },
        {
            "bufferView" : 36,
            "componentType" : 5123,
            "count" : 6,
            "type" : "SCALAR"
        },
        {
            "bufferView" : 37,
            "componentType" : 5126,
            "count" : 35,
            "max" : [
                6.865242004394531,
                5.658077239990234,
                -2.205059051513672
            ],
            "min" : [
                -7.321712493896484,
                -5.685478210449219,
                -2.205059051513672
            ],
            "type" : "VEC3"
        },
        {
            "bufferView" : 38,
            "componentType" : 5126,
            "count" : 35,
            "type" : "VEC3"
        },
        {
            "bufferView" : 39,
            "componentType" : 5126,
            "count" : 35,
            "type" : "VEC2"
        },
        {
            "bufferView" : 40,
            "componentType" : 5123,
            "count" : 42,
            "type" : "SCALAR"
        }
    ],
    "bufferViews" : [
        {
            "buffer" : 0,
            "byteLength" : 5712,
            "byteOffset" : 0
        },
        {
            "buffer" : 0,
            "byteLength" : 5712,
            "byteOffset" : 5712
        },
        {
            "buffer" : 0,
            "byteLength" : 3808,
            "byteOffset" : 11424
        },
        {
            "buffer" : 0,
            "byteLength" : 960,
            "byteOffset" : 15232
        },
        {
            "buffer" : 0,
            "byteLength" : 48,
            "byteOffset" : 16192
        },
        {
            "buffer" : 0,
            "byteLength" : 48,
            "byteOffset" : 16240
        },
        {
            "buffer" : 0,
            "byteLength" : 32,
            "byteOffset" : 16288
        },
        {
            "buffer" : 0,
            "byteLength" : 12,
            "byteOffset" : 16320
        },
        {
            "buffer" : 0,
            "byteLength" : 48,
            "byteOffset" : 16332
        },
        {
            "buffer" : 0,
            "byteLength" : 48,
            "byteOffset" : 16380
        },
        {
            "buffer" : 0,
            "byteLength" : 32,
            "byteOffset" : 16428
        },
        {
            "buffer" : 0,
            "byteLength" : 48,
            "byteOffset" : 16460
        },
        {
            "buffer" : 0,
            "byteLength" : 48,
            "byteOffset" : 16508
        },
        {
            "buffer" : 0,
            "byteLength" : 32,
            "byteOffset" : 16556
        },
        {
            "buffer" : 0,
            "byteLength" : 12,
            "byteOffset" : 16588
        },
        {
            "buffer" : 0,
            "byteLength" : 48,
            "byteOffset" : 16600
        },
        {
            "buffer" : 0,
            "byteLength" : 48,
            "byteOffset" : 16648
        },
        {
            "buffer" : 0,
            "byteLength" : 32,
            "byteOffset" : 16696
        },
        {
            "buffer" : 0,
            "byteLength" : 12,
            "byteOffset" : 16728
        },
        {
            "buffer" : 0,
            "byteLength" : 48,
            "byteOffset" : 16740
        },
        {
            "buffer" : 0,
            "byteLength" : 48,
            "byteOffset" : 16788
        },
        {
            "buffer" : 0,
            "byteLength" : 32,
            "byteOffset" : 16836
        },
        {
            "buffer" : 0,
            "byteLength" : 48,
            "byteOffset" : 16868
        },
        {
            "buffer" : 0,
            "byteLength" : 48,
            "byteOffset" : 16916
        },
        {
            "buffer" : 0,
            "byteLength" : 32,
            "byteOffset" : 16964
        },
        {
            "buffer" : 0,
            "byteLength" : 72,
            "byteOffset" : 16996
        },
        {
            "buffer" : 0,
            "byteLength" : 72,
            "byteOffset" : 17068
        },
        {
            "buffer" : 0,
            "byteLength" : 48,
            "byteOffset" : 17140
        },
        {
            "buffer" : 0,
            "byteLength" : 12,
            "byteOffset" : 17188
        },
        {
            "buffer" : 0,
            "byteLength" : 72,
            "byteOffset" : 17200
        },
        {
            "buffer" : 0,
            "byteLength" : 72,
            "byteOffset" : 17272
        },
        {
            "buffer" : 0,
            "byteLength" : 48,
            "byteOffset" : 17344
        },
        {
            "buffer" : 0,
            "byteLength" : 12,
            "byteOffset" : 17392
        },
        {
            "buffer" : 0,
            "byteLength" : 72,
            "byteOffset" : 17404
        },
        {
            "buffer" : 0,
            "byteLength" : 72,
            "byteOffset" : 17476
        },
        {
            "buffer" : 0,
            "byteLength" : 48,
            "byteOffset" : 17548
        },
        {
            "buffer" : 0,
            "byteLength" : 12,
            "byteOffset" : 17596
        },
        {
            "buffer" : 0,
            "byteLength" : 420,
            "byteOffset" : 17608
        },
        {
            "buffer" : 0,
            "byteLength" : 420,
            "byteOffset" : 18028
        },
        {
            "buffer" : 0,
            "byteLength" : 280,
            "byteOffset" : 18448
        },
        {
            "buffer" : 0,
            "byteLength" : 84,
            "byteOffset" : 18728
        }
    ],
    "samplers" : [
        {
            "magFilter" : 9729,
            "minFilter" : 9987
        }
    ],
    "buffers" : [
        {
            "byteLength" : 18812,
            "uri" : "tarmac_radar.bin"
        }
    ]
}
