{
    "asset" : {
        "generator" : "Khronos glTF Blender I/O v1.7.33",
        "version" : "2.0"
    },
    "scene" : 0,
    "scenes" : [
        {
            "name" : "Scene",
            "nodes" : [
                0
            ]
        }
    ],
    "nodes" : [
        {
            "mesh" : 0,
            "name" : "Maxis-3d3-mesh-65",
            "rotation" : [
                0.7071068286895752,
                0,
                0,
                0.7071067094802856
            ]
        }
    ],
    "materials" : [
        {
            "doubleSided" : true,
            "name" : "matcolour-80.002",
            "pbrMetallicRoughness" : {
                "baseColorFactor" : [
                    0.18431372940540314,
                    0.14509804546833038,
                    0.03921568766236305,
                    1
                ],
                "metallicFactor" : 0
            }
        },
        {
            "doubleSided" : true,
            "name" : "matcolour-48.022",
            "pbrMetallicRoughness" : {
                "baseColorFactor" : [
                    0.05882352963089943,
                    0.05882352963089943,
                    0.05882352963089943,
                    1
                ],
                "metallicFactor" : 0
            }
        },
        {
            "doubleSided" : true,
            "name" : "mat40-52.012",
            "pbrMetallicRoughness" : {
                "baseColorTexture" : {
                    "index" : 0
                },
                "metallicFactor" : 0
            }
        },
        {
            "doubleSided" : true,
            "name" : "mat40-55.012",
            "pbrMetallicRoughness" : {
                "baseColorTexture" : {
                    "index" : 1
                },
                "metallicFactor" : 0
            }
        },
        {
            "doubleSided" : true,
            "name" : "mat40-54.011",
            "pbrMetallicRoughness" : {
                "baseColorTexture" : {
                    "index" : 2
                },
                "metallicFactor" : 0
            }
        },
        {
            "doubleSided" : true,
            "name" : "mat40-53.011",
            "pbrMetallicRoughness" : {
                "baseColorTexture" : {
                    "index" : 3
                },
                "metallicFactor" : 0
            }
        }
    ],
    "meshes" : [
        {
            "name" : "Maxis-3d3-mesh-65.001",
            "primitives" : [
                {
                    "attributes" : {
                        "POSITION" : 0,
                        "NORMAL" : 1,
                        "TEXCOORD_0" : 2
                    },
                    "indices" : 3,
                    "material" : 0
                },
                {
                    "attributes" : {
                        "POSITION" : 4,
                        "NORMAL" : 5,
                        "TEXCOORD_0" : 6
                    },
                    "indices" : 7,
                    "material" : 1
                },
                {
                    "attributes" : {
                        "POSITION" : 8,
                        "NORMAL" : 9,
                        "TEXCOORD_0" : 10
                    },
                    "indices" : 11,
                    "material" : 2
                },
                {
                    "attributes" : {
                        "POSITION" : 12,
                        "NORMAL" : 13,
                        "TEXCOORD_0" : 14
                    },
                    "indices" : 15,
                    "material" : 3
                },
                {
                    "attributes" : {
                        "POSITION" : 16,
                        "NORMAL" : 17,
                        "TEXCOORD_0" : 18
                    },
                    "indices" : 19,
                    "material" : 4
                },
                {
                    "attributes" : {
                        "POSITION" : 20,
                        "NORMAL" : 21,
                        "TEXCOORD_0" : 22
                    },
                    "indices" : 23,
                    "material" : 5
                }
            ]
        }
    ],
    "textures" : [
        {
            "sampler" : 0,
            "source" : 0
        },
        {
            "sampler" : 0,
            "source" : 1
        },
        {
            "sampler" : 0,
            "source" : 2
        },
        {
            "sampler" : 0,
            "source" : 3
        }
    ],
    "images" : [
        {
            "mimeType" : "image/png",
            "name" : "tex40-52",
            "uri" : "../../Textures/tex40-52.png"
        },
        {
            "mimeType" : "image/png",
            "name" : "tex40-55",
            "uri" : "../../Textures/tex40-55.png"
        },
        {
            "mimeType" : "image/png",
            "name" : "tex40-54",
            "uri" : "../../Textures/tex40-54.png"
        },
        {
            "mimeType" : "image/png",
            "name" : "tex40-53",
            "uri" : "../../Textures/tex40-53.png"
        }
    ],
    "accessors" : [
        {
            "bufferView" : 0,
            "componentType" : 5126,
            "count" : 297,
            "max" : [
                7.457145690917969,
                7.1285858154296875,
                0
            ],
            "min" : [
                -5.32647705078125,
                -5.286212921142578,
                -9.599620819091797
            ],
            "type" : "VEC3"
        },
        {
            "bufferView" : 1,
            "componentType" : 5126,
            "count" : 297,
            "type" : "VEC3"
        },
        {
            "bufferView" : 2,
            "componentType" : 5126,
            "count" : 297,
            "type" : "VEC2"
        },
        {
            "bufferView" : 3,
            "componentType" : 5123,
            "count" : 297,
            "type" : "SCALAR"
        },
        {
            "bufferView" : 4,
            "componentType" : 5126,
            "count" : 22,
            "max" : [
                4.528583526611328,
                4.384052276611328,
                -6.675518035888672
            ],
            "min" : [
                -7.487117767333984,
                -7.48712158203125,
                -6.675518035888672
            ],
            "type" : "VEC3"
        },
        {
            "bufferView" : 5,
            "componentType" : 5126,
            "count" : 22,
            "type" : "VEC3"
        },
        {
            "bufferView" : 6,
            "componentType" : 5126,
            "count" : 22,
            "type" : "VEC2"
        },
        {
            "bufferView" : 7,
            "componentType" : 5123,
            "count" : 24,
            "type" : "SCALAR"
        },
        {
            "bufferView" : 8,
            "componentType" : 5126,
            "count" : 4,
            "max" : [
                4.51287841796875,
                -7.48712158203125,
                3.814697265625e-06
            ],
            "min" : [
                -7.496173858642578,
                -7.496177673339844,
                -6.675518035888672
            ],
            "type" : "VEC3"
        },
        {
            "bufferView" : 9,
            "componentType" : 5126,
            "count" : 4,
            "type" : "VEC3"
        },
        {
            "bufferView" : 10,
            "componentType" : 5126,
            "count" : 4,
            "type" : "VEC2"
        },
        {
            "bufferView" : 11,
            "componentType" : 5123,
            "count" : 6,
            "type" : "SCALAR"
        },
        {
            "bufferView" : 12,
            "componentType" : 5126,
            "count" : 34,
            "max" : [
                4.528583526611328,
                4.384052276611328,
                0.0157012939453125
            ],
            "min" : [
                -7.48046875,
                4.375,
                -6.675518035888672
            ],
            "type" : "VEC3"
        },
        {
            "bufferView" : 13,
            "componentType" : 5126,
            "count" : 34,
            "type" : "VEC3"
        },
        {
            "bufferView" : 14,
            "componentType" : 5126,
            "count" : 34,
            "type" : "VEC2"
        },
        {
            "bufferView" : 15,
            "componentType" : 5123,
            "count" : 42,
            "type" : "SCALAR"
        },
        {
            "bufferView" : 16,
            "componentType" : 5126,
            "count" : 6,
            "max" : [
                4.528583526611328,
                4.384052276611328,
                0.0157012939453125
            ],
            "min" : [
                4.503822326660156,
                -7.496177673339844,
                -6.675518035888672
            ],
            "type" : "VEC3"
        },
        {
            "bufferView" : 17,
            "componentType" : 5126,
            "count" : 6,
            "type" : "VEC3"
        },
        {
            "bufferView" : 18,
            "componentType" : 5126,
            "count" : 6,
            "type" : "VEC2"
        },
        {
            "bufferView" : 19,
            "componentType" : 5123,
            "count" : 6,
            "type" : "SCALAR"
        },
        {
            "bufferView" : 20,
            "componentType" : 5126,
            "count" : 6,
            "max" : [
                -7.471412658691406,
                4.384052276611328,
                0.0157012939453125
            ],
            "min" : [
                -7.496173858642578,
                -7.496177673339844,
                -6.675518035888672
            ],
            "type" : "VEC3"
        },
        {
            "bufferView" : 21,
            "componentType" : 5126,
            "count" : 6,
            "type" : "VEC3"
        },
        {
            "bufferView" : 22,
            "componentType" : 5126,
            "count" : 6,
            "type" : "VEC2"
        },
        {
            "bufferView" : 23,
            "componentType" : 5123,
            "count" : 6,
            "type" : "SCALAR"
        }
    ],
    "bufferViews" : [
        {
            "buffer" : 0,
            "byteLength" : 3564,
            "byteOffset" : 0
        },
        {
            "buffer" : 0,
            "byteLength" : 3564,
            "byteOffset" : 3564
        },
        {
            "buffer" : 0,
            "byteLength" : 2376,
            "byteOffset" : 7128
        },
        {
            "buffer" : 0,
            "byteLength" : 594,
            "byteOffset" : 9504
        },
        {
            "buffer" : 0,
            "byteLength" : 264,
            "byteOffset" : 10100
        },
        {
            "buffer" : 0,
            "byteLength" : 264,
            "byteOffset" : 10364
        },
        {
            "buffer" : 0,
            "byteLength" : 176,
            "byteOffset" : 10628
        },
        {
            "buffer" : 0,
            "byteLength" : 48,
            "byteOffset" : 10804
        },
        {
            "buffer" : 0,
            "byteLength" : 48,
            "byteOffset" : 10852
        },
        {
            "buffer" : 0,
            "byteLength" : 48,
            "byteOffset" : 10900
        },
        {
            "buffer" : 0,
            "byteLength" : 32,
            "byteOffset" : 10948
        },
        {
            "buffer" : 0,
            "byteLength" : 12,
            "byteOffset" : 10980
        },
        {
            "buffer" : 0,
            "byteLength" : 408,
            "byteOffset" : 10992
        },
        {
            "buffer" : 0,
            "byteLength" : 408,
            "byteOffset" : 11400
        },
        {
            "buffer" : 0,
            "byteLength" : 272,
            "byteOffset" : 11808
        },
        {
            "buffer" : 0,
            "byteLength" : 84,
            "byteOffset" : 12080
        },
        {
            "buffer" : 0,
            "byteLength" : 72,
            "byteOffset" : 12164
        },
        {
            "buffer" : 0,
            "byteLength" : 72,
            "byteOffset" : 12236
        },
        {
            "buffer" : 0,
            "byteLength" : 48,
            "byteOffset" : 12308
        },
        {
            "buffer" : 0,
            "byteLength" : 12,
            "byteOffset" : 12356
        },
        {
            "buffer" : 0,
            "byteLength" : 72,
            "byteOffset" : 12368
        },
        {
            "buffer" : 0,
            "byteLength" : 72,
            "byteOffset" : 12440
        },
        {
            "buffer" : 0,
            "byteLength" : 48,
            "byteOffset" : 12512
        },
        {
            "buffer" : 0,
            "byteLength" : 12,
            "byteOffset" : 12560
        }
    ],
    "samplers" : [
        {
            "magFilter" : 9729,
            "minFilter" : 9987
        }
    ],
    "buffers" : [
        {
            "byteLength" : 12572,
            "uri" : "water_pump.bin"
        }
    ]
}
