{
    "asset" : {
        "generator" : "Khronos glTF Blender I/O v1.7.33",
        "version" : "2.0"
    },
    "scene" : 0,
    "scenes" : [
        {
            "name" : "Scene",
            "nodes" : [
                0
            ]
        }
    ],
    "nodes" : [
        {
            "mesh" : 0,
            "name" : "Maxis-3d3-mesh-76",
            "rotation" : [
                0.7071068286895752,
                0,
                0,
                0.7071067094802856
            ]
        }
    ],
    "materials" : [
        {
            "doubleSided" : true,
            "name" : "matcolour-48.023",
            "pbrMetallicRoughness" : {
                "baseColorFactor" : [
                    0.05882352963089943,
                    0.05882352963089943,
                    0.05882352963089943,
                    1
                ],
                "metallicFactor" : 0
            }
        },
        {
            "doubleSided" : true,
            "name" : "mat39-10",
            "pbrMetallicRoughness" : {
                "baseColorTexture" : {
                    "index" : 0
                },
                "metallicFactor" : 0
            }
        },
        {
            "doubleSided" : true,
            "name" : "mat39-9",
            "pbrMetallicRoughness" : {
                "baseColorTexture" : {
                    "index" : 1
                },
                "metallicFactor" : 0
            }
        },
        {
            "doubleSided" : true,
            "name" : "mat39-11",
            "pbrMetallicRoughness" : {
                "baseColorTexture" : {
                    "index" : 2
                },
                "metallicFactor" : 0
            }
        }
    ],
    "meshes" : [
        {
            "name" : "Maxis-3d3-mesh-76",
            "primitives" : [
                {
                    "attributes" : {
                        "POSITION" : 0,
                        "NORMAL" : 1,
                        "TEXCOORD_0" : 2
                    },
                    "indices" : 3,
                    "material" : 0
                },
                {
                    "attributes" : {
                        "POSITION" : 4,
                        "NORMAL" : 5,
                        "TEXCOORD_0" : 6
                    },
                    "indices" : 7,
                    "material" : 1
                },
                {
                    "attributes" : {
                        "POSITION" : 8,
                        "NORMAL" : 9,
                        "TEXCOORD_0" : 10
                    },
                    "indices" : 11,
                    "material" : 2
                },
                {
                    "attributes" : {
                        "POSITION" : 12,
                        "NORMAL" : 13,
                        "TEXCOORD_0" : 14
                    },
                    "indices" : 15,
                    "material" : 3
                }
            ]
        }
    ],
    "textures" : [
        {
            "sampler" : 0,
            "source" : 0
        },
        {
            "sampler" : 0,
            "source" : 1
        },
        {
            "sampler" : 0,
            "source" : 2
        }
    ],
    "images" : [
        {
            "mimeType" : "image/png",
            "name" : "tex39-10",
            "uri" : "../../Textures/tex39-10.png"
        },
        {
            "mimeType" : "image/png",
            "name" : "tex39-9",
            "uri" : "../../Textures/tex39-9.png"
        },
        {
            "mimeType" : "image/png",
            "name" : "tex39-11",
            "uri" : "../../Textures/tex39-11.png"
        }
    ],
    "accessors" : [
        {
            "bufferView" : 0,
            "componentType" : 5126,
            "count" : 220,
            "max" : [
                10.021114349365234,
                15.148944854736328,
                3.814697265625e-06
            ],
            "min" : [
                -10.242313385009766,
                -10.130699157714844,
                -13.35000228881836
            ],
            "type" : "VEC3"
        },
        {
            "bufferView" : 1,
            "componentType" : 5126,
            "count" : 220,
            "type" : "VEC3"
        },
        {
            "bufferView" : 2,
            "componentType" : 5126,
            "count" : 220,
            "type" : "VEC2"
        },
        {
            "bufferView" : 3,
            "componentType" : 5123,
            "count" : 228,
            "type" : "SCALAR"
        },
        {
            "bufferView" : 4,
            "componentType" : 5126,
            "count" : 6,
            "max" : [
                2.669361114501953,
                15.121379852294922,
                -3.814697265625e-06
            ],
            "min" : [
                2.6576499938964844,
                10.189563751220703,
                -8.859066009521484
            ],
            "type" : "VEC3"
        },
        {
            "bufferView" : 5,
            "componentType" : 5126,
            "count" : 6,
            "type" : "VEC3"
        },
        {
            "bufferView" : 6,
            "componentType" : 5126,
            "count" : 6,
            "type" : "VEC2"
        },
        {
            "bufferView" : 7,
            "componentType" : 5123,
            "count" : 6,
            "type" : "SCALAR"
        },
        {
            "bufferView" : 8,
            "componentType" : 5126,
            "count" : 6,
            "max" : [
                -2.917572021484375,
                15.14896011352539,
                -3.814697265625e-06
            ],
            "min" : [
                -2.93707275390625,
                10.066524505615234,
                -8.859066009521484
            ],
            "type" : "VEC3"
        },
        {
            "bufferView" : 9,
            "componentType" : 5126,
            "count" : 6,
            "type" : "VEC3"
        },
        {
            "bufferView" : 10,
            "componentType" : 5126,
            "count" : 6,
            "type" : "VEC2"
        },
        {
            "bufferView" : 11,
            "componentType" : 5123,
            "count" : 6,
            "type" : "SCALAR"
        },
        {
            "bufferView" : 12,
            "componentType" : 5126,
            "count" : 6,
            "max" : [
                2.669361114501953,
                15.14896011352539,
                -7.62939453125e-06
            ],
            "min" : [
                -2.93707275390625,
                15.12137222290039,
                -8.859066009521484
            ],
            "type" : "VEC3"
        },
        {
            "bufferView" : 13,
            "componentType" : 5126,
            "count" : 6,
            "type" : "VEC3"
        },
        {
            "bufferView" : 14,
            "componentType" : 5126,
            "count" : 6,
            "type" : "VEC2"
        },
        {
            "bufferView" : 15,
            "componentType" : 5123,
            "count" : 6,
            "type" : "SCALAR"
        }
    ],
    "bufferViews" : [
        {
            "buffer" : 0,
            "byteLength" : 2640,
            "byteOffset" : 0
        },
        {
            "buffer" : 0,
            "byteLength" : 2640,
            "byteOffset" : 2640
        },
        {
            "buffer" : 0,
            "byteLength" : 1760,
            "byteOffset" : 5280
        },
        {
            "buffer" : 0,
            "byteLength" : 456,
            "byteOffset" : 7040
        },
        {
            "buffer" : 0,
            "byteLength" : 72,
            "byteOffset" : 7496
        },
        {
            "buffer" : 0,
            "byteLength" : 72,
            "byteOffset" : 7568
        },
        {
            "buffer" : 0,
            "byteLength" : 48,
            "byteOffset" : 7640
        },
        {
            "buffer" : 0,
            "byteLength" : 12,
            "byteOffset" : 7688
        },
        {
            "buffer" : 0,
            "byteLength" : 72,
            "byteOffset" : 7700
        },
        {
            "buffer" : 0,
            "byteLength" : 72,
            "byteOffset" : 7772
        },
        {
            "buffer" : 0,
            "byteLength" : 48,
            "byteOffset" : 7844
        },
        {
            "buffer" : 0,
            "byteLength" : 12,
            "byteOffset" : 7892
        },
        {
            "buffer" : 0,
            "byteLength" : 72,
            "byteOffset" : 7904
        },
        {
            "buffer" : 0,
            "byteLength" : 72,
            "byteOffset" : 7976
        },
        {
            "buffer" : 0,
            "byteLength" : 48,
            "byteOffset" : 8048
        },
        {
            "buffer" : 0,
            "byteLength" : 12,
            "byteOffset" : 8096
        }
    ],
    "samplers" : [
        {
            "magFilter" : 9729,
            "minFilter" : 9987
        }
    ],
    "buffers" : [
        {
            "byteLength" : 8108,
            "uri" : "water_treatment.bin"
        }
    ]
}
