{
    "asset" : {
        "generator" : "Khronos glTF Blender I/O v1.7.33",
        "version" : "2.0"
    },
    "scene" : 0,
    "scenes" : [
        {
            "name" : "Scene",
            "nodes" : [
                0
            ]
        }
    ],
    "nodes" : [
        {
            "mesh" : 0,
            "name" : "Maxis-3d1-mesh-26.001",
            "rotation" : [
                0.7071068286895752,
                0,
                0,
                0.7071067094802856
            ]
        }
    ],
    "materials" : [
        {
            "doubleSided" : true,
            "name" : "matcolour-48.012",
            "pbrMetallicRoughness" : {
                "baseColorFactor" : [
                    0.05882352963089943,
                    0.05882352963089943,
                    0.05882352963089943,
                    1
                ],
                "metallicFactor" : 0
            }
        },
        {
            "doubleSided" : true,
            "name" : "matcolour-0.001",
            "pbrMetallicRoughness" : {
                "baseColorFactor" : [
                    0,
                    0,
                    0,
                    1
                ],
                "metallicFactor" : 0
            }
        },
        {
            "doubleSided" : true,
            "name" : "mat40-23",
            "pbrMetallicRoughness" : {
                "baseColorTexture" : {
                    "index" : 0
                },
                "metallicFactor" : 0
            }
        },
        {
            "doubleSided" : true,
            "name" : "mat40-20",
            "pbrMetallicRoughness" : {
                "baseColorTexture" : {
                    "index" : 1
                },
                "metallicFactor" : 0
            }
        },
        {
            "doubleSided" : true,
            "name" : "mat40-21",
            "pbrMetallicRoughness" : {
                "baseColorTexture" : {
                    "index" : 2
                },
                "metallicFactor" : 0
            }
        },
        {
            "doubleSided" : true,
            "name" : "mat40-22",
            "pbrMetallicRoughness" : {
                "baseColorTexture" : {
                    "index" : 3
                },
                "metallicFactor" : 0
            }
        }
    ],
    "meshes" : [
        {
            "name" : "Maxis-3d1-mesh-26.001",
            "primitives" : [
                {
                    "attributes" : {
                        "POSITION" : 0,
                        "NORMAL" : 1,
                        "TEXCOORD_0" : 2
                    },
                    "indices" : 3,
                    "material" : 0
                },
                {
                    "attributes" : {
                        "POSITION" : 4,
                        "NORMAL" : 5,
                        "TEXCOORD_0" : 6
                    },
                    "indices" : 7,
                    "material" : 1
                },
                {
                    "attributes" : {
                        "POSITION" : 8,
                        "NORMAL" : 9,
                        "TEXCOORD_0" : 10
                    },
                    "indices" : 11,
                    "material" : 2
                },
                {
                    "attributes" : {
                        "POSITION" : 12,
                        "NORMAL" : 13,
                        "TEXCOORD_0" : 14
                    },
                    "indices" : 15,
                    "material" : 3
                },
                {
                    "attributes" : {
                        "POSITION" : 16,
                        "NORMAL" : 17,
                        "TEXCOORD_0" : 18
                    },
                    "indices" : 19,
                    "material" : 4
                },
                {
                    "attributes" : {
                        "POSITION" : 20,
                        "NORMAL" : 21,
                        "TEXCOORD_0" : 22
                    },
                    "indices" : 23,
                    "material" : 5
                }
            ]
        }
    ],
    "textures" : [
        {
            "sampler" : 0,
            "source" : 0
        },
        {
            "sampler" : 0,
            "source" : 1
        },
        {
            "sampler" : 0,
            "source" : 2
        },
        {
            "sampler" : 0,
            "source" : 3
        }
    ],
    "images" : [
        {
            "mimeType" : "image/png",
            "name" : "tex40-23",
            "uri" : "../../../Textures/tex40-23.png"
        },
        {
            "mimeType" : "image/png",
            "name" : "tex40-20",
            "uri" : "../../../Textures/tex40-20.png"
        },
        {
            "mimeType" : "image/png",
            "name" : "tex40-21",
            "uri" : "../../../Textures/tex40-21.png"
        },
        {
            "mimeType" : "image/png",
            "name" : "tex40-22",
            "uri" : "../../../Textures/tex40-22.png"
        }
    ],
    "accessors" : [
        {
            "bufferView" : 0,
            "componentType" : 5126,
            "count" : 18,
            "max" : [
                9.193340301513672,
                13.596351623535156,
                -5.216270446777344
            ],
            "min" : [
                -9.929615020751953,
                -13.282569885253906,
                -11.099018096923828
            ],
            "type" : "VEC3"
        },
        {
            "bufferView" : 1,
            "componentType" : 5126,
            "count" : 18,
            "type" : "VEC3"
        },
        {
            "bufferView" : 2,
            "componentType" : 5126,
            "count" : 18,
            "type" : "VEC2"
        },
        {
            "bufferView" : 3,
            "componentType" : 5123,
            "count" : 18,
            "type" : "SCALAR"
        },
        {
            "bufferView" : 4,
            "componentType" : 5126,
            "count" : 10,
            "max" : [
                6.820758819580078,
                13.596351623535156,
                -0.000125885009765625
            ],
            "min" : [
                -7.182651519775391,
                -13.282569885253906,
                -9.831340789794922
            ],
            "type" : "VEC3"
        },
        {
            "bufferView" : 5,
            "componentType" : 5126,
            "count" : 10,
            "type" : "VEC3"
        },
        {
            "bufferView" : 6,
            "componentType" : 5126,
            "count" : 10,
            "type" : "VEC2"
        },
        {
            "bufferView" : 7,
            "componentType" : 5123,
            "count" : 12,
            "type" : "SCALAR"
        },
        {
            "bufferView" : 8,
            "componentType" : 5126,
            "count" : 21,
            "max" : [
                9.193340301513672,
                13.596351623535156,
                0
            ],
            "min" : [
                -9.929615020751953,
                13.596351623535156,
                -11.099018096923828
            ],
            "type" : "VEC3"
        },
        {
            "bufferView" : 9,
            "componentType" : 5126,
            "count" : 21,
            "type" : "VEC3"
        },
        {
            "bufferView" : 10,
            "componentType" : 5126,
            "count" : 21,
            "type" : "VEC2"
        },
        {
            "bufferView" : 11,
            "componentType" : 5123,
            "count" : 27,
            "type" : "SCALAR"
        },
        {
            "bufferView" : 12,
            "componentType" : 5126,
            "count" : 11,
            "max" : [
                9.193340301513672,
                -13.282569885253906,
                0
            ],
            "min" : [
                -9.929615020751953,
                -13.282569885253906,
                -11.099018096923828
            ],
            "type" : "VEC3"
        },
        {
            "bufferView" : 13,
            "componentType" : 5126,
            "count" : 11,
            "type" : "VEC3"
        },
        {
            "bufferView" : 14,
            "componentType" : 5126,
            "count" : 11,
            "type" : "VEC2"
        },
        {
            "bufferView" : 15,
            "componentType" : 5123,
            "count" : 15,
            "type" : "SCALAR"
        },
        {
            "bufferView" : 16,
            "componentType" : 5126,
            "count" : 6,
            "max" : [
                -9.918235778808594,
                13.596351623535156,
                -0.000118255615234375
            ],
            "min" : [
                -9.929615020751953,
                -13.282569885253906,
                -5.216278076171875
            ],
            "type" : "VEC3"
        },
        {
            "bufferView" : 17,
            "componentType" : 5126,
            "count" : 6,
            "type" : "VEC3"
        },
        {
            "bufferView" : 18,
            "componentType" : 5126,
            "count" : 6,
            "type" : "VEC2"
        },
        {
            "bufferView" : 19,
            "componentType" : 5123,
            "count" : 6,
            "type" : "SCALAR"
        },
        {
            "bufferView" : 20,
            "componentType" : 5126,
            "count" : 6,
            "max" : [
                9.193340301513672,
                13.596351623535156,
                0
            ],
            "min" : [
                9.166664123535156,
                -13.282569885253906,
                -5.415122985839844
            ],
            "type" : "VEC3"
        },
        {
            "bufferView" : 21,
            "componentType" : 5126,
            "count" : 6,
            "type" : "VEC3"
        },
        {
            "bufferView" : 22,
            "componentType" : 5126,
            "count" : 6,
            "type" : "VEC2"
        },
        {
            "bufferView" : 23,
            "componentType" : 5123,
            "count" : 6,
            "type" : "SCALAR"
        }
    ],
    "bufferViews" : [
        {
            "buffer" : 0,
            "byteLength" : 216,
            "byteOffset" : 0
        },
        {
            "buffer" : 0,
            "byteLength" : 216,
            "byteOffset" : 216
        },
        {
            "buffer" : 0,
            "byteLength" : 144,
            "byteOffset" : 432
        },
        {
            "buffer" : 0,
            "byteLength" : 36,
            "byteOffset" : 576
        },
        {
            "buffer" : 0,
            "byteLength" : 120,
            "byteOffset" : 612
        },
        {
            "buffer" : 0,
            "byteLength" : 120,
            "byteOffset" : 732
        },
        {
            "buffer" : 0,
            "byteLength" : 80,
            "byteOffset" : 852
        },
        {
            "buffer" : 0,
            "byteLength" : 24,
            "byteOffset" : 932
        },
        {
            "buffer" : 0,
            "byteLength" : 252,
            "byteOffset" : 956
        },
        {
            "buffer" : 0,
            "byteLength" : 252,
            "byteOffset" : 1208
        },
        {
            "buffer" : 0,
            "byteLength" : 168,
            "byteOffset" : 1460
        },
        {
            "buffer" : 0,
            "byteLength" : 54,
            "byteOffset" : 1628
        },
        {
            "buffer" : 0,
            "byteLength" : 132,
            "byteOffset" : 1684
        },
        {
            "buffer" : 0,
            "byteLength" : 132,
            "byteOffset" : 1816
        },
        {
            "buffer" : 0,
            "byteLength" : 88,
            "byteOffset" : 1948
        },
        {
            "buffer" : 0,
            "byteLength" : 30,
            "byteOffset" : 2036
        },
        {
            "buffer" : 0,
            "byteLength" : 72,
            "byteOffset" : 2068
        },
        {
            "buffer" : 0,
            "byteLength" : 72,
            "byteOffset" : 2140
        },
        {
            "buffer" : 0,
            "byteLength" : 48,
            "byteOffset" : 2212
        },
        {
            "buffer" : 0,
            "byteLength" : 12,
            "byteOffset" : 2260
        },
        {
            "buffer" : 0,
            "byteLength" : 72,
            "byteOffset" : 2272
        },
        {
            "buffer" : 0,
            "byteLength" : 72,
            "byteOffset" : 2344
        },
        {
            "buffer" : 0,
            "byteLength" : 48,
            "byteOffset" : 2416
        },
        {
            "buffer" : 0,
            "byteLength" : 12,
            "byteOffset" : 2464
        }
    ],
    "samplers" : [
        {
            "magFilter" : 9729,
            "minFilter" : 9987
        }
    ],
    "buffers" : [
        {
            "byteLength" : 2476,
            "uri" : "hangar_2.bin"
        }
    ]
}
