{
	"asset":{
		"generator":"Khronos glTF Blender I/O v4.3.47",
		"version":"2.0"
	},
	"scene":0,
	"scenes":[
		{
			"name":"Scene",
			"nodes":[
				0,
				1
			]
		}
	],
	"nodes":[
		{
			"mesh":0,
			"name":"Maxis-3d1-mesh-26.001",
			"rotation":[
				0.70710688829422,
				0,
				0,
				0.7071066498756409
			]
		},
		{
			"extras":{
				"gd_node":"Decal",
				"lower_fade":9,
				"upper_fade":10
			},
			"mesh":1,
			"name":"Ground_AO",
			"scale":[
				20.122955322265625,
				1,
				27.878921508789062
			],
			"translation":[
				-0.3681373596191406,
				0,
				0.1568918228149414
			]
		}
	],
	"materials":[
		{
			"name":"matcolour-48.012",
			"occlusionTexture":{
				"index":0,
				"texCoord":1
			},
			"pbrMetallicRoughness":{
				"baseColorFactor":[
					0.05882352963089943,
					0.05882352963089943,
					0.05882352963089943,
					1
				],
				"metallicFactor":0
			}
		},
		{
			"name":"matcolour-0.001",
			"occlusionTexture":{
				"index":1,
				"texCoord":1
			},
			"pbrMetallicRoughness":{
				"baseColorFactor":[
					0,
					0,
					0,
					1
				],
				"metallicFactor":0
			}
		},
		{
			"name":"mat40-23",
			"occlusionTexture":{
				"index":2,
				"texCoord":1
			},
			"pbrMetallicRoughness":{
				"baseColorTexture":{
					"index":3
				},
				"metallicFactor":0
			}
		},
		{
			"name":"mat40-20",
			"occlusionTexture":{
				"index":4,
				"texCoord":1
			},
			"pbrMetallicRoughness":{
				"baseColorTexture":{
					"index":5
				},
				"metallicFactor":0
			}
		},
		{
			"name":"mat40-21",
			"occlusionTexture":{
				"index":6,
				"texCoord":1
			},
			"pbrMetallicRoughness":{
				"baseColorTexture":{
					"index":7
				},
				"metallicFactor":0
			}
		},
		{
			"name":"mat40-22",
			"occlusionTexture":{
				"index":8,
				"texCoord":1
			},
			"pbrMetallicRoughness":{
				"baseColorTexture":{
					"index":9
				},
				"metallicFactor":0
			}
		},
		{
			"name":"Ground_AO",
			"occlusionTexture":{
				"index":10
			},
			"pbrMetallicRoughness":{
				"baseColorFactor":[
					0.800000011920929,
					0.800000011920929,
					0.800000011920929,
					1
				],
				"metallicFactor":0,
				"roughnessFactor":0.5
			}
		}
	],
	"meshes":[
		{
			"name":"Maxis-3d1-mesh-26.001",
			"primitives":[
				{
					"attributes":{
						"POSITION":0,
						"NORMAL":1,
						"TEXCOORD_0":2,
						"TEXCOORD_1":3
					},
					"indices":4,
					"material":0
				},
				{
					"attributes":{
						"POSITION":5,
						"NORMAL":6,
						"TEXCOORD_0":7,
						"TEXCOORD_1":8
					},
					"indices":9,
					"material":1
				},
				{
					"attributes":{
						"POSITION":10,
						"NORMAL":11,
						"TEXCOORD_0":12,
						"TEXCOORD_1":13
					},
					"indices":14,
					"material":2
				},
				{
					"attributes":{
						"POSITION":15,
						"NORMAL":16,
						"TEXCOORD_0":17,
						"TEXCOORD_1":18
					},
					"indices":19,
					"material":3
				},
				{
					"attributes":{
						"POSITION":20,
						"NORMAL":21,
						"TEXCOORD_0":22,
						"TEXCOORD_1":23
					},
					"indices":24,
					"material":4
				},
				{
					"attributes":{
						"POSITION":25,
						"NORMAL":26,
						"TEXCOORD_0":27,
						"TEXCOORD_1":28
					},
					"indices":29,
					"material":5
				}
			]
		},
		{
			"name":"Plane",
			"primitives":[
				{
					"attributes":{
						"POSITION":30,
						"NORMAL":31,
						"TEXCOORD_0":32
					},
					"indices":33,
					"material":6
				}
			]
		}
	],
	"textures":[
		{
			"sampler":0,
			"source":0
		},
		{
			"sampler":0,
			"source":0
		},
		{
			"sampler":0,
			"source":0
		},
		{
			"sampler":0,
			"source":1
		},
		{
			"sampler":0,
			"source":0
		},
		{
			"sampler":0,
			"source":2
		},
		{
			"sampler":0,
			"source":0
		},
		{
			"sampler":0,
			"source":3
		},
		{
			"sampler":0,
			"source":0
		},
		{
			"sampler":0,
			"source":4
		},
		{
			"sampler":0,
			"source":5
		}
	],
	"images":[
		{
			"mimeType":"image/png",
			"name":"hangar_2.png",
			"uri":"../../../Textures/ambient_occlusion/Buildings/Hangar/hangar_2.png"
		},
		{
			"mimeType":"image/png",
			"name":"tex40-23",
			"uri":"../../../Textures/tex40-23.png"
		},
		{
			"mimeType":"image/png",
			"name":"tex40-20",
			"uri":"../../../Textures/tex40-20.png"
		},
		{
			"mimeType":"image/png",
			"name":"tex40-21",
			"uri":"../../../Textures/tex40-21.png"
		},
		{
			"mimeType":"image/png",
			"name":"tex40-22",
			"uri":"../../../Textures/tex40-22.png"
		},
		{
			"mimeType":"image/png",
			"name":"hangar_2_ground.png",
			"uri":"../../../Textures/ambient_occlusion/Buildings/Hangar/hangar_2_ground.png"
		}
	],
	"accessors":[
		{
			"bufferView":0,
			"componentType":5126,
			"count":12,
			"max":[
				9.193340301513672,
				13.596351623535156,
				-5.216270446777344
			],
			"min":[
				-9.929615020751953,
				-13.282569885253906,
				-11.099018096923828
			],
			"type":"VEC3"
		},
		{
			"bufferView":1,
			"componentType":5126,
			"count":12,
			"type":"VEC3"
		},
		{
			"bufferView":2,
			"componentType":5126,
			"count":12,
			"type":"VEC2"
		},
		{
			"bufferView":3,
			"componentType":5126,
			"count":12,
			"type":"VEC2"
		},
		{
			"bufferView":4,
			"componentType":5123,
			"count":18,
			"type":"SCALAR"
		},
		{
			"bufferView":5,
			"componentType":5126,
			"count":8,
			"max":[
				6.820758819580078,
				13.596351623535156,
				-0.000125885009765625
			],
			"min":[
				-7.182651519775391,
				-13.282569885253906,
				-9.831340789794922
			],
			"type":"VEC3"
		},
		{
			"bufferView":6,
			"componentType":5126,
			"count":8,
			"type":"VEC3"
		},
		{
			"bufferView":7,
			"componentType":5126,
			"count":8,
			"type":"VEC2"
		},
		{
			"bufferView":8,
			"componentType":5126,
			"count":8,
			"type":"VEC2"
		},
		{
			"bufferView":9,
			"componentType":5123,
			"count":12,
			"type":"SCALAR"
		},
		{
			"bufferView":10,
			"componentType":5126,
			"count":11,
			"max":[
				9.193340301513672,
				13.596351623535156,
				0
			],
			"min":[
				-9.929615020751953,
				13.596351623535156,
				-11.099018096923828
			],
			"type":"VEC3"
		},
		{
			"bufferView":11,
			"componentType":5126,
			"count":11,
			"type":"VEC3"
		},
		{
			"bufferView":12,
			"componentType":5126,
			"count":11,
			"type":"VEC2"
		},
		{
			"bufferView":13,
			"componentType":5126,
			"count":11,
			"type":"VEC2"
		},
		{
			"bufferView":14,
			"componentType":5123,
			"count":27,
			"type":"SCALAR"
		},
		{
			"bufferView":15,
			"componentType":5126,
			"count":7,
			"max":[
				9.193340301513672,
				-13.282569885253906,
				0
			],
			"min":[
				-9.929615020751953,
				-13.282569885253906,
				-11.099018096923828
			],
			"type":"VEC3"
		},
		{
			"bufferView":16,
			"componentType":5126,
			"count":7,
			"type":"VEC3"
		},
		{
			"bufferView":17,
			"componentType":5126,
			"count":7,
			"type":"VEC2"
		},
		{
			"bufferView":18,
			"componentType":5126,
			"count":7,
			"type":"VEC2"
		},
		{
			"bufferView":19,
			"componentType":5123,
			"count":15,
			"type":"SCALAR"
		},
		{
			"bufferView":20,
			"componentType":5126,
			"count":4,
			"max":[
				-9.918235778808594,
				13.596351623535156,
				-0.000118255615234375
			],
			"min":[
				-9.929615020751953,
				-13.282569885253906,
				-5.216278076171875
			],
			"type":"VEC3"
		},
		{
			"bufferView":21,
			"componentType":5126,
			"count":4,
			"type":"VEC3"
		},
		{
			"bufferView":22,
			"componentType":5126,
			"count":4,
			"type":"VEC2"
		},
		{
			"bufferView":23,
			"componentType":5126,
			"count":4,
			"type":"VEC2"
		},
		{
			"bufferView":24,
			"componentType":5123,
			"count":6,
			"type":"SCALAR"
		},
		{
			"bufferView":25,
			"componentType":5126,
			"count":4,
			"max":[
				9.193340301513672,
				13.596351623535156,
				0
			],
			"min":[
				9.166664123535156,
				-13.282569885253906,
				-5.415122985839844
			],
			"type":"VEC3"
		},
		{
			"bufferView":26,
			"componentType":5126,
			"count":4,
			"type":"VEC3"
		},
		{
			"bufferView":27,
			"componentType":5126,
			"count":4,
			"type":"VEC2"
		},
		{
			"bufferView":28,
			"componentType":5126,
			"count":4,
			"type":"VEC2"
		},
		{
			"bufferView":29,
			"componentType":5123,
			"count":6,
			"type":"SCALAR"
		},
		{
			"bufferView":30,
			"componentType":5126,
			"count":4,
			"max":[
				0.5,
				0,
				0.5
			],
			"min":[
				-0.5,
				0,
				-0.5
			],
			"type":"VEC3"
		},
		{
			"bufferView":31,
			"componentType":5126,
			"count":4,
			"type":"VEC3"
		},
		{
			"bufferView":32,
			"componentType":5126,
			"count":4,
			"type":"VEC2"
		},
		{
			"bufferView":33,
			"componentType":5123,
			"count":6,
			"type":"SCALAR"
		}
	],
	"bufferViews":[
		{
			"buffer":0,
			"byteLength":144,
			"byteOffset":0,
			"target":34962
		},
		{
			"buffer":0,
			"byteLength":144,
			"byteOffset":144,
			"target":34962
		},
		{
			"buffer":0,
			"byteLength":96,
			"byteOffset":288,
			"target":34962
		},
		{
			"buffer":0,
			"byteLength":96,
			"byteOffset":384,
			"target":34962
		},
		{
			"buffer":0,
			"byteLength":36,
			"byteOffset":480,
			"target":34963
		},
		{
			"buffer":0,
			"byteLength":96,
			"byteOffset":516,
			"target":34962
		},
		{
			"buffer":0,
			"byteLength":96,
			"byteOffset":612,
			"target":34962
		},
		{
			"buffer":0,
			"byteLength":64,
			"byteOffset":708,
			"target":34962
		},
		{
			"buffer":0,
			"byteLength":64,
			"byteOffset":772,
			"target":34962
		},
		{
			"buffer":0,
			"byteLength":24,
			"byteOffset":836,
			"target":34963
		},
		{
			"buffer":0,
			"byteLength":132,
			"byteOffset":860,
			"target":34962
		},
		{
			"buffer":0,
			"byteLength":132,
			"byteOffset":992,
			"target":34962
		},
		{
			"buffer":0,
			"byteLength":88,
			"byteOffset":1124,
			"target":34962
		},
		{
			"buffer":0,
			"byteLength":88,
			"byteOffset":1212,
			"target":34962
		},
		{
			"buffer":0,
			"byteLength":54,
			"byteOffset":1300,
			"target":34963
		},
		{
			"buffer":0,
			"byteLength":84,
			"byteOffset":1356,
			"target":34962
		},
		{
			"buffer":0,
			"byteLength":84,
			"byteOffset":1440,
			"target":34962
		},
		{
			"buffer":0,
			"byteLength":56,
			"byteOffset":1524,
			"target":34962
		},
		{
			"buffer":0,
			"byteLength":56,
			"byteOffset":1580,
			"target":34962
		},
		{
			"buffer":0,
			"byteLength":30,
			"byteOffset":1636,
			"target":34963
		},
		{
			"buffer":0,
			"byteLength":48,
			"byteOffset":1668,
			"target":34962
		},
		{
			"buffer":0,
			"byteLength":48,
			"byteOffset":1716,
			"target":34962
		},
		{
			"buffer":0,
			"byteLength":32,
			"byteOffset":1764,
			"target":34962
		},
		{
			"buffer":0,
			"byteLength":32,
			"byteOffset":1796,
			"target":34962
		},
		{
			"buffer":0,
			"byteLength":12,
			"byteOffset":1828,
			"target":34963
		},
		{
			"buffer":0,
			"byteLength":48,
			"byteOffset":1840,
			"target":34962
		},
		{
			"buffer":0,
			"byteLength":48,
			"byteOffset":1888,
			"target":34962
		},
		{
			"buffer":0,
			"byteLength":32,
			"byteOffset":1936,
			"target":34962
		},
		{
			"buffer":0,
			"byteLength":32,
			"byteOffset":1968,
			"target":34962
		},
		{
			"buffer":0,
			"byteLength":12,
			"byteOffset":2000,
			"target":34963
		},
		{
			"buffer":0,
			"byteLength":48,
			"byteOffset":2012,
			"target":34962
		},
		{
			"buffer":0,
			"byteLength":48,
			"byteOffset":2060,
			"target":34962
		},
		{
			"buffer":0,
			"byteLength":32,
			"byteOffset":2108,
			"target":34962
		},
		{
			"buffer":0,
			"byteLength":12,
			"byteOffset":2140,
			"target":34963
		}
	],
	"samplers":[
		{
			"magFilter":9729,
			"minFilter":9987
		}
	],
	"buffers":[
		{
			"byteLength":2152,
			"uri":"hangar_2.bin"
		}
	]
}
