{
    "asset" : {
        "generator" : "Khronos glTF Blender I/O v1.7.33",
        "version" : "2.0"
    },
    "scene" : 0,
    "scenes" : [
        {
            "name" : "Scene",
            "nodes" : [
                0
            ]
        }
    ],
    "nodes" : [
        {
            "mesh" : 0,
            "name" : "Maxis-3d1-mesh-39",
            "rotation" : [
                0.7071068286895752,
                0,
                0,
                0.7071067094802856
            ]
        }
    ],
    "materials" : [
        {
            "doubleSided" : true,
            "name" : "matcolour-48.013",
            "pbrMetallicRoughness" : {
                "baseColorFactor" : [
                    0.05882352963089943,
                    0.05882352963089943,
                    0.05882352963089943,
                    1
                ],
                "metallicFactor" : 0
            }
        },
        {
            "doubleSided" : true,
            "name" : "mat39-3.002",
            "pbrMetallicRoughness" : {
                "baseColorTexture" : {
                    "index" : 0
                },
                "metallicFactor" : 0
            }
        },
        {
            "doubleSided" : true,
            "name" : "mat39-0.002",
            "pbrMetallicRoughness" : {
                "baseColorTexture" : {
                    "index" : 1
                },
                "metallicFactor" : 0
            }
        },
        {
            "doubleSided" : true,
            "name" : "mat39-2.002",
            "pbrMetallicRoughness" : {
                "baseColorTexture" : {
                    "index" : 2
                },
                "metallicFactor" : 0
            }
        },
        {
            "doubleSided" : true,
            "name" : "mat39-1.002",
            "pbrMetallicRoughness" : {
                "baseColorTexture" : {
                    "index" : 3
                },
                "metallicFactor" : 0
            }
        },
        {
            "doubleSided" : true,
            "name" : "mat40-51.001",
            "pbrMetallicRoughness" : {
                "baseColorTexture" : {
                    "index" : 4
                },
                "metallicFactor" : 0
            }
        },
        {
            "doubleSided" : true,
            "name" : "mat40-48.001",
            "pbrMetallicRoughness" : {
                "baseColorTexture" : {
                    "index" : 5
                },
                "metallicFactor" : 0
            }
        },
        {
            "doubleSided" : true,
            "name" : "mat40-50.001",
            "pbrMetallicRoughness" : {
                "baseColorTexture" : {
                    "index" : 6
                },
                "metallicFactor" : 0
            }
        },
        {
            "doubleSided" : true,
            "name" : "mat40-49.001",
            "pbrMetallicRoughness" : {
                "baseColorTexture" : {
                    "index" : 7
                },
                "metallicFactor" : 0
            }
        },
        {
            "doubleSided" : true,
            "name" : "matcolour-160.002",
            "pbrMetallicRoughness" : {
                "baseColorFactor" : [
                    0.019607843831181526,
                    0.16470588743686676,
                    0.14509804546833038,
                    1
                ],
                "metallicFactor" : 0
            }
        },
        {
            "doubleSided" : true,
            "name" : "matcolour-0.002",
            "pbrMetallicRoughness" : {
                "baseColorFactor" : [
                    0,
                    0,
                    0,
                    1
                ],
                "metallicFactor" : 0
            }
        }
    ],
    "meshes" : [
        {
            "name" : "Maxis-3d1-mesh-39",
            "primitives" : [
                {
                    "attributes" : {
                        "POSITION" : 0,
                        "NORMAL" : 1,
                        "TEXCOORD_0" : 2
                    },
                    "indices" : 3,
                    "material" : 0
                },
                {
                    "attributes" : {
                        "POSITION" : 4,
                        "NORMAL" : 5,
                        "TEXCOORD_0" : 6
                    },
                    "indices" : 7,
                    "material" : 1
                },
                {
                    "attributes" : {
                        "POSITION" : 8,
                        "NORMAL" : 9,
                        "TEXCOORD_0" : 10
                    },
                    "indices" : 11,
                    "material" : 2
                },
                {
                    "attributes" : {
                        "POSITION" : 12,
                        "NORMAL" : 13,
                        "TEXCOORD_0" : 14
                    },
                    "indices" : 15,
                    "material" : 3
                },
                {
                    "attributes" : {
                        "POSITION" : 16,
                        "NORMAL" : 17,
                        "TEXCOORD_0" : 18
                    },
                    "indices" : 19,
                    "material" : 4
                },
                {
                    "attributes" : {
                        "POSITION" : 20,
                        "NORMAL" : 21,
                        "TEXCOORD_0" : 22
                    },
                    "indices" : 23,
                    "material" : 5
                },
                {
                    "attributes" : {
                        "POSITION" : 24,
                        "NORMAL" : 25,
                        "TEXCOORD_0" : 26
                    },
                    "indices" : 11,
                    "material" : 6
                },
                {
                    "attributes" : {
                        "POSITION" : 27,
                        "NORMAL" : 28,
                        "TEXCOORD_0" : 29
                    },
                    "indices" : 30,
                    "material" : 7
                },
                {
                    "attributes" : {
                        "POSITION" : 31,
                        "NORMAL" : 32,
                        "TEXCOORD_0" : 33
                    },
                    "indices" : 34,
                    "material" : 8
                },
                {
                    "attributes" : {
                        "POSITION" : 35,
                        "NORMAL" : 36,
                        "TEXCOORD_0" : 37
                    },
                    "indices" : 38,
                    "material" : 9
                },
                {
                    "attributes" : {
                        "POSITION" : 39,
                        "NORMAL" : 40,
                        "TEXCOORD_0" : 41
                    },
                    "indices" : 42,
                    "material" : 10
                },
                {
                    "attributes" : {
                        "POSITION" : 43
                    },
                    "material" : 0,
                    "mode" : 0
                }
            ]
        }
    ],
    "textures" : [
        {
            "sampler" : 0,
            "source" : 0
        },
        {
            "sampler" : 0,
            "source" : 1
        },
        {
            "sampler" : 0,
            "source" : 2
        },
        {
            "sampler" : 0,
            "source" : 3
        },
        {
            "sampler" : 0,
            "source" : 4
        },
        {
            "sampler" : 0,
            "source" : 5
        },
        {
            "sampler" : 0,
            "source" : 6
        },
        {
            "sampler" : 0,
            "source" : 7
        }
    ],
    "images" : [
        {
            "mimeType" : "image/png",
            "name" : "tex39-3",
            "uri" : "../../../Textures/tex39-3.png"
        },
        {
            "mimeType" : "image/png",
            "name" : "tex39-0",
            "uri" : "../../../Textures/tex39-0.png"
        },
        {
            "mimeType" : "image/png",
            "name" : "tex39-2",
            "uri" : "../../../Textures/tex39-2.png"
        },
        {
            "mimeType" : "image/png",
            "name" : "tex39-1",
            "uri" : "../../../Textures/tex39-1.png"
        },
        {
            "mimeType" : "image/png",
            "name" : "tex40-51",
            "uri" : "../../../Textures/tex40-51.png"
        },
        {
            "mimeType" : "image/png",
            "name" : "tex40-48",
            "uri" : "../../../Textures/tex40-48.png"
        },
        {
            "mimeType" : "image/png",
            "name" : "tex40-50",
            "uri" : "../../../Textures/tex40-50.png"
        },
        {
            "mimeType" : "image/png",
            "name" : "tex40-49",
            "uri" : "../../../Textures/tex40-49.png"
        }
    ],
    "accessors" : [
        {
            "bufferView" : 0,
            "componentType" : 5126,
            "count" : 60,
            "max" : [
                10.35858154296875,
                18.863021850585938,
                0.0102081298828125
            ],
            "min" : [
                -22.308582305908203,
                -15.337764739990234,
                -76.83670043945312
            ],
            "type" : "VEC3"
        },
        {
            "bufferView" : 1,
            "componentType" : 5126,
            "count" : 60,
            "type" : "VEC3"
        },
        {
            "bufferView" : 2,
            "componentType" : 5126,
            "count" : 60,
            "type" : "VEC2"
        },
        {
            "bufferView" : 3,
            "componentType" : 5123,
            "count" : 66,
            "type" : "SCALAR"
        },
        {
            "bufferView" : 4,
            "componentType" : 5126,
            "count" : 16,
            "max" : [
                10.35858154296875,
                17.329437255859375,
                0.0102081298828125
            ],
            "min" : [
                -22.308582305908203,
                17.329402923583984,
                -68.87004089355469
            ],
            "type" : "VEC3"
        },
        {
            "bufferView" : 5,
            "componentType" : 5126,
            "count" : 16,
            "type" : "VEC3"
        },
        {
            "bufferView" : 6,
            "componentType" : 5126,
            "count" : 16,
            "type" : "VEC2"
        },
        {
            "bufferView" : 7,
            "componentType" : 5123,
            "count" : 18,
            "type" : "SCALAR"
        },
        {
            "bufferView" : 8,
            "componentType" : 5126,
            "count" : 4,
            "max" : [
                10.35858154296875,
                -15.337726593017578,
                3.814697265625e-06
            ],
            "min" : [
                -22.308582305908203,
                -15.337764739990234,
                -68.87004089355469
            ],
            "type" : "VEC3"
        },
        {
            "bufferView" : 9,
            "componentType" : 5126,
            "count" : 4,
            "type" : "VEC3"
        },
        {
            "bufferView" : 10,
            "componentType" : 5126,
            "count" : 4,
            "type" : "VEC2"
        },
        {
            "bufferView" : 11,
            "componentType" : 5123,
            "count" : 6,
            "type" : "SCALAR"
        },
        {
            "bufferView" : 12,
            "componentType" : 5126,
            "count" : 6,
            "max" : [
                10.35858154296875,
                17.329437255859375,
                3.814697265625e-06
            ],
            "min" : [
                10.35858154296875,
                -15.337764739990234,
                -68.87004089355469
            ],
            "type" : "VEC3"
        },
        {
            "bufferView" : 13,
            "componentType" : 5126,
            "count" : 6,
            "type" : "VEC3"
        },
        {
            "bufferView" : 14,
            "componentType" : 5126,
            "count" : 6,
            "type" : "VEC2"
        },
        {
            "bufferView" : 15,
            "componentType" : 5123,
            "count" : 6,
            "type" : "SCALAR"
        },
        {
            "bufferView" : 16,
            "componentType" : 5126,
            "count" : 6,
            "max" : [
                -22.308582305908203,
                17.329437255859375,
                3.814697265625e-06
            ],
            "min" : [
                -22.308582305908203,
                -15.337764739990234,
                -68.87004089355469
            ],
            "type" : "VEC3"
        },
        {
            "bufferView" : 17,
            "componentType" : 5126,
            "count" : 6,
            "type" : "VEC3"
        },
        {
            "bufferView" : 18,
            "componentType" : 5126,
            "count" : 6,
            "type" : "VEC2"
        },
        {
            "bufferView" : 19,
            "componentType" : 5123,
            "count" : 6,
            "type" : "SCALAR"
        },
        {
            "bufferView" : 20,
            "componentType" : 5126,
            "count" : 4,
            "max" : [
                -7.3527069091796875,
                10.255928039550781,
                -68.87004089355469
            ],
            "min" : [
                -16.547290802001953,
                10.255924224853516,
                -76.83670043945312
            ],
            "type" : "VEC3"
        },
        {
            "bufferView" : 21,
            "componentType" : 5126,
            "count" : 4,
            "type" : "VEC3"
        },
        {
            "bufferView" : 22,
            "componentType" : 5126,
            "count" : 4,
            "type" : "VEC2"
        },
        {
            "bufferView" : 23,
            "componentType" : 5123,
            "count" : 6,
            "type" : "SCALAR"
        },
        {
            "bufferView" : 24,
            "componentType" : 5126,
            "count" : 4,
            "max" : [
                -7.3527069091796875,
                -4.280956268310547,
                -68.87004089355469
            ],
            "min" : [
                -16.547290802001953,
                -4.280963897705078,
                -76.83670043945312
            ],
            "type" : "VEC3"
        },
        {
            "bufferView" : 25,
            "componentType" : 5126,
            "count" : 4,
            "type" : "VEC3"
        },
        {
            "bufferView" : 26,
            "componentType" : 5126,
            "count" : 4,
            "type" : "VEC2"
        },
        {
            "bufferView" : 27,
            "componentType" : 5126,
            "count" : 6,
            "max" : [
                -7.3527069091796875,
                10.255928039550781,
                -68.87004089355469
            ],
            "min" : [
                -7.3527069091796875,
                -4.280963897705078,
                -76.83670043945312
            ],
            "type" : "VEC3"
        },
        {
            "bufferView" : 28,
            "componentType" : 5126,
            "count" : 6,
            "type" : "VEC3"
        },
        {
            "bufferView" : 29,
            "componentType" : 5126,
            "count" : 6,
            "type" : "VEC2"
        },
        {
            "bufferView" : 30,
            "componentType" : 5123,
            "count" : 6,
            "type" : "SCALAR"
        },
        {
            "bufferView" : 31,
            "componentType" : 5126,
            "count" : 6,
            "max" : [
                -16.547290802001953,
                10.255928039550781,
                -68.87004089355469
            ],
            "min" : [
                -16.547290802001953,
                -4.280963897705078,
                -76.83670043945312
            ],
            "type" : "VEC3"
        },
        {
            "bufferView" : 32,
            "componentType" : 5126,
            "count" : 6,
            "type" : "VEC3"
        },
        {
            "bufferView" : 33,
            "componentType" : 5126,
            "count" : 6,
            "type" : "VEC2"
        },
        {
            "bufferView" : 34,
            "componentType" : 5123,
            "count" : 6,
            "type" : "SCALAR"
        },
        {
            "bufferView" : 35,
            "componentType" : 5126,
            "count" : 45,
            "max" : [
                1.2309226989746094,
                18.863021850585938,
                0.0102081298828125
            ],
            "min" : [
                -13.180923461914062,
                17.329429626464844,
                -4.793735504150391
            ],
            "type" : "VEC3"
        },
        {
            "bufferView" : 36,
            "componentType" : 5126,
            "count" : 45,
            "type" : "VEC3"
        },
        {
            "bufferView" : 37,
            "componentType" : 5126,
            "count" : 45,
            "type" : "VEC2"
        },
        {
            "bufferView" : 38,
            "componentType" : 5123,
            "count" : 54,
            "type" : "SCALAR"
        },
        {
            "bufferView" : 39,
            "componentType" : 5126,
            "count" : 12,
            "max" : [
                0.5446434020996094,
                17.329437255859375,
                0.0102081298828125
            ],
            "min" : [
                -12.494644165039062,
                17.329429626464844,
                -4.107452392578125
            ],
            "type" : "VEC3"
        },
        {
            "bufferView" : 40,
            "componentType" : 5126,
            "count" : 12,
            "type" : "VEC3"
        },
        {
            "bufferView" : 41,
            "componentType" : 5126,
            "count" : 12,
            "type" : "VEC2"
        },
        {
            "bufferView" : 42,
            "componentType" : 5123,
            "count" : 12,
            "type" : "SCALAR"
        },
        {
            "bufferView" : 43,
            "componentType" : 5126,
            "count" : 2,
            "max" : [
                -12.11721420288086,
                8.858428955078125,
                -77.40306091308594
            ],
            "min" : [
                -12.11721420288086,
                -2.7356948852539062,
                -77.40306091308594
            ],
            "type" : "VEC3"
        }
    ],
    "bufferViews" : [
        {
            "buffer" : 0,
            "byteLength" : 720,
            "byteOffset" : 0
        },
        {
            "buffer" : 0,
            "byteLength" : 720,
            "byteOffset" : 720
        },
        {
            "buffer" : 0,
            "byteLength" : 480,
            "byteOffset" : 1440
        },
        {
            "buffer" : 0,
            "byteLength" : 132,
            "byteOffset" : 1920
        },
        {
            "buffer" : 0,
            "byteLength" : 192,
            "byteOffset" : 2052
        },
        {
            "buffer" : 0,
            "byteLength" : 192,
            "byteOffset" : 2244
        },
        {
            "buffer" : 0,
            "byteLength" : 128,
            "byteOffset" : 2436
        },
        {
            "buffer" : 0,
            "byteLength" : 36,
            "byteOffset" : 2564
        },
        {
            "buffer" : 0,
            "byteLength" : 48,
            "byteOffset" : 2600
        },
        {
            "buffer" : 0,
            "byteLength" : 48,
            "byteOffset" : 2648
        },
        {
            "buffer" : 0,
            "byteLength" : 32,
            "byteOffset" : 2696
        },
        {
            "buffer" : 0,
            "byteLength" : 12,
            "byteOffset" : 2728
        },
        {
            "buffer" : 0,
            "byteLength" : 72,
            "byteOffset" : 2740
        },
        {
            "buffer" : 0,
            "byteLength" : 72,
            "byteOffset" : 2812
        },
        {
            "buffer" : 0,
            "byteLength" : 48,
            "byteOffset" : 2884
        },
        {
            "buffer" : 0,
            "byteLength" : 12,
            "byteOffset" : 2932
        },
        {
            "buffer" : 0,
            "byteLength" : 72,
            "byteOffset" : 2944
        },
        {
            "buffer" : 0,
            "byteLength" : 72,
            "byteOffset" : 3016
        },
        {
            "buffer" : 0,
            "byteLength" : 48,
            "byteOffset" : 3088
        },
        {
            "buffer" : 0,
            "byteLength" : 12,
            "byteOffset" : 3136
        },
        {
            "buffer" : 0,
            "byteLength" : 48,
            "byteOffset" : 3148
        },
        {
            "buffer" : 0,
            "byteLength" : 48,
            "byteOffset" : 3196
        },
        {
            "buffer" : 0,
            "byteLength" : 32,
            "byteOffset" : 3244
        },
        {
            "buffer" : 0,
            "byteLength" : 12,
            "byteOffset" : 3276
        },
        {
            "buffer" : 0,
            "byteLength" : 48,
            "byteOffset" : 3288
        },
        {
            "buffer" : 0,
            "byteLength" : 48,
            "byteOffset" : 3336
        },
        {
            "buffer" : 0,
            "byteLength" : 32,
            "byteOffset" : 3384
        },
        {
            "buffer" : 0,
            "byteLength" : 72,
            "byteOffset" : 3416
        },
        {
            "buffer" : 0,
            "byteLength" : 72,
            "byteOffset" : 3488
        },
        {
            "buffer" : 0,
            "byteLength" : 48,
            "byteOffset" : 3560
        },
        {
            "buffer" : 0,
            "byteLength" : 12,
            "byteOffset" : 3608
        },
        {
            "buffer" : 0,
            "byteLength" : 72,
            "byteOffset" : 3620
        },
        {
            "buffer" : 0,
            "byteLength" : 72,
            "byteOffset" : 3692
        },
        {
            "buffer" : 0,
            "byteLength" : 48,
            "byteOffset" : 3764
        },
        {
            "buffer" : 0,
            "byteLength" : 12,
            "byteOffset" : 3812
        },
        {
            "buffer" : 0,
            "byteLength" : 540,
            "byteOffset" : 3824
        },
        {
            "buffer" : 0,
            "byteLength" : 540,
            "byteOffset" : 4364
        },
        {
            "buffer" : 0,
            "byteLength" : 360,
            "byteOffset" : 4904
        },
        {
            "buffer" : 0,
            "byteLength" : 108,
            "byteOffset" : 5264
        },
        {
            "buffer" : 0,
            "byteLength" : 144,
            "byteOffset" : 5372
        },
        {
            "buffer" : 0,
            "byteLength" : 144,
            "byteOffset" : 5516
        },
        {
            "buffer" : 0,
            "byteLength" : 96,
            "byteOffset" : 5660
        },
        {
            "buffer" : 0,
            "byteLength" : 24,
            "byteOffset" : 5756
        },
        {
            "buffer" : 0,
            "byteLength" : 24,
            "byteOffset" : 5780
        }
    ],
    "samplers" : [
        {
            "magFilter" : 9729,
            "minFilter" : 9987
        }
    ],
    "buffers" : [
        {
            "byteLength" : 5804,
            "uri" : "large_2.bin"
        }
    ]
}
