{
    "asset" : {
        "generator" : "Khronos glTF Blender I/O v1.7.33",
        "version" : "2.0"
    },
    "scene" : 0,
    "scenes" : [
        {
            "name" : "Scene",
            "nodes" : [
                0
            ]
        }
    ],
    "nodes" : [
        {
            "mesh" : 0,
            "name" : "Maxis-3d3-mesh-31",
            "rotation" : [
                0.7071068286895752,
                0,
                0,
                0.7071067094802856
            ]
        }
    ],
    "materials" : [
        {
            "doubleSided" : true,
            "name" : "matcolour-128",
            "pbrMetallicRoughness" : {
                "baseColorFactor" : [
                    0.12156862765550613,
                    0.08235294371843338,
                    0.062745101749897,
                    1
                ],
                "metallicFactor" : 0
            }
        },
        {
            "doubleSided" : true,
            "name" : "mat2-22",
            "pbrMetallicRoughness" : {
                "baseColorTexture" : {
                    "index" : 0
                },
                "metallicFactor" : 0
            }
        },
        {
            "doubleSided" : true,
            "name" : "mat2-21",
            "pbrMetallicRoughness" : {
                "baseColorTexture" : {
                    "index" : 1
                },
                "metallicFactor" : 0
            }
        },
        {
            "doubleSided" : true,
            "name" : "mat39-58",
            "pbrMetallicRoughness" : {
                "baseColorTexture" : {
                    "index" : 2
                },
                "metallicFactor" : 0
            }
        },
        {
            "doubleSided" : true,
            "name" : "mat39-57",
            "pbrMetallicRoughness" : {
                "baseColorTexture" : {
                    "index" : 3
                },
                "metallicFactor" : 0
            }
        },
        {
            "doubleSided" : true,
            "name" : "mat2-20",
            "pbrMetallicRoughness" : {
                "baseColorTexture" : {
                    "index" : 4
                },
                "metallicFactor" : 0
            }
        },
        {
            "doubleSided" : true,
            "name" : "mat2-23",
            "pbrMetallicRoughness" : {
                "baseColorTexture" : {
                    "index" : 5
                },
                "metallicFactor" : 0
            }
        },
        {
            "doubleSided" : true,
            "name" : "matcolour-48",
            "pbrMetallicRoughness" : {
                "baseColorFactor" : [
                    0.05882352963089943,
                    0.05882352963089943,
                    0.05882352963089943,
                    1
                ],
                "metallicFactor" : 0
            }
        },
        {
            "doubleSided" : true,
            "name" : "mat39-56",
            "pbrMetallicRoughness" : {
                "baseColorTexture" : {
                    "index" : 6
                },
                "metallicFactor" : 0
            }
        },
        {
            "doubleSided" : true,
            "name" : "mat39-59",
            "pbrMetallicRoughness" : {
                "baseColorTexture" : {
                    "index" : 7
                },
                "metallicFactor" : 0
            }
        }
    ],
    "meshes" : [
        {
            "name" : "Maxis-3d3-mesh-31",
            "primitives" : [
                {
                    "attributes" : {
                        "POSITION" : 0,
                        "NORMAL" : 1,
                        "TEXCOORD_0" : 2
                    },
                    "indices" : 3,
                    "material" : 0
                },
                {
                    "attributes" : {
                        "POSITION" : 4,
                        "NORMAL" : 5,
                        "TEXCOORD_0" : 6
                    },
                    "indices" : 7,
                    "material" : 1
                },
                {
                    "attributes" : {
                        "POSITION" : 8,
                        "NORMAL" : 9,
                        "TEXCOORD_0" : 10
                    },
                    "indices" : 11,
                    "material" : 2
                },
                {
                    "attributes" : {
                        "POSITION" : 12,
                        "NORMAL" : 13,
                        "TEXCOORD_0" : 14
                    },
                    "indices" : 15,
                    "material" : 3
                },
                {
                    "attributes" : {
                        "POSITION" : 16,
                        "NORMAL" : 17,
                        "TEXCOORD_0" : 18
                    },
                    "indices" : 19,
                    "material" : 4
                },
                {
                    "attributes" : {
                        "POSITION" : 20,
                        "NORMAL" : 21,
                        "TEXCOORD_0" : 22
                    },
                    "indices" : 23,
                    "material" : 5
                },
                {
                    "attributes" : {
                        "POSITION" : 24,
                        "NORMAL" : 25,
                        "TEXCOORD_0" : 26
                    },
                    "indices" : 27,
                    "material" : 6
                },
                {
                    "attributes" : {
                        "POSITION" : 28,
                        "NORMAL" : 29,
                        "TEXCOORD_0" : 30
                    },
                    "indices" : 31,
                    "material" : 7
                },
                {
                    "attributes" : {
                        "POSITION" : 32,
                        "NORMAL" : 33,
                        "TEXCOORD_0" : 34
                    },
                    "indices" : 35,
                    "material" : 8
                },
                {
                    "attributes" : {
                        "POSITION" : 36,
                        "NORMAL" : 37,
                        "TEXCOORD_0" : 38
                    },
                    "indices" : 39,
                    "material" : 9
                }
            ]
        }
    ],
    "textures" : [
        {
            "sampler" : 0,
            "source" : 0
        },
        {
            "sampler" : 0,
            "source" : 1
        },
        {
            "sampler" : 0,
            "source" : 2
        },
        {
            "sampler" : 0,
            "source" : 3
        },
        {
            "sampler" : 0,
            "source" : 4
        },
        {
            "sampler" : 0,
            "source" : 5
        },
        {
            "sampler" : 0,
            "source" : 6
        },
        {
            "sampler" : 0,
            "source" : 7
        }
    ],
    "images" : [
        {
            "mimeType" : "image/png",
            "name" : "tex2-22",
            "uri" : "../../../Textures/tex2-22.png"
        },
        {
            "mimeType" : "image/png",
            "name" : "tex2-21",
            "uri" : "../../../Textures/tex2-21.png"
        },
        {
            "mimeType" : "image/png",
            "name" : "tex39-58",
            "uri" : "../../../Textures/tex39-58.png"
        },
        {
            "mimeType" : "image/png",
            "name" : "tex39-57",
            "uri" : "../../../Textures/tex39-57.png"
        },
        {
            "mimeType" : "image/png",
            "name" : "tex2-20",
            "uri" : "../../../Textures/tex2-20.png"
        },
        {
            "mimeType" : "image/png",
            "name" : "tex2-23",
            "uri" : "../../../Textures/tex2-23.png"
        },
        {
            "mimeType" : "image/png",
            "name" : "tex39-56",
            "uri" : "../../../Textures/tex39-56.png"
        },
        {
            "mimeType" : "image/png",
            "name" : "tex39-59",
            "uri" : "../../../Textures/tex39-59.png"
        }
    ],
    "accessors" : [
        {
            "bufferView" : 0,
            "componentType" : 5126,
            "count" : 60,
            "max" : [
                14.31716537475586,
                14.98049545288086,
                -10.250007629394531
            ],
            "min" : [
                -14.88132095336914,
                -14.88132095336914,
                -17.25
            ],
            "type" : "VEC3"
        },
        {
            "bufferView" : 1,
            "componentType" : 5126,
            "count" : 60,
            "type" : "VEC3"
        },
        {
            "bufferView" : 2,
            "componentType" : 5126,
            "count" : 60,
            "type" : "VEC2"
        },
        {
            "bufferView" : 3,
            "componentType" : 5123,
            "count" : 66,
            "type" : "SCALAR"
        },
        {
            "bufferView" : 4,
            "componentType" : 5126,
            "count" : 22,
            "max" : [
                14.317169189453125,
                -0.032398223876953125,
                -0.25
            ],
            "min" : [
                -14.88132095336914,
                -14.88132095336914,
                -10.250007629394531
            ],
            "type" : "VEC3"
        },
        {
            "bufferView" : 5,
            "componentType" : 5126,
            "count" : 22,
            "type" : "VEC3"
        },
        {
            "bufferView" : 6,
            "componentType" : 5126,
            "count" : 22,
            "type" : "VEC2"
        },
        {
            "bufferView" : 7,
            "componentType" : 5123,
            "count" : 24,
            "type" : "SCALAR"
        },
        {
            "bufferView" : 8,
            "componentType" : 5126,
            "count" : 22,
            "max" : [
                -0.37648773193359375,
                14.98049545288086,
                -0.24999618530273438
            ],
            "min" : [
                -14.88132095336914,
                -14.88132095336914,
                -10.250007629394531
            ],
            "type" : "VEC3"
        },
        {
            "bufferView" : 9,
            "componentType" : 5126,
            "count" : 22,
            "type" : "VEC3"
        },
        {
            "bufferView" : 10,
            "componentType" : 5126,
            "count" : 22,
            "type" : "VEC2"
        },
        {
            "bufferView" : 11,
            "componentType" : 5123,
            "count" : 24,
            "type" : "SCALAR"
        },
        {
            "bufferView" : 12,
            "componentType" : 5126,
            "count" : 14,
            "max" : [
                14.31716537475586,
                4.916229248046875,
                -10.250007629394531
            ],
            "min" : [
                -14.88132095336914,
                -14.88132095336914,
                -17.25
            ],
            "type" : "VEC3"
        },
        {
            "bufferView" : 13,
            "componentType" : 5126,
            "count" : 14,
            "type" : "VEC3"
        },
        {
            "bufferView" : 14,
            "componentType" : 5126,
            "count" : 14,
            "type" : "VEC2"
        },
        {
            "bufferView" : 15,
            "componentType" : 5123,
            "count" : 18,
            "type" : "SCALAR"
        },
        {
            "bufferView" : 16,
            "componentType" : 5126,
            "count" : 16,
            "max" : [
                4.5721282958984375,
                14.98049545288086,
                -10.250007629394531
            ],
            "min" : [
                -14.88132095336914,
                -14.88132095336914,
                -17.25
            ],
            "type" : "VEC3"
        },
        {
            "bufferView" : 17,
            "componentType" : 5126,
            "count" : 16,
            "type" : "VEC3"
        },
        {
            "bufferView" : 18,
            "componentType" : 5126,
            "count" : 16,
            "type" : "VEC2"
        },
        {
            "bufferView" : 19,
            "componentType" : 5123,
            "count" : 18,
            "type" : "SCALAR"
        },
        {
            "bufferView" : 20,
            "componentType" : 5126,
            "count" : 12,
            "max" : [
                14.31716537475586,
                14.98049545288086,
                -0.24999618530273438
            ],
            "min" : [
                -14.88132095336914,
                -14.88132095336914,
                -10.250007629394531
            ],
            "type" : "VEC3"
        },
        {
            "bufferView" : 21,
            "componentType" : 5126,
            "count" : 12,
            "type" : "VEC3"
        },
        {
            "bufferView" : 22,
            "componentType" : 5126,
            "count" : 12,
            "type" : "VEC2"
        },
        {
            "bufferView" : 23,
            "componentType" : 5123,
            "count" : 12,
            "type" : "SCALAR"
        },
        {
            "bufferView" : 24,
            "componentType" : 5126,
            "count" : 30,
            "max" : [
                14.317169189453125,
                14.98049545288086,
                -0.24999618530273438
            ],
            "min" : [
                -2.8968544006347656,
                -2.8968582153320312,
                -10.250007629394531
            ],
            "type" : "VEC3"
        },
        {
            "bufferView" : 25,
            "componentType" : 5126,
            "count" : 30,
            "type" : "VEC3"
        },
        {
            "bufferView" : 26,
            "componentType" : 5126,
            "count" : 30,
            "type" : "VEC2"
        },
        {
            "bufferView" : 27,
            "componentType" : 5123,
            "count" : 36,
            "type" : "SCALAR"
        },
        {
            "bufferView" : 28,
            "componentType" : 5126,
            "count" : 6,
            "max" : [
                14.317161560058594,
                12.864852905273438,
                -10.250007629394531
            ],
            "min" : [
                -2.8968544006347656,
                -2.8968582153320312,
                -10.250007629394531
            ],
            "type" : "VEC3"
        },
        {
            "bufferView" : 29,
            "componentType" : 5126,
            "count" : 6,
            "type" : "VEC3"
        },
        {
            "bufferView" : 30,
            "componentType" : 5126,
            "count" : 6,
            "type" : "VEC2"
        },
        {
            "bufferView" : 31,
            "componentType" : 5123,
            "count" : 6,
            "type" : "SCALAR"
        },
        {
            "bufferView" : 32,
            "componentType" : 5126,
            "count" : 23,
            "max" : [
                12.520755767822266,
                12.864852905273438,
                -10.250007629394531
            ],
            "min" : [
                -2.8968544006347656,
                -2.8968582153320312,
                -17.25
            ],
            "type" : "VEC3"
        },
        {
            "bufferView" : 33,
            "componentType" : 5126,
            "count" : 23,
            "type" : "VEC3"
        },
        {
            "bufferView" : 34,
            "componentType" : 5126,
            "count" : 23,
            "type" : "VEC2"
        },
        {
            "bufferView" : 35,
            "componentType" : 5123,
            "count" : 24,
            "type" : "SCALAR"
        },
        {
            "bufferView" : 36,
            "componentType" : 5126,
            "count" : 22,
            "max" : [
                12.520755767822266,
                12.864852905273438,
                -10.250007629394531
            ],
            "min" : [
                -0.5836372375488281,
                -0.5836372375488281,
                -17.25
            ],
            "type" : "VEC3"
        },
        {
            "bufferView" : 37,
            "componentType" : 5126,
            "count" : 22,
            "type" : "VEC3"
        },
        {
            "bufferView" : 38,
            "componentType" : 5126,
            "count" : 22,
            "type" : "VEC2"
        },
        {
            "bufferView" : 39,
            "componentType" : 5123,
            "count" : 24,
            "type" : "SCALAR"
        }
    ],
    "bufferViews" : [
        {
            "buffer" : 0,
            "byteLength" : 720,
            "byteOffset" : 0
        },
        {
            "buffer" : 0,
            "byteLength" : 720,
            "byteOffset" : 720
        },
        {
            "buffer" : 0,
            "byteLength" : 480,
            "byteOffset" : 1440
        },
        {
            "buffer" : 0,
            "byteLength" : 132,
            "byteOffset" : 1920
        },
        {
            "buffer" : 0,
            "byteLength" : 264,
            "byteOffset" : 2052
        },
        {
            "buffer" : 0,
            "byteLength" : 264,
            "byteOffset" : 2316
        },
        {
            "buffer" : 0,
            "byteLength" : 176,
            "byteOffset" : 2580
        },
        {
            "buffer" : 0,
            "byteLength" : 48,
            "byteOffset" : 2756
        },
        {
            "buffer" : 0,
            "byteLength" : 264,
            "byteOffset" : 2804
        },
        {
            "buffer" : 0,
            "byteLength" : 264,
            "byteOffset" : 3068
        },
        {
            "buffer" : 0,
            "byteLength" : 176,
            "byteOffset" : 3332
        },
        {
            "buffer" : 0,
            "byteLength" : 48,
            "byteOffset" : 3508
        },
        {
            "buffer" : 0,
            "byteLength" : 168,
            "byteOffset" : 3556
        },
        {
            "buffer" : 0,
            "byteLength" : 168,
            "byteOffset" : 3724
        },
        {
            "buffer" : 0,
            "byteLength" : 112,
            "byteOffset" : 3892
        },
        {
            "buffer" : 0,
            "byteLength" : 36,
            "byteOffset" : 4004
        },
        {
            "buffer" : 0,
            "byteLength" : 192,
            "byteOffset" : 4040
        },
        {
            "buffer" : 0,
            "byteLength" : 192,
            "byteOffset" : 4232
        },
        {
            "buffer" : 0,
            "byteLength" : 128,
            "byteOffset" : 4424
        },
        {
            "buffer" : 0,
            "byteLength" : 36,
            "byteOffset" : 4552
        },
        {
            "buffer" : 0,
            "byteLength" : 144,
            "byteOffset" : 4588
        },
        {
            "buffer" : 0,
            "byteLength" : 144,
            "byteOffset" : 4732
        },
        {
            "buffer" : 0,
            "byteLength" : 96,
            "byteOffset" : 4876
        },
        {
            "buffer" : 0,
            "byteLength" : 24,
            "byteOffset" : 4972
        },
        {
            "buffer" : 0,
            "byteLength" : 360,
            "byteOffset" : 4996
        },
        {
            "buffer" : 0,
            "byteLength" : 360,
            "byteOffset" : 5356
        },
        {
            "buffer" : 0,
            "byteLength" : 240,
            "byteOffset" : 5716
        },
        {
            "buffer" : 0,
            "byteLength" : 72,
            "byteOffset" : 5956
        },
        {
            "buffer" : 0,
            "byteLength" : 72,
            "byteOffset" : 6028
        },
        {
            "buffer" : 0,
            "byteLength" : 72,
            "byteOffset" : 6100
        },
        {
            "buffer" : 0,
            "byteLength" : 48,
            "byteOffset" : 6172
        },
        {
            "buffer" : 0,
            "byteLength" : 12,
            "byteOffset" : 6220
        },
        {
            "buffer" : 0,
            "byteLength" : 276,
            "byteOffset" : 6232
        },
        {
            "buffer" : 0,
            "byteLength" : 276,
            "byteOffset" : 6508
        },
        {
            "buffer" : 0,
            "byteLength" : 184,
            "byteOffset" : 6784
        },
        {
            "buffer" : 0,
            "byteLength" : 48,
            "byteOffset" : 6968
        },
        {
            "buffer" : 0,
            "byteLength" : 264,
            "byteOffset" : 7016
        },
        {
            "buffer" : 0,
            "byteLength" : 264,
            "byteOffset" : 7280
        },
        {
            "buffer" : 0,
            "byteLength" : 176,
            "byteOffset" : 7544
        },
        {
            "buffer" : 0,
            "byteLength" : 48,
            "byteOffset" : 7720
        }
    ],
    "samplers" : [
        {
            "magFilter" : 9729,
            "minFilter" : 9987
        }
    ],
    "buffers" : [
        {
            "byteLength" : 7768,
            "uri" : "medium_1.bin"
        }
    ]
}
