{
    "asset" : {
        "generator" : "Khronos glTF Blender I/O v1.7.33",
        "version" : "2.0"
    },
    "scene" : 0,
    "scenes" : [
        {
            "name" : "Scene",
            "nodes" : [
                0
            ]
        }
    ],
    "nodes" : [
        {
            "mesh" : 0,
            "name" : "Maxis-3d1-mesh-54",
            "rotation" : [
                0.7071068286895752,
                0,
                0,
                0.7071067094802856
            ]
        }
    ],
    "materials" : [
        {
            "doubleSided" : true,
            "name" : "matcolour-128.003",
            "pbrMetallicRoughness" : {
                "baseColorFactor" : [
                    0.12156862765550613,
                    0.08235294371843338,
                    0.062745101749897,
                    1
                ],
                "metallicFactor" : 0
            }
        },
        {
            "doubleSided" : true,
            "name" : "mat40-15",
            "pbrMetallicRoughness" : {
                "baseColorTexture" : {
                    "index" : 0
                },
                "metallicFactor" : 0
            }
        },
        {
            "doubleSided" : true,
            "name" : "mat40-14",
            "pbrMetallicRoughness" : {
                "baseColorTexture" : {
                    "index" : 1
                },
                "metallicFactor" : 0
            }
        },
        {
            "doubleSided" : true,
            "name" : "mat40-12",
            "pbrMetallicRoughness" : {
                "baseColorTexture" : {
                    "index" : 2
                },
                "metallicFactor" : 0
            }
        },
        {
            "doubleSided" : true,
            "name" : "mat40-13",
            "pbrMetallicRoughness" : {
                "baseColorTexture" : {
                    "index" : 3
                },
                "metallicFactor" : 0
            }
        }
    ],
    "meshes" : [
        {
            "name" : "Maxis-3d1-mesh-54",
            "primitives" : [
                {
                    "attributes" : {
                        "POSITION" : 0,
                        "NORMAL" : 1,
                        "TEXCOORD_0" : 2
                    },
                    "indices" : 3,
                    "material" : 0
                },
                {
                    "attributes" : {
                        "POSITION" : 4,
                        "NORMAL" : 5,
                        "TEXCOORD_0" : 6
                    },
                    "indices" : 7,
                    "material" : 1
                },
                {
                    "attributes" : {
                        "POSITION" : 8,
                        "NORMAL" : 9,
                        "TEXCOORD_0" : 10
                    },
                    "indices" : 11,
                    "material" : 2
                },
                {
                    "attributes" : {
                        "POSITION" : 12,
                        "NORMAL" : 13,
                        "TEXCOORD_0" : 14
                    },
                    "indices" : 15,
                    "material" : 3
                },
                {
                    "attributes" : {
                        "POSITION" : 16,
                        "NORMAL" : 17,
                        "TEXCOORD_0" : 18
                    },
                    "indices" : 19,
                    "material" : 4
                }
            ]
        }
    ],
    "textures" : [
        {
            "sampler" : 0,
            "source" : 0
        },
        {
            "sampler" : 0,
            "source" : 1
        },
        {
            "sampler" : 0,
            "source" : 2
        },
        {
            "sampler" : 0,
            "source" : 3
        }
    ],
    "images" : [
        {
            "mimeType" : "image/png",
            "name" : "tex40-15",
            "uri" : "../../../Textures/tex40-15.png"
        },
        {
            "mimeType" : "image/png",
            "name" : "tex40-14",
            "uri" : "../../../Textures/tex40-14.png"
        },
        {
            "mimeType" : "image/png",
            "name" : "tex40-12",
            "uri" : "../../../Textures/tex40-12.png"
        },
        {
            "mimeType" : "image/png",
            "name" : "tex40-13",
            "uri" : "../../../Textures/tex40-13.png"
        }
    ],
    "accessors" : [
        {
            "bufferView" : 0,
            "componentType" : 5126,
            "count" : 133,
            "max" : [
                12.506256103515625,
                9.021747589111328,
                -7.7624969482421875
            ],
            "min" : [
                -12.506256103515625,
                -12.506248474121094,
                -8.629043579101562
            ],
            "type" : "VEC3"
        },
        {
            "bufferView" : 1,
            "componentType" : 5126,
            "count" : 133,
            "type" : "VEC3"
        },
        {
            "bufferView" : 2,
            "componentType" : 5126,
            "count" : 133,
            "type" : "VEC2"
        },
        {
            "bufferView" : 3,
            "componentType" : 5123,
            "count" : 138,
            "type" : "SCALAR"
        },
        {
            "bufferView" : 4,
            "componentType" : 5126,
            "count" : 28,
            "max" : [
                12.506256103515625,
                9.021751403808594,
                3.814697265625e-06
            ],
            "min" : [
                -12.506256103515625,
                -5.174995422363281,
                -7.988605499267578
            ],
            "type" : "VEC3"
        },
        {
            "bufferView" : 5,
            "componentType" : 5126,
            "count" : 28,
            "type" : "VEC3"
        },
        {
            "bufferView" : 6,
            "componentType" : 5126,
            "count" : 28,
            "type" : "VEC2"
        },
        {
            "bufferView" : 7,
            "componentType" : 5123,
            "count" : 30,
            "type" : "SCALAR"
        },
        {
            "bufferView" : 8,
            "componentType" : 5126,
            "count" : 18,
            "max" : [
                12.506256103515625,
                9.021751403808594,
                0
            ],
            "min" : [
                -12.466358184814453,
                -12.506248474121094,
                -7.9886016845703125
            ],
            "type" : "VEC3"
        },
        {
            "bufferView" : 9,
            "componentType" : 5126,
            "count" : 18,
            "type" : "VEC3"
        },
        {
            "bufferView" : 10,
            "componentType" : 5126,
            "count" : 18,
            "type" : "VEC2"
        },
        {
            "bufferView" : 11,
            "componentType" : 5123,
            "count" : 18,
            "type" : "SCALAR"
        },
        {
            "bufferView" : 12,
            "componentType" : 5126,
            "count" : 6,
            "max" : [
                12.506256103515625,
                -12.506244659423828,
                3.814697265625e-06
            ],
            "min" : [
                -12.506256103515625,
                -12.506248474121094,
                -7.762500762939453
            ],
            "type" : "VEC3"
        },
        {
            "bufferView" : 13,
            "componentType" : 5126,
            "count" : 6,
            "type" : "VEC3"
        },
        {
            "bufferView" : 14,
            "componentType" : 5126,
            "count" : 6,
            "type" : "VEC2"
        },
        {
            "bufferView" : 15,
            "componentType" : 5123,
            "count" : 6,
            "type" : "SCALAR"
        },
        {
            "bufferView" : 16,
            "componentType" : 5126,
            "count" : 4,
            "max" : [
                -12.506256103515625,
                -5.174995422363281,
                3.814697265625e-06
            ],
            "min" : [
                -12.506256103515625,
                -12.506248474121094,
                -7.7624969482421875
            ],
            "type" : "VEC3"
        },
        {
            "bufferView" : 17,
            "componentType" : 5126,
            "count" : 4,
            "type" : "VEC3"
        },
        {
            "bufferView" : 18,
            "componentType" : 5126,
            "count" : 4,
            "type" : "VEC2"
        },
        {
            "bufferView" : 19,
            "componentType" : 5123,
            "count" : 6,
            "type" : "SCALAR"
        }
    ],
    "bufferViews" : [
        {
            "buffer" : 0,
            "byteLength" : 1596,
            "byteOffset" : 0
        },
        {
            "buffer" : 0,
            "byteLength" : 1596,
            "byteOffset" : 1596
        },
        {
            "buffer" : 0,
            "byteLength" : 1064,
            "byteOffset" : 3192
        },
        {
            "buffer" : 0,
            "byteLength" : 276,
            "byteOffset" : 4256
        },
        {
            "buffer" : 0,
            "byteLength" : 336,
            "byteOffset" : 4532
        },
        {
            "buffer" : 0,
            "byteLength" : 336,
            "byteOffset" : 4868
        },
        {
            "buffer" : 0,
            "byteLength" : 224,
            "byteOffset" : 5204
        },
        {
            "buffer" : 0,
            "byteLength" : 60,
            "byteOffset" : 5428
        },
        {
            "buffer" : 0,
            "byteLength" : 216,
            "byteOffset" : 5488
        },
        {
            "buffer" : 0,
            "byteLength" : 216,
            "byteOffset" : 5704
        },
        {
            "buffer" : 0,
            "byteLength" : 144,
            "byteOffset" : 5920
        },
        {
            "buffer" : 0,
            "byteLength" : 36,
            "byteOffset" : 6064
        },
        {
            "buffer" : 0,
            "byteLength" : 72,
            "byteOffset" : 6100
        },
        {
            "buffer" : 0,
            "byteLength" : 72,
            "byteOffset" : 6172
        },
        {
            "buffer" : 0,
            "byteLength" : 48,
            "byteOffset" : 6244
        },
        {
            "buffer" : 0,
            "byteLength" : 12,
            "byteOffset" : 6292
        },
        {
            "buffer" : 0,
            "byteLength" : 48,
            "byteOffset" : 6304
        },
        {
            "buffer" : 0,
            "byteLength" : 48,
            "byteOffset" : 6352
        },
        {
            "buffer" : 0,
            "byteLength" : 32,
            "byteOffset" : 6400
        },
        {
            "buffer" : 0,
            "byteLength" : 12,
            "byteOffset" : 6432
        }
    ],
    "samplers" : [
        {
            "magFilter" : 9729,
            "minFilter" : 9987
        }
    ],
    "buffers" : [
        {
            "byteLength" : 6444,
            "uri" : "small_3.bin"
        }
    ]
}
