{
	"asset":{
		"generator":"Khronos glTF Blender I/O v4.3.47",
		"version":"2.0"
	},
	"scene":0,
	"scenes":[
		{
			"name":"Scene",
			"nodes":[
				0,
				1
			]
		}
	],
	"nodes":[
		{
			"mesh":0,
			"name":"Maxis-3d3-mesh-38",
			"rotation":[
				0.70710688829422,
				0,
				0,
				0.7071066498756409
			]
		},
		{
			"extras":{
				"gd_node":"Decal",
				"lower_fade":9,
				"upper_fade":10
			},
			"mesh":1,
			"name":"Ground_AO",
			"scale":[
				28.94659423828125,
				1,
				29.944686889648438
			],
			"translation":[
				-0.49904632568359375,
				-5.7591851145843975e-06,
				4.291534423828125e-06
			]
		}
	],
	"materials":[
		{
			"name":"matcolour-48.003",
			"occlusionTexture":{
				"index":0,
				"texCoord":1
			},
			"pbrMetallicRoughness":{
				"baseColorFactor":[
					0.05882352963089943,
					0.05882352963089943,
					0.05882352963089943,
					1
				],
				"metallicFactor":0
			}
		},
		{
			"name":"mat40-55.003",
			"occlusionTexture":{
				"index":1,
				"texCoord":1
			},
			"pbrMetallicRoughness":{
				"baseColorTexture":{
					"index":2
				},
				"metallicFactor":0
			}
		},
		{
			"name":"mat40-52.004",
			"occlusionTexture":{
				"index":3,
				"texCoord":1
			},
			"pbrMetallicRoughness":{
				"baseColorTexture":{
					"index":4
				},
				"metallicFactor":0
			}
		},
		{
			"name":"mat40-54.004",
			"occlusionTexture":{
				"index":5,
				"texCoord":1
			},
			"pbrMetallicRoughness":{
				"baseColorTexture":{
					"index":6
				},
				"metallicFactor":0
			}
		},
		{
			"name":"mat40-53.004",
			"occlusionTexture":{
				"index":7,
				"texCoord":1
			},
			"pbrMetallicRoughness":{
				"baseColorTexture":{
					"index":8
				},
				"metallicFactor":0
			}
		},
		{
			"name":"mat40-43.001",
			"occlusionTexture":{
				"index":9,
				"texCoord":1
			},
			"pbrMetallicRoughness":{
				"baseColorTexture":{
					"index":10
				},
				"metallicFactor":0
			}
		},
		{
			"name":"Ground_AO",
			"occlusionTexture":{
				"index":11
			},
			"pbrMetallicRoughness":{
				"baseColorFactor":[
					0.800000011920929,
					0.800000011920929,
					0.800000011920929,
					1
				],
				"metallicFactor":0,
				"roughnessFactor":0.5
			}
		}
	],
	"meshes":[
		{
			"name":"Maxis-3d3-mesh-38",
			"primitives":[
				{
					"attributes":{
						"POSITION":0,
						"NORMAL":1,
						"TEXCOORD_0":2,
						"TEXCOORD_1":3
					},
					"indices":4,
					"material":0
				},
				{
					"attributes":{
						"POSITION":5,
						"NORMAL":6,
						"TEXCOORD_0":7,
						"TEXCOORD_1":8
					},
					"indices":9,
					"material":1
				},
				{
					"attributes":{
						"POSITION":10,
						"NORMAL":11,
						"TEXCOORD_0":12,
						"TEXCOORD_1":13
					},
					"indices":14,
					"material":2
				},
				{
					"attributes":{
						"POSITION":15,
						"NORMAL":16,
						"TEXCOORD_0":17,
						"TEXCOORD_1":18
					},
					"indices":19,
					"material":3
				},
				{
					"attributes":{
						"POSITION":20,
						"NORMAL":21,
						"TEXCOORD_0":22,
						"TEXCOORD_1":23
					},
					"indices":24,
					"material":4
				},
				{
					"attributes":{
						"POSITION":25,
						"NORMAL":26,
						"TEXCOORD_0":27,
						"TEXCOORD_1":28
					},
					"indices":29,
					"material":5
				}
			]
		},
		{
			"name":"Plane",
			"primitives":[
				{
					"attributes":{
						"POSITION":30,
						"NORMAL":31,
						"TEXCOORD_0":32
					},
					"indices":33,
					"material":6
				}
			]
		}
	],
	"textures":[
		{
			"sampler":0,
			"source":0
		},
		{
			"sampler":0,
			"source":0
		},
		{
			"sampler":0,
			"source":1
		},
		{
			"sampler":0,
			"source":0
		},
		{
			"sampler":0,
			"source":2
		},
		{
			"sampler":0,
			"source":0
		},
		{
			"sampler":0,
			"source":3
		},
		{
			"sampler":0,
			"source":0
		},
		{
			"sampler":0,
			"source":4
		},
		{
			"sampler":0,
			"source":0
		},
		{
			"sampler":0,
			"source":5
		},
		{
			"sampler":0,
			"source":6
		}
	],
	"images":[
		{
			"mimeType":"image/png",
			"name":"const_4.png",
			"uri":"../../../Textures/ambient_occlusion/Buildings/Construction/const_4.png"
		},
		{
			"mimeType":"image/png",
			"name":"tex40-55",
			"uri":"../../../Textures/tex40-55.png"
		},
		{
			"mimeType":"image/png",
			"name":"tex40-52",
			"uri":"../../../Textures/tex40-52.png"
		},
		{
			"mimeType":"image/png",
			"name":"tex40-54",
			"uri":"../../../Textures/tex40-54.png"
		},
		{
			"mimeType":"image/png",
			"name":"tex40-53",
			"uri":"../../../Textures/tex40-53.png"
		},
		{
			"mimeType":"image/png",
			"name":"tex40-43",
			"uri":"../../../Textures/tex40-43.png"
		},
		{
			"mimeType":"image/png",
			"name":"const_4_ground.png",
			"uri":"../../../Textures/ambient_occlusion/Buildings/Construction/const_4_ground.png"
		}
	],
	"accessors":[
		{
			"bufferView":0,
			"componentType":5126,
			"count":176,
			"max":[
				13.474250793457031,
				14.472347259521484,
				-0.9980850219726562
			],
			"min":[
				-14.472343444824219,
				-14.472335815429688,
				-6.986652374267578
			],
			"type":"VEC3"
		},
		{
			"bufferView":1,
			"componentType":5126,
			"count":176,
			"type":"VEC3"
		},
		{
			"bufferView":2,
			"componentType":5126,
			"count":176,
			"type":"VEC2"
		},
		{
			"bufferView":3,
			"componentType":5126,
			"count":176,
			"type":"VEC2"
		},
		{
			"bufferView":4,
			"componentType":5123,
			"count":264,
			"type":"SCALAR"
		},
		{
			"bufferView":5,
			"componentType":5126,
			"count":8,
			"max":[
				2.9942779541015625,
				1.996185302734375,
				0
			],
			"min":[
				-14.472343444824219,
				-5.988555908203125,
				-5.018100738525391
			],
			"type":"VEC3"
		},
		{
			"bufferView":6,
			"componentType":5126,
			"count":8,
			"type":"VEC3"
		},
		{
			"bufferView":7,
			"componentType":5126,
			"count":8,
			"type":"VEC2"
		},
		{
			"bufferView":8,
			"componentType":5126,
			"count":8,
			"type":"VEC2"
		},
		{
			"bufferView":9,
			"componentType":5123,
			"count":12,
			"type":"SCALAR"
		},
		{
			"bufferView":10,
			"componentType":5126,
			"count":16,
			"max":[
				13.474250793457031,
				6.487606048583984,
				3.814697265625e-06
			],
			"min":[
				-14.472343444824219,
				-14.472339630126953,
				-6.986644744873047
			],
			"type":"VEC3"
		},
		{
			"bufferView":11,
			"componentType":5126,
			"count":16,
			"type":"VEC3"
		},
		{
			"bufferView":12,
			"componentType":5126,
			"count":16,
			"type":"VEC2"
		},
		{
			"bufferView":13,
			"componentType":5126,
			"count":16,
			"type":"VEC2"
		},
		{
			"bufferView":14,
			"componentType":5123,
			"count":24,
			"type":"SCALAR"
		},
		{
			"bufferView":15,
			"componentType":5126,
			"count":16,
			"max":[
				13.474250793457031,
				14.472347259521484,
				3.814697265625e-06
			],
			"min":[
				-7.0942840576171875,
				-14.472339630126953,
				-6.986652374267578
			],
			"type":"VEC3"
		},
		{
			"bufferView":16,
			"componentType":5126,
			"count":16,
			"type":"VEC3"
		},
		{
			"bufferView":17,
			"componentType":5126,
			"count":16,
			"type":"VEC2"
		},
		{
			"bufferView":18,
			"componentType":5126,
			"count":16,
			"type":"VEC2"
		},
		{
			"bufferView":19,
			"componentType":5123,
			"count":24,
			"type":"SCALAR"
		},
		{
			"bufferView":20,
			"componentType":5126,
			"count":16,
			"max":[
				8.200016021728516,
				14.472347259521484,
				3.814697265625e-06
			],
			"min":[
				-14.472343444824219,
				-14.472339630126953,
				-6.986652374267578
			],
			"type":"VEC3"
		},
		{
			"bufferView":21,
			"componentType":5126,
			"count":16,
			"type":"VEC3"
		},
		{
			"bufferView":22,
			"componentType":5126,
			"count":16,
			"type":"VEC2"
		},
		{
			"bufferView":23,
			"componentType":5126,
			"count":16,
			"type":"VEC2"
		},
		{
			"bufferView":24,
			"componentType":5123,
			"count":24,
			"type":"SCALAR"
		},
		{
			"bufferView":25,
			"componentType":5126,
			"count":8,
			"max":[
				13.474250793457031,
				14.472347259521484,
				0
			],
			"min":[
				6.679756164550781,
				-2.4952316284179688,
				-6.986652374267578
			],
			"type":"VEC3"
		},
		{
			"bufferView":26,
			"componentType":5126,
			"count":8,
			"type":"VEC3"
		},
		{
			"bufferView":27,
			"componentType":5126,
			"count":8,
			"type":"VEC2"
		},
		{
			"bufferView":28,
			"componentType":5126,
			"count":8,
			"type":"VEC2"
		},
		{
			"bufferView":29,
			"componentType":5123,
			"count":12,
			"type":"SCALAR"
		},
		{
			"bufferView":30,
			"componentType":5126,
			"count":4,
			"max":[
				0.5,
				0,
				0.5
			],
			"min":[
				-0.5,
				0,
				-0.5
			],
			"type":"VEC3"
		},
		{
			"bufferView":31,
			"componentType":5126,
			"count":4,
			"type":"VEC3"
		},
		{
			"bufferView":32,
			"componentType":5126,
			"count":4,
			"type":"VEC2"
		},
		{
			"bufferView":33,
			"componentType":5123,
			"count":6,
			"type":"SCALAR"
		}
	],
	"bufferViews":[
		{
			"buffer":0,
			"byteLength":2112,
			"byteOffset":0,
			"target":34962
		},
		{
			"buffer":0,
			"byteLength":2112,
			"byteOffset":2112,
			"target":34962
		},
		{
			"buffer":0,
			"byteLength":1408,
			"byteOffset":4224,
			"target":34962
		},
		{
			"buffer":0,
			"byteLength":1408,
			"byteOffset":5632,
			"target":34962
		},
		{
			"buffer":0,
			"byteLength":528,
			"byteOffset":7040,
			"target":34963
		},
		{
			"buffer":0,
			"byteLength":96,
			"byteOffset":7568,
			"target":34962
		},
		{
			"buffer":0,
			"byteLength":96,
			"byteOffset":7664,
			"target":34962
		},
		{
			"buffer":0,
			"byteLength":64,
			"byteOffset":7760,
			"target":34962
		},
		{
			"buffer":0,
			"byteLength":64,
			"byteOffset":7824,
			"target":34962
		},
		{
			"buffer":0,
			"byteLength":24,
			"byteOffset":7888,
			"target":34963
		},
		{
			"buffer":0,
			"byteLength":192,
			"byteOffset":7912,
			"target":34962
		},
		{
			"buffer":0,
			"byteLength":192,
			"byteOffset":8104,
			"target":34962
		},
		{
			"buffer":0,
			"byteLength":128,
			"byteOffset":8296,
			"target":34962
		},
		{
			"buffer":0,
			"byteLength":128,
			"byteOffset":8424,
			"target":34962
		},
		{
			"buffer":0,
			"byteLength":48,
			"byteOffset":8552,
			"target":34963
		},
		{
			"buffer":0,
			"byteLength":192,
			"byteOffset":8600,
			"target":34962
		},
		{
			"buffer":0,
			"byteLength":192,
			"byteOffset":8792,
			"target":34962
		},
		{
			"buffer":0,
			"byteLength":128,
			"byteOffset":8984,
			"target":34962
		},
		{
			"buffer":0,
			"byteLength":128,
			"byteOffset":9112,
			"target":34962
		},
		{
			"buffer":0,
			"byteLength":48,
			"byteOffset":9240,
			"target":34963
		},
		{
			"buffer":0,
			"byteLength":192,
			"byteOffset":9288,
			"target":34962
		},
		{
			"buffer":0,
			"byteLength":192,
			"byteOffset":9480,
			"target":34962
		},
		{
			"buffer":0,
			"byteLength":128,
			"byteOffset":9672,
			"target":34962
		},
		{
			"buffer":0,
			"byteLength":128,
			"byteOffset":9800,
			"target":34962
		},
		{
			"buffer":0,
			"byteLength":48,
			"byteOffset":9928,
			"target":34963
		},
		{
			"buffer":0,
			"byteLength":96,
			"byteOffset":9976,
			"target":34962
		},
		{
			"buffer":0,
			"byteLength":96,
			"byteOffset":10072,
			"target":34962
		},
		{
			"buffer":0,
			"byteLength":64,
			"byteOffset":10168,
			"target":34962
		},
		{
			"buffer":0,
			"byteLength":64,
			"byteOffset":10232,
			"target":34962
		},
		{
			"buffer":0,
			"byteLength":24,
			"byteOffset":10296,
			"target":34963
		},
		{
			"buffer":0,
			"byteLength":48,
			"byteOffset":10320,
			"target":34962
		},
		{
			"buffer":0,
			"byteLength":48,
			"byteOffset":10368,
			"target":34962
		},
		{
			"buffer":0,
			"byteLength":32,
			"byteOffset":10416,
			"target":34962
		},
		{
			"buffer":0,
			"byteLength":12,
			"byteOffset":10448,
			"target":34963
		}
	],
	"samplers":[
		{
			"magFilter":9729,
			"minFilter":9987
		}
	],
	"buffers":[
		{
			"byteLength":10460,
			"uri":"const_4.bin"
		}
	]
}
