{
	"asset":{
		"generator":"Khronos glTF Blender I/O v4.3.47",
		"version":"2.0"
	},
	"scene":0,
	"scenes":[
		{
			"name":"Scene",
			"nodes":[
				0,
				1
			]
		}
	],
	"nodes":[
		{
			"mesh":0,
			"name":"Maxis-3d1-mesh-31",
			"rotation":[
				0.70710688829422,
				0,
				0,
				0.7071066498756409
			]
		},
		{
			"extras":{
				"gd_node":"Decal",
				"lower_fade":9,
				"upper_fade":10
			},
			"mesh":1,
			"name":"Ground_AO",
			"scale":[
				16.173748016357422,
				1,
				16.173748016357422
			],
			"translation":[
				0.12437629699707031,
				0,
				0.12437653541564941
			]
		}
	],
	"materials":[
		{
			"name":"matcolour-80",
			"occlusionTexture":{
				"index":0,
				"texCoord":1
			},
			"pbrMetallicRoughness":{
				"baseColorFactor":[
					0.18431372940540314,
					0.14509804546833038,
					0.03921568766236305,
					1
				],
				"metallicFactor":0
			}
		},
		{
			"name":"matcolour-48.010",
			"occlusionTexture":{
				"index":1,
				"texCoord":1
			},
			"pbrMetallicRoughness":{
				"baseColorFactor":[
					0.05882352963089943,
					0.05882352963089943,
					0.05882352963089943,
					1
				],
				"metallicFactor":0
			}
		},
		{
			"name":"mat40-42",
			"occlusionTexture":{
				"index":2,
				"texCoord":1
			},
			"pbrMetallicRoughness":{
				"baseColorTexture":{
					"index":3
				},
				"metallicFactor":0
			}
		},
		{
			"name":"mat40-43.002",
			"occlusionTexture":{
				"index":4,
				"texCoord":1
			},
			"pbrMetallicRoughness":{
				"baseColorTexture":{
					"index":5
				},
				"metallicFactor":0
			}
		},
		{
			"name":"mat40-54.002",
			"occlusionTexture":{
				"index":6,
				"texCoord":1
			},
			"pbrMetallicRoughness":{
				"baseColorTexture":{
					"index":7
				},
				"metallicFactor":0
			}
		},
		{
			"name":"mat40-53.002",
			"occlusionTexture":{
				"index":8,
				"texCoord":1
			},
			"pbrMetallicRoughness":{
				"baseColorTexture":{
					"index":9
				},
				"metallicFactor":0
			}
		},
		{
			"name":"mat40-52.005",
			"occlusionTexture":{
				"index":10,
				"texCoord":1
			},
			"pbrMetallicRoughness":{
				"baseColorTexture":{
					"index":11
				},
				"metallicFactor":0
			}
		},
		{
			"name":"mat40-55.002",
			"occlusionTexture":{
				"index":12,
				"texCoord":1
			},
			"pbrMetallicRoughness":{
				"baseColorTexture":{
					"index":13
				},
				"metallicFactor":0
			}
		},
		{
			"name":"Ground_AO",
			"occlusionTexture":{
				"index":14
			},
			"pbrMetallicRoughness":{
				"baseColorFactor":[
					0.800000011920929,
					0.800000011920929,
					0.800000011920929,
					1
				],
				"metallicFactor":0,
				"roughnessFactor":0.5
			}
		}
	],
	"meshes":[
		{
			"name":"Maxis-3d1-mesh-31",
			"primitives":[
				{
					"attributes":{
						"POSITION":0,
						"NORMAL":1,
						"TEXCOORD_0":2,
						"TEXCOORD_1":3
					},
					"indices":4,
					"material":0
				},
				{
					"attributes":{
						"POSITION":5,
						"NORMAL":6,
						"TEXCOORD_0":7,
						"TEXCOORD_1":8
					},
					"indices":9,
					"material":1
				},
				{
					"attributes":{
						"POSITION":10,
						"NORMAL":11,
						"TEXCOORD_0":12,
						"TEXCOORD_1":13
					},
					"indices":14,
					"material":2
				},
				{
					"attributes":{
						"POSITION":15,
						"NORMAL":16,
						"TEXCOORD_0":17,
						"TEXCOORD_1":18
					},
					"indices":19,
					"material":3
				},
				{
					"attributes":{
						"POSITION":20,
						"NORMAL":21,
						"TEXCOORD_0":22,
						"TEXCOORD_1":23
					},
					"indices":24,
					"material":4
				},
				{
					"attributes":{
						"POSITION":25,
						"NORMAL":26,
						"TEXCOORD_0":27,
						"TEXCOORD_1":28
					},
					"indices":29,
					"material":5
				},
				{
					"attributes":{
						"POSITION":30,
						"NORMAL":31,
						"TEXCOORD_0":32,
						"TEXCOORD_1":33
					},
					"indices":34,
					"material":6
				},
				{
					"attributes":{
						"POSITION":35,
						"NORMAL":36,
						"TEXCOORD_0":37,
						"TEXCOORD_1":38
					},
					"indices":39,
					"material":7
				}
			]
		},
		{
			"name":"Plane",
			"primitives":[
				{
					"attributes":{
						"POSITION":40,
						"NORMAL":41,
						"TEXCOORD_0":42
					},
					"indices":43,
					"material":8
				}
			]
		}
	],
	"textures":[
		{
			"sampler":0,
			"source":0
		},
		{
			"sampler":0,
			"source":0
		},
		{
			"sampler":0,
			"source":0
		},
		{
			"sampler":0,
			"source":1
		},
		{
			"sampler":0,
			"source":0
		},
		{
			"sampler":0,
			"source":2
		},
		{
			"sampler":0,
			"source":0
		},
		{
			"sampler":0,
			"source":3
		},
		{
			"sampler":0,
			"source":0
		},
		{
			"sampler":0,
			"source":4
		},
		{
			"sampler":0,
			"source":0
		},
		{
			"sampler":0,
			"source":5
		},
		{
			"sampler":0,
			"source":0
		},
		{
			"sampler":0,
			"source":6
		},
		{
			"sampler":0,
			"source":7
		}
	],
	"images":[
		{
			"mimeType":"image/png",
			"name":"const_8.png",
			"uri":"../../../Textures/ambient_occlusion/Buildings/Construction/const_8.png"
		},
		{
			"mimeType":"image/png",
			"name":"tex40-42",
			"uri":"../../../Textures/tex40-42.png"
		},
		{
			"mimeType":"image/png",
			"name":"tex40-43",
			"uri":"../../../Textures/tex40-43.png"
		},
		{
			"mimeType":"image/png",
			"name":"tex40-54",
			"uri":"../../../Textures/tex40-54.png"
		},
		{
			"mimeType":"image/png",
			"name":"tex40-53",
			"uri":"../../../Textures/tex40-53.png"
		},
		{
			"mimeType":"image/png",
			"name":"tex40-52",
			"uri":"../../../Textures/tex40-52.png"
		},
		{
			"mimeType":"image/png",
			"name":"tex40-55",
			"uri":"../../../Textures/tex40-55.png"
		},
		{
			"mimeType":"image/png",
			"name":"const_8_ground.png",
			"uri":"../../../Textures/ambient_occlusion/Buildings/Construction/const_8_ground.png"
		}
	],
	"accessors":[
		{
			"bufferView":0,
			"componentType":5126,
			"count":120,
			"max":[
				6.71624755859375,
				7.308986663818359,
				-0.01477813720703125
			],
			"min":[
				0.5713653564453125,
				-4.504329681396484,
				-2.9850006103515625
			],
			"type":"VEC3"
		},
		{
			"bufferView":1,
			"componentType":5126,
			"count":120,
			"type":"VEC3"
		},
		{
			"bufferView":2,
			"componentType":5126,
			"count":120,
			"type":"VEC2"
		},
		{
			"bufferView":3,
			"componentType":5126,
			"count":120,
			"type":"VEC2"
		},
		{
			"bufferView":4,
			"componentType":5123,
			"count":180,
			"type":"SCALAR"
		},
		{
			"bufferView":5,
			"componentType":5126,
			"count":18,
			"max":[
				7.711250305175781,
				7.711250305175781,
				0
			],
			"min":[
				-7.462497711181641,
				-7.462497711181641,
				-2.3619041442871094
			],
			"type":"VEC3"
		},
		{
			"bufferView":6,
			"componentType":5126,
			"count":18,
			"type":"VEC3"
		},
		{
			"bufferView":7,
			"componentType":5126,
			"count":18,
			"type":"VEC2"
		},
		{
			"bufferView":8,
			"componentType":5126,
			"count":18,
			"type":"VEC2"
		},
		{
			"bufferView":9,
			"componentType":5123,
			"count":24,
			"type":"SCALAR"
		},
		{
			"bufferView":10,
			"componentType":5126,
			"count":4,
			"max":[
				-4.477497100830078,
				0,
				0
			],
			"min":[
				-4.477497100830078,
				-7.462497711181641,
				-2.3619041442871094
			],
			"type":"VEC3"
		},
		{
			"bufferView":11,
			"componentType":5126,
			"count":4,
			"type":"VEC3"
		},
		{
			"bufferView":12,
			"componentType":5126,
			"count":4,
			"type":"VEC2"
		},
		{
			"bufferView":13,
			"componentType":5126,
			"count":4,
			"type":"VEC2"
		},
		{
			"bufferView":14,
			"componentType":5123,
			"count":6,
			"type":"SCALAR"
		},
		{
			"bufferView":15,
			"componentType":5126,
			"count":4,
			"max":[
				6.467498779296875,
				-5.472496032714844,
				0
			],
			"min":[
				0.4586296081542969,
				-5.472499847412109,
				-2.2387466430664062
			],
			"type":"VEC3"
		},
		{
			"bufferView":16,
			"componentType":5126,
			"count":4,
			"type":"VEC3"
		},
		{
			"bufferView":17,
			"componentType":5126,
			"count":4,
			"type":"VEC2"
		},
		{
			"bufferView":18,
			"componentType":5126,
			"count":4,
			"type":"VEC2"
		},
		{
			"bufferView":19,
			"componentType":5123,
			"count":6,
			"type":"SCALAR"
		},
		{
			"bufferView":20,
			"componentType":5126,
			"count":8,
			"max":[
				6.467498779296875,
				2.487499237060547,
				0
			],
			"min":[
				-4.477497100830078,
				-7.462497711181641,
				-2.2387466430664062
			],
			"type":"VEC3"
		},
		{
			"bufferView":21,
			"componentType":5126,
			"count":8,
			"type":"VEC3"
		},
		{
			"bufferView":22,
			"componentType":5126,
			"count":8,
			"type":"VEC2"
		},
		{
			"bufferView":23,
			"componentType":5126,
			"count":8,
			"type":"VEC2"
		},
		{
			"bufferView":24,
			"componentType":5123,
			"count":12,
			"type":"SCALAR"
		},
		{
			"bufferView":25,
			"componentType":5126,
			"count":12,
			"max":[
				0.4586296081542969,
				2.487499237060547,
				0
			],
			"min":[
				-7.462497711181641,
				-7.462497711181641,
				-2.3619041442871094
			],
			"type":"VEC3"
		},
		{
			"bufferView":26,
			"componentType":5126,
			"count":12,
			"type":"VEC3"
		},
		{
			"bufferView":27,
			"componentType":5126,
			"count":12,
			"type":"VEC2"
		},
		{
			"bufferView":28,
			"componentType":5126,
			"count":12,
			"type":"VEC2"
		},
		{
			"bufferView":29,
			"componentType":5123,
			"count":18,
			"type":"SCALAR"
		},
		{
			"bufferView":30,
			"componentType":5126,
			"count":12,
			"max":[
				6.467498779296875,
				0.248748779296875,
				0
			],
			"min":[
				-7.462497711181641,
				-7.462497711181641,
				-2.3619003295898438
			],
			"type":"VEC3"
		},
		{
			"bufferView":31,
			"componentType":5126,
			"count":12,
			"type":"VEC3"
		},
		{
			"bufferView":32,
			"componentType":5126,
			"count":12,
			"type":"VEC2"
		},
		{
			"bufferView":33,
			"componentType":5126,
			"count":12,
			"type":"VEC2"
		},
		{
			"bufferView":34,
			"componentType":5123,
			"count":18,
			"type":"SCALAR"
		},
		{
			"bufferView":35,
			"componentType":5126,
			"count":8,
			"max":[
				-4.477497100830078,
				2.487499237060547,
				0
			],
			"min":[
				-7.462497711181641,
				0,
				-2.3619041442871094
			],
			"type":"VEC3"
		},
		{
			"bufferView":36,
			"componentType":5126,
			"count":8,
			"type":"VEC3"
		},
		{
			"bufferView":37,
			"componentType":5126,
			"count":8,
			"type":"VEC2"
		},
		{
			"bufferView":38,
			"componentType":5126,
			"count":8,
			"type":"VEC2"
		},
		{
			"bufferView":39,
			"componentType":5123,
			"count":12,
			"type":"SCALAR"
		},
		{
			"bufferView":40,
			"componentType":5126,
			"count":4,
			"max":[
				0.5,
				0,
				0.5
			],
			"min":[
				-0.5,
				0,
				-0.5
			],
			"type":"VEC3"
		},
		{
			"bufferView":41,
			"componentType":5126,
			"count":4,
			"type":"VEC3"
		},
		{
			"bufferView":42,
			"componentType":5126,
			"count":4,
			"type":"VEC2"
		},
		{
			"bufferView":43,
			"componentType":5123,
			"count":6,
			"type":"SCALAR"
		}
	],
	"bufferViews":[
		{
			"buffer":0,
			"byteLength":1440,
			"byteOffset":0,
			"target":34962
		},
		{
			"buffer":0,
			"byteLength":1440,
			"byteOffset":1440,
			"target":34962
		},
		{
			"buffer":0,
			"byteLength":960,
			"byteOffset":2880,
			"target":34962
		},
		{
			"buffer":0,
			"byteLength":960,
			"byteOffset":3840,
			"target":34962
		},
		{
			"buffer":0,
			"byteLength":360,
			"byteOffset":4800,
			"target":34963
		},
		{
			"buffer":0,
			"byteLength":216,
			"byteOffset":5160,
			"target":34962
		},
		{
			"buffer":0,
			"byteLength":216,
			"byteOffset":5376,
			"target":34962
		},
		{
			"buffer":0,
			"byteLength":144,
			"byteOffset":5592,
			"target":34962
		},
		{
			"buffer":0,
			"byteLength":144,
			"byteOffset":5736,
			"target":34962
		},
		{
			"buffer":0,
			"byteLength":48,
			"byteOffset":5880,
			"target":34963
		},
		{
			"buffer":0,
			"byteLength":48,
			"byteOffset":5928,
			"target":34962
		},
		{
			"buffer":0,
			"byteLength":48,
			"byteOffset":5976,
			"target":34962
		},
		{
			"buffer":0,
			"byteLength":32,
			"byteOffset":6024,
			"target":34962
		},
		{
			"buffer":0,
			"byteLength":32,
			"byteOffset":6056,
			"target":34962
		},
		{
			"buffer":0,
			"byteLength":12,
			"byteOffset":6088,
			"target":34963
		},
		{
			"buffer":0,
			"byteLength":48,
			"byteOffset":6100,
			"target":34962
		},
		{
			"buffer":0,
			"byteLength":48,
			"byteOffset":6148,
			"target":34962
		},
		{
			"buffer":0,
			"byteLength":32,
			"byteOffset":6196,
			"target":34962
		},
		{
			"buffer":0,
			"byteLength":32,
			"byteOffset":6228,
			"target":34962
		},
		{
			"buffer":0,
			"byteLength":12,
			"byteOffset":6260,
			"target":34963
		},
		{
			"buffer":0,
			"byteLength":96,
			"byteOffset":6272,
			"target":34962
		},
		{
			"buffer":0,
			"byteLength":96,
			"byteOffset":6368,
			"target":34962
		},
		{
			"buffer":0,
			"byteLength":64,
			"byteOffset":6464,
			"target":34962
		},
		{
			"buffer":0,
			"byteLength":64,
			"byteOffset":6528,
			"target":34962
		},
		{
			"buffer":0,
			"byteLength":24,
			"byteOffset":6592,
			"target":34963
		},
		{
			"buffer":0,
			"byteLength":144,
			"byteOffset":6616,
			"target":34962
		},
		{
			"buffer":0,
			"byteLength":144,
			"byteOffset":6760,
			"target":34962
		},
		{
			"buffer":0,
			"byteLength":96,
			"byteOffset":6904,
			"target":34962
		},
		{
			"buffer":0,
			"byteLength":96,
			"byteOffset":7000,
			"target":34962
		},
		{
			"buffer":0,
			"byteLength":36,
			"byteOffset":7096,
			"target":34963
		},
		{
			"buffer":0,
			"byteLength":144,
			"byteOffset":7132,
			"target":34962
		},
		{
			"buffer":0,
			"byteLength":144,
			"byteOffset":7276,
			"target":34962
		},
		{
			"buffer":0,
			"byteLength":96,
			"byteOffset":7420,
			"target":34962
		},
		{
			"buffer":0,
			"byteLength":96,
			"byteOffset":7516,
			"target":34962
		},
		{
			"buffer":0,
			"byteLength":36,
			"byteOffset":7612,
			"target":34963
		},
		{
			"buffer":0,
			"byteLength":96,
			"byteOffset":7648,
			"target":34962
		},
		{
			"buffer":0,
			"byteLength":96,
			"byteOffset":7744,
			"target":34962
		},
		{
			"buffer":0,
			"byteLength":64,
			"byteOffset":7840,
			"target":34962
		},
		{
			"buffer":0,
			"byteLength":64,
			"byteOffset":7904,
			"target":34962
		},
		{
			"buffer":0,
			"byteLength":24,
			"byteOffset":7968,
			"target":34963
		},
		{
			"buffer":0,
			"byteLength":48,
			"byteOffset":7992,
			"target":34962
		},
		{
			"buffer":0,
			"byteLength":48,
			"byteOffset":8040,
			"target":34962
		},
		{
			"buffer":0,
			"byteLength":32,
			"byteOffset":8088,
			"target":34962
		},
		{
			"buffer":0,
			"byteLength":12,
			"byteOffset":8120,
			"target":34963
		}
	],
	"samplers":[
		{
			"magFilter":9729,
			"minFilter":9987
		}
	],
	"buffers":[
		{
			"byteLength":8132,
			"uri":"const_8.bin"
		}
	]
}
