{
	"asset":{
		"generator":"Khronos glTF Blender I/O v4.3.47",
		"version":"2.0"
	},
	"scene":0,
	"scenes":[
		{
			"name":"Scene",
			"nodes":[
				0,
				1
			]
		}
	],
	"nodes":[
		{
			"mesh":0,
			"name":"Maxis-3d3-mesh-39",
			"rotation":[
				0.70710688829422,
				0,
				0,
				0.7071066498756409
			]
		},
		{
			"extras":{
				"gd_node":"Decal",
				"lower_fade":9,
				"upper_fade":10
			},
			"mesh":1,
			"name":"Ground_AO",
			"scale":[
				27.814830780029297,
				1,
				30.507156372070312
			],
			"translation":[
				1.1281261444091797,
				-0.02549944631755352,
				0.21803808212280273
			]
		}
	],
	"materials":[
		{
			"name":"matcolour-48.004",
			"occlusionTexture":{
				"index":0,
				"texCoord":1
			},
			"pbrMetallicRoughness":{
				"baseColorFactor":[
					0.05882352963089943,
					0.05882352963089943,
					0.05882352963089943,
					1
				],
				"metallicFactor":0
			}
		},
		{
			"name":"mat40-35",
			"occlusionTexture":{
				"index":1,
				"texCoord":1
			},
			"pbrMetallicRoughness":{
				"baseColorTexture":{
					"index":2
				},
				"metallicFactor":0
			}
		},
		{
			"name":"mat40-32",
			"occlusionTexture":{
				"index":3,
				"texCoord":1
			},
			"pbrMetallicRoughness":{
				"baseColorTexture":{
					"index":4
				},
				"metallicFactor":0
			}
		},
		{
			"name":"mat40-54.005",
			"occlusionTexture":{
				"index":5,
				"texCoord":1
			},
			"pbrMetallicRoughness":{
				"baseColorTexture":{
					"index":6
				},
				"metallicFactor":0
			}
		},
		{
			"name":"mat40-53.005",
			"occlusionTexture":{
				"index":7,
				"texCoord":1
			},
			"pbrMetallicRoughness":{
				"baseColorTexture":{
					"index":8
				},
				"metallicFactor":0
			}
		},
		{
			"name":"matcolour-16.003",
			"occlusionTexture":{
				"index":9,
				"texCoord":1
			},
			"pbrMetallicRoughness":{
				"baseColorFactor":[
					0.5607843399047852,
					0.062745101749897,
					0.019607843831181526,
					1
				],
				"metallicFactor":0
			}
		},
		{
			"name":"mat40-38.001",
			"occlusionTexture":{
				"index":10,
				"texCoord":1
			},
			"pbrMetallicRoughness":{
				"baseColorTexture":{
					"index":11
				},
				"metallicFactor":0
			}
		},
		{
			"name":"mat40-37.001",
			"occlusionTexture":{
				"index":12,
				"texCoord":1
			},
			"pbrMetallicRoughness":{
				"baseColorTexture":{
					"index":13
				},
				"metallicFactor":0
			}
		},
		{
			"name":"mat40-39.003",
			"occlusionTexture":{
				"index":14,
				"texCoord":1
			},
			"pbrMetallicRoughness":{
				"baseColorTexture":{
					"index":15
				},
				"metallicFactor":0
			}
		},
		{
			"name":"mat40-36.001",
			"occlusionTexture":{
				"index":16,
				"texCoord":1
			},
			"pbrMetallicRoughness":{
				"baseColorTexture":{
					"index":17
				},
				"metallicFactor":0
			}
		},
		{
			"name":"Ground_AO",
			"occlusionTexture":{
				"index":18
			},
			"pbrMetallicRoughness":{
				"baseColorFactor":[
					0.800000011920929,
					0.800000011920929,
					0.800000011920929,
					1
				],
				"metallicFactor":0,
				"roughnessFactor":0.5
			}
		}
	],
	"meshes":[
		{
			"name":"Maxis-3d3-mesh-39",
			"primitives":[
				{
					"attributes":{
						"POSITION":0,
						"NORMAL":1,
						"TEXCOORD_0":2,
						"TEXCOORD_1":3
					},
					"indices":4,
					"material":0
				},
				{
					"attributes":{
						"POSITION":5,
						"NORMAL":6,
						"TEXCOORD_0":7,
						"TEXCOORD_1":8
					},
					"indices":9,
					"material":1
				},
				{
					"attributes":{
						"POSITION":10,
						"NORMAL":11,
						"TEXCOORD_0":12,
						"TEXCOORD_1":13
					},
					"indices":14,
					"material":2
				},
				{
					"attributes":{
						"POSITION":15,
						"NORMAL":16,
						"TEXCOORD_0":17,
						"TEXCOORD_1":18
					},
					"indices":19,
					"material":3
				},
				{
					"attributes":{
						"POSITION":20,
						"NORMAL":21,
						"TEXCOORD_0":22,
						"TEXCOORD_1":23
					},
					"indices":24,
					"material":4
				},
				{
					"attributes":{
						"POSITION":25,
						"NORMAL":26,
						"TEXCOORD_0":27,
						"TEXCOORD_1":28
					},
					"indices":29,
					"material":5
				},
				{
					"attributes":{
						"POSITION":30,
						"NORMAL":31,
						"TEXCOORD_0":32,
						"TEXCOORD_1":33
					},
					"indices":34,
					"material":6
				},
				{
					"attributes":{
						"POSITION":35,
						"NORMAL":36,
						"TEXCOORD_0":37,
						"TEXCOORD_1":38
					},
					"indices":39,
					"material":7
				},
				{
					"attributes":{
						"POSITION":40,
						"NORMAL":41,
						"TEXCOORD_0":42,
						"TEXCOORD_1":43
					},
					"indices":44,
					"material":8
				},
				{
					"attributes":{
						"POSITION":45,
						"NORMAL":46,
						"TEXCOORD_0":47,
						"TEXCOORD_1":48
					},
					"indices":49,
					"material":9
				},
				{
					"attributes":{
						"POSITION":50
					},
					"indices":51,
					"material":0,
					"mode":1
				}
			]
		},
		{
			"name":"Plane",
			"primitives":[
				{
					"attributes":{
						"POSITION":52,
						"NORMAL":53,
						"TEXCOORD_0":54
					},
					"indices":55,
					"material":10
				}
			]
		}
	],
	"textures":[
		{
			"sampler":0,
			"source":0
		},
		{
			"sampler":0,
			"source":0
		},
		{
			"sampler":0,
			"source":1
		},
		{
			"sampler":0,
			"source":0
		},
		{
			"sampler":0,
			"source":2
		},
		{
			"sampler":0,
			"source":0
		},
		{
			"sampler":0,
			"source":3
		},
		{
			"sampler":0,
			"source":0
		},
		{
			"sampler":0,
			"source":4
		},
		{
			"sampler":0,
			"source":0
		},
		{
			"sampler":0,
			"source":0
		},
		{
			"sampler":0,
			"source":5
		},
		{
			"sampler":0,
			"source":0
		},
		{
			"sampler":0,
			"source":6
		},
		{
			"sampler":0,
			"source":0
		},
		{
			"sampler":0,
			"source":7
		},
		{
			"sampler":0,
			"source":0
		},
		{
			"sampler":0,
			"source":8
		},
		{
			"sampler":0,
			"source":9
		}
	],
	"images":[
		{
			"mimeType":"image/png",
			"name":"const_6.png",
			"uri":"../../../Textures/ambient_occlusion/Buildings/Construction/const_6.png"
		},
		{
			"mimeType":"image/png",
			"name":"tex40-35",
			"uri":"../../../Textures/tex40-35.png"
		},
		{
			"mimeType":"image/png",
			"name":"tex40-32",
			"uri":"../../../Textures/tex40-32.png"
		},
		{
			"mimeType":"image/png",
			"name":"tex40-54",
			"uri":"../../../Textures/tex40-54.png"
		},
		{
			"mimeType":"image/png",
			"name":"tex40-53",
			"uri":"../../../Textures/tex40-53.png"
		},
		{
			"mimeType":"image/png",
			"name":"tex40-38",
			"uri":"../../../Textures/tex40-38.png"
		},
		{
			"mimeType":"image/png",
			"name":"tex40-37",
			"uri":"../../../Textures/tex40-37.png"
		},
		{
			"mimeType":"image/png",
			"name":"tex40-39",
			"uri":"../../../Textures/tex40-39.png"
		},
		{
			"mimeType":"image/png",
			"name":"tex40-36",
			"uri":"../../../Textures/tex40-36.png"
		},
		{
			"mimeType":"image/png",
			"name":"const_6_ground.png",
			"uri":"../../../Textures/ambient_occlusion/Buildings/Construction/const_6_ground.png"
		}
	],
	"accessors":[
		{
			"bufferView":0,
			"componentType":5126,
			"count":84,
			"max":[
				14.535541534423828,
				14.971611022949219,
				7.62939453125e-06
			],
			"min":[
				-2,
				-14.535541534423828,
				-8.14120864868164
			],
			"type":"VEC3"
		},
		{
			"bufferView":1,
			"componentType":5126,
			"count":84,
			"type":"VEC3"
		},
		{
			"bufferView":2,
			"componentType":5126,
			"count":84,
			"type":"VEC2"
		},
		{
			"bufferView":3,
			"componentType":5126,
			"count":84,
			"type":"VEC2"
		},
		{
			"bufferView":4,
			"componentType":5123,
			"count":126,
			"type":"SCALAR"
		},
		{
			"bufferView":5,
			"componentType":5126,
			"count":4,
			"max":[
				14.535541534423828,
				14.971614837646484,
				-3.814697265625e-06
			],
			"min":[
				8.777942657470703,
				14.971611022949219,
				-6.014385223388672
			],
			"type":"VEC3"
		},
		{
			"bufferView":6,
			"componentType":5126,
			"count":4,
			"type":"VEC3"
		},
		{
			"bufferView":7,
			"componentType":5126,
			"count":4,
			"type":"VEC2"
		},
		{
			"bufferView":8,
			"componentType":5126,
			"count":4,
			"type":"VEC2"
		},
		{
			"bufferView":9,
			"componentType":5123,
			"count":6,
			"type":"SCALAR"
		},
		{
			"bufferView":10,
			"componentType":5126,
			"count":4,
			"max":[
				14.535541534423828,
				6.831699371337891,
				0
			],
			"min":[
				8.777942657470703,
				6.831699371337891,
				-6.014385223388672
			],
			"type":"VEC3"
		},
		{
			"bufferView":11,
			"componentType":5126,
			"count":4,
			"type":"VEC3"
		},
		{
			"bufferView":12,
			"componentType":5126,
			"count":4,
			"type":"VEC2"
		},
		{
			"bufferView":13,
			"componentType":5126,
			"count":4,
			"type":"VEC2"
		},
		{
			"bufferView":14,
			"componentType":5123,
			"count":6,
			"type":"SCALAR"
		},
		{
			"bufferView":15,
			"componentType":5126,
			"count":4,
			"max":[
				14.535541534423828,
				14.971614837646484,
				0
			],
			"min":[
				14.535541534423828,
				6.831699371337891,
				-6.014385223388672
			],
			"type":"VEC3"
		},
		{
			"bufferView":16,
			"componentType":5126,
			"count":4,
			"type":"VEC3"
		},
		{
			"bufferView":17,
			"componentType":5126,
			"count":4,
			"type":"VEC2"
		},
		{
			"bufferView":18,
			"componentType":5126,
			"count":4,
			"type":"VEC2"
		},
		{
			"bufferView":19,
			"componentType":5123,
			"count":6,
			"type":"SCALAR"
		},
		{
			"bufferView":20,
			"componentType":5126,
			"count":4,
			"max":[
				8.777942657470703,
				14.971614837646484,
				0
			],
			"min":[
				8.777942657470703,
				6.831699371337891,
				-6.014385223388672
			],
			"type":"VEC3"
		},
		{
			"bufferView":21,
			"componentType":5126,
			"count":4,
			"type":"VEC3"
		},
		{
			"bufferView":22,
			"componentType":5126,
			"count":4,
			"type":"VEC2"
		},
		{
			"bufferView":23,
			"componentType":5126,
			"count":4,
			"type":"VEC2"
		},
		{
			"bufferView":24,
			"componentType":5123,
			"count":6,
			"type":"SCALAR"
		},
		{
			"bufferView":25,
			"componentType":5126,
			"count":48,
			"max":[
				6.013202667236328,
				2.857208251953125,
				0.0254974365234375
			],
			"min":[
				-12.279289245605469,
				1.0935173034667969,
				-20.111995697021484
			],
			"type":"VEC3"
		},
		{
			"bufferView":26,
			"componentType":5126,
			"count":48,
			"type":"VEC3"
		},
		{
			"bufferView":27,
			"componentType":5126,
			"count":48,
			"type":"VEC2"
		},
		{
			"bufferView":28,
			"componentType":5126,
			"count":48,
			"type":"VEC2"
		},
		{
			"bufferView":29,
			"componentType":5123,
			"count":84,
			"type":"SCALAR"
		},
		{
			"bufferView":30,
			"componentType":5126,
			"count":4,
			"max":[
				4.942985534667969,
				2.7823028564453125,
				-11.358943939208984
			],
			"min":[
				4.942981719970703,
				0.8435287475585938,
				-12.511772155761719
			],
			"type":"VEC3"
		},
		{
			"bufferView":31,
			"componentType":5126,
			"count":4,
			"type":"VEC3"
		},
		{
			"bufferView":32,
			"componentType":5126,
			"count":4,
			"type":"VEC2"
		},
		{
			"bufferView":33,
			"componentType":5126,
			"count":4,
			"type":"VEC2"
		},
		{
			"bufferView":34,
			"componentType":5123,
			"count":6,
			"type":"SCALAR"
		},
		{
			"bufferView":35,
			"componentType":5126,
			"count":4,
			"max":[
				6.095813751220703,
				2.7823028564453125,
				-11.358943939208984
			],
			"min":[
				6.095813751220703,
				0.8435287475585938,
				-12.511772155761719
			],
			"type":"VEC3"
		},
		{
			"bufferView":36,
			"componentType":5126,
			"count":4,
			"type":"VEC3"
		},
		{
			"bufferView":37,
			"componentType":5126,
			"count":4,
			"type":"VEC2"
		},
		{
			"bufferView":38,
			"componentType":5126,
			"count":4,
			"type":"VEC2"
		},
		{
			"bufferView":39,
			"componentType":5123,
			"count":6,
			"type":"SCALAR"
		},
		{
			"bufferView":40,
			"componentType":5126,
			"count":8,
			"max":[
				6.095813751220703,
				2.7823028564453125,
				-11.358943939208984
			],
			"min":[
				4.942981719970703,
				0.8435287475585938,
				-12.511772155761719
			],
			"type":"VEC3"
		},
		{
			"bufferView":41,
			"componentType":5126,
			"count":8,
			"type":"VEC3"
		},
		{
			"bufferView":42,
			"componentType":5126,
			"count":8,
			"type":"VEC2"
		},
		{
			"bufferView":43,
			"componentType":5126,
			"count":8,
			"type":"VEC2"
		},
		{
			"bufferView":44,
			"componentType":5123,
			"count":12,
			"type":"SCALAR"
		},
		{
			"bufferView":45,
			"componentType":5126,
			"count":8,
			"max":[
				6.095813751220703,
				2.7823028564453125,
				-11.358943939208984
			],
			"min":[
				4.942981719970703,
				0.8435287475585938,
				-12.511772155761719
			],
			"type":"VEC3"
		},
		{
			"bufferView":46,
			"componentType":5126,
			"count":8,
			"type":"VEC3"
		},
		{
			"bufferView":47,
			"componentType":5126,
			"count":8,
			"type":"VEC2"
		},
		{
			"bufferView":48,
			"componentType":5126,
			"count":8,
			"type":"VEC2"
		},
		{
			"bufferView":49,
			"componentType":5123,
			"count":12,
			"type":"SCALAR"
		},
		{
			"bufferView":50,
			"componentType":5126,
			"count":6,
			"max":[
				5.524074554443359,
				2.6403579711914062,
				-0.5111579895019531
			],
			"min":[
				-11.932586669921875,
				1.2847328186035156,
				-19.47390365600586
			],
			"type":"VEC3"
		},
		{
			"bufferView":51,
			"componentType":5123,
			"count":6,
			"type":"SCALAR"
		},
		{
			"bufferView":52,
			"componentType":5126,
			"count":4,
			"max":[
				0.5,
				0,
				0.5
			],
			"min":[
				-0.5,
				0,
				-0.5
			],
			"type":"VEC3"
		},
		{
			"bufferView":53,
			"componentType":5126,
			"count":4,
			"type":"VEC3"
		},
		{
			"bufferView":54,
			"componentType":5126,
			"count":4,
			"type":"VEC2"
		},
		{
			"bufferView":55,
			"componentType":5123,
			"count":6,
			"type":"SCALAR"
		}
	],
	"bufferViews":[
		{
			"buffer":0,
			"byteLength":1008,
			"byteOffset":0,
			"target":34962
		},
		{
			"buffer":0,
			"byteLength":1008,
			"byteOffset":1008,
			"target":34962
		},
		{
			"buffer":0,
			"byteLength":672,
			"byteOffset":2016,
			"target":34962
		},
		{
			"buffer":0,
			"byteLength":672,
			"byteOffset":2688,
			"target":34962
		},
		{
			"buffer":0,
			"byteLength":252,
			"byteOffset":3360,
			"target":34963
		},
		{
			"buffer":0,
			"byteLength":48,
			"byteOffset":3612,
			"target":34962
		},
		{
			"buffer":0,
			"byteLength":48,
			"byteOffset":3660,
			"target":34962
		},
		{
			"buffer":0,
			"byteLength":32,
			"byteOffset":3708,
			"target":34962
		},
		{
			"buffer":0,
			"byteLength":32,
			"byteOffset":3740,
			"target":34962
		},
		{
			"buffer":0,
			"byteLength":12,
			"byteOffset":3772,
			"target":34963
		},
		{
			"buffer":0,
			"byteLength":48,
			"byteOffset":3784,
			"target":34962
		},
		{
			"buffer":0,
			"byteLength":48,
			"byteOffset":3832,
			"target":34962
		},
		{
			"buffer":0,
			"byteLength":32,
			"byteOffset":3880,
			"target":34962
		},
		{
			"buffer":0,
			"byteLength":32,
			"byteOffset":3912,
			"target":34962
		},
		{
			"buffer":0,
			"byteLength":12,
			"byteOffset":3944,
			"target":34963
		},
		{
			"buffer":0,
			"byteLength":48,
			"byteOffset":3956,
			"target":34962
		},
		{
			"buffer":0,
			"byteLength":48,
			"byteOffset":4004,
			"target":34962
		},
		{
			"buffer":0,
			"byteLength":32,
			"byteOffset":4052,
			"target":34962
		},
		{
			"buffer":0,
			"byteLength":32,
			"byteOffset":4084,
			"target":34962
		},
		{
			"buffer":0,
			"byteLength":12,
			"byteOffset":4116,
			"target":34963
		},
		{
			"buffer":0,
			"byteLength":48,
			"byteOffset":4128,
			"target":34962
		},
		{
			"buffer":0,
			"byteLength":48,
			"byteOffset":4176,
			"target":34962
		},
		{
			"buffer":0,
			"byteLength":32,
			"byteOffset":4224,
			"target":34962
		},
		{
			"buffer":0,
			"byteLength":32,
			"byteOffset":4256,
			"target":34962
		},
		{
			"buffer":0,
			"byteLength":12,
			"byteOffset":4288,
			"target":34963
		},
		{
			"buffer":0,
			"byteLength":576,
			"byteOffset":4300,
			"target":34962
		},
		{
			"buffer":0,
			"byteLength":576,
			"byteOffset":4876,
			"target":34962
		},
		{
			"buffer":0,
			"byteLength":384,
			"byteOffset":5452,
			"target":34962
		},
		{
			"buffer":0,
			"byteLength":384,
			"byteOffset":5836,
			"target":34962
		},
		{
			"buffer":0,
			"byteLength":168,
			"byteOffset":6220,
			"target":34963
		},
		{
			"buffer":0,
			"byteLength":48,
			"byteOffset":6388,
			"target":34962
		},
		{
			"buffer":0,
			"byteLength":48,
			"byteOffset":6436,
			"target":34962
		},
		{
			"buffer":0,
			"byteLength":32,
			"byteOffset":6484,
			"target":34962
		},
		{
			"buffer":0,
			"byteLength":32,
			"byteOffset":6516,
			"target":34962
		},
		{
			"buffer":0,
			"byteLength":12,
			"byteOffset":6548,
			"target":34963
		},
		{
			"buffer":0,
			"byteLength":48,
			"byteOffset":6560,
			"target":34962
		},
		{
			"buffer":0,
			"byteLength":48,
			"byteOffset":6608,
			"target":34962
		},
		{
			"buffer":0,
			"byteLength":32,
			"byteOffset":6656,
			"target":34962
		},
		{
			"buffer":0,
			"byteLength":32,
			"byteOffset":6688,
			"target":34962
		},
		{
			"buffer":0,
			"byteLength":12,
			"byteOffset":6720,
			"target":34963
		},
		{
			"buffer":0,
			"byteLength":96,
			"byteOffset":6732,
			"target":34962
		},
		{
			"buffer":0,
			"byteLength":96,
			"byteOffset":6828,
			"target":34962
		},
		{
			"buffer":0,
			"byteLength":64,
			"byteOffset":6924,
			"target":34962
		},
		{
			"buffer":0,
			"byteLength":64,
			"byteOffset":6988,
			"target":34962
		},
		{
			"buffer":0,
			"byteLength":24,
			"byteOffset":7052,
			"target":34963
		},
		{
			"buffer":0,
			"byteLength":96,
			"byteOffset":7076,
			"target":34962
		},
		{
			"buffer":0,
			"byteLength":96,
			"byteOffset":7172,
			"target":34962
		},
		{
			"buffer":0,
			"byteLength":64,
			"byteOffset":7268,
			"target":34962
		},
		{
			"buffer":0,
			"byteLength":64,
			"byteOffset":7332,
			"target":34962
		},
		{
			"buffer":0,
			"byteLength":24,
			"byteOffset":7396,
			"target":34963
		},
		{
			"buffer":0,
			"byteLength":72,
			"byteOffset":7420,
			"target":34962
		},
		{
			"buffer":0,
			"byteLength":12,
			"byteOffset":7492,
			"target":34963
		},
		{
			"buffer":0,
			"byteLength":48,
			"byteOffset":7504,
			"target":34962
		},
		{
			"buffer":0,
			"byteLength":48,
			"byteOffset":7552,
			"target":34962
		},
		{
			"buffer":0,
			"byteLength":32,
			"byteOffset":7600,
			"target":34962
		},
		{
			"buffer":0,
			"byteLength":12,
			"byteOffset":7632,
			"target":34963
		}
	],
	"samplers":[
		{
			"magFilter":9729,
			"minFilter":9987
		}
	],
	"buffers":[
		{
			"byteLength":7644,
			"uri":"const_6.bin"
		}
	]
}
