{
	"asset":{
		"generator":"Khronos glTF Blender I/O v4.3.47",
		"version":"2.0"
	},
	"scene":0,
	"scenes":[
		{
			"name":"Scene",
			"nodes":[
				0,
				1
			]
		}
	],
	"nodes":[
		{
			"mesh":0,
			"name":"Maxis-3d1-mesh-30",
			"rotation":[
				0.70710688829422,
				0,
				0,
				0.7071066498756409
			]
		},
		{
			"extras":{
				"gd_node":"Decal",
				"lower_fade":9,
				"upper_fade":10
			},
			"mesh":1,
			"name":"Ground_AO",
			"scale":[
				12.769508361816406,
				1,
				16.089988708496094
			],
			"translation":[
				1.7156906127929688,
				-0.00839333888143301,
				-0.0564875602722168
			]
		}
	],
	"materials":[
		{
			"name":"matcolour-48.009",
			"occlusionTexture":{
				"index":0,
				"texCoord":1
			},
			"pbrMetallicRoughness":{
				"baseColorFactor":[
					0.05882352963089943,
					0.05882352963089943,
					0.05882352963089943,
					1
				],
				"metallicFactor":0
			}
		},
		{
			"name":"mat40-60.001",
			"occlusionTexture":{
				"index":1,
				"texCoord":1
			},
			"pbrMetallicRoughness":{
				"baseColorTexture":{
					"index":2
				},
				"metallicFactor":0
			}
		},
		{
			"name":"mat40-39.001",
			"occlusionTexture":{
				"index":3,
				"texCoord":1
			},
			"pbrMetallicRoughness":{
				"baseColorTexture":{
					"index":4
				},
				"metallicFactor":0
			}
		},
		{
			"name":"mat40-36.004",
			"occlusionTexture":{
				"index":5,
				"texCoord":1
			},
			"pbrMetallicRoughness":{
				"baseColorTexture":{
					"index":6
				},
				"metallicFactor":0
			}
		},
		{
			"name":"mat40-37.004",
			"occlusionTexture":{
				"index":7,
				"texCoord":1
			},
			"pbrMetallicRoughness":{
				"baseColorTexture":{
					"index":8
				},
				"metallicFactor":0
			}
		},
		{
			"name":"mat40-38.004",
			"occlusionTexture":{
				"index":9,
				"texCoord":1
			},
			"pbrMetallicRoughness":{
				"baseColorTexture":{
					"index":10
				},
				"metallicFactor":0
			}
		},
		{
			"name":"Ground_AO",
			"occlusionTexture":{
				"index":11
			},
			"pbrMetallicRoughness":{
				"baseColorFactor":[
					0.800000011920929,
					0.800000011920929,
					0.800000011920929,
					1
				],
				"metallicFactor":0,
				"roughnessFactor":0.5
			}
		}
	],
	"meshes":[
		{
			"name":"Maxis-3d1-mesh-30",
			"primitives":[
				{
					"attributes":{
						"POSITION":0,
						"NORMAL":1,
						"TEXCOORD_0":2,
						"TEXCOORD_1":3
					},
					"indices":4,
					"material":0
				},
				{
					"attributes":{
						"POSITION":5,
						"NORMAL":6,
						"TEXCOORD_0":7,
						"TEXCOORD_1":8
					},
					"indices":9,
					"material":1
				},
				{
					"attributes":{
						"POSITION":10,
						"NORMAL":11,
						"TEXCOORD_0":12,
						"TEXCOORD_1":13
					},
					"indices":14,
					"material":2
				},
				{
					"attributes":{
						"POSITION":15,
						"NORMAL":16,
						"TEXCOORD_0":17,
						"TEXCOORD_1":18
					},
					"indices":14,
					"material":3
				},
				{
					"attributes":{
						"POSITION":19,
						"NORMAL":20,
						"TEXCOORD_0":21,
						"TEXCOORD_1":22
					},
					"indices":23,
					"material":4
				},
				{
					"attributes":{
						"POSITION":24,
						"NORMAL":25,
						"TEXCOORD_0":26,
						"TEXCOORD_1":27
					},
					"indices":28,
					"material":5
				}
			]
		},
		{
			"name":"Plane",
			"primitives":[
				{
					"attributes":{
						"POSITION":29,
						"NORMAL":30,
						"TEXCOORD_0":31
					},
					"indices":32,
					"material":6
				}
			]
		}
	],
	"textures":[
		{
			"sampler":0,
			"source":0
		},
		{
			"sampler":0,
			"source":0
		},
		{
			"sampler":0,
			"source":1
		},
		{
			"sampler":0,
			"source":0
		},
		{
			"sampler":0,
			"source":2
		},
		{
			"sampler":0,
			"source":0
		},
		{
			"sampler":0,
			"source":3
		},
		{
			"sampler":0,
			"source":0
		},
		{
			"sampler":0,
			"source":4
		},
		{
			"sampler":0,
			"source":0
		},
		{
			"sampler":0,
			"source":5
		},
		{
			"sampler":0,
			"source":6
		}
	],
	"images":[
		{
			"mimeType":"image/png",
			"name":"const_7.png",
			"uri":"../../../Textures/ambient_occlusion/Buildings/Construction/const_7.png"
		},
		{
			"mimeType":"image/png",
			"name":"tex40-60",
			"uri":"../../../Textures/tex40-60.png"
		},
		{
			"mimeType":"image/png",
			"name":"tex40-39",
			"uri":"../../../Textures/tex40-39.png"
		},
		{
			"mimeType":"image/png",
			"name":"tex40-36",
			"uri":"../../../Textures/tex40-36.png"
		},
		{
			"mimeType":"image/png",
			"name":"tex40-37",
			"uri":"../../../Textures/tex40-37.png"
		},
		{
			"mimeType":"image/png",
			"name":"tex40-38",
			"uri":"../../../Textures/tex40-38.png"
		},
		{
			"mimeType":"image/png",
			"name":"const_7_ground.png",
			"uri":"../../../Textures/ambient_occlusion/Buildings/Construction/const_7_ground.png"
		}
	],
	"accessors":[
		{
			"bufferView":0,
			"componentType":5126,
			"count":172,
			"max":[
				7.600444793701172,
				7.488506317138672,
				0.008392333984375
			],
			"min":[
				-1.8658180236816406,
				-7.601482391357422,
				-6.180416107177734
			],
			"type":"VEC3"
		},
		{
			"bufferView":1,
			"componentType":5126,
			"count":172,
			"type":"VEC3"
		},
		{
			"bufferView":2,
			"componentType":5126,
			"count":172,
			"type":"VEC2"
		},
		{
			"bufferView":3,
			"componentType":5126,
			"count":172,
			"type":"VEC2"
		},
		{
			"bufferView":4,
			"componentType":5123,
			"count":258,
			"type":"SCALAR"
		},
		{
			"bufferView":5,
			"componentType":5126,
			"count":4,
			"max":[
				4.269020080566406,
				4.446163177490234,
				-3.4279708862304688
			],
			"min":[
				-4.169063568115234,
				0.22711563110351562,
				-3.4279747009277344
			],
			"type":"VEC3"
		},
		{
			"bufferView":6,
			"componentType":5126,
			"count":4,
			"type":"VEC3"
		},
		{
			"bufferView":7,
			"componentType":5126,
			"count":4,
			"type":"VEC2"
		},
		{
			"bufferView":8,
			"componentType":5126,
			"count":4,
			"type":"VEC2"
		},
		{
			"bufferView":9,
			"componentType":5123,
			"count":6,
			"type":"SCALAR"
		},
		{
			"bufferView":10,
			"componentType":5126,
			"count":4,
			"max":[
				4.269020080566406,
				4.446163177490234,
				0
			],
			"min":[
				-4.169063568115234,
				4.446163177490234,
				-3.4279747009277344
			],
			"type":"VEC3"
		},
		{
			"bufferView":11,
			"componentType":5126,
			"count":4,
			"type":"VEC3"
		},
		{
			"bufferView":12,
			"componentType":5126,
			"count":4,
			"type":"VEC2"
		},
		{
			"bufferView":13,
			"componentType":5126,
			"count":4,
			"type":"VEC2"
		},
		{
			"bufferView":14,
			"componentType":5123,
			"count":6,
			"type":"SCALAR"
		},
		{
			"bufferView":15,
			"componentType":5126,
			"count":4,
			"max":[
				4.269020080566406,
				0.22711944580078125,
				0
			],
			"min":[
				-4.169063568115234,
				0.22711563110351562,
				-3.4279708862304688
			],
			"type":"VEC3"
		},
		{
			"bufferView":16,
			"componentType":5126,
			"count":4,
			"type":"VEC3"
		},
		{
			"bufferView":17,
			"componentType":5126,
			"count":4,
			"type":"VEC2"
		},
		{
			"bufferView":18,
			"componentType":5126,
			"count":4,
			"type":"VEC2"
		},
		{
			"bufferView":19,
			"componentType":5126,
			"count":4,
			"max":[
				4.269020080566406,
				4.446163177490234,
				0
			],
			"min":[
				4.269020080566406,
				0.22711563110351562,
				-3.4279708862304688
			],
			"type":"VEC3"
		},
		{
			"bufferView":20,
			"componentType":5126,
			"count":4,
			"type":"VEC3"
		},
		{
			"bufferView":21,
			"componentType":5126,
			"count":4,
			"type":"VEC2"
		},
		{
			"bufferView":22,
			"componentType":5126,
			"count":4,
			"type":"VEC2"
		},
		{
			"bufferView":23,
			"componentType":5123,
			"count":6,
			"type":"SCALAR"
		},
		{
			"bufferView":24,
			"componentType":5126,
			"count":4,
			"max":[
				-4.169063568115234,
				4.446163177490234,
				0
			],
			"min":[
				-4.169063568115234,
				0.22711944580078125,
				-3.4279747009277344
			],
			"type":"VEC3"
		},
		{
			"bufferView":25,
			"componentType":5126,
			"count":4,
			"type":"VEC3"
		},
		{
			"bufferView":26,
			"componentType":5126,
			"count":4,
			"type":"VEC2"
		},
		{
			"bufferView":27,
			"componentType":5126,
			"count":4,
			"type":"VEC2"
		},
		{
			"bufferView":28,
			"componentType":5123,
			"count":6,
			"type":"SCALAR"
		},
		{
			"bufferView":29,
			"componentType":5126,
			"count":4,
			"max":[
				0.5,
				0,
				0.5
			],
			"min":[
				-0.5,
				0,
				-0.5
			],
			"type":"VEC3"
		},
		{
			"bufferView":30,
			"componentType":5126,
			"count":4,
			"type":"VEC3"
		},
		{
			"bufferView":31,
			"componentType":5126,
			"count":4,
			"type":"VEC2"
		},
		{
			"bufferView":32,
			"componentType":5123,
			"count":6,
			"type":"SCALAR"
		}
	],
	"bufferViews":[
		{
			"buffer":0,
			"byteLength":2064,
			"byteOffset":0,
			"target":34962
		},
		{
			"buffer":0,
			"byteLength":2064,
			"byteOffset":2064,
			"target":34962
		},
		{
			"buffer":0,
			"byteLength":1376,
			"byteOffset":4128,
			"target":34962
		},
		{
			"buffer":0,
			"byteLength":1376,
			"byteOffset":5504,
			"target":34962
		},
		{
			"buffer":0,
			"byteLength":516,
			"byteOffset":6880,
			"target":34963
		},
		{
			"buffer":0,
			"byteLength":48,
			"byteOffset":7396,
			"target":34962
		},
		{
			"buffer":0,
			"byteLength":48,
			"byteOffset":7444,
			"target":34962
		},
		{
			"buffer":0,
			"byteLength":32,
			"byteOffset":7492,
			"target":34962
		},
		{
			"buffer":0,
			"byteLength":32,
			"byteOffset":7524,
			"target":34962
		},
		{
			"buffer":0,
			"byteLength":12,
			"byteOffset":7556,
			"target":34963
		},
		{
			"buffer":0,
			"byteLength":48,
			"byteOffset":7568,
			"target":34962
		},
		{
			"buffer":0,
			"byteLength":48,
			"byteOffset":7616,
			"target":34962
		},
		{
			"buffer":0,
			"byteLength":32,
			"byteOffset":7664,
			"target":34962
		},
		{
			"buffer":0,
			"byteLength":32,
			"byteOffset":7696,
			"target":34962
		},
		{
			"buffer":0,
			"byteLength":12,
			"byteOffset":7728,
			"target":34963
		},
		{
			"buffer":0,
			"byteLength":48,
			"byteOffset":7740,
			"target":34962
		},
		{
			"buffer":0,
			"byteLength":48,
			"byteOffset":7788,
			"target":34962
		},
		{
			"buffer":0,
			"byteLength":32,
			"byteOffset":7836,
			"target":34962
		},
		{
			"buffer":0,
			"byteLength":32,
			"byteOffset":7868,
			"target":34962
		},
		{
			"buffer":0,
			"byteLength":48,
			"byteOffset":7900,
			"target":34962
		},
		{
			"buffer":0,
			"byteLength":48,
			"byteOffset":7948,
			"target":34962
		},
		{
			"buffer":0,
			"byteLength":32,
			"byteOffset":7996,
			"target":34962
		},
		{
			"buffer":0,
			"byteLength":32,
			"byteOffset":8028,
			"target":34962
		},
		{
			"buffer":0,
			"byteLength":12,
			"byteOffset":8060,
			"target":34963
		},
		{
			"buffer":0,
			"byteLength":48,
			"byteOffset":8072,
			"target":34962
		},
		{
			"buffer":0,
			"byteLength":48,
			"byteOffset":8120,
			"target":34962
		},
		{
			"buffer":0,
			"byteLength":32,
			"byteOffset":8168,
			"target":34962
		},
		{
			"buffer":0,
			"byteLength":32,
			"byteOffset":8200,
			"target":34962
		},
		{
			"buffer":0,
			"byteLength":12,
			"byteOffset":8232,
			"target":34963
		},
		{
			"buffer":0,
			"byteLength":48,
			"byteOffset":8244,
			"target":34962
		},
		{
			"buffer":0,
			"byteLength":48,
			"byteOffset":8292,
			"target":34962
		},
		{
			"buffer":0,
			"byteLength":32,
			"byteOffset":8340,
			"target":34962
		},
		{
			"buffer":0,
			"byteLength":12,
			"byteOffset":8372,
			"target":34963
		}
	],
	"samplers":[
		{
			"magFilter":9729,
			"minFilter":9987
		}
	],
	"buffers":[
		{
			"byteLength":8384,
			"uri":"const_7.bin"
		}
	]
}
