{
	"asset":{
		"generator":"Khronos glTF Blender I/O v4.3.47",
		"version":"2.0"
	},
	"scene":0,
	"scenes":[
		{
			"name":"Scene",
			"nodes":[
				0,
				1
			]
		}
	],
	"nodes":[
		{
			"mesh":0,
			"name":"Maxis-3d1-mesh-32",
			"rotation":[
				0.70710688829422,
				0,
				0,
				0.7071066498756409
			]
		},
		{
			"extras":{
				"gd_node":"Decal",
				"lower_fade":9,
				"upper_fade":10
			},
			"mesh":1,
			"name":"Ground_AO",
			"scale":[
				22.798866271972656,
				1,
				20.02117156982422
			],
			"translation":[
				-1.7220268249511719,
				-0.08289097249507904,
				1.084001064300537
			]
		}
	],
	"materials":[
		{
			"name":"mat40-27",
			"occlusionTexture":{
				"index":0,
				"texCoord":1
			},
			"pbrMetallicRoughness":{
				"baseColorTexture":{
					"index":1
				},
				"metallicFactor":0
			}
		},
		{
			"name":"mat40-54.006",
			"occlusionTexture":{
				"index":2,
				"texCoord":1
			},
			"pbrMetallicRoughness":{
				"baseColorTexture":{
					"index":3
				},
				"metallicFactor":0
			}
		},
		{
			"name":"mat40-53.006",
			"occlusionTexture":{
				"index":4,
				"texCoord":1
			},
			"pbrMetallicRoughness":{
				"baseColorTexture":{
					"index":5
				},
				"metallicFactor":0
			}
		},
		{
			"name":"mat40-52.002",
			"occlusionTexture":{
				"index":6,
				"texCoord":1
			},
			"pbrMetallicRoughness":{
				"baseColorTexture":{
					"index":7
				},
				"metallicFactor":0
			}
		},
		{
			"name":"matcolour-16.001",
			"occlusionTexture":{
				"index":8,
				"texCoord":1
			},
			"pbrMetallicRoughness":{
				"baseColorFactor":[
					0.5607843399047852,
					0.062745101749897,
					0.019607843831181526,
					1
				],
				"metallicFactor":0
			}
		},
		{
			"name":"mat40-38.003",
			"occlusionTexture":{
				"index":9,
				"texCoord":1
			},
			"pbrMetallicRoughness":{
				"baseColorTexture":{
					"index":10
				},
				"metallicFactor":0
			}
		},
		{
			"name":"mat40-37.003",
			"occlusionTexture":{
				"index":11,
				"texCoord":1
			},
			"pbrMetallicRoughness":{
				"baseColorTexture":{
					"index":12
				},
				"metallicFactor":0
			}
		},
		{
			"name":"mat40-39.004",
			"occlusionTexture":{
				"index":13,
				"texCoord":1
			},
			"pbrMetallicRoughness":{
				"baseColorTexture":{
					"index":14
				},
				"metallicFactor":0
			}
		},
		{
			"name":"mat40-36.003",
			"occlusionTexture":{
				"index":15,
				"texCoord":1
			},
			"pbrMetallicRoughness":{
				"baseColorTexture":{
					"index":16
				},
				"metallicFactor":0
			}
		},
		{
			"name":"Ground_AO",
			"occlusionTexture":{
				"index":17
			},
			"pbrMetallicRoughness":{
				"baseColorFactor":[
					0.800000011920929,
					0.800000011920929,
					0.800000011920929,
					1
				],
				"metallicFactor":0,
				"roughnessFactor":0.5
			}
		}
	],
	"meshes":[
		{
			"name":"Maxis-3d1-mesh-32",
			"primitives":[
				{
					"attributes":{
						"POSITION":0,
						"NORMAL":1,
						"TEXCOORD_0":2,
						"TEXCOORD_1":3
					},
					"indices":4,
					"material":0
				},
				{
					"attributes":{
						"POSITION":5,
						"NORMAL":6,
						"TEXCOORD_0":7,
						"TEXCOORD_1":8
					},
					"indices":9,
					"material":1
				},
				{
					"attributes":{
						"POSITION":10,
						"NORMAL":11,
						"TEXCOORD_0":12,
						"TEXCOORD_1":13
					},
					"indices":14,
					"material":2
				},
				{
					"attributes":{
						"POSITION":15,
						"NORMAL":16,
						"TEXCOORD_0":17,
						"TEXCOORD_1":18
					},
					"indices":19,
					"material":3
				},
				{
					"attributes":{
						"POSITION":20,
						"NORMAL":21,
						"TEXCOORD_0":22,
						"TEXCOORD_1":23
					},
					"indices":24,
					"material":4
				},
				{
					"attributes":{
						"POSITION":25,
						"NORMAL":26,
						"TEXCOORD_0":27,
						"TEXCOORD_1":28
					},
					"indices":29,
					"material":5
				},
				{
					"attributes":{
						"POSITION":30,
						"NORMAL":31,
						"TEXCOORD_0":32,
						"TEXCOORD_1":33
					},
					"indices":34,
					"material":6
				},
				{
					"attributes":{
						"POSITION":35,
						"NORMAL":36,
						"TEXCOORD_0":37,
						"TEXCOORD_1":38
					},
					"indices":39,
					"material":7
				},
				{
					"attributes":{
						"POSITION":40,
						"NORMAL":41,
						"TEXCOORD_0":42,
						"TEXCOORD_1":43
					},
					"indices":44,
					"material":8
				}
			]
		},
		{
			"name":"Plane",
			"primitives":[
				{
					"attributes":{
						"POSITION":45,
						"NORMAL":46,
						"TEXCOORD_0":47
					},
					"indices":29,
					"material":9
				}
			]
		}
	],
	"textures":[
		{
			"sampler":0,
			"source":0
		},
		{
			"sampler":0,
			"source":1
		},
		{
			"sampler":0,
			"source":0
		},
		{
			"sampler":0,
			"source":2
		},
		{
			"sampler":0,
			"source":0
		},
		{
			"sampler":0,
			"source":3
		},
		{
			"sampler":0,
			"source":0
		},
		{
			"sampler":0,
			"source":4
		},
		{
			"sampler":0,
			"source":0
		},
		{
			"sampler":0,
			"source":0
		},
		{
			"sampler":0,
			"source":5
		},
		{
			"sampler":0,
			"source":0
		},
		{
			"sampler":0,
			"source":6
		},
		{
			"sampler":0,
			"source":0
		},
		{
			"sampler":0,
			"source":7
		},
		{
			"sampler":0,
			"source":0
		},
		{
			"sampler":0,
			"source":8
		},
		{
			"sampler":0,
			"source":9
		}
	],
	"images":[
		{
			"mimeType":"image/png",
			"name":"const_5.png",
			"uri":"../../../Textures/ambient_occlusion/Buildings/Construction/const_5.png"
		},
		{
			"mimeType":"image/png",
			"name":"tex40-27",
			"uri":"../../../Textures/tex40-27.png"
		},
		{
			"mimeType":"image/png",
			"name":"tex40-54",
			"uri":"../../../Textures/tex40-54.png"
		},
		{
			"mimeType":"image/png",
			"name":"tex40-53",
			"uri":"../../../Textures/tex40-53.png"
		},
		{
			"mimeType":"image/png",
			"name":"tex40-52",
			"uri":"../../../Textures/tex40-52.png"
		},
		{
			"mimeType":"image/png",
			"name":"tex40-38",
			"uri":"../../../Textures/tex40-38.png"
		},
		{
			"mimeType":"image/png",
			"name":"tex40-37",
			"uri":"../../../Textures/tex40-37.png"
		},
		{
			"mimeType":"image/png",
			"name":"tex40-39",
			"uri":"../../../Textures/tex40-39.png"
		},
		{
			"mimeType":"image/png",
			"name":"tex40-36",
			"uri":"../../../Textures/tex40-36.png"
		},
		{
			"mimeType":"image/png",
			"name":"const_5_ground.png",
			"uri":"../../../Textures/ambient_occlusion/Buildings/Construction/const_5_ground.png"
		}
	],
	"accessors":[
		{
			"bufferView":0,
			"componentType":5126,
			"count":4,
			"max":[
				1.9401588439941406,
				7.1295928955078125,
				0
			],
			"min":[
				1.9279060363769531,
				-8.426582336425781,
				-17.517719268798828
			],
			"type":"VEC3"
		},
		{
			"bufferView":1,
			"componentType":5126,
			"count":4,
			"type":"VEC3"
		},
		{
			"bufferView":2,
			"componentType":5126,
			"count":4,
			"type":"VEC2"
		},
		{
			"bufferView":3,
			"componentType":5126,
			"count":4,
			"type":"VEC2"
		},
		{
			"bufferView":4,
			"componentType":5123,
			"count":6,
			"type":"SCALAR"
		},
		{
			"bufferView":5,
			"componentType":5126,
			"count":15,
			"max":[
				1.9279136657714844,
				-8.426578521728516,
				3.814697265625e-06
			],
			"min":[
				-12.6214599609375,
				-8.426586151123047,
				-17.517719268798828
			],
			"type":"VEC3"
		},
		{
			"bufferView":6,
			"componentType":5126,
			"count":15,
			"type":"VEC3"
		},
		{
			"bufferView":7,
			"componentType":5126,
			"count":15,
			"type":"VEC2"
		},
		{
			"bufferView":8,
			"componentType":5126,
			"count":15,
			"type":"VEC2"
		},
		{
			"bufferView":9,
			"componentType":5123,
			"count":30,
			"type":"SCALAR"
		},
		{
			"bufferView":10,
			"componentType":5126,
			"count":12,
			"max":[
				1.1007575988769531,
				-7.587188720703125,
				3.814697265625e-06
			],
			"min":[
				-12.6214599609375,
				-7.587196350097656,
				-17.517719268798828
			],
			"type":"VEC3"
		},
		{
			"bufferView":11,
			"componentType":5126,
			"count":12,
			"type":"VEC3"
		},
		{
			"bufferView":12,
			"componentType":5126,
			"count":12,
			"type":"VEC2"
		},
		{
			"bufferView":13,
			"componentType":5126,
			"count":12,
			"type":"VEC2"
		},
		{
			"bufferView":14,
			"componentType":5123,
			"count":30,
			"type":"SCALAR"
		},
		{
			"bufferView":15,
			"componentType":5126,
			"count":50,
			"max":[
				1.9401588439941406,
				7.1295928955078125,
				3.814697265625e-06
			],
			"min":[
				-12.6214599609375,
				-8.426586151123047,
				-17.517719268798828
			],
			"type":"VEC3"
		},
		{
			"bufferView":16,
			"componentType":5126,
			"count":50,
			"type":"VEC3"
		},
		{
			"bufferView":17,
			"componentType":5126,
			"count":50,
			"type":"VEC2"
		},
		{
			"bufferView":18,
			"componentType":5126,
			"count":50,
			"type":"VEC2"
		},
		{
			"bufferView":19,
			"componentType":5123,
			"count":78,
			"type":"SCALAR"
		},
		{
			"bufferView":20,
			"componentType":5126,
			"count":48,
			"max":[
				9.177406311035156,
				10.594585418701172,
				0.08288955688476562
			],
			"min":[
				7.498821258544922,
				-6.815219879150391,
				-19.082889556884766
			],
			"type":"VEC3"
		},
		{
			"bufferView":21,
			"componentType":5126,
			"count":48,
			"type":"VEC3"
		},
		{
			"bufferView":22,
			"componentType":5126,
			"count":48,
			"type":"VEC2"
		},
		{
			"bufferView":23,
			"componentType":5126,
			"count":48,
			"type":"VEC2"
		},
		{
			"bufferView":24,
			"componentType":5123,
			"count":84,
			"type":"SCALAR"
		},
		{
			"bufferView":25,
			"componentType":5126,
			"count":4,
			"max":[
				9.106117248535156,
				-5.796642303466797,
				-10.752204895019531
			],
			"min":[
				7.260898590087891,
				-5.796642303466797,
				-11.849407196044922
			],
			"type":"VEC3"
		},
		{
			"bufferView":26,
			"componentType":5126,
			"count":4,
			"type":"VEC3"
		},
		{
			"bufferView":27,
			"componentType":5126,
			"count":4,
			"type":"VEC2"
		},
		{
			"bufferView":28,
			"componentType":5126,
			"count":4,
			"type":"VEC2"
		},
		{
			"bufferView":29,
			"componentType":5123,
			"count":6,
			"type":"SCALAR"
		},
		{
			"bufferView":30,
			"componentType":5126,
			"count":4,
			"max":[
				9.106117248535156,
				-6.893840789794922,
				-10.752204895019531
			],
			"min":[
				7.260898590087891,
				-6.8938446044921875,
				-11.849407196044922
			],
			"type":"VEC3"
		},
		{
			"bufferView":31,
			"componentType":5126,
			"count":4,
			"type":"VEC3"
		},
		{
			"bufferView":32,
			"componentType":5126,
			"count":4,
			"type":"VEC2"
		},
		{
			"bufferView":33,
			"componentType":5126,
			"count":4,
			"type":"VEC2"
		},
		{
			"bufferView":34,
			"componentType":5123,
			"count":6,
			"type":"SCALAR"
		},
		{
			"bufferView":35,
			"componentType":5126,
			"count":8,
			"max":[
				9.106117248535156,
				-5.796642303466797,
				-10.752204895019531
			],
			"min":[
				7.260898590087891,
				-6.8938446044921875,
				-11.849407196044922
			],
			"type":"VEC3"
		},
		{
			"bufferView":36,
			"componentType":5126,
			"count":8,
			"type":"VEC3"
		},
		{
			"bufferView":37,
			"componentType":5126,
			"count":8,
			"type":"VEC2"
		},
		{
			"bufferView":38,
			"componentType":5126,
			"count":8,
			"type":"VEC2"
		},
		{
			"bufferView":39,
			"componentType":5123,
			"count":12,
			"type":"SCALAR"
		},
		{
			"bufferView":40,
			"componentType":5126,
			"count":8,
			"max":[
				9.106117248535156,
				-5.796642303466797,
				-10.752204895019531
			],
			"min":[
				7.260898590087891,
				-6.8938446044921875,
				-11.849407196044922
			],
			"type":"VEC3"
		},
		{
			"bufferView":41,
			"componentType":5126,
			"count":8,
			"type":"VEC3"
		},
		{
			"bufferView":42,
			"componentType":5126,
			"count":8,
			"type":"VEC2"
		},
		{
			"bufferView":43,
			"componentType":5126,
			"count":8,
			"type":"VEC2"
		},
		{
			"bufferView":44,
			"componentType":5123,
			"count":12,
			"type":"SCALAR"
		},
		{
			"bufferView":45,
			"componentType":5126,
			"count":4,
			"max":[
				0.5,
				0,
				0.5
			],
			"min":[
				-0.5,
				0,
				-0.5
			],
			"type":"VEC3"
		},
		{
			"bufferView":46,
			"componentType":5126,
			"count":4,
			"type":"VEC3"
		},
		{
			"bufferView":47,
			"componentType":5126,
			"count":4,
			"type":"VEC2"
		}
	],
	"bufferViews":[
		{
			"buffer":0,
			"byteLength":48,
			"byteOffset":0,
			"target":34962
		},
		{
			"buffer":0,
			"byteLength":48,
			"byteOffset":48,
			"target":34962
		},
		{
			"buffer":0,
			"byteLength":32,
			"byteOffset":96,
			"target":34962
		},
		{
			"buffer":0,
			"byteLength":32,
			"byteOffset":128,
			"target":34962
		},
		{
			"buffer":0,
			"byteLength":12,
			"byteOffset":160,
			"target":34963
		},
		{
			"buffer":0,
			"byteLength":180,
			"byteOffset":172,
			"target":34962
		},
		{
			"buffer":0,
			"byteLength":180,
			"byteOffset":352,
			"target":34962
		},
		{
			"buffer":0,
			"byteLength":120,
			"byteOffset":532,
			"target":34962
		},
		{
			"buffer":0,
			"byteLength":120,
			"byteOffset":652,
			"target":34962
		},
		{
			"buffer":0,
			"byteLength":60,
			"byteOffset":772,
			"target":34963
		},
		{
			"buffer":0,
			"byteLength":144,
			"byteOffset":832,
			"target":34962
		},
		{
			"buffer":0,
			"byteLength":144,
			"byteOffset":976,
			"target":34962
		},
		{
			"buffer":0,
			"byteLength":96,
			"byteOffset":1120,
			"target":34962
		},
		{
			"buffer":0,
			"byteLength":96,
			"byteOffset":1216,
			"target":34962
		},
		{
			"buffer":0,
			"byteLength":60,
			"byteOffset":1312,
			"target":34963
		},
		{
			"buffer":0,
			"byteLength":600,
			"byteOffset":1372,
			"target":34962
		},
		{
			"buffer":0,
			"byteLength":600,
			"byteOffset":1972,
			"target":34962
		},
		{
			"buffer":0,
			"byteLength":400,
			"byteOffset":2572,
			"target":34962
		},
		{
			"buffer":0,
			"byteLength":400,
			"byteOffset":2972,
			"target":34962
		},
		{
			"buffer":0,
			"byteLength":156,
			"byteOffset":3372,
			"target":34963
		},
		{
			"buffer":0,
			"byteLength":576,
			"byteOffset":3528,
			"target":34962
		},
		{
			"buffer":0,
			"byteLength":576,
			"byteOffset":4104,
			"target":34962
		},
		{
			"buffer":0,
			"byteLength":384,
			"byteOffset":4680,
			"target":34962
		},
		{
			"buffer":0,
			"byteLength":384,
			"byteOffset":5064,
			"target":34962
		},
		{
			"buffer":0,
			"byteLength":168,
			"byteOffset":5448,
			"target":34963
		},
		{
			"buffer":0,
			"byteLength":48,
			"byteOffset":5616,
			"target":34962
		},
		{
			"buffer":0,
			"byteLength":48,
			"byteOffset":5664,
			"target":34962
		},
		{
			"buffer":0,
			"byteLength":32,
			"byteOffset":5712,
			"target":34962
		},
		{
			"buffer":0,
			"byteLength":32,
			"byteOffset":5744,
			"target":34962
		},
		{
			"buffer":0,
			"byteLength":12,
			"byteOffset":5776,
			"target":34963
		},
		{
			"buffer":0,
			"byteLength":48,
			"byteOffset":5788,
			"target":34962
		},
		{
			"buffer":0,
			"byteLength":48,
			"byteOffset":5836,
			"target":34962
		},
		{
			"buffer":0,
			"byteLength":32,
			"byteOffset":5884,
			"target":34962
		},
		{
			"buffer":0,
			"byteLength":32,
			"byteOffset":5916,
			"target":34962
		},
		{
			"buffer":0,
			"byteLength":12,
			"byteOffset":5948,
			"target":34963
		},
		{
			"buffer":0,
			"byteLength":96,
			"byteOffset":5960,
			"target":34962
		},
		{
			"buffer":0,
			"byteLength":96,
			"byteOffset":6056,
			"target":34962
		},
		{
			"buffer":0,
			"byteLength":64,
			"byteOffset":6152,
			"target":34962
		},
		{
			"buffer":0,
			"byteLength":64,
			"byteOffset":6216,
			"target":34962
		},
		{
			"buffer":0,
			"byteLength":24,
			"byteOffset":6280,
			"target":34963
		},
		{
			"buffer":0,
			"byteLength":96,
			"byteOffset":6304,
			"target":34962
		},
		{
			"buffer":0,
			"byteLength":96,
			"byteOffset":6400,
			"target":34962
		},
		{
			"buffer":0,
			"byteLength":64,
			"byteOffset":6496,
			"target":34962
		},
		{
			"buffer":0,
			"byteLength":64,
			"byteOffset":6560,
			"target":34962
		},
		{
			"buffer":0,
			"byteLength":24,
			"byteOffset":6624,
			"target":34963
		},
		{
			"buffer":0,
			"byteLength":48,
			"byteOffset":6648,
			"target":34962
		},
		{
			"buffer":0,
			"byteLength":48,
			"byteOffset":6696,
			"target":34962
		},
		{
			"buffer":0,
			"byteLength":32,
			"byteOffset":6744,
			"target":34962
		}
	],
	"samplers":[
		{
			"magFilter":9729,
			"minFilter":9987
		}
	],
	"buffers":[
		{
			"byteLength":6776,
			"uri":"const_5.bin"
		}
	]
}
