{
    "asset" : {
        "generator" : "Khronos glTF Blender I/O v1.7.33",
        "version" : "2.0"
    },
    "scene" : 0,
    "scenes" : [
        {
            "name" : "Scene",
            "nodes" : [
                0
            ]
        }
    ],
    "nodes" : [
        {
            "mesh" : 0,
            "name" : "Maxis-3d3-mesh-39",
            "rotation" : [
                0.7071068286895752,
                0,
                0,
                0.7071067094802856
            ]
        }
    ],
    "materials" : [
        {
            "doubleSided" : true,
            "name" : "matcolour-48.004",
            "pbrMetallicRoughness" : {
                "baseColorFactor" : [
                    0.05882352963089943,
                    0.05882352963089943,
                    0.05882352963089943,
                    1
                ],
                "metallicFactor" : 0
            }
        },
        {
            "doubleSided" : true,
            "name" : "mat40-35",
            "pbrMetallicRoughness" : {
                "baseColorTexture" : {
                    "index" : 0
                },
                "metallicFactor" : 0
            }
        },
        {
            "doubleSided" : true,
            "name" : "mat40-32",
            "pbrMetallicRoughness" : {
                "baseColorTexture" : {
                    "index" : 1
                },
                "metallicFactor" : 0
            }
        },
        {
            "doubleSided" : true,
            "name" : "mat40-54.005",
            "pbrMetallicRoughness" : {
                "baseColorTexture" : {
                    "index" : 2
                },
                "metallicFactor" : 0
            }
        },
        {
            "doubleSided" : true,
            "name" : "mat40-53.005",
            "pbrMetallicRoughness" : {
                "baseColorTexture" : {
                    "index" : 3
                },
                "metallicFactor" : 0
            }
        },
        {
            "doubleSided" : true,
            "name" : "matcolour-16.003",
            "pbrMetallicRoughness" : {
                "baseColorFactor" : [
                    0.5607843399047852,
                    0.062745101749897,
                    0.019607843831181526,
                    1
                ],
                "metallicFactor" : 0
            }
        },
        {
            "doubleSided" : true,
            "name" : "mat40-38.001",
            "pbrMetallicRoughness" : {
                "baseColorTexture" : {
                    "index" : 4
                },
                "metallicFactor" : 0
            }
        },
        {
            "doubleSided" : true,
            "name" : "mat40-37.001",
            "pbrMetallicRoughness" : {
                "baseColorTexture" : {
                    "index" : 5
                },
                "metallicFactor" : 0
            }
        },
        {
            "doubleSided" : true,
            "name" : "mat40-39.003",
            "pbrMetallicRoughness" : {
                "baseColorTexture" : {
                    "index" : 6
                },
                "metallicFactor" : 0
            }
        },
        {
            "doubleSided" : true,
            "name" : "mat40-36.001",
            "pbrMetallicRoughness" : {
                "baseColorTexture" : {
                    "index" : 7
                },
                "metallicFactor" : 0
            }
        }
    ],
    "meshes" : [
        {
            "name" : "Maxis-3d3-mesh-39",
            "primitives" : [
                {
                    "attributes" : {
                        "POSITION" : 0,
                        "NORMAL" : 1,
                        "TEXCOORD_0" : 2
                    },
                    "indices" : 3,
                    "material" : 0
                },
                {
                    "attributes" : {
                        "POSITION" : 4,
                        "NORMAL" : 5,
                        "TEXCOORD_0" : 6
                    },
                    "indices" : 7,
                    "material" : 1
                },
                {
                    "attributes" : {
                        "POSITION" : 8,
                        "NORMAL" : 9,
                        "TEXCOORD_0" : 10
                    },
                    "indices" : 7,
                    "material" : 2
                },
                {
                    "attributes" : {
                        "POSITION" : 11,
                        "NORMAL" : 12,
                        "TEXCOORD_0" : 13
                    },
                    "indices" : 14,
                    "material" : 3
                },
                {
                    "attributes" : {
                        "POSITION" : 15,
                        "NORMAL" : 16,
                        "TEXCOORD_0" : 17
                    },
                    "indices" : 18,
                    "material" : 4
                },
                {
                    "attributes" : {
                        "POSITION" : 19,
                        "NORMAL" : 20,
                        "TEXCOORD_0" : 21
                    },
                    "indices" : 22,
                    "material" : 5
                },
                {
                    "attributes" : {
                        "POSITION" : 23,
                        "NORMAL" : 24,
                        "TEXCOORD_0" : 25
                    },
                    "indices" : 26,
                    "material" : 6
                },
                {
                    "attributes" : {
                        "POSITION" : 27,
                        "NORMAL" : 28,
                        "TEXCOORD_0" : 29
                    },
                    "indices" : 7,
                    "material" : 7
                },
                {
                    "attributes" : {
                        "POSITION" : 30,
                        "NORMAL" : 31,
                        "TEXCOORD_0" : 32
                    },
                    "indices" : 33,
                    "material" : 8
                },
                {
                    "attributes" : {
                        "POSITION" : 34,
                        "NORMAL" : 35,
                        "TEXCOORD_0" : 36
                    },
                    "indices" : 37,
                    "material" : 9
                },
                {
                    "attributes" : {
                        "POSITION" : 38
                    },
                    "indices" : 39,
                    "material" : 0,
                    "mode" : 1
                }
            ]
        }
    ],
    "textures" : [
        {
            "sampler" : 0,
            "source" : 0
        },
        {
            "sampler" : 0,
            "source" : 1
        },
        {
            "sampler" : 0,
            "source" : 2
        },
        {
            "sampler" : 0,
            "source" : 3
        },
        {
            "sampler" : 0,
            "source" : 4
        },
        {
            "sampler" : 0,
            "source" : 5
        },
        {
            "sampler" : 0,
            "source" : 6
        },
        {
            "sampler" : 0,
            "source" : 7
        }
    ],
    "images" : [
        {
            "mimeType" : "image/png",
            "name" : "tex40-35",
            "uri" : "../../../Textures/tex40-35.png"
        },
        {
            "mimeType" : "image/png",
            "name" : "tex40-32",
            "uri" : "../../../Textures/tex40-32.png"
        },
        {
            "mimeType" : "image/png",
            "name" : "tex40-54",
            "uri" : "../../../Textures/tex40-54.png"
        },
        {
            "mimeType" : "image/png",
            "name" : "tex40-53",
            "uri" : "../../../Textures/tex40-53.png"
        },
        {
            "mimeType" : "image/png",
            "name" : "tex40-38",
            "uri" : "../../../Textures/tex40-38.png"
        },
        {
            "mimeType" : "image/png",
            "name" : "tex40-37",
            "uri" : "../../../Textures/tex40-37.png"
        },
        {
            "mimeType" : "image/png",
            "name" : "tex40-39",
            "uri" : "../../../Textures/tex40-39.png"
        },
        {
            "mimeType" : "image/png",
            "name" : "tex40-36",
            "uri" : "../../../Textures/tex40-36.png"
        }
    ],
    "accessors" : [
        {
            "bufferView" : 0,
            "componentType" : 5126,
            "count" : 106,
            "max" : [
                14.535541534423828,
                14.971611022949219,
                7.62939453125e-06
            ],
            "min" : [
                -2,
                -14.535541534423828,
                -8.14120864868164
            ],
            "type" : "VEC3"
        },
        {
            "bufferView" : 1,
            "componentType" : 5126,
            "count" : 106,
            "type" : "VEC3"
        },
        {
            "bufferView" : 2,
            "componentType" : 5126,
            "count" : 106,
            "type" : "VEC2"
        },
        {
            "bufferView" : 3,
            "componentType" : 5123,
            "count" : 126,
            "type" : "SCALAR"
        },
        {
            "bufferView" : 4,
            "componentType" : 5126,
            "count" : 4,
            "max" : [
                14.535541534423828,
                14.971614837646484,
                -3.814697265625e-06
            ],
            "min" : [
                8.777942657470703,
                14.971611022949219,
                -6.014385223388672
            ],
            "type" : "VEC3"
        },
        {
            "bufferView" : 5,
            "componentType" : 5126,
            "count" : 4,
            "type" : "VEC3"
        },
        {
            "bufferView" : 6,
            "componentType" : 5126,
            "count" : 4,
            "type" : "VEC2"
        },
        {
            "bufferView" : 7,
            "componentType" : 5123,
            "count" : 6,
            "type" : "SCALAR"
        },
        {
            "bufferView" : 8,
            "componentType" : 5126,
            "count" : 4,
            "max" : [
                14.535541534423828,
                6.831699371337891,
                0
            ],
            "min" : [
                8.777942657470703,
                6.831699371337891,
                -6.014385223388672
            ],
            "type" : "VEC3"
        },
        {
            "bufferView" : 9,
            "componentType" : 5126,
            "count" : 4,
            "type" : "VEC3"
        },
        {
            "bufferView" : 10,
            "componentType" : 5126,
            "count" : 4,
            "type" : "VEC2"
        },
        {
            "bufferView" : 11,
            "componentType" : 5126,
            "count" : 6,
            "max" : [
                14.535541534423828,
                14.971614837646484,
                0
            ],
            "min" : [
                14.535541534423828,
                6.831699371337891,
                -6.014385223388672
            ],
            "type" : "VEC3"
        },
        {
            "bufferView" : 12,
            "componentType" : 5126,
            "count" : 6,
            "type" : "VEC3"
        },
        {
            "bufferView" : 13,
            "componentType" : 5126,
            "count" : 6,
            "type" : "VEC2"
        },
        {
            "bufferView" : 14,
            "componentType" : 5123,
            "count" : 6,
            "type" : "SCALAR"
        },
        {
            "bufferView" : 15,
            "componentType" : 5126,
            "count" : 6,
            "max" : [
                8.777942657470703,
                14.971614837646484,
                0
            ],
            "min" : [
                8.777942657470703,
                6.831699371337891,
                -6.014385223388672
            ],
            "type" : "VEC3"
        },
        {
            "bufferView" : 16,
            "componentType" : 5126,
            "count" : 6,
            "type" : "VEC3"
        },
        {
            "bufferView" : 17,
            "componentType" : 5126,
            "count" : 6,
            "type" : "VEC2"
        },
        {
            "bufferView" : 18,
            "componentType" : 5123,
            "count" : 6,
            "type" : "SCALAR"
        },
        {
            "bufferView" : 19,
            "componentType" : 5126,
            "count" : 80,
            "max" : [
                6.013202667236328,
                2.857208251953125,
                0.0254974365234375
            ],
            "min" : [
                -12.279289245605469,
                1.0935173034667969,
                -20.111995697021484
            ],
            "type" : "VEC3"
        },
        {
            "bufferView" : 20,
            "componentType" : 5126,
            "count" : 80,
            "type" : "VEC3"
        },
        {
            "bufferView" : 21,
            "componentType" : 5126,
            "count" : 80,
            "type" : "VEC2"
        },
        {
            "bufferView" : 22,
            "componentType" : 5123,
            "count" : 84,
            "type" : "SCALAR"
        },
        {
            "bufferView" : 23,
            "componentType" : 5126,
            "count" : 6,
            "max" : [
                4.942985534667969,
                2.7823028564453125,
                -11.358943939208984
            ],
            "min" : [
                4.942981719970703,
                0.8435287475585938,
                -12.511772155761719
            ],
            "type" : "VEC3"
        },
        {
            "bufferView" : 24,
            "componentType" : 5126,
            "count" : 6,
            "type" : "VEC3"
        },
        {
            "bufferView" : 25,
            "componentType" : 5126,
            "count" : 6,
            "type" : "VEC2"
        },
        {
            "bufferView" : 26,
            "componentType" : 5123,
            "count" : 6,
            "type" : "SCALAR"
        },
        {
            "bufferView" : 27,
            "componentType" : 5126,
            "count" : 4,
            "max" : [
                6.095813751220703,
                2.7823028564453125,
                -11.358943939208984
            ],
            "min" : [
                6.095813751220703,
                0.8435287475585938,
                -12.511772155761719
            ],
            "type" : "VEC3"
        },
        {
            "bufferView" : 28,
            "componentType" : 5126,
            "count" : 4,
            "type" : "VEC3"
        },
        {
            "bufferView" : 29,
            "componentType" : 5126,
            "count" : 4,
            "type" : "VEC2"
        },
        {
            "bufferView" : 30,
            "componentType" : 5126,
            "count" : 10,
            "max" : [
                6.095813751220703,
                2.7823028564453125,
                -11.358943939208984
            ],
            "min" : [
                4.942981719970703,
                0.8435287475585938,
                -12.511772155761719
            ],
            "type" : "VEC3"
        },
        {
            "bufferView" : 31,
            "componentType" : 5126,
            "count" : 10,
            "type" : "VEC3"
        },
        {
            "bufferView" : 32,
            "componentType" : 5126,
            "count" : 10,
            "type" : "VEC2"
        },
        {
            "bufferView" : 33,
            "componentType" : 5123,
            "count" : 12,
            "type" : "SCALAR"
        },
        {
            "bufferView" : 34,
            "componentType" : 5126,
            "count" : 10,
            "max" : [
                6.095813751220703,
                2.7823028564453125,
                -11.358943939208984
            ],
            "min" : [
                4.942981719970703,
                0.8435287475585938,
                -12.511772155761719
            ],
            "type" : "VEC3"
        },
        {
            "bufferView" : 35,
            "componentType" : 5126,
            "count" : 10,
            "type" : "VEC3"
        },
        {
            "bufferView" : 36,
            "componentType" : 5126,
            "count" : 10,
            "type" : "VEC2"
        },
        {
            "bufferView" : 37,
            "componentType" : 5123,
            "count" : 12,
            "type" : "SCALAR"
        },
        {
            "bufferView" : 38,
            "componentType" : 5126,
            "count" : 6,
            "max" : [
                5.524074554443359,
                2.6403579711914062,
                -0.5111579895019531
            ],
            "min" : [
                -11.932586669921875,
                1.2847328186035156,
                -19.47390365600586
            ],
            "type" : "VEC3"
        },
        {
            "bufferView" : 39,
            "componentType" : 5123,
            "count" : 6,
            "type" : "SCALAR"
        }
    ],
    "bufferViews" : [
        {
            "buffer" : 0,
            "byteLength" : 1272,
            "byteOffset" : 0
        },
        {
            "buffer" : 0,
            "byteLength" : 1272,
            "byteOffset" : 1272
        },
        {
            "buffer" : 0,
            "byteLength" : 848,
            "byteOffset" : 2544
        },
        {
            "buffer" : 0,
            "byteLength" : 252,
            "byteOffset" : 3392
        },
        {
            "buffer" : 0,
            "byteLength" : 48,
            "byteOffset" : 3644
        },
        {
            "buffer" : 0,
            "byteLength" : 48,
            "byteOffset" : 3692
        },
        {
            "buffer" : 0,
            "byteLength" : 32,
            "byteOffset" : 3740
        },
        {
            "buffer" : 0,
            "byteLength" : 12,
            "byteOffset" : 3772
        },
        {
            "buffer" : 0,
            "byteLength" : 48,
            "byteOffset" : 3784
        },
        {
            "buffer" : 0,
            "byteLength" : 48,
            "byteOffset" : 3832
        },
        {
            "buffer" : 0,
            "byteLength" : 32,
            "byteOffset" : 3880
        },
        {
            "buffer" : 0,
            "byteLength" : 72,
            "byteOffset" : 3912
        },
        {
            "buffer" : 0,
            "byteLength" : 72,
            "byteOffset" : 3984
        },
        {
            "buffer" : 0,
            "byteLength" : 48,
            "byteOffset" : 4056
        },
        {
            "buffer" : 0,
            "byteLength" : 12,
            "byteOffset" : 4104
        },
        {
            "buffer" : 0,
            "byteLength" : 72,
            "byteOffset" : 4116
        },
        {
            "buffer" : 0,
            "byteLength" : 72,
            "byteOffset" : 4188
        },
        {
            "buffer" : 0,
            "byteLength" : 48,
            "byteOffset" : 4260
        },
        {
            "buffer" : 0,
            "byteLength" : 12,
            "byteOffset" : 4308
        },
        {
            "buffer" : 0,
            "byteLength" : 960,
            "byteOffset" : 4320
        },
        {
            "buffer" : 0,
            "byteLength" : 960,
            "byteOffset" : 5280
        },
        {
            "buffer" : 0,
            "byteLength" : 640,
            "byteOffset" : 6240
        },
        {
            "buffer" : 0,
            "byteLength" : 168,
            "byteOffset" : 6880
        },
        {
            "buffer" : 0,
            "byteLength" : 72,
            "byteOffset" : 7048
        },
        {
            "buffer" : 0,
            "byteLength" : 72,
            "byteOffset" : 7120
        },
        {
            "buffer" : 0,
            "byteLength" : 48,
            "byteOffset" : 7192
        },
        {
            "buffer" : 0,
            "byteLength" : 12,
            "byteOffset" : 7240
        },
        {
            "buffer" : 0,
            "byteLength" : 48,
            "byteOffset" : 7252
        },
        {
            "buffer" : 0,
            "byteLength" : 48,
            "byteOffset" : 7300
        },
        {
            "buffer" : 0,
            "byteLength" : 32,
            "byteOffset" : 7348
        },
        {
            "buffer" : 0,
            "byteLength" : 120,
            "byteOffset" : 7380
        },
        {
            "buffer" : 0,
            "byteLength" : 120,
            "byteOffset" : 7500
        },
        {
            "buffer" : 0,
            "byteLength" : 80,
            "byteOffset" : 7620
        },
        {
            "buffer" : 0,
            "byteLength" : 24,
            "byteOffset" : 7700
        },
        {
            "buffer" : 0,
            "byteLength" : 120,
            "byteOffset" : 7724
        },
        {
            "buffer" : 0,
            "byteLength" : 120,
            "byteOffset" : 7844
        },
        {
            "buffer" : 0,
            "byteLength" : 80,
            "byteOffset" : 7964
        },
        {
            "buffer" : 0,
            "byteLength" : 24,
            "byteOffset" : 8044
        },
        {
            "buffer" : 0,
            "byteLength" : 72,
            "byteOffset" : 8068
        },
        {
            "buffer" : 0,
            "byteLength" : 12,
            "byteOffset" : 8140
        }
    ],
    "samplers" : [
        {
            "magFilter" : 9729,
            "minFilter" : 9987
        }
    ],
    "buffers" : [
        {
            "byteLength" : 8152,
            "uri" : "const_6.bin"
        }
    ]
}
