{
    "asset" : {
        "generator" : "Khronos glTF Blender I/O v1.7.33",
        "version" : "2.0"
    },
    "scene" : 0,
    "scenes" : [
        {
            "name" : "Scene",
            "nodes" : [
                0
            ]
        }
    ],
    "nodes" : [
        {
            "mesh" : 0,
            "name" : "Maxis-3d3-mesh-37",
            "rotation" : [
                0.7071068286895752,
                0,
                0,
                0.7071067094802856
            ]
        }
    ],
    "materials" : [
        {
            "doubleSided" : true,
            "name" : "mat40-43",
            "pbrMetallicRoughness" : {
                "baseColorTexture" : {
                    "index" : 0
                },
                "metallicFactor" : 0
            }
        },
        {
            "doubleSided" : true,
            "name" : "mat40-52.003",
            "pbrMetallicRoughness" : {
                "baseColorTexture" : {
                    "index" : 1
                },
                "metallicFactor" : 0
            }
        },
        {
            "doubleSided" : true,
            "name" : "mat40-54.003",
            "pbrMetallicRoughness" : {
                "baseColorTexture" : {
                    "index" : 2
                },
                "metallicFactor" : 0
            }
        },
        {
            "doubleSided" : true,
            "name" : "mat40-53.003",
            "pbrMetallicRoughness" : {
                "baseColorTexture" : {
                    "index" : 3
                },
                "metallicFactor" : 0
            }
        },
        {
            "doubleSided" : true,
            "name" : "matcolour-16.002",
            "pbrMetallicRoughness" : {
                "baseColorFactor" : [
                    0.5607843399047852,
                    0.062745101749897,
                    0.019607843831181526,
                    1
                ],
                "metallicFactor" : 0
            }
        },
        {
            "doubleSided" : true,
            "name" : "mat40-38.002",
            "pbrMetallicRoughness" : {
                "baseColorTexture" : {
                    "index" : 4
                },
                "metallicFactor" : 0
            }
        },
        {
            "doubleSided" : true,
            "name" : "mat40-37.002",
            "pbrMetallicRoughness" : {
                "baseColorTexture" : {
                    "index" : 5
                },
                "metallicFactor" : 0
            }
        },
        {
            "doubleSided" : true,
            "name" : "mat40-39.002",
            "pbrMetallicRoughness" : {
                "baseColorTexture" : {
                    "index" : 6
                },
                "metallicFactor" : 0
            }
        },
        {
            "doubleSided" : true,
            "name" : "mat40-36.002",
            "pbrMetallicRoughness" : {
                "baseColorTexture" : {
                    "index" : 7
                },
                "metallicFactor" : 0
            }
        }
    ],
    "meshes" : [
        {
            "name" : "Maxis-3d3-mesh-37",
            "primitives" : [
                {
                    "attributes" : {
                        "POSITION" : 0,
                        "NORMAL" : 1,
                        "TEXCOORD_0" : 2
                    },
                    "indices" : 3,
                    "material" : 0
                },
                {
                    "attributes" : {
                        "POSITION" : 4,
                        "NORMAL" : 5,
                        "TEXCOORD_0" : 6
                    },
                    "indices" : 7,
                    "material" : 1
                },
                {
                    "attributes" : {
                        "POSITION" : 8,
                        "NORMAL" : 9,
                        "TEXCOORD_0" : 10
                    },
                    "indices" : 11,
                    "material" : 2
                },
                {
                    "attributes" : {
                        "POSITION" : 12,
                        "NORMAL" : 13,
                        "TEXCOORD_0" : 14
                    },
                    "indices" : 15,
                    "material" : 3
                },
                {
                    "attributes" : {
                        "POSITION" : 16,
                        "NORMAL" : 17,
                        "TEXCOORD_0" : 18
                    },
                    "indices" : 19,
                    "material" : 4
                },
                {
                    "attributes" : {
                        "POSITION" : 20,
                        "NORMAL" : 21,
                        "TEXCOORD_0" : 22
                    },
                    "indices" : 23,
                    "material" : 5
                },
                {
                    "attributes" : {
                        "POSITION" : 24,
                        "NORMAL" : 25,
                        "TEXCOORD_0" : 26
                    },
                    "indices" : 23,
                    "material" : 6
                },
                {
                    "attributes" : {
                        "POSITION" : 27,
                        "NORMAL" : 28,
                        "TEXCOORD_0" : 29
                    },
                    "indices" : 30,
                    "material" : 7
                },
                {
                    "attributes" : {
                        "POSITION" : 31,
                        "NORMAL" : 32,
                        "TEXCOORD_0" : 33
                    },
                    "indices" : 34,
                    "material" : 8
                },
                {
                    "attributes" : {
                        "POSITION" : 35
                    },
                    "indices" : 36,
                    "material" : 0,
                    "mode" : 1
                }
            ]
        }
    ],
    "textures" : [
        {
            "sampler" : 0,
            "source" : 0
        },
        {
            "sampler" : 0,
            "source" : 1
        },
        {
            "sampler" : 0,
            "source" : 2
        },
        {
            "sampler" : 0,
            "source" : 3
        },
        {
            "sampler" : 0,
            "source" : 4
        },
        {
            "sampler" : 0,
            "source" : 5
        },
        {
            "sampler" : 0,
            "source" : 6
        },
        {
            "sampler" : 0,
            "source" : 7
        }
    ],
    "images" : [
        {
            "mimeType" : "image/png",
            "name" : "tex40-43",
            "uri" : "../../../Textures/tex40-43.png"
        },
        {
            "mimeType" : "image/png",
            "name" : "tex40-52",
            "uri" : "../../../Textures/tex40-52.png"
        },
        {
            "mimeType" : "image/png",
            "name" : "tex40-54",
            "uri" : "../../../Textures/tex40-54.png"
        },
        {
            "mimeType" : "image/png",
            "name" : "tex40-53",
            "uri" : "../../../Textures/tex40-53.png"
        },
        {
            "mimeType" : "image/png",
            "name" : "tex40-38",
            "uri" : "../../../Textures/tex40-38.png"
        },
        {
            "mimeType" : "image/png",
            "name" : "tex40-37",
            "uri" : "../../../Textures/tex40-37.png"
        },
        {
            "mimeType" : "image/png",
            "name" : "tex40-39",
            "uri" : "../../../Textures/tex40-39.png"
        },
        {
            "mimeType" : "image/png",
            "name" : "tex40-36",
            "uri" : "../../../Textures/tex40-36.png"
        }
    ],
    "accessors" : [
        {
            "bufferView" : 0,
            "componentType" : 5126,
            "count" : 6,
            "max" : [
                8.959354400634766,
                8.59027099609375,
                0
            ],
            "min" : [
                -6.596820831298828,
                8.578022003173828,
                -17.517719268798828
            ],
            "type" : "VEC3"
        },
        {
            "bufferView" : 1,
            "componentType" : 5126,
            "count" : 6,
            "type" : "VEC3"
        },
        {
            "bufferView" : 2,
            "componentType" : 5126,
            "count" : 6,
            "type" : "VEC2"
        },
        {
            "bufferView" : 3,
            "componentType" : 5123,
            "count" : 6,
            "type" : "SCALAR"
        },
        {
            "bufferView" : 4,
            "componentType" : 5126,
            "count" : 56,
            "max" : [
                8.959354400634766,
                8.59027099609375,
                3.814697265625e-06
            ],
            "min" : [
                -6.596820831298828,
                -5.971343994140625,
                -17.517719268798828
            ],
            "type" : "VEC3"
        },
        {
            "bufferView" : 5,
            "componentType" : 5126,
            "count" : 56,
            "type" : "VEC3"
        },
        {
            "bufferView" : 6,
            "componentType" : 5126,
            "count" : 56,
            "type" : "VEC2"
        },
        {
            "bufferView" : 7,
            "componentType" : 5123,
            "count" : 78,
            "type" : "SCALAR"
        },
        {
            "bufferView" : 8,
            "componentType" : 5126,
            "count" : 24,
            "max" : [
                8.959354400634766,
                8.578025817871094,
                3.814697265625e-06
            ],
            "min" : [
                8.9593505859375,
                -5.971343994140625,
                -17.517719268798828
            ],
            "type" : "VEC3"
        },
        {
            "bufferView" : 9,
            "componentType" : 5126,
            "count" : 24,
            "type" : "VEC3"
        },
        {
            "bufferView" : 10,
            "componentType" : 5126,
            "count" : 24,
            "type" : "VEC2"
        },
        {
            "bufferView" : 11,
            "componentType" : 5123,
            "count" : 30,
            "type" : "SCALAR"
        },
        {
            "bufferView" : 12,
            "componentType" : 5126,
            "count" : 28,
            "max" : [
                8.119964599609375,
                7.750873565673828,
                3.814697265625e-06
            ],
            "min" : [
                8.11996078491211,
                -5.971343994140625,
                -17.517719268798828
            ],
            "type" : "VEC3"
        },
        {
            "bufferView" : 13,
            "componentType" : 5126,
            "count" : 28,
            "type" : "VEC3"
        },
        {
            "bufferView" : 14,
            "componentType" : 5126,
            "count" : 28,
            "type" : "VEC2"
        },
        {
            "bufferView" : 15,
            "componentType" : 5123,
            "count" : 30,
            "type" : "SCALAR"
        },
        {
            "bufferView" : 16,
            "componentType" : 5126,
            "count" : 80,
            "max" : [
                5.5263824462890625,
                -1.8412246704101562,
                0.13124847412109375
            ],
            "min" : [
                -13.788040161132812,
                -3.7034454345703125,
                -21.131248474121094
            ],
            "type" : "VEC3"
        },
        {
            "bufferView" : 17,
            "componentType" : 5126,
            "count" : 80,
            "type" : "VEC3"
        },
        {
            "bufferView" : 18,
            "componentType" : 5126,
            "count" : 80,
            "type" : "VEC2"
        },
        {
            "bufferView" : 19,
            "componentType" : 5123,
            "count" : 84,
            "type" : "SCALAR"
        },
        {
            "bufferView" : 20,
            "componentType" : 5126,
            "count" : 4,
            "max" : [
                -12.658031463623047,
                -1.5772743225097656,
                -11.889198303222656
            ],
            "min" : [
                -12.658031463623047,
                -3.624359130859375,
                -13.106430053710938
            ],
            "type" : "VEC3"
        },
        {
            "bufferView" : 21,
            "componentType" : 5126,
            "count" : 4,
            "type" : "VEC3"
        },
        {
            "bufferView" : 22,
            "componentType" : 5126,
            "count" : 4,
            "type" : "VEC2"
        },
        {
            "bufferView" : 23,
            "componentType" : 5123,
            "count" : 6,
            "type" : "SCALAR"
        },
        {
            "bufferView" : 24,
            "componentType" : 5126,
            "count" : 4,
            "max" : [
                -13.875267028808594,
                -1.5772743225097656,
                -11.889198303222656
            ],
            "min" : [
                -13.875267028808594,
                -3.624359130859375,
                -13.106430053710938
            ],
            "type" : "VEC3"
        },
        {
            "bufferView" : 25,
            "componentType" : 5126,
            "count" : 4,
            "type" : "VEC3"
        },
        {
            "bufferView" : 26,
            "componentType" : 5126,
            "count" : 4,
            "type" : "VEC2"
        },
        {
            "bufferView" : 27,
            "componentType" : 5126,
            "count" : 8,
            "max" : [
                -12.658031463623047,
                -1.5772743225097656,
                -11.889198303222656
            ],
            "min" : [
                -13.875267028808594,
                -3.624359130859375,
                -13.106430053710938
            ],
            "type" : "VEC3"
        },
        {
            "bufferView" : 28,
            "componentType" : 5126,
            "count" : 8,
            "type" : "VEC3"
        },
        {
            "bufferView" : 29,
            "componentType" : 5126,
            "count" : 8,
            "type" : "VEC2"
        },
        {
            "bufferView" : 30,
            "componentType" : 5123,
            "count" : 12,
            "type" : "SCALAR"
        },
        {
            "bufferView" : 31,
            "componentType" : 5126,
            "count" : 8,
            "max" : [
                -12.658031463623047,
                -1.5772743225097656,
                -11.889198303222656
            ],
            "min" : [
                -13.875267028808594,
                -3.624359130859375,
                -13.106430053710938
            ],
            "type" : "VEC3"
        },
        {
            "bufferView" : 32,
            "componentType" : 5126,
            "count" : 8,
            "type" : "VEC3"
        },
        {
            "bufferView" : 33,
            "componentType" : 5126,
            "count" : 8,
            "type" : "VEC2"
        },
        {
            "bufferView" : 34,
            "componentType" : 5123,
            "count" : 12,
            "type" : "SCALAR"
        },
        {
            "bufferView" : 35,
            "componentType" : 5126,
            "count" : 6,
            "max" : [
                5.160308837890625,
                -2.043121337890625,
                -0.43538665771484375
            ],
            "min" : [
                -13.271583557128906,
                -3.4744834899902344,
                -20.457508087158203
            ],
            "type" : "VEC3"
        },
        {
            "bufferView" : 36,
            "componentType" : 5123,
            "count" : 6,
            "type" : "SCALAR"
        }
    ],
    "bufferViews" : [
        {
            "buffer" : 0,
            "byteLength" : 72,
            "byteOffset" : 0
        },
        {
            "buffer" : 0,
            "byteLength" : 72,
            "byteOffset" : 72
        },
        {
            "buffer" : 0,
            "byteLength" : 48,
            "byteOffset" : 144
        },
        {
            "buffer" : 0,
            "byteLength" : 12,
            "byteOffset" : 192
        },
        {
            "buffer" : 0,
            "byteLength" : 672,
            "byteOffset" : 204
        },
        {
            "buffer" : 0,
            "byteLength" : 672,
            "byteOffset" : 876
        },
        {
            "buffer" : 0,
            "byteLength" : 448,
            "byteOffset" : 1548
        },
        {
            "buffer" : 0,
            "byteLength" : 156,
            "byteOffset" : 1996
        },
        {
            "buffer" : 0,
            "byteLength" : 288,
            "byteOffset" : 2152
        },
        {
            "buffer" : 0,
            "byteLength" : 288,
            "byteOffset" : 2440
        },
        {
            "buffer" : 0,
            "byteLength" : 192,
            "byteOffset" : 2728
        },
        {
            "buffer" : 0,
            "byteLength" : 60,
            "byteOffset" : 2920
        },
        {
            "buffer" : 0,
            "byteLength" : 336,
            "byteOffset" : 2980
        },
        {
            "buffer" : 0,
            "byteLength" : 336,
            "byteOffset" : 3316
        },
        {
            "buffer" : 0,
            "byteLength" : 224,
            "byteOffset" : 3652
        },
        {
            "buffer" : 0,
            "byteLength" : 60,
            "byteOffset" : 3876
        },
        {
            "buffer" : 0,
            "byteLength" : 960,
            "byteOffset" : 3936
        },
        {
            "buffer" : 0,
            "byteLength" : 960,
            "byteOffset" : 4896
        },
        {
            "buffer" : 0,
            "byteLength" : 640,
            "byteOffset" : 5856
        },
        {
            "buffer" : 0,
            "byteLength" : 168,
            "byteOffset" : 6496
        },
        {
            "buffer" : 0,
            "byteLength" : 48,
            "byteOffset" : 6664
        },
        {
            "buffer" : 0,
            "byteLength" : 48,
            "byteOffset" : 6712
        },
        {
            "buffer" : 0,
            "byteLength" : 32,
            "byteOffset" : 6760
        },
        {
            "buffer" : 0,
            "byteLength" : 12,
            "byteOffset" : 6792
        },
        {
            "buffer" : 0,
            "byteLength" : 48,
            "byteOffset" : 6804
        },
        {
            "buffer" : 0,
            "byteLength" : 48,
            "byteOffset" : 6852
        },
        {
            "buffer" : 0,
            "byteLength" : 32,
            "byteOffset" : 6900
        },
        {
            "buffer" : 0,
            "byteLength" : 96,
            "byteOffset" : 6932
        },
        {
            "buffer" : 0,
            "byteLength" : 96,
            "byteOffset" : 7028
        },
        {
            "buffer" : 0,
            "byteLength" : 64,
            "byteOffset" : 7124
        },
        {
            "buffer" : 0,
            "byteLength" : 24,
            "byteOffset" : 7188
        },
        {
            "buffer" : 0,
            "byteLength" : 96,
            "byteOffset" : 7212
        },
        {
            "buffer" : 0,
            "byteLength" : 96,
            "byteOffset" : 7308
        },
        {
            "buffer" : 0,
            "byteLength" : 64,
            "byteOffset" : 7404
        },
        {
            "buffer" : 0,
            "byteLength" : 24,
            "byteOffset" : 7468
        },
        {
            "buffer" : 0,
            "byteLength" : 72,
            "byteOffset" : 7492
        },
        {
            "buffer" : 0,
            "byteLength" : 12,
            "byteOffset" : 7564
        }
    ],
    "samplers" : [
        {
            "magFilter" : 9729,
            "minFilter" : 9987
        }
    ],
    "buffers" : [
        {
            "byteLength" : 7576,
            "uri" : "const_3.bin"
        }
    ]
}
