{
	"asset":{
		"generator":"Khronos glTF Blender I/O v4.3.47",
		"version":"2.0"
	},
	"scene":0,
	"scenes":[
		{
			"name":"Scene",
			"nodes":[
				0,
				1
			]
		}
	],
	"nodes":[
		{
			"mesh":0,
			"name":"Maxis-3d3-mesh-47",
			"rotation":[
				0.70710688829422,
				0,
				0,
				0.7071066498756409
			]
		},
		{
			"extras":{
				"gd_node":"Decal",
				"lower_fade":9,
				"upper_fade":10
			},
			"mesh":1,
			"name":"Ground_AO",
			"scale":[
				48.25,
				1,
				44
			],
			"translation":[
				5.125,
				-1.4315627595351543e-05,
				-0.1278524398803711
			]
		}
	],
	"materials":[
		{
			"name":"mat40-53.001",
			"occlusionTexture":{
				"index":0,
				"texCoord":1
			},
			"pbrMetallicRoughness":{
				"baseColorTexture":{
					"index":1
				},
				"metallicFactor":0
			}
		},
		{
			"name":"mat40-54.001",
			"occlusionTexture":{
				"index":2,
				"texCoord":1
			},
			"pbrMetallicRoughness":{
				"baseColorTexture":{
					"index":3
				},
				"metallicFactor":0
			}
		},
		{
			"name":"matcolour-16",
			"occlusionTexture":{
				"index":4,
				"texCoord":1
			},
			"pbrMetallicRoughness":{
				"baseColorFactor":[
					0.5607843399047852,
					0.062745101749897,
					0.019607843831181526,
					1
				],
				"metallicFactor":0
			}
		},
		{
			"name":"mat40-38",
			"occlusionTexture":{
				"index":5,
				"texCoord":1
			},
			"pbrMetallicRoughness":{
				"baseColorTexture":{
					"index":6
				},
				"metallicFactor":0
			}
		},
		{
			"name":"mat40-37",
			"occlusionTexture":{
				"index":7,
				"texCoord":1
			},
			"pbrMetallicRoughness":{
				"baseColorTexture":{
					"index":8
				},
				"metallicFactor":0
			}
		},
		{
			"name":"mat40-39",
			"occlusionTexture":{
				"index":9,
				"texCoord":1
			},
			"pbrMetallicRoughness":{
				"baseColorTexture":{
					"index":10
				},
				"metallicFactor":0
			}
		},
		{
			"name":"mat40-36",
			"occlusionTexture":{
				"index":11,
				"texCoord":1
			},
			"pbrMetallicRoughness":{
				"baseColorTexture":{
					"index":12
				},
				"metallicFactor":0
			}
		},
		{
			"name":"matcolour-48.001",
			"occlusionTexture":{
				"index":13,
				"texCoord":1
			},
			"pbrMetallicRoughness":{
				"baseColorFactor":[
					0.05882352963089943,
					0.05882352963089943,
					0.05882352963089943,
					1
				],
				"metallicFactor":0
			}
		},
		{
			"name":"mat40-55.001",
			"occlusionTexture":{
				"index":14,
				"texCoord":1
			},
			"pbrMetallicRoughness":{
				"baseColorTexture":{
					"index":15
				},
				"metallicFactor":0
			}
		},
		{
			"name":"mat40-52.001",
			"occlusionTexture":{
				"index":16,
				"texCoord":1
			},
			"pbrMetallicRoughness":{
				"baseColorTexture":{
					"index":17
				},
				"metallicFactor":0
			}
		},
		{
			"name":"Ground_AO",
			"occlusionTexture":{
				"index":18
			},
			"pbrMetallicRoughness":{
				"baseColorFactor":[
					0.800000011920929,
					0.800000011920929,
					0.800000011920929,
					1
				],
				"metallicFactor":0,
				"roughnessFactor":0.5
			}
		}
	],
	"meshes":[
		{
			"name":"Maxis-3d3-mesh-47",
			"primitives":[
				{
					"attributes":{
						"POSITION":0,
						"NORMAL":1,
						"TEXCOORD_0":2,
						"TEXCOORD_1":3
					},
					"indices":4,
					"material":0
				},
				{
					"attributes":{
						"POSITION":5,
						"NORMAL":6,
						"TEXCOORD_0":7,
						"TEXCOORD_1":8
					},
					"indices":9,
					"material":1
				},
				{
					"attributes":{
						"POSITION":10,
						"NORMAL":11,
						"TEXCOORD_0":12,
						"TEXCOORD_1":13
					},
					"indices":14,
					"material":2
				},
				{
					"attributes":{
						"POSITION":15,
						"NORMAL":16,
						"TEXCOORD_0":17,
						"TEXCOORD_1":18
					},
					"indices":19,
					"material":3
				},
				{
					"attributes":{
						"POSITION":20,
						"NORMAL":21,
						"TEXCOORD_0":22,
						"TEXCOORD_1":23
					},
					"indices":19,
					"material":4
				},
				{
					"attributes":{
						"POSITION":24,
						"NORMAL":25,
						"TEXCOORD_0":26,
						"TEXCOORD_1":27
					},
					"indices":28,
					"material":5
				},
				{
					"attributes":{
						"POSITION":29,
						"NORMAL":30,
						"TEXCOORD_0":31,
						"TEXCOORD_1":32
					},
					"indices":33,
					"material":6
				},
				{
					"attributes":{
						"POSITION":34,
						"NORMAL":35,
						"TEXCOORD_0":36,
						"TEXCOORD_1":37
					},
					"indices":38,
					"material":7
				},
				{
					"attributes":{
						"POSITION":39,
						"NORMAL":40,
						"TEXCOORD_0":41,
						"TEXCOORD_1":42
					},
					"indices":43,
					"material":8
				},
				{
					"attributes":{
						"POSITION":44,
						"NORMAL":45,
						"TEXCOORD_0":46,
						"TEXCOORD_1":47
					},
					"indices":48,
					"material":9
				},
				{
					"attributes":{
						"POSITION":49
					},
					"indices":50,
					"material":0,
					"mode":1
				}
			]
		},
		{
			"name":"Plane",
			"primitives":[
				{
					"attributes":{
						"POSITION":51,
						"NORMAL":52,
						"TEXCOORD_0":53
					},
					"indices":54,
					"material":10
				}
			]
		}
	],
	"textures":[
		{
			"sampler":0,
			"source":0
		},
		{
			"sampler":0,
			"source":1
		},
		{
			"sampler":0,
			"source":0
		},
		{
			"sampler":0,
			"source":2
		},
		{
			"sampler":0,
			"source":0
		},
		{
			"sampler":0,
			"source":0
		},
		{
			"sampler":0,
			"source":3
		},
		{
			"sampler":0,
			"source":0
		},
		{
			"sampler":0,
			"source":4
		},
		{
			"sampler":0,
			"source":0
		},
		{
			"sampler":0,
			"source":5
		},
		{
			"sampler":0,
			"source":0
		},
		{
			"sampler":0,
			"source":6
		},
		{
			"sampler":0,
			"source":0
		},
		{
			"sampler":0,
			"source":0
		},
		{
			"sampler":0,
			"source":7
		},
		{
			"sampler":0,
			"source":0
		},
		{
			"sampler":0,
			"source":8
		},
		{
			"sampler":0,
			"source":9
		}
	],
	"images":[
		{
			"mimeType":"image/png",
			"name":"const_1-2.png",
			"uri":"../../../Textures/ambient_occlusion/Buildings/Construction/const_1-2.png"
		},
		{
			"mimeType":"image/png",
			"name":"tex40-53",
			"uri":"../../../Textures/tex40-53.png"
		},
		{
			"mimeType":"image/png",
			"name":"tex40-54",
			"uri":"../../../Textures/tex40-54.png"
		},
		{
			"mimeType":"image/png",
			"name":"tex40-38",
			"uri":"../../../Textures/tex40-38.png"
		},
		{
			"mimeType":"image/png",
			"name":"tex40-37",
			"uri":"../../../Textures/tex40-37.png"
		},
		{
			"mimeType":"image/png",
			"name":"tex40-39",
			"uri":"../../../Textures/tex40-39.png"
		},
		{
			"mimeType":"image/png",
			"name":"tex40-36",
			"uri":"../../../Textures/tex40-36.png"
		},
		{
			"mimeType":"image/png",
			"name":"tex40-55",
			"uri":"../../../Textures/tex40-55.png"
		},
		{
			"mimeType":"image/png",
			"name":"tex40-52",
			"uri":"../../../Textures/tex40-52.png"
		},
		{
			"mimeType":"image/png",
			"name":"const_1-2_ground.png",
			"uri":"../../../Textures/ambient_occlusion/Buildings/Construction/const_1-2_ground.png"
		}
	],
	"accessors":[
		{
			"bufferView":0,
			"componentType":5126,
			"count":16,
			"max":[
				18.5,
				21.372142791748047,
				7.62939453125e-06
			],
			"min":[
				-18.5,
				-21.627853393554688,
				-18.597030639648438
			],
			"type":"VEC3"
		},
		{
			"bufferView":1,
			"componentType":5126,
			"count":16,
			"type":"VEC3"
		},
		{
			"bufferView":2,
			"componentType":5126,
			"count":16,
			"type":"VEC2"
		},
		{
			"bufferView":3,
			"componentType":5126,
			"count":16,
			"type":"VEC2"
		},
		{
			"bufferView":4,
			"componentType":5123,
			"count":24,
			"type":"SCALAR"
		},
		{
			"bufferView":5,
			"componentType":5126,
			"count":20,
			"max":[
				18.5,
				21.372142791748047,
				1.1444091796875e-05
			],
			"min":[
				-9.5,
				-21.627853393554688,
				-18.597030639648438
			],
			"type":"VEC3"
		},
		{
			"bufferView":6,
			"componentType":5126,
			"count":20,
			"type":"VEC3"
		},
		{
			"bufferView":7,
			"componentType":5126,
			"count":20,
			"type":"VEC2"
		},
		{
			"bufferView":8,
			"componentType":5126,
			"count":20,
			"type":"VEC2"
		},
		{
			"bufferView":9,
			"componentType":5123,
			"count":30,
			"type":"SCALAR"
		},
		{
			"bufferView":10,
			"componentType":5126,
			"count":48,
			"max":[
				28.75,
				3.5416603088378906,
				0
			],
			"min":[
				-12.127082824707031,
				-0.39954376220703125,
				-45
			],
			"type":"VEC3"
		},
		{
			"bufferView":11,
			"componentType":5126,
			"count":48,
			"type":"VEC3"
		},
		{
			"bufferView":12,
			"componentType":5126,
			"count":48,
			"type":"VEC2"
		},
		{
			"bufferView":13,
			"componentType":5126,
			"count":48,
			"type":"VEC2"
		},
		{
			"bufferView":14,
			"componentType":5123,
			"count":84,
			"type":"SCALAR"
		},
		{
			"bufferView":15,
			"componentType":5126,
			"count":4,
			"max":[
				-9.735530853271484,
				4.100284576416016,
				-25.440101623535156
			],
			"min":[
				-9.735530853271484,
				-0.2321624755859375,
				-28.016258239746094
			],
			"type":"VEC3"
		},
		{
			"bufferView":16,
			"componentType":5126,
			"count":4,
			"type":"VEC3"
		},
		{
			"bufferView":17,
			"componentType":5126,
			"count":4,
			"type":"VEC2"
		},
		{
			"bufferView":18,
			"componentType":5126,
			"count":4,
			"type":"VEC2"
		},
		{
			"bufferView":19,
			"componentType":5123,
			"count":6,
			"type":"SCALAR"
		},
		{
			"bufferView":20,
			"componentType":5126,
			"count":4,
			"max":[
				-12.311687469482422,
				4.100284576416016,
				-25.440101623535156
			],
			"min":[
				-12.311687469482422,
				-0.2321624755859375,
				-28.016258239746094
			],
			"type":"VEC3"
		},
		{
			"bufferView":21,
			"componentType":5126,
			"count":4,
			"type":"VEC3"
		},
		{
			"bufferView":22,
			"componentType":5126,
			"count":4,
			"type":"VEC2"
		},
		{
			"bufferView":23,
			"componentType":5126,
			"count":4,
			"type":"VEC2"
		},
		{
			"bufferView":24,
			"componentType":5126,
			"count":8,
			"max":[
				-9.735530853271484,
				4.100284576416016,
				-25.440101623535156
			],
			"min":[
				-12.311687469482422,
				-0.2321624755859375,
				-28.016258239746094
			],
			"type":"VEC3"
		},
		{
			"bufferView":25,
			"componentType":5126,
			"count":8,
			"type":"VEC3"
		},
		{
			"bufferView":26,
			"componentType":5126,
			"count":8,
			"type":"VEC2"
		},
		{
			"bufferView":27,
			"componentType":5126,
			"count":8,
			"type":"VEC2"
		},
		{
			"bufferView":28,
			"componentType":5123,
			"count":12,
			"type":"SCALAR"
		},
		{
			"bufferView":29,
			"componentType":5126,
			"count":8,
			"max":[
				-9.735530853271484,
				4.100284576416016,
				-25.440101623535156
			],
			"min":[
				-12.311687469482422,
				-0.2321624755859375,
				-28.016258239746094
			],
			"type":"VEC3"
		},
		{
			"bufferView":30,
			"componentType":5126,
			"count":8,
			"type":"VEC3"
		},
		{
			"bufferView":31,
			"componentType":5126,
			"count":8,
			"type":"VEC2"
		},
		{
			"bufferView":32,
			"componentType":5126,
			"count":8,
			"type":"VEC2"
		},
		{
			"bufferView":33,
			"componentType":5123,
			"count":12,
			"type":"SCALAR"
		},
		{
			"bufferView":34,
			"componentType":5126,
			"count":21,
			"max":[
				18.5,
				21.372142791748047,
				-2.0275840759277344
			],
			"min":[
				-18.5,
				-21.627853393554688,
				-18.597030639648438
			],
			"type":"VEC3"
		},
		{
			"bufferView":35,
			"componentType":5126,
			"count":21,
			"type":"VEC3"
		},
		{
			"bufferView":36,
			"componentType":5126,
			"count":21,
			"type":"VEC2"
		},
		{
			"bufferView":37,
			"componentType":5126,
			"count":21,
			"type":"VEC2"
		},
		{
			"bufferView":38,
			"componentType":5123,
			"count":57,
			"type":"SCALAR"
		},
		{
			"bufferView":39,
			"componentType":5126,
			"count":16,
			"max":[
				18.5,
				21.372142791748047,
				0
			],
			"min":[
				-18.5,
				-13.627861022949219,
				-18.597030639648438
			],
			"type":"VEC3"
		},
		{
			"bufferView":40,
			"componentType":5126,
			"count":16,
			"type":"VEC3"
		},
		{
			"bufferView":41,
			"componentType":5126,
			"count":16,
			"type":"VEC2"
		},
		{
			"bufferView":42,
			"componentType":5126,
			"count":16,
			"type":"VEC2"
		},
		{
			"bufferView":43,
			"componentType":5123,
			"count":24,
			"type":"SCALAR"
		},
		{
			"bufferView":44,
			"componentType":5126,
			"count":16,
			"max":[
				13.5,
				13.372142791748047,
				1.1444091796875e-05
			],
			"min":[
				-18.5,
				-21.627853393554688,
				-18.597023010253906
			],
			"type":"VEC3"
		},
		{
			"bufferView":45,
			"componentType":5126,
			"count":16,
			"type":"VEC3"
		},
		{
			"bufferView":46,
			"componentType":5126,
			"count":16,
			"type":"VEC2"
		},
		{
			"bufferView":47,
			"componentType":5126,
			"count":16,
			"type":"VEC2"
		},
		{
			"bufferView":48,
			"componentType":5123,
			"count":24,
			"type":"SCALAR"
		},
		{
			"bufferView":49,
			"componentType":5126,
			"count":6,
			"max":[
				27.975238800048828,
				3.1143646240234375,
				-1.1992340087890625
			],
			"min":[
				-11.0340576171875,
				0.08502578735351562,
				-43.5740852355957
			],
			"type":"VEC3"
		},
		{
			"bufferView":50,
			"componentType":5123,
			"count":6,
			"type":"SCALAR"
		},
		{
			"bufferView":51,
			"componentType":5126,
			"count":4,
			"max":[
				0.5,
				0,
				0.5
			],
			"min":[
				-0.5,
				0,
				-0.5
			],
			"type":"VEC3"
		},
		{
			"bufferView":52,
			"componentType":5126,
			"count":4,
			"type":"VEC3"
		},
		{
			"bufferView":53,
			"componentType":5126,
			"count":4,
			"type":"VEC2"
		},
		{
			"bufferView":54,
			"componentType":5123,
			"count":6,
			"type":"SCALAR"
		}
	],
	"bufferViews":[
		{
			"buffer":0,
			"byteLength":192,
			"byteOffset":0,
			"target":34962
		},
		{
			"buffer":0,
			"byteLength":192,
			"byteOffset":192,
			"target":34962
		},
		{
			"buffer":0,
			"byteLength":128,
			"byteOffset":384,
			"target":34962
		},
		{
			"buffer":0,
			"byteLength":128,
			"byteOffset":512,
			"target":34962
		},
		{
			"buffer":0,
			"byteLength":48,
			"byteOffset":640,
			"target":34963
		},
		{
			"buffer":0,
			"byteLength":240,
			"byteOffset":688,
			"target":34962
		},
		{
			"buffer":0,
			"byteLength":240,
			"byteOffset":928,
			"target":34962
		},
		{
			"buffer":0,
			"byteLength":160,
			"byteOffset":1168,
			"target":34962
		},
		{
			"buffer":0,
			"byteLength":160,
			"byteOffset":1328,
			"target":34962
		},
		{
			"buffer":0,
			"byteLength":60,
			"byteOffset":1488,
			"target":34963
		},
		{
			"buffer":0,
			"byteLength":576,
			"byteOffset":1548,
			"target":34962
		},
		{
			"buffer":0,
			"byteLength":576,
			"byteOffset":2124,
			"target":34962
		},
		{
			"buffer":0,
			"byteLength":384,
			"byteOffset":2700,
			"target":34962
		},
		{
			"buffer":0,
			"byteLength":384,
			"byteOffset":3084,
			"target":34962
		},
		{
			"buffer":0,
			"byteLength":168,
			"byteOffset":3468,
			"target":34963
		},
		{
			"buffer":0,
			"byteLength":48,
			"byteOffset":3636,
			"target":34962
		},
		{
			"buffer":0,
			"byteLength":48,
			"byteOffset":3684,
			"target":34962
		},
		{
			"buffer":0,
			"byteLength":32,
			"byteOffset":3732,
			"target":34962
		},
		{
			"buffer":0,
			"byteLength":32,
			"byteOffset":3764,
			"target":34962
		},
		{
			"buffer":0,
			"byteLength":12,
			"byteOffset":3796,
			"target":34963
		},
		{
			"buffer":0,
			"byteLength":48,
			"byteOffset":3808,
			"target":34962
		},
		{
			"buffer":0,
			"byteLength":48,
			"byteOffset":3856,
			"target":34962
		},
		{
			"buffer":0,
			"byteLength":32,
			"byteOffset":3904,
			"target":34962
		},
		{
			"buffer":0,
			"byteLength":32,
			"byteOffset":3936,
			"target":34962
		},
		{
			"buffer":0,
			"byteLength":96,
			"byteOffset":3968,
			"target":34962
		},
		{
			"buffer":0,
			"byteLength":96,
			"byteOffset":4064,
			"target":34962
		},
		{
			"buffer":0,
			"byteLength":64,
			"byteOffset":4160,
			"target":34962
		},
		{
			"buffer":0,
			"byteLength":64,
			"byteOffset":4224,
			"target":34962
		},
		{
			"buffer":0,
			"byteLength":24,
			"byteOffset":4288,
			"target":34963
		},
		{
			"buffer":0,
			"byteLength":96,
			"byteOffset":4312,
			"target":34962
		},
		{
			"buffer":0,
			"byteLength":96,
			"byteOffset":4408,
			"target":34962
		},
		{
			"buffer":0,
			"byteLength":64,
			"byteOffset":4504,
			"target":34962
		},
		{
			"buffer":0,
			"byteLength":64,
			"byteOffset":4568,
			"target":34962
		},
		{
			"buffer":0,
			"byteLength":24,
			"byteOffset":4632,
			"target":34963
		},
		{
			"buffer":0,
			"byteLength":252,
			"byteOffset":4656,
			"target":34962
		},
		{
			"buffer":0,
			"byteLength":252,
			"byteOffset":4908,
			"target":34962
		},
		{
			"buffer":0,
			"byteLength":168,
			"byteOffset":5160,
			"target":34962
		},
		{
			"buffer":0,
			"byteLength":168,
			"byteOffset":5328,
			"target":34962
		},
		{
			"buffer":0,
			"byteLength":114,
			"byteOffset":5496,
			"target":34963
		},
		{
			"buffer":0,
			"byteLength":192,
			"byteOffset":5612,
			"target":34962
		},
		{
			"buffer":0,
			"byteLength":192,
			"byteOffset":5804,
			"target":34962
		},
		{
			"buffer":0,
			"byteLength":128,
			"byteOffset":5996,
			"target":34962
		},
		{
			"buffer":0,
			"byteLength":128,
			"byteOffset":6124,
			"target":34962
		},
		{
			"buffer":0,
			"byteLength":48,
			"byteOffset":6252,
			"target":34963
		},
		{
			"buffer":0,
			"byteLength":192,
			"byteOffset":6300,
			"target":34962
		},
		{
			"buffer":0,
			"byteLength":192,
			"byteOffset":6492,
			"target":34962
		},
		{
			"buffer":0,
			"byteLength":128,
			"byteOffset":6684,
			"target":34962
		},
		{
			"buffer":0,
			"byteLength":128,
			"byteOffset":6812,
			"target":34962
		},
		{
			"buffer":0,
			"byteLength":48,
			"byteOffset":6940,
			"target":34963
		},
		{
			"buffer":0,
			"byteLength":72,
			"byteOffset":6988,
			"target":34962
		},
		{
			"buffer":0,
			"byteLength":12,
			"byteOffset":7060,
			"target":34963
		},
		{
			"buffer":0,
			"byteLength":48,
			"byteOffset":7072,
			"target":34962
		},
		{
			"buffer":0,
			"byteLength":48,
			"byteOffset":7120,
			"target":34962
		},
		{
			"buffer":0,
			"byteLength":32,
			"byteOffset":7168,
			"target":34962
		},
		{
			"buffer":0,
			"byteLength":12,
			"byteOffset":7200,
			"target":34963
		}
	],
	"samplers":[
		{
			"magFilter":9729,
			"minFilter":9987
		}
	],
	"buffers":[
		{
			"byteLength":7212,
			"uri":"const_1-2.bin"
		}
	]
}
