{
    "asset" : {
        "generator" : "Khronos glTF Blender I/O v1.7.33",
        "version" : "2.0"
    },
    "scene" : 0,
    "scenes" : [
        {
            "name" : "Scene",
            "nodes" : [
                0,
                2,
                4,
                6
            ]
        }
    ],
    "nodes" : [
        {
            "mesh" : 0,
            "name" : "Maxis-3d3-mesh-104",
            "rotation" : [
                0.7071068286895752,
                0,
                0,
                0.7071067094802856
            ]
        },
        {
            "mesh" : 1,
            "name" : "leaves.001"
        },
        {
            "children" : [
                1
            ],
            "mesh" : 2,
            "name" : "tree",
            "translation" : [
                6.3794097900390625,
                -4.113384875381598e-06,
                1.8333320617675781
            ]
        },
        {
            "mesh" : 3,
            "name" : "leaves"
        },
        {
            "children" : [
                3
            ],
            "mesh" : 4,
            "name" : "tree_1",
            "translation" : [
                -1.3289222717285156,
                -2.9593643375847023e-06,
                -5.249996185302734
            ]
        },
        {
            "mesh" : 5,
            "name" : "leaves_2"
        },
        {
            "children" : [
                5
            ],
            "mesh" : 6,
            "name" : "tree_2",
            "translation" : [
                3.9161033630371094,
                -2.986517301906133e-06,
                -5.083332061767578
            ]
        }
    ],
    "materials" : [
        {
            "doubleSided" : true,
            "name" : "mat20-0",
            "pbrMetallicRoughness" : {
                "baseColorTexture" : {
                    "index" : 0
                },
                "metallicFactor" : 0
            }
        },
        {
            "doubleSided" : true,
            "name" : "leaves",
            "pbrMetallicRoughness" : {
                "baseColorFactor" : [
                    0.038344886153936386,
                    0.07828020304441452,
                    0.024470550939440727,
                    1
                ],
                "metallicFactor" : 0
            }
        },
        {
            "doubleSided" : true,
            "name" : "trunk",
            "pbrMetallicRoughness" : {
                "baseColorFactor" : [
                    0.10247580707073212,
                    0.03456415981054306,
                    0.01603204756975174,
                    1
                ],
                "metallicFactor" : 0,
                "roughnessFactor" : 0.5
            }
        }
    ],
    "meshes" : [
        {
            "name" : "Maxis-3d3-mesh-104",
            "primitives" : [
                {
                    "attributes" : {
                        "POSITION" : 0,
                        "NORMAL" : 1,
                        "TEXCOORD_0" : 2
                    },
                    "indices" : 3,
                    "material" : 0
                }
            ]
        },
        {
            "name" : "leaves.001",
            "primitives" : [
                {
                    "attributes" : {
                        "POSITION" : 4,
                        "NORMAL" : 5,
                        "TEXCOORD_0" : 6
                    },
                    "indices" : 7,
                    "material" : 1
                }
            ]
        },
        {
            "name" : "tree.001",
            "primitives" : [
                {
                    "attributes" : {
                        "POSITION" : 8,
                        "NORMAL" : 9,
                        "TEXCOORD_0" : 10
                    },
                    "indices" : 11,
                    "material" : 2
                }
            ]
        },
        {
            "name" : "leaves",
            "primitives" : [
                {
                    "attributes" : {
                        "POSITION" : 12,
                        "NORMAL" : 13,
                        "TEXCOORD_0" : 14
                    },
                    "indices" : 15,
                    "material" : 1
                }
            ]
        },
        {
            "name" : "tree",
            "primitives" : [
                {
                    "attributes" : {
                        "POSITION" : 16,
                        "NORMAL" : 17,
                        "TEXCOORD_0" : 18
                    },
                    "indices" : 19,
                    "material" : 2
                }
            ]
        },
        {
            "name" : "leaves_2",
            "primitives" : [
                {
                    "attributes" : {
                        "POSITION" : 20,
                        "NORMAL" : 21,
                        "TEXCOORD_0" : 22
                    },
                    "indices" : 23,
                    "material" : 1
                }
            ]
        },
        {
            "name" : "tree_2",
            "primitives" : [
                {
                    "attributes" : {
                        "POSITION" : 24,
                        "NORMAL" : 25,
                        "TEXCOORD_0" : 26
                    },
                    "indices" : 27,
                    "material" : 2
                }
            ]
        }
    ],
    "textures" : [
        {
            "sampler" : 0,
            "source" : 0
        }
    ],
    "images" : [
        {
            "mimeType" : "image/png",
            "name" : "tex20-0",
            "uri" : "../../../Textures/tex20-0.png"
        }
    ],
    "accessors" : [
        {
            "bufferView" : 0,
            "componentType" : 5126,
            "count" : 22,
            "max" : [
                2.2916641235351562,
                3.75,
                0
            ],
            "min" : [
                -6.25,
                -3.7499961853027344,
                0
            ],
            "type" : "VEC3"
        },
        {
            "bufferView" : 1,
            "componentType" : 5126,
            "count" : 22,
            "type" : "VEC3"
        },
        {
            "bufferView" : 2,
            "componentType" : 5126,
            "count" : 22,
            "type" : "VEC2"
        },
        {
            "bufferView" : 3,
            "componentType" : 5123,
            "count" : 51,
            "type" : "SCALAR"
        },
        {
            "bufferView" : 4,
            "componentType" : 5126,
            "count" : 26206,
            "max" : [
                3.202277421951294,
                6.770573139190674,
                3.115561008453369
            ],
            "min" : [
                -2.915515184402466,
                0.9416625499725342,
                -3.079733371734619
            ],
            "type" : "VEC3"
        },
        {
            "bufferView" : 5,
            "componentType" : 5126,
            "count" : 26206,
            "type" : "VEC3"
        },
        {
            "bufferView" : 6,
            "componentType" : 5126,
            "count" : 26206,
            "type" : "VEC2"
        },
        {
            "bufferView" : 7,
            "componentType" : 5123,
            "count" : 26460,
            "type" : "SCALAR"
        },
        {
            "bufferView" : 8,
            "componentType" : 5126,
            "count" : 16051,
            "max" : [
                2.9330670833587646,
                6.4130120277404785,
                2.8201167583465576
            ],
            "min" : [
                -2.6031413078308105,
                0,
                -2.881103515625
            ],
            "type" : "VEC3"
        },
        {
            "bufferView" : 9,
            "componentType" : 5126,
            "count" : 16051,
            "type" : "VEC3"
        },
        {
            "bufferView" : 10,
            "componentType" : 5126,
            "count" : 16051,
            "type" : "VEC2"
        },
        {
            "bufferView" : 11,
            "componentType" : 5123,
            "count" : 76752,
            "type" : "SCALAR"
        },
        {
            "bufferView" : 12,
            "componentType" : 5126,
            "count" : 39384,
            "max" : [
                3.134033441543579,
                6.676875114440918,
                2.9830708503723145
            ],
            "min" : [
                -2.8515005111694336,
                0.599135160446167,
                -3.089542865753174
            ],
            "type" : "VEC3"
        },
        {
            "bufferView" : 13,
            "componentType" : 5126,
            "count" : 39384,
            "type" : "VEC3"
        },
        {
            "bufferView" : 14,
            "componentType" : 5126,
            "count" : 39384,
            "type" : "VEC2"
        },
        {
            "bufferView" : 15,
            "componentType" : 5123,
            "count" : 39840,
            "type" : "SCALAR"
        },
        {
            "bufferView" : 16,
            "componentType" : 5126,
            "count" : 18536,
            "max" : [
                2.9061193466186523,
                6.361456394195557,
                2.737839460372925
            ],
            "min" : [
                -2.588202476501465,
                0,
                -2.8142008781433105
            ],
            "type" : "VEC3"
        },
        {
            "bufferView" : 17,
            "componentType" : 5126,
            "count" : 18536,
            "type" : "VEC3"
        },
        {
            "bufferView" : 18,
            "componentType" : 5126,
            "count" : 18536,
            "type" : "VEC2"
        },
        {
            "bufferView" : 19,
            "componentType" : 5123,
            "count" : 88416,
            "type" : "SCALAR"
        },
        {
            "bufferView" : 20,
            "componentType" : 5126,
            "count" : 25924,
            "max" : [
                3.0916216373443604,
                7.2418599128723145,
                3.0045957565307617
            ],
            "min" : [
                -2.684424638748169,
                1.1541637182235718,
                -2.8062360286712646
            ],
            "type" : "VEC3"
        },
        {
            "bufferView" : 21,
            "componentType" : 5126,
            "count" : 25924,
            "type" : "VEC3"
        },
        {
            "bufferView" : 22,
            "componentType" : 5126,
            "count" : 25924,
            "type" : "VEC2"
        },
        {
            "bufferView" : 23,
            "componentType" : 5123,
            "count" : 26196,
            "type" : "SCALAR"
        },
        {
            "bufferView" : 24,
            "componentType" : 5126,
            "count" : 8638,
            "max" : [
                2.957681655883789,
                7.20623254776001,
                2.9220998287200928
            ],
            "min" : [
                -2.601553440093994,
                0,
                -2.7562737464904785
            ],
            "type" : "VEC3"
        },
        {
            "bufferView" : 25,
            "componentType" : 5126,
            "count" : 8638,
            "type" : "VEC3"
        },
        {
            "bufferView" : 26,
            "componentType" : 5126,
            "count" : 8638,
            "type" : "VEC2"
        },
        {
            "bufferView" : 27,
            "componentType" : 5123,
            "count" : 33696,
            "type" : "SCALAR"
        }
    ],
    "bufferViews" : [
        {
            "buffer" : 0,
            "byteLength" : 264,
            "byteOffset" : 0
        },
        {
            "buffer" : 0,
            "byteLength" : 264,
            "byteOffset" : 264
        },
        {
            "buffer" : 0,
            "byteLength" : 176,
            "byteOffset" : 528
        },
        {
            "buffer" : 0,
            "byteLength" : 102,
            "byteOffset" : 704
        },
        {
            "buffer" : 0,
            "byteLength" : 314472,
            "byteOffset" : 808
        },
        {
            "buffer" : 0,
            "byteLength" : 314472,
            "byteOffset" : 315280
        },
        {
            "buffer" : 0,
            "byteLength" : 209648,
            "byteOffset" : 629752
        },
        {
            "buffer" : 0,
            "byteLength" : 52920,
            "byteOffset" : 839400
        },
        {
            "buffer" : 0,
            "byteLength" : 192612,
            "byteOffset" : 892320
        },
        {
            "buffer" : 0,
            "byteLength" : 192612,
            "byteOffset" : 1084932
        },
        {
            "buffer" : 0,
            "byteLength" : 128408,
            "byteOffset" : 1277544
        },
        {
            "buffer" : 0,
            "byteLength" : 153504,
            "byteOffset" : 1405952
        },
        {
            "buffer" : 0,
            "byteLength" : 472608,
            "byteOffset" : 1559456
        },
        {
            "buffer" : 0,
            "byteLength" : 472608,
            "byteOffset" : 2032064
        },
        {
            "buffer" : 0,
            "byteLength" : 315072,
            "byteOffset" : 2504672
        },
        {
            "buffer" : 0,
            "byteLength" : 79680,
            "byteOffset" : 2819744
        },
        {
            "buffer" : 0,
            "byteLength" : 222432,
            "byteOffset" : 2899424
        },
        {
            "buffer" : 0,
            "byteLength" : 222432,
            "byteOffset" : 3121856
        },
        {
            "buffer" : 0,
            "byteLength" : 148288,
            "byteOffset" : 3344288
        },
        {
            "buffer" : 0,
            "byteLength" : 176832,
            "byteOffset" : 3492576
        },
        {
            "buffer" : 0,
            "byteLength" : 311088,
            "byteOffset" : 3669408
        },
        {
            "buffer" : 0,
            "byteLength" : 311088,
            "byteOffset" : 3980496
        },
        {
            "buffer" : 0,
            "byteLength" : 207392,
            "byteOffset" : 4291584
        },
        {
            "buffer" : 0,
            "byteLength" : 52392,
            "byteOffset" : 4498976
        },
        {
            "buffer" : 0,
            "byteLength" : 103656,
            "byteOffset" : 4551368
        },
        {
            "buffer" : 0,
            "byteLength" : 103656,
            "byteOffset" : 4655024
        },
        {
            "buffer" : 0,
            "byteLength" : 69104,
            "byteOffset" : 4758680
        },
        {
            "buffer" : 0,
            "byteLength" : 67392,
            "byteOffset" : 4827784
        }
    ],
    "samplers" : [
        {
            "magFilter" : 9729,
            "minFilter" : 9987
        }
    ],
    "buffers" : [
        {
            "byteLength" : 4895176,
            "uri" : "small.bin"
        }
    ]
}
