{
    "asset" : {
        "generator" : "Khronos glTF Blender I/O v1.7.33",
        "version" : "2.0"
    },
    "scene" : 0,
    "scenes" : [
        {
            "name" : "Scene",
            "nodes" : [
                0
            ]
        }
    ],
    "nodes" : [
        {
            "mesh" : 0,
            "name" : "Maxis-3d2-mesh-4-SIDE03",
            "rotation" : [
                0.7071068286895752,
                0,
                0,
                0.7071067094802856
            ]
        }
    ],
    "materials" : [
        {
            "doubleSided" : true,
            "name" : "matcolour-48.002",
            "pbrMetallicRoughness" : {
                "baseColorFactor" : [
                    0.05882352963089943,
                    0.05882352963089943,
                    0.05882352963089943,
                    1
                ],
                "metallicFactor" : 0
            }
        },
        {
            "doubleSided" : true,
            "name" : "mat2-40",
            "pbrMetallicRoughness" : {
                "baseColorTexture" : {
                    "index" : 0
                },
                "metallicFactor" : 0
            }
        },
        {
            "doubleSided" : true,
            "name" : "mat2-43",
            "pbrMetallicRoughness" : {
                "baseColorTexture" : {
                    "index" : 1
                },
                "metallicFactor" : 0
            }
        },
        {
            "doubleSided" : true,
            "name" : "mat2-41",
            "pbrMetallicRoughness" : {
                "baseColorTexture" : {
                    "index" : 2
                },
                "metallicFactor" : 0
            }
        },
        {
            "doubleSided" : true,
            "name" : "mat2-42",
            "pbrMetallicRoughness" : {
                "baseColorTexture" : {
                    "index" : 3
                },
                "metallicFactor" : 0
            }
        },
        {
            "doubleSided" : true,
            "name" : "mat40-60",
            "pbrMetallicRoughness" : {
                "baseColorTexture" : {
                    "index" : 4
                },
                "metallicFactor" : 0
            }
        },
        {
            "doubleSided" : true,
            "name" : "mat40-39",
            "pbrMetallicRoughness" : {
                "baseColorTexture" : {
                    "index" : 5
                },
                "metallicFactor" : 0
            }
        },
        {
            "doubleSided" : true,
            "name" : "mat40-36",
            "pbrMetallicRoughness" : {
                "baseColorTexture" : {
                    "index" : 6
                },
                "metallicFactor" : 0
            }
        },
        {
            "doubleSided" : true,
            "name" : "mat40-38",
            "pbrMetallicRoughness" : {
                "baseColorTexture" : {
                    "index" : 7
                },
                "metallicFactor" : 0
            }
        },
        {
            "doubleSided" : true,
            "name" : "mat40-37",
            "pbrMetallicRoughness" : {
                "baseColorTexture" : {
                    "index" : 8
                },
                "metallicFactor" : 0
            }
        }
    ],
    "meshes" : [
        {
            "name" : "Maxis-3d2-mesh-4-SIDE03",
            "primitives" : [
                {
                    "attributes" : {
                        "POSITION" : 0,
                        "NORMAL" : 1,
                        "TEXCOORD_0" : 2
                    },
                    "indices" : 3,
                    "material" : 0
                },
                {
                    "attributes" : {
                        "POSITION" : 4,
                        "NORMAL" : 5,
                        "TEXCOORD_0" : 6
                    },
                    "indices" : 7,
                    "material" : 1
                },
                {
                    "attributes" : {
                        "POSITION" : 8,
                        "NORMAL" : 9,
                        "TEXCOORD_0" : 10
                    },
                    "indices" : 11,
                    "material" : 2
                },
                {
                    "attributes" : {
                        "POSITION" : 12,
                        "NORMAL" : 13,
                        "TEXCOORD_0" : 14
                    },
                    "indices" : 15,
                    "material" : 3
                },
                {
                    "attributes" : {
                        "POSITION" : 16,
                        "NORMAL" : 17,
                        "TEXCOORD_0" : 18
                    },
                    "indices" : 19,
                    "material" : 4
                },
                {
                    "attributes" : {
                        "POSITION" : 20,
                        "NORMAL" : 21,
                        "TEXCOORD_0" : 22
                    },
                    "indices" : 23,
                    "material" : 5
                },
                {
                    "attributes" : {
                        "POSITION" : 24,
                        "NORMAL" : 25,
                        "TEXCOORD_0" : 26
                    },
                    "indices" : 27,
                    "material" : 6
                },
                {
                    "attributes" : {
                        "POSITION" : 28,
                        "NORMAL" : 29,
                        "TEXCOORD_0" : 30
                    },
                    "indices" : 31,
                    "material" : 7
                },
                {
                    "attributes" : {
                        "POSITION" : 32,
                        "NORMAL" : 33,
                        "TEXCOORD_0" : 34
                    },
                    "indices" : 35,
                    "material" : 8
                },
                {
                    "attributes" : {
                        "POSITION" : 36,
                        "NORMAL" : 37,
                        "TEXCOORD_0" : 38
                    },
                    "indices" : 39,
                    "material" : 9
                }
            ]
        }
    ],
    "textures" : [
        {
            "sampler" : 0,
            "source" : 0
        },
        {
            "sampler" : 0,
            "source" : 1
        },
        {
            "sampler" : 0,
            "source" : 2
        },
        {
            "sampler" : 0,
            "source" : 3
        },
        {
            "sampler" : 0,
            "source" : 4
        },
        {
            "sampler" : 0,
            "source" : 5
        },
        {
            "sampler" : 0,
            "source" : 6
        },
        {
            "sampler" : 0,
            "source" : 7
        },
        {
            "sampler" : 0,
            "source" : 8
        }
    ],
    "images" : [
        {
            "mimeType" : "image/png",
            "name" : "tex2-40",
            "uri" : "../../../Textures/tex2-40.png"
        },
        {
            "mimeType" : "image/png",
            "name" : "tex2-43",
            "uri" : "../../../Textures/tex2-43.png"
        },
        {
            "mimeType" : "image/png",
            "name" : "tex2-41",
            "uri" : "../../../Textures/tex2-41.png"
        },
        {
            "mimeType" : "image/png",
            "name" : "tex2-42",
            "uri" : "../../../Textures/tex2-42.png"
        },
        {
            "mimeType" : "image/png",
            "name" : "tex40-60",
            "uri" : "../../../Textures/tex40-60.png"
        },
        {
            "mimeType" : "image/png",
            "name" : "tex40-39",
            "uri" : "../../../Textures/tex40-39.png"
        },
        {
            "mimeType" : "image/png",
            "name" : "tex40-36",
            "uri" : "../../../Textures/tex40-36.png"
        },
        {
            "mimeType" : "image/png",
            "name" : "tex40-38",
            "uri" : "../../../Textures/tex40-38.png"
        },
        {
            "mimeType" : "image/png",
            "name" : "tex40-37",
            "uri" : "../../../Textures/tex40-37.png"
        }
    ],
    "accessors" : [
        {
            "bufferView" : 0,
            "componentType" : 5126,
            "count" : 160,
            "max" : [
                12.832073211669922,
                13.143932342529297,
                0.03391265869140625
            ],
            "min" : [
                -14.003711700439453,
                -14.735916137695312,
                -11.759025573730469
            ],
            "type" : "VEC3"
        },
        {
            "bufferView" : 1,
            "componentType" : 5126,
            "count" : 160,
            "type" : "VEC3"
        },
        {
            "bufferView" : 2,
            "componentType" : 5126,
            "count" : 160,
            "type" : "VEC2"
        },
        {
            "bufferView" : 3,
            "componentType" : 5123,
            "count" : 168,
            "type" : "SCALAR"
        },
        {
            "bufferView" : 4,
            "componentType" : 5126,
            "count" : 6,
            "max" : [
                2.214885711669922,
                -8.8365478515625,
                0
            ],
            "min" : [
                -8.597503662109375,
                -8.836555480957031,
                -8.015605926513672
            ],
            "type" : "VEC3"
        },
        {
            "bufferView" : 5,
            "componentType" : 5126,
            "count" : 6,
            "type" : "VEC3"
        },
        {
            "bufferView" : 6,
            "componentType" : 5126,
            "count" : 6,
            "type" : "VEC2"
        },
        {
            "bufferView" : 7,
            "componentType" : 5123,
            "count" : 6,
            "type" : "SCALAR"
        },
        {
            "bufferView" : 8,
            "componentType" : 5126,
            "count" : 6,
            "max" : [
                2.2148666381835938,
                9.891075134277344,
                -3.814697265625e-06
            ],
            "min" : [
                -8.597522735595703,
                9.891056060791016,
                -8.015609741210938
            ],
            "type" : "VEC3"
        },
        {
            "bufferView" : 9,
            "componentType" : 5126,
            "count" : 6,
            "type" : "VEC3"
        },
        {
            "bufferView" : 10,
            "componentType" : 5126,
            "count" : 6,
            "type" : "VEC2"
        },
        {
            "bufferView" : 11,
            "componentType" : 5123,
            "count" : 6,
            "type" : "SCALAR"
        },
        {
            "bufferView" : 12,
            "componentType" : 5126,
            "count" : 12,
            "max" : [
                7.6210784912109375,
                0.5272598266601562,
                0
            ],
            "min" : [
                -14.003711700439453,
                -8.836555480957031,
                -8.015605926513672
            ],
            "type" : "VEC3"
        },
        {
            "bufferView" : 13,
            "componentType" : 5126,
            "count" : 12,
            "type" : "VEC3"
        },
        {
            "bufferView" : 14,
            "componentType" : 5126,
            "count" : 12,
            "type" : "VEC2"
        },
        {
            "bufferView" : 15,
            "componentType" : 5123,
            "count" : 12,
            "type" : "SCALAR"
        },
        {
            "bufferView" : 16,
            "componentType" : 5126,
            "count" : 12,
            "max" : [
                7.6210784912109375,
                9.891075134277344,
                0
            ],
            "min" : [
                -14.003711700439453,
                0.5272407531738281,
                -8.015609741210938
            ],
            "type" : "VEC3"
        },
        {
            "bufferView" : 17,
            "componentType" : 5126,
            "count" : 12,
            "type" : "VEC3"
        },
        {
            "bufferView" : 18,
            "componentType" : 5126,
            "count" : 12,
            "type" : "VEC2"
        },
        {
            "bufferView" : 19,
            "componentType" : 5123,
            "count" : 12,
            "type" : "SCALAR"
        },
        {
            "bufferView" : 20,
            "componentType" : 5126,
            "count" : 10,
            "max" : [
                -0.3843345642089844,
                -10.724678039550781,
                -6.791576385498047
            ],
            "min" : [
                -7.655170440673828,
                -12.025558471679688,
                -7.715202331542969
            ],
            "type" : "VEC3"
        },
        {
            "bufferView" : 21,
            "componentType" : 5126,
            "count" : 10,
            "type" : "VEC3"
        },
        {
            "bufferView" : 22,
            "componentType" : 5126,
            "count" : 10,
            "type" : "VEC2"
        },
        {
            "bufferView" : 23,
            "componentType" : 5123,
            "count" : 12,
            "type" : "SCALAR"
        },
        {
            "bufferView" : 24,
            "componentType" : 5126,
            "count" : 12,
            "max" : [
                -0.3843345642089844,
                -10.724674224853516,
                0.0517578125
            ],
            "min" : [
                -7.655170440673828,
                -10.80179214477539,
                -7.715202331542969
            ],
            "type" : "VEC3"
        },
        {
            "bufferView" : 25,
            "componentType" : 5126,
            "count" : 12,
            "type" : "VEC3"
        },
        {
            "bufferView" : 26,
            "componentType" : 5126,
            "count" : 12,
            "type" : "VEC2"
        },
        {
            "bufferView" : 27,
            "componentType" : 5123,
            "count" : 12,
            "type" : "SCALAR"
        },
        {
            "bufferView" : 28,
            "componentType" : 5126,
            "count" : 12,
            "max" : [
                -0.3843345642089844,
                -11.948440551757812,
                0.0517578125
            ],
            "min" : [
                -7.655170440673828,
                -12.025558471679688,
                -7.715202331542969
            ],
            "type" : "VEC3"
        },
        {
            "bufferView" : 29,
            "componentType" : 5126,
            "count" : 12,
            "type" : "VEC3"
        },
        {
            "bufferView" : 30,
            "componentType" : 5126,
            "count" : 12,
            "type" : "VEC2"
        },
        {
            "bufferView" : 31,
            "componentType" : 5123,
            "count" : 12,
            "type" : "SCALAR"
        },
        {
            "bufferView" : 32,
            "componentType" : 5126,
            "count" : 12,
            "max" : [
                -0.3843345642089844,
                -10.724674224853516,
                0.0517578125
            ],
            "min" : [
                -6.699626922607422,
                -12.025558471679688,
                -7.715202331542969
            ],
            "type" : "VEC3"
        },
        {
            "bufferView" : 33,
            "componentType" : 5126,
            "count" : 12,
            "type" : "VEC3"
        },
        {
            "bufferView" : 34,
            "componentType" : 5126,
            "count" : 12,
            "type" : "VEC2"
        },
        {
            "bufferView" : 35,
            "componentType" : 5123,
            "count" : 12,
            "type" : "SCALAR"
        },
        {
            "bufferView" : 36,
            "componentType" : 5126,
            "count" : 12,
            "max" : [
                -2.7149429321289062,
                -10.724674224853516,
                0.0517578125
            ],
            "min" : [
                -7.655170440673828,
                -12.025558471679688,
                -7.715202331542969
            ],
            "type" : "VEC3"
        },
        {
            "bufferView" : 37,
            "componentType" : 5126,
            "count" : 12,
            "type" : "VEC3"
        },
        {
            "bufferView" : 38,
            "componentType" : 5126,
            "count" : 12,
            "type" : "VEC2"
        },
        {
            "bufferView" : 39,
            "componentType" : 5123,
            "count" : 12,
            "type" : "SCALAR"
        }
    ],
    "bufferViews" : [
        {
            "buffer" : 0,
            "byteLength" : 1920,
            "byteOffset" : 0
        },
        {
            "buffer" : 0,
            "byteLength" : 1920,
            "byteOffset" : 1920
        },
        {
            "buffer" : 0,
            "byteLength" : 1280,
            "byteOffset" : 3840
        },
        {
            "buffer" : 0,
            "byteLength" : 336,
            "byteOffset" : 5120
        },
        {
            "buffer" : 0,
            "byteLength" : 72,
            "byteOffset" : 5456
        },
        {
            "buffer" : 0,
            "byteLength" : 72,
            "byteOffset" : 5528
        },
        {
            "buffer" : 0,
            "byteLength" : 48,
            "byteOffset" : 5600
        },
        {
            "buffer" : 0,
            "byteLength" : 12,
            "byteOffset" : 5648
        },
        {
            "buffer" : 0,
            "byteLength" : 72,
            "byteOffset" : 5660
        },
        {
            "buffer" : 0,
            "byteLength" : 72,
            "byteOffset" : 5732
        },
        {
            "buffer" : 0,
            "byteLength" : 48,
            "byteOffset" : 5804
        },
        {
            "buffer" : 0,
            "byteLength" : 12,
            "byteOffset" : 5852
        },
        {
            "buffer" : 0,
            "byteLength" : 144,
            "byteOffset" : 5864
        },
        {
            "buffer" : 0,
            "byteLength" : 144,
            "byteOffset" : 6008
        },
        {
            "buffer" : 0,
            "byteLength" : 96,
            "byteOffset" : 6152
        },
        {
            "buffer" : 0,
            "byteLength" : 24,
            "byteOffset" : 6248
        },
        {
            "buffer" : 0,
            "byteLength" : 144,
            "byteOffset" : 6272
        },
        {
            "buffer" : 0,
            "byteLength" : 144,
            "byteOffset" : 6416
        },
        {
            "buffer" : 0,
            "byteLength" : 96,
            "byteOffset" : 6560
        },
        {
            "buffer" : 0,
            "byteLength" : 24,
            "byteOffset" : 6656
        },
        {
            "buffer" : 0,
            "byteLength" : 120,
            "byteOffset" : 6680
        },
        {
            "buffer" : 0,
            "byteLength" : 120,
            "byteOffset" : 6800
        },
        {
            "buffer" : 0,
            "byteLength" : 80,
            "byteOffset" : 6920
        },
        {
            "buffer" : 0,
            "byteLength" : 24,
            "byteOffset" : 7000
        },
        {
            "buffer" : 0,
            "byteLength" : 144,
            "byteOffset" : 7024
        },
        {
            "buffer" : 0,
            "byteLength" : 144,
            "byteOffset" : 7168
        },
        {
            "buffer" : 0,
            "byteLength" : 96,
            "byteOffset" : 7312
        },
        {
            "buffer" : 0,
            "byteLength" : 24,
            "byteOffset" : 7408
        },
        {
            "buffer" : 0,
            "byteLength" : 144,
            "byteOffset" : 7432
        },
        {
            "buffer" : 0,
            "byteLength" : 144,
            "byteOffset" : 7576
        },
        {
            "buffer" : 0,
            "byteLength" : 96,
            "byteOffset" : 7720
        },
        {
            "buffer" : 0,
            "byteLength" : 24,
            "byteOffset" : 7816
        },
        {
            "buffer" : 0,
            "byteLength" : 144,
            "byteOffset" : 7840
        },
        {
            "buffer" : 0,
            "byteLength" : 144,
            "byteOffset" : 7984
        },
        {
            "buffer" : 0,
            "byteLength" : 96,
            "byteOffset" : 8128
        },
        {
            "buffer" : 0,
            "byteLength" : 24,
            "byteOffset" : 8224
        },
        {
            "buffer" : 0,
            "byteLength" : 144,
            "byteOffset" : 8248
        },
        {
            "buffer" : 0,
            "byteLength" : 144,
            "byteOffset" : 8392
        },
        {
            "buffer" : 0,
            "byteLength" : 96,
            "byteOffset" : 8536
        },
        {
            "buffer" : 0,
            "byteLength" : 24,
            "byteOffset" : 8632
        }
    ],
    "samplers" : [
        {
            "magFilter" : 9729,
            "minFilter" : 9987
        }
    ],
    "buffers" : [
        {
            "byteLength" : 8656,
            "uri" : "processing_2.bin"
        }
    ]
}
