{
    "asset" : {
        "generator" : "Khronos glTF Blender I/O v1.7.33",
        "version" : "2.0"
    },
    "scene" : 0,
    "scenes" : [
        {
            "name" : "Scene",
            "nodes" : [
                0
            ]
        }
    ],
    "nodes" : [
        {
            "mesh" : 0,
            "name" : "Maxis-3d3-mesh-2",
            "rotation" : [
                0.7071068286895752,
                0,
                0,
                0.7071067094802856
            ]
        }
    ],
    "materials" : [
        {
            "doubleSided" : true,
            "name" : "matcolour-48.001",
            "pbrMetallicRoughness" : {
                "baseColorFactor" : [
                    0.05882352963089943,
                    0.05882352963089943,
                    0.05882352963089943,
                    1
                ],
                "metallicFactor" : 0
            }
        },
        {
            "doubleSided" : true,
            "name" : "matcolour-128",
            "pbrMetallicRoughness" : {
                "baseColorFactor" : [
                    0.12156862765550613,
                    0.08235294371843338,
                    0.062745101749897,
                    1
                ],
                "metallicFactor" : 0
            }
        },
        {
            "doubleSided" : true,
            "name" : "mat40-43",
            "pbrMetallicRoughness" : {
                "baseColorTexture" : {
                    "index" : 0
                },
                "metallicFactor" : 0
            }
        },
        {
            "doubleSided" : true,
            "name" : "mat40-40",
            "pbrMetallicRoughness" : {
                "baseColorTexture" : {
                    "index" : 1
                },
                "metallicFactor" : 0
            }
        },
        {
            "doubleSided" : true,
            "name" : "mat40-42",
            "pbrMetallicRoughness" : {
                "baseColorTexture" : {
                    "index" : 2
                },
                "metallicFactor" : 0
            }
        },
        {
            "doubleSided" : true,
            "name" : "mat40-41",
            "pbrMetallicRoughness" : {
                "baseColorTexture" : {
                    "index" : 3
                },
                "metallicFactor" : 0
            }
        },
        {
            "doubleSided" : true,
            "name" : "mat40-55",
            "pbrMetallicRoughness" : {
                "baseColorTexture" : {
                    "index" : 4
                },
                "metallicFactor" : 0
            }
        },
        {
            "doubleSided" : true,
            "name" : "mat40-52",
            "pbrMetallicRoughness" : {
                "baseColorTexture" : {
                    "index" : 5
                },
                "metallicFactor" : 0
            }
        },
        {
            "doubleSided" : true,
            "name" : "mat40-53",
            "pbrMetallicRoughness" : {
                "baseColorTexture" : {
                    "index" : 6
                },
                "metallicFactor" : 0
            }
        },
        {
            "doubleSided" : true,
            "name" : "mat40-54",
            "pbrMetallicRoughness" : {
                "baseColorTexture" : {
                    "index" : 7
                },
                "metallicFactor" : 0
            }
        }
    ],
    "meshes" : [
        {
            "name" : "Maxis-3d3-mesh-2",
            "primitives" : [
                {
                    "attributes" : {
                        "POSITION" : 0,
                        "NORMAL" : 1,
                        "TEXCOORD_0" : 2
                    },
                    "indices" : 3,
                    "material" : 0
                },
                {
                    "attributes" : {
                        "POSITION" : 4,
                        "NORMAL" : 5,
                        "TEXCOORD_0" : 6
                    },
                    "indices" : 7,
                    "material" : 1
                },
                {
                    "attributes" : {
                        "POSITION" : 8,
                        "NORMAL" : 9,
                        "TEXCOORD_0" : 10
                    },
                    "indices" : 11,
                    "material" : 2
                },
                {
                    "attributes" : {
                        "POSITION" : 12,
                        "NORMAL" : 13,
                        "TEXCOORD_0" : 14
                    },
                    "indices" : 15,
                    "material" : 3
                },
                {
                    "attributes" : {
                        "POSITION" : 16,
                        "NORMAL" : 17,
                        "TEXCOORD_0" : 18
                    },
                    "indices" : 19,
                    "material" : 4
                },
                {
                    "attributes" : {
                        "POSITION" : 20,
                        "NORMAL" : 21,
                        "TEXCOORD_0" : 22
                    },
                    "indices" : 23,
                    "material" : 5
                },
                {
                    "attributes" : {
                        "POSITION" : 24,
                        "NORMAL" : 25,
                        "TEXCOORD_0" : 26
                    },
                    "indices" : 27,
                    "material" : 6
                },
                {
                    "attributes" : {
                        "POSITION" : 28,
                        "NORMAL" : 29,
                        "TEXCOORD_0" : 30
                    },
                    "indices" : 31,
                    "material" : 7
                },
                {
                    "attributes" : {
                        "POSITION" : 32,
                        "NORMAL" : 33,
                        "TEXCOORD_0" : 34
                    },
                    "indices" : 35,
                    "material" : 8
                },
                {
                    "attributes" : {
                        "POSITION" : 36,
                        "NORMAL" : 37,
                        "TEXCOORD_0" : 38
                    },
                    "indices" : 39,
                    "material" : 9
                }
            ]
        }
    ],
    "textures" : [
        {
            "sampler" : 0,
            "source" : 0
        },
        {
            "sampler" : 0,
            "source" : 1
        },
        {
            "sampler" : 0,
            "source" : 2
        },
        {
            "sampler" : 0,
            "source" : 3
        },
        {
            "sampler" : 0,
            "source" : 4
        },
        {
            "sampler" : 0,
            "source" : 5
        },
        {
            "sampler" : 0,
            "source" : 6
        },
        {
            "sampler" : 0,
            "source" : 7
        }
    ],
    "images" : [
        {
            "mimeType" : "image/png",
            "name" : "tex40-43",
            "uri" : "../../../Textures/tex40-43.png"
        },
        {
            "mimeType" : "image/png",
            "name" : "tex40-40",
            "uri" : "../../../Textures/tex40-40.png"
        },
        {
            "mimeType" : "image/png",
            "name" : "tex40-42",
            "uri" : "../../../Textures/tex40-42.png"
        },
        {
            "mimeType" : "image/png",
            "name" : "tex40-41",
            "uri" : "../../../Textures/tex40-41.png"
        },
        {
            "mimeType" : "image/png",
            "name" : "tex40-55",
            "uri" : "../../../Textures/tex40-55.png"
        },
        {
            "mimeType" : "image/png",
            "name" : "tex40-52",
            "uri" : "../../../Textures/tex40-52.png"
        },
        {
            "mimeType" : "image/png",
            "name" : "tex40-53",
            "uri" : "../../../Textures/tex40-53.png"
        },
        {
            "mimeType" : "image/png",
            "name" : "tex40-54",
            "uri" : "../../../Textures/tex40-54.png"
        }
    ],
    "accessors" : [
        {
            "bufferView" : 0,
            "componentType" : 5126,
            "count" : 90,
            "max" : [
                23.682498931884766,
                23.861251831054688,
                -3.8309364318847656
            ],
            "min" : [
                -23.54761505126953,
                -23.54761505126953,
                -22.33722686767578
            ],
            "type" : "VEC3"
        },
        {
            "bufferView" : 1,
            "componentType" : 5126,
            "count" : 90,
            "type" : "VEC3"
        },
        {
            "bufferView" : 2,
            "componentType" : 5126,
            "count" : 90,
            "type" : "VEC2"
        },
        {
            "bufferView" : 3,
            "componentType" : 5123,
            "count" : 102,
            "type" : "SCALAR"
        },
        {
            "bufferView" : 4,
            "componentType" : 5126,
            "count" : 18,
            "max" : [
                19.549999237060547,
                23.861255645751953,
                -6.591419219970703
            ],
            "min" : [
                -23.1875,
                -0.9861984252929688,
                -13.775009155273438
            ],
            "type" : "VEC3"
        },
        {
            "bufferView" : 5,
            "componentType" : 5126,
            "count" : 18,
            "type" : "VEC3"
        },
        {
            "bufferView" : 6,
            "componentType" : 5126,
            "count" : 18,
            "type" : "VEC2"
        },
        {
            "bufferView" : 7,
            "componentType" : 5123,
            "count" : 18,
            "type" : "SCALAR"
        },
        {
            "bufferView" : 8,
            "componentType" : 5126,
            "count" : 28,
            "max" : [
                23.682498931884766,
                23.86125946044922,
                0
            ],
            "min" : [
                -23.54761505126953,
                -2.6163978576660156,
                -14.55185317993164
            ],
            "type" : "VEC3"
        },
        {
            "bufferView" : 9,
            "componentType" : 5126,
            "count" : 28,
            "type" : "VEC3"
        },
        {
            "bufferView" : 10,
            "componentType" : 5126,
            "count" : 28,
            "type" : "VEC2"
        },
        {
            "bufferView" : 11,
            "componentType" : 5123,
            "count" : 30,
            "type" : "SCALAR"
        },
        {
            "bufferView" : 12,
            "componentType" : 5126,
            "count" : 30,
            "max" : [
                23.682498931884766,
                -0.9337425231933594,
                7.62939453125e-06
            ],
            "min" : [
                -23.54761505126953,
                -23.54761505126953,
                -14.551849365234375
            ],
            "type" : "VEC3"
        },
        {
            "bufferView" : 13,
            "componentType" : 5126,
            "count" : 30,
            "type" : "VEC3"
        },
        {
            "bufferView" : 14,
            "componentType" : 5126,
            "count" : 30,
            "type" : "VEC2"
        },
        {
            "bufferView" : 15,
            "componentType" : 5123,
            "count" : 30,
            "type" : "SCALAR"
        },
        {
            "bufferView" : 16,
            "componentType" : 5126,
            "count" : 28,
            "max" : [
                23.682498931884766,
                23.86125946044922,
                7.62939453125e-06
            ],
            "min" : [
                -3.924602508544922,
                -23.54761505126953,
                -14.55185317993164
            ],
            "type" : "VEC3"
        },
        {
            "bufferView" : 17,
            "componentType" : 5126,
            "count" : 28,
            "type" : "VEC3"
        },
        {
            "bufferView" : 18,
            "componentType" : 5126,
            "count" : 28,
            "type" : "VEC2"
        },
        {
            "bufferView" : 19,
            "componentType" : 5123,
            "count" : 30,
            "type" : "SCALAR"
        },
        {
            "bufferView" : 20,
            "componentType" : 5126,
            "count" : 16,
            "max" : [
                -1.8937721252441406,
                23.861251831054688,
                7.62939453125e-06
            ],
            "min" : [
                -23.54761505126953,
                -23.54761505126953,
                -14.55185317993164
            ],
            "type" : "VEC3"
        },
        {
            "bufferView" : 21,
            "componentType" : 5126,
            "count" : 16,
            "type" : "VEC3"
        },
        {
            "bufferView" : 22,
            "componentType" : 5126,
            "count" : 16,
            "type" : "VEC2"
        },
        {
            "bufferView" : 23,
            "componentType" : 5123,
            "count" : 18,
            "type" : "SCALAR"
        },
        {
            "bufferView" : 24,
            "componentType" : 5126,
            "count" : 24,
            "max" : [
                19.549999237060547,
                23.861255645751953,
                -3.830944061279297
            ],
            "min" : [
                -20.695842742919922,
                -11.748466491699219,
                -22.33722686767578
            ],
            "type" : "VEC3"
        },
        {
            "bufferView" : 25,
            "componentType" : 5126,
            "count" : 24,
            "type" : "VEC3"
        },
        {
            "bufferView" : 26,
            "componentType" : 5126,
            "count" : 24,
            "type" : "VEC2"
        },
        {
            "bufferView" : 27,
            "componentType" : 5123,
            "count" : 24,
            "type" : "SCALAR"
        },
        {
            "bufferView" : 28,
            "componentType" : 5126,
            "count" : 22,
            "max" : [
                19.549999237060547,
                -0.933746337890625,
                -3.830944061279297
            ],
            "min" : [
                -20.695842742919922,
                -13.721431732177734,
                -22.33722686767578
            ],
            "type" : "VEC3"
        },
        {
            "bufferView" : 29,
            "componentType" : 5126,
            "count" : 22,
            "type" : "VEC3"
        },
        {
            "bufferView" : 30,
            "componentType" : 5126,
            "count" : 22,
            "type" : "VEC2"
        },
        {
            "bufferView" : 31,
            "componentType" : 5123,
            "count" : 24,
            "type" : "SCALAR"
        },
        {
            "bufferView" : 32,
            "componentType" : 5126,
            "count" : 27,
            "max" : [
                -9.558914184570312,
                23.640342712402344,
                0
            ],
            "min" : [
                -23.187503814697266,
                -13.721431732177734,
                -22.33722686767578
            ],
            "type" : "VEC3"
        },
        {
            "bufferView" : 33,
            "componentType" : 5126,
            "count" : 27,
            "type" : "VEC3"
        },
        {
            "bufferView" : 34,
            "componentType" : 5126,
            "count" : 27,
            "type" : "VEC2"
        },
        {
            "bufferView" : 35,
            "componentType" : 5123,
            "count" : 27,
            "type" : "SCALAR"
        },
        {
            "bufferView" : 36,
            "componentType" : 5126,
            "count" : 27,
            "max" : [
                -4.999996185302734,
                23.640342712402344,
                0
            ],
            "min" : [
                -18.36414337158203,
                -13.721431732177734,
                -22.33722686767578
            ],
            "type" : "VEC3"
        },
        {
            "bufferView" : 37,
            "componentType" : 5126,
            "count" : 27,
            "type" : "VEC3"
        },
        {
            "bufferView" : 38,
            "componentType" : 5126,
            "count" : 27,
            "type" : "VEC2"
        },
        {
            "bufferView" : 39,
            "componentType" : 5123,
            "count" : 27,
            "type" : "SCALAR"
        }
    ],
    "bufferViews" : [
        {
            "buffer" : 0,
            "byteLength" : 1080,
            "byteOffset" : 0
        },
        {
            "buffer" : 0,
            "byteLength" : 1080,
            "byteOffset" : 1080
        },
        {
            "buffer" : 0,
            "byteLength" : 720,
            "byteOffset" : 2160
        },
        {
            "buffer" : 0,
            "byteLength" : 204,
            "byteOffset" : 2880
        },
        {
            "buffer" : 0,
            "byteLength" : 216,
            "byteOffset" : 3084
        },
        {
            "buffer" : 0,
            "byteLength" : 216,
            "byteOffset" : 3300
        },
        {
            "buffer" : 0,
            "byteLength" : 144,
            "byteOffset" : 3516
        },
        {
            "buffer" : 0,
            "byteLength" : 36,
            "byteOffset" : 3660
        },
        {
            "buffer" : 0,
            "byteLength" : 336,
            "byteOffset" : 3696
        },
        {
            "buffer" : 0,
            "byteLength" : 336,
            "byteOffset" : 4032
        },
        {
            "buffer" : 0,
            "byteLength" : 224,
            "byteOffset" : 4368
        },
        {
            "buffer" : 0,
            "byteLength" : 60,
            "byteOffset" : 4592
        },
        {
            "buffer" : 0,
            "byteLength" : 360,
            "byteOffset" : 4652
        },
        {
            "buffer" : 0,
            "byteLength" : 360,
            "byteOffset" : 5012
        },
        {
            "buffer" : 0,
            "byteLength" : 240,
            "byteOffset" : 5372
        },
        {
            "buffer" : 0,
            "byteLength" : 60,
            "byteOffset" : 5612
        },
        {
            "buffer" : 0,
            "byteLength" : 336,
            "byteOffset" : 5672
        },
        {
            "buffer" : 0,
            "byteLength" : 336,
            "byteOffset" : 6008
        },
        {
            "buffer" : 0,
            "byteLength" : 224,
            "byteOffset" : 6344
        },
        {
            "buffer" : 0,
            "byteLength" : 60,
            "byteOffset" : 6568
        },
        {
            "buffer" : 0,
            "byteLength" : 192,
            "byteOffset" : 6628
        },
        {
            "buffer" : 0,
            "byteLength" : 192,
            "byteOffset" : 6820
        },
        {
            "buffer" : 0,
            "byteLength" : 128,
            "byteOffset" : 7012
        },
        {
            "buffer" : 0,
            "byteLength" : 36,
            "byteOffset" : 7140
        },
        {
            "buffer" : 0,
            "byteLength" : 288,
            "byteOffset" : 7176
        },
        {
            "buffer" : 0,
            "byteLength" : 288,
            "byteOffset" : 7464
        },
        {
            "buffer" : 0,
            "byteLength" : 192,
            "byteOffset" : 7752
        },
        {
            "buffer" : 0,
            "byteLength" : 48,
            "byteOffset" : 7944
        },
        {
            "buffer" : 0,
            "byteLength" : 264,
            "byteOffset" : 7992
        },
        {
            "buffer" : 0,
            "byteLength" : 264,
            "byteOffset" : 8256
        },
        {
            "buffer" : 0,
            "byteLength" : 176,
            "byteOffset" : 8520
        },
        {
            "buffer" : 0,
            "byteLength" : 48,
            "byteOffset" : 8696
        },
        {
            "buffer" : 0,
            "byteLength" : 324,
            "byteOffset" : 8744
        },
        {
            "buffer" : 0,
            "byteLength" : 324,
            "byteOffset" : 9068
        },
        {
            "buffer" : 0,
            "byteLength" : 216,
            "byteOffset" : 9392
        },
        {
            "buffer" : 0,
            "byteLength" : 54,
            "byteOffset" : 9608
        },
        {
            "buffer" : 0,
            "byteLength" : 324,
            "byteOffset" : 9664
        },
        {
            "buffer" : 0,
            "byteLength" : 324,
            "byteOffset" : 9988
        },
        {
            "buffer" : 0,
            "byteLength" : 216,
            "byteOffset" : 10312
        },
        {
            "buffer" : 0,
            "byteLength" : 54,
            "byteOffset" : 10528
        }
    ],
    "samplers" : [
        {
            "magFilter" : 9729,
            "minFilter" : 9987
        }
    ],
    "buffers" : [
        {
            "byteLength" : 10584,
            "uri" : "processing_1.bin"
        }
    ]
}
