{
    "asset" : {
        "generator" : "Khronos glTF Blender I/O v1.7.33",
        "version" : "2.0"
    },
    "scene" : 0,
    "scenes" : [
        {
            "name" : "Scene",
            "nodes" : [
                0
            ]
        }
    ],
    "nodes" : [
        {
            "mesh" : 0,
            "name" : "Maxis-3d3-mesh-28",
            "rotation" : [
                0.7071068286895752,
                0,
                0,
                0.7071067094802856
            ]
        }
    ],
    "materials" : [
        {
            "doubleSided" : true,
            "name" : "matcolour-48",
            "pbrMetallicRoughness" : {
                "baseColorFactor" : [
                    0.05882352963089943,
                    0.05882352963089943,
                    0.05882352963089943,
                    1
                ],
                "metallicFactor" : 0
            }
        },
        {
            "doubleSided" : true,
            "name" : "mat39-0",
            "pbrMetallicRoughness" : {
                "baseColorTexture" : {
                    "index" : 0
                },
                "metallicFactor" : 0
            }
        },
        {
            "doubleSided" : true,
            "name" : "mat39-3",
            "pbrMetallicRoughness" : {
                "baseColorTexture" : {
                    "index" : 1
                },
                "metallicFactor" : 0
            }
        },
        {
            "doubleSided" : true,
            "name" : "mat39-1",
            "pbrMetallicRoughness" : {
                "baseColorTexture" : {
                    "index" : 2
                },
                "metallicFactor" : 0
            }
        },
        {
            "doubleSided" : true,
            "name" : "mat39-2",
            "pbrMetallicRoughness" : {
                "baseColorTexture" : {
                    "index" : 3
                },
                "metallicFactor" : 0
            }
        },
        {
            "doubleSided" : true,
            "name" : "mat40-20",
            "pbrMetallicRoughness" : {
                "baseColorTexture" : {
                    "index" : 4
                },
                "metallicFactor" : 0
            }
        },
        {
            "doubleSided" : true,
            "name" : "mat40-23",
            "pbrMetallicRoughness" : {
                "baseColorTexture" : {
                    "index" : 5
                },
                "metallicFactor" : 0
            }
        },
        {
            "doubleSided" : true,
            "name" : "mat40-21",
            "pbrMetallicRoughness" : {
                "baseColorTexture" : {
                    "index" : 6
                },
                "metallicFactor" : 0
            }
        },
        {
            "doubleSided" : true,
            "name" : "mat40-22",
            "pbrMetallicRoughness" : {
                "baseColorTexture" : {
                    "index" : 7
                },
                "metallicFactor" : 0
            }
        }
    ],
    "meshes" : [
        {
            "name" : "Maxis-3d3-mesh-28",
            "primitives" : [
                {
                    "attributes" : {
                        "POSITION" : 0,
                        "NORMAL" : 1,
                        "TEXCOORD_0" : 2
                    },
                    "indices" : 3,
                    "material" : 0
                },
                {
                    "attributes" : {
                        "POSITION" : 4,
                        "NORMAL" : 5,
                        "TEXCOORD_0" : 6
                    },
                    "indices" : 7,
                    "material" : 1
                },
                {
                    "attributes" : {
                        "POSITION" : 8,
                        "NORMAL" : 9,
                        "TEXCOORD_0" : 10
                    },
                    "indices" : 11,
                    "material" : 2
                },
                {
                    "attributes" : {
                        "POSITION" : 12,
                        "NORMAL" : 13,
                        "TEXCOORD_0" : 14
                    },
                    "indices" : 15,
                    "material" : 3
                },
                {
                    "attributes" : {
                        "POSITION" : 16,
                        "NORMAL" : 17,
                        "TEXCOORD_0" : 18
                    },
                    "indices" : 19,
                    "material" : 4
                },
                {
                    "attributes" : {
                        "POSITION" : 20,
                        "NORMAL" : 21,
                        "TEXCOORD_0" : 22
                    },
                    "indices" : 23,
                    "material" : 5
                },
                {
                    "attributes" : {
                        "POSITION" : 24,
                        "NORMAL" : 25,
                        "TEXCOORD_0" : 26
                    },
                    "indices" : 27,
                    "material" : 6
                },
                {
                    "attributes" : {
                        "POSITION" : 28,
                        "NORMAL" : 29,
                        "TEXCOORD_0" : 30
                    },
                    "indices" : 15,
                    "material" : 7
                },
                {
                    "attributes" : {
                        "POSITION" : 31,
                        "NORMAL" : 32,
                        "TEXCOORD_0" : 33
                    },
                    "indices" : 34,
                    "material" : 8
                }
            ]
        }
    ],
    "textures" : [
        {
            "sampler" : 0,
            "source" : 0
        },
        {
            "sampler" : 0,
            "source" : 1
        },
        {
            "sampler" : 0,
            "source" : 2
        },
        {
            "sampler" : 0,
            "source" : 3
        },
        {
            "sampler" : 0,
            "source" : 4
        },
        {
            "sampler" : 0,
            "source" : 5
        },
        {
            "sampler" : 0,
            "source" : 6
        },
        {
            "sampler" : 0,
            "source" : 7
        }
    ],
    "images" : [
        {
            "mimeType" : "image/png",
            "name" : "tex39-0",
            "uri" : "../../../Textures/tex39-0.png"
        },
        {
            "mimeType" : "image/png",
            "name" : "tex39-3",
            "uri" : "../../../Textures/tex39-3.png"
        },
        {
            "mimeType" : "image/png",
            "name" : "tex39-1",
            "uri" : "../../../Textures/tex39-1.png"
        },
        {
            "mimeType" : "image/png",
            "name" : "tex39-2",
            "uri" : "../../../Textures/tex39-2.png"
        },
        {
            "mimeType" : "image/png",
            "name" : "tex40-20",
            "uri" : "../../../Textures/tex40-20.png"
        },
        {
            "mimeType" : "image/png",
            "name" : "tex40-23",
            "uri" : "../../../Textures/tex40-23.png"
        },
        {
            "mimeType" : "image/png",
            "name" : "tex40-21",
            "uri" : "../../../Textures/tex40-21.png"
        },
        {
            "mimeType" : "image/png",
            "name" : "tex40-22",
            "uri" : "../../../Textures/tex40-22.png"
        }
    ],
    "accessors" : [
        {
            "bufferView" : 0,
            "componentType" : 5126,
            "count" : 448,
            "max" : [
                5.974132537841797,
                5.994670867919922,
                -1.3613471984863281
            ],
            "min" : [
                -7.116443634033203,
                -7.923309326171875,
                -8.607227325439453
            ],
            "type" : "VEC3"
        },
        {
            "bufferView" : 1,
            "componentType" : 5126,
            "count" : 448,
            "type" : "VEC3"
        },
        {
            "bufferView" : 2,
            "componentType" : 5126,
            "count" : 448,
            "type" : "VEC2"
        },
        {
            "bufferView" : 3,
            "componentType" : 5123,
            "count" : 456,
            "type" : "SCALAR"
        },
        {
            "bufferView" : 4,
            "componentType" : 5126,
            "count" : 18,
            "max" : [
                4.721782684326172,
                -4.075527191162109,
                0
            ],
            "min" : [
                -5.86871337890625,
                -6.4576416015625,
                -1.3750419616699219
            ],
            "type" : "VEC3"
        },
        {
            "bufferView" : 5,
            "componentType" : 5126,
            "count" : 18,
            "type" : "VEC3"
        },
        {
            "bufferView" : 6,
            "componentType" : 5126,
            "count" : 18,
            "type" : "VEC2"
        },
        {
            "bufferView" : 7,
            "componentType" : 5123,
            "count" : 18,
            "type" : "SCALAR"
        },
        {
            "bufferView" : 8,
            "componentType" : 5126,
            "count" : 14,
            "max" : [
                4.726409912109375,
                5.994670867919922,
                0
            ],
            "min" : [
                -5.8640899658203125,
                3.6125526428222656,
                -1.3750457763671875
            ],
            "type" : "VEC3"
        },
        {
            "bufferView" : 9,
            "componentType" : 5126,
            "count" : 14,
            "type" : "VEC3"
        },
        {
            "bufferView" : 10,
            "componentType" : 5126,
            "count" : 14,
            "type" : "VEC2"
        },
        {
            "bufferView" : 11,
            "componentType" : 5123,
            "count" : 18,
            "type" : "SCALAR"
        },
        {
            "bufferView" : 12,
            "componentType" : 5126,
            "count" : 10,
            "max" : [
                5.974132537841797,
                -0.22755050659179688,
                0
            ],
            "min" : [
                -7.116443634033203,
                -4.081882476806641,
                -1.3750457763671875
            ],
            "type" : "VEC3"
        },
        {
            "bufferView" : 13,
            "componentType" : 5126,
            "count" : 10,
            "type" : "VEC3"
        },
        {
            "bufferView" : 14,
            "componentType" : 5126,
            "count" : 10,
            "type" : "VEC2"
        },
        {
            "bufferView" : 15,
            "componentType" : 5123,
            "count" : 12,
            "type" : "SCALAR"
        },
        {
            "bufferView" : 16,
            "componentType" : 5126,
            "count" : 12,
            "max" : [
                5.974132537841797,
                3.6189231872558594,
                0
            ],
            "min" : [
                -7.116443634033203,
                -0.23540878295898438,
                -1.3750457763671875
            ],
            "type" : "VEC3"
        },
        {
            "bufferView" : 17,
            "componentType" : 5126,
            "count" : 12,
            "type" : "VEC3"
        },
        {
            "bufferView" : 18,
            "componentType" : 5126,
            "count" : 12,
            "type" : "VEC2"
        },
        {
            "bufferView" : 19,
            "componentType" : 5123,
            "count" : 12,
            "type" : "SCALAR"
        },
        {
            "bufferView" : 20,
            "componentType" : 5126,
            "count" : 16,
            "max" : [
                4.9662322998046875,
                -7.512393951416016,
                0
            ],
            "min" : [
                3.139373779296875,
                -7.923313140869141,
                -1.3613471984863281
            ],
            "type" : "VEC3"
        },
        {
            "bufferView" : 21,
            "componentType" : 5126,
            "count" : 16,
            "type" : "VEC3"
        },
        {
            "bufferView" : 22,
            "componentType" : 5126,
            "count" : 16,
            "type" : "VEC2"
        },
        {
            "bufferView" : 23,
            "componentType" : 5123,
            "count" : 18,
            "type" : "SCALAR"
        },
        {
            "bufferView" : 24,
            "componentType" : 5126,
            "count" : 18,
            "max" : [
                4.967033386230469,
                -5.775287628173828,
                0
            ],
            "min" : [
                3.1401710510253906,
                -6.1862030029296875,
                -1.3613471984863281
            ],
            "type" : "VEC3"
        },
        {
            "bufferView" : 25,
            "componentType" : 5126,
            "count" : 18,
            "type" : "VEC3"
        },
        {
            "bufferView" : 26,
            "componentType" : 5126,
            "count" : 18,
            "type" : "VEC2"
        },
        {
            "bufferView" : 27,
            "componentType" : 5123,
            "count" : 18,
            "type" : "SCALAR"
        },
        {
            "bufferView" : 28,
            "componentType" : 5126,
            "count" : 10,
            "max" : [
                5.182262420654297,
                -6.848621368408203,
                0
            ],
            "min" : [
                2.9241409301757812,
                -7.513492584228516,
                -1.3613471984863281
            ],
            "type" : "VEC3"
        },
        {
            "bufferView" : 29,
            "componentType" : 5126,
            "count" : 10,
            "type" : "VEC3"
        },
        {
            "bufferView" : 30,
            "componentType" : 5126,
            "count" : 10,
            "type" : "VEC2"
        },
        {
            "bufferView" : 31,
            "componentType" : 5126,
            "count" : 10,
            "max" : [
                5.182262420654297,
                -6.185100555419922,
                0
            ],
            "min" : [
                2.9241409301757812,
                -6.8499755859375,
                -1.3613471984863281
            ],
            "type" : "VEC3"
        },
        {
            "bufferView" : 32,
            "componentType" : 5126,
            "count" : 10,
            "type" : "VEC3"
        },
        {
            "bufferView" : 33,
            "componentType" : 5126,
            "count" : 10,
            "type" : "VEC2"
        },
        {
            "bufferView" : 34,
            "componentType" : 5123,
            "count" : 12,
            "type" : "SCALAR"
        }
    ],
    "bufferViews" : [
        {
            "buffer" : 0,
            "byteLength" : 5376,
            "byteOffset" : 0
        },
        {
            "buffer" : 0,
            "byteLength" : 5376,
            "byteOffset" : 5376
        },
        {
            "buffer" : 0,
            "byteLength" : 3584,
            "byteOffset" : 10752
        },
        {
            "buffer" : 0,
            "byteLength" : 912,
            "byteOffset" : 14336
        },
        {
            "buffer" : 0,
            "byteLength" : 216,
            "byteOffset" : 15248
        },
        {
            "buffer" : 0,
            "byteLength" : 216,
            "byteOffset" : 15464
        },
        {
            "buffer" : 0,
            "byteLength" : 144,
            "byteOffset" : 15680
        },
        {
            "buffer" : 0,
            "byteLength" : 36,
            "byteOffset" : 15824
        },
        {
            "buffer" : 0,
            "byteLength" : 168,
            "byteOffset" : 15860
        },
        {
            "buffer" : 0,
            "byteLength" : 168,
            "byteOffset" : 16028
        },
        {
            "buffer" : 0,
            "byteLength" : 112,
            "byteOffset" : 16196
        },
        {
            "buffer" : 0,
            "byteLength" : 36,
            "byteOffset" : 16308
        },
        {
            "buffer" : 0,
            "byteLength" : 120,
            "byteOffset" : 16344
        },
        {
            "buffer" : 0,
            "byteLength" : 120,
            "byteOffset" : 16464
        },
        {
            "buffer" : 0,
            "byteLength" : 80,
            "byteOffset" : 16584
        },
        {
            "buffer" : 0,
            "byteLength" : 24,
            "byteOffset" : 16664
        },
        {
            "buffer" : 0,
            "byteLength" : 144,
            "byteOffset" : 16688
        },
        {
            "buffer" : 0,
            "byteLength" : 144,
            "byteOffset" : 16832
        },
        {
            "buffer" : 0,
            "byteLength" : 96,
            "byteOffset" : 16976
        },
        {
            "buffer" : 0,
            "byteLength" : 24,
            "byteOffset" : 17072
        },
        {
            "buffer" : 0,
            "byteLength" : 192,
            "byteOffset" : 17096
        },
        {
            "buffer" : 0,
            "byteLength" : 192,
            "byteOffset" : 17288
        },
        {
            "buffer" : 0,
            "byteLength" : 128,
            "byteOffset" : 17480
        },
        {
            "buffer" : 0,
            "byteLength" : 36,
            "byteOffset" : 17608
        },
        {
            "buffer" : 0,
            "byteLength" : 216,
            "byteOffset" : 17644
        },
        {
            "buffer" : 0,
            "byteLength" : 216,
            "byteOffset" : 17860
        },
        {
            "buffer" : 0,
            "byteLength" : 144,
            "byteOffset" : 18076
        },
        {
            "buffer" : 0,
            "byteLength" : 36,
            "byteOffset" : 18220
        },
        {
            "buffer" : 0,
            "byteLength" : 120,
            "byteOffset" : 18256
        },
        {
            "buffer" : 0,
            "byteLength" : 120,
            "byteOffset" : 18376
        },
        {
            "buffer" : 0,
            "byteLength" : 80,
            "byteOffset" : 18496
        },
        {
            "buffer" : 0,
            "byteLength" : 120,
            "byteOffset" : 18576
        },
        {
            "buffer" : 0,
            "byteLength" : 120,
            "byteOffset" : 18696
        },
        {
            "buffer" : 0,
            "byteLength" : 80,
            "byteOffset" : 18816
        },
        {
            "buffer" : 0,
            "byteLength" : 24,
            "byteOffset" : 18896
        }
    ],
    "samplers" : [
        {
            "magFilter" : 9729,
            "minFilter" : 9987
        }
    ],
    "buffers" : [
        {
            "byteLength" : 18920,
            "uri" : "storage.bin"
        }
    ]
}
