{
	"asset":{
		"generator":"Khronos glTF Blender I/O v4.3.47",
		"version":"2.0"
	},
	"scene":0,
	"scenes":[
		{
			"name":"Scene",
			"nodes":[
				0,
				1
			]
		}
	],
	"nodes":[
		{
			"mesh":0,
			"name":"Maxis-3d1-mesh-40",
			"rotation":[
				0.70710688829422,
				0,
				0,
				0.7071066498756409
			]
		},
		{
			"extras":{
				"gd_node":"Decal",
				"lower_fade":9,
				"upper_fade":10
			},
			"mesh":1,
			"name":"Ground_AO",
			"scale":[
				41.49441146850586,
				1,
				21.808349609375
			],
			"translation":[
				0,
				-0.01346135139465332,
				-0.16897869110107422
			]
		}
	],
	"materials":[
		{
			"name":"mat40-23",
			"occlusionTexture":{
				"index":0,
				"texCoord":1
			},
			"pbrMetallicRoughness":{
				"baseColorTexture":{
					"index":1
				},
				"metallicFactor":0
			}
		},
		{
			"name":"mat39-3",
			"occlusionTexture":{
				"index":2,
				"texCoord":1
			},
			"pbrMetallicRoughness":{
				"baseColorTexture":{
					"index":3
				},
				"metallicFactor":0
			}
		},
		{
			"name":"matcolour-48.001",
			"occlusionTexture":{
				"index":4,
				"texCoord":1
			},
			"pbrMetallicRoughness":{
				"baseColorFactor":[
					0.05882352963089943,
					0.05882352963089943,
					0.05882352963089943,
					1
				],
				"metallicFactor":0
			}
		},
		{
			"name":"mat40-60",
			"occlusionTexture":{
				"index":5,
				"texCoord":1
			},
			"pbrMetallicRoughness":{
				"baseColorTexture":{
					"index":6
				},
				"metallicFactor":0
			}
		},
		{
			"name":"mat2-15",
			"occlusionTexture":{
				"index":7,
				"texCoord":1
			},
			"pbrMetallicRoughness":{
				"baseColorTexture":{
					"index":8
				},
				"metallicFactor":0
			}
		},
		{
			"name":"mat39-51",
			"occlusionTexture":{
				"index":9,
				"texCoord":1
			},
			"pbrMetallicRoughness":{
				"baseColorTexture":{
					"index":10
				},
				"metallicFactor":0
			}
		},
		{
			"name":"mat40-36",
			"occlusionTexture":{
				"index":11,
				"texCoord":1
			},
			"pbrMetallicRoughness":{
				"baseColorTexture":{
					"index":12
				},
				"metallicFactor":0
			}
		},
		{
			"name":"Ground_AO",
			"occlusionTexture":{
				"index":13
			},
			"pbrMetallicRoughness":{
				"baseColorFactor":[
					0.800000011920929,
					0.800000011920929,
					0.800000011920929,
					1
				],
				"metallicFactor":0,
				"roughnessFactor":0.5
			}
		}
	],
	"meshes":[
		{
			"name":"Maxis-3d1-mesh-40",
			"primitives":[
				{
					"attributes":{
						"POSITION":0,
						"NORMAL":1,
						"TEXCOORD_0":2,
						"TEXCOORD_1":3
					},
					"indices":4,
					"material":0
				},
				{
					"attributes":{
						"POSITION":5,
						"NORMAL":6,
						"TEXCOORD_0":7,
						"TEXCOORD_1":8
					},
					"indices":9,
					"material":1
				},
				{
					"attributes":{
						"POSITION":10,
						"NORMAL":11,
						"TEXCOORD_0":12,
						"TEXCOORD_1":13
					},
					"indices":14,
					"material":2
				},
				{
					"attributes":{
						"POSITION":15,
						"NORMAL":16,
						"TEXCOORD_0":17,
						"TEXCOORD_1":18
					},
					"indices":19,
					"material":3
				},
				{
					"attributes":{
						"POSITION":20,
						"NORMAL":21,
						"TEXCOORD_0":22,
						"TEXCOORD_1":23
					},
					"indices":24,
					"material":4
				},
				{
					"attributes":{
						"POSITION":25,
						"NORMAL":26,
						"TEXCOORD_0":27,
						"TEXCOORD_1":28
					},
					"indices":29,
					"material":5
				},
				{
					"attributes":{
						"POSITION":30,
						"NORMAL":31,
						"TEXCOORD_0":32,
						"TEXCOORD_1":33
					},
					"indices":34,
					"material":6
				}
			]
		},
		{
			"name":"Plane",
			"primitives":[
				{
					"attributes":{
						"POSITION":35,
						"NORMAL":36,
						"TEXCOORD_0":37
					},
					"indices":38,
					"material":7
				}
			]
		}
	],
	"textures":[
		{
			"sampler":0,
			"source":0
		},
		{
			"sampler":0,
			"source":1
		},
		{
			"sampler":0,
			"source":0
		},
		{
			"sampler":0,
			"source":2
		},
		{
			"sampler":0,
			"source":0
		},
		{
			"sampler":0,
			"source":0
		},
		{
			"sampler":0,
			"source":3
		},
		{
			"sampler":0,
			"source":0
		},
		{
			"sampler":0,
			"source":4
		},
		{
			"sampler":0,
			"source":0
		},
		{
			"sampler":0,
			"source":5
		},
		{
			"sampler":0,
			"source":0
		},
		{
			"sampler":0,
			"source":6
		},
		{
			"sampler":0,
			"source":7
		}
	],
	"images":[
		{
			"mimeType":"image/png",
			"name":"large_2.png",
			"uri":"../../../Textures/ambient_occlusion/Buildings/Condominiums/large_2.png"
		},
		{
			"mimeType":"image/png",
			"name":"tex40-23",
			"uri":"../../../Textures/tex40-23.png"
		},
		{
			"mimeType":"image/png",
			"name":"tex39-3",
			"uri":"../../../Textures/tex39-3.png"
		},
		{
			"mimeType":"image/png",
			"name":"tex40-60",
			"uri":"../../../Textures/tex40-60.png"
		},
		{
			"mimeType":"image/png",
			"name":"tex2-15",
			"uri":"../../../Textures/tex2-15.png"
		},
		{
			"mimeType":"image/png",
			"name":"tex39-51",
			"uri":"../../../Textures/tex39-51.png"
		},
		{
			"mimeType":"image/png",
			"name":"tex40-36",
			"uri":"../../../Textures/tex40-36.png"
		},
		{
			"mimeType":"image/png",
			"name":"large_2_ground.png",
			"uri":"../../../Textures/ambient_occlusion/Buildings/Condominiums/large_2_ground.png"
		}
	],
	"accessors":[
		{
			"bufferView":0,
			"componentType":5126,
			"count":48,
			"max":[
				17.371135711669922,
				3.7833251953125,
				-32.94287872314453
			],
			"min":[
				-14.863052368164062,
				-4.7291717529296875,
				-42.738037109375
			],
			"type":"VEC3"
		},
		{
			"bufferView":1,
			"componentType":5126,
			"count":48,
			"type":"VEC3"
		},
		{
			"bufferView":2,
			"componentType":5126,
			"count":48,
			"type":"VEC2"
		},
		{
			"bufferView":3,
			"componentType":5126,
			"count":48,
			"type":"VEC2"
		},
		{
			"bufferView":4,
			"componentType":5123,
			"count":72,
			"type":"SCALAR"
		},
		{
			"bufferView":5,
			"componentType":5126,
			"count":24,
			"max":[
				15.908466339111328,
				5.506011962890625,
				-13.066909790039062
			],
			"min":[
				-15.908470153808594,
				-5.843997955322266,
				-40.4960823059082
			],
			"type":"VEC3"
		},
		{
			"bufferView":6,
			"componentType":5126,
			"count":24,
			"type":"VEC3"
		},
		{
			"bufferView":7,
			"componentType":5126,
			"count":24,
			"type":"VEC2"
		},
		{
			"bufferView":8,
			"componentType":5126,
			"count":24,
			"type":"VEC2"
		},
		{
			"bufferView":9,
			"componentType":5123,
			"count":42,
			"type":"SCALAR"
		},
		{
			"bufferView":10,
			"componentType":5126,
			"count":45,
			"max":[
				15.908462524414062,
				5.506004333496094,
				-40.4960823059082
			],
			"min":[
				-15.908470153808594,
				-5.843997955322266,
				-45.321285247802734
			],
			"type":"VEC3"
		},
		{
			"bufferView":11,
			"componentType":5126,
			"count":45,
			"type":"VEC3"
		},
		{
			"bufferView":12,
			"componentType":5126,
			"count":45,
			"type":"VEC2"
		},
		{
			"bufferView":13,
			"componentType":5126,
			"count":45,
			"type":"VEC2"
		},
		{
			"bufferView":14,
			"componentType":5123,
			"count":78,
			"type":"SCALAR"
		},
		{
			"bufferView":15,
			"componentType":5126,
			"count":8,
			"max":[
				-7.431526184082031,
				3.7833251953125,
				-42.738037109375
			],
			"min":[
				-14.863052368164062,
				-4.7291717529296875,
				-42.738037109375
			],
			"type":"VEC3"
		},
		{
			"bufferView":16,
			"componentType":5126,
			"count":8,
			"type":"VEC3"
		},
		{
			"bufferView":17,
			"componentType":5126,
			"count":8,
			"type":"VEC2"
		},
		{
			"bufferView":18,
			"componentType":5126,
			"count":8,
			"type":"VEC2"
		},
		{
			"bufferView":19,
			"componentType":5123,
			"count":12,
			"type":"SCALAR"
		},
		{
			"bufferView":20,
			"componentType":5126,
			"count":19,
			"max":[
				20.247203826904297,
				10.235183715820312,
				0.013458251953125
			],
			"min":[
				-20.247207641601562,
				-10.57315444946289,
				-4.554409027099609
			],
			"type":"VEC3"
		},
		{
			"bufferView":21,
			"componentType":5126,
			"count":19,
			"type":"VEC3"
		},
		{
			"bufferView":22,
			"componentType":5126,
			"count":19,
			"type":"VEC2"
		},
		{
			"bufferView":23,
			"componentType":5126,
			"count":19,
			"type":"VEC2"
		},
		{
			"bufferView":24,
			"componentType":5123,
			"count":24,
			"type":"SCALAR"
		},
		{
			"bufferView":25,
			"componentType":5126,
			"count":16,
			"max":[
				20.247203826904297,
				10.235183715820312,
				-4.554409027099609
			],
			"min":[
				-20.247207641601562,
				-10.57315444946289,
				-13.066909790039062
			],
			"type":"VEC3"
		},
		{
			"bufferView":26,
			"componentType":5126,
			"count":16,
			"type":"VEC3"
		},
		{
			"bufferView":27,
			"componentType":5126,
			"count":16,
			"type":"VEC2"
		},
		{
			"bufferView":28,
			"componentType":5126,
			"count":16,
			"type":"VEC2"
		},
		{
			"bufferView":29,
			"componentType":5123,
			"count":24,
			"type":"SCALAR"
		},
		{
			"bufferView":30,
			"componentType":5126,
			"count":4,
			"max":[
				17.371135711669922,
				0.9458274841308594,
				-32.94287872314453
			],
			"min":[
				17.371135711669922,
				-1.8916702270507812,
				-35.78037643432617
			],
			"type":"VEC3"
		},
		{
			"bufferView":31,
			"componentType":5126,
			"count":4,
			"type":"VEC3"
		},
		{
			"bufferView":32,
			"componentType":5126,
			"count":4,
			"type":"VEC2"
		},
		{
			"bufferView":33,
			"componentType":5126,
			"count":4,
			"type":"VEC2"
		},
		{
			"bufferView":34,
			"componentType":5123,
			"count":6,
			"type":"SCALAR"
		},
		{
			"bufferView":35,
			"componentType":5126,
			"count":4,
			"max":[
				0.5,
				0,
				0.5
			],
			"min":[
				-0.5,
				0,
				-0.5
			],
			"type":"VEC3"
		},
		{
			"bufferView":36,
			"componentType":5126,
			"count":4,
			"type":"VEC3"
		},
		{
			"bufferView":37,
			"componentType":5126,
			"count":4,
			"type":"VEC2"
		},
		{
			"bufferView":38,
			"componentType":5123,
			"count":6,
			"type":"SCALAR"
		}
	],
	"bufferViews":[
		{
			"buffer":0,
			"byteLength":576,
			"byteOffset":0,
			"target":34962
		},
		{
			"buffer":0,
			"byteLength":576,
			"byteOffset":576,
			"target":34962
		},
		{
			"buffer":0,
			"byteLength":384,
			"byteOffset":1152,
			"target":34962
		},
		{
			"buffer":0,
			"byteLength":384,
			"byteOffset":1536,
			"target":34962
		},
		{
			"buffer":0,
			"byteLength":144,
			"byteOffset":1920,
			"target":34963
		},
		{
			"buffer":0,
			"byteLength":288,
			"byteOffset":2064,
			"target":34962
		},
		{
			"buffer":0,
			"byteLength":288,
			"byteOffset":2352,
			"target":34962
		},
		{
			"buffer":0,
			"byteLength":192,
			"byteOffset":2640,
			"target":34962
		},
		{
			"buffer":0,
			"byteLength":192,
			"byteOffset":2832,
			"target":34962
		},
		{
			"buffer":0,
			"byteLength":84,
			"byteOffset":3024,
			"target":34963
		},
		{
			"buffer":0,
			"byteLength":540,
			"byteOffset":3108,
			"target":34962
		},
		{
			"buffer":0,
			"byteLength":540,
			"byteOffset":3648,
			"target":34962
		},
		{
			"buffer":0,
			"byteLength":360,
			"byteOffset":4188,
			"target":34962
		},
		{
			"buffer":0,
			"byteLength":360,
			"byteOffset":4548,
			"target":34962
		},
		{
			"buffer":0,
			"byteLength":156,
			"byteOffset":4908,
			"target":34963
		},
		{
			"buffer":0,
			"byteLength":96,
			"byteOffset":5064,
			"target":34962
		},
		{
			"buffer":0,
			"byteLength":96,
			"byteOffset":5160,
			"target":34962
		},
		{
			"buffer":0,
			"byteLength":64,
			"byteOffset":5256,
			"target":34962
		},
		{
			"buffer":0,
			"byteLength":64,
			"byteOffset":5320,
			"target":34962
		},
		{
			"buffer":0,
			"byteLength":24,
			"byteOffset":5384,
			"target":34963
		},
		{
			"buffer":0,
			"byteLength":228,
			"byteOffset":5408,
			"target":34962
		},
		{
			"buffer":0,
			"byteLength":228,
			"byteOffset":5636,
			"target":34962
		},
		{
			"buffer":0,
			"byteLength":152,
			"byteOffset":5864,
			"target":34962
		},
		{
			"buffer":0,
			"byteLength":152,
			"byteOffset":6016,
			"target":34962
		},
		{
			"buffer":0,
			"byteLength":48,
			"byteOffset":6168,
			"target":34963
		},
		{
			"buffer":0,
			"byteLength":192,
			"byteOffset":6216,
			"target":34962
		},
		{
			"buffer":0,
			"byteLength":192,
			"byteOffset":6408,
			"target":34962
		},
		{
			"buffer":0,
			"byteLength":128,
			"byteOffset":6600,
			"target":34962
		},
		{
			"buffer":0,
			"byteLength":128,
			"byteOffset":6728,
			"target":34962
		},
		{
			"buffer":0,
			"byteLength":48,
			"byteOffset":6856,
			"target":34963
		},
		{
			"buffer":0,
			"byteLength":48,
			"byteOffset":6904,
			"target":34962
		},
		{
			"buffer":0,
			"byteLength":48,
			"byteOffset":6952,
			"target":34962
		},
		{
			"buffer":0,
			"byteLength":32,
			"byteOffset":7000,
			"target":34962
		},
		{
			"buffer":0,
			"byteLength":32,
			"byteOffset":7032,
			"target":34962
		},
		{
			"buffer":0,
			"byteLength":12,
			"byteOffset":7064,
			"target":34963
		},
		{
			"buffer":0,
			"byteLength":48,
			"byteOffset":7076,
			"target":34962
		},
		{
			"buffer":0,
			"byteLength":48,
			"byteOffset":7124,
			"target":34962
		},
		{
			"buffer":0,
			"byteLength":32,
			"byteOffset":7172,
			"target":34962
		},
		{
			"buffer":0,
			"byteLength":12,
			"byteOffset":7204,
			"target":34963
		}
	],
	"samplers":[
		{
			"magFilter":9729,
			"minFilter":9987
		}
	],
	"buffers":[
		{
			"byteLength":7216,
			"uri":"large_2.bin"
		}
	]
}
