{
	"asset":{
		"generator":"Khronos glTF Blender I/O v4.3.47",
		"version":"2.0"
	},
	"scene":0,
	"scenes":[
		{
			"name":"Scene",
			"nodes":[
				0,
				1
			]
		}
	],
	"nodes":[
		{
			"mesh":0,
			"name":"Maxis-3d3-mesh-41",
			"rotation":[
				0.70710688829422,
				0,
				0,
				0.7071066498756409
			]
		},
		{
			"extras":{
				"gd_node":"Decal",
				"lower_fade":9,
				"upper_fade":10
			},
			"mesh":1,
			"name":"Ground_AO",
			"scale":[
				47.25,
				1,
				47.249996185302734
			],
			"translation":[
				0,
				0.06514802575111389,
				-0.04166412353515625
			]
		}
	],
	"materials":[
		{
			"name":"mat40-52",
			"occlusionTexture":{
				"index":0,
				"texCoord":1
			},
			"pbrMetallicRoughness":{
				"baseColorTexture":{
					"index":1
				},
				"metallicFactor":0
			}
		},
		{
			"name":"mat40-61",
			"occlusionTexture":{
				"index":2,
				"texCoord":1
			},
			"pbrMetallicRoughness":{
				"baseColorTexture":{
					"index":3
				},
				"metallicFactor":0
			}
		},
		{
			"name":"matcolour-48",
			"occlusionTexture":{
				"index":4,
				"texCoord":1
			},
			"pbrMetallicRoughness":{
				"baseColorFactor":[
					0.05882352963089943,
					0.05882352963089943,
					0.05882352963089943,
					1
				],
				"metallicFactor":0
			}
		},
		{
			"name":"mat40-63",
			"occlusionTexture":{
				"index":5,
				"texCoord":1
			},
			"pbrMetallicRoughness":{
				"baseColorTexture":{
					"index":6
				},
				"metallicFactor":0
			}
		},
		{
			"name":"mat39-10",
			"occlusionTexture":{
				"index":7,
				"texCoord":1
			},
			"pbrMetallicRoughness":{
				"baseColorTexture":{
					"index":8
				},
				"metallicFactor":0
			}
		},
		{
			"name":"Ground_AO",
			"occlusionTexture":{
				"index":9
			},
			"pbrMetallicRoughness":{
				"baseColorFactor":[
					0.800000011920929,
					0.800000011920929,
					0.800000011920929,
					1
				],
				"metallicFactor":0,
				"roughnessFactor":0.5
			}
		}
	],
	"meshes":[
		{
			"name":"Maxis-3d3-mesh-41",
			"primitives":[
				{
					"attributes":{
						"POSITION":0,
						"NORMAL":1,
						"TEXCOORD_0":2,
						"TEXCOORD_1":3
					},
					"indices":4,
					"material":0
				},
				{
					"attributes":{
						"POSITION":5,
						"NORMAL":6,
						"TEXCOORD_0":7,
						"TEXCOORD_1":8
					},
					"indices":9,
					"material":1
				},
				{
					"attributes":{
						"POSITION":10,
						"NORMAL":11,
						"TEXCOORD_0":12,
						"TEXCOORD_1":13
					},
					"indices":14,
					"material":2
				},
				{
					"attributes":{
						"POSITION":15,
						"NORMAL":16,
						"TEXCOORD_0":17,
						"TEXCOORD_1":18
					},
					"indices":19,
					"material":3
				},
				{
					"attributes":{
						"POSITION":20,
						"NORMAL":21,
						"TEXCOORD_0":22,
						"TEXCOORD_1":23
					},
					"indices":24,
					"material":4
				}
			]
		},
		{
			"name":"Plane",
			"primitives":[
				{
					"attributes":{
						"POSITION":25,
						"NORMAL":26,
						"TEXCOORD_0":27
					},
					"indices":28,
					"material":5
				}
			]
		}
	],
	"textures":[
		{
			"sampler":0,
			"source":0
		},
		{
			"sampler":0,
			"source":1
		},
		{
			"sampler":0,
			"source":0
		},
		{
			"sampler":0,
			"source":2
		},
		{
			"sampler":0,
			"source":0
		},
		{
			"sampler":0,
			"source":0
		},
		{
			"sampler":0,
			"source":3
		},
		{
			"sampler":0,
			"source":0
		},
		{
			"sampler":0,
			"source":4
		},
		{
			"sampler":0,
			"source":5
		}
	],
	"images":[
		{
			"mimeType":"image/png",
			"name":"large_1.png",
			"uri":"../../../Textures/ambient_occlusion/Buildings/Condominiums/large_1.png"
		},
		{
			"mimeType":"image/png",
			"name":"tex40-52",
			"uri":"../../../Textures/tex40-52.png"
		},
		{
			"mimeType":"image/png",
			"name":"tex40-61",
			"uri":"../../../Textures/tex40-61.png"
		},
		{
			"mimeType":"image/png",
			"name":"tex40-63",
			"uri":"../../../Textures/tex40-63.png"
		},
		{
			"mimeType":"image/png",
			"name":"tex39-10",
			"uri":"../../../Textures/tex39-10.png"
		},
		{
			"mimeType":"image/png",
			"name":"large_1_ground.png",
			"uri":"../../../Textures/ambient_occlusion/Buildings/Condominiums/large_1_ground.png"
		}
	],
	"accessors":[
		{
			"bufferView":0,
			"componentType":5126,
			"count":92,
			"max":[
				23.125,
				23.083332061767578,
				-0.065155029296875
			],
			"min":[
				-23.125,
				-23.166664123535156,
				-10.839122772216797
			],
			"type":"VEC3"
		},
		{
			"bufferView":1,
			"componentType":5126,
			"count":92,
			"type":"VEC3"
		},
		{
			"bufferView":2,
			"componentType":5126,
			"count":92,
			"type":"VEC2"
		},
		{
			"bufferView":3,
			"componentType":5126,
			"count":92,
			"type":"VEC2"
		},
		{
			"bufferView":4,
			"componentType":5123,
			"count":150,
			"type":"SCALAR"
		},
		{
			"bufferView":5,
			"componentType":5126,
			"count":24,
			"max":[
				18.827709197998047,
				15.186935424804688,
				-7.569828033447266
			],
			"min":[
				-17.395816802978516,
				-15.186935424804688,
				-12.055095672607422
			],
			"type":"VEC3"
		},
		{
			"bufferView":6,
			"componentType":5126,
			"count":24,
			"type":"VEC3"
		},
		{
			"bufferView":7,
			"componentType":5126,
			"count":24,
			"type":"VEC2"
		},
		{
			"bufferView":8,
			"componentType":5126,
			"count":24,
			"type":"VEC2"
		},
		{
			"bufferView":9,
			"componentType":5123,
			"count":60,
			"type":"SCALAR"
		},
		{
			"bufferView":10,
			"componentType":5126,
			"count":12,
			"max":[
				18.827709197998047,
				15.186935424804688,
				-7.569828033447266
			],
			"min":[
				-17.395816802978516,
				-15.186935424804688,
				-12.055095672607422
			],
			"type":"VEC3"
		},
		{
			"bufferView":11,
			"componentType":5126,
			"count":12,
			"type":"VEC3"
		},
		{
			"bufferView":12,
			"componentType":5126,
			"count":12,
			"type":"VEC2"
		},
		{
			"bufferView":13,
			"componentType":5126,
			"count":12,
			"type":"VEC2"
		},
		{
			"bufferView":14,
			"componentType":5123,
			"count":12,
			"type":"SCALAR"
		},
		{
			"bufferView":15,
			"componentType":5126,
			"count":8,
			"max":[
				8.285472869873047,
				11.041664123535156,
				-10.839118957519531
			],
			"min":[
				-6.853584289550781,
				-11.041664123535156,
				-10.839122772216797
			],
			"type":"VEC3"
		},
		{
			"bufferView":16,
			"componentType":5126,
			"count":8,
			"type":"VEC3"
		},
		{
			"bufferView":17,
			"componentType":5126,
			"count":8,
			"type":"VEC2"
		},
		{
			"bufferView":18,
			"componentType":5126,
			"count":8,
			"type":"VEC2"
		},
		{
			"bufferView":19,
			"componentType":5123,
			"count":12,
			"type":"SCALAR"
		},
		{
			"bufferView":20,
			"componentType":5126,
			"count":34,
			"max":[
				18.827709197998047,
				15.186935424804688,
				-0.065155029296875
			],
			"min":[
				-17.395816802978516,
				-15.186935424804688,
				-7.569843292236328
			],
			"type":"VEC3"
		},
		{
			"bufferView":21,
			"componentType":5126,
			"count":34,
			"type":"VEC3"
		},
		{
			"bufferView":22,
			"componentType":5126,
			"count":34,
			"type":"VEC2"
		},
		{
			"bufferView":23,
			"componentType":5126,
			"count":34,
			"type":"VEC2"
		},
		{
			"bufferView":24,
			"componentType":5123,
			"count":48,
			"type":"SCALAR"
		},
		{
			"bufferView":25,
			"componentType":5126,
			"count":4,
			"max":[
				0.5,
				0,
				0.5
			],
			"min":[
				-0.5,
				0,
				-0.5
			],
			"type":"VEC3"
		},
		{
			"bufferView":26,
			"componentType":5126,
			"count":4,
			"type":"VEC3"
		},
		{
			"bufferView":27,
			"componentType":5126,
			"count":4,
			"type":"VEC2"
		},
		{
			"bufferView":28,
			"componentType":5123,
			"count":6,
			"type":"SCALAR"
		}
	],
	"bufferViews":[
		{
			"buffer":0,
			"byteLength":1104,
			"byteOffset":0,
			"target":34962
		},
		{
			"buffer":0,
			"byteLength":1104,
			"byteOffset":1104,
			"target":34962
		},
		{
			"buffer":0,
			"byteLength":736,
			"byteOffset":2208,
			"target":34962
		},
		{
			"buffer":0,
			"byteLength":736,
			"byteOffset":2944,
			"target":34962
		},
		{
			"buffer":0,
			"byteLength":300,
			"byteOffset":3680,
			"target":34963
		},
		{
			"buffer":0,
			"byteLength":288,
			"byteOffset":3980,
			"target":34962
		},
		{
			"buffer":0,
			"byteLength":288,
			"byteOffset":4268,
			"target":34962
		},
		{
			"buffer":0,
			"byteLength":192,
			"byteOffset":4556,
			"target":34962
		},
		{
			"buffer":0,
			"byteLength":192,
			"byteOffset":4748,
			"target":34962
		},
		{
			"buffer":0,
			"byteLength":120,
			"byteOffset":4940,
			"target":34963
		},
		{
			"buffer":0,
			"byteLength":144,
			"byteOffset":5060,
			"target":34962
		},
		{
			"buffer":0,
			"byteLength":144,
			"byteOffset":5204,
			"target":34962
		},
		{
			"buffer":0,
			"byteLength":96,
			"byteOffset":5348,
			"target":34962
		},
		{
			"buffer":0,
			"byteLength":96,
			"byteOffset":5444,
			"target":34962
		},
		{
			"buffer":0,
			"byteLength":24,
			"byteOffset":5540,
			"target":34963
		},
		{
			"buffer":0,
			"byteLength":96,
			"byteOffset":5564,
			"target":34962
		},
		{
			"buffer":0,
			"byteLength":96,
			"byteOffset":5660,
			"target":34962
		},
		{
			"buffer":0,
			"byteLength":64,
			"byteOffset":5756,
			"target":34962
		},
		{
			"buffer":0,
			"byteLength":64,
			"byteOffset":5820,
			"target":34962
		},
		{
			"buffer":0,
			"byteLength":24,
			"byteOffset":5884,
			"target":34963
		},
		{
			"buffer":0,
			"byteLength":408,
			"byteOffset":5908,
			"target":34962
		},
		{
			"buffer":0,
			"byteLength":408,
			"byteOffset":6316,
			"target":34962
		},
		{
			"buffer":0,
			"byteLength":272,
			"byteOffset":6724,
			"target":34962
		},
		{
			"buffer":0,
			"byteLength":272,
			"byteOffset":6996,
			"target":34962
		},
		{
			"buffer":0,
			"byteLength":96,
			"byteOffset":7268,
			"target":34963
		},
		{
			"buffer":0,
			"byteLength":48,
			"byteOffset":7364,
			"target":34962
		},
		{
			"buffer":0,
			"byteLength":48,
			"byteOffset":7412,
			"target":34962
		},
		{
			"buffer":0,
			"byteLength":32,
			"byteOffset":7460,
			"target":34962
		},
		{
			"buffer":0,
			"byteLength":12,
			"byteOffset":7492,
			"target":34963
		}
	],
	"samplers":[
		{
			"magFilter":9729,
			"minFilter":9987
		}
	],
	"buffers":[
		{
			"byteLength":7504,
			"uri":"large_1.bin"
		}
	]
}
