{
	"asset":{
		"generator":"Khronos glTF Blender I/O v4.1.63",
		"version":"2.0"
	},
	"scene":0,
	"scenes":[
		{
			"name":"Scene",
			"nodes":[
				0
			]
		}
	],
	"nodes":[
		{
			"mesh":0,
			"name":"Maxis-3d1-mesh-40",
			"rotation":[
				0.70710688829422,
				0,
				0,
				0.7071066498756409
			]
		}
	],
	"materials":[
		{
			"name":"mat40-23",
			"pbrMetallicRoughness":{
				"baseColorTexture":{
					"index":0
				},
				"metallicFactor":0
			}
		},
		{
			"name":"mat39-3",
			"pbrMetallicRoughness":{
				"baseColorTexture":{
					"index":1
				},
				"metallicFactor":0
			}
		},
		{
			"name":"matcolour-48.001",
			"pbrMetallicRoughness":{
				"baseColorFactor":[
					0.05882352963089943,
					0.05882352963089943,
					0.05882352963089943,
					1
				],
				"metallicFactor":0
			}
		},
		{
			"name":"mat40-60",
			"pbrMetallicRoughness":{
				"baseColorTexture":{
					"index":2
				},
				"metallicFactor":0
			}
		},
		{
			"name":"mat2-15",
			"pbrMetallicRoughness":{
				"baseColorTexture":{
					"index":3
				},
				"metallicFactor":0
			}
		},
		{
			"name":"mat39-51",
			"pbrMetallicRoughness":{
				"baseColorTexture":{
					"index":4
				},
				"metallicFactor":0
			}
		},
		{
			"name":"mat40-36",
			"pbrMetallicRoughness":{
				"baseColorTexture":{
					"index":5
				},
				"metallicFactor":0
			}
		}
	],
	"meshes":[
		{
			"name":"Maxis-3d1-mesh-40",
			"primitives":[
				{
					"attributes":{
						"POSITION":0,
						"NORMAL":1,
						"TEXCOORD_0":2
					},
					"indices":3,
					"material":0
				},
				{
					"attributes":{
						"POSITION":4,
						"NORMAL":5,
						"TEXCOORD_0":6
					},
					"indices":7,
					"material":0
				},
				{
					"attributes":{
						"POSITION":8,
						"NORMAL":9,
						"TEXCOORD_0":10
					},
					"indices":11,
					"material":0
				},
				{
					"attributes":{
						"POSITION":12,
						"NORMAL":13,
						"TEXCOORD_0":14
					},
					"indices":15,
					"material":0
				},
				{
					"attributes":{
						"POSITION":16,
						"NORMAL":17,
						"TEXCOORD_0":18
					},
					"indices":19,
					"material":1
				},
				{
					"attributes":{
						"POSITION":20,
						"NORMAL":21,
						"TEXCOORD_0":22
					},
					"indices":19,
					"material":1
				},
				{
					"attributes":{
						"POSITION":23,
						"NORMAL":24,
						"TEXCOORD_0":25
					},
					"indices":26,
					"material":1
				},
				{
					"attributes":{
						"POSITION":27,
						"NORMAL":28,
						"TEXCOORD_0":29
					},
					"indices":30,
					"material":1
				},
				{
					"attributes":{
						"POSITION":31,
						"NORMAL":32,
						"TEXCOORD_0":33
					},
					"indices":34,
					"material":2
				},
				{
					"attributes":{
						"POSITION":35,
						"NORMAL":36,
						"TEXCOORD_0":37
					},
					"indices":38,
					"material":3
				},
				{
					"attributes":{
						"POSITION":39,
						"NORMAL":40,
						"TEXCOORD_0":41
					},
					"indices":42,
					"material":4
				},
				{
					"attributes":{
						"POSITION":43,
						"NORMAL":44,
						"TEXCOORD_0":45
					},
					"indices":19,
					"material":4
				},
				{
					"attributes":{
						"POSITION":46,
						"NORMAL":47,
						"TEXCOORD_0":48
					},
					"indices":49,
					"material":4
				},
				{
					"attributes":{
						"POSITION":50,
						"NORMAL":51,
						"TEXCOORD_0":52
					},
					"indices":53,
					"material":4
				},
				{
					"attributes":{
						"POSITION":54,
						"NORMAL":55,
						"TEXCOORD_0":56
					},
					"indices":53,
					"material":5
				},
				{
					"attributes":{
						"POSITION":57,
						"NORMAL":58,
						"TEXCOORD_0":59
					},
					"indices":60,
					"material":5
				},
				{
					"attributes":{
						"POSITION":61,
						"NORMAL":62,
						"TEXCOORD_0":63
					},
					"indices":64,
					"material":5
				},
				{
					"attributes":{
						"POSITION":65,
						"NORMAL":66,
						"TEXCOORD_0":67
					},
					"indices":68,
					"material":5
				},
				{
					"attributes":{
						"POSITION":69,
						"NORMAL":70,
						"TEXCOORD_0":71
					},
					"indices":42,
					"material":6
				}
			]
		}
	],
	"textures":[
		{
			"sampler":0,
			"source":0
		},
		{
			"sampler":0,
			"source":1
		},
		{
			"sampler":0,
			"source":2
		},
		{
			"sampler":0,
			"source":3
		},
		{
			"sampler":0,
			"source":4
		},
		{
			"sampler":0,
			"source":5
		}
	],
	"images":[
		{
			"mimeType":"image/png",
			"name":"tex40-23",
			"uri":"../../../Textures/tex40-23.png"
		},
		{
			"mimeType":"image/png",
			"name":"tex39-3",
			"uri":"../../../Textures/tex39-3.png"
		},
		{
			"mimeType":"image/png",
			"name":"tex40-60",
			"uri":"../../../Textures/tex40-60.png"
		},
		{
			"mimeType":"image/png",
			"name":"tex2-15",
			"uri":"../../../Textures/tex2-15.png"
		},
		{
			"mimeType":"image/png",
			"name":"tex39-51",
			"uri":"../../../Textures/tex39-51.png"
		},
		{
			"mimeType":"image/png",
			"name":"tex40-36",
			"uri":"../../../Textures/tex40-36.png"
		}
	],
	"accessors":[
		{
			"bufferView":0,
			"componentType":5126,
			"count":12,
			"max":[
				17.371135711669922,
				3.7833251953125,
				-32.94287872314453
			],
			"min":[
				-14.863052368164062,
				-1.8916702270507812,
				-42.738037109375
			],
			"type":"VEC3"
		},
		{
			"bufferView":1,
			"componentType":5126,
			"count":12,
			"type":"VEC3"
		},
		{
			"bufferView":2,
			"componentType":5126,
			"count":12,
			"type":"VEC2"
		},
		{
			"bufferView":3,
			"componentType":5123,
			"count":18,
			"type":"SCALAR"
		},
		{
			"bufferView":4,
			"componentType":5126,
			"count":12,
			"max":[
				17.371135711669922,
				0.9458274841308594,
				-35.78037643432617
			],
			"min":[
				-14.863052368164062,
				-4.7291717529296875,
				-42.738037109375
			],
			"type":"VEC3"
		},
		{
			"bufferView":5,
			"componentType":5126,
			"count":12,
			"type":"VEC3"
		},
		{
			"bufferView":6,
			"componentType":5126,
			"count":12,
			"type":"VEC2"
		},
		{
			"bufferView":7,
			"componentType":5123,
			"count":18,
			"type":"SCALAR"
		},
		{
			"bufferView":8,
			"componentType":5126,
			"count":12,
			"max":[
				17.371135711669922,
				3.7833251953125,
				-32.94287872314453
			],
			"min":[
				-14.863052368164062,
				-4.7291717529296875,
				-42.738037109375
			],
			"type":"VEC3"
		},
		{
			"bufferView":9,
			"componentType":5126,
			"count":12,
			"type":"VEC3"
		},
		{
			"bufferView":10,
			"componentType":5126,
			"count":12,
			"type":"VEC2"
		},
		{
			"bufferView":11,
			"componentType":5123,
			"count":18,
			"type":"SCALAR"
		},
		{
			"bufferView":12,
			"componentType":5126,
			"count":14,
			"max":[
				17.371135711669922,
				3.7833251953125,
				-32.94287872314453
			],
			"min":[
				-12.633590698242188,
				-4.7291717529296875,
				-42.738037109375
			],
			"type":"VEC3"
		},
		{
			"bufferView":13,
			"componentType":5126,
			"count":14,
			"type":"VEC3"
		},
		{
			"bufferView":14,
			"componentType":5126,
			"count":14,
			"type":"VEC2"
		},
		{
			"bufferView":15,
			"componentType":5123,
			"count":18,
			"type":"SCALAR"
		},
		{
			"bufferView":16,
			"componentType":5126,
			"count":6,
			"max":[
				15.908466339111328,
				5.506011962890625,
				-13.066909790039062
			],
			"min":[
				-15.908470153808594,
				5.506000518798828,
				-40.4960823059082
			],
			"type":"VEC3"
		},
		{
			"bufferView":17,
			"componentType":5126,
			"count":6,
			"type":"VEC3"
		},
		{
			"bufferView":18,
			"componentType":5126,
			"count":6,
			"type":"VEC2"
		},
		{
			"bufferView":19,
			"componentType":5123,
			"count":6,
			"type":"SCALAR"
		},
		{
			"bufferView":20,
			"componentType":5126,
			"count":6,
			"max":[
				15.908462524414062,
				-5.843986511230469,
				-13.066909790039062
			],
			"min":[
				-15.908470153808594,
				-5.843997955322266,
				-40.4960823059082
			],
			"type":"VEC3"
		},
		{
			"bufferView":21,
			"componentType":5126,
			"count":6,
			"type":"VEC3"
		},
		{
			"bufferView":22,
			"componentType":5126,
			"count":6,
			"type":"VEC2"
		},
		{
			"bufferView":23,
			"componentType":5126,
			"count":6,
			"max":[
				-15.908470153808594,
				5.506011962890625,
				-13.066909790039062
			],
			"min":[
				-15.908470153808594,
				-5.843990325927734,
				-40.4960823059082
			],
			"type":"VEC3"
		},
		{
			"bufferView":24,
			"componentType":5126,
			"count":6,
			"type":"VEC3"
		},
		{
			"bufferView":25,
			"componentType":5126,
			"count":6,
			"type":"VEC2"
		},
		{
			"bufferView":26,
			"componentType":5123,
			"count":6,
			"type":"SCALAR"
		},
		{
			"bufferView":27,
			"componentType":5126,
			"count":24,
			"max":[
				15.908466339111328,
				5.506008148193359,
				-13.066909790039062
			],
			"min":[
				15.908462524414062,
				-5.843997955322266,
				-40.4960823059082
			],
			"type":"VEC3"
		},
		{
			"bufferView":28,
			"componentType":5126,
			"count":24,
			"type":"VEC3"
		},
		{
			"bufferView":29,
			"componentType":5126,
			"count":24,
			"type":"VEC2"
		},
		{
			"bufferView":30,
			"componentType":5123,
			"count":24,
			"type":"SCALAR"
		},
		{
			"bufferView":31,
			"componentType":5126,
			"count":66,
			"max":[
				15.908462524414062,
				5.506004333496094,
				-40.4960823059082
			],
			"min":[
				-15.908470153808594,
				-5.843997955322266,
				-45.321285247802734
			],
			"type":"VEC3"
		},
		{
			"bufferView":32,
			"componentType":5126,
			"count":66,
			"type":"VEC3"
		},
		{
			"bufferView":33,
			"componentType":5126,
			"count":66,
			"type":"VEC2"
		},
		{
			"bufferView":34,
			"componentType":5123,
			"count":78,
			"type":"SCALAR"
		},
		{
			"bufferView":35,
			"componentType":5126,
			"count":8,
			"max":[
				-7.431526184082031,
				3.7833251953125,
				-42.738037109375
			],
			"min":[
				-14.863052368164062,
				-4.7291717529296875,
				-42.738037109375
			],
			"type":"VEC3"
		},
		{
			"bufferView":36,
			"componentType":5126,
			"count":8,
			"type":"VEC3"
		},
		{
			"bufferView":37,
			"componentType":5126,
			"count":8,
			"type":"VEC2"
		},
		{
			"bufferView":38,
			"componentType":5123,
			"count":12,
			"type":"SCALAR"
		},
		{
			"bufferView":39,
			"componentType":5126,
			"count":4,
			"max":[
				20.247203826904297,
				10.235183715820312,
				0.013458251953125
			],
			"min":[
				-20.247203826904297,
				10.235179901123047,
				-4.554409027099609
			],
			"type":"VEC3"
		},
		{
			"bufferView":40,
			"componentType":5126,
			"count":4,
			"type":"VEC3"
		},
		{
			"bufferView":41,
			"componentType":5126,
			"count":4,
			"type":"VEC2"
		},
		{
			"bufferView":42,
			"componentType":5123,
			"count":6,
			"type":"SCALAR"
		},
		{
			"bufferView":43,
			"componentType":5126,
			"count":6,
			"max":[
				20.247203826904297,
				-10.573150634765625,
				0.013458251953125
			],
			"min":[
				-20.247207641601562,
				-10.57315444946289,
				-4.554409027099609
			],
			"type":"VEC3"
		},
		{
			"bufferView":44,
			"componentType":5126,
			"count":6,
			"type":"VEC3"
		},
		{
			"bufferView":45,
			"componentType":5126,
			"count":6,
			"type":"VEC2"
		},
		{
			"bufferView":46,
			"componentType":5126,
			"count":6,
			"max":[
				-20.247203826904297,
				10.235183715820312,
				0.013458251953125
			],
			"min":[
				-20.247207641601562,
				-10.573150634765625,
				-4.554409027099609
			],
			"type":"VEC3"
		},
		{
			"bufferView":47,
			"componentType":5126,
			"count":6,
			"type":"VEC3"
		},
		{
			"bufferView":48,
			"componentType":5126,
			"count":6,
			"type":"VEC2"
		},
		{
			"bufferView":49,
			"componentType":5123,
			"count":6,
			"type":"SCALAR"
		},
		{
			"bufferView":50,
			"componentType":5126,
			"count":6,
			"max":[
				20.247203826904297,
				10.235179901123047,
				0.013458251953125
			],
			"min":[
				20.247196197509766,
				-10.57315444946289,
				-4.554409027099609
			],
			"type":"VEC3"
		},
		{
			"bufferView":51,
			"componentType":5126,
			"count":6,
			"type":"VEC3"
		},
		{
			"bufferView":52,
			"componentType":5126,
			"count":6,
			"type":"VEC2"
		},
		{
			"bufferView":53,
			"componentType":5123,
			"count":6,
			"type":"SCALAR"
		},
		{
			"bufferView":54,
			"componentType":5126,
			"count":6,
			"max":[
				20.247203826904297,
				10.235183715820312,
				-4.554409027099609
			],
			"min":[
				-20.247203826904297,
				5.506008148193359,
				-13.066909790039062
			],
			"type":"VEC3"
		},
		{
			"bufferView":55,
			"componentType":5126,
			"count":6,
			"type":"VEC3"
		},
		{
			"bufferView":56,
			"componentType":5126,
			"count":6,
			"type":"VEC2"
		},
		{
			"bufferView":57,
			"componentType":5126,
			"count":6,
			"max":[
				20.247196197509766,
				-5.843986511230469,
				-4.554409027099609
			],
			"min":[
				-20.247207641601562,
				-10.57315444946289,
				-13.066909790039062
			],
			"type":"VEC3"
		},
		{
			"bufferView":58,
			"componentType":5126,
			"count":6,
			"type":"VEC3"
		},
		{
			"bufferView":59,
			"componentType":5126,
			"count":6,
			"type":"VEC2"
		},
		{
			"bufferView":60,
			"componentType":5123,
			"count":6,
			"type":"SCALAR"
		},
		{
			"bufferView":61,
			"componentType":5126,
			"count":6,
			"max":[
				20.247203826904297,
				10.235179901123047,
				-4.554409027099609
			],
			"min":[
				15.908462524414062,
				-10.57315444946289,
				-13.066909790039062
			],
			"type":"VEC3"
		},
		{
			"bufferView":62,
			"componentType":5126,
			"count":6,
			"type":"VEC3"
		},
		{
			"bufferView":63,
			"componentType":5126,
			"count":6,
			"type":"VEC2"
		},
		{
			"bufferView":64,
			"componentType":5123,
			"count":6,
			"type":"SCALAR"
		},
		{
			"bufferView":65,
			"componentType":5126,
			"count":6,
			"max":[
				-15.908470153808594,
				10.235183715820312,
				-4.554409027099609
			],
			"min":[
				-20.247207641601562,
				-10.573150634765625,
				-13.066909790039062
			],
			"type":"VEC3"
		},
		{
			"bufferView":66,
			"componentType":5126,
			"count":6,
			"type":"VEC3"
		},
		{
			"bufferView":67,
			"componentType":5126,
			"count":6,
			"type":"VEC2"
		},
		{
			"bufferView":68,
			"componentType":5123,
			"count":6,
			"type":"SCALAR"
		},
		{
			"bufferView":69,
			"componentType":5126,
			"count":4,
			"max":[
				17.371135711669922,
				0.9458274841308594,
				-32.94287872314453
			],
			"min":[
				17.371135711669922,
				-1.8916702270507812,
				-35.78037643432617
			],
			"type":"VEC3"
		},
		{
			"bufferView":70,
			"componentType":5126,
			"count":4,
			"type":"VEC3"
		},
		{
			"bufferView":71,
			"componentType":5126,
			"count":4,
			"type":"VEC2"
		}
	],
	"bufferViews":[
		{
			"buffer":0,
			"byteLength":144,
			"byteOffset":0,
			"target":34962
		},
		{
			"buffer":0,
			"byteLength":144,
			"byteOffset":144,
			"target":34962
		},
		{
			"buffer":0,
			"byteLength":96,
			"byteOffset":288,
			"target":34962
		},
		{
			"buffer":0,
			"byteLength":36,
			"byteOffset":384,
			"target":34963
		},
		{
			"buffer":0,
			"byteLength":144,
			"byteOffset":420,
			"target":34962
		},
		{
			"buffer":0,
			"byteLength":144,
			"byteOffset":564,
			"target":34962
		},
		{
			"buffer":0,
			"byteLength":96,
			"byteOffset":708,
			"target":34962
		},
		{
			"buffer":0,
			"byteLength":36,
			"byteOffset":804,
			"target":34963
		},
		{
			"buffer":0,
			"byteLength":144,
			"byteOffset":840,
			"target":34962
		},
		{
			"buffer":0,
			"byteLength":144,
			"byteOffset":984,
			"target":34962
		},
		{
			"buffer":0,
			"byteLength":96,
			"byteOffset":1128,
			"target":34962
		},
		{
			"buffer":0,
			"byteLength":36,
			"byteOffset":1224,
			"target":34963
		},
		{
			"buffer":0,
			"byteLength":168,
			"byteOffset":1260,
			"target":34962
		},
		{
			"buffer":0,
			"byteLength":168,
			"byteOffset":1428,
			"target":34962
		},
		{
			"buffer":0,
			"byteLength":112,
			"byteOffset":1596,
			"target":34962
		},
		{
			"buffer":0,
			"byteLength":36,
			"byteOffset":1708,
			"target":34963
		},
		{
			"buffer":0,
			"byteLength":72,
			"byteOffset":1744,
			"target":34962
		},
		{
			"buffer":0,
			"byteLength":72,
			"byteOffset":1816,
			"target":34962
		},
		{
			"buffer":0,
			"byteLength":48,
			"byteOffset":1888,
			"target":34962
		},
		{
			"buffer":0,
			"byteLength":12,
			"byteOffset":1936,
			"target":34963
		},
		{
			"buffer":0,
			"byteLength":72,
			"byteOffset":1948,
			"target":34962
		},
		{
			"buffer":0,
			"byteLength":72,
			"byteOffset":2020,
			"target":34962
		},
		{
			"buffer":0,
			"byteLength":48,
			"byteOffset":2092,
			"target":34962
		},
		{
			"buffer":0,
			"byteLength":72,
			"byteOffset":2140,
			"target":34962
		},
		{
			"buffer":0,
			"byteLength":72,
			"byteOffset":2212,
			"target":34962
		},
		{
			"buffer":0,
			"byteLength":48,
			"byteOffset":2284,
			"target":34962
		},
		{
			"buffer":0,
			"byteLength":12,
			"byteOffset":2332,
			"target":34963
		},
		{
			"buffer":0,
			"byteLength":288,
			"byteOffset":2344,
			"target":34962
		},
		{
			"buffer":0,
			"byteLength":288,
			"byteOffset":2632,
			"target":34962
		},
		{
			"buffer":0,
			"byteLength":192,
			"byteOffset":2920,
			"target":34962
		},
		{
			"buffer":0,
			"byteLength":48,
			"byteOffset":3112,
			"target":34963
		},
		{
			"buffer":0,
			"byteLength":792,
			"byteOffset":3160,
			"target":34962
		},
		{
			"buffer":0,
			"byteLength":792,
			"byteOffset":3952,
			"target":34962
		},
		{
			"buffer":0,
			"byteLength":528,
			"byteOffset":4744,
			"target":34962
		},
		{
			"buffer":0,
			"byteLength":156,
			"byteOffset":5272,
			"target":34963
		},
		{
			"buffer":0,
			"byteLength":96,
			"byteOffset":5428,
			"target":34962
		},
		{
			"buffer":0,
			"byteLength":96,
			"byteOffset":5524,
			"target":34962
		},
		{
			"buffer":0,
			"byteLength":64,
			"byteOffset":5620,
			"target":34962
		},
		{
			"buffer":0,
			"byteLength":24,
			"byteOffset":5684,
			"target":34963
		},
		{
			"buffer":0,
			"byteLength":48,
			"byteOffset":5708,
			"target":34962
		},
		{
			"buffer":0,
			"byteLength":48,
			"byteOffset":5756,
			"target":34962
		},
		{
			"buffer":0,
			"byteLength":32,
			"byteOffset":5804,
			"target":34962
		},
		{
			"buffer":0,
			"byteLength":12,
			"byteOffset":5836,
			"target":34963
		},
		{
			"buffer":0,
			"byteLength":72,
			"byteOffset":5848,
			"target":34962
		},
		{
			"buffer":0,
			"byteLength":72,
			"byteOffset":5920,
			"target":34962
		},
		{
			"buffer":0,
			"byteLength":48,
			"byteOffset":5992,
			"target":34962
		},
		{
			"buffer":0,
			"byteLength":72,
			"byteOffset":6040,
			"target":34962
		},
		{
			"buffer":0,
			"byteLength":72,
			"byteOffset":6112,
			"target":34962
		},
		{
			"buffer":0,
			"byteLength":48,
			"byteOffset":6184,
			"target":34962
		},
		{
			"buffer":0,
			"byteLength":12,
			"byteOffset":6232,
			"target":34963
		},
		{
			"buffer":0,
			"byteLength":72,
			"byteOffset":6244,
			"target":34962
		},
		{
			"buffer":0,
			"byteLength":72,
			"byteOffset":6316,
			"target":34962
		},
		{
			"buffer":0,
			"byteLength":48,
			"byteOffset":6388,
			"target":34962
		},
		{
			"buffer":0,
			"byteLength":12,
			"byteOffset":6436,
			"target":34963
		},
		{
			"buffer":0,
			"byteLength":72,
			"byteOffset":6448,
			"target":34962
		},
		{
			"buffer":0,
			"byteLength":72,
			"byteOffset":6520,
			"target":34962
		},
		{
			"buffer":0,
			"byteLength":48,
			"byteOffset":6592,
			"target":34962
		},
		{
			"buffer":0,
			"byteLength":72,
			"byteOffset":6640,
			"target":34962
		},
		{
			"buffer":0,
			"byteLength":72,
			"byteOffset":6712,
			"target":34962
		},
		{
			"buffer":0,
			"byteLength":48,
			"byteOffset":6784,
			"target":34962
		},
		{
			"buffer":0,
			"byteLength":12,
			"byteOffset":6832,
			"target":34963
		},
		{
			"buffer":0,
			"byteLength":72,
			"byteOffset":6844,
			"target":34962
		},
		{
			"buffer":0,
			"byteLength":72,
			"byteOffset":6916,
			"target":34962
		},
		{
			"buffer":0,
			"byteLength":48,
			"byteOffset":6988,
			"target":34962
		},
		{
			"buffer":0,
			"byteLength":12,
			"byteOffset":7036,
			"target":34963
		},
		{
			"buffer":0,
			"byteLength":72,
			"byteOffset":7048,
			"target":34962
		},
		{
			"buffer":0,
			"byteLength":72,
			"byteOffset":7120,
			"target":34962
		},
		{
			"buffer":0,
			"byteLength":48,
			"byteOffset":7192,
			"target":34962
		},
		{
			"buffer":0,
			"byteLength":12,
			"byteOffset":7240,
			"target":34963
		},
		{
			"buffer":0,
			"byteLength":48,
			"byteOffset":7252,
			"target":34962
		},
		{
			"buffer":0,
			"byteLength":48,
			"byteOffset":7300,
			"target":34962
		},
		{
			"buffer":0,
			"byteLength":32,
			"byteOffset":7348,
			"target":34962
		}
	],
	"samplers":[
		{
			"magFilter":9729,
			"minFilter":9987
		}
	],
	"buffers":[
		{
			"byteLength":7380,
			"uri":"large_2.bin"
		}
	]
}
