{
	"asset":{
		"generator":"Khronos glTF Blender I/O v4.1.63",
		"version":"2.0"
	},
	"scene":0,
	"scenes":[
		{
			"name":"Scene",
			"nodes":[
				0
			]
		}
	],
	"nodes":[
		{
			"mesh":0,
			"name":"Maxis-3d3-mesh-41",
			"rotation":[
				0.70710688829422,
				0,
				0,
				0.7071066498756409
			]
		}
	],
	"materials":[
		{
			"name":"mat40-52",
			"pbrMetallicRoughness":{
				"baseColorTexture":{
					"index":0
				},
				"metallicFactor":0
			}
		},
		{
			"name":"mat40-61",
			"pbrMetallicRoughness":{
				"baseColorTexture":{
					"index":1
				},
				"metallicFactor":0
			}
		},
		{
			"name":"matcolour-48",
			"pbrMetallicRoughness":{
				"baseColorFactor":[
					0.05882352963089943,
					0.05882352963089943,
					0.05882352963089943,
					1
				],
				"metallicFactor":0
			}
		},
		{
			"name":"mat40-63",
			"pbrMetallicRoughness":{
				"baseColorTexture":{
					"index":2
				},
				"metallicFactor":0
			}
		},
		{
			"name":"mat39-10",
			"pbrMetallicRoughness":{
				"baseColorTexture":{
					"index":3
				},
				"metallicFactor":0
			}
		}
	],
	"meshes":[
		{
			"name":"Maxis-3d3-mesh-41",
			"primitives":[
				{
					"attributes":{
						"POSITION":0,
						"NORMAL":1,
						"TEXCOORD_0":2
					},
					"indices":3,
					"material":0
				},
				{
					"attributes":{
						"POSITION":4,
						"NORMAL":5,
						"TEXCOORD_0":6
					},
					"indices":7,
					"material":1
				},
				{
					"attributes":{
						"POSITION":8,
						"NORMAL":9,
						"TEXCOORD_0":10
					},
					"indices":11,
					"material":2
				},
				{
					"attributes":{
						"POSITION":12,
						"NORMAL":13,
						"TEXCOORD_0":14
					},
					"indices":15,
					"material":3
				},
				{
					"attributes":{
						"POSITION":16,
						"NORMAL":17,
						"TEXCOORD_0":18
					},
					"indices":19,
					"material":4
				}
			]
		}
	],
	"textures":[
		{
			"sampler":0,
			"source":0
		},
		{
			"sampler":0,
			"source":1
		},
		{
			"sampler":0,
			"source":2
		},
		{
			"sampler":0,
			"source":3
		}
	],
	"images":[
		{
			"mimeType":"image/png",
			"name":"tex40-52",
			"uri":"../../../Textures/tex40-52.png"
		},
		{
			"mimeType":"image/png",
			"name":"tex40-61",
			"uri":"../../../Textures/tex40-61.png"
		},
		{
			"mimeType":"image/png",
			"name":"tex40-63",
			"uri":"../../../Textures/tex40-63.png"
		},
		{
			"mimeType":"image/png",
			"name":"tex39-10",
			"uri":"../../../Textures/tex39-10.png"
		}
	],
	"accessors":[
		{
			"bufferView":0,
			"componentType":5126,
			"count":96,
			"max":[
				23.125,
				23.083332061767578,
				-0.065155029296875
			],
			"min":[
				-23.125,
				-23.166664123535156,
				-10.839122772216797
			],
			"type":"VEC3"
		},
		{
			"bufferView":1,
			"componentType":5126,
			"count":96,
			"type":"VEC3"
		},
		{
			"bufferView":2,
			"componentType":5126,
			"count":96,
			"type":"VEC2"
		},
		{
			"bufferView":3,
			"componentType":5123,
			"count":150,
			"type":"SCALAR"
		},
		{
			"bufferView":4,
			"componentType":5126,
			"count":24,
			"max":[
				18.827709197998047,
				15.186935424804688,
				-7.569828033447266
			],
			"min":[
				-17.395816802978516,
				-15.186935424804688,
				-12.055095672607422
			],
			"type":"VEC3"
		},
		{
			"bufferView":5,
			"componentType":5126,
			"count":24,
			"type":"VEC3"
		},
		{
			"bufferView":6,
			"componentType":5126,
			"count":24,
			"type":"VEC2"
		},
		{
			"bufferView":7,
			"componentType":5123,
			"count":60,
			"type":"SCALAR"
		},
		{
			"bufferView":8,
			"componentType":5126,
			"count":12,
			"max":[
				18.827709197998047,
				15.186935424804688,
				-7.569828033447266
			],
			"min":[
				-17.395816802978516,
				-15.186935424804688,
				-12.055095672607422
			],
			"type":"VEC3"
		},
		{
			"bufferView":9,
			"componentType":5126,
			"count":12,
			"type":"VEC3"
		},
		{
			"bufferView":10,
			"componentType":5126,
			"count":12,
			"type":"VEC2"
		},
		{
			"bufferView":11,
			"componentType":5123,
			"count":12,
			"type":"SCALAR"
		},
		{
			"bufferView":12,
			"componentType":5126,
			"count":8,
			"max":[
				8.285472869873047,
				11.041664123535156,
				-10.839118957519531
			],
			"min":[
				-6.853584289550781,
				-11.041664123535156,
				-10.839122772216797
			],
			"type":"VEC3"
		},
		{
			"bufferView":13,
			"componentType":5126,
			"count":8,
			"type":"VEC3"
		},
		{
			"bufferView":14,
			"componentType":5126,
			"count":8,
			"type":"VEC2"
		},
		{
			"bufferView":15,
			"componentType":5123,
			"count":12,
			"type":"SCALAR"
		},
		{
			"bufferView":16,
			"componentType":5126,
			"count":34,
			"max":[
				18.827709197998047,
				15.186935424804688,
				-0.065155029296875
			],
			"min":[
				-17.395816802978516,
				-15.186935424804688,
				-7.569843292236328
			],
			"type":"VEC3"
		},
		{
			"bufferView":17,
			"componentType":5126,
			"count":34,
			"type":"VEC3"
		},
		{
			"bufferView":18,
			"componentType":5126,
			"count":34,
			"type":"VEC2"
		},
		{
			"bufferView":19,
			"componentType":5123,
			"count":48,
			"type":"SCALAR"
		}
	],
	"bufferViews":[
		{
			"buffer":0,
			"byteLength":1152,
			"byteOffset":0,
			"target":34962
		},
		{
			"buffer":0,
			"byteLength":1152,
			"byteOffset":1152,
			"target":34962
		},
		{
			"buffer":0,
			"byteLength":768,
			"byteOffset":2304,
			"target":34962
		},
		{
			"buffer":0,
			"byteLength":300,
			"byteOffset":3072,
			"target":34963
		},
		{
			"buffer":0,
			"byteLength":288,
			"byteOffset":3372,
			"target":34962
		},
		{
			"buffer":0,
			"byteLength":288,
			"byteOffset":3660,
			"target":34962
		},
		{
			"buffer":0,
			"byteLength":192,
			"byteOffset":3948,
			"target":34962
		},
		{
			"buffer":0,
			"byteLength":120,
			"byteOffset":4140,
			"target":34963
		},
		{
			"buffer":0,
			"byteLength":144,
			"byteOffset":4260,
			"target":34962
		},
		{
			"buffer":0,
			"byteLength":144,
			"byteOffset":4404,
			"target":34962
		},
		{
			"buffer":0,
			"byteLength":96,
			"byteOffset":4548,
			"target":34962
		},
		{
			"buffer":0,
			"byteLength":24,
			"byteOffset":4644,
			"target":34963
		},
		{
			"buffer":0,
			"byteLength":96,
			"byteOffset":4668,
			"target":34962
		},
		{
			"buffer":0,
			"byteLength":96,
			"byteOffset":4764,
			"target":34962
		},
		{
			"buffer":0,
			"byteLength":64,
			"byteOffset":4860,
			"target":34962
		},
		{
			"buffer":0,
			"byteLength":24,
			"byteOffset":4924,
			"target":34963
		},
		{
			"buffer":0,
			"byteLength":408,
			"byteOffset":4948,
			"target":34962
		},
		{
			"buffer":0,
			"byteLength":408,
			"byteOffset":5356,
			"target":34962
		},
		{
			"buffer":0,
			"byteLength":272,
			"byteOffset":5764,
			"target":34962
		},
		{
			"buffer":0,
			"byteLength":96,
			"byteOffset":6036,
			"target":34963
		}
	],
	"samplers":[
		{
			"magFilter":9729,
			"minFilter":9987
		}
	],
	"buffers":[
		{
			"byteLength":6132,
			"uri":"large_1.bin"
		}
	]
}
