{
	"asset":{
		"generator":"Khronos glTF Blender I/O v4.3.47",
		"version":"2.0"
	},
	"scene":0,
	"scenes":[
		{
			"name":"Scene",
			"nodes":[
				0,
				1
			]
		}
	],
	"nodes":[
		{
			"mesh":0,
			"name":"Maxis-3d1-mesh-57",
			"rotation":[
				0.70710688829422,
				0,
				0,
				0.7071066498756409
			]
		},
		{
			"extras":{
				"gd_node":"Decal",
				"lower_fade":9,
				"upper_fade":10
			},
			"mesh":1,
			"name":"Ground_AO",
			"scale":[
				10.688274383544922,
				1,
				29.60350799560547
			],
			"translation":[
				0.23067283630371094,
				-4.33269406130421e-06,
				0.00011110305786132812
			]
		}
	],
	"materials":[
		{
			"name":"mat39-49.001",
			"occlusionTexture":{
				"index":0,
				"texCoord":1
			},
			"pbrMetallicRoughness":{
				"baseColorTexture":{
					"index":1
				},
				"metallicFactor":0
			}
		},
		{
			"name":"mat40-49",
			"occlusionTexture":{
				"index":2,
				"texCoord":1
			},
			"pbrMetallicRoughness":{
				"baseColorTexture":{
					"index":3
				},
				"metallicFactor":0
			}
		},
		{
			"name":"matcolour-48.003",
			"occlusionTexture":{
				"index":4,
				"texCoord":1
			},
			"pbrMetallicRoughness":{
				"baseColorFactor":[
					0.05882352963089943,
					0.05882352963089943,
					0.05882352963089943,
					1
				],
				"metallicFactor":0
			}
		},
		{
			"name":"mat39-54",
			"occlusionTexture":{
				"index":5,
				"texCoord":1
			},
			"pbrMetallicRoughness":{
				"baseColorTexture":{
					"index":6
				},
				"metallicFactor":0
			}
		},
		{
			"name":"mat39-55",
			"occlusionTexture":{
				"index":7,
				"texCoord":1
			},
			"pbrMetallicRoughness":{
				"baseColorTexture":{
					"index":8
				},
				"metallicFactor":0
			}
		},
		{
			"name":"mat39-52",
			"occlusionTexture":{
				"index":9,
				"texCoord":1
			},
			"pbrMetallicRoughness":{
				"baseColorTexture":{
					"index":10
				},
				"metallicFactor":0
			}
		},
		{
			"name":"mat2-14.001",
			"occlusionTexture":{
				"index":11,
				"texCoord":1
			},
			"pbrMetallicRoughness":{
				"baseColorTexture":{
					"index":12
				},
				"metallicFactor":0
			}
		},
		{
			"name":"matcolour-0",
			"occlusionTexture":{
				"index":13,
				"texCoord":1
			},
			"pbrMetallicRoughness":{
				"baseColorFactor":[
					0,
					0,
					0,
					1
				],
				"metallicFactor":0
			}
		},
		{
			"name":"Ground_AO",
			"occlusionTexture":{
				"index":14
			},
			"pbrMetallicRoughness":{
				"baseColorFactor":[
					0.800000011920929,
					0.800000011920929,
					0.800000011920929,
					1
				],
				"metallicFactor":0,
				"roughnessFactor":0.5
			}
		}
	],
	"meshes":[
		{
			"name":"Maxis-3d1-mesh-57",
			"primitives":[
				{
					"attributes":{
						"POSITION":0,
						"NORMAL":1,
						"TEXCOORD_0":2,
						"TEXCOORD_1":3
					},
					"indices":4,
					"material":0
				},
				{
					"attributes":{
						"POSITION":5,
						"NORMAL":6,
						"TEXCOORD_0":7,
						"TEXCOORD_1":8
					},
					"indices":9,
					"material":1
				},
				{
					"attributes":{
						"POSITION":10,
						"NORMAL":11,
						"TEXCOORD_0":12,
						"TEXCOORD_1":13
					},
					"indices":14,
					"material":2
				},
				{
					"attributes":{
						"POSITION":15,
						"NORMAL":16,
						"TEXCOORD_0":17,
						"TEXCOORD_1":18
					},
					"indices":19,
					"material":3
				},
				{
					"attributes":{
						"POSITION":20,
						"NORMAL":21,
						"TEXCOORD_0":22,
						"TEXCOORD_1":23
					},
					"indices":24,
					"material":4
				},
				{
					"attributes":{
						"POSITION":25,
						"NORMAL":26,
						"TEXCOORD_0":27,
						"TEXCOORD_1":28
					},
					"indices":29,
					"material":5
				},
				{
					"attributes":{
						"POSITION":30,
						"NORMAL":31,
						"TEXCOORD_0":32,
						"TEXCOORD_1":33
					},
					"indices":34,
					"material":6
				},
				{
					"attributes":{
						"POSITION":35,
						"NORMAL":36,
						"TEXCOORD_0":37,
						"TEXCOORD_1":38
					},
					"indices":39,
					"material":7
				}
			]
		},
		{
			"name":"Plane",
			"primitives":[
				{
					"attributes":{
						"POSITION":40,
						"NORMAL":41,
						"TEXCOORD_0":42
					},
					"indices":43,
					"material":8
				}
			]
		}
	],
	"textures":[
		{
			"sampler":0,
			"source":0
		},
		{
			"sampler":0,
			"source":1
		},
		{
			"sampler":0,
			"source":0
		},
		{
			"sampler":0,
			"source":2
		},
		{
			"sampler":0,
			"source":0
		},
		{
			"sampler":0,
			"source":0
		},
		{
			"sampler":0,
			"source":3
		},
		{
			"sampler":0,
			"source":0
		},
		{
			"sampler":0,
			"source":4
		},
		{
			"sampler":0,
			"source":0
		},
		{
			"sampler":0,
			"source":5
		},
		{
			"sampler":0,
			"source":0
		},
		{
			"sampler":0,
			"source":6
		},
		{
			"sampler":0,
			"source":0
		},
		{
			"sampler":0,
			"source":7
		}
	],
	"images":[
		{
			"mimeType":"image/png",
			"name":"medium_1.png",
			"uri":"../../../Textures/ambient_occlusion/Buildings/Condominiums/medium_1.png"
		},
		{
			"mimeType":"image/png",
			"name":"tex39-49",
			"uri":"../../../Textures/tex39-49.png"
		},
		{
			"mimeType":"image/png",
			"name":"tex40-49",
			"uri":"../../../Textures/tex40-49.png"
		},
		{
			"mimeType":"image/png",
			"name":"tex39-54",
			"uri":"../../../Textures/tex39-54.png"
		},
		{
			"mimeType":"image/png",
			"name":"tex39-55",
			"uri":"../../../Textures/tex39-55.png"
		},
		{
			"mimeType":"image/png",
			"name":"tex39-52",
			"uri":"../../../Textures/tex39-52.png"
		},
		{
			"mimeType":"image/png",
			"name":"tex2-14",
			"uri":"../../../Textures/tex2-14.png"
		},
		{
			"mimeType":"image/png",
			"name":"medium_1_ground.png",
			"uri":"../../../Textures/ambient_occlusion/Buildings/Condominiums/medium_1_ground.png"
		}
	],
	"accessors":[
		{
			"bufferView":0,
			"componentType":5126,
			"count":40,
			"max":[
				4.61346435546875,
				14.301856994628906,
				0
			],
			"min":[
				-4.61346435546875,
				-14.301643371582031,
				-23.067344665527344
			],
			"type":"VEC3"
		},
		{
			"bufferView":1,
			"componentType":5126,
			"count":40,
			"type":"VEC3"
		},
		{
			"bufferView":2,
			"componentType":5126,
			"count":40,
			"type":"VEC2"
		},
		{
			"bufferView":3,
			"componentType":5126,
			"count":40,
			"type":"VEC2"
		},
		{
			"bufferView":4,
			"componentType":5123,
			"count":60,
			"type":"SCALAR"
		},
		{
			"bufferView":5,
			"componentType":5126,
			"count":12,
			"max":[
				-2.768077850341797,
				12.456470489501953,
				0
			],
			"min":[
				-3.6907730102539062,
				-12.456249237060547,
				-23.067340850830078
			],
			"type":"VEC3"
		},
		{
			"bufferView":6,
			"componentType":5126,
			"count":12,
			"type":"VEC3"
		},
		{
			"bufferView":7,
			"componentType":5126,
			"count":12,
			"type":"VEC2"
		},
		{
			"bufferView":8,
			"componentType":5126,
			"count":12,
			"type":"VEC2"
		},
		{
			"bufferView":9,
			"componentType":5123,
			"count":18,
			"type":"SCALAR"
		},
		{
			"bufferView":10,
			"componentType":5126,
			"count":114,
			"max":[
				5.074810028076172,
				14.301849365234375,
				0
			],
			"min":[
				-4.61346435546875,
				-14.301643371582031,
				-27.75
			],
			"type":"VEC3"
		},
		{
			"bufferView":11,
			"componentType":5126,
			"count":114,
			"type":"VEC3"
		},
		{
			"bufferView":12,
			"componentType":5126,
			"count":114,
			"type":"VEC2"
		},
		{
			"bufferView":13,
			"componentType":5126,
			"count":114,
			"type":"VEC2"
		},
		{
			"bufferView":14,
			"componentType":5123,
			"count":198,
			"type":"SCALAR"
		},
		{
			"bufferView":15,
			"componentType":5126,
			"count":16,
			"max":[
				3.6907691955566406,
				11.53377914428711,
				0
			],
			"min":[
				3.2294235229492188,
				-11.533561706542969,
				-23.067340850830078
			],
			"type":"VEC3"
		},
		{
			"bufferView":16,
			"componentType":5126,
			"count":16,
			"type":"VEC3"
		},
		{
			"bufferView":17,
			"componentType":5126,
			"count":16,
			"type":"VEC2"
		},
		{
			"bufferView":18,
			"componentType":5126,
			"count":16,
			"type":"VEC2"
		},
		{
			"bufferView":19,
			"componentType":5123,
			"count":30,
			"type":"SCALAR"
		},
		{
			"bufferView":20,
			"componentType":5126,
			"count":4,
			"max":[
				1.3840370178222656,
				14.301856994628906,
				0
			],
			"min":[
				-4.61346435546875,
				12.917808532714844,
				-23.067344665527344
			],
			"type":"VEC3"
		},
		{
			"bufferView":21,
			"componentType":5126,
			"count":4,
			"type":"VEC3"
		},
		{
			"bufferView":22,
			"componentType":5126,
			"count":4,
			"type":"VEC2"
		},
		{
			"bufferView":23,
			"componentType":5126,
			"count":4,
			"type":"VEC2"
		},
		{
			"bufferView":24,
			"componentType":5123,
			"count":6,
			"type":"SCALAR"
		},
		{
			"bufferView":25,
			"componentType":5126,
			"count":4,
			"max":[
				1.3840370178222656,
				-12.917591094970703,
				0
			],
			"min":[
				-4.61346435546875,
				-14.301643371582031,
				-23.067325592041016
			],
			"type":"VEC3"
		},
		{
			"bufferView":26,
			"componentType":5126,
			"count":4,
			"type":"VEC3"
		},
		{
			"bufferView":27,
			"componentType":5126,
			"count":4,
			"type":"VEC2"
		},
		{
			"bufferView":28,
			"componentType":5126,
			"count":4,
			"type":"VEC2"
		},
		{
			"bufferView":29,
			"componentType":5123,
			"count":6,
			"type":"SCALAR"
		},
		{
			"bufferView":30,
			"componentType":5126,
			"count":4,
			"max":[
				5.074810028076172,
				1.8455009460449219,
				0
			],
			"min":[
				5.074810028076172,
				-1.84527587890625,
				-7.166664123535156
			],
			"type":"VEC3"
		},
		{
			"bufferView":31,
			"componentType":5126,
			"count":4,
			"type":"VEC3"
		},
		{
			"bufferView":32,
			"componentType":5126,
			"count":4,
			"type":"VEC2"
		},
		{
			"bufferView":33,
			"componentType":5126,
			"count":4,
			"type":"VEC2"
		},
		{
			"bufferView":34,
			"componentType":5123,
			"count":6,
			"type":"SCALAR"
		},
		{
			"bufferView":35,
			"componentType":5126,
			"count":12,
			"max":[
				0.6061515808105469,
				0.8749961853027344,
				-25.633548736572266
			],
			"min":[
				-1.1061515808105469,
				-1.875,
				-27.116451263427734
			],
			"type":"VEC3"
		},
		{
			"bufferView":36,
			"componentType":5126,
			"count":12,
			"type":"VEC3"
		},
		{
			"bufferView":37,
			"componentType":5126,
			"count":12,
			"type":"VEC2"
		},
		{
			"bufferView":38,
			"componentType":5126,
			"count":12,
			"type":"VEC2"
		},
		{
			"bufferView":39,
			"componentType":5123,
			"count":24,
			"type":"SCALAR"
		},
		{
			"bufferView":40,
			"componentType":5126,
			"count":4,
			"max":[
				0.5,
				0,
				0.5
			],
			"min":[
				-0.5,
				0,
				-0.5
			],
			"type":"VEC3"
		},
		{
			"bufferView":41,
			"componentType":5126,
			"count":4,
			"type":"VEC3"
		},
		{
			"bufferView":42,
			"componentType":5126,
			"count":4,
			"type":"VEC2"
		},
		{
			"bufferView":43,
			"componentType":5123,
			"count":6,
			"type":"SCALAR"
		}
	],
	"bufferViews":[
		{
			"buffer":0,
			"byteLength":480,
			"byteOffset":0,
			"target":34962
		},
		{
			"buffer":0,
			"byteLength":480,
			"byteOffset":480,
			"target":34962
		},
		{
			"buffer":0,
			"byteLength":320,
			"byteOffset":960,
			"target":34962
		},
		{
			"buffer":0,
			"byteLength":320,
			"byteOffset":1280,
			"target":34962
		},
		{
			"buffer":0,
			"byteLength":120,
			"byteOffset":1600,
			"target":34963
		},
		{
			"buffer":0,
			"byteLength":144,
			"byteOffset":1720,
			"target":34962
		},
		{
			"buffer":0,
			"byteLength":144,
			"byteOffset":1864,
			"target":34962
		},
		{
			"buffer":0,
			"byteLength":96,
			"byteOffset":2008,
			"target":34962
		},
		{
			"buffer":0,
			"byteLength":96,
			"byteOffset":2104,
			"target":34962
		},
		{
			"buffer":0,
			"byteLength":36,
			"byteOffset":2200,
			"target":34963
		},
		{
			"buffer":0,
			"byteLength":1368,
			"byteOffset":2236,
			"target":34962
		},
		{
			"buffer":0,
			"byteLength":1368,
			"byteOffset":3604,
			"target":34962
		},
		{
			"buffer":0,
			"byteLength":912,
			"byteOffset":4972,
			"target":34962
		},
		{
			"buffer":0,
			"byteLength":912,
			"byteOffset":5884,
			"target":34962
		},
		{
			"buffer":0,
			"byteLength":396,
			"byteOffset":6796,
			"target":34963
		},
		{
			"buffer":0,
			"byteLength":192,
			"byteOffset":7192,
			"target":34962
		},
		{
			"buffer":0,
			"byteLength":192,
			"byteOffset":7384,
			"target":34962
		},
		{
			"buffer":0,
			"byteLength":128,
			"byteOffset":7576,
			"target":34962
		},
		{
			"buffer":0,
			"byteLength":128,
			"byteOffset":7704,
			"target":34962
		},
		{
			"buffer":0,
			"byteLength":60,
			"byteOffset":7832,
			"target":34963
		},
		{
			"buffer":0,
			"byteLength":48,
			"byteOffset":7892,
			"target":34962
		},
		{
			"buffer":0,
			"byteLength":48,
			"byteOffset":7940,
			"target":34962
		},
		{
			"buffer":0,
			"byteLength":32,
			"byteOffset":7988,
			"target":34962
		},
		{
			"buffer":0,
			"byteLength":32,
			"byteOffset":8020,
			"target":34962
		},
		{
			"buffer":0,
			"byteLength":12,
			"byteOffset":8052,
			"target":34963
		},
		{
			"buffer":0,
			"byteLength":48,
			"byteOffset":8064,
			"target":34962
		},
		{
			"buffer":0,
			"byteLength":48,
			"byteOffset":8112,
			"target":34962
		},
		{
			"buffer":0,
			"byteLength":32,
			"byteOffset":8160,
			"target":34962
		},
		{
			"buffer":0,
			"byteLength":32,
			"byteOffset":8192,
			"target":34962
		},
		{
			"buffer":0,
			"byteLength":12,
			"byteOffset":8224,
			"target":34963
		},
		{
			"buffer":0,
			"byteLength":48,
			"byteOffset":8236,
			"target":34962
		},
		{
			"buffer":0,
			"byteLength":48,
			"byteOffset":8284,
			"target":34962
		},
		{
			"buffer":0,
			"byteLength":32,
			"byteOffset":8332,
			"target":34962
		},
		{
			"buffer":0,
			"byteLength":32,
			"byteOffset":8364,
			"target":34962
		},
		{
			"buffer":0,
			"byteLength":12,
			"byteOffset":8396,
			"target":34963
		},
		{
			"buffer":0,
			"byteLength":144,
			"byteOffset":8408,
			"target":34962
		},
		{
			"buffer":0,
			"byteLength":144,
			"byteOffset":8552,
			"target":34962
		},
		{
			"buffer":0,
			"byteLength":96,
			"byteOffset":8696,
			"target":34962
		},
		{
			"buffer":0,
			"byteLength":96,
			"byteOffset":8792,
			"target":34962
		},
		{
			"buffer":0,
			"byteLength":48,
			"byteOffset":8888,
			"target":34963
		},
		{
			"buffer":0,
			"byteLength":48,
			"byteOffset":8936,
			"target":34962
		},
		{
			"buffer":0,
			"byteLength":48,
			"byteOffset":8984,
			"target":34962
		},
		{
			"buffer":0,
			"byteLength":32,
			"byteOffset":9032,
			"target":34962
		},
		{
			"buffer":0,
			"byteLength":12,
			"byteOffset":9064,
			"target":34963
		}
	],
	"samplers":[
		{
			"magFilter":9729,
			"minFilter":9987
		}
	],
	"buffers":[
		{
			"byteLength":9076,
			"uri":"medium_1.bin"
		}
	]
}
