{
	"asset":{
		"generator":"Khronos glTF Blender I/O v4.3.47",
		"version":"2.0"
	},
	"scene":0,
	"scenes":[
		{
			"name":"Scene",
			"nodes":[
				0,
				1
			]
		}
	],
	"nodes":[
		{
			"mesh":0,
			"name":"Maxis-3d3-mesh-33",
			"rotation":[
				0.70710688829422,
				0,
				0,
				0.7071066498756409
			]
		},
		{
			"extras":{
				"gd_node":"Decal",
				"lower_fade":9,
				"upper_fade":10
			},
			"mesh":1,
			"name":"Ground_AO",
			"scale":[
				20.60999298095703,
				1,
				21.670005798339844
			],
			"translation":[
				-0.25,
				-3.055212800973095e-06,
				-0.2499985694885254
			]
		}
	],
	"materials":[
		{
			"name":"mat2-60",
			"occlusionTexture":{
				"index":0,
				"texCoord":1
			},
			"pbrMetallicRoughness":{
				"baseColorTexture":{
					"index":1
				},
				"metallicFactor":0
			}
		},
		{
			"name":"mat2-55",
			"occlusionTexture":{
				"index":2,
				"texCoord":1
			},
			"pbrMetallicRoughness":{
				"baseColorTexture":{
					"index":3
				},
				"metallicFactor":0
			}
		},
		{
			"name":"matcolour-208",
			"occlusionTexture":{
				"index":4,
				"texCoord":1
			},
			"pbrMetallicRoughness":{
				"baseColorFactor":[
					0.49803921580314636,
					0.29019609093666077,
					0.03921568766236305,
					1
				],
				"metallicFactor":0
			}
		},
		{
			"name":"matcolour-48",
			"occlusionTexture":{
				"index":5,
				"texCoord":1
			},
			"pbrMetallicRoughness":{
				"baseColorFactor":[
					0.05882352963089943,
					0.05882352963089943,
					0.05882352963089943,
					1
				],
				"metallicFactor":0
			}
		},
		{
			"name":"Ground_AO",
			"occlusionTexture":{
				"index":6
			},
			"pbrMetallicRoughness":{
				"baseColorFactor":[
					0.800000011920929,
					0.800000011920929,
					0.800000011920929,
					1
				],
				"metallicFactor":0,
				"roughnessFactor":0.5
			}
		}
	],
	"meshes":[
		{
			"name":"Maxis-3d3-mesh-33",
			"primitives":[
				{
					"attributes":{
						"POSITION":0,
						"NORMAL":1,
						"TEXCOORD_0":2,
						"TEXCOORD_1":3
					},
					"indices":4,
					"material":0
				},
				{
					"attributes":{
						"POSITION":5,
						"NORMAL":6,
						"TEXCOORD_0":7,
						"TEXCOORD_1":8
					},
					"indices":9,
					"material":1
				},
				{
					"attributes":{
						"POSITION":10,
						"NORMAL":11,
						"TEXCOORD_0":12,
						"TEXCOORD_1":13
					},
					"indices":14,
					"material":2
				},
				{
					"attributes":{
						"POSITION":15,
						"NORMAL":16,
						"TEXCOORD_0":17,
						"TEXCOORD_1":18
					},
					"indices":19,
					"material":3
				}
			]
		},
		{
			"name":"Plane",
			"primitives":[
				{
					"attributes":{
						"POSITION":20,
						"NORMAL":21,
						"TEXCOORD_0":22
					},
					"indices":23,
					"material":4
				}
			]
		}
	],
	"textures":[
		{
			"sampler":0,
			"source":0
		},
		{
			"sampler":0,
			"source":1
		},
		{
			"sampler":0,
			"source":0
		},
		{
			"sampler":0,
			"source":2
		},
		{
			"sampler":0,
			"source":0
		},
		{
			"sampler":0,
			"source":0
		},
		{
			"sampler":0,
			"source":3
		}
	],
	"images":[
		{
			"mimeType":"image/png",
			"name":"medium_2.png",
			"uri":"../../../Textures/ambient_occlusion/Buildings/Condominiums/medium_2.png"
		},
		{
			"mimeType":"image/png",
			"name":"tex2-60",
			"uri":"../../../Textures/tex2-60.png"
		},
		{
			"mimeType":"image/png",
			"name":"tex2-55",
			"uri":"../../../Textures/tex2-55.png"
		},
		{
			"mimeType":"image/png",
			"name":"medium_2_ground.png",
			"uri":"../../../Textures/ambient_occlusion/Buildings/Condominiums/medium_2_ground.png"
		}
	],
	"accessors":[
		{
			"bufferView":0,
			"componentType":5126,
			"count":86,
			"max":[
				9.554996490478516,
				10.084999084472656,
				-19.225723266601562
			],
			"min":[
				-10.054996490478516,
				-10.585002899169922,
				-23
			],
			"type":"VEC3"
		},
		{
			"bufferView":1,
			"componentType":5126,
			"count":86,
			"type":"VEC3"
		},
		{
			"bufferView":2,
			"componentType":5126,
			"count":86,
			"type":"VEC2"
		},
		{
			"bufferView":3,
			"componentType":5126,
			"count":86,
			"type":"VEC2"
		},
		{
			"bufferView":4,
			"componentType":5123,
			"count":144,
			"type":"SCALAR"
		},
		{
			"bufferView":5,
			"componentType":5126,
			"count":32,
			"max":[
				9.015296936035156,
				9.5,
				0
			],
			"min":[
				-9.5,
				-10.000003814697266,
				-19.225826263427734
			],
			"type":"VEC3"
		},
		{
			"bufferView":6,
			"componentType":5126,
			"count":32,
			"type":"VEC3"
		},
		{
			"bufferView":7,
			"componentType":5126,
			"count":32,
			"type":"VEC2"
		},
		{
			"bufferView":8,
			"componentType":5126,
			"count":32,
			"type":"VEC2"
		},
		{
			"bufferView":9,
			"componentType":5123,
			"count":48,
			"type":"SCALAR"
		},
		{
			"bufferView":10,
			"componentType":5126,
			"count":16,
			"max":[
				9.554996490478516,
				10.08499526977539,
				-19.774272918701172
			],
			"min":[
				-10.054996490478516,
				-10.585002899169922,
				-19.774272918701172
			],
			"type":"VEC3"
		},
		{
			"bufferView":11,
			"componentType":5126,
			"count":16,
			"type":"VEC3"
		},
		{
			"bufferView":12,
			"componentType":5126,
			"count":16,
			"type":"VEC2"
		},
		{
			"bufferView":13,
			"componentType":5126,
			"count":16,
			"type":"VEC2"
		},
		{
			"bufferView":14,
			"componentType":5123,
			"count":48,
			"type":"SCALAR"
		},
		{
			"bufferView":15,
			"componentType":5126,
			"count":8,
			"max":[
				9.015296936035156,
				9.499996185302734,
				-23
			],
			"min":[
				-9.5,
				-10.000003814697266,
				-23
			],
			"type":"VEC3"
		},
		{
			"bufferView":16,
			"componentType":5126,
			"count":8,
			"type":"VEC3"
		},
		{
			"bufferView":17,
			"componentType":5126,
			"count":8,
			"type":"VEC2"
		},
		{
			"bufferView":18,
			"componentType":5126,
			"count":8,
			"type":"VEC2"
		},
		{
			"bufferView":19,
			"componentType":5123,
			"count":18,
			"type":"SCALAR"
		},
		{
			"bufferView":20,
			"componentType":5126,
			"count":4,
			"max":[
				0.5,
				0,
				0.5
			],
			"min":[
				-0.5,
				0,
				-0.5
			],
			"type":"VEC3"
		},
		{
			"bufferView":21,
			"componentType":5126,
			"count":4,
			"type":"VEC3"
		},
		{
			"bufferView":22,
			"componentType":5126,
			"count":4,
			"type":"VEC2"
		},
		{
			"bufferView":23,
			"componentType":5123,
			"count":6,
			"type":"SCALAR"
		}
	],
	"bufferViews":[
		{
			"buffer":0,
			"byteLength":1032,
			"byteOffset":0,
			"target":34962
		},
		{
			"buffer":0,
			"byteLength":1032,
			"byteOffset":1032,
			"target":34962
		},
		{
			"buffer":0,
			"byteLength":688,
			"byteOffset":2064,
			"target":34962
		},
		{
			"buffer":0,
			"byteLength":688,
			"byteOffset":2752,
			"target":34962
		},
		{
			"buffer":0,
			"byteLength":288,
			"byteOffset":3440,
			"target":34963
		},
		{
			"buffer":0,
			"byteLength":384,
			"byteOffset":3728,
			"target":34962
		},
		{
			"buffer":0,
			"byteLength":384,
			"byteOffset":4112,
			"target":34962
		},
		{
			"buffer":0,
			"byteLength":256,
			"byteOffset":4496,
			"target":34962
		},
		{
			"buffer":0,
			"byteLength":256,
			"byteOffset":4752,
			"target":34962
		},
		{
			"buffer":0,
			"byteLength":96,
			"byteOffset":5008,
			"target":34963
		},
		{
			"buffer":0,
			"byteLength":192,
			"byteOffset":5104,
			"target":34962
		},
		{
			"buffer":0,
			"byteLength":192,
			"byteOffset":5296,
			"target":34962
		},
		{
			"buffer":0,
			"byteLength":128,
			"byteOffset":5488,
			"target":34962
		},
		{
			"buffer":0,
			"byteLength":128,
			"byteOffset":5616,
			"target":34962
		},
		{
			"buffer":0,
			"byteLength":96,
			"byteOffset":5744,
			"target":34963
		},
		{
			"buffer":0,
			"byteLength":96,
			"byteOffset":5840,
			"target":34962
		},
		{
			"buffer":0,
			"byteLength":96,
			"byteOffset":5936,
			"target":34962
		},
		{
			"buffer":0,
			"byteLength":64,
			"byteOffset":6032,
			"target":34962
		},
		{
			"buffer":0,
			"byteLength":64,
			"byteOffset":6096,
			"target":34962
		},
		{
			"buffer":0,
			"byteLength":36,
			"byteOffset":6160,
			"target":34963
		},
		{
			"buffer":0,
			"byteLength":48,
			"byteOffset":6196,
			"target":34962
		},
		{
			"buffer":0,
			"byteLength":48,
			"byteOffset":6244,
			"target":34962
		},
		{
			"buffer":0,
			"byteLength":32,
			"byteOffset":6292,
			"target":34962
		},
		{
			"buffer":0,
			"byteLength":12,
			"byteOffset":6324,
			"target":34963
		}
	],
	"samplers":[
		{
			"magFilter":9729,
			"minFilter":9987
		}
	],
	"buffers":[
		{
			"byteLength":6336,
			"uri":"medium_2.bin"
		}
	]
}
