{
	"asset":{
		"generator":"Khronos glTF Blender I/O v4.3.47",
		"version":"2.0"
	},
	"scene":0,
	"scenes":[
		{
			"name":"Scene",
			"nodes":[
				0,
				1
			]
		}
	],
	"nodes":[
		{
			"mesh":0,
			"name":"Maxis-3d3-mesh-34",
			"rotation":[
				0.70710688829422,
				0,
				0,
				0.7071066498756409
			]
		},
		{
			"extras":{
				"gd_node":"Decal",
				"lower_fade":9,
				"upper_fade":10
			},
			"mesh":1,
			"name":"Ground_AO",
			"scale":[
				20.2110595703125,
				1,
				20.603952407836914
			],
			"translation":[
				-0.11172866821289062,
				-3.1633560411137296e-06,
				0.6400012969970703
			]
		}
	],
	"materials":[
		{
			"name":"mat2-56",
			"occlusionTexture":{
				"index":0,
				"texCoord":1
			},
			"pbrMetallicRoughness":{
				"baseColorTexture":{
					"index":1
				},
				"metallicFactor":0
			}
		},
		{
			"name":"matcolour-128",
			"occlusionTexture":{
				"index":2,
				"texCoord":1
			},
			"pbrMetallicRoughness":{
				"baseColorFactor":[
					0.12156862765550613,
					0.08235294371843338,
					0.062745101749897,
					1
				],
				"metallicFactor":0
			}
		},
		{
			"name":"matcolour-48",
			"occlusionTexture":{
				"index":3,
				"texCoord":1
			},
			"pbrMetallicRoughness":{
				"baseColorFactor":[
					0.05882352963089943,
					0.05882352963089943,
					0.05882352963089943,
					1
				],
				"metallicFactor":0
			}
		},
		{
			"name":"Ground_AO",
			"occlusionTexture":{
				"index":4
			},
			"pbrMetallicRoughness":{
				"baseColorFactor":[
					0.800000011920929,
					0.800000011920929,
					0.800000011920929,
					1
				],
				"metallicFactor":0,
				"roughnessFactor":0.5
			}
		}
	],
	"meshes":[
		{
			"name":"Maxis-3d3-mesh-34",
			"primitives":[
				{
					"attributes":{
						"POSITION":0,
						"NORMAL":1,
						"TEXCOORD_0":2,
						"TEXCOORD_1":3
					},
					"indices":4,
					"material":0
				},
				{
					"attributes":{
						"POSITION":5,
						"NORMAL":6,
						"TEXCOORD_0":7,
						"TEXCOORD_1":8
					},
					"indices":9,
					"material":1
				},
				{
					"attributes":{
						"POSITION":10,
						"NORMAL":11,
						"TEXCOORD_0":12,
						"TEXCOORD_1":13
					},
					"indices":14,
					"material":2
				}
			]
		},
		{
			"name":"Plane",
			"primitives":[
				{
					"attributes":{
						"POSITION":15,
						"NORMAL":16,
						"TEXCOORD_0":17
					},
					"indices":18,
					"material":3
				}
			]
		}
	],
	"textures":[
		{
			"sampler":0,
			"source":0
		},
		{
			"sampler":0,
			"source":1
		},
		{
			"sampler":0,
			"source":0
		},
		{
			"sampler":0,
			"source":0
		},
		{
			"sampler":0,
			"source":2
		}
	],
	"images":[
		{
			"mimeType":"image/png",
			"name":"medium_3.png",
			"uri":"../../../Textures/ambient_occlusion/Buildings/Condominiums/medium_3.png"
		},
		{
			"mimeType":"image/png",
			"name":"tex2-56",
			"uri":"../../../Textures/tex2-56.png"
		},
		{
			"mimeType":"image/png",
			"name":"medium_3_ground.png",
			"uri":"../../../Textures/ambient_occlusion/Buildings/Condominiums/medium_3_ground.png"
		}
	],
	"accessors":[
		{
			"bufferView":0,
			"componentType":5126,
			"count":20,
			"max":[
				9.49380111694336,
				9.165946960449219,
				0
			],
			"min":[
				-9.71725845336914,
				-9.161975860595703,
				-25.733131408691406
			],
			"type":"VEC3"
		},
		{
			"bufferView":1,
			"componentType":5126,
			"count":20,
			"type":"VEC3"
		},
		{
			"bufferView":2,
			"componentType":5126,
			"count":20,
			"type":"VEC2"
		},
		{
			"bufferView":3,
			"componentType":5126,
			"count":20,
			"type":"VEC2"
		},
		{
			"bufferView":4,
			"componentType":5123,
			"count":30,
			"type":"SCALAR"
		},
		{
			"bufferView":5,
			"componentType":5126,
			"count":12,
			"max":[
				3.6788482666015625,
				10.441970825195312,
				0
			],
			"min":[
				-3.7654380798339844,
				9.165946960449219,
				-25.733135223388672
			],
			"type":"VEC3"
		},
		{
			"bufferView":6,
			"componentType":5126,
			"count":12,
			"type":"VEC3"
		},
		{
			"bufferView":7,
			"componentType":5126,
			"count":12,
			"type":"VEC2"
		},
		{
			"bufferView":8,
			"componentType":5126,
			"count":12,
			"type":"VEC2"
		},
		{
			"bufferView":9,
			"componentType":5123,
			"count":18,
			"type":"SCALAR"
		},
		{
			"bufferView":10,
			"componentType":5126,
			"count":8,
			"max":[
				9.49380111694336,
				10.44195556640625,
				-25.73312759399414
			],
			"min":[
				-9.71725845336914,
				-9.161975860595703,
				-25.733135223388672
			],
			"type":"VEC3"
		},
		{
			"bufferView":11,
			"componentType":5126,
			"count":8,
			"type":"VEC3"
		},
		{
			"bufferView":12,
			"componentType":5126,
			"count":8,
			"type":"VEC2"
		},
		{
			"bufferView":13,
			"componentType":5126,
			"count":8,
			"type":"VEC2"
		},
		{
			"bufferView":14,
			"componentType":5123,
			"count":18,
			"type":"SCALAR"
		},
		{
			"bufferView":15,
			"componentType":5126,
			"count":4,
			"max":[
				0.5,
				0,
				0.5
			],
			"min":[
				-0.5,
				0,
				-0.5
			],
			"type":"VEC3"
		},
		{
			"bufferView":16,
			"componentType":5126,
			"count":4,
			"type":"VEC3"
		},
		{
			"bufferView":17,
			"componentType":5126,
			"count":4,
			"type":"VEC2"
		},
		{
			"bufferView":18,
			"componentType":5123,
			"count":6,
			"type":"SCALAR"
		}
	],
	"bufferViews":[
		{
			"buffer":0,
			"byteLength":240,
			"byteOffset":0,
			"target":34962
		},
		{
			"buffer":0,
			"byteLength":240,
			"byteOffset":240,
			"target":34962
		},
		{
			"buffer":0,
			"byteLength":160,
			"byteOffset":480,
			"target":34962
		},
		{
			"buffer":0,
			"byteLength":160,
			"byteOffset":640,
			"target":34962
		},
		{
			"buffer":0,
			"byteLength":60,
			"byteOffset":800,
			"target":34963
		},
		{
			"buffer":0,
			"byteLength":144,
			"byteOffset":860,
			"target":34962
		},
		{
			"buffer":0,
			"byteLength":144,
			"byteOffset":1004,
			"target":34962
		},
		{
			"buffer":0,
			"byteLength":96,
			"byteOffset":1148,
			"target":34962
		},
		{
			"buffer":0,
			"byteLength":96,
			"byteOffset":1244,
			"target":34962
		},
		{
			"buffer":0,
			"byteLength":36,
			"byteOffset":1340,
			"target":34963
		},
		{
			"buffer":0,
			"byteLength":96,
			"byteOffset":1376,
			"target":34962
		},
		{
			"buffer":0,
			"byteLength":96,
			"byteOffset":1472,
			"target":34962
		},
		{
			"buffer":0,
			"byteLength":64,
			"byteOffset":1568,
			"target":34962
		},
		{
			"buffer":0,
			"byteLength":64,
			"byteOffset":1632,
			"target":34962
		},
		{
			"buffer":0,
			"byteLength":36,
			"byteOffset":1696,
			"target":34963
		},
		{
			"buffer":0,
			"byteLength":48,
			"byteOffset":1732,
			"target":34962
		},
		{
			"buffer":0,
			"byteLength":48,
			"byteOffset":1780,
			"target":34962
		},
		{
			"buffer":0,
			"byteLength":32,
			"byteOffset":1828,
			"target":34962
		},
		{
			"buffer":0,
			"byteLength":12,
			"byteOffset":1860,
			"target":34963
		}
	],
	"samplers":[
		{
			"magFilter":9729,
			"minFilter":9987
		}
	],
	"buffers":[
		{
			"byteLength":1872,
			"uri":"medium_3.bin"
		}
	]
}
