{
	"asset":{
		"generator":"Khronos glTF Blender I/O v4.1.63",
		"version":"2.0"
	},
	"scene":0,
	"scenes":[
		{
			"name":"Scene",
			"nodes":[
				0
			]
		}
	],
	"nodes":[
		{
			"mesh":0,
			"name":"Maxis-3d3-mesh-33",
			"rotation":[
				0.70710688829422,
				0,
				0,
				0.7071066498756409
			]
		}
	],
	"materials":[
		{
			"name":"mat2-60",
			"pbrMetallicRoughness":{
				"baseColorTexture":{
					"index":0
				},
				"metallicFactor":0
			}
		},
		{
			"name":"mat2-55",
			"pbrMetallicRoughness":{
				"baseColorTexture":{
					"index":1
				},
				"metallicFactor":0
			}
		},
		{
			"name":"matcolour-208",
			"pbrMetallicRoughness":{
				"baseColorFactor":[
					0.49803921580314636,
					0.29019609093666077,
					0.03921568766236305,
					1
				],
				"metallicFactor":0
			}
		},
		{
			"name":"matcolour-48",
			"pbrMetallicRoughness":{
				"baseColorFactor":[
					0.05882352963089943,
					0.05882352963089943,
					0.05882352963089943,
					1
				],
				"metallicFactor":0
			}
		}
	],
	"meshes":[
		{
			"name":"Maxis-3d3-mesh-33",
			"primitives":[
				{
					"attributes":{
						"POSITION":0,
						"NORMAL":1,
						"TEXCOORD_0":2
					},
					"indices":3,
					"material":0
				},
				{
					"attributes":{
						"POSITION":4,
						"NORMAL":5,
						"TEXCOORD_0":6
					},
					"indices":7,
					"material":0
				},
				{
					"attributes":{
						"POSITION":8,
						"NORMAL":9,
						"TEXCOORD_0":10
					},
					"indices":11,
					"material":1
				},
				{
					"attributes":{
						"POSITION":12,
						"NORMAL":13,
						"TEXCOORD_0":14
					},
					"indices":15,
					"material":1
				},
				{
					"attributes":{
						"POSITION":16,
						"NORMAL":17,
						"TEXCOORD_0":18
					},
					"indices":19,
					"material":0
				},
				{
					"attributes":{
						"POSITION":20,
						"NORMAL":21,
						"TEXCOORD_0":22
					},
					"indices":23,
					"material":2
				},
				{
					"attributes":{
						"POSITION":24,
						"NORMAL":25,
						"TEXCOORD_0":26
					},
					"indices":27,
					"material":3
				},
				{
					"attributes":{
						"POSITION":28,
						"NORMAL":29,
						"TEXCOORD_0":30
					},
					"indices":31,
					"material":0
				},
				{
					"attributes":{
						"POSITION":32,
						"NORMAL":33,
						"TEXCOORD_0":34
					},
					"indices":35,
					"material":1
				},
				{
					"attributes":{
						"POSITION":36,
						"NORMAL":37,
						"TEXCOORD_0":38
					},
					"indices":39,
					"material":1
				}
			]
		}
	],
	"textures":[
		{
			"sampler":0,
			"source":0
		},
		{
			"sampler":0,
			"source":1
		}
	],
	"images":[
		{
			"mimeType":"image/png",
			"name":"tex2-60",
			"uri":"../../../Textures/tex2-60.png"
		},
		{
			"mimeType":"image/png",
			"name":"tex2-55",
			"uri":"../../../Textures/tex2-55.png"
		}
	],
	"accessors":[
		{
			"bufferView":0,
			"componentType":5126,
			"count":16,
			"max":[
				9.554996490478516,
				10.084999084472656,
				-19.225723266601562
			],
			"min":[
				-3.6812477111816406,
				-10.585002899169922,
				-23
			],
			"type":"VEC3"
		},
		{
			"bufferView":1,
			"componentType":5126,
			"count":16,
			"type":"VEC3"
		},
		{
			"bufferView":2,
			"componentType":5126,
			"count":16,
			"type":"VEC2"
		},
		{
			"bufferView":3,
			"componentType":5123,
			"count":24,
			"type":"SCALAR"
		},
		{
			"bufferView":4,
			"componentType":5126,
			"count":16,
			"max":[
				3.487499237060547,
				10.084999084472656,
				-19.225723266601562
			],
			"min":[
				-10.054996490478516,
				-10.585002899169922,
				-23
			],
			"type":"VEC3"
		},
		{
			"bufferView":5,
			"componentType":5126,
			"count":16,
			"type":"VEC3"
		},
		{
			"bufferView":6,
			"componentType":5126,
			"count":16,
			"type":"VEC2"
		},
		{
			"bufferView":7,
			"componentType":5123,
			"count":24,
			"type":"SCALAR"
		},
		{
			"bufferView":8,
			"componentType":5126,
			"count":8,
			"max":[
				3.487499237060547,
				9.5,
				0
			],
			"min":[
				-9.5,
				-10.000003814697266,
				-19.225723266601562
			],
			"type":"VEC3"
		},
		{
			"bufferView":9,
			"componentType":5126,
			"count":8,
			"type":"VEC3"
		},
		{
			"bufferView":10,
			"componentType":5126,
			"count":8,
			"type":"VEC2"
		},
		{
			"bufferView":11,
			"componentType":5123,
			"count":12,
			"type":"SCALAR"
		},
		{
			"bufferView":12,
			"componentType":5126,
			"count":9,
			"max":[
				9.015296936035156,
				9.5,
				0
			],
			"min":[
				-3.6812477111816406,
				-10,
				-19.225826263427734
			],
			"type":"VEC3"
		},
		{
			"bufferView":13,
			"componentType":5126,
			"count":9,
			"type":"VEC3"
		},
		{
			"bufferView":14,
			"componentType":5126,
			"count":9,
			"type":"VEC2"
		},
		{
			"bufferView":15,
			"componentType":5123,
			"count":12,
			"type":"SCALAR"
		},
		{
			"bufferView":16,
			"componentType":5126,
			"count":46,
			"max":[
				9.554996490478516,
				10.084999084472656,
				-19.225723266601562
			],
			"min":[
				-10.054996490478516,
				-10.584999084472656,
				-23
			],
			"type":"VEC3"
		},
		{
			"bufferView":17,
			"componentType":5126,
			"count":46,
			"type":"VEC3"
		},
		{
			"bufferView":18,
			"componentType":5126,
			"count":46,
			"type":"VEC2"
		},
		{
			"bufferView":19,
			"componentType":5123,
			"count":84,
			"type":"SCALAR"
		},
		{
			"bufferView":20,
			"componentType":5126,
			"count":16,
			"max":[
				9.554996490478516,
				10.08499526977539,
				-19.774272918701172
			],
			"min":[
				-10.054996490478516,
				-10.585002899169922,
				-19.774272918701172
			],
			"type":"VEC3"
		},
		{
			"bufferView":21,
			"componentType":5126,
			"count":16,
			"type":"VEC3"
		},
		{
			"bufferView":22,
			"componentType":5126,
			"count":16,
			"type":"VEC2"
		},
		{
			"bufferView":23,
			"componentType":5123,
			"count":48,
			"type":"SCALAR"
		},
		{
			"bufferView":24,
			"componentType":5126,
			"count":8,
			"max":[
				9.015296936035156,
				9.499996185302734,
				-23
			],
			"min":[
				-9.5,
				-10.000003814697266,
				-23
			],
			"type":"VEC3"
		},
		{
			"bufferView":25,
			"componentType":5126,
			"count":8,
			"type":"VEC3"
		},
		{
			"bufferView":26,
			"componentType":5126,
			"count":8,
			"type":"VEC2"
		},
		{
			"bufferView":27,
			"componentType":5123,
			"count":18,
			"type":"SCALAR"
		},
		{
			"bufferView":28,
			"componentType":5126,
			"count":8,
			"max":[
				9.554996490478516,
				-10,
				-19.225723266601562
			],
			"min":[
				-10.054996490478516,
				-10.585002899169922,
				-23
			],
			"type":"VEC3"
		},
		{
			"bufferView":29,
			"componentType":5126,
			"count":8,
			"type":"VEC3"
		},
		{
			"bufferView":30,
			"componentType":5126,
			"count":8,
			"type":"VEC2"
		},
		{
			"bufferView":31,
			"componentType":5123,
			"count":12,
			"type":"SCALAR"
		},
		{
			"bufferView":32,
			"componentType":5126,
			"count":12,
			"max":[
				9,
				9.5,
				0
			],
			"min":[
				-9.5,
				6.352935791015625,
				-19.225723266601562
			],
			"type":"VEC3"
		},
		{
			"bufferView":33,
			"componentType":5126,
			"count":12,
			"type":"VEC3"
		},
		{
			"bufferView":34,
			"componentType":5126,
			"count":12,
			"type":"VEC2"
		},
		{
			"bufferView":35,
			"componentType":5123,
			"count":18,
			"type":"SCALAR"
		},
		{
			"bufferView":36,
			"componentType":5126,
			"count":5,
			"max":[
				9.015296936035156,
				-9.999996185302734,
				0
			],
			"min":[
				-9.5,
				-10.000003814697266,
				-19.225826263427734
			],
			"type":"VEC3"
		},
		{
			"bufferView":37,
			"componentType":5126,
			"count":5,
			"type":"VEC3"
		},
		{
			"bufferView":38,
			"componentType":5126,
			"count":5,
			"type":"VEC2"
		},
		{
			"bufferView":39,
			"componentType":5123,
			"count":6,
			"type":"SCALAR"
		}
	],
	"bufferViews":[
		{
			"buffer":0,
			"byteLength":192,
			"byteOffset":0,
			"target":34962
		},
		{
			"buffer":0,
			"byteLength":192,
			"byteOffset":192,
			"target":34962
		},
		{
			"buffer":0,
			"byteLength":128,
			"byteOffset":384,
			"target":34962
		},
		{
			"buffer":0,
			"byteLength":48,
			"byteOffset":512,
			"target":34963
		},
		{
			"buffer":0,
			"byteLength":192,
			"byteOffset":560,
			"target":34962
		},
		{
			"buffer":0,
			"byteLength":192,
			"byteOffset":752,
			"target":34962
		},
		{
			"buffer":0,
			"byteLength":128,
			"byteOffset":944,
			"target":34962
		},
		{
			"buffer":0,
			"byteLength":48,
			"byteOffset":1072,
			"target":34963
		},
		{
			"buffer":0,
			"byteLength":96,
			"byteOffset":1120,
			"target":34962
		},
		{
			"buffer":0,
			"byteLength":96,
			"byteOffset":1216,
			"target":34962
		},
		{
			"buffer":0,
			"byteLength":64,
			"byteOffset":1312,
			"target":34962
		},
		{
			"buffer":0,
			"byteLength":24,
			"byteOffset":1376,
			"target":34963
		},
		{
			"buffer":0,
			"byteLength":108,
			"byteOffset":1400,
			"target":34962
		},
		{
			"buffer":0,
			"byteLength":108,
			"byteOffset":1508,
			"target":34962
		},
		{
			"buffer":0,
			"byteLength":72,
			"byteOffset":1616,
			"target":34962
		},
		{
			"buffer":0,
			"byteLength":24,
			"byteOffset":1688,
			"target":34963
		},
		{
			"buffer":0,
			"byteLength":552,
			"byteOffset":1712,
			"target":34962
		},
		{
			"buffer":0,
			"byteLength":552,
			"byteOffset":2264,
			"target":34962
		},
		{
			"buffer":0,
			"byteLength":368,
			"byteOffset":2816,
			"target":34962
		},
		{
			"buffer":0,
			"byteLength":168,
			"byteOffset":3184,
			"target":34963
		},
		{
			"buffer":0,
			"byteLength":192,
			"byteOffset":3352,
			"target":34962
		},
		{
			"buffer":0,
			"byteLength":192,
			"byteOffset":3544,
			"target":34962
		},
		{
			"buffer":0,
			"byteLength":128,
			"byteOffset":3736,
			"target":34962
		},
		{
			"buffer":0,
			"byteLength":96,
			"byteOffset":3864,
			"target":34963
		},
		{
			"buffer":0,
			"byteLength":96,
			"byteOffset":3960,
			"target":34962
		},
		{
			"buffer":0,
			"byteLength":96,
			"byteOffset":4056,
			"target":34962
		},
		{
			"buffer":0,
			"byteLength":64,
			"byteOffset":4152,
			"target":34962
		},
		{
			"buffer":0,
			"byteLength":36,
			"byteOffset":4216,
			"target":34963
		},
		{
			"buffer":0,
			"byteLength":96,
			"byteOffset":4252,
			"target":34962
		},
		{
			"buffer":0,
			"byteLength":96,
			"byteOffset":4348,
			"target":34962
		},
		{
			"buffer":0,
			"byteLength":64,
			"byteOffset":4444,
			"target":34962
		},
		{
			"buffer":0,
			"byteLength":24,
			"byteOffset":4508,
			"target":34963
		},
		{
			"buffer":0,
			"byteLength":144,
			"byteOffset":4532,
			"target":34962
		},
		{
			"buffer":0,
			"byteLength":144,
			"byteOffset":4676,
			"target":34962
		},
		{
			"buffer":0,
			"byteLength":96,
			"byteOffset":4820,
			"target":34962
		},
		{
			"buffer":0,
			"byteLength":36,
			"byteOffset":4916,
			"target":34963
		},
		{
			"buffer":0,
			"byteLength":60,
			"byteOffset":4952,
			"target":34962
		},
		{
			"buffer":0,
			"byteLength":60,
			"byteOffset":5012,
			"target":34962
		},
		{
			"buffer":0,
			"byteLength":40,
			"byteOffset":5072,
			"target":34962
		},
		{
			"buffer":0,
			"byteLength":12,
			"byteOffset":5112,
			"target":34963
		}
	],
	"samplers":[
		{
			"magFilter":9729,
			"minFilter":9987
		}
	],
	"buffers":[
		{
			"byteLength":5124,
			"uri":"medium_2.bin"
		}
	]
}
