{
    "asset" : {
        "generator" : "Khronos glTF Blender I/O v1.7.33",
        "version" : "2.0"
    },
    "scene" : 0,
    "scenes" : [
        {
            "name" : "Scene",
            "nodes" : [
                0
            ]
        }
    ],
    "nodes" : [
        {
            "mesh" : 0,
            "name" : "Maxis-3d1-mesh-57",
            "rotation" : [
                0.7071068286895752,
                0,
                0,
                0.7071067094802856
            ]
        }
    ],
    "materials" : [
        {
            "doubleSided" : true,
            "name" : "mat39-49.001",
            "pbrMetallicRoughness" : {
                "baseColorTexture" : {
                    "index" : 0
                },
                "metallicFactor" : 0
            }
        },
        {
            "doubleSided" : true,
            "name" : "mat40-49",
            "pbrMetallicRoughness" : {
                "baseColorTexture" : {
                    "index" : 1
                },
                "metallicFactor" : 0
            }
        },
        {
            "doubleSided" : true,
            "name" : "matcolour-48.003",
            "pbrMetallicRoughness" : {
                "baseColorFactor" : [
                    0.05882352963089943,
                    0.05882352963089943,
                    0.05882352963089943,
                    1
                ],
                "metallicFactor" : 0
            }
        },
        {
            "doubleSided" : true,
            "name" : "mat39-54",
            "pbrMetallicRoughness" : {
                "baseColorTexture" : {
                    "index" : 2
                },
                "metallicFactor" : 0
            }
        },
        {
            "doubleSided" : true,
            "name" : "mat39-55",
            "pbrMetallicRoughness" : {
                "baseColorTexture" : {
                    "index" : 3
                },
                "metallicFactor" : 0
            }
        },
        {
            "doubleSided" : true,
            "name" : "mat39-52",
            "pbrMetallicRoughness" : {
                "baseColorTexture" : {
                    "index" : 4
                },
                "metallicFactor" : 0
            }
        },
        {
            "doubleSided" : true,
            "name" : "mat39-48.001",
            "pbrMetallicRoughness" : {
                "baseColorTexture" : {
                    "index" : 5
                },
                "metallicFactor" : 0
            }
        },
        {
            "doubleSided" : true,
            "name" : "mat39-51.001",
            "pbrMetallicRoughness" : {
                "baseColorTexture" : {
                    "index" : 6
                },
                "metallicFactor" : 0
            }
        },
        {
            "doubleSided" : true,
            "name" : "mat2-14.001",
            "pbrMetallicRoughness" : {
                "baseColorTexture" : {
                    "index" : 7
                },
                "metallicFactor" : 0
            }
        },
        {
            "doubleSided" : true,
            "name" : "mat39-50.001",
            "pbrMetallicRoughness" : {
                "baseColorTexture" : {
                    "index" : 8
                },
                "metallicFactor" : 0
            }
        },
        {
            "doubleSided" : true,
            "name" : "matcolour-0",
            "pbrMetallicRoughness" : {
                "baseColorFactor" : [
                    0,
                    0,
                    0,
                    1
                ],
                "metallicFactor" : 0
            }
        }
    ],
    "meshes" : [
        {
            "name" : "Maxis-3d1-mesh-57",
            "primitives" : [
                {
                    "attributes" : {
                        "POSITION" : 0,
                        "NORMAL" : 1,
                        "TEXCOORD_0" : 2
                    },
                    "indices" : 3,
                    "material" : 0
                },
                {
                    "attributes" : {
                        "POSITION" : 4,
                        "NORMAL" : 5,
                        "TEXCOORD_0" : 6
                    },
                    "indices" : 7,
                    "material" : 1
                },
                {
                    "attributes" : {
                        "POSITION" : 8,
                        "NORMAL" : 9,
                        "TEXCOORD_0" : 10
                    },
                    "indices" : 11,
                    "material" : 2
                },
                {
                    "attributes" : {
                        "POSITION" : 12,
                        "NORMAL" : 13,
                        "TEXCOORD_0" : 14
                    },
                    "indices" : 15,
                    "material" : 3
                },
                {
                    "attributes" : {
                        "POSITION" : 16,
                        "NORMAL" : 17,
                        "TEXCOORD_0" : 18
                    },
                    "indices" : 19,
                    "material" : 4
                },
                {
                    "attributes" : {
                        "POSITION" : 20,
                        "NORMAL" : 21,
                        "TEXCOORD_0" : 22
                    },
                    "indices" : 23,
                    "material" : 5
                },
                {
                    "attributes" : {
                        "POSITION" : 24,
                        "NORMAL" : 25,
                        "TEXCOORD_0" : 26
                    },
                    "indices" : 27,
                    "material" : 6
                },
                {
                    "attributes" : {
                        "POSITION" : 28,
                        "NORMAL" : 29,
                        "TEXCOORD_0" : 30
                    },
                    "indices" : 31,
                    "material" : 7
                },
                {
                    "attributes" : {
                        "POSITION" : 32,
                        "NORMAL" : 33,
                        "TEXCOORD_0" : 34
                    },
                    "indices" : 35,
                    "material" : 8
                },
                {
                    "attributes" : {
                        "POSITION" : 36,
                        "NORMAL" : 37,
                        "TEXCOORD_0" : 38
                    },
                    "indices" : 39,
                    "material" : 9
                },
                {
                    "attributes" : {
                        "POSITION" : 40,
                        "NORMAL" : 41,
                        "TEXCOORD_0" : 42
                    },
                    "indices" : 43,
                    "material" : 10
                }
            ]
        }
    ],
    "textures" : [
        {
            "sampler" : 0,
            "source" : 0
        },
        {
            "sampler" : 0,
            "source" : 1
        },
        {
            "sampler" : 0,
            "source" : 2
        },
        {
            "sampler" : 0,
            "source" : 3
        },
        {
            "sampler" : 0,
            "source" : 4
        },
        {
            "sampler" : 0,
            "source" : 5
        },
        {
            "sampler" : 0,
            "source" : 6
        },
        {
            "sampler" : 0,
            "source" : 7
        },
        {
            "sampler" : 0,
            "source" : 8
        }
    ],
    "images" : [
        {
            "mimeType" : "image/png",
            "name" : "tex39-49",
            "uri" : "../../../Textures/tex39-49.png"
        },
        {
            "mimeType" : "image/png",
            "name" : "tex40-49",
            "uri" : "../../../Textures/tex40-49.png"
        },
        {
            "mimeType" : "image/png",
            "name" : "tex39-54",
            "uri" : "../../../Textures/tex39-54.png"
        },
        {
            "mimeType" : "image/png",
            "name" : "tex39-55",
            "uri" : "../../../Textures/tex39-55.png"
        },
        {
            "mimeType" : "image/png",
            "name" : "tex39-52",
            "uri" : "../../../Textures/tex39-52.png"
        },
        {
            "mimeType" : "image/png",
            "name" : "tex39-48",
            "uri" : "../../../Textures/tex39-48.png"
        },
        {
            "mimeType" : "image/png",
            "name" : "tex39-51",
            "uri" : "../../../Textures/tex39-51.png"
        },
        {
            "mimeType" : "image/png",
            "name" : "tex2-14",
            "uri" : "../../../Textures/tex2-14.png"
        },
        {
            "mimeType" : "image/png",
            "name" : "tex39-50",
            "uri" : "../../../Textures/tex39-50.png"
        }
    ],
    "accessors" : [
        {
            "bufferView" : 0,
            "componentType" : 5126,
            "count" : 12,
            "max" : [
                -3.6907691955566406,
                14.301856994628906,
                0
            ],
            "min" : [
                -4.61346435546875,
                -14.301643371582031,
                -23.067344665527344
            ],
            "type" : "VEC3"
        },
        {
            "bufferView" : 1,
            "componentType" : 5126,
            "count" : 12,
            "type" : "VEC3"
        },
        {
            "bufferView" : 2,
            "componentType" : 5126,
            "count" : 12,
            "type" : "VEC2"
        },
        {
            "bufferView" : 3,
            "componentType" : 5123,
            "count" : 12,
            "type" : "SCALAR"
        },
        {
            "bufferView" : 4,
            "componentType" : 5126,
            "count" : 18,
            "max" : [
                -2.768077850341797,
                12.456470489501953,
                0
            ],
            "min" : [
                -3.6907730102539062,
                -12.456249237060547,
                -23.067340850830078
            ],
            "type" : "VEC3"
        },
        {
            "bufferView" : 5,
            "componentType" : 5126,
            "count" : 18,
            "type" : "VEC3"
        },
        {
            "bufferView" : 6,
            "componentType" : 5126,
            "count" : 18,
            "type" : "VEC2"
        },
        {
            "bufferView" : 7,
            "componentType" : 5123,
            "count" : 18,
            "type" : "SCALAR"
        },
        {
            "bufferView" : 8,
            "componentType" : 5126,
            "count" : 208,
            "max" : [
                5.074810028076172,
                14.301849365234375,
                0
            ],
            "min" : [
                -4.61346435546875,
                -14.301643371582031,
                -27.75
            ],
            "type" : "VEC3"
        },
        {
            "bufferView" : 9,
            "componentType" : 5126,
            "count" : 208,
            "type" : "VEC3"
        },
        {
            "bufferView" : 10,
            "componentType" : 5126,
            "count" : 208,
            "type" : "VEC2"
        },
        {
            "bufferView" : 11,
            "componentType" : 5123,
            "count" : 234,
            "type" : "SCALAR"
        },
        {
            "bufferView" : 12,
            "componentType" : 5126,
            "count" : 28,
            "max" : [
                3.6907691955566406,
                11.53377914428711,
                0
            ],
            "min" : [
                3.2294235229492188,
                -11.533561706542969,
                -23.067340850830078
            ],
            "type" : "VEC3"
        },
        {
            "bufferView" : 13,
            "componentType" : 5126,
            "count" : 28,
            "type" : "VEC3"
        },
        {
            "bufferView" : 14,
            "componentType" : 5126,
            "count" : 28,
            "type" : "VEC2"
        },
        {
            "bufferView" : 15,
            "componentType" : 5123,
            "count" : 30,
            "type" : "SCALAR"
        },
        {
            "bufferView" : 16,
            "componentType" : 5126,
            "count" : 6,
            "max" : [
                1.3840370178222656,
                14.301856994628906,
                0
            ],
            "min" : [
                -4.61346435546875,
                12.917808532714844,
                -23.067344665527344
            ],
            "type" : "VEC3"
        },
        {
            "bufferView" : 17,
            "componentType" : 5126,
            "count" : 6,
            "type" : "VEC3"
        },
        {
            "bufferView" : 18,
            "componentType" : 5126,
            "count" : 6,
            "type" : "VEC2"
        },
        {
            "bufferView" : 19,
            "componentType" : 5123,
            "count" : 6,
            "type" : "SCALAR"
        },
        {
            "bufferView" : 20,
            "componentType" : 5126,
            "count" : 6,
            "max" : [
                1.3840370178222656,
                -12.917591094970703,
                0
            ],
            "min" : [
                -4.61346435546875,
                -14.301643371582031,
                -23.067325592041016
            ],
            "type" : "VEC3"
        },
        {
            "bufferView" : 21,
            "componentType" : 5126,
            "count" : 6,
            "type" : "VEC3"
        },
        {
            "bufferView" : 22,
            "componentType" : 5126,
            "count" : 6,
            "type" : "VEC2"
        },
        {
            "bufferView" : 23,
            "componentType" : 5123,
            "count" : 6,
            "type" : "SCALAR"
        },
        {
            "bufferView" : 24,
            "componentType" : 5126,
            "count" : 14,
            "max" : [
                4.61346435546875,
                3.690887451171875,
                0
            ],
            "min" : [
                1.3840370178222656,
                -12.917594909667969,
                -23.067340850830078
            ],
            "type" : "VEC3"
        },
        {
            "bufferView" : 25,
            "componentType" : 5126,
            "count" : 14,
            "type" : "VEC3"
        },
        {
            "bufferView" : 26,
            "componentType" : 5126,
            "count" : 14,
            "type" : "VEC2"
        },
        {
            "bufferView" : 27,
            "componentType" : 5123,
            "count" : 18,
            "type" : "SCALAR"
        },
        {
            "bufferView" : 28,
            "componentType" : 5126,
            "count" : 16,
            "max" : [
                4.61346435546875,
                12.91781997680664,
                0
            ],
            "min" : [
                1.3840370178222656,
                -3.6906661987304688,
                -23.067340850830078
            ],
            "type" : "VEC3"
        },
        {
            "bufferView" : 29,
            "componentType" : 5126,
            "count" : 16,
            "type" : "VEC3"
        },
        {
            "bufferView" : 30,
            "componentType" : 5126,
            "count" : 16,
            "type" : "VEC2"
        },
        {
            "bufferView" : 31,
            "componentType" : 5123,
            "count" : 18,
            "type" : "SCALAR"
        },
        {
            "bufferView" : 32,
            "componentType" : 5126,
            "count" : 6,
            "max" : [
                5.074810028076172,
                1.8455009460449219,
                0
            ],
            "min" : [
                5.074810028076172,
                -1.84527587890625,
                -7.166664123535156
            ],
            "type" : "VEC3"
        },
        {
            "bufferView" : 33,
            "componentType" : 5126,
            "count" : 6,
            "type" : "VEC3"
        },
        {
            "bufferView" : 34,
            "componentType" : 5126,
            "count" : 6,
            "type" : "VEC2"
        },
        {
            "bufferView" : 35,
            "componentType" : 5123,
            "count" : 6,
            "type" : "SCALAR"
        },
        {
            "bufferView" : 36,
            "componentType" : 5126,
            "count" : 12,
            "max" : [
                4.61346435546875,
                5.5362701416015625,
                0
            ],
            "min" : [
                4.61346435546875,
                -5.536052703857422,
                -23.067340850830078
            ],
            "type" : "VEC3"
        },
        {
            "bufferView" : 37,
            "componentType" : 5126,
            "count" : 12,
            "type" : "VEC3"
        },
        {
            "bufferView" : 38,
            "componentType" : 5126,
            "count" : 12,
            "type" : "VEC2"
        },
        {
            "bufferView" : 39,
            "componentType" : 5123,
            "count" : 12,
            "type" : "SCALAR"
        },
        {
            "bufferView" : 40,
            "componentType" : 5126,
            "count" : 17,
            "max" : [
                0.6061515808105469,
                0.8749961853027344,
                -25.633548736572266
            ],
            "min" : [
                -1.1061515808105469,
                -1.875,
                -27.116451263427734
            ],
            "type" : "VEC3"
        },
        {
            "bufferView" : 41,
            "componentType" : 5126,
            "count" : 17,
            "type" : "VEC3"
        },
        {
            "bufferView" : 42,
            "componentType" : 5126,
            "count" : 17,
            "type" : "VEC2"
        },
        {
            "bufferView" : 43,
            "componentType" : 5123,
            "count" : 24,
            "type" : "SCALAR"
        }
    ],
    "bufferViews" : [
        {
            "buffer" : 0,
            "byteLength" : 144,
            "byteOffset" : 0
        },
        {
            "buffer" : 0,
            "byteLength" : 144,
            "byteOffset" : 144
        },
        {
            "buffer" : 0,
            "byteLength" : 96,
            "byteOffset" : 288
        },
        {
            "buffer" : 0,
            "byteLength" : 24,
            "byteOffset" : 384
        },
        {
            "buffer" : 0,
            "byteLength" : 216,
            "byteOffset" : 408
        },
        {
            "buffer" : 0,
            "byteLength" : 216,
            "byteOffset" : 624
        },
        {
            "buffer" : 0,
            "byteLength" : 144,
            "byteOffset" : 840
        },
        {
            "buffer" : 0,
            "byteLength" : 36,
            "byteOffset" : 984
        },
        {
            "buffer" : 0,
            "byteLength" : 2496,
            "byteOffset" : 1020
        },
        {
            "buffer" : 0,
            "byteLength" : 2496,
            "byteOffset" : 3516
        },
        {
            "buffer" : 0,
            "byteLength" : 1664,
            "byteOffset" : 6012
        },
        {
            "buffer" : 0,
            "byteLength" : 468,
            "byteOffset" : 7676
        },
        {
            "buffer" : 0,
            "byteLength" : 336,
            "byteOffset" : 8144
        },
        {
            "buffer" : 0,
            "byteLength" : 336,
            "byteOffset" : 8480
        },
        {
            "buffer" : 0,
            "byteLength" : 224,
            "byteOffset" : 8816
        },
        {
            "buffer" : 0,
            "byteLength" : 60,
            "byteOffset" : 9040
        },
        {
            "buffer" : 0,
            "byteLength" : 72,
            "byteOffset" : 9100
        },
        {
            "buffer" : 0,
            "byteLength" : 72,
            "byteOffset" : 9172
        },
        {
            "buffer" : 0,
            "byteLength" : 48,
            "byteOffset" : 9244
        },
        {
            "buffer" : 0,
            "byteLength" : 12,
            "byteOffset" : 9292
        },
        {
            "buffer" : 0,
            "byteLength" : 72,
            "byteOffset" : 9304
        },
        {
            "buffer" : 0,
            "byteLength" : 72,
            "byteOffset" : 9376
        },
        {
            "buffer" : 0,
            "byteLength" : 48,
            "byteOffset" : 9448
        },
        {
            "buffer" : 0,
            "byteLength" : 12,
            "byteOffset" : 9496
        },
        {
            "buffer" : 0,
            "byteLength" : 168,
            "byteOffset" : 9508
        },
        {
            "buffer" : 0,
            "byteLength" : 168,
            "byteOffset" : 9676
        },
        {
            "buffer" : 0,
            "byteLength" : 112,
            "byteOffset" : 9844
        },
        {
            "buffer" : 0,
            "byteLength" : 36,
            "byteOffset" : 9956
        },
        {
            "buffer" : 0,
            "byteLength" : 192,
            "byteOffset" : 9992
        },
        {
            "buffer" : 0,
            "byteLength" : 192,
            "byteOffset" : 10184
        },
        {
            "buffer" : 0,
            "byteLength" : 128,
            "byteOffset" : 10376
        },
        {
            "buffer" : 0,
            "byteLength" : 36,
            "byteOffset" : 10504
        },
        {
            "buffer" : 0,
            "byteLength" : 72,
            "byteOffset" : 10540
        },
        {
            "buffer" : 0,
            "byteLength" : 72,
            "byteOffset" : 10612
        },
        {
            "buffer" : 0,
            "byteLength" : 48,
            "byteOffset" : 10684
        },
        {
            "buffer" : 0,
            "byteLength" : 12,
            "byteOffset" : 10732
        },
        {
            "buffer" : 0,
            "byteLength" : 144,
            "byteOffset" : 10744
        },
        {
            "buffer" : 0,
            "byteLength" : 144,
            "byteOffset" : 10888
        },
        {
            "buffer" : 0,
            "byteLength" : 96,
            "byteOffset" : 11032
        },
        {
            "buffer" : 0,
            "byteLength" : 24,
            "byteOffset" : 11128
        },
        {
            "buffer" : 0,
            "byteLength" : 204,
            "byteOffset" : 11152
        },
        {
            "buffer" : 0,
            "byteLength" : 204,
            "byteOffset" : 11356
        },
        {
            "buffer" : 0,
            "byteLength" : 136,
            "byteOffset" : 11560
        },
        {
            "buffer" : 0,
            "byteLength" : 48,
            "byteOffset" : 11696
        }
    ],
    "samplers" : [
        {
            "magFilter" : 9729,
            "minFilter" : 9987
        }
    ],
    "buffers" : [
        {
            "byteLength" : 11744,
            "uri" : "medium_1.bin"
        }
    ]
}
