{
    "asset" : {
        "generator" : "Khronos glTF Blender I/O v1.7.33",
        "version" : "2.0"
    },
    "scene" : 0,
    "scenes" : [
        {
            "name" : "Scene",
            "nodes" : [
                0
            ]
        }
    ],
    "nodes" : [
        {
            "mesh" : 0,
            "name" : "Maxis-3d3-mesh-80",
            "rotation" : [
                0.7071068286895752,
                0,
                0,
                0.7071067094802856
            ]
        }
    ],
    "materials" : [
        {
            "doubleSided" : true,
            "name" : "matcolour-80",
            "pbrMetallicRoughness" : {
                "baseColorFactor" : [
                    0.18431372940540314,
                    0.14509804546833038,
                    0.03921568766236305,
                    1
                ],
                "metallicFactor" : 0
            }
        },
        {
            "doubleSided" : true,
            "name" : "mat40-63.001",
            "pbrMetallicRoughness" : {
                "baseColorTexture" : {
                    "index" : 0
                },
                "metallicFactor" : 0
            }
        },
        {
            "doubleSided" : true,
            "name" : "mat40-61.001",
            "pbrMetallicRoughness" : {
                "baseColorTexture" : {
                    "index" : 1
                },
                "metallicFactor" : 0
            }
        },
        {
            "doubleSided" : true,
            "name" : "mat40-62",
            "pbrMetallicRoughness" : {
                "baseColorTexture" : {
                    "index" : 2
                },
                "metallicFactor" : 0
            }
        },
        {
            "doubleSided" : true,
            "name" : "mat40-60.003",
            "pbrMetallicRoughness" : {
                "baseColorTexture" : {
                    "index" : 3
                },
                "metallicFactor" : 0
            }
        }
    ],
    "meshes" : [
        {
            "name" : "Maxis-3d3-mesh-80",
            "primitives" : [
                {
                    "attributes" : {
                        "POSITION" : 0,
                        "NORMAL" : 1,
                        "TEXCOORD_0" : 2
                    },
                    "indices" : 3,
                    "material" : 0
                },
                {
                    "attributes" : {
                        "POSITION" : 4,
                        "NORMAL" : 5,
                        "TEXCOORD_0" : 6
                    },
                    "indices" : 7,
                    "material" : 1
                },
                {
                    "attributes" : {
                        "POSITION" : 8,
                        "NORMAL" : 9,
                        "TEXCOORD_0" : 10
                    },
                    "indices" : 11,
                    "material" : 2
                },
                {
                    "attributes" : {
                        "POSITION" : 12,
                        "NORMAL" : 13,
                        "TEXCOORD_0" : 14
                    },
                    "indices" : 15,
                    "material" : 3
                },
                {
                    "attributes" : {
                        "POSITION" : 16,
                        "NORMAL" : 17,
                        "TEXCOORD_0" : 18
                    },
                    "indices" : 19,
                    "material" : 4
                },
                {
                    "attributes" : {
                        "POSITION" : 20
                    },
                    "material" : 0,
                    "mode" : 0
                }
            ]
        }
    ],
    "textures" : [
        {
            "sampler" : 0,
            "source" : 0
        },
        {
            "sampler" : 0,
            "source" : 1
        },
        {
            "sampler" : 0,
            "source" : 2
        },
        {
            "sampler" : 0,
            "source" : 3
        }
    ],
    "images" : [
        {
            "mimeType" : "image/png",
            "name" : "tex40-63",
            "uri" : "../../../Textures/tex40-63.png"
        },
        {
            "mimeType" : "image/png",
            "name" : "tex40-61",
            "uri" : "../../../Textures/tex40-61.png"
        },
        {
            "mimeType" : "image/png",
            "name" : "tex40-62",
            "uri" : "../../../Textures/tex40-62.png"
        },
        {
            "mimeType" : "image/png",
            "name" : "tex40-60",
            "uri" : "../../../Textures/tex40-60.png"
        }
    ],
    "accessors" : [
        {
            "bufferView" : 0,
            "componentType" : 5126,
            "count" : 75,
            "max" : [
                32.10059356689453,
                13.074356079101562,
                -40.852813720703125
            ],
            "min" : [
                -31.603614807128906,
                -31.284652709960938,
                -102.24288177490234
            ],
            "type" : "VEC3"
        },
        {
            "bufferView" : 1,
            "componentType" : 5126,
            "count" : 75,
            "type" : "VEC3"
        },
        {
            "bufferView" : 2,
            "componentType" : 5126,
            "count" : 75,
            "type" : "VEC2"
        },
        {
            "bufferView" : 3,
            "componentType" : 5123,
            "count" : 75,
            "type" : "SCALAR"
        },
        {
            "bufferView" : 4,
            "componentType" : 5126,
            "count" : 66,
            "max" : [
                30,
                30.000022888183594,
                0
            ],
            "min" : [
                -30,
                -29.999980926513672,
                -74.22721862792969
            ],
            "type" : "VEC3"
        },
        {
            "bufferView" : 5,
            "componentType" : 5126,
            "count" : 66,
            "type" : "VEC3"
        },
        {
            "bufferView" : 6,
            "componentType" : 5126,
            "count" : 66,
            "type" : "VEC2"
        },
        {
            "bufferView" : 7,
            "componentType" : 5123,
            "count" : 72,
            "type" : "SCALAR"
        },
        {
            "bufferView" : 8,
            "componentType" : 5126,
            "count" : 50,
            "max" : [
                22.21408462524414,
                30.000022888183594,
                1.52587890625e-05
            ],
            "min" : [
                -30,
                -29.999980926513672,
                -74.22721862792969
            ],
            "type" : "VEC3"
        },
        {
            "bufferView" : 9,
            "componentType" : 5126,
            "count" : 50,
            "type" : "VEC3"
        },
        {
            "bufferView" : 10,
            "componentType" : 5126,
            "count" : 50,
            "type" : "VEC2"
        },
        {
            "bufferView" : 11,
            "componentType" : 5123,
            "count" : 54,
            "type" : "SCALAR"
        },
        {
            "bufferView" : 12,
            "componentType" : 5126,
            "count" : 40,
            "max" : [
                30,
                30.000019073486328,
                1.52587890625e-05
            ],
            "min" : [
                -22.207496643066406,
                -29.999980926513672,
                -74.22721862792969
            ],
            "type" : "VEC3"
        },
        {
            "bufferView" : 13,
            "componentType" : 5126,
            "count" : 40,
            "type" : "VEC3"
        },
        {
            "bufferView" : 14,
            "componentType" : 5126,
            "count" : 40,
            "type" : "VEC2"
        },
        {
            "bufferView" : 15,
            "componentType" : 5123,
            "count" : 48,
            "type" : "SCALAR"
        },
        {
            "bufferView" : 16,
            "componentType" : 5126,
            "count" : 46,
            "max" : [
                30,
                22.000019073486328,
                1.52587890625e-05
            ],
            "min" : [
                -30,
                -29.999980926513672,
                -74.22720336914062
            ],
            "type" : "VEC3"
        },
        {
            "bufferView" : 17,
            "componentType" : 5126,
            "count" : 46,
            "type" : "VEC3"
        },
        {
            "bufferView" : 18,
            "componentType" : 5126,
            "count" : 46,
            "type" : "VEC2"
        },
        {
            "bufferView" : 19,
            "componentType" : 5123,
            "count" : 54,
            "type" : "SCALAR"
        },
        {
            "bufferView" : 20,
            "componentType" : 5126,
            "count" : 1,
            "max" : [
                -2.3616867065429688,
                -8.146156311035156,
                -103.03019714355469
            ],
            "min" : [
                -2.3616867065429688,
                -8.146156311035156,
                -103.03019714355469
            ],
            "type" : "VEC3"
        }
    ],
    "bufferViews" : [
        {
            "buffer" : 0,
            "byteLength" : 900,
            "byteOffset" : 0
        },
        {
            "buffer" : 0,
            "byteLength" : 900,
            "byteOffset" : 900
        },
        {
            "buffer" : 0,
            "byteLength" : 600,
            "byteOffset" : 1800
        },
        {
            "buffer" : 0,
            "byteLength" : 150,
            "byteOffset" : 2400
        },
        {
            "buffer" : 0,
            "byteLength" : 792,
            "byteOffset" : 2552
        },
        {
            "buffer" : 0,
            "byteLength" : 792,
            "byteOffset" : 3344
        },
        {
            "buffer" : 0,
            "byteLength" : 528,
            "byteOffset" : 4136
        },
        {
            "buffer" : 0,
            "byteLength" : 144,
            "byteOffset" : 4664
        },
        {
            "buffer" : 0,
            "byteLength" : 600,
            "byteOffset" : 4808
        },
        {
            "buffer" : 0,
            "byteLength" : 600,
            "byteOffset" : 5408
        },
        {
            "buffer" : 0,
            "byteLength" : 400,
            "byteOffset" : 6008
        },
        {
            "buffer" : 0,
            "byteLength" : 108,
            "byteOffset" : 6408
        },
        {
            "buffer" : 0,
            "byteLength" : 480,
            "byteOffset" : 6516
        },
        {
            "buffer" : 0,
            "byteLength" : 480,
            "byteOffset" : 6996
        },
        {
            "buffer" : 0,
            "byteLength" : 320,
            "byteOffset" : 7476
        },
        {
            "buffer" : 0,
            "byteLength" : 96,
            "byteOffset" : 7796
        },
        {
            "buffer" : 0,
            "byteLength" : 552,
            "byteOffset" : 7892
        },
        {
            "buffer" : 0,
            "byteLength" : 552,
            "byteOffset" : 8444
        },
        {
            "buffer" : 0,
            "byteLength" : 368,
            "byteOffset" : 8996
        },
        {
            "buffer" : 0,
            "byteLength" : 108,
            "byteOffset" : 9364
        },
        {
            "buffer" : 0,
            "byteLength" : 12,
            "byteOffset" : 9472
        }
    ],
    "samplers" : [
        {
            "magFilter" : 9729,
            "minFilter" : 9987
        }
    ],
    "buffers" : [
        {
            "byteLength" : 9484,
            "uri" : "darco.bin"
        }
    ]
}
