{
	"asset":{
		"generator":"Khronos glTF Blender I/O v4.3.47",
		"version":"2.0"
	},
	"scene":0,
	"scenes":[
		{
			"name":"Scene",
			"nodes":[
				0,
				1
			]
		}
	],
	"nodes":[
		{
			"mesh":0,
			"name":"Maxis-3d3-mesh-46",
			"rotation":[
				0.70710688829422,
				0,
				0,
				0.7071066498756409
			]
		},
		{
			"extras":{
				"gd_node":"Decal",
				"lower_fade":9,
				"upper_fade":10
			},
			"mesh":1,
			"name":"Ground_AO",
			"scale":[
				38.662906646728516,
				1,
				39.85920715332031
			],
			"translation":[
				4.086244583129883,
				-5.878342562937178e-06,
				-4.070394992828369
			]
		}
	],
	"materials":[
		{
			"name":"mat40-27",
			"occlusionTexture":{
				"index":0,
				"texCoord":1
			},
			"pbrMetallicRoughness":{
				"baseColorTexture":{
					"index":1
				},
				"metallicFactor":0
			}
		},
		{
			"name":"mat40-24",
			"occlusionTexture":{
				"index":2,
				"texCoord":1
			},
			"pbrMetallicRoughness":{
				"baseColorTexture":{
					"index":3
				},
				"metallicFactor":0
			}
		},
		{
			"name":"mat40-26",
			"occlusionTexture":{
				"index":4,
				"texCoord":1
			},
			"pbrMetallicRoughness":{
				"baseColorTexture":{
					"index":5
				},
				"metallicFactor":0
			}
		},
		{
			"name":"mat40-25",
			"occlusionTexture":{
				"index":6,
				"texCoord":1
			},
			"pbrMetallicRoughness":{
				"baseColorTexture":{
					"index":7
				},
				"metallicFactor":0
			}
		},
		{
			"name":"matcolour-48.010",
			"occlusionTexture":{
				"index":8,
				"texCoord":1
			},
			"pbrMetallicRoughness":{
				"baseColorFactor":[
					0.05882352963089943,
					0.05882352963089943,
					0.05882352963089943,
					1
				],
				"metallicFactor":0
			}
		},
		{
			"name":"mat40-32",
			"occlusionTexture":{
				"index":9,
				"texCoord":1
			},
			"pbrMetallicRoughness":{
				"baseColorTexture":{
					"index":10
				},
				"metallicFactor":0
			}
		},
		{
			"name":"mat40-35",
			"occlusionTexture":{
				"index":11,
				"texCoord":1
			},
			"pbrMetallicRoughness":{
				"baseColorTexture":{
					"index":12
				},
				"metallicFactor":0
			}
		},
		{
			"name":"mat40-34",
			"occlusionTexture":{
				"index":13,
				"texCoord":1
			},
			"pbrMetallicRoughness":{
				"baseColorTexture":{
					"index":14
				},
				"metallicFactor":0
			}
		},
		{
			"name":"mat40-33",
			"occlusionTexture":{
				"index":15,
				"texCoord":1
			},
			"pbrMetallicRoughness":{
				"baseColorTexture":{
					"index":16
				},
				"metallicFactor":0
			}
		},
		{
			"name":"mat40-55.006",
			"occlusionTexture":{
				"index":17,
				"texCoord":1
			},
			"pbrMetallicRoughness":{
				"baseColorTexture":{
					"index":18
				},
				"metallicFactor":0
			}
		},
		{
			"name":"mat40-52.006",
			"occlusionTexture":{
				"index":19,
				"texCoord":1
			},
			"pbrMetallicRoughness":{
				"baseColorTexture":{
					"index":20
				},
				"metallicFactor":0
			}
		},
		{
			"name":"mat40-54.006",
			"occlusionTexture":{
				"index":21,
				"texCoord":1
			},
			"pbrMetallicRoughness":{
				"baseColorTexture":{
					"index":22
				},
				"metallicFactor":0
			}
		},
		{
			"name":"mat40-53.006",
			"occlusionTexture":{
				"index":23,
				"texCoord":1
			},
			"pbrMetallicRoughness":{
				"baseColorTexture":{
					"index":24
				},
				"metallicFactor":0
			}
		},
		{
			"name":"Ground_AO",
			"occlusionTexture":{
				"index":25
			},
			"pbrMetallicRoughness":{
				"baseColorFactor":[
					0.800000011920929,
					0.800000011920929,
					0.800000011920929,
					1
				],
				"metallicFactor":0,
				"roughnessFactor":0.5
			}
		}
	],
	"meshes":[
		{
			"name":"Maxis-3d3-mesh-46",
			"primitives":[
				{
					"attributes":{
						"POSITION":0,
						"NORMAL":1,
						"TEXCOORD_0":2,
						"TEXCOORD_1":3
					},
					"indices":4,
					"material":0
				},
				{
					"attributes":{
						"POSITION":5,
						"NORMAL":6,
						"TEXCOORD_0":7,
						"TEXCOORD_1":8
					},
					"indices":9,
					"material":1
				},
				{
					"attributes":{
						"POSITION":10,
						"NORMAL":11,
						"TEXCOORD_0":12,
						"TEXCOORD_1":13
					},
					"indices":14,
					"material":2
				},
				{
					"attributes":{
						"POSITION":15,
						"NORMAL":16,
						"TEXCOORD_0":17,
						"TEXCOORD_1":18
					},
					"indices":19,
					"material":3
				},
				{
					"attributes":{
						"POSITION":20,
						"NORMAL":21,
						"TEXCOORD_0":22,
						"TEXCOORD_1":23
					},
					"indices":24,
					"material":4
				},
				{
					"attributes":{
						"POSITION":25,
						"NORMAL":26,
						"TEXCOORD_0":27,
						"TEXCOORD_1":28
					},
					"indices":29,
					"material":5
				},
				{
					"attributes":{
						"POSITION":30,
						"NORMAL":31,
						"TEXCOORD_0":32,
						"TEXCOORD_1":33
					},
					"indices":34,
					"material":6
				},
				{
					"attributes":{
						"POSITION":35,
						"NORMAL":36,
						"TEXCOORD_0":37,
						"TEXCOORD_1":38
					},
					"indices":39,
					"material":7
				},
				{
					"attributes":{
						"POSITION":40,
						"NORMAL":41,
						"TEXCOORD_0":42,
						"TEXCOORD_1":43
					},
					"indices":44,
					"material":8
				},
				{
					"attributes":{
						"POSITION":45,
						"NORMAL":46,
						"TEXCOORD_0":47,
						"TEXCOORD_1":48
					},
					"indices":49,
					"material":9
				},
				{
					"attributes":{
						"POSITION":50,
						"NORMAL":51,
						"TEXCOORD_0":52,
						"TEXCOORD_1":53
					},
					"indices":54,
					"material":10
				},
				{
					"attributes":{
						"POSITION":55,
						"NORMAL":56,
						"TEXCOORD_0":57,
						"TEXCOORD_1":58
					},
					"indices":59,
					"material":11
				},
				{
					"attributes":{
						"POSITION":60,
						"NORMAL":61,
						"TEXCOORD_0":62,
						"TEXCOORD_1":63
					},
					"indices":64,
					"material":12
				}
			]
		},
		{
			"name":"Plane",
			"primitives":[
				{
					"attributes":{
						"POSITION":65,
						"NORMAL":66,
						"TEXCOORD_0":67
					},
					"indices":68,
					"material":13
				}
			]
		}
	],
	"textures":[
		{
			"sampler":0,
			"source":0
		},
		{
			"sampler":0,
			"source":1
		},
		{
			"sampler":0,
			"source":0
		},
		{
			"sampler":0,
			"source":2
		},
		{
			"sampler":0,
			"source":0
		},
		{
			"sampler":0,
			"source":3
		},
		{
			"sampler":0,
			"source":0
		},
		{
			"sampler":0,
			"source":4
		},
		{
			"sampler":0,
			"source":0
		},
		{
			"sampler":0,
			"source":0
		},
		{
			"sampler":0,
			"source":5
		},
		{
			"sampler":0,
			"source":0
		},
		{
			"sampler":0,
			"source":6
		},
		{
			"sampler":0,
			"source":0
		},
		{
			"sampler":0,
			"source":7
		},
		{
			"sampler":0,
			"source":0
		},
		{
			"sampler":0,
			"source":8
		},
		{
			"sampler":0,
			"source":0
		},
		{
			"sampler":0,
			"source":9
		},
		{
			"sampler":0,
			"source":0
		},
		{
			"sampler":0,
			"source":10
		},
		{
			"sampler":0,
			"source":0
		},
		{
			"sampler":0,
			"source":11
		},
		{
			"sampler":0,
			"source":0
		},
		{
			"sampler":0,
			"source":12
		},
		{
			"sampler":0,
			"source":13
		}
	],
	"images":[
		{
			"mimeType":"image/png",
			"name":"large_2.png",
			"uri":"../../../Textures/ambient_occlusion/Buildings/Warehouse/large_2.png"
		},
		{
			"mimeType":"image/png",
			"name":"tex40-27",
			"uri":"../../../Textures/tex40-27.png"
		},
		{
			"mimeType":"image/png",
			"name":"tex40-24",
			"uri":"../../../Textures/tex40-24.png"
		},
		{
			"mimeType":"image/png",
			"name":"tex40-26",
			"uri":"../../../Textures/tex40-26.png"
		},
		{
			"mimeType":"image/png",
			"name":"tex40-25",
			"uri":"../../../Textures/tex40-25.png"
		},
		{
			"mimeType":"image/png",
			"name":"tex40-32",
			"uri":"../../../Textures/tex40-32.png"
		},
		{
			"mimeType":"image/png",
			"name":"tex40-35",
			"uri":"../../../Textures/tex40-35.png"
		},
		{
			"mimeType":"image/png",
			"name":"tex40-34",
			"uri":"../../../Textures/tex40-34.png"
		},
		{
			"mimeType":"image/png",
			"name":"tex40-33",
			"uri":"../../../Textures/tex40-33.png"
		},
		{
			"mimeType":"image/png",
			"name":"tex40-55",
			"uri":"../../../Textures/tex40-55.png"
		},
		{
			"mimeType":"image/png",
			"name":"tex40-52",
			"uri":"../../../Textures/tex40-52.png"
		},
		{
			"mimeType":"image/png",
			"name":"tex40-54",
			"uri":"../../../Textures/tex40-54.png"
		},
		{
			"mimeType":"image/png",
			"name":"tex40-53",
			"uri":"../../../Textures/tex40-53.png"
		},
		{
			"mimeType":"image/png",
			"name":"large_2_ground.png",
			"uri":"../../../Textures/ambient_occlusion/Buildings/Warehouse/large_2_ground.png"
		}
	],
	"accessors":[
		{
			"bufferView":0,
			"componentType":5126,
			"count":19,
			"max":[
				22.91769790649414,
				15.359207153320312,
				0
			],
			"min":[
				-14.745208740234375,
				-11.94024658203125,
				-17.639572143554688
			],
			"type":"VEC3"
		},
		{
			"bufferView":1,
			"componentType":5126,
			"count":19,
			"type":"VEC3"
		},
		{
			"bufferView":2,
			"componentType":5126,
			"count":19,
			"type":"VEC2"
		},
		{
			"bufferView":3,
			"componentType":5126,
			"count":19,
			"type":"VEC2"
		},
		{
			"bufferView":4,
			"componentType":5123,
			"count":30,
			"type":"SCALAR"
		},
		{
			"bufferView":5,
			"componentType":5126,
			"count":14,
			"max":[
				22.91769790649414,
				-10.95438003540039,
				3.814697265625e-06
			],
			"min":[
				-14.745208740234375,
				-19.986583709716797,
				-17.639568328857422
			],
			"type":"VEC3"
		},
		{
			"bufferView":6,
			"componentType":5126,
			"count":14,
			"type":"VEC3"
		},
		{
			"bufferView":7,
			"componentType":5126,
			"count":14,
			"type":"VEC2"
		},
		{
			"bufferView":8,
			"componentType":5126,
			"count":14,
			"type":"VEC2"
		},
		{
			"bufferView":9,
			"componentType":5123,
			"count":24,
			"type":"SCALAR"
		},
		{
			"bufferView":10,
			"componentType":5126,
			"count":19,
			"max":[
				22.91769790649414,
				15.359207153320312,
				3.814697265625e-06
			],
			"min":[
				3.1612548828125,
				-19.986583709716797,
				-17.639572143554688
			],
			"type":"VEC3"
		},
		{
			"bufferView":11,
			"componentType":5126,
			"count":19,
			"type":"VEC3"
		},
		{
			"bufferView":12,
			"componentType":5126,
			"count":19,
			"type":"VEC2"
		},
		{
			"bufferView":13,
			"componentType":5126,
			"count":19,
			"type":"VEC2"
		},
		{
			"bufferView":14,
			"componentType":5123,
			"count":30,
			"type":"SCALAR"
		},
		{
			"bufferView":15,
			"componentType":5126,
			"count":14,
			"max":[
				17.593135833740234,
				15.359199523925781,
				3.814697265625e-06
			],
			"min":[
				-14.745208740234375,
				-19.986583709716797,
				-17.639572143554688
			],
			"type":"VEC3"
		},
		{
			"bufferView":16,
			"componentType":5126,
			"count":14,
			"type":"VEC3"
		},
		{
			"bufferView":17,
			"componentType":5126,
			"count":14,
			"type":"VEC2"
		},
		{
			"bufferView":18,
			"componentType":5126,
			"count":14,
			"type":"VEC2"
		},
		{
			"bufferView":19,
			"componentType":5123,
			"count":24,
			"type":"SCALAR"
		},
		{
			"bufferView":20,
			"componentType":5126,
			"count":62,
			"max":[
				22.91769790649414,
				15.359184265136719,
				-6.366100311279297
			],
			"min":[
				-14.745208740234375,
				-23.5,
				-17.639572143554688
			],
			"type":"VEC3"
		},
		{
			"bufferView":21,
			"componentType":5126,
			"count":62,
			"type":"VEC3"
		},
		{
			"bufferView":22,
			"componentType":5126,
			"count":62,
			"type":"VEC2"
		},
		{
			"bufferView":23,
			"componentType":5126,
			"count":62,
			"type":"VEC2"
		},
		{
			"bufferView":24,
			"componentType":5123,
			"count":90,
			"type":"SCALAR"
		},
		{
			"bufferView":25,
			"componentType":5126,
			"count":8,
			"max":[
				16.5,
				-15.38711929321289,
				3.814697265625e-06
			],
			"min":[
				5.499992370605469,
				-23.5,
				-17.632854461669922
			],
			"type":"VEC3"
		},
		{
			"bufferView":26,
			"componentType":5126,
			"count":8,
			"type":"VEC3"
		},
		{
			"bufferView":27,
			"componentType":5126,
			"count":8,
			"type":"VEC2"
		},
		{
			"bufferView":28,
			"componentType":5126,
			"count":8,
			"type":"VEC2"
		},
		{
			"bufferView":29,
			"componentType":5123,
			"count":12,
			"type":"SCALAR"
		},
		{
			"bufferView":30,
			"componentType":5126,
			"count":4,
			"max":[
				16.5,
				-12.499996185302734,
				3.814697265625e-06
			],
			"min":[
				5.499992370605469,
				-12.500003814697266,
				-17.632854461669922
			],
			"type":"VEC3"
		},
		{
			"bufferView":31,
			"componentType":5126,
			"count":4,
			"type":"VEC3"
		},
		{
			"bufferView":32,
			"componentType":5126,
			"count":4,
			"type":"VEC2"
		},
		{
			"bufferView":33,
			"componentType":5126,
			"count":4,
			"type":"VEC2"
		},
		{
			"bufferView":34,
			"componentType":5123,
			"count":6,
			"type":"SCALAR"
		},
		{
			"bufferView":35,
			"componentType":5126,
			"count":8,
			"max":[
				16.5,
				-12.5,
				3.814697265625e-06
			],
			"min":[
				10.945148468017578,
				-23.5,
				-17.632854461669922
			],
			"type":"VEC3"
		},
		{
			"bufferView":36,
			"componentType":5126,
			"count":8,
			"type":"VEC3"
		},
		{
			"bufferView":37,
			"componentType":5126,
			"count":8,
			"type":"VEC2"
		},
		{
			"bufferView":38,
			"componentType":5126,
			"count":8,
			"type":"VEC2"
		},
		{
			"bufferView":39,
			"componentType":5123,
			"count":12,
			"type":"SCALAR"
		},
		{
			"bufferView":40,
			"componentType":5126,
			"count":4,
			"max":[
				5.499996185302734,
				-12.499996185302734,
				3.814697265625e-06
			],
			"min":[
				5.499992370605469,
				-23.5,
				-17.632854461669922
			],
			"type":"VEC3"
		},
		{
			"bufferView":41,
			"componentType":5126,
			"count":4,
			"type":"VEC3"
		},
		{
			"bufferView":42,
			"componentType":5126,
			"count":4,
			"type":"VEC2"
		},
		{
			"bufferView":43,
			"componentType":5126,
			"count":4,
			"type":"VEC2"
		},
		{
			"bufferView":44,
			"componentType":5123,
			"count":6,
			"type":"SCALAR"
		},
		{
			"bufferView":45,
			"componentType":5126,
			"count":8,
			"max":[
				22.91769790649414,
				1.0484504699707031,
				-5.763362884521484
			],
			"min":[
				14.97464370727539,
				-11.94024658203125,
				-12.180717468261719
			],
			"type":"VEC3"
		},
		{
			"bufferView":46,
			"componentType":5126,
			"count":8,
			"type":"VEC3"
		},
		{
			"bufferView":47,
			"componentType":5126,
			"count":8,
			"type":"VEC2"
		},
		{
			"bufferView":48,
			"componentType":5126,
			"count":8,
			"type":"VEC2"
		},
		{
			"bufferView":49,
			"componentType":5123,
			"count":12,
			"type":"SCALAR"
		},
		{
			"bufferView":50,
			"componentType":5126,
			"count":8,
			"max":[
				22.91769790649414,
				-10.954383850097656,
				-5.763362884521484
			],
			"min":[
				14.97464370727539,
				-19.986583709716797,
				-12.180713653564453
			],
			"type":"VEC3"
		},
		{
			"bufferView":51,
			"componentType":5126,
			"count":8,
			"type":"VEC3"
		},
		{
			"bufferView":52,
			"componentType":5126,
			"count":8,
			"type":"VEC2"
		},
		{
			"bufferView":53,
			"componentType":5126,
			"count":8,
			"type":"VEC2"
		},
		{
			"bufferView":54,
			"componentType":5123,
			"count":12,
			"type":"SCALAR"
		},
		{
			"bufferView":55,
			"componentType":5126,
			"count":8,
			"max":[
				22.91769790649414,
				1.0484504699707031,
				-5.763362884521484
			],
			"min":[
				22.11284637451172,
				-19.986583709716797,
				-9.76348876953125
			],
			"type":"VEC3"
		},
		{
			"bufferView":56,
			"componentType":5126,
			"count":8,
			"type":"VEC3"
		},
		{
			"bufferView":57,
			"componentType":5126,
			"count":8,
			"type":"VEC2"
		},
		{
			"bufferView":58,
			"componentType":5126,
			"count":8,
			"type":"VEC2"
		},
		{
			"bufferView":59,
			"componentType":5123,
			"count":12,
			"type":"SCALAR"
		},
		{
			"bufferView":60,
			"componentType":5126,
			"count":8,
			"max":[
				17.593135833740234,
				1.0484504699707031,
				-5.763362884521484
			],
			"min":[
				14.97464370727539,
				-19.986583709716797,
				-12.180717468261719
			],
			"type":"VEC3"
		},
		{
			"bufferView":61,
			"componentType":5126,
			"count":8,
			"type":"VEC3"
		},
		{
			"bufferView":62,
			"componentType":5126,
			"count":8,
			"type":"VEC2"
		},
		{
			"bufferView":63,
			"componentType":5126,
			"count":8,
			"type":"VEC2"
		},
		{
			"bufferView":64,
			"componentType":5123,
			"count":12,
			"type":"SCALAR"
		},
		{
			"bufferView":65,
			"componentType":5126,
			"count":4,
			"max":[
				0.5,
				0,
				0.5
			],
			"min":[
				-0.5,
				0,
				-0.5
			],
			"type":"VEC3"
		},
		{
			"bufferView":66,
			"componentType":5126,
			"count":4,
			"type":"VEC3"
		},
		{
			"bufferView":67,
			"componentType":5126,
			"count":4,
			"type":"VEC2"
		},
		{
			"bufferView":68,
			"componentType":5123,
			"count":6,
			"type":"SCALAR"
		}
	],
	"bufferViews":[
		{
			"buffer":0,
			"byteLength":228,
			"byteOffset":0,
			"target":34962
		},
		{
			"buffer":0,
			"byteLength":228,
			"byteOffset":228,
			"target":34962
		},
		{
			"buffer":0,
			"byteLength":152,
			"byteOffset":456,
			"target":34962
		},
		{
			"buffer":0,
			"byteLength":152,
			"byteOffset":608,
			"target":34962
		},
		{
			"buffer":0,
			"byteLength":60,
			"byteOffset":760,
			"target":34963
		},
		{
			"buffer":0,
			"byteLength":168,
			"byteOffset":820,
			"target":34962
		},
		{
			"buffer":0,
			"byteLength":168,
			"byteOffset":988,
			"target":34962
		},
		{
			"buffer":0,
			"byteLength":112,
			"byteOffset":1156,
			"target":34962
		},
		{
			"buffer":0,
			"byteLength":112,
			"byteOffset":1268,
			"target":34962
		},
		{
			"buffer":0,
			"byteLength":48,
			"byteOffset":1380,
			"target":34963
		},
		{
			"buffer":0,
			"byteLength":228,
			"byteOffset":1428,
			"target":34962
		},
		{
			"buffer":0,
			"byteLength":228,
			"byteOffset":1656,
			"target":34962
		},
		{
			"buffer":0,
			"byteLength":152,
			"byteOffset":1884,
			"target":34962
		},
		{
			"buffer":0,
			"byteLength":152,
			"byteOffset":2036,
			"target":34962
		},
		{
			"buffer":0,
			"byteLength":60,
			"byteOffset":2188,
			"target":34963
		},
		{
			"buffer":0,
			"byteLength":168,
			"byteOffset":2248,
			"target":34962
		},
		{
			"buffer":0,
			"byteLength":168,
			"byteOffset":2416,
			"target":34962
		},
		{
			"buffer":0,
			"byteLength":112,
			"byteOffset":2584,
			"target":34962
		},
		{
			"buffer":0,
			"byteLength":112,
			"byteOffset":2696,
			"target":34962
		},
		{
			"buffer":0,
			"byteLength":48,
			"byteOffset":2808,
			"target":34963
		},
		{
			"buffer":0,
			"byteLength":744,
			"byteOffset":2856,
			"target":34962
		},
		{
			"buffer":0,
			"byteLength":744,
			"byteOffset":3600,
			"target":34962
		},
		{
			"buffer":0,
			"byteLength":496,
			"byteOffset":4344,
			"target":34962
		},
		{
			"buffer":0,
			"byteLength":496,
			"byteOffset":4840,
			"target":34962
		},
		{
			"buffer":0,
			"byteLength":180,
			"byteOffset":5336,
			"target":34963
		},
		{
			"buffer":0,
			"byteLength":96,
			"byteOffset":5516,
			"target":34962
		},
		{
			"buffer":0,
			"byteLength":96,
			"byteOffset":5612,
			"target":34962
		},
		{
			"buffer":0,
			"byteLength":64,
			"byteOffset":5708,
			"target":34962
		},
		{
			"buffer":0,
			"byteLength":64,
			"byteOffset":5772,
			"target":34962
		},
		{
			"buffer":0,
			"byteLength":24,
			"byteOffset":5836,
			"target":34963
		},
		{
			"buffer":0,
			"byteLength":48,
			"byteOffset":5860,
			"target":34962
		},
		{
			"buffer":0,
			"byteLength":48,
			"byteOffset":5908,
			"target":34962
		},
		{
			"buffer":0,
			"byteLength":32,
			"byteOffset":5956,
			"target":34962
		},
		{
			"buffer":0,
			"byteLength":32,
			"byteOffset":5988,
			"target":34962
		},
		{
			"buffer":0,
			"byteLength":12,
			"byteOffset":6020,
			"target":34963
		},
		{
			"buffer":0,
			"byteLength":96,
			"byteOffset":6032,
			"target":34962
		},
		{
			"buffer":0,
			"byteLength":96,
			"byteOffset":6128,
			"target":34962
		},
		{
			"buffer":0,
			"byteLength":64,
			"byteOffset":6224,
			"target":34962
		},
		{
			"buffer":0,
			"byteLength":64,
			"byteOffset":6288,
			"target":34962
		},
		{
			"buffer":0,
			"byteLength":24,
			"byteOffset":6352,
			"target":34963
		},
		{
			"buffer":0,
			"byteLength":48,
			"byteOffset":6376,
			"target":34962
		},
		{
			"buffer":0,
			"byteLength":48,
			"byteOffset":6424,
			"target":34962
		},
		{
			"buffer":0,
			"byteLength":32,
			"byteOffset":6472,
			"target":34962
		},
		{
			"buffer":0,
			"byteLength":32,
			"byteOffset":6504,
			"target":34962
		},
		{
			"buffer":0,
			"byteLength":12,
			"byteOffset":6536,
			"target":34963
		},
		{
			"buffer":0,
			"byteLength":96,
			"byteOffset":6548,
			"target":34962
		},
		{
			"buffer":0,
			"byteLength":96,
			"byteOffset":6644,
			"target":34962
		},
		{
			"buffer":0,
			"byteLength":64,
			"byteOffset":6740,
			"target":34962
		},
		{
			"buffer":0,
			"byteLength":64,
			"byteOffset":6804,
			"target":34962
		},
		{
			"buffer":0,
			"byteLength":24,
			"byteOffset":6868,
			"target":34963
		},
		{
			"buffer":0,
			"byteLength":96,
			"byteOffset":6892,
			"target":34962
		},
		{
			"buffer":0,
			"byteLength":96,
			"byteOffset":6988,
			"target":34962
		},
		{
			"buffer":0,
			"byteLength":64,
			"byteOffset":7084,
			"target":34962
		},
		{
			"buffer":0,
			"byteLength":64,
			"byteOffset":7148,
			"target":34962
		},
		{
			"buffer":0,
			"byteLength":24,
			"byteOffset":7212,
			"target":34963
		},
		{
			"buffer":0,
			"byteLength":96,
			"byteOffset":7236,
			"target":34962
		},
		{
			"buffer":0,
			"byteLength":96,
			"byteOffset":7332,
			"target":34962
		},
		{
			"buffer":0,
			"byteLength":64,
			"byteOffset":7428,
			"target":34962
		},
		{
			"buffer":0,
			"byteLength":64,
			"byteOffset":7492,
			"target":34962
		},
		{
			"buffer":0,
			"byteLength":24,
			"byteOffset":7556,
			"target":34963
		},
		{
			"buffer":0,
			"byteLength":96,
			"byteOffset":7580,
			"target":34962
		},
		{
			"buffer":0,
			"byteLength":96,
			"byteOffset":7676,
			"target":34962
		},
		{
			"buffer":0,
			"byteLength":64,
			"byteOffset":7772,
			"target":34962
		},
		{
			"buffer":0,
			"byteLength":64,
			"byteOffset":7836,
			"target":34962
		},
		{
			"buffer":0,
			"byteLength":24,
			"byteOffset":7900,
			"target":34963
		},
		{
			"buffer":0,
			"byteLength":48,
			"byteOffset":7924,
			"target":34962
		},
		{
			"buffer":0,
			"byteLength":48,
			"byteOffset":7972,
			"target":34962
		},
		{
			"buffer":0,
			"byteLength":32,
			"byteOffset":8020,
			"target":34962
		},
		{
			"buffer":0,
			"byteLength":12,
			"byteOffset":8052,
			"target":34963
		}
	],
	"samplers":[
		{
			"magFilter":9729,
			"minFilter":9987
		}
	],
	"buffers":[
		{
			"byteLength":8064,
			"uri":"large_2.bin"
		}
	]
}
