{
	"asset":{
		"generator":"Khronos glTF Blender I/O v4.3.47",
		"version":"2.0"
	},
	"scene":0,
	"scenes":[
		{
			"name":"Scene",
			"nodes":[
				0,
				1
			]
		}
	],
	"nodes":[
		{
			"mesh":0,
			"name":"Maxis-3d3-mesh-45",
			"rotation":[
				0.70710688829422,
				0,
				0,
				0.7071066498756409
			]
		},
		{
			"extras":{
				"gd_node":"Decal",
				"lower_fade":9,
				"upper_fade":10
			},
			"mesh":1,
			"name":"Ground_AO",
			"scale":[
				45,
				1,
				45.00001525878906
			],
			"translation":[
				0,
				-1.4399987776414491e-05,
				1.239776611328125e-05
			]
		}
	],
	"materials":[
		{
			"name":"mat40-61.001",
			"occlusionTexture":{
				"index":0,
				"texCoord":1
			},
			"pbrMetallicRoughness":{
				"baseColorTexture":{
					"index":1
				},
				"metallicFactor":0
			}
		},
		{
			"name":"matcolour-48.009",
			"occlusionTexture":{
				"index":2,
				"texCoord":1
			},
			"pbrMetallicRoughness":{
				"baseColorFactor":[
					0.05882352963089943,
					0.05882352963089943,
					0.05882352963089943,
					1
				],
				"metallicFactor":0
			}
		},
		{
			"name":"matcolour-128.003",
			"occlusionTexture":{
				"index":3,
				"texCoord":1
			},
			"pbrMetallicRoughness":{
				"baseColorFactor":[
					0.12156862765550613,
					0.08235294371843338,
					0.062745101749897,
					1
				],
				"metallicFactor":0
			}
		},
		{
			"name":"mat39-23",
			"occlusionTexture":{
				"index":4,
				"texCoord":1
			},
			"pbrMetallicRoughness":{
				"baseColorTexture":{
					"index":5
				},
				"metallicFactor":0
			}
		},
		{
			"name":"mat39-20",
			"occlusionTexture":{
				"index":6,
				"texCoord":1
			},
			"pbrMetallicRoughness":{
				"baseColorTexture":{
					"index":7
				},
				"metallicFactor":0
			}
		},
		{
			"name":"mat39-22",
			"occlusionTexture":{
				"index":8,
				"texCoord":1
			},
			"pbrMetallicRoughness":{
				"baseColorTexture":{
					"index":9
				},
				"metallicFactor":0
			}
		},
		{
			"name":"mat39-21",
			"occlusionTexture":{
				"index":10,
				"texCoord":1
			},
			"pbrMetallicRoughness":{
				"baseColorTexture":{
					"index":11
				},
				"metallicFactor":0
			}
		},
		{
			"name":"mat40-55.005",
			"occlusionTexture":{
				"index":12,
				"texCoord":1
			},
			"pbrMetallicRoughness":{
				"baseColorTexture":{
					"index":13
				},
				"metallicFactor":0
			}
		},
		{
			"name":"mat40-52.005",
			"occlusionTexture":{
				"index":14,
				"texCoord":1
			},
			"pbrMetallicRoughness":{
				"baseColorTexture":{
					"index":15
				},
				"metallicFactor":0
			}
		},
		{
			"name":"mat40-53.005",
			"occlusionTexture":{
				"index":16,
				"texCoord":1
			},
			"pbrMetallicRoughness":{
				"baseColorTexture":{
					"index":17
				},
				"metallicFactor":0
			}
		},
		{
			"name":"mat40-54.005",
			"occlusionTexture":{
				"index":18,
				"texCoord":1
			},
			"pbrMetallicRoughness":{
				"baseColorTexture":{
					"index":19
				},
				"metallicFactor":0
			}
		},
		{
			"name":"matcolour-0",
			"occlusionTexture":{
				"index":20,
				"texCoord":1
			},
			"pbrMetallicRoughness":{
				"baseColorFactor":[
					0,
					0,
					0,
					1
				],
				"metallicFactor":0
			}
		},
		{
			"name":"Ground_AO",
			"occlusionTexture":{
				"index":21
			},
			"pbrMetallicRoughness":{
				"baseColorFactor":[
					0.800000011920929,
					0.800000011920929,
					0.800000011920929,
					1
				],
				"metallicFactor":0,
				"roughnessFactor":0.5
			}
		}
	],
	"meshes":[
		{
			"name":"Maxis-3d3-mesh-45",
			"primitives":[
				{
					"attributes":{
						"POSITION":0,
						"NORMAL":1,
						"TEXCOORD_0":2,
						"TEXCOORD_1":3
					},
					"indices":4,
					"material":0
				},
				{
					"attributes":{
						"POSITION":5,
						"NORMAL":6,
						"TEXCOORD_0":7,
						"TEXCOORD_1":8
					},
					"indices":9,
					"material":1
				},
				{
					"attributes":{
						"POSITION":10,
						"NORMAL":11,
						"TEXCOORD_0":12,
						"TEXCOORD_1":13
					},
					"indices":14,
					"material":2
				},
				{
					"attributes":{
						"POSITION":15,
						"NORMAL":16,
						"TEXCOORD_0":17,
						"TEXCOORD_1":18
					},
					"indices":19,
					"material":3
				},
				{
					"attributes":{
						"POSITION":20,
						"NORMAL":21,
						"TEXCOORD_0":22,
						"TEXCOORD_1":23
					},
					"indices":24,
					"material":4
				},
				{
					"attributes":{
						"POSITION":25,
						"NORMAL":26,
						"TEXCOORD_0":27,
						"TEXCOORD_1":28
					},
					"indices":29,
					"material":5
				},
				{
					"attributes":{
						"POSITION":30,
						"NORMAL":31,
						"TEXCOORD_0":32,
						"TEXCOORD_1":33
					},
					"indices":34,
					"material":6
				},
				{
					"attributes":{
						"POSITION":35,
						"NORMAL":36,
						"TEXCOORD_0":37,
						"TEXCOORD_1":38
					},
					"indices":39,
					"material":7
				},
				{
					"attributes":{
						"POSITION":40,
						"NORMAL":41,
						"TEXCOORD_0":42,
						"TEXCOORD_1":43
					},
					"indices":44,
					"material":8
				},
				{
					"attributes":{
						"POSITION":45,
						"NORMAL":46,
						"TEXCOORD_0":47,
						"TEXCOORD_1":48
					},
					"indices":49,
					"material":9
				},
				{
					"attributes":{
						"POSITION":50,
						"NORMAL":51,
						"TEXCOORD_0":52,
						"TEXCOORD_1":53
					},
					"indices":54,
					"material":10
				},
				{
					"attributes":{
						"POSITION":55,
						"NORMAL":56,
						"TEXCOORD_0":57,
						"TEXCOORD_1":58
					},
					"indices":59,
					"material":11
				}
			]
		},
		{
			"name":"Plane",
			"primitives":[
				{
					"attributes":{
						"POSITION":60,
						"NORMAL":61,
						"TEXCOORD_0":62
					},
					"indices":63,
					"material":12
				}
			]
		}
	],
	"textures":[
		{
			"sampler":0,
			"source":0
		},
		{
			"sampler":0,
			"source":1
		},
		{
			"sampler":0,
			"source":0
		},
		{
			"sampler":0,
			"source":0
		},
		{
			"sampler":0,
			"source":0
		},
		{
			"sampler":0,
			"source":2
		},
		{
			"sampler":0,
			"source":0
		},
		{
			"sampler":0,
			"source":3
		},
		{
			"sampler":0,
			"source":0
		},
		{
			"sampler":0,
			"source":4
		},
		{
			"sampler":0,
			"source":0
		},
		{
			"sampler":0,
			"source":5
		},
		{
			"sampler":0,
			"source":0
		},
		{
			"sampler":0,
			"source":6
		},
		{
			"sampler":0,
			"source":0
		},
		{
			"sampler":0,
			"source":7
		},
		{
			"sampler":0,
			"source":0
		},
		{
			"sampler":0,
			"source":8
		},
		{
			"sampler":0,
			"source":0
		},
		{
			"sampler":0,
			"source":9
		},
		{
			"sampler":0,
			"source":0
		},
		{
			"sampler":0,
			"source":10
		}
	],
	"images":[
		{
			"mimeType":"image/png",
			"name":"large_1.png",
			"uri":"../../../Textures/ambient_occlusion/Buildings/Warehouse/large_1.png"
		},
		{
			"mimeType":"image/png",
			"name":"tex40-61",
			"uri":"../../../Textures/tex40-61.png"
		},
		{
			"mimeType":"image/png",
			"name":"tex39-23",
			"uri":"../../../Textures/tex39-23.png"
		},
		{
			"mimeType":"image/png",
			"name":"tex39-20",
			"uri":"../../../Textures/tex39-20.png"
		},
		{
			"mimeType":"image/png",
			"name":"tex39-22",
			"uri":"../../../Textures/tex39-22.png"
		},
		{
			"mimeType":"image/png",
			"name":"tex39-21",
			"uri":"../../../Textures/tex39-21.png"
		},
		{
			"mimeType":"image/png",
			"name":"tex40-55",
			"uri":"../../../Textures/tex40-55.png"
		},
		{
			"mimeType":"image/png",
			"name":"tex40-52",
			"uri":"../../../Textures/tex40-52.png"
		},
		{
			"mimeType":"image/png",
			"name":"tex40-53",
			"uri":"../../../Textures/tex40-53.png"
		},
		{
			"mimeType":"image/png",
			"name":"tex40-54",
			"uri":"../../../Textures/tex40-54.png"
		},
		{
			"mimeType":"image/png",
			"name":"large_1_ground.png",
			"uri":"../../../Textures/ambient_occlusion/Buildings/Warehouse/large_1_ground.png"
		}
	],
	"accessors":[
		{
			"bufferView":0,
			"componentType":5126,
			"count":16,
			"max":[
				14.89059829711914,
				-13.55471420288086,
				-48
			],
			"min":[
				-15,
				-16.4453125,
				-48
			],
			"type":"VEC3"
		},
		{
			"bufferView":1,
			"componentType":5126,
			"count":16,
			"type":"VEC3"
		},
		{
			"bufferView":2,
			"componentType":5126,
			"count":16,
			"type":"VEC2"
		},
		{
			"bufferView":3,
			"componentType":5126,
			"count":16,
			"type":"VEC2"
		},
		{
			"bufferView":4,
			"componentType":5123,
			"count":24,
			"type":"SCALAR"
		},
		{
			"bufferView":5,
			"componentType":5126,
			"count":296,
			"max":[
				22,
				22.000011444091797,
				-16.006637573242188
			],
			"min":[
				-22,
				-21.999996185302734,
				-20.366451263427734
			],
			"type":"VEC3"
		},
		{
			"bufferView":6,
			"componentType":5126,
			"count":296,
			"type":"VEC3"
		},
		{
			"bufferView":7,
			"componentType":5126,
			"count":296,
			"type":"VEC2"
		},
		{
			"bufferView":8,
			"componentType":5126,
			"count":296,
			"type":"VEC2"
		},
		{
			"bufferView":9,
			"componentType":5123,
			"count":486,
			"type":"SCALAR"
		},
		{
			"bufferView":10,
			"componentType":5126,
			"count":32,
			"max":[
				8,
				15.000003814697266,
				-16.006656646728516
			],
			"min":[
				-13,
				9.000003814697266,
				-19.00000762939453
			],
			"type":"VEC3"
		},
		{
			"bufferView":11,
			"componentType":5126,
			"count":32,
			"type":"VEC3"
		},
		{
			"bufferView":12,
			"componentType":5126,
			"count":32,
			"type":"VEC2"
		},
		{
			"bufferView":13,
			"componentType":5126,
			"count":32,
			"type":"VEC2"
		},
		{
			"bufferView":14,
			"componentType":5123,
			"count":48,
			"type":"SCALAR"
		},
		{
			"bufferView":15,
			"componentType":5126,
			"count":4,
			"max":[
				22,
				22.000015258789062,
				-1.1444091796875e-05
			],
			"min":[
				-22,
				22.000011444091797,
				-16.006664276123047
			],
			"type":"VEC3"
		},
		{
			"bufferView":16,
			"componentType":5126,
			"count":4,
			"type":"VEC3"
		},
		{
			"bufferView":17,
			"componentType":5126,
			"count":4,
			"type":"VEC2"
		},
		{
			"bufferView":18,
			"componentType":5126,
			"count":4,
			"type":"VEC2"
		},
		{
			"bufferView":19,
			"componentType":5123,
			"count":6,
			"type":"SCALAR"
		},
		{
			"bufferView":20,
			"componentType":5126,
			"count":4,
			"max":[
				22,
				-21.999988555908203,
				1.1444091796875e-05
			],
			"min":[
				-22,
				-21.999996185302734,
				-16.006637573242188
			],
			"type":"VEC3"
		},
		{
			"bufferView":21,
			"componentType":5126,
			"count":4,
			"type":"VEC3"
		},
		{
			"bufferView":22,
			"componentType":5126,
			"count":4,
			"type":"VEC2"
		},
		{
			"bufferView":23,
			"componentType":5126,
			"count":4,
			"type":"VEC2"
		},
		{
			"bufferView":24,
			"componentType":5123,
			"count":6,
			"type":"SCALAR"
		},
		{
			"bufferView":25,
			"componentType":5126,
			"count":4,
			"max":[
				22,
				22.000015258789062,
				1.1444091796875e-05
			],
			"min":[
				22,
				-21.999996185302734,
				-16.006664276123047
			],
			"type":"VEC3"
		},
		{
			"bufferView":26,
			"componentType":5126,
			"count":4,
			"type":"VEC3"
		},
		{
			"bufferView":27,
			"componentType":5126,
			"count":4,
			"type":"VEC2"
		},
		{
			"bufferView":28,
			"componentType":5126,
			"count":4,
			"type":"VEC2"
		},
		{
			"bufferView":29,
			"componentType":5123,
			"count":6,
			"type":"SCALAR"
		},
		{
			"bufferView":30,
			"componentType":5126,
			"count":4,
			"max":[
				-22,
				22.000015258789062,
				1.1444091796875e-05
			],
			"min":[
				-22,
				-21.999996185302734,
				-16.006664276123047
			],
			"type":"VEC3"
		},
		{
			"bufferView":31,
			"componentType":5126,
			"count":4,
			"type":"VEC3"
		},
		{
			"bufferView":32,
			"componentType":5126,
			"count":4,
			"type":"VEC2"
		},
		{
			"bufferView":33,
			"componentType":5126,
			"count":4,
			"type":"VEC2"
		},
		{
			"bufferView":34,
			"componentType":5123,
			"count":6,
			"type":"SCALAR"
		},
		{
			"bufferView":35,
			"componentType":5126,
			"count":16,
			"max":[
				15.428375244140625,
				-13.016910552978516,
				-16.006641387939453
			],
			"min":[
				-15.537776947021484,
				-13.55471420288086,
				-48
			],
			"type":"VEC3"
		},
		{
			"bufferView":36,
			"componentType":5126,
			"count":16,
			"type":"VEC3"
		},
		{
			"bufferView":37,
			"componentType":5126,
			"count":16,
			"type":"VEC2"
		},
		{
			"bufferView":38,
			"componentType":5126,
			"count":16,
			"type":"VEC2"
		},
		{
			"bufferView":39,
			"componentType":5123,
			"count":24,
			"type":"SCALAR"
		},
		{
			"bufferView":40,
			"componentType":5126,
			"count":16,
			"max":[
				15.428375244140625,
				-16.4453125,
				-16.006641387939453
			],
			"min":[
				-15.537776947021484,
				-16.983074188232422,
				-48
			],
			"type":"VEC3"
		},
		{
			"bufferView":41,
			"componentType":5126,
			"count":16,
			"type":"VEC3"
		},
		{
			"bufferView":42,
			"componentType":5126,
			"count":16,
			"type":"VEC2"
		},
		{
			"bufferView":43,
			"componentType":5126,
			"count":16,
			"type":"VEC2"
		},
		{
			"bufferView":44,
			"componentType":5123,
			"count":24,
			"type":"SCALAR"
		},
		{
			"bufferView":45,
			"componentType":5126,
			"count":16,
			"max":[
				12,
				-13.016910552978516,
				-16.006641387939453
			],
			"min":[
				-15.537776947021484,
				-16.983074188232422,
				-48
			],
			"type":"VEC3"
		},
		{
			"bufferView":46,
			"componentType":5126,
			"count":16,
			"type":"VEC3"
		},
		{
			"bufferView":47,
			"componentType":5126,
			"count":16,
			"type":"VEC2"
		},
		{
			"bufferView":48,
			"componentType":5126,
			"count":16,
			"type":"VEC2"
		},
		{
			"bufferView":49,
			"componentType":5123,
			"count":24,
			"type":"SCALAR"
		},
		{
			"bufferView":50,
			"componentType":5126,
			"count":16,
			"max":[
				15.428375244140625,
				-13.016910552978516,
				-16.006641387939453
			],
			"min":[
				-12.109397888183594,
				-16.983074188232422,
				-48
			],
			"type":"VEC3"
		},
		{
			"bufferView":51,
			"componentType":5126,
			"count":16,
			"type":"VEC3"
		},
		{
			"bufferView":52,
			"componentType":5126,
			"count":16,
			"type":"VEC2"
		},
		{
			"bufferView":53,
			"componentType":5126,
			"count":16,
			"type":"VEC2"
		},
		{
			"bufferView":54,
			"componentType":5123,
			"count":24,
			"type":"SCALAR"
		},
		{
			"bufferView":55,
			"componentType":5126,
			"count":60,
			"max":[
				16.60366439819336,
				20.716121673583984,
				-18.883548736572266
			],
			"min":[
				-20.13965606689453,
				-7.866310119628906,
				-20.366451263427734
			],
			"type":"VEC3"
		},
		{
			"bufferView":56,
			"componentType":5126,
			"count":60,
			"type":"VEC3"
		},
		{
			"bufferView":57,
			"componentType":5126,
			"count":60,
			"type":"VEC2"
		},
		{
			"bufferView":58,
			"componentType":5126,
			"count":60,
			"type":"VEC2"
		},
		{
			"bufferView":59,
			"componentType":5123,
			"count":120,
			"type":"SCALAR"
		},
		{
			"bufferView":60,
			"componentType":5126,
			"count":4,
			"max":[
				0.5,
				0,
				0.5
			],
			"min":[
				-0.5,
				0,
				-0.5
			],
			"type":"VEC3"
		},
		{
			"bufferView":61,
			"componentType":5126,
			"count":4,
			"type":"VEC3"
		},
		{
			"bufferView":62,
			"componentType":5126,
			"count":4,
			"type":"VEC2"
		},
		{
			"bufferView":63,
			"componentType":5123,
			"count":6,
			"type":"SCALAR"
		}
	],
	"bufferViews":[
		{
			"buffer":0,
			"byteLength":192,
			"byteOffset":0,
			"target":34962
		},
		{
			"buffer":0,
			"byteLength":192,
			"byteOffset":192,
			"target":34962
		},
		{
			"buffer":0,
			"byteLength":128,
			"byteOffset":384,
			"target":34962
		},
		{
			"buffer":0,
			"byteLength":128,
			"byteOffset":512,
			"target":34962
		},
		{
			"buffer":0,
			"byteLength":48,
			"byteOffset":640,
			"target":34963
		},
		{
			"buffer":0,
			"byteLength":3552,
			"byteOffset":688,
			"target":34962
		},
		{
			"buffer":0,
			"byteLength":3552,
			"byteOffset":4240,
			"target":34962
		},
		{
			"buffer":0,
			"byteLength":2368,
			"byteOffset":7792,
			"target":34962
		},
		{
			"buffer":0,
			"byteLength":2368,
			"byteOffset":10160,
			"target":34962
		},
		{
			"buffer":0,
			"byteLength":972,
			"byteOffset":12528,
			"target":34963
		},
		{
			"buffer":0,
			"byteLength":384,
			"byteOffset":13500,
			"target":34962
		},
		{
			"buffer":0,
			"byteLength":384,
			"byteOffset":13884,
			"target":34962
		},
		{
			"buffer":0,
			"byteLength":256,
			"byteOffset":14268,
			"target":34962
		},
		{
			"buffer":0,
			"byteLength":256,
			"byteOffset":14524,
			"target":34962
		},
		{
			"buffer":0,
			"byteLength":96,
			"byteOffset":14780,
			"target":34963
		},
		{
			"buffer":0,
			"byteLength":48,
			"byteOffset":14876,
			"target":34962
		},
		{
			"buffer":0,
			"byteLength":48,
			"byteOffset":14924,
			"target":34962
		},
		{
			"buffer":0,
			"byteLength":32,
			"byteOffset":14972,
			"target":34962
		},
		{
			"buffer":0,
			"byteLength":32,
			"byteOffset":15004,
			"target":34962
		},
		{
			"buffer":0,
			"byteLength":12,
			"byteOffset":15036,
			"target":34963
		},
		{
			"buffer":0,
			"byteLength":48,
			"byteOffset":15048,
			"target":34962
		},
		{
			"buffer":0,
			"byteLength":48,
			"byteOffset":15096,
			"target":34962
		},
		{
			"buffer":0,
			"byteLength":32,
			"byteOffset":15144,
			"target":34962
		},
		{
			"buffer":0,
			"byteLength":32,
			"byteOffset":15176,
			"target":34962
		},
		{
			"buffer":0,
			"byteLength":12,
			"byteOffset":15208,
			"target":34963
		},
		{
			"buffer":0,
			"byteLength":48,
			"byteOffset":15220,
			"target":34962
		},
		{
			"buffer":0,
			"byteLength":48,
			"byteOffset":15268,
			"target":34962
		},
		{
			"buffer":0,
			"byteLength":32,
			"byteOffset":15316,
			"target":34962
		},
		{
			"buffer":0,
			"byteLength":32,
			"byteOffset":15348,
			"target":34962
		},
		{
			"buffer":0,
			"byteLength":12,
			"byteOffset":15380,
			"target":34963
		},
		{
			"buffer":0,
			"byteLength":48,
			"byteOffset":15392,
			"target":34962
		},
		{
			"buffer":0,
			"byteLength":48,
			"byteOffset":15440,
			"target":34962
		},
		{
			"buffer":0,
			"byteLength":32,
			"byteOffset":15488,
			"target":34962
		},
		{
			"buffer":0,
			"byteLength":32,
			"byteOffset":15520,
			"target":34962
		},
		{
			"buffer":0,
			"byteLength":12,
			"byteOffset":15552,
			"target":34963
		},
		{
			"buffer":0,
			"byteLength":192,
			"byteOffset":15564,
			"target":34962
		},
		{
			"buffer":0,
			"byteLength":192,
			"byteOffset":15756,
			"target":34962
		},
		{
			"buffer":0,
			"byteLength":128,
			"byteOffset":15948,
			"target":34962
		},
		{
			"buffer":0,
			"byteLength":128,
			"byteOffset":16076,
			"target":34962
		},
		{
			"buffer":0,
			"byteLength":48,
			"byteOffset":16204,
			"target":34963
		},
		{
			"buffer":0,
			"byteLength":192,
			"byteOffset":16252,
			"target":34962
		},
		{
			"buffer":0,
			"byteLength":192,
			"byteOffset":16444,
			"target":34962
		},
		{
			"buffer":0,
			"byteLength":128,
			"byteOffset":16636,
			"target":34962
		},
		{
			"buffer":0,
			"byteLength":128,
			"byteOffset":16764,
			"target":34962
		},
		{
			"buffer":0,
			"byteLength":48,
			"byteOffset":16892,
			"target":34963
		},
		{
			"buffer":0,
			"byteLength":192,
			"byteOffset":16940,
			"target":34962
		},
		{
			"buffer":0,
			"byteLength":192,
			"byteOffset":17132,
			"target":34962
		},
		{
			"buffer":0,
			"byteLength":128,
			"byteOffset":17324,
			"target":34962
		},
		{
			"buffer":0,
			"byteLength":128,
			"byteOffset":17452,
			"target":34962
		},
		{
			"buffer":0,
			"byteLength":48,
			"byteOffset":17580,
			"target":34963
		},
		{
			"buffer":0,
			"byteLength":192,
			"byteOffset":17628,
			"target":34962
		},
		{
			"buffer":0,
			"byteLength":192,
			"byteOffset":17820,
			"target":34962
		},
		{
			"buffer":0,
			"byteLength":128,
			"byteOffset":18012,
			"target":34962
		},
		{
			"buffer":0,
			"byteLength":128,
			"byteOffset":18140,
			"target":34962
		},
		{
			"buffer":0,
			"byteLength":48,
			"byteOffset":18268,
			"target":34963
		},
		{
			"buffer":0,
			"byteLength":720,
			"byteOffset":18316,
			"target":34962
		},
		{
			"buffer":0,
			"byteLength":720,
			"byteOffset":19036,
			"target":34962
		},
		{
			"buffer":0,
			"byteLength":480,
			"byteOffset":19756,
			"target":34962
		},
		{
			"buffer":0,
			"byteLength":480,
			"byteOffset":20236,
			"target":34962
		},
		{
			"buffer":0,
			"byteLength":240,
			"byteOffset":20716,
			"target":34963
		},
		{
			"buffer":0,
			"byteLength":48,
			"byteOffset":20956,
			"target":34962
		},
		{
			"buffer":0,
			"byteLength":48,
			"byteOffset":21004,
			"target":34962
		},
		{
			"buffer":0,
			"byteLength":32,
			"byteOffset":21052,
			"target":34962
		},
		{
			"buffer":0,
			"byteLength":12,
			"byteOffset":21084,
			"target":34963
		}
	],
	"samplers":[
		{
			"magFilter":9729,
			"minFilter":9987
		}
	],
	"buffers":[
		{
			"byteLength":21096,
			"uri":"large_1.bin"
		}
	]
}
