{
	"asset":{
		"generator":"Khronos glTF Blender I/O v4.3.47",
		"version":"2.0"
	},
	"scene":0,
	"scenes":[
		{
			"name":"Scene",
			"nodes":[
				0,
				1
			]
		}
	],
	"nodes":[
		{
			"mesh":0,
			"name":"Maxis-3d3-mesh-29",
			"rotation":[
				0.70710688829422,
				0,
				0,
				0.7071066498756409
			]
		},
		{
			"extras":{
				"gd_node":"Decal",
				"lower_fade":9,
				"upper_fade":10
			},
			"mesh":1,
			"name":"Ground_AO",
			"scale":[
				16.800151824951172,
				1,
				16.63892364501953
			],
			"translation":[
				0.5291996002197266,
				0,
				-0.19731450080871582
			]
		}
	],
	"materials":[
		{
			"name":"mat40-52.003",
			"occlusionTexture":{
				"index":0,
				"texCoord":1
			},
			"pbrMetallicRoughness":{
				"baseColorTexture":{
					"index":1
				},
				"metallicFactor":0
			}
		},
		{
			"name":"mat40-55.003",
			"occlusionTexture":{
				"index":2,
				"texCoord":1
			},
			"pbrMetallicRoughness":{
				"baseColorTexture":{
					"index":3
				},
				"metallicFactor":0
			}
		},
		{
			"name":"mat39-13",
			"occlusionTexture":{
				"index":4,
				"texCoord":1
			},
			"pbrMetallicRoughness":{
				"baseColorTexture":{
					"index":5
				},
				"metallicFactor":0
			}
		},
		{
			"name":"mat40-54.003",
			"occlusionTexture":{
				"index":6,
				"texCoord":1
			},
			"pbrMetallicRoughness":{
				"baseColorTexture":{
					"index":7
				},
				"metallicFactor":0
			}
		},
		{
			"name":"matcolour-48.007",
			"occlusionTexture":{
				"index":8,
				"texCoord":1
			},
			"pbrMetallicRoughness":{
				"baseColorFactor":[
					0.05882352963089943,
					0.05882352963089943,
					0.05882352963089943,
					1
				],
				"metallicFactor":0
			}
		},
		{
			"name":"mat39-30",
			"occlusionTexture":{
				"index":9,
				"texCoord":1
			},
			"pbrMetallicRoughness":{
				"baseColorTexture":{
					"index":10
				},
				"metallicFactor":0
			}
		},
		{
			"name":"mat39-59",
			"occlusionTexture":{
				"index":11,
				"texCoord":1
			},
			"pbrMetallicRoughness":{
				"baseColorTexture":{
					"index":12
				},
				"metallicFactor":0
			}
		},
		{
			"name":"mat39-58",
			"occlusionTexture":{
				"index":13,
				"texCoord":1
			},
			"pbrMetallicRoughness":{
				"baseColorTexture":{
					"index":14
				},
				"metallicFactor":0
			}
		},
		{
			"name":"mat40-22.001",
			"occlusionTexture":{
				"index":15,
				"texCoord":1
			},
			"pbrMetallicRoughness":{
				"baseColorTexture":{
					"index":16
				},
				"metallicFactor":0
			}
		},
		{
			"name":"mat39-62",
			"occlusionTexture":{
				"index":17,
				"texCoord":1
			},
			"pbrMetallicRoughness":{
				"baseColorTexture":{
					"index":18
				},
				"metallicFactor":0
			}
		},
		{
			"name":"mat39-60",
			"occlusionTexture":{
				"index":19,
				"texCoord":1
			},
			"pbrMetallicRoughness":{
				"baseColorTexture":{
					"index":20
				},
				"metallicFactor":0
			}
		},
		{
			"name":"Ground_AO",
			"occlusionTexture":{
				"index":21
			},
			"pbrMetallicRoughness":{
				"baseColorFactor":[
					0.800000011920929,
					0.800000011920929,
					0.800000011920929,
					1
				],
				"metallicFactor":0,
				"roughnessFactor":0.5
			}
		}
	],
	"meshes":[
		{
			"name":"Maxis-3d3-mesh-29",
			"primitives":[
				{
					"attributes":{
						"POSITION":0,
						"NORMAL":1,
						"TEXCOORD_0":2,
						"TEXCOORD_1":3
					},
					"indices":4,
					"material":0
				},
				{
					"attributes":{
						"POSITION":5,
						"NORMAL":6,
						"TEXCOORD_0":7,
						"TEXCOORD_1":8
					},
					"indices":9,
					"material":1
				},
				{
					"attributes":{
						"POSITION":10,
						"NORMAL":11,
						"TEXCOORD_0":12,
						"TEXCOORD_1":13
					},
					"indices":14,
					"material":2
				},
				{
					"attributes":{
						"POSITION":15,
						"NORMAL":16,
						"TEXCOORD_0":17,
						"TEXCOORD_1":18
					},
					"indices":19,
					"material":3
				},
				{
					"attributes":{
						"POSITION":20,
						"NORMAL":21,
						"TEXCOORD_0":22,
						"TEXCOORD_1":23
					},
					"indices":24,
					"material":4
				},
				{
					"attributes":{
						"POSITION":25,
						"NORMAL":26,
						"TEXCOORD_0":27,
						"TEXCOORD_1":28
					},
					"indices":29,
					"material":5
				},
				{
					"attributes":{
						"POSITION":30,
						"NORMAL":31,
						"TEXCOORD_0":32,
						"TEXCOORD_1":33
					},
					"indices":34,
					"material":6
				},
				{
					"attributes":{
						"POSITION":35,
						"NORMAL":36,
						"TEXCOORD_0":37,
						"TEXCOORD_1":38
					},
					"indices":39,
					"material":7
				},
				{
					"attributes":{
						"POSITION":40,
						"NORMAL":41,
						"TEXCOORD_0":42,
						"TEXCOORD_1":43
					},
					"indices":44,
					"material":8
				},
				{
					"attributes":{
						"POSITION":45,
						"NORMAL":46,
						"TEXCOORD_0":47,
						"TEXCOORD_1":48
					},
					"indices":49,
					"material":9
				},
				{
					"attributes":{
						"POSITION":50,
						"NORMAL":51,
						"TEXCOORD_0":52,
						"TEXCOORD_1":53
					},
					"indices":54,
					"material":10
				}
			]
		},
		{
			"name":"Plane",
			"primitives":[
				{
					"attributes":{
						"POSITION":55,
						"NORMAL":56,
						"TEXCOORD_0":57
					},
					"indices":58,
					"material":11
				}
			]
		}
	],
	"textures":[
		{
			"sampler":0,
			"source":0
		},
		{
			"sampler":0,
			"source":1
		},
		{
			"sampler":0,
			"source":0
		},
		{
			"sampler":0,
			"source":2
		},
		{
			"sampler":0,
			"source":0
		},
		{
			"sampler":0,
			"source":3
		},
		{
			"sampler":0,
			"source":0
		},
		{
			"sampler":0,
			"source":4
		},
		{
			"sampler":0,
			"source":0
		},
		{
			"sampler":0,
			"source":0
		},
		{
			"sampler":0,
			"source":5
		},
		{
			"sampler":0,
			"source":0
		},
		{
			"sampler":0,
			"source":6
		},
		{
			"sampler":0,
			"source":0
		},
		{
			"sampler":0,
			"source":7
		},
		{
			"sampler":0,
			"source":0
		},
		{
			"sampler":0,
			"source":8
		},
		{
			"sampler":0,
			"source":0
		},
		{
			"sampler":0,
			"source":9
		},
		{
			"sampler":0,
			"source":0
		},
		{
			"sampler":0,
			"source":10
		},
		{
			"sampler":0,
			"source":11
		}
	],
	"images":[
		{
			"mimeType":"image/png",
			"name":"small_2.png",
			"uri":"../../../Textures/ambient_occlusion/Buildings/Warehouse/small_2.png"
		},
		{
			"mimeType":"image/png",
			"name":"tex40-52",
			"uri":"../../../Textures/tex40-52.png"
		},
		{
			"mimeType":"image/png",
			"name":"tex40-55",
			"uri":"../../../Textures/tex40-55.png"
		},
		{
			"mimeType":"image/png",
			"name":"tex39-13",
			"uri":"../../../Textures/tex39-13.png"
		},
		{
			"mimeType":"image/png",
			"name":"tex40-54",
			"uri":"../../../Textures/tex40-54.png"
		},
		{
			"mimeType":"image/png",
			"name":"tex39-30",
			"uri":"../../../Textures/tex39-30.png"
		},
		{
			"mimeType":"image/png",
			"name":"tex39-59",
			"uri":"../../../Textures/tex39-59.png"
		},
		{
			"mimeType":"image/png",
			"name":"tex39-58",
			"uri":"../../../Textures/tex39-58.png"
		},
		{
			"mimeType":"image/png",
			"name":"tex40-22",
			"uri":"../../../Textures/tex40-22.png"
		},
		{
			"mimeType":"image/png",
			"name":"tex39-62",
			"uri":"../../../Textures/tex39-62.png"
		},
		{
			"mimeType":"image/png",
			"name":"tex39-60",
			"uri":"../../../Textures/tex39-60.png"
		},
		{
			"mimeType":"image/png",
			"name":"small_2_ground.png",
			"uri":"../../../Textures/ambient_occlusion/Buildings/Warehouse/small_2_ground.png"
		}
	],
	"accessors":[
		{
			"bufferView":0,
			"componentType":5126,
			"count":5,
			"max":[
				7.945598602294922,
				-8.016777038574219,
				0
			],
			"min":[
				-7.370876312255859,
				-8.016777038574219,
				-7.7388458251953125
			],
			"type":"VEC3"
		},
		{
			"bufferView":1,
			"componentType":5126,
			"count":5,
			"type":"VEC3"
		},
		{
			"bufferView":2,
			"componentType":5126,
			"count":5,
			"type":"VEC2"
		},
		{
			"bufferView":3,
			"componentType":5126,
			"count":5,
			"type":"VEC2"
		},
		{
			"bufferView":4,
			"componentType":5123,
			"count":9,
			"type":"SCALAR"
		},
		{
			"bufferView":5,
			"componentType":5126,
			"count":15,
			"max":[
				7.945598602294922,
				5.526210784912109,
				0
			],
			"min":[
				-7.370876312255859,
				5.526206970214844,
				-7.738849639892578
			],
			"type":"VEC3"
		},
		{
			"bufferView":6,
			"componentType":5126,
			"count":15,
			"type":"VEC3"
		},
		{
			"bufferView":7,
			"componentType":5126,
			"count":15,
			"type":"VEC2"
		},
		{
			"bufferView":8,
			"componentType":5126,
			"count":15,
			"type":"VEC2"
		},
		{
			"bufferView":9,
			"componentType":5123,
			"count":21,
			"type":"SCALAR"
		},
		{
			"bufferView":10,
			"componentType":5126,
			"count":4,
			"max":[
				-7.370876312255859,
				5.526210784912109,
				0
			],
			"min":[
				-7.370876312255859,
				-8.016777038574219,
				-4.675556182861328
			],
			"type":"VEC3"
		},
		{
			"bufferView":11,
			"componentType":5126,
			"count":4,
			"type":"VEC3"
		},
		{
			"bufferView":12,
			"componentType":5126,
			"count":4,
			"type":"VEC2"
		},
		{
			"bufferView":13,
			"componentType":5126,
			"count":4,
			"type":"VEC2"
		},
		{
			"bufferView":14,
			"componentType":5123,
			"count":6,
			"type":"SCALAR"
		},
		{
			"bufferView":15,
			"componentType":5126,
			"count":18,
			"max":[
				7.945598602294922,
				5.526210784912109,
				0
			],
			"min":[
				7.945598602294922,
				-8.016777038574219,
				-3.2245216369628906
			],
			"type":"VEC3"
		},
		{
			"bufferView":16,
			"componentType":5126,
			"count":18,
			"type":"VEC3"
		},
		{
			"bufferView":17,
			"componentType":5126,
			"count":18,
			"type":"VEC2"
		},
		{
			"bufferView":18,
			"componentType":5126,
			"count":18,
			"type":"VEC2"
		},
		{
			"bufferView":19,
			"componentType":5123,
			"count":36,
			"type":"SCALAR"
		},
		{
			"bufferView":20,
			"componentType":5126,
			"count":11,
			"max":[
				7.945598602294922,
				5.526416778564453,
				-3.224517822265625
			],
			"min":[
				-7.370876312255859,
				-8.016777038574219,
				-7.738849639892578
			],
			"type":"VEC3"
		},
		{
			"bufferView":21,
			"componentType":5126,
			"count":11,
			"type":"VEC3"
		},
		{
			"bufferView":22,
			"componentType":5126,
			"count":11,
			"type":"VEC2"
		},
		{
			"bufferView":23,
			"componentType":5126,
			"count":11,
			"type":"VEC2"
		},
		{
			"bufferView":24,
			"componentType":5123,
			"count":15,
			"type":"SCALAR"
		},
		{
			"bufferView":25,
			"componentType":5126,
			"count":4,
			"max":[
				3.914947509765625,
				7.6221466064453125,
				0
			],
			"min":[
				-6.2422943115234375,
				5.526206970214844,
				-4.836780548095703
			],
			"type":"VEC3"
		},
		{
			"bufferView":26,
			"componentType":5126,
			"count":4,
			"type":"VEC3"
		},
		{
			"bufferView":27,
			"componentType":5126,
			"count":4,
			"type":"VEC2"
		},
		{
			"bufferView":28,
			"componentType":5126,
			"count":4,
			"type":"VEC2"
		},
		{
			"bufferView":29,
			"componentType":5123,
			"count":6,
			"type":"SCALAR"
		},
		{
			"bufferView":30,
			"componentType":5126,
			"count":6,
			"max":[
				3.914947509765625,
				7.6221466064453125,
				0
			],
			"min":[
				3.914947509765625,
				5.526210784912109,
				-4.836780548095703
			],
			"type":"VEC3"
		},
		{
			"bufferView":31,
			"componentType":5126,
			"count":6,
			"type":"VEC3"
		},
		{
			"bufferView":32,
			"componentType":5126,
			"count":6,
			"type":"VEC2"
		},
		{
			"bufferView":33,
			"componentType":5126,
			"count":6,
			"type":"VEC2"
		},
		{
			"bufferView":34,
			"componentType":5123,
			"count":6,
			"type":"SCALAR"
		},
		{
			"bufferView":35,
			"componentType":5126,
			"count":3,
			"max":[
				-6.2422943115234375,
				7.6221466064453125,
				0
			],
			"min":[
				-6.2422943115234375,
				5.526206970214844,
				-4.836780548095703
			],
			"type":"VEC3"
		},
		{
			"bufferView":36,
			"componentType":5126,
			"count":3,
			"type":"VEC3"
		},
		{
			"bufferView":37,
			"componentType":5126,
			"count":3,
			"type":"VEC2"
		},
		{
			"bufferView":38,
			"componentType":5126,
			"count":3,
			"type":"VEC2"
		},
		{
			"bufferView":39,
			"componentType":5123,
			"count":3,
			"type":"SCALAR"
		},
		{
			"bufferView":40,
			"componentType":5126,
			"count":12,
			"max":[
				7.945598602294922,
				4.5588531494140625,
				0
			],
			"min":[
				7.945598602294922,
				-7.0494232177734375,
				-3.06329345703125
			],
			"type":"VEC3"
		},
		{
			"bufferView":41,
			"componentType":5126,
			"count":12,
			"type":"VEC3"
		},
		{
			"bufferView":42,
			"componentType":5126,
			"count":12,
			"type":"VEC2"
		},
		{
			"bufferView":43,
			"componentType":5126,
			"count":12,
			"type":"VEC2"
		},
		{
			"bufferView":44,
			"componentType":5123,
			"count":18,
			"type":"SCALAR"
		},
		{
			"bufferView":45,
			"componentType":5126,
			"count":28,
			"max":[
				8.429275512695312,
				5.364982604980469,
				0
			],
			"min":[
				7.945598602294922,
				-7.855552673339844,
				-3.06329345703125
			],
			"type":"VEC3"
		},
		{
			"bufferView":46,
			"componentType":5126,
			"count":28,
			"type":"VEC3"
		},
		{
			"bufferView":47,
			"componentType":5126,
			"count":28,
			"type":"VEC2"
		},
		{
			"bufferView":48,
			"componentType":5126,
			"count":28,
			"type":"VEC2"
		},
		{
			"bufferView":49,
			"componentType":5123,
			"count":36,
			"type":"SCALAR"
		},
		{
			"bufferView":50,
			"componentType":5126,
			"count":12,
			"max":[
				8.429275512695312,
				4.5588531494140625,
				0
			],
			"min":[
				7.945598602294922,
				-7.855552673339844,
				-3.06329345703125
			],
			"type":"VEC3"
		},
		{
			"bufferView":51,
			"componentType":5126,
			"count":12,
			"type":"VEC3"
		},
		{
			"bufferView":52,
			"componentType":5126,
			"count":12,
			"type":"VEC2"
		},
		{
			"bufferView":53,
			"componentType":5126,
			"count":12,
			"type":"VEC2"
		},
		{
			"bufferView":54,
			"componentType":5123,
			"count":12,
			"type":"SCALAR"
		},
		{
			"bufferView":55,
			"componentType":5126,
			"count":4,
			"max":[
				0.5,
				0,
				0.5
			],
			"min":[
				-0.5,
				0,
				-0.5
			],
			"type":"VEC3"
		},
		{
			"bufferView":56,
			"componentType":5126,
			"count":4,
			"type":"VEC3"
		},
		{
			"bufferView":57,
			"componentType":5126,
			"count":4,
			"type":"VEC2"
		},
		{
			"bufferView":58,
			"componentType":5123,
			"count":6,
			"type":"SCALAR"
		}
	],
	"bufferViews":[
		{
			"buffer":0,
			"byteLength":60,
			"byteOffset":0,
			"target":34962
		},
		{
			"buffer":0,
			"byteLength":60,
			"byteOffset":60,
			"target":34962
		},
		{
			"buffer":0,
			"byteLength":40,
			"byteOffset":120,
			"target":34962
		},
		{
			"buffer":0,
			"byteLength":40,
			"byteOffset":160,
			"target":34962
		},
		{
			"buffer":0,
			"byteLength":18,
			"byteOffset":200,
			"target":34963
		},
		{
			"buffer":0,
			"byteLength":180,
			"byteOffset":220,
			"target":34962
		},
		{
			"buffer":0,
			"byteLength":180,
			"byteOffset":400,
			"target":34962
		},
		{
			"buffer":0,
			"byteLength":120,
			"byteOffset":580,
			"target":34962
		},
		{
			"buffer":0,
			"byteLength":120,
			"byteOffset":700,
			"target":34962
		},
		{
			"buffer":0,
			"byteLength":42,
			"byteOffset":820,
			"target":34963
		},
		{
			"buffer":0,
			"byteLength":48,
			"byteOffset":864,
			"target":34962
		},
		{
			"buffer":0,
			"byteLength":48,
			"byteOffset":912,
			"target":34962
		},
		{
			"buffer":0,
			"byteLength":32,
			"byteOffset":960,
			"target":34962
		},
		{
			"buffer":0,
			"byteLength":32,
			"byteOffset":992,
			"target":34962
		},
		{
			"buffer":0,
			"byteLength":12,
			"byteOffset":1024,
			"target":34963
		},
		{
			"buffer":0,
			"byteLength":216,
			"byteOffset":1036,
			"target":34962
		},
		{
			"buffer":0,
			"byteLength":216,
			"byteOffset":1252,
			"target":34962
		},
		{
			"buffer":0,
			"byteLength":144,
			"byteOffset":1468,
			"target":34962
		},
		{
			"buffer":0,
			"byteLength":144,
			"byteOffset":1612,
			"target":34962
		},
		{
			"buffer":0,
			"byteLength":72,
			"byteOffset":1756,
			"target":34963
		},
		{
			"buffer":0,
			"byteLength":132,
			"byteOffset":1828,
			"target":34962
		},
		{
			"buffer":0,
			"byteLength":132,
			"byteOffset":1960,
			"target":34962
		},
		{
			"buffer":0,
			"byteLength":88,
			"byteOffset":2092,
			"target":34962
		},
		{
			"buffer":0,
			"byteLength":88,
			"byteOffset":2180,
			"target":34962
		},
		{
			"buffer":0,
			"byteLength":30,
			"byteOffset":2268,
			"target":34963
		},
		{
			"buffer":0,
			"byteLength":48,
			"byteOffset":2300,
			"target":34962
		},
		{
			"buffer":0,
			"byteLength":48,
			"byteOffset":2348,
			"target":34962
		},
		{
			"buffer":0,
			"byteLength":32,
			"byteOffset":2396,
			"target":34962
		},
		{
			"buffer":0,
			"byteLength":32,
			"byteOffset":2428,
			"target":34962
		},
		{
			"buffer":0,
			"byteLength":12,
			"byteOffset":2460,
			"target":34963
		},
		{
			"buffer":0,
			"byteLength":72,
			"byteOffset":2472,
			"target":34962
		},
		{
			"buffer":0,
			"byteLength":72,
			"byteOffset":2544,
			"target":34962
		},
		{
			"buffer":0,
			"byteLength":48,
			"byteOffset":2616,
			"target":34962
		},
		{
			"buffer":0,
			"byteLength":48,
			"byteOffset":2664,
			"target":34962
		},
		{
			"buffer":0,
			"byteLength":12,
			"byteOffset":2712,
			"target":34963
		},
		{
			"buffer":0,
			"byteLength":36,
			"byteOffset":2724,
			"target":34962
		},
		{
			"buffer":0,
			"byteLength":36,
			"byteOffset":2760,
			"target":34962
		},
		{
			"buffer":0,
			"byteLength":24,
			"byteOffset":2796,
			"target":34962
		},
		{
			"buffer":0,
			"byteLength":24,
			"byteOffset":2820,
			"target":34962
		},
		{
			"buffer":0,
			"byteLength":6,
			"byteOffset":2844,
			"target":34963
		},
		{
			"buffer":0,
			"byteLength":144,
			"byteOffset":2852,
			"target":34962
		},
		{
			"buffer":0,
			"byteLength":144,
			"byteOffset":2996,
			"target":34962
		},
		{
			"buffer":0,
			"byteLength":96,
			"byteOffset":3140,
			"target":34962
		},
		{
			"buffer":0,
			"byteLength":96,
			"byteOffset":3236,
			"target":34962
		},
		{
			"buffer":0,
			"byteLength":36,
			"byteOffset":3332,
			"target":34963
		},
		{
			"buffer":0,
			"byteLength":336,
			"byteOffset":3368,
			"target":34962
		},
		{
			"buffer":0,
			"byteLength":336,
			"byteOffset":3704,
			"target":34962
		},
		{
			"buffer":0,
			"byteLength":224,
			"byteOffset":4040,
			"target":34962
		},
		{
			"buffer":0,
			"byteLength":224,
			"byteOffset":4264,
			"target":34962
		},
		{
			"buffer":0,
			"byteLength":72,
			"byteOffset":4488,
			"target":34963
		},
		{
			"buffer":0,
			"byteLength":144,
			"byteOffset":4560,
			"target":34962
		},
		{
			"buffer":0,
			"byteLength":144,
			"byteOffset":4704,
			"target":34962
		},
		{
			"buffer":0,
			"byteLength":96,
			"byteOffset":4848,
			"target":34962
		},
		{
			"buffer":0,
			"byteLength":96,
			"byteOffset":4944,
			"target":34962
		},
		{
			"buffer":0,
			"byteLength":24,
			"byteOffset":5040,
			"target":34963
		},
		{
			"buffer":0,
			"byteLength":48,
			"byteOffset":5064,
			"target":34962
		},
		{
			"buffer":0,
			"byteLength":48,
			"byteOffset":5112,
			"target":34962
		},
		{
			"buffer":0,
			"byteLength":32,
			"byteOffset":5160,
			"target":34962
		},
		{
			"buffer":0,
			"byteLength":12,
			"byteOffset":5192,
			"target":34963
		}
	],
	"samplers":[
		{
			"magFilter":9729,
			"minFilter":9987
		}
	],
	"buffers":[
		{
			"byteLength":5204,
			"uri":"small_2.bin"
		}
	]
}
