{
	"asset":{
		"generator":"Khronos glTF Blender I/O v4.3.47",
		"version":"2.0"
	},
	"scene":0,
	"scenes":[
		{
			"name":"Scene",
			"nodes":[
				0,
				1
			]
		}
	],
	"nodes":[
		{
			"mesh":0,
			"name":"Maxis-3d2-mesh-0",
			"rotation":[
				0.70710688829422,
				0,
				0,
				0.7071066498756409
			]
		},
		{
			"extras":{
				"gd_node":"Decal",
				"lower_fade":9,
				"upper_fade":10
			},
			"mesh":1,
			"name":"Ground_AO",
			"scale":[
				15.629997253417969,
				1,
				11.841876983642578
			],
			"translation":[
				0,
				0,
				-0.25645947456359863
			]
		}
	],
	"materials":[
		{
			"name":"mat39-7",
			"occlusionTexture":{
				"index":0,
				"texCoord":1
			},
			"pbrMetallicRoughness":{
				"baseColorTexture":{
					"index":1
				},
				"metallicFactor":0
			}
		},
		{
			"name":"mat39-4",
			"occlusionTexture":{
				"index":2,
				"texCoord":1
			},
			"pbrMetallicRoughness":{
				"baseColorTexture":{
					"index":3
				},
				"metallicFactor":0
			}
		},
		{
			"name":"mat40-53.003",
			"occlusionTexture":{
				"index":4,
				"texCoord":1
			},
			"pbrMetallicRoughness":{
				"baseColorTexture":{
					"index":5
				},
				"metallicFactor":0
			}
		},
		{
			"name":"mat40-52.002",
			"occlusionTexture":{
				"index":6,
				"texCoord":1
			},
			"pbrMetallicRoughness":{
				"baseColorTexture":{
					"index":7
				},
				"metallicFactor":0
			}
		},
		{
			"name":"mat39-6",
			"occlusionTexture":{
				"index":8,
				"texCoord":1
			},
			"pbrMetallicRoughness":{
				"baseColorTexture":{
					"index":9
				},
				"metallicFactor":0
			}
		},
		{
			"name":"mat39-5",
			"occlusionTexture":{
				"index":10,
				"texCoord":1
			},
			"pbrMetallicRoughness":{
				"baseColorTexture":{
					"index":11
				},
				"metallicFactor":0
			}
		},
		{
			"name":"matcolour-128.002",
			"occlusionTexture":{
				"index":12,
				"texCoord":1
			},
			"pbrMetallicRoughness":{
				"baseColorFactor":[
					0.12156862765550613,
					0.08235294371843338,
					0.062745101749897,
					1
				],
				"metallicFactor":0
			}
		},
		{
			"name":"Ground_AO",
			"occlusionTexture":{
				"index":13
			},
			"pbrMetallicRoughness":{
				"baseColorFactor":[
					0.800000011920929,
					0.800000011920929,
					0.800000011920929,
					1
				],
				"metallicFactor":0,
				"roughnessFactor":0.5
			}
		}
	],
	"meshes":[
		{
			"name":"Maxis-3d2-mesh-0",
			"primitives":[
				{
					"attributes":{
						"POSITION":0,
						"NORMAL":1,
						"TEXCOORD_0":2,
						"TEXCOORD_1":3
					},
					"indices":4,
					"material":0
				},
				{
					"attributes":{
						"POSITION":5,
						"NORMAL":6,
						"TEXCOORD_0":7,
						"TEXCOORD_1":8
					},
					"indices":9,
					"material":1
				},
				{
					"attributes":{
						"POSITION":10,
						"NORMAL":11,
						"TEXCOORD_0":12,
						"TEXCOORD_1":13
					},
					"indices":14,
					"material":2
				},
				{
					"attributes":{
						"POSITION":15,
						"NORMAL":16,
						"TEXCOORD_0":17,
						"TEXCOORD_1":18
					},
					"indices":19,
					"material":3
				},
				{
					"attributes":{
						"POSITION":20,
						"NORMAL":21,
						"TEXCOORD_0":22,
						"TEXCOORD_1":23
					},
					"indices":24,
					"material":4
				},
				{
					"attributes":{
						"POSITION":25,
						"NORMAL":26,
						"TEXCOORD_0":27,
						"TEXCOORD_1":28
					},
					"indices":29,
					"material":5
				},
				{
					"attributes":{
						"POSITION":30,
						"NORMAL":31,
						"TEXCOORD_0":32,
						"TEXCOORD_1":33
					},
					"indices":34,
					"material":6
				}
			]
		},
		{
			"name":"Plane",
			"primitives":[
				{
					"attributes":{
						"POSITION":35,
						"NORMAL":36,
						"TEXCOORD_0":37
					},
					"indices":38,
					"material":7
				}
			]
		}
	],
	"textures":[
		{
			"sampler":0,
			"source":0
		},
		{
			"sampler":0,
			"source":1
		},
		{
			"sampler":0,
			"source":0
		},
		{
			"sampler":0,
			"source":2
		},
		{
			"sampler":0,
			"source":0
		},
		{
			"sampler":0,
			"source":3
		},
		{
			"sampler":0,
			"source":0
		},
		{
			"sampler":0,
			"source":4
		},
		{
			"sampler":0,
			"source":0
		},
		{
			"sampler":0,
			"source":5
		},
		{
			"sampler":0,
			"source":0
		},
		{
			"sampler":0,
			"source":6
		},
		{
			"sampler":0,
			"source":0
		},
		{
			"sampler":0,
			"source":7
		}
	],
	"images":[
		{
			"mimeType":"image/png",
			"name":"small_1.png",
			"uri":"../../../Textures/ambient_occlusion/Buildings/Warehouse/small_1.png"
		},
		{
			"mimeType":"image/png",
			"name":"tex39-7",
			"uri":"../../../Textures/tex39-7.png"
		},
		{
			"mimeType":"image/png",
			"name":"tex39-4",
			"uri":"../../../Textures/tex39-4.png"
		},
		{
			"mimeType":"image/png",
			"name":"tex40-53",
			"uri":"../../../Textures/tex40-53.png"
		},
		{
			"mimeType":"image/png",
			"name":"tex40-52",
			"uri":"../../../Textures/tex40-52.png"
		},
		{
			"mimeType":"image/png",
			"name":"tex39-6",
			"uri":"../../../Textures/tex39-6.png"
		},
		{
			"mimeType":"image/png",
			"name":"tex39-5",
			"uri":"../../../Textures/tex39-5.png"
		},
		{
			"mimeType":"image/png",
			"name":"small_1_ground.png",
			"uri":"../../../Textures/ambient_occlusion/Buildings/Warehouse/small_1_ground.png"
		}
	],
	"accessors":[
		{
			"bufferView":0,
			"componentType":5126,
			"count":4,
			"max":[
				7.314998626708984,
				5.164478302001953,
				0
			],
			"min":[
				-7.314998626708984,
				5.164478302001953,
				-6.30120849609375
			],
			"type":"VEC3"
		},
		{
			"bufferView":1,
			"componentType":5126,
			"count":4,
			"type":"VEC3"
		},
		{
			"bufferView":2,
			"componentType":5126,
			"count":4,
			"type":"VEC2"
		},
		{
			"bufferView":3,
			"componentType":5126,
			"count":4,
			"type":"VEC2"
		},
		{
			"bufferView":4,
			"componentType":5123,
			"count":6,
			"type":"SCALAR"
		},
		{
			"bufferView":5,
			"componentType":5126,
			"count":6,
			"max":[
				7.314998626708984,
				-5.677391052246094,
				0
			],
			"min":[
				-7.314998626708984,
				-5.677394866943359,
				-6.301204681396484
			],
			"type":"VEC3"
		},
		{
			"bufferView":6,
			"componentType":5126,
			"count":6,
			"type":"VEC3"
		},
		{
			"bufferView":7,
			"componentType":5126,
			"count":6,
			"type":"VEC2"
		},
		{
			"bufferView":8,
			"componentType":5126,
			"count":6,
			"type":"VEC2"
		},
		{
			"bufferView":9,
			"componentType":5123,
			"count":6,
			"type":"SCALAR"
		},
		{
			"bufferView":10,
			"componentType":5126,
			"count":3,
			"max":[
				7.314998626708984,
				5.164478302001953,
				-6.30120849609375
			],
			"min":[
				-7.314998626708984,
				5.1644744873046875,
				-11.52621078491211
			],
			"type":"VEC3"
		},
		{
			"bufferView":11,
			"componentType":5126,
			"count":3,
			"type":"VEC3"
		},
		{
			"bufferView":12,
			"componentType":5126,
			"count":3,
			"type":"VEC2"
		},
		{
			"bufferView":13,
			"componentType":5126,
			"count":3,
			"type":"VEC2"
		},
		{
			"bufferView":14,
			"componentType":5123,
			"count":3,
			"type":"SCALAR"
		},
		{
			"bufferView":15,
			"componentType":5126,
			"count":3,
			"max":[
				7.314998626708984,
				-5.677394866943359,
				-6.301204681396484
			],
			"min":[
				-7.314998626708984,
				-5.677398681640625,
				-11.52621078491211
			],
			"type":"VEC3"
		},
		{
			"bufferView":16,
			"componentType":5126,
			"count":3,
			"type":"VEC3"
		},
		{
			"bufferView":17,
			"componentType":5126,
			"count":3,
			"type":"VEC2"
		},
		{
			"bufferView":18,
			"componentType":5126,
			"count":3,
			"type":"VEC2"
		},
		{
			"bufferView":19,
			"componentType":5123,
			"count":3,
			"type":"SCALAR"
		},
		{
			"bufferView":20,
			"componentType":5126,
			"count":4,
			"max":[
				7.314998626708984,
				5.164478302001953,
				0
			],
			"min":[
				7.314998626708984,
				-5.677394866943359,
				-6.30120849609375
			],
			"type":"VEC3"
		},
		{
			"bufferView":21,
			"componentType":5126,
			"count":4,
			"type":"VEC3"
		},
		{
			"bufferView":22,
			"componentType":5126,
			"count":4,
			"type":"VEC2"
		},
		{
			"bufferView":23,
			"componentType":5126,
			"count":4,
			"type":"VEC2"
		},
		{
			"bufferView":24,
			"componentType":5123,
			"count":6,
			"type":"SCALAR"
		},
		{
			"bufferView":25,
			"componentType":5126,
			"count":4,
			"max":[
				-7.314998626708984,
				5.164478302001953,
				0
			],
			"min":[
				-7.314998626708984,
				-5.677394866943359,
				-6.30120849609375
			],
			"type":"VEC3"
		},
		{
			"bufferView":26,
			"componentType":5126,
			"count":4,
			"type":"VEC3"
		},
		{
			"bufferView":27,
			"componentType":5126,
			"count":4,
			"type":"VEC2"
		},
		{
			"bufferView":28,
			"componentType":5126,
			"count":4,
			"type":"VEC2"
		},
		{
			"bufferView":29,
			"componentType":5123,
			"count":6,
			"type":"SCALAR"
		},
		{
			"bufferView":30,
			"componentType":5126,
			"count":8,
			"max":[
				7.314998626708984,
				5.164478302001953,
				-6.301204681396484
			],
			"min":[
				-7.314998626708984,
				-5.677398681640625,
				-11.52621078491211
			],
			"type":"VEC3"
		},
		{
			"bufferView":31,
			"componentType":5126,
			"count":8,
			"type":"VEC3"
		},
		{
			"bufferView":32,
			"componentType":5126,
			"count":8,
			"type":"VEC2"
		},
		{
			"bufferView":33,
			"componentType":5126,
			"count":8,
			"type":"VEC2"
		},
		{
			"bufferView":34,
			"componentType":5123,
			"count":12,
			"type":"SCALAR"
		},
		{
			"bufferView":35,
			"componentType":5126,
			"count":4,
			"max":[
				0.5,
				0,
				0.5
			],
			"min":[
				-0.5,
				0,
				-0.5
			],
			"type":"VEC3"
		},
		{
			"bufferView":36,
			"componentType":5126,
			"count":4,
			"type":"VEC3"
		},
		{
			"bufferView":37,
			"componentType":5126,
			"count":4,
			"type":"VEC2"
		},
		{
			"bufferView":38,
			"componentType":5123,
			"count":6,
			"type":"SCALAR"
		}
	],
	"bufferViews":[
		{
			"buffer":0,
			"byteLength":48,
			"byteOffset":0,
			"target":34962
		},
		{
			"buffer":0,
			"byteLength":48,
			"byteOffset":48,
			"target":34962
		},
		{
			"buffer":0,
			"byteLength":32,
			"byteOffset":96,
			"target":34962
		},
		{
			"buffer":0,
			"byteLength":32,
			"byteOffset":128,
			"target":34962
		},
		{
			"buffer":0,
			"byteLength":12,
			"byteOffset":160,
			"target":34963
		},
		{
			"buffer":0,
			"byteLength":72,
			"byteOffset":172,
			"target":34962
		},
		{
			"buffer":0,
			"byteLength":72,
			"byteOffset":244,
			"target":34962
		},
		{
			"buffer":0,
			"byteLength":48,
			"byteOffset":316,
			"target":34962
		},
		{
			"buffer":0,
			"byteLength":48,
			"byteOffset":364,
			"target":34962
		},
		{
			"buffer":0,
			"byteLength":12,
			"byteOffset":412,
			"target":34963
		},
		{
			"buffer":0,
			"byteLength":36,
			"byteOffset":424,
			"target":34962
		},
		{
			"buffer":0,
			"byteLength":36,
			"byteOffset":460,
			"target":34962
		},
		{
			"buffer":0,
			"byteLength":24,
			"byteOffset":496,
			"target":34962
		},
		{
			"buffer":0,
			"byteLength":24,
			"byteOffset":520,
			"target":34962
		},
		{
			"buffer":0,
			"byteLength":6,
			"byteOffset":544,
			"target":34963
		},
		{
			"buffer":0,
			"byteLength":36,
			"byteOffset":552,
			"target":34962
		},
		{
			"buffer":0,
			"byteLength":36,
			"byteOffset":588,
			"target":34962
		},
		{
			"buffer":0,
			"byteLength":24,
			"byteOffset":624,
			"target":34962
		},
		{
			"buffer":0,
			"byteLength":24,
			"byteOffset":648,
			"target":34962
		},
		{
			"buffer":0,
			"byteLength":6,
			"byteOffset":672,
			"target":34963
		},
		{
			"buffer":0,
			"byteLength":48,
			"byteOffset":680,
			"target":34962
		},
		{
			"buffer":0,
			"byteLength":48,
			"byteOffset":728,
			"target":34962
		},
		{
			"buffer":0,
			"byteLength":32,
			"byteOffset":776,
			"target":34962
		},
		{
			"buffer":0,
			"byteLength":32,
			"byteOffset":808,
			"target":34962
		},
		{
			"buffer":0,
			"byteLength":12,
			"byteOffset":840,
			"target":34963
		},
		{
			"buffer":0,
			"byteLength":48,
			"byteOffset":852,
			"target":34962
		},
		{
			"buffer":0,
			"byteLength":48,
			"byteOffset":900,
			"target":34962
		},
		{
			"buffer":0,
			"byteLength":32,
			"byteOffset":948,
			"target":34962
		},
		{
			"buffer":0,
			"byteLength":32,
			"byteOffset":980,
			"target":34962
		},
		{
			"buffer":0,
			"byteLength":12,
			"byteOffset":1012,
			"target":34963
		},
		{
			"buffer":0,
			"byteLength":96,
			"byteOffset":1024,
			"target":34962
		},
		{
			"buffer":0,
			"byteLength":96,
			"byteOffset":1120,
			"target":34962
		},
		{
			"buffer":0,
			"byteLength":64,
			"byteOffset":1216,
			"target":34962
		},
		{
			"buffer":0,
			"byteLength":64,
			"byteOffset":1280,
			"target":34962
		},
		{
			"buffer":0,
			"byteLength":24,
			"byteOffset":1344,
			"target":34963
		},
		{
			"buffer":0,
			"byteLength":48,
			"byteOffset":1368,
			"target":34962
		},
		{
			"buffer":0,
			"byteLength":48,
			"byteOffset":1416,
			"target":34962
		},
		{
			"buffer":0,
			"byteLength":32,
			"byteOffset":1464,
			"target":34962
		},
		{
			"buffer":0,
			"byteLength":12,
			"byteOffset":1496,
			"target":34963
		}
	],
	"samplers":[
		{
			"magFilter":9729,
			"minFilter":9987
		}
	],
	"buffers":[
		{
			"byteLength":1508,
			"uri":"small_1.bin"
		}
	]
}
