{
    "asset" : {
        "generator" : "Khronos glTF Blender I/O v1.7.33",
        "version" : "2.0"
    },
    "scene" : 0,
    "scenes" : [
        {
            "name" : "Scene",
            "nodes" : [
                0
            ]
        }
    ],
    "nodes" : [
        {
            "mesh" : 0,
            "name" : "Maxis-3d3-mesh-10",
            "rotation" : [
                0.7071068286895752,
                0,
                0,
                0.7071067094802856
            ]
        }
    ],
    "materials" : [
        {
            "doubleSided" : true,
            "name" : "mat39-12.002",
            "pbrMetallicRoughness" : {
                "baseColorTexture" : {
                    "index" : 0
                },
                "metallicFactor" : 0
            }
        },
        {
            "doubleSided" : true,
            "name" : "mat39-23",
            "pbrMetallicRoughness" : {
                "baseColorTexture" : {
                    "index" : 1
                },
                "metallicFactor" : 0
            }
        },
        {
            "doubleSided" : true,
            "name" : "mat39-31.001",
            "pbrMetallicRoughness" : {
                "baseColorTexture" : {
                    "index" : 2
                },
                "metallicFactor" : 0
            }
        },
        {
            "doubleSided" : true,
            "name" : "mat39-15.002",
            "pbrMetallicRoughness" : {
                "baseColorTexture" : {
                    "index" : 3
                },
                "metallicFactor" : 0
            }
        },
        {
            "doubleSided" : true,
            "name" : "mat39-13.002",
            "pbrMetallicRoughness" : {
                "baseColorTexture" : {
                    "index" : 4
                },
                "metallicFactor" : 0
            }
        },
        {
            "doubleSided" : true,
            "name" : "mat39-21",
            "pbrMetallicRoughness" : {
                "baseColorTexture" : {
                    "index" : 5
                },
                "metallicFactor" : 0
            }
        },
        {
            "doubleSided" : true,
            "name" : "mat39-22",
            "pbrMetallicRoughness" : {
                "baseColorTexture" : {
                    "index" : 6
                },
                "metallicFactor" : 0
            }
        },
        {
            "doubleSided" : true,
            "name" : "mat39-14.002",
            "pbrMetallicRoughness" : {
                "baseColorTexture" : {
                    "index" : 7
                },
                "metallicFactor" : 0
            }
        },
        {
            "doubleSided" : true,
            "name" : "mat2-39.001",
            "pbrMetallicRoughness" : {
                "baseColorTexture" : {
                    "index" : 8
                },
                "metallicFactor" : 0
            }
        },
        {
            "doubleSided" : true,
            "name" : "matcolour-48.013",
            "pbrMetallicRoughness" : {
                "baseColorFactor" : [
                    0.05882352963089943,
                    0.05882352963089943,
                    0.05882352963089943,
                    1
                ],
                "metallicFactor" : 0
            }
        }
    ],
    "meshes" : [
        {
            "name" : "Maxis-3d3-mesh-10",
            "primitives" : [
                {
                    "attributes" : {
                        "POSITION" : 0,
                        "NORMAL" : 1,
                        "TEXCOORD_0" : 2
                    },
                    "indices" : 3,
                    "material" : 0
                },
                {
                    "attributes" : {
                        "POSITION" : 4,
                        "NORMAL" : 5,
                        "TEXCOORD_0" : 6
                    },
                    "indices" : 3,
                    "material" : 1
                },
                {
                    "attributes" : {
                        "POSITION" : 7,
                        "NORMAL" : 8,
                        "TEXCOORD_0" : 9
                    },
                    "indices" : 10,
                    "material" : 2
                },
                {
                    "attributes" : {
                        "POSITION" : 11,
                        "NORMAL" : 12,
                        "TEXCOORD_0" : 13
                    },
                    "indices" : 3,
                    "material" : 3
                },
                {
                    "attributes" : {
                        "POSITION" : 14,
                        "NORMAL" : 15,
                        "TEXCOORD_0" : 16
                    },
                    "indices" : 17,
                    "material" : 4
                },
                {
                    "attributes" : {
                        "POSITION" : 18,
                        "NORMAL" : 19,
                        "TEXCOORD_0" : 20
                    },
                    "indices" : 21,
                    "material" : 5
                },
                {
                    "attributes" : {
                        "POSITION" : 22,
                        "NORMAL" : 23,
                        "TEXCOORD_0" : 24
                    },
                    "indices" : 25,
                    "material" : 6
                },
                {
                    "attributes" : {
                        "POSITION" : 26,
                        "NORMAL" : 27,
                        "TEXCOORD_0" : 28
                    },
                    "indices" : 29,
                    "material" : 7
                },
                {
                    "attributes" : {
                        "POSITION" : 30,
                        "NORMAL" : 31,
                        "TEXCOORD_0" : 32
                    },
                    "indices" : 33,
                    "material" : 8
                },
                {
                    "attributes" : {
                        "POSITION" : 34,
                        "NORMAL" : 35,
                        "TEXCOORD_0" : 36
                    },
                    "indices" : 37,
                    "material" : 9
                },
                {
                    "attributes" : {
                        "POSITION" : 38
                    },
                    "indices" : 39,
                    "material" : 0,
                    "mode" : 1
                }
            ]
        }
    ],
    "textures" : [
        {
            "sampler" : 0,
            "source" : 0
        },
        {
            "sampler" : 0,
            "source" : 1
        },
        {
            "sampler" : 0,
            "source" : 2
        },
        {
            "sampler" : 0,
            "source" : 3
        },
        {
            "sampler" : 0,
            "source" : 4
        },
        {
            "sampler" : 0,
            "source" : 5
        },
        {
            "sampler" : 0,
            "source" : 6
        },
        {
            "sampler" : 0,
            "source" : 7
        },
        {
            "sampler" : 0,
            "source" : 8
        }
    ],
    "images" : [
        {
            "mimeType" : "image/png",
            "name" : "tex39-12",
            "uri" : "../../../Textures/tex39-12.png"
        },
        {
            "mimeType" : "image/png",
            "name" : "tex39-23",
            "uri" : "../../../Textures/tex39-23.png"
        },
        {
            "mimeType" : "image/png",
            "name" : "tex39-31",
            "uri" : "../../../Textures/tex39-31.png"
        },
        {
            "mimeType" : "image/png",
            "name" : "tex39-15",
            "uri" : "../../../Textures/tex39-15.png"
        },
        {
            "mimeType" : "image/png",
            "name" : "tex39-13",
            "uri" : "../../../Textures/tex39-13.png"
        },
        {
            "mimeType" : "image/png",
            "name" : "tex39-21",
            "uri" : "../../../Textures/tex39-21.png"
        },
        {
            "mimeType" : "image/png",
            "name" : "tex39-22",
            "uri" : "../../../Textures/tex39-22.png"
        },
        {
            "mimeType" : "image/png",
            "name" : "tex39-14",
            "uri" : "../../../Textures/tex39-14.png"
        },
        {
            "mimeType" : "image/png",
            "name" : "tex2-39",
            "uri" : "../../../Textures/tex2-39.png"
        }
    ],
    "accessors" : [
        {
            "bufferView" : 0,
            "componentType" : 5126,
            "count" : 4,
            "max" : [
                2.95587158203125,
                -7.446346282958984,
                -0.012676239013671875
            ],
            "min" : [
                -6.560291290283203,
                -7.44635009765625,
                -8.54440689086914
            ],
            "type" : "VEC3"
        },
        {
            "bufferView" : 1,
            "componentType" : 5126,
            "count" : 4,
            "type" : "VEC3"
        },
        {
            "bufferView" : 2,
            "componentType" : 5126,
            "count" : 4,
            "type" : "VEC2"
        },
        {
            "bufferView" : 3,
            "componentType" : 5123,
            "count" : 6,
            "type" : "SCALAR"
        },
        {
            "bufferView" : 4,
            "componentType" : 5126,
            "count" : 4,
            "max" : [
                1.0288467407226562,
                -4.456142425537109,
                -8.54440689086914
            ],
            "min" : [
                -4.633266448974609,
                -4.456142425537109,
                -13.560504913330078
            ],
            "type" : "VEC3"
        },
        {
            "bufferView" : 5,
            "componentType" : 5126,
            "count" : 4,
            "type" : "VEC3"
        },
        {
            "bufferView" : 6,
            "componentType" : 5126,
            "count" : 4,
            "type" : "VEC2"
        },
        {
            "bufferView" : 7,
            "componentType" : 5126,
            "count" : 6,
            "max" : [
                1.0288505554199219,
                4.329898834228516,
                -8.544414520263672
            ],
            "min" : [
                -4.633266448974609,
                4.32989501953125,
                -13.560504913330078
            ],
            "type" : "VEC3"
        },
        {
            "bufferView" : 8,
            "componentType" : 5126,
            "count" : 6,
            "type" : "VEC3"
        },
        {
            "bufferView" : 9,
            "componentType" : 5126,
            "count" : 6,
            "type" : "VEC2"
        },
        {
            "bufferView" : 10,
            "componentType" : 5123,
            "count" : 6,
            "type" : "SCALAR"
        },
        {
            "bufferView" : 11,
            "componentType" : 5126,
            "count" : 4,
            "max" : [
                2.95587158203125,
                7.320110321044922,
                -0.0126800537109375
            ],
            "min" : [
                -6.5602874755859375,
                7.320106506347656,
                -8.544414520263672
            ],
            "type" : "VEC3"
        },
        {
            "bufferView" : 12,
            "componentType" : 5126,
            "count" : 4,
            "type" : "VEC3"
        },
        {
            "bufferView" : 13,
            "componentType" : 5126,
            "count" : 4,
            "type" : "VEC2"
        },
        {
            "bufferView" : 14,
            "componentType" : 5126,
            "count" : 4,
            "max" : [
                -6.5602874755859375,
                7.320110321044922,
                -0.012676239013671875
            ],
            "min" : [
                -6.560291290283203,
                -7.44635009765625,
                -8.544414520263672
            ],
            "type" : "VEC3"
        },
        {
            "bufferView" : 15,
            "componentType" : 5126,
            "count" : 4,
            "type" : "VEC3"
        },
        {
            "bufferView" : 16,
            "componentType" : 5126,
            "count" : 4,
            "type" : "VEC2"
        },
        {
            "bufferView" : 17,
            "componentType" : 5123,
            "count" : 6,
            "type" : "SCALAR"
        },
        {
            "bufferView" : 18,
            "componentType" : 5126,
            "count" : 4,
            "max" : [
                -4.633266448974609,
                4.329898834228516,
                -8.54440689086914
            ],
            "min" : [
                -4.633266448974609,
                -4.456142425537109,
                -12.063411712646484
            ],
            "type" : "VEC3"
        },
        {
            "bufferView" : 19,
            "componentType" : 5126,
            "count" : 4,
            "type" : "VEC3"
        },
        {
            "bufferView" : 20,
            "componentType" : 5126,
            "count" : 4,
            "type" : "VEC2"
        },
        {
            "bufferView" : 21,
            "componentType" : 5123,
            "count" : 6,
            "type" : "SCALAR"
        },
        {
            "bufferView" : 22,
            "componentType" : 5126,
            "count" : 6,
            "max" : [
                1.0288505554199219,
                4.329898834228516,
                -8.54440689086914
            ],
            "min" : [
                1.0288467407226562,
                -4.456142425537109,
                -13.560504913330078
            ],
            "type" : "VEC3"
        },
        {
            "bufferView" : 23,
            "componentType" : 5126,
            "count" : 6,
            "type" : "VEC3"
        },
        {
            "bufferView" : 24,
            "componentType" : 5126,
            "count" : 6,
            "type" : "VEC2"
        },
        {
            "bufferView" : 25,
            "componentType" : 5123,
            "count" : 6,
            "type" : "SCALAR"
        },
        {
            "bufferView" : 26,
            "componentType" : 5126,
            "count" : 4,
            "max" : [
                2.95587158203125,
                7.320110321044922,
                -0.012676239013671875
            ],
            "min" : [
                2.95587158203125,
                -7.44635009765625,
                -8.544414520263672
            ],
            "type" : "VEC3"
        },
        {
            "bufferView" : 27,
            "componentType" : 5126,
            "count" : 4,
            "type" : "VEC3"
        },
        {
            "bufferView" : 28,
            "componentType" : 5126,
            "count" : 4,
            "type" : "VEC2"
        },
        {
            "bufferView" : 29,
            "componentType" : 5123,
            "count" : 6,
            "type" : "SCALAR"
        },
        {
            "bufferView" : 30,
            "componentType" : 5126,
            "count" : 18,
            "max" : [
                2.9882965087890625,
                3.919830322265625,
                0.41748046875
            ],
            "min" : [
                2.9882965087890625,
                -4.093818664550781,
                -3.2172889709472656
            ],
            "type" : "VEC3"
        },
        {
            "bufferView" : 31,
            "componentType" : 5126,
            "count" : 18,
            "type" : "VEC3"
        },
        {
            "bufferView" : 32,
            "componentType" : 5126,
            "count" : 18,
            "type" : "VEC2"
        },
        {
            "bufferView" : 33,
            "componentType" : 5123,
            "count" : 18,
            "type" : "SCALAR"
        },
        {
            "bufferView" : 34,
            "componentType" : 5126,
            "count" : 58,
            "max" : [
                2.95587158203125,
                7.320106506347656,
                -8.54440689086914
            ],
            "min" : [
                -6.560291290283203,
                -7.44635009765625,
                -17.431514739990234
            ],
            "type" : "VEC3"
        },
        {
            "bufferView" : 35,
            "componentType" : 5126,
            "count" : 58,
            "type" : "VEC3"
        },
        {
            "bufferView" : 36,
            "componentType" : 5126,
            "count" : 58,
            "type" : "VEC2"
        },
        {
            "bufferView" : 37,
            "componentType" : 5123,
            "count" : 66,
            "type" : "SCALAR"
        },
        {
            "bufferView" : 38,
            "componentType" : 5126,
            "count" : 8,
            "max" : [
                -2.1988983154296875,
                0.8920974731445312,
                -17.3602294921875
            ],
            "min" : [
                -2.1988983154296875,
                -1.39208984375,
                -19.443622589111328
            ],
            "type" : "VEC3"
        },
        {
            "bufferView" : 39,
            "componentType" : 5123,
            "count" : 8,
            "type" : "SCALAR"
        }
    ],
    "bufferViews" : [
        {
            "buffer" : 0,
            "byteLength" : 48,
            "byteOffset" : 0
        },
        {
            "buffer" : 0,
            "byteLength" : 48,
            "byteOffset" : 48
        },
        {
            "buffer" : 0,
            "byteLength" : 32,
            "byteOffset" : 96
        },
        {
            "buffer" : 0,
            "byteLength" : 12,
            "byteOffset" : 128
        },
        {
            "buffer" : 0,
            "byteLength" : 48,
            "byteOffset" : 140
        },
        {
            "buffer" : 0,
            "byteLength" : 48,
            "byteOffset" : 188
        },
        {
            "buffer" : 0,
            "byteLength" : 32,
            "byteOffset" : 236
        },
        {
            "buffer" : 0,
            "byteLength" : 72,
            "byteOffset" : 268
        },
        {
            "buffer" : 0,
            "byteLength" : 72,
            "byteOffset" : 340
        },
        {
            "buffer" : 0,
            "byteLength" : 48,
            "byteOffset" : 412
        },
        {
            "buffer" : 0,
            "byteLength" : 12,
            "byteOffset" : 460
        },
        {
            "buffer" : 0,
            "byteLength" : 48,
            "byteOffset" : 472
        },
        {
            "buffer" : 0,
            "byteLength" : 48,
            "byteOffset" : 520
        },
        {
            "buffer" : 0,
            "byteLength" : 32,
            "byteOffset" : 568
        },
        {
            "buffer" : 0,
            "byteLength" : 48,
            "byteOffset" : 600
        },
        {
            "buffer" : 0,
            "byteLength" : 48,
            "byteOffset" : 648
        },
        {
            "buffer" : 0,
            "byteLength" : 32,
            "byteOffset" : 696
        },
        {
            "buffer" : 0,
            "byteLength" : 12,
            "byteOffset" : 728
        },
        {
            "buffer" : 0,
            "byteLength" : 48,
            "byteOffset" : 740
        },
        {
            "buffer" : 0,
            "byteLength" : 48,
            "byteOffset" : 788
        },
        {
            "buffer" : 0,
            "byteLength" : 32,
            "byteOffset" : 836
        },
        {
            "buffer" : 0,
            "byteLength" : 12,
            "byteOffset" : 868
        },
        {
            "buffer" : 0,
            "byteLength" : 72,
            "byteOffset" : 880
        },
        {
            "buffer" : 0,
            "byteLength" : 72,
            "byteOffset" : 952
        },
        {
            "buffer" : 0,
            "byteLength" : 48,
            "byteOffset" : 1024
        },
        {
            "buffer" : 0,
            "byteLength" : 12,
            "byteOffset" : 1072
        },
        {
            "buffer" : 0,
            "byteLength" : 48,
            "byteOffset" : 1084
        },
        {
            "buffer" : 0,
            "byteLength" : 48,
            "byteOffset" : 1132
        },
        {
            "buffer" : 0,
            "byteLength" : 32,
            "byteOffset" : 1180
        },
        {
            "buffer" : 0,
            "byteLength" : 12,
            "byteOffset" : 1212
        },
        {
            "buffer" : 0,
            "byteLength" : 216,
            "byteOffset" : 1224
        },
        {
            "buffer" : 0,
            "byteLength" : 216,
            "byteOffset" : 1440
        },
        {
            "buffer" : 0,
            "byteLength" : 144,
            "byteOffset" : 1656
        },
        {
            "buffer" : 0,
            "byteLength" : 36,
            "byteOffset" : 1800
        },
        {
            "buffer" : 0,
            "byteLength" : 696,
            "byteOffset" : 1836
        },
        {
            "buffer" : 0,
            "byteLength" : 696,
            "byteOffset" : 2532
        },
        {
            "buffer" : 0,
            "byteLength" : 464,
            "byteOffset" : 3228
        },
        {
            "buffer" : 0,
            "byteLength" : 132,
            "byteOffset" : 3692
        },
        {
            "buffer" : 0,
            "byteLength" : 96,
            "byteOffset" : 3824
        },
        {
            "buffer" : 0,
            "byteLength" : 16,
            "byteOffset" : 3920
        }
    ],
    "samplers" : [
        {
            "magFilter" : 9729,
            "minFilter" : 9987
        }
    ],
    "buffers" : [
        {
            "byteLength" : 3936,
            "uri" : "lower_class_2.bin"
        }
    ]
}
