{
    "asset" : {
        "generator" : "Khronos glTF Blender I/O v1.7.33",
        "version" : "2.0"
    },
    "scene" : 0,
    "scenes" : [
        {
            "name" : "Scene",
            "nodes" : [
                0
            ]
        }
    ],
    "nodes" : [
        {
            "mesh" : 0,
            "name" : "Maxis-3d3-mesh-14",
            "rotation" : [
                0.7071068286895752,
                0,
                0,
                0.7071067094802856
            ]
        }
    ],
    "materials" : [
        {
            "doubleSided" : true,
            "name" : "mat39-15.004",
            "pbrMetallicRoughness" : {
                "baseColorTexture" : {
                    "index" : 0
                },
                "metallicFactor" : 0
            }
        },
        {
            "doubleSided" : true,
            "name" : "mat39-12.004",
            "pbrMetallicRoughness" : {
                "baseColorTexture" : {
                    "index" : 1
                },
                "metallicFactor" : 0
            }
        },
        {
            "doubleSided" : true,
            "name" : "mat39-13.004",
            "pbrMetallicRoughness" : {
                "baseColorTexture" : {
                    "index" : 2
                },
                "metallicFactor" : 0
            }
        },
        {
            "doubleSided" : true,
            "name" : "mat39-14.004",
            "pbrMetallicRoughness" : {
                "baseColorTexture" : {
                    "index" : 3
                },
                "metallicFactor" : 0
            }
        },
        {
            "doubleSided" : true,
            "name" : "mat40-53.009",
            "pbrMetallicRoughness" : {
                "baseColorTexture" : {
                    "index" : 4
                },
                "metallicFactor" : 0
            }
        },
        {
            "doubleSided" : true,
            "name" : "mat40-54.009",
            "pbrMetallicRoughness" : {
                "baseColorTexture" : {
                    "index" : 5
                },
                "metallicFactor" : 0
            }
        },
        {
            "doubleSided" : true,
            "name" : "mat40-62.002",
            "pbrMetallicRoughness" : {
                "baseColorTexture" : {
                    "index" : 6
                },
                "metallicFactor" : 0
            }
        },
        {
            "doubleSided" : true,
            "name" : "mat40-63.001",
            "pbrMetallicRoughness" : {
                "baseColorTexture" : {
                    "index" : 7
                },
                "metallicFactor" : 0
            }
        }
    ],
    "meshes" : [
        {
            "name" : "Maxis-3d3-mesh-14",
            "primitives" : [
                {
                    "attributes" : {
                        "POSITION" : 0,
                        "NORMAL" : 1,
                        "TEXCOORD_0" : 2
                    },
                    "indices" : 3,
                    "material" : 0
                },
                {
                    "attributes" : {
                        "POSITION" : 4,
                        "NORMAL" : 5,
                        "TEXCOORD_0" : 6
                    },
                    "indices" : 7,
                    "material" : 1
                },
                {
                    "attributes" : {
                        "POSITION" : 8,
                        "NORMAL" : 9,
                        "TEXCOORD_0" : 10
                    },
                    "indices" : 11,
                    "material" : 2
                },
                {
                    "attributes" : {
                        "POSITION" : 12,
                        "NORMAL" : 13,
                        "TEXCOORD_0" : 14
                    },
                    "indices" : 15,
                    "material" : 3
                },
                {
                    "attributes" : {
                        "POSITION" : 16,
                        "NORMAL" : 17,
                        "TEXCOORD_0" : 18
                    },
                    "indices" : 19,
                    "material" : 4
                },
                {
                    "attributes" : {
                        "POSITION" : 20,
                        "NORMAL" : 21,
                        "TEXCOORD_0" : 22
                    },
                    "indices" : 23,
                    "material" : 5
                },
                {
                    "attributes" : {
                        "POSITION" : 24,
                        "NORMAL" : 25,
                        "TEXCOORD_0" : 26
                    },
                    "indices" : 27,
                    "material" : 6
                },
                {
                    "attributes" : {
                        "POSITION" : 28,
                        "NORMAL" : 29,
                        "TEXCOORD_0" : 30
                    },
                    "indices" : 31,
                    "material" : 7
                }
            ]
        }
    ],
    "textures" : [
        {
            "sampler" : 0,
            "source" : 0
        },
        {
            "sampler" : 0,
            "source" : 1
        },
        {
            "sampler" : 0,
            "source" : 2
        },
        {
            "sampler" : 0,
            "source" : 3
        },
        {
            "sampler" : 0,
            "source" : 4
        },
        {
            "sampler" : 0,
            "source" : 5
        },
        {
            "sampler" : 0,
            "source" : 6
        },
        {
            "sampler" : 0,
            "source" : 7
        }
    ],
    "images" : [
        {
            "mimeType" : "image/png",
            "name" : "tex39-15",
            "uri" : "../../../Textures/tex39-15.png"
        },
        {
            "mimeType" : "image/png",
            "name" : "tex39-12",
            "uri" : "../../../Textures/tex39-12.png"
        },
        {
            "mimeType" : "image/png",
            "name" : "tex39-13",
            "uri" : "../../../Textures/tex39-13.png"
        },
        {
            "mimeType" : "image/png",
            "name" : "tex39-14",
            "uri" : "../../../Textures/tex39-14.png"
        },
        {
            "mimeType" : "image/png",
            "name" : "tex40-53",
            "uri" : "../../../Textures/tex40-53.png"
        },
        {
            "mimeType" : "image/png",
            "name" : "tex40-54",
            "uri" : "../../../Textures/tex40-54.png"
        },
        {
            "mimeType" : "image/png",
            "name" : "tex40-62",
            "uri" : "../../../Textures/tex40-62.png"
        },
        {
            "mimeType" : "image/png",
            "name" : "tex40-63",
            "uri" : "../../../Textures/tex40-63.png"
        }
    ],
    "accessors" : [
        {
            "bufferView" : 0,
            "componentType" : 5126,
            "count" : 10,
            "max" : [
                7.240192413330078,
                7.265289306640625,
                0.022796630859375
            ],
            "min" : [
                -7.4593963623046875,
                -0.17894744873046875,
                -4.868419647216797
            ],
            "type" : "VEC3"
        },
        {
            "bufferView" : 1,
            "componentType" : 5126,
            "count" : 10,
            "type" : "VEC3"
        },
        {
            "bufferView" : 2,
            "componentType" : 5126,
            "count" : 10,
            "type" : "VEC2"
        },
        {
            "bufferView" : 3,
            "componentType" : 5123,
            "count" : 12,
            "type" : "SCALAR"
        },
        {
            "bufferView" : 4,
            "componentType" : 5126,
            "count" : 12,
            "max" : [
                7.240818023681641,
                0.4408302307128906,
                0.022796630859375
            ],
            "min" : [
                -7.4593963623046875,
                -7.0031890869140625,
                -4.868415832519531
            ],
            "type" : "VEC3"
        },
        {
            "bufferView" : 5,
            "componentType" : 5126,
            "count" : 12,
            "type" : "VEC3"
        },
        {
            "bufferView" : 6,
            "componentType" : 5126,
            "count" : 12,
            "type" : "VEC2"
        },
        {
            "bufferView" : 7,
            "componentType" : 5123,
            "count" : 12,
            "type" : "SCALAR"
        },
        {
            "bufferView" : 8,
            "componentType" : 5126,
            "count" : 12,
            "max" : [
                -7.404205322265625,
                7.265289306640625,
                0.022796630859375
            ],
            "min" : [
                -7.4593963623046875,
                -7.0031890869140625,
                -4.868419647216797
            ],
            "type" : "VEC3"
        },
        {
            "bufferView" : 9,
            "componentType" : 5126,
            "count" : 12,
            "type" : "VEC3"
        },
        {
            "bufferView" : 10,
            "componentType" : 5126,
            "count" : 12,
            "type" : "VEC2"
        },
        {
            "bufferView" : 11,
            "componentType" : 5123,
            "count" : 12,
            "type" : "SCALAR"
        },
        {
            "bufferView" : 12,
            "componentType" : 5126,
            "count" : 12,
            "max" : [
                7.240818023681641,
                7.265289306640625,
                0.022796630859375
            ],
            "min" : [
                -0.45214080810546875,
                -7.003185272216797,
                -4.868419647216797
            ],
            "type" : "VEC3"
        },
        {
            "bufferView" : 13,
            "componentType" : 5126,
            "count" : 12,
            "type" : "VEC3"
        },
        {
            "bufferView" : 14,
            "componentType" : 5126,
            "count" : 12,
            "type" : "VEC2"
        },
        {
            "bufferView" : 15,
            "componentType" : 5123,
            "count" : 12,
            "type" : "SCALAR"
        },
        {
            "bufferView" : 16,
            "componentType" : 5126,
            "count" : 6,
            "max" : [
                -7.404205322265625,
                7.265289306640625,
                -4.868415832519531
            ],
            "min" : [
                -7.4593963623046875,
                -7.0031890869140625,
                -6.818264007568359
            ],
            "type" : "VEC3"
        },
        {
            "bufferView" : 17,
            "componentType" : 5126,
            "count" : 6,
            "type" : "VEC3"
        },
        {
            "bufferView" : 18,
            "componentType" : 5126,
            "count" : 6,
            "type" : "VEC2"
        },
        {
            "bufferView" : 19,
            "componentType" : 5123,
            "count" : 6,
            "type" : "SCALAR"
        },
        {
            "bufferView" : 20,
            "componentType" : 5126,
            "count" : 6,
            "max" : [
                7.240818023681641,
                7.265289306640625,
                -4.868415832519531
            ],
            "min" : [
                -0.45214080810546875,
                -7.003185272216797,
                -6.818264007568359
            ],
            "type" : "VEC3"
        },
        {
            "bufferView" : 21,
            "componentType" : 5126,
            "count" : 6,
            "type" : "VEC3"
        },
        {
            "bufferView" : 22,
            "componentType" : 5126,
            "count" : 6,
            "type" : "VEC2"
        },
        {
            "bufferView" : 23,
            "componentType" : 5123,
            "count" : 6,
            "type" : "SCALAR"
        },
        {
            "bufferView" : 24,
            "componentType" : 5126,
            "count" : 10,
            "max" : [
                7.240818023681641,
                3.853057861328125,
                -4.868415832519531
            ],
            "min" : [
                -7.4593963623046875,
                -7.0031890869140625,
                -6.818264007568359
            ],
            "type" : "VEC3"
        },
        {
            "bufferView" : 25,
            "componentType" : 5126,
            "count" : 10,
            "type" : "VEC3"
        },
        {
            "bufferView" : 26,
            "componentType" : 5126,
            "count" : 10,
            "type" : "VEC2"
        },
        {
            "bufferView" : 27,
            "componentType" : 5123,
            "count" : 12,
            "type" : "SCALAR"
        },
        {
            "bufferView" : 28,
            "componentType" : 5126,
            "count" : 10,
            "max" : [
                7.240505218505859,
                7.265289306640625,
                -4.868415832519531
            ],
            "min" : [
                -7.4593963623046875,
                -3.623523712158203,
                -6.818264007568359
            ],
            "type" : "VEC3"
        },
        {
            "bufferView" : 29,
            "componentType" : 5126,
            "count" : 10,
            "type" : "VEC3"
        },
        {
            "bufferView" : 30,
            "componentType" : 5126,
            "count" : 10,
            "type" : "VEC2"
        },
        {
            "bufferView" : 31,
            "componentType" : 5123,
            "count" : 12,
            "type" : "SCALAR"
        }
    ],
    "bufferViews" : [
        {
            "buffer" : 0,
            "byteLength" : 120,
            "byteOffset" : 0
        },
        {
            "buffer" : 0,
            "byteLength" : 120,
            "byteOffset" : 120
        },
        {
            "buffer" : 0,
            "byteLength" : 80,
            "byteOffset" : 240
        },
        {
            "buffer" : 0,
            "byteLength" : 24,
            "byteOffset" : 320
        },
        {
            "buffer" : 0,
            "byteLength" : 144,
            "byteOffset" : 344
        },
        {
            "buffer" : 0,
            "byteLength" : 144,
            "byteOffset" : 488
        },
        {
            "buffer" : 0,
            "byteLength" : 96,
            "byteOffset" : 632
        },
        {
            "buffer" : 0,
            "byteLength" : 24,
            "byteOffset" : 728
        },
        {
            "buffer" : 0,
            "byteLength" : 144,
            "byteOffset" : 752
        },
        {
            "buffer" : 0,
            "byteLength" : 144,
            "byteOffset" : 896
        },
        {
            "buffer" : 0,
            "byteLength" : 96,
            "byteOffset" : 1040
        },
        {
            "buffer" : 0,
            "byteLength" : 24,
            "byteOffset" : 1136
        },
        {
            "buffer" : 0,
            "byteLength" : 144,
            "byteOffset" : 1160
        },
        {
            "buffer" : 0,
            "byteLength" : 144,
            "byteOffset" : 1304
        },
        {
            "buffer" : 0,
            "byteLength" : 96,
            "byteOffset" : 1448
        },
        {
            "buffer" : 0,
            "byteLength" : 24,
            "byteOffset" : 1544
        },
        {
            "buffer" : 0,
            "byteLength" : 72,
            "byteOffset" : 1568
        },
        {
            "buffer" : 0,
            "byteLength" : 72,
            "byteOffset" : 1640
        },
        {
            "buffer" : 0,
            "byteLength" : 48,
            "byteOffset" : 1712
        },
        {
            "buffer" : 0,
            "byteLength" : 12,
            "byteOffset" : 1760
        },
        {
            "buffer" : 0,
            "byteLength" : 72,
            "byteOffset" : 1772
        },
        {
            "buffer" : 0,
            "byteLength" : 72,
            "byteOffset" : 1844
        },
        {
            "buffer" : 0,
            "byteLength" : 48,
            "byteOffset" : 1916
        },
        {
            "buffer" : 0,
            "byteLength" : 12,
            "byteOffset" : 1964
        },
        {
            "buffer" : 0,
            "byteLength" : 120,
            "byteOffset" : 1976
        },
        {
            "buffer" : 0,
            "byteLength" : 120,
            "byteOffset" : 2096
        },
        {
            "buffer" : 0,
            "byteLength" : 80,
            "byteOffset" : 2216
        },
        {
            "buffer" : 0,
            "byteLength" : 24,
            "byteOffset" : 2296
        },
        {
            "buffer" : 0,
            "byteLength" : 120,
            "byteOffset" : 2320
        },
        {
            "buffer" : 0,
            "byteLength" : 120,
            "byteOffset" : 2440
        },
        {
            "buffer" : 0,
            "byteLength" : 80,
            "byteOffset" : 2560
        },
        {
            "buffer" : 0,
            "byteLength" : 24,
            "byteOffset" : 2640
        }
    ],
    "samplers" : [
        {
            "magFilter" : 9729,
            "minFilter" : 9987
        }
    ],
    "buffers" : [
        {
            "byteLength" : 2664,
            "uri" : "middle_class_3.bin"
        }
    ]
}
