{
    "asset" : {
        "generator" : "Khronos glTF Blender I/O v1.7.33",
        "version" : "2.0"
    },
    "scene" : 0,
    "scenes" : [
        {
            "name" : "Scene",
            "nodes" : [
                0
            ]
        }
    ],
    "nodes" : [
        {
            "mesh" : 0,
            "name" : "Maxis-3d3-mesh-15",
            "rotation" : [
                0.7071068286895752,
                0,
                0,
                0.7071067094802856
            ]
        }
    ],
    "materials" : [
        {
            "doubleSided" : true,
            "name" : "mat40-29",
            "pbrMetallicRoughness" : {
                "baseColorTexture" : {
                    "index" : 0
                },
                "metallicFactor" : 0
            }
        },
        {
            "doubleSided" : true,
            "name" : "mat39-61.004",
            "pbrMetallicRoughness" : {
                "baseColorTexture" : {
                    "index" : 1
                },
                "metallicFactor" : 0
            }
        },
        {
            "doubleSided" : true,
            "name" : "mat40-30",
            "pbrMetallicRoughness" : {
                "baseColorTexture" : {
                    "index" : 2
                },
                "metallicFactor" : 0
            }
        },
        {
            "doubleSided" : true,
            "name" : "mat39-62.004",
            "pbrMetallicRoughness" : {
                "baseColorTexture" : {
                    "index" : 3
                },
                "metallicFactor" : 0
            }
        },
        {
            "doubleSided" : true,
            "name" : "mat40-28",
            "pbrMetallicRoughness" : {
                "baseColorTexture" : {
                    "index" : 4
                },
                "metallicFactor" : 0
            }
        },
        {
            "doubleSided" : true,
            "name" : "mat40-63.002",
            "pbrMetallicRoughness" : {
                "baseColorTexture" : {
                    "index" : 5
                },
                "metallicFactor" : 0
            }
        },
        {
            "doubleSided" : true,
            "name" : "mat40-62.003",
            "pbrMetallicRoughness" : {
                "baseColorTexture" : {
                    "index" : 6
                },
                "metallicFactor" : 0
            }
        }
    ],
    "meshes" : [
        {
            "name" : "Maxis-3d3-mesh-15",
            "primitives" : [
                {
                    "attributes" : {
                        "POSITION" : 0,
                        "NORMAL" : 1,
                        "TEXCOORD_0" : 2
                    },
                    "indices" : 3,
                    "material" : 0
                },
                {
                    "attributes" : {
                        "POSITION" : 4,
                        "NORMAL" : 5,
                        "TEXCOORD_0" : 6
                    },
                    "indices" : 7,
                    "material" : 1
                },
                {
                    "attributes" : {
                        "POSITION" : 8,
                        "NORMAL" : 9,
                        "TEXCOORD_0" : 10
                    },
                    "indices" : 11,
                    "material" : 2
                },
                {
                    "attributes" : {
                        "POSITION" : 12,
                        "NORMAL" : 13,
                        "TEXCOORD_0" : 14
                    },
                    "indices" : 15,
                    "material" : 3
                },
                {
                    "attributes" : {
                        "POSITION" : 16,
                        "NORMAL" : 17,
                        "TEXCOORD_0" : 18
                    },
                    "indices" : 19,
                    "material" : 4
                },
                {
                    "attributes" : {
                        "POSITION" : 20,
                        "NORMAL" : 21,
                        "TEXCOORD_0" : 22
                    },
                    "indices" : 23,
                    "material" : 5
                },
                {
                    "attributes" : {
                        "POSITION" : 24,
                        "NORMAL" : 25,
                        "TEXCOORD_0" : 26
                    },
                    "indices" : 27,
                    "material" : 6
                }
            ]
        }
    ],
    "textures" : [
        {
            "sampler" : 0,
            "source" : 0
        },
        {
            "sampler" : 0,
            "source" : 1
        },
        {
            "sampler" : 0,
            "source" : 2
        },
        {
            "sampler" : 0,
            "source" : 3
        },
        {
            "sampler" : 0,
            "source" : 4
        },
        {
            "sampler" : 0,
            "source" : 5
        },
        {
            "sampler" : 0,
            "source" : 6
        }
    ],
    "images" : [
        {
            "mimeType" : "image/png",
            "name" : "tex40-29",
            "uri" : "../../../Textures/tex40-29.png"
        },
        {
            "mimeType" : "image/png",
            "name" : "tex39-61",
            "uri" : "../../../Textures/tex39-61.png"
        },
        {
            "mimeType" : "image/png",
            "name" : "tex40-30",
            "uri" : "../../../Textures/tex40-30.png"
        },
        {
            "mimeType" : "image/png",
            "name" : "tex39-62",
            "uri" : "../../../Textures/tex39-62.png"
        },
        {
            "mimeType" : "image/png",
            "name" : "tex40-28",
            "uri" : "../../../Textures/tex40-28.png"
        },
        {
            "mimeType" : "image/png",
            "name" : "tex40-63",
            "uri" : "../../../Textures/tex40-63.png"
        },
        {
            "mimeType" : "image/png",
            "name" : "tex40-62",
            "uri" : "../../../Textures/tex40-62.png"
        }
    ],
    "accessors" : [
        {
            "bufferView" : 0,
            "componentType" : 5126,
            "count" : 4,
            "max" : [
                -1.5745353698730469,
                -0.5677452087402344,
                0.003726959228515625
            ],
            "min" : [
                -1.5745391845703125,
                -6.009956359863281,
                -5.010292053222656
            ],
            "type" : "VEC3"
        },
        {
            "bufferView" : 1,
            "componentType" : 5126,
            "count" : 4,
            "type" : "VEC3"
        },
        {
            "bufferView" : 2,
            "componentType" : 5126,
            "count" : 4,
            "type" : "VEC2"
        },
        {
            "bufferView" : 3,
            "componentType" : 5123,
            "count" : 6,
            "type" : "SCALAR"
        },
        {
            "bufferView" : 4,
            "componentType" : 5126,
            "count" : 3,
            "max" : [
                -1.5745391845703125,
                -0.5677452087402344,
                -5.010292053222656
            ],
            "min" : [
                -1.5745391845703125,
                -6.0098876953125,
                -7.070743560791016
            ],
            "type" : "VEC3"
        },
        {
            "bufferView" : 5,
            "componentType" : 5126,
            "count" : 3,
            "type" : "VEC3"
        },
        {
            "bufferView" : 6,
            "componentType" : 5126,
            "count" : 3,
            "type" : "VEC2"
        },
        {
            "bufferView" : 7,
            "componentType" : 5123,
            "count" : 3,
            "type" : "SCALAR"
        },
        {
            "bufferView" : 8,
            "componentType" : 5126,
            "count" : 10,
            "max" : [
                5.553081512451172,
                -0.5677452087402344,
                0.003726959228515625
            ],
            "min" : [
                -1.5745391845703125,
                -6.009956359863281,
                -5.010292053222656
            ],
            "type" : "VEC3"
        },
        {
            "bufferView" : 9,
            "componentType" : 5126,
            "count" : 10,
            "type" : "VEC3"
        },
        {
            "bufferView" : 10,
            "componentType" : 5126,
            "count" : 10,
            "type" : "VEC2"
        },
        {
            "bufferView" : 11,
            "componentType" : 5123,
            "count" : 12,
            "type" : "SCALAR"
        },
        {
            "bufferView" : 12,
            "componentType" : 5126,
            "count" : 3,
            "max" : [
                5.553081512451172,
                -0.5677452087402344,
                -5.010292053222656
            ],
            "min" : [
                5.553077697753906,
                -6.0098876953125,
                -7.070743560791016
            ],
            "type" : "VEC3"
        },
        {
            "bufferView" : 13,
            "componentType" : 5126,
            "count" : 3,
            "type" : "VEC3"
        },
        {
            "bufferView" : 14,
            "componentType" : 5126,
            "count" : 3,
            "type" : "VEC2"
        },
        {
            "bufferView" : 15,
            "componentType" : 5123,
            "count" : 3,
            "type" : "SCALAR"
        },
        {
            "bufferView" : 16,
            "componentType" : 5126,
            "count" : 6,
            "max" : [
                5.553081512451172,
                -6.0098876953125,
                0.003726959228515625
            ],
            "min" : [
                -1.5745391845703125,
                -6.009956359863281,
                -5.010292053222656
            ],
            "type" : "VEC3"
        },
        {
            "bufferView" : 17,
            "componentType" : 5126,
            "count" : 6,
            "type" : "VEC3"
        },
        {
            "bufferView" : 18,
            "componentType" : 5126,
            "count" : 6,
            "type" : "VEC2"
        },
        {
            "bufferView" : 19,
            "componentType" : 5123,
            "count" : 6,
            "type" : "SCALAR"
        },
        {
            "bufferView" : 20,
            "componentType" : 5126,
            "count" : 6,
            "max" : [
                5.553081512451172,
                -0.5677452087402344,
                -5.010292053222656
            ],
            "min" : [
                -1.5745391845703125,
                -3.288818359375,
                -7.070743560791016
            ],
            "type" : "VEC3"
        },
        {
            "bufferView" : 21,
            "componentType" : 5126,
            "count" : 6,
            "type" : "VEC3"
        },
        {
            "bufferView" : 22,
            "componentType" : 5126,
            "count" : 6,
            "type" : "VEC2"
        },
        {
            "bufferView" : 23,
            "componentType" : 5123,
            "count" : 6,
            "type" : "SCALAR"
        },
        {
            "bufferView" : 24,
            "componentType" : 5126,
            "count" : 6,
            "max" : [
                5.553081512451172,
                -3.288818359375,
                -5.010292053222656
            ],
            "min" : [
                -1.5745391845703125,
                -6.0098876953125,
                -7.070743560791016
            ],
            "type" : "VEC3"
        },
        {
            "bufferView" : 25,
            "componentType" : 5126,
            "count" : 6,
            "type" : "VEC3"
        },
        {
            "bufferView" : 26,
            "componentType" : 5126,
            "count" : 6,
            "type" : "VEC2"
        },
        {
            "bufferView" : 27,
            "componentType" : 5123,
            "count" : 6,
            "type" : "SCALAR"
        }
    ],
    "bufferViews" : [
        {
            "buffer" : 0,
            "byteLength" : 48,
            "byteOffset" : 0
        },
        {
            "buffer" : 0,
            "byteLength" : 48,
            "byteOffset" : 48
        },
        {
            "buffer" : 0,
            "byteLength" : 32,
            "byteOffset" : 96
        },
        {
            "buffer" : 0,
            "byteLength" : 12,
            "byteOffset" : 128
        },
        {
            "buffer" : 0,
            "byteLength" : 36,
            "byteOffset" : 140
        },
        {
            "buffer" : 0,
            "byteLength" : 36,
            "byteOffset" : 176
        },
        {
            "buffer" : 0,
            "byteLength" : 24,
            "byteOffset" : 212
        },
        {
            "buffer" : 0,
            "byteLength" : 6,
            "byteOffset" : 236
        },
        {
            "buffer" : 0,
            "byteLength" : 120,
            "byteOffset" : 244
        },
        {
            "buffer" : 0,
            "byteLength" : 120,
            "byteOffset" : 364
        },
        {
            "buffer" : 0,
            "byteLength" : 80,
            "byteOffset" : 484
        },
        {
            "buffer" : 0,
            "byteLength" : 24,
            "byteOffset" : 564
        },
        {
            "buffer" : 0,
            "byteLength" : 36,
            "byteOffset" : 588
        },
        {
            "buffer" : 0,
            "byteLength" : 36,
            "byteOffset" : 624
        },
        {
            "buffer" : 0,
            "byteLength" : 24,
            "byteOffset" : 660
        },
        {
            "buffer" : 0,
            "byteLength" : 6,
            "byteOffset" : 684
        },
        {
            "buffer" : 0,
            "byteLength" : 72,
            "byteOffset" : 692
        },
        {
            "buffer" : 0,
            "byteLength" : 72,
            "byteOffset" : 764
        },
        {
            "buffer" : 0,
            "byteLength" : 48,
            "byteOffset" : 836
        },
        {
            "buffer" : 0,
            "byteLength" : 12,
            "byteOffset" : 884
        },
        {
            "buffer" : 0,
            "byteLength" : 72,
            "byteOffset" : 896
        },
        {
            "buffer" : 0,
            "byteLength" : 72,
            "byteOffset" : 968
        },
        {
            "buffer" : 0,
            "byteLength" : 48,
            "byteOffset" : 1040
        },
        {
            "buffer" : 0,
            "byteLength" : 12,
            "byteOffset" : 1088
        },
        {
            "buffer" : 0,
            "byteLength" : 72,
            "byteOffset" : 1100
        },
        {
            "buffer" : 0,
            "byteLength" : 72,
            "byteOffset" : 1172
        },
        {
            "buffer" : 0,
            "byteLength" : 48,
            "byteOffset" : 1244
        },
        {
            "buffer" : 0,
            "byteLength" : 12,
            "byteOffset" : 1292
        }
    ],
    "samplers" : [
        {
            "magFilter" : 9729,
            "minFilter" : 9987
        }
    ],
    "buffers" : [
        {
            "byteLength" : 1304,
            "uri" : "middle_class_4.bin"
        }
    ]
}
