{
	"asset":{
		"generator":"Khronos glTF Blender I/O v4.3.47",
		"version":"2.0"
	},
	"scene":0,
	"scenes":[
		{
			"name":"Scene",
			"nodes":[
				0,
				1
			]
		}
	],
	"nodes":[
		{
			"mesh":0,
			"name":"Maxis-3d3-mesh-80",
			"rotation":[
				0.70710688829422,
				0,
				0,
				0.7071066498756409
			]
		},
		{
			"extras":{
				"gd_node":"Decal",
				"lower_fade":9,
				"upper_fade":10
			},
			"mesh":1,
			"name":"Ground_AO",
			"scale":[
				64.70420837402344,
				1,
				62.28470230102539
			],
			"translation":[
				0.2484893798828125,
				-2.434718408039771e-05,
				-0.6422996520996094
			]
		}
	],
	"materials":[
		{
			"name":"matcolour-80",
			"occlusionTexture":{
				"index":0,
				"texCoord":1
			},
			"pbrMetallicRoughness":{
				"baseColorFactor":[
					0.18431372940540314,
					0.14509804546833038,
					0.03921568766236305,
					1
				],
				"metallicFactor":0
			}
		},
		{
			"name":"mat40-63.001",
			"occlusionTexture":{
				"index":1,
				"texCoord":1
			},
			"pbrMetallicRoughness":{
				"baseColorTexture":{
					"index":2
				},
				"metallicFactor":0
			}
		},
		{
			"name":"mat40-61.001",
			"occlusionTexture":{
				"index":3,
				"texCoord":1
			},
			"pbrMetallicRoughness":{
				"baseColorTexture":{
					"index":4
				},
				"metallicFactor":0
			}
		},
		{
			"name":"mat40-62",
			"occlusionTexture":{
				"index":5,
				"texCoord":1
			},
			"pbrMetallicRoughness":{
				"baseColorTexture":{
					"index":6
				},
				"metallicFactor":0
			}
		},
		{
			"name":"mat40-60.003",
			"occlusionTexture":{
				"index":7,
				"texCoord":1
			},
			"pbrMetallicRoughness":{
				"baseColorTexture":{
					"index":8
				},
				"metallicFactor":0
			}
		},
		{
			"name":"Ground_AO",
			"occlusionTexture":{
				"index":9
			},
			"pbrMetallicRoughness":{
				"baseColorFactor":[
					0.800000011920929,
					0.800000011920929,
					0.800000011920929,
					1
				],
				"metallicFactor":0,
				"roughnessFactor":0.5
			}
		}
	],
	"meshes":[
		{
			"name":"Maxis-3d3-mesh-80",
			"primitives":[
				{
					"attributes":{
						"POSITION":0,
						"NORMAL":1,
						"TEXCOORD_0":2,
						"TEXCOORD_1":3
					},
					"indices":4,
					"material":0
				},
				{
					"attributes":{
						"POSITION":5,
						"NORMAL":6,
						"TEXCOORD_0":7,
						"TEXCOORD_1":8
					},
					"indices":9,
					"material":1
				},
				{
					"attributes":{
						"POSITION":10,
						"NORMAL":11,
						"TEXCOORD_0":12,
						"TEXCOORD_1":13
					},
					"indices":14,
					"material":2
				},
				{
					"attributes":{
						"POSITION":15,
						"NORMAL":16,
						"TEXCOORD_0":17,
						"TEXCOORD_1":18
					},
					"indices":19,
					"material":3
				},
				{
					"attributes":{
						"POSITION":20,
						"NORMAL":21,
						"TEXCOORD_0":22,
						"TEXCOORD_1":23
					},
					"indices":24,
					"material":4
				}
			]
		},
		{
			"name":"Plane",
			"primitives":[
				{
					"attributes":{
						"POSITION":25,
						"NORMAL":26,
						"TEXCOORD_0":27
					},
					"indices":28,
					"material":5
				}
			]
		}
	],
	"textures":[
		{
			"sampler":0,
			"source":0
		},
		{
			"sampler":0,
			"source":0
		},
		{
			"sampler":0,
			"source":1
		},
		{
			"sampler":0,
			"source":0
		},
		{
			"sampler":0,
			"source":2
		},
		{
			"sampler":0,
			"source":0
		},
		{
			"sampler":0,
			"source":3
		},
		{
			"sampler":0,
			"source":0
		},
		{
			"sampler":0,
			"source":4
		},
		{
			"sampler":0,
			"source":5
		}
	],
	"images":[
		{
			"mimeType":"image/png",
			"name":"darco.png",
			"uri":"../../../Textures/ambient_occlusion/Buildings/Arcology/darco.png"
		},
		{
			"mimeType":"image/png",
			"name":"tex40-63",
			"uri":"../../../Textures/tex40-63.png"
		},
		{
			"mimeType":"image/png",
			"name":"tex40-61",
			"uri":"../../../Textures/tex40-61.png"
		},
		{
			"mimeType":"image/png",
			"name":"tex40-62",
			"uri":"../../../Textures/tex40-62.png"
		},
		{
			"mimeType":"image/png",
			"name":"tex40-60",
			"uri":"../../../Textures/tex40-60.png"
		},
		{
			"mimeType":"image/png",
			"name":"darco_ground.png",
			"uri":"../../../Textures/ambient_occlusion/Buildings/Arcology/darco_ground.png"
		}
	],
	"accessors":[
		{
			"bufferView":0,
			"componentType":5126,
			"count":60,
			"max":[
				32.10059356689453,
				13.074356079101562,
				-40.852813720703125
			],
			"min":[
				-31.603614807128906,
				-31.284652709960938,
				-102.24288177490234
			],
			"type":"VEC3"
		},
		{
			"bufferView":1,
			"componentType":5126,
			"count":60,
			"type":"VEC3"
		},
		{
			"bufferView":2,
			"componentType":5126,
			"count":60,
			"type":"VEC2"
		},
		{
			"bufferView":3,
			"componentType":5126,
			"count":60,
			"type":"VEC2"
		},
		{
			"bufferView":4,
			"componentType":5123,
			"count":75,
			"type":"SCALAR"
		},
		{
			"bufferView":5,
			"componentType":5126,
			"count":38,
			"max":[
				30,
				30.000022888183594,
				0
			],
			"min":[
				-30,
				-29.999980926513672,
				-74.22721862792969
			],
			"type":"VEC3"
		},
		{
			"bufferView":6,
			"componentType":5126,
			"count":38,
			"type":"VEC3"
		},
		{
			"bufferView":7,
			"componentType":5126,
			"count":38,
			"type":"VEC2"
		},
		{
			"bufferView":8,
			"componentType":5126,
			"count":38,
			"type":"VEC2"
		},
		{
			"bufferView":9,
			"componentType":5123,
			"count":72,
			"type":"SCALAR"
		},
		{
			"bufferView":10,
			"componentType":5126,
			"count":35,
			"max":[
				22.21408462524414,
				30.000022888183594,
				1.52587890625e-05
			],
			"min":[
				-30,
				-29.999980926513672,
				-74.22721862792969
			],
			"type":"VEC3"
		},
		{
			"bufferView":11,
			"componentType":5126,
			"count":35,
			"type":"VEC3"
		},
		{
			"bufferView":12,
			"componentType":5126,
			"count":35,
			"type":"VEC2"
		},
		{
			"bufferView":13,
			"componentType":5126,
			"count":35,
			"type":"VEC2"
		},
		{
			"bufferView":14,
			"componentType":5123,
			"count":54,
			"type":"SCALAR"
		},
		{
			"bufferView":15,
			"componentType":5126,
			"count":33,
			"max":[
				30,
				30.000019073486328,
				1.52587890625e-05
			],
			"min":[
				-22.207496643066406,
				-29.999980926513672,
				-74.22721862792969
			],
			"type":"VEC3"
		},
		{
			"bufferView":16,
			"componentType":5126,
			"count":33,
			"type":"VEC3"
		},
		{
			"bufferView":17,
			"componentType":5126,
			"count":33,
			"type":"VEC2"
		},
		{
			"bufferView":18,
			"componentType":5126,
			"count":33,
			"type":"VEC2"
		},
		{
			"bufferView":19,
			"componentType":5123,
			"count":48,
			"type":"SCALAR"
		},
		{
			"bufferView":20,
			"componentType":5126,
			"count":36,
			"max":[
				30,
				22.000019073486328,
				1.52587890625e-05
			],
			"min":[
				-30,
				-29.999980926513672,
				-74.22720336914062
			],
			"type":"VEC3"
		},
		{
			"bufferView":21,
			"componentType":5126,
			"count":36,
			"type":"VEC3"
		},
		{
			"bufferView":22,
			"componentType":5126,
			"count":36,
			"type":"VEC2"
		},
		{
			"bufferView":23,
			"componentType":5126,
			"count":36,
			"type":"VEC2"
		},
		{
			"bufferView":24,
			"componentType":5123,
			"count":54,
			"type":"SCALAR"
		},
		{
			"bufferView":25,
			"componentType":5126,
			"count":4,
			"max":[
				0.5,
				0,
				0.5
			],
			"min":[
				-0.5,
				0,
				-0.5
			],
			"type":"VEC3"
		},
		{
			"bufferView":26,
			"componentType":5126,
			"count":4,
			"type":"VEC3"
		},
		{
			"bufferView":27,
			"componentType":5126,
			"count":4,
			"type":"VEC2"
		},
		{
			"bufferView":28,
			"componentType":5123,
			"count":6,
			"type":"SCALAR"
		}
	],
	"bufferViews":[
		{
			"buffer":0,
			"byteLength":720,
			"byteOffset":0,
			"target":34962
		},
		{
			"buffer":0,
			"byteLength":720,
			"byteOffset":720,
			"target":34962
		},
		{
			"buffer":0,
			"byteLength":480,
			"byteOffset":1440,
			"target":34962
		},
		{
			"buffer":0,
			"byteLength":480,
			"byteOffset":1920,
			"target":34962
		},
		{
			"buffer":0,
			"byteLength":150,
			"byteOffset":2400,
			"target":34963
		},
		{
			"buffer":0,
			"byteLength":456,
			"byteOffset":2552,
			"target":34962
		},
		{
			"buffer":0,
			"byteLength":456,
			"byteOffset":3008,
			"target":34962
		},
		{
			"buffer":0,
			"byteLength":304,
			"byteOffset":3464,
			"target":34962
		},
		{
			"buffer":0,
			"byteLength":304,
			"byteOffset":3768,
			"target":34962
		},
		{
			"buffer":0,
			"byteLength":144,
			"byteOffset":4072,
			"target":34963
		},
		{
			"buffer":0,
			"byteLength":420,
			"byteOffset":4216,
			"target":34962
		},
		{
			"buffer":0,
			"byteLength":420,
			"byteOffset":4636,
			"target":34962
		},
		{
			"buffer":0,
			"byteLength":280,
			"byteOffset":5056,
			"target":34962
		},
		{
			"buffer":0,
			"byteLength":280,
			"byteOffset":5336,
			"target":34962
		},
		{
			"buffer":0,
			"byteLength":108,
			"byteOffset":5616,
			"target":34963
		},
		{
			"buffer":0,
			"byteLength":396,
			"byteOffset":5724,
			"target":34962
		},
		{
			"buffer":0,
			"byteLength":396,
			"byteOffset":6120,
			"target":34962
		},
		{
			"buffer":0,
			"byteLength":264,
			"byteOffset":6516,
			"target":34962
		},
		{
			"buffer":0,
			"byteLength":264,
			"byteOffset":6780,
			"target":34962
		},
		{
			"buffer":0,
			"byteLength":96,
			"byteOffset":7044,
			"target":34963
		},
		{
			"buffer":0,
			"byteLength":432,
			"byteOffset":7140,
			"target":34962
		},
		{
			"buffer":0,
			"byteLength":432,
			"byteOffset":7572,
			"target":34962
		},
		{
			"buffer":0,
			"byteLength":288,
			"byteOffset":8004,
			"target":34962
		},
		{
			"buffer":0,
			"byteLength":288,
			"byteOffset":8292,
			"target":34962
		},
		{
			"buffer":0,
			"byteLength":108,
			"byteOffset":8580,
			"target":34963
		},
		{
			"buffer":0,
			"byteLength":48,
			"byteOffset":8688,
			"target":34962
		},
		{
			"buffer":0,
			"byteLength":48,
			"byteOffset":8736,
			"target":34962
		},
		{
			"buffer":0,
			"byteLength":32,
			"byteOffset":8784,
			"target":34962
		},
		{
			"buffer":0,
			"byteLength":12,
			"byteOffset":8816,
			"target":34963
		}
	],
	"samplers":[
		{
			"magFilter":9729,
			"minFilter":9987
		}
	],
	"buffers":[
		{
			"byteLength":8828,
			"uri":"darco.bin"
		}
	]
}
