{
	"asset":{
		"generator":"Khronos glTF Blender I/O v4.3.47",
		"version":"2.0"
	},
	"scene":0,
	"scenes":[
		{
			"name":"Scene",
			"nodes":[
				0,
				1
			]
		}
	],
	"nodes":[
		{
			"mesh":0,
			"name":"Maxis-3d3-mesh-79",
			"rotation":[
				0.70710688829422,
				0,
				0,
				0.7071066498756409
			]
		},
		{
			"extras":{
				"gd_node":"Decal",
				"lower_fade":9,
				"upper_fade":10
			},
			"mesh":1,
			"name":"Ground_AO",
			"scale":[
				39.16986846923828,
				1,
				34.056121826171875
			],
			"translation":[
				0,
				0.273173063993454,
				1.239776611328125e-05
			]
		}
	],
	"materials":[
		{
			"name":"mat40-45.001",
			"occlusionTexture":{
				"index":0,
				"texCoord":1
			},
			"pbrMetallicRoughness":{
				"baseColorTexture":{
					"index":1
				},
				"metallicFactor":0
			}
		},
		{
			"name":"mat40-46.001",
			"occlusionTexture":{
				"index":2,
				"texCoord":1
			},
			"pbrMetallicRoughness":{
				"baseColorTexture":{
					"index":3
				},
				"metallicFactor":0
			}
		},
		{
			"name":"mat40-22.002",
			"occlusionTexture":{
				"index":4,
				"texCoord":1
			},
			"pbrMetallicRoughness":{
				"baseColorTexture":{
					"index":5
				},
				"metallicFactor":0
			}
		},
		{
			"name":"mat40-21.002",
			"occlusionTexture":{
				"index":6,
				"texCoord":1
			},
			"pbrMetallicRoughness":{
				"baseColorTexture":{
					"index":7
				},
				"metallicFactor":0
			}
		},
		{
			"name":"mat40-36.001",
			"occlusionTexture":{
				"index":8,
				"texCoord":1
			},
			"pbrMetallicRoughness":{
				"baseColorTexture":{
					"index":9
				},
				"metallicFactor":0
			}
		},
		{
			"name":"mat40-39.001",
			"occlusionTexture":{
				"index":10,
				"texCoord":1
			},
			"pbrMetallicRoughness":{
				"baseColorTexture":{
					"index":11
				},
				"metallicFactor":0
			}
		},
		{
			"name":"mat40-37.001",
			"occlusionTexture":{
				"index":12,
				"texCoord":1
			},
			"pbrMetallicRoughness":{
				"baseColorTexture":{
					"index":13
				},
				"metallicFactor":0
			}
		},
		{
			"name":"mat40-38.001",
			"occlusionTexture":{
				"index":14,
				"texCoord":1
			},
			"pbrMetallicRoughness":{
				"baseColorTexture":{
					"index":15
				},
				"metallicFactor":0
			}
		},
		{
			"name":"matcolour-48.001",
			"occlusionTexture":{
				"index":16,
				"texCoord":1
			},
			"pbrMetallicRoughness":{
				"baseColorFactor":[
					0.05882352963089943,
					0.05882352963089943,
					0.05882352963089943,
					1
				],
				"metallicFactor":0
			}
		},
		{
			"name":"mat40-44.001",
			"occlusionTexture":{
				"index":17,
				"texCoord":1
			},
			"pbrMetallicRoughness":{
				"baseColorTexture":{
					"index":18
				},
				"metallicFactor":0
			}
		},
		{
			"name":"mat40-47.001",
			"occlusionTexture":{
				"index":19,
				"texCoord":1
			},
			"pbrMetallicRoughness":{
				"baseColorTexture":{
					"index":20
				},
				"metallicFactor":0
			}
		},
		{
			"name":"mat40-23.002",
			"occlusionTexture":{
				"index":21,
				"texCoord":1
			},
			"pbrMetallicRoughness":{
				"baseColorTexture":{
					"index":22
				},
				"metallicFactor":0
			}
		},
		{
			"name":"mat40-20.002",
			"occlusionTexture":{
				"index":23,
				"texCoord":1
			},
			"pbrMetallicRoughness":{
				"baseColorTexture":{
					"index":24
				},
				"metallicFactor":0
			}
		},
		{
			"name":"Ground_AO",
			"occlusionTexture":{
				"index":25
			},
			"pbrMetallicRoughness":{
				"baseColorFactor":[
					0.800000011920929,
					0.800000011920929,
					0.800000011920929,
					1
				],
				"metallicFactor":0,
				"roughnessFactor":0.5
			}
		}
	],
	"meshes":[
		{
			"name":"Maxis-3d3-mesh-79.001",
			"primitives":[
				{
					"attributes":{
						"POSITION":0,
						"NORMAL":1,
						"TEXCOORD_0":2,
						"TEXCOORD_1":3
					},
					"indices":4,
					"material":0
				},
				{
					"attributes":{
						"POSITION":5,
						"NORMAL":6,
						"TEXCOORD_0":7,
						"TEXCOORD_1":8
					},
					"indices":9,
					"material":1
				},
				{
					"attributes":{
						"POSITION":10,
						"NORMAL":11,
						"TEXCOORD_0":12,
						"TEXCOORD_1":13
					},
					"indices":14,
					"material":2
				},
				{
					"attributes":{
						"POSITION":15,
						"NORMAL":16,
						"TEXCOORD_0":17,
						"TEXCOORD_1":18
					},
					"indices":19,
					"material":3
				},
				{
					"attributes":{
						"POSITION":20,
						"NORMAL":21,
						"TEXCOORD_0":22,
						"TEXCOORD_1":23
					},
					"indices":24,
					"material":4
				},
				{
					"attributes":{
						"POSITION":25,
						"NORMAL":26,
						"TEXCOORD_0":27,
						"TEXCOORD_1":28
					},
					"indices":29,
					"material":5
				},
				{
					"attributes":{
						"POSITION":30,
						"NORMAL":31,
						"TEXCOORD_0":32,
						"TEXCOORD_1":33
					},
					"indices":34,
					"material":6
				},
				{
					"attributes":{
						"POSITION":35,
						"NORMAL":36,
						"TEXCOORD_0":37,
						"TEXCOORD_1":38
					},
					"indices":39,
					"material":7
				},
				{
					"attributes":{
						"POSITION":40,
						"NORMAL":41,
						"TEXCOORD_0":42,
						"TEXCOORD_1":43
					},
					"indices":44,
					"material":8
				},
				{
					"attributes":{
						"POSITION":45,
						"NORMAL":46,
						"TEXCOORD_0":47,
						"TEXCOORD_1":48
					},
					"indices":49,
					"material":9
				},
				{
					"attributes":{
						"POSITION":50,
						"NORMAL":51,
						"TEXCOORD_0":52,
						"TEXCOORD_1":53
					},
					"indices":54,
					"material":10
				},
				{
					"attributes":{
						"POSITION":55,
						"NORMAL":56,
						"TEXCOORD_0":57,
						"TEXCOORD_1":58
					},
					"indices":59,
					"material":11
				},
				{
					"attributes":{
						"POSITION":60,
						"NORMAL":61,
						"TEXCOORD_0":62,
						"TEXCOORD_1":63
					},
					"indices":64,
					"material":12
				}
			]
		},
		{
			"name":"Plane",
			"primitives":[
				{
					"attributes":{
						"POSITION":65,
						"NORMAL":66,
						"TEXCOORD_0":67
					},
					"indices":29,
					"material":13
				}
			]
		}
	],
	"textures":[
		{
			"sampler":0,
			"source":0
		},
		{
			"sampler":0,
			"source":1
		},
		{
			"sampler":0,
			"source":0
		},
		{
			"sampler":0,
			"source":2
		},
		{
			"sampler":0,
			"source":0
		},
		{
			"sampler":0,
			"source":3
		},
		{
			"sampler":0,
			"source":0
		},
		{
			"sampler":0,
			"source":4
		},
		{
			"sampler":0,
			"source":0
		},
		{
			"sampler":0,
			"source":5
		},
		{
			"sampler":0,
			"source":0
		},
		{
			"sampler":0,
			"source":6
		},
		{
			"sampler":0,
			"source":0
		},
		{
			"sampler":0,
			"source":7
		},
		{
			"sampler":0,
			"source":0
		},
		{
			"sampler":0,
			"source":8
		},
		{
			"sampler":0,
			"source":0
		},
		{
			"sampler":0,
			"source":0
		},
		{
			"sampler":0,
			"source":9
		},
		{
			"sampler":0,
			"source":0
		},
		{
			"sampler":0,
			"source":10
		},
		{
			"sampler":0,
			"source":0
		},
		{
			"sampler":0,
			"source":11
		},
		{
			"sampler":0,
			"source":0
		},
		{
			"sampler":0,
			"source":12
		},
		{
			"sampler":0,
			"source":13
		}
	],
	"images":[
		{
			"mimeType":"image/png",
			"name":"forest.png",
			"uri":"../../../Textures/ambient_occlusion/Buildings/Arcology/forest.png"
		},
		{
			"mimeType":"image/png",
			"name":"tex40-45",
			"uri":"../../../Textures/tex40-45.png"
		},
		{
			"mimeType":"image/png",
			"name":"tex40-46",
			"uri":"../../../Textures/tex40-46.png"
		},
		{
			"mimeType":"image/png",
			"name":"tex40-22",
			"uri":"../../../Textures/tex40-22.png"
		},
		{
			"mimeType":"image/png",
			"name":"tex40-21",
			"uri":"../../../Textures/tex40-21.png"
		},
		{
			"mimeType":"image/png",
			"name":"tex40-36",
			"uri":"../../../Textures/tex40-36.png"
		},
		{
			"mimeType":"image/png",
			"name":"tex40-39",
			"uri":"../../../Textures/tex40-39.png"
		},
		{
			"mimeType":"image/png",
			"name":"tex40-37",
			"uri":"../../../Textures/tex40-37.png"
		},
		{
			"mimeType":"image/png",
			"name":"tex40-38",
			"uri":"../../../Textures/tex40-38.png"
		},
		{
			"mimeType":"image/png",
			"name":"tex40-44",
			"uri":"../../../Textures/tex40-44.png"
		},
		{
			"mimeType":"image/png",
			"name":"tex40-47",
			"uri":"../../../Textures/tex40-47.png"
		},
		{
			"mimeType":"image/png",
			"name":"tex40-23",
			"uri":"../../../Textures/tex40-23.png"
		},
		{
			"mimeType":"image/png",
			"name":"tex40-20",
			"uri":"../../../Textures/tex40-20.png"
		},
		{
			"mimeType":"image/png",
			"name":"forest_ground.png",
			"uri":"../../../Textures/ambient_occlusion/Buildings/Arcology/forest_ground.png"
		}
	],
	"accessors":[
		{
			"bufferView":0,
			"componentType":5126,
			"count":24,
			"max":[
				19.08493423461914,
				0,
				-46.2731819152832
			],
			"min":[
				-19.08493423461914,
				-16.52804946899414,
				-79.27317810058594
			],
			"type":"VEC3"
		},
		{
			"bufferView":1,
			"componentType":5126,
			"count":24,
			"type":"VEC3"
		},
		{
			"bufferView":2,
			"componentType":5126,
			"count":24,
			"type":"VEC2"
		},
		{
			"bufferView":3,
			"componentType":5126,
			"count":24,
			"type":"VEC2"
		},
		{
			"bufferView":4,
			"componentType":5123,
			"count":36,
			"type":"SCALAR"
		},
		{
			"bufferView":5,
			"componentType":5126,
			"count":24,
			"max":[
				19.08493423461914,
				16.52804946899414,
				-46.2731819152832
			],
			"min":[
				-19.08493423461914,
				-2.288818359375e-05,
				-79.27317810058594
			],
			"type":"VEC3"
		},
		{
			"bufferView":6,
			"componentType":5126,
			"count":24,
			"type":"VEC3"
		},
		{
			"bufferView":7,
			"componentType":5126,
			"count":24,
			"type":"VEC2"
		},
		{
			"bufferView":8,
			"componentType":5126,
			"count":24,
			"type":"VEC2"
		},
		{
			"bufferView":9,
			"componentType":5123,
			"count":36,
			"type":"SCALAR"
		},
		{
			"bufferView":10,
			"componentType":5126,
			"count":8,
			"max":[
				11.052936553955078,
				0,
				-59
			],
			"min":[
				-11.052936553955078,
				-9.572132110595703,
				-64.82289123535156
			],
			"type":"VEC3"
		},
		{
			"bufferView":11,
			"componentType":5126,
			"count":8,
			"type":"VEC3"
		},
		{
			"bufferView":12,
			"componentType":5126,
			"count":8,
			"type":"VEC2"
		},
		{
			"bufferView":13,
			"componentType":5126,
			"count":8,
			"type":"VEC2"
		},
		{
			"bufferView":14,
			"componentType":5123,
			"count":12,
			"type":"SCALAR"
		},
		{
			"bufferView":15,
			"componentType":5126,
			"count":8,
			"max":[
				11.052936553955078,
				9.572124481201172,
				-59
			],
			"min":[
				-11.052936553955078,
				-1.52587890625e-05,
				-64.82289123535156
			],
			"type":"VEC3"
		},
		{
			"bufferView":16,
			"componentType":5126,
			"count":8,
			"type":"VEC3"
		},
		{
			"bufferView":17,
			"componentType":5126,
			"count":8,
			"type":"VEC2"
		},
		{
			"bufferView":18,
			"componentType":5126,
			"count":8,
			"type":"VEC2"
		},
		{
			"bufferView":19,
			"componentType":5123,
			"count":12,
			"type":"SCALAR"
		},
		{
			"bufferView":20,
			"componentType":5126,
			"count":4,
			"max":[
				9.5,
				-16.454463958740234,
				-0.2731781005859375
			],
			"min":[
				-9.5,
				-16.454483032226562,
				-43.2731819152832
			],
			"type":"VEC3"
		},
		{
			"bufferView":21,
			"componentType":5126,
			"count":4,
			"type":"VEC3"
		},
		{
			"bufferView":22,
			"componentType":5126,
			"count":4,
			"type":"VEC2"
		},
		{
			"bufferView":23,
			"componentType":5126,
			"count":4,
			"type":"VEC2"
		},
		{
			"bufferView":24,
			"componentType":5123,
			"count":6,
			"type":"SCALAR"
		},
		{
			"bufferView":25,
			"componentType":5126,
			"count":4,
			"max":[
				9.5,
				16.45449447631836,
				-0.273193359375
			],
			"min":[
				-9.5,
				16.454479217529297,
				-43.2731819152832
			],
			"type":"VEC3"
		},
		{
			"bufferView":26,
			"componentType":5126,
			"count":4,
			"type":"VEC3"
		},
		{
			"bufferView":27,
			"componentType":5126,
			"count":4,
			"type":"VEC2"
		},
		{
			"bufferView":28,
			"componentType":5126,
			"count":4,
			"type":"VEC2"
		},
		{
			"bufferView":29,
			"componentType":5123,
			"count":6,
			"type":"SCALAR"
		},
		{
			"bufferView":30,
			"componentType":5126,
			"count":8,
			"max":[
				18.999996185302734,
				1.9073486328125e-05,
				-0.2731781005859375
			],
			"min":[
				-18.999996185302734,
				-16.454483032226562,
				-43.2731819152832
			],
			"type":"VEC3"
		},
		{
			"bufferView":31,
			"componentType":5126,
			"count":8,
			"type":"VEC3"
		},
		{
			"bufferView":32,
			"componentType":5126,
			"count":8,
			"type":"VEC2"
		},
		{
			"bufferView":33,
			"componentType":5126,
			"count":8,
			"type":"VEC2"
		},
		{
			"bufferView":34,
			"componentType":5123,
			"count":12,
			"type":"SCALAR"
		},
		{
			"bufferView":35,
			"componentType":5126,
			"count":8,
			"max":[
				18.999996185302734,
				16.45449447631836,
				-0.27318572998046875
			],
			"min":[
				-18.999996185302734,
				0,
				-43.2731819152832
			],
			"type":"VEC3"
		},
		{
			"bufferView":36,
			"componentType":5126,
			"count":8,
			"type":"VEC3"
		},
		{
			"bufferView":37,
			"componentType":5126,
			"count":8,
			"type":"VEC2"
		},
		{
			"bufferView":38,
			"componentType":5126,
			"count":8,
			"type":"VEC2"
		},
		{
			"bufferView":39,
			"componentType":5123,
			"count":12,
			"type":"SCALAR"
		},
		{
			"bufferView":40,
			"componentType":5126,
			"count":50,
			"max":[
				19.08493423461914,
				16.52804946899414,
				-43.2731819152832
			],
			"min":[
				-19.08493423461914,
				-16.52804946899414,
				-79.27317810058594
			],
			"type":"VEC3"
		},
		{
			"bufferView":41,
			"componentType":5126,
			"count":50,
			"type":"VEC3"
		},
		{
			"bufferView":42,
			"componentType":5126,
			"count":50,
			"type":"VEC2"
		},
		{
			"bufferView":43,
			"componentType":5126,
			"count":50,
			"type":"VEC2"
		},
		{
			"bufferView":44,
			"componentType":5123,
			"count":120,
			"type":"SCALAR"
		},
		{
			"bufferView":45,
			"componentType":5126,
			"count":12,
			"max":[
				9.542476654052734,
				-2.5980758666992188,
				-46.2731819152832
			],
			"min":[
				-9.54245376586914,
				-16.52804946899414,
				-79.27317810058594
			],
			"type":"VEC3"
		},
		{
			"bufferView":46,
			"componentType":5126,
			"count":12,
			"type":"VEC3"
		},
		{
			"bufferView":47,
			"componentType":5126,
			"count":12,
			"type":"VEC2"
		},
		{
			"bufferView":48,
			"componentType":5126,
			"count":12,
			"type":"VEC2"
		},
		{
			"bufferView":49,
			"componentType":5123,
			"count":18,
			"type":"SCALAR"
		},
		{
			"bufferView":50,
			"componentType":5126,
			"count":12,
			"max":[
				9.54244613647461,
				16.52804946899414,
				-46.2731819152832
			],
			"min":[
				-9.542484283447266,
				2.5980567932128906,
				-79.27317810058594
			],
			"type":"VEC3"
		},
		{
			"bufferView":51,
			"componentType":5126,
			"count":12,
			"type":"VEC3"
		},
		{
			"bufferView":52,
			"componentType":5126,
			"count":12,
			"type":"VEC2"
		},
		{
			"bufferView":53,
			"componentType":5126,
			"count":12,
			"type":"VEC2"
		},
		{
			"bufferView":54,
			"componentType":5123,
			"count":18,
			"type":"SCALAR"
		},
		{
			"bufferView":55,
			"componentType":5126,
			"count":4,
			"max":[
				5.526470184326172,
				-9.572124481201172,
				-59
			],
			"min":[
				-5.526458740234375,
				-9.572132110595703,
				-64.82289123535156
			],
			"type":"VEC3"
		},
		{
			"bufferView":56,
			"componentType":5126,
			"count":4,
			"type":"VEC3"
		},
		{
			"bufferView":57,
			"componentType":5126,
			"count":4,
			"type":"VEC2"
		},
		{
			"bufferView":58,
			"componentType":5126,
			"count":4,
			"type":"VEC2"
		},
		{
			"bufferView":59,
			"componentType":5123,
			"count":6,
			"type":"SCALAR"
		},
		{
			"bufferView":60,
			"componentType":5126,
			"count":4,
			"max":[
				5.526454925537109,
				9.572124481201172,
				-59
			],
			"min":[
				-5.526477813720703,
				9.572113037109375,
				-64.82289123535156
			],
			"type":"VEC3"
		},
		{
			"bufferView":61,
			"componentType":5126,
			"count":4,
			"type":"VEC3"
		},
		{
			"bufferView":62,
			"componentType":5126,
			"count":4,
			"type":"VEC2"
		},
		{
			"bufferView":63,
			"componentType":5126,
			"count":4,
			"type":"VEC2"
		},
		{
			"bufferView":64,
			"componentType":5123,
			"count":6,
			"type":"SCALAR"
		},
		{
			"bufferView":65,
			"componentType":5126,
			"count":4,
			"max":[
				0.5,
				0,
				0.5
			],
			"min":[
				-0.5,
				0,
				-0.5
			],
			"type":"VEC3"
		},
		{
			"bufferView":66,
			"componentType":5126,
			"count":4,
			"type":"VEC3"
		},
		{
			"bufferView":67,
			"componentType":5126,
			"count":4,
			"type":"VEC2"
		}
	],
	"bufferViews":[
		{
			"buffer":0,
			"byteLength":288,
			"byteOffset":0,
			"target":34962
		},
		{
			"buffer":0,
			"byteLength":288,
			"byteOffset":288,
			"target":34962
		},
		{
			"buffer":0,
			"byteLength":192,
			"byteOffset":576,
			"target":34962
		},
		{
			"buffer":0,
			"byteLength":192,
			"byteOffset":768,
			"target":34962
		},
		{
			"buffer":0,
			"byteLength":72,
			"byteOffset":960,
			"target":34963
		},
		{
			"buffer":0,
			"byteLength":288,
			"byteOffset":1032,
			"target":34962
		},
		{
			"buffer":0,
			"byteLength":288,
			"byteOffset":1320,
			"target":34962
		},
		{
			"buffer":0,
			"byteLength":192,
			"byteOffset":1608,
			"target":34962
		},
		{
			"buffer":0,
			"byteLength":192,
			"byteOffset":1800,
			"target":34962
		},
		{
			"buffer":0,
			"byteLength":72,
			"byteOffset":1992,
			"target":34963
		},
		{
			"buffer":0,
			"byteLength":96,
			"byteOffset":2064,
			"target":34962
		},
		{
			"buffer":0,
			"byteLength":96,
			"byteOffset":2160,
			"target":34962
		},
		{
			"buffer":0,
			"byteLength":64,
			"byteOffset":2256,
			"target":34962
		},
		{
			"buffer":0,
			"byteLength":64,
			"byteOffset":2320,
			"target":34962
		},
		{
			"buffer":0,
			"byteLength":24,
			"byteOffset":2384,
			"target":34963
		},
		{
			"buffer":0,
			"byteLength":96,
			"byteOffset":2408,
			"target":34962
		},
		{
			"buffer":0,
			"byteLength":96,
			"byteOffset":2504,
			"target":34962
		},
		{
			"buffer":0,
			"byteLength":64,
			"byteOffset":2600,
			"target":34962
		},
		{
			"buffer":0,
			"byteLength":64,
			"byteOffset":2664,
			"target":34962
		},
		{
			"buffer":0,
			"byteLength":24,
			"byteOffset":2728,
			"target":34963
		},
		{
			"buffer":0,
			"byteLength":48,
			"byteOffset":2752,
			"target":34962
		},
		{
			"buffer":0,
			"byteLength":48,
			"byteOffset":2800,
			"target":34962
		},
		{
			"buffer":0,
			"byteLength":32,
			"byteOffset":2848,
			"target":34962
		},
		{
			"buffer":0,
			"byteLength":32,
			"byteOffset":2880,
			"target":34962
		},
		{
			"buffer":0,
			"byteLength":12,
			"byteOffset":2912,
			"target":34963
		},
		{
			"buffer":0,
			"byteLength":48,
			"byteOffset":2924,
			"target":34962
		},
		{
			"buffer":0,
			"byteLength":48,
			"byteOffset":2972,
			"target":34962
		},
		{
			"buffer":0,
			"byteLength":32,
			"byteOffset":3020,
			"target":34962
		},
		{
			"buffer":0,
			"byteLength":32,
			"byteOffset":3052,
			"target":34962
		},
		{
			"buffer":0,
			"byteLength":12,
			"byteOffset":3084,
			"target":34963
		},
		{
			"buffer":0,
			"byteLength":96,
			"byteOffset":3096,
			"target":34962
		},
		{
			"buffer":0,
			"byteLength":96,
			"byteOffset":3192,
			"target":34962
		},
		{
			"buffer":0,
			"byteLength":64,
			"byteOffset":3288,
			"target":34962
		},
		{
			"buffer":0,
			"byteLength":64,
			"byteOffset":3352,
			"target":34962
		},
		{
			"buffer":0,
			"byteLength":24,
			"byteOffset":3416,
			"target":34963
		},
		{
			"buffer":0,
			"byteLength":96,
			"byteOffset":3440,
			"target":34962
		},
		{
			"buffer":0,
			"byteLength":96,
			"byteOffset":3536,
			"target":34962
		},
		{
			"buffer":0,
			"byteLength":64,
			"byteOffset":3632,
			"target":34962
		},
		{
			"buffer":0,
			"byteLength":64,
			"byteOffset":3696,
			"target":34962
		},
		{
			"buffer":0,
			"byteLength":24,
			"byteOffset":3760,
			"target":34963
		},
		{
			"buffer":0,
			"byteLength":600,
			"byteOffset":3784,
			"target":34962
		},
		{
			"buffer":0,
			"byteLength":600,
			"byteOffset":4384,
			"target":34962
		},
		{
			"buffer":0,
			"byteLength":400,
			"byteOffset":4984,
			"target":34962
		},
		{
			"buffer":0,
			"byteLength":400,
			"byteOffset":5384,
			"target":34962
		},
		{
			"buffer":0,
			"byteLength":240,
			"byteOffset":5784,
			"target":34963
		},
		{
			"buffer":0,
			"byteLength":144,
			"byteOffset":6024,
			"target":34962
		},
		{
			"buffer":0,
			"byteLength":144,
			"byteOffset":6168,
			"target":34962
		},
		{
			"buffer":0,
			"byteLength":96,
			"byteOffset":6312,
			"target":34962
		},
		{
			"buffer":0,
			"byteLength":96,
			"byteOffset":6408,
			"target":34962
		},
		{
			"buffer":0,
			"byteLength":36,
			"byteOffset":6504,
			"target":34963
		},
		{
			"buffer":0,
			"byteLength":144,
			"byteOffset":6540,
			"target":34962
		},
		{
			"buffer":0,
			"byteLength":144,
			"byteOffset":6684,
			"target":34962
		},
		{
			"buffer":0,
			"byteLength":96,
			"byteOffset":6828,
			"target":34962
		},
		{
			"buffer":0,
			"byteLength":96,
			"byteOffset":6924,
			"target":34962
		},
		{
			"buffer":0,
			"byteLength":36,
			"byteOffset":7020,
			"target":34963
		},
		{
			"buffer":0,
			"byteLength":48,
			"byteOffset":7056,
			"target":34962
		},
		{
			"buffer":0,
			"byteLength":48,
			"byteOffset":7104,
			"target":34962
		},
		{
			"buffer":0,
			"byteLength":32,
			"byteOffset":7152,
			"target":34962
		},
		{
			"buffer":0,
			"byteLength":32,
			"byteOffset":7184,
			"target":34962
		},
		{
			"buffer":0,
			"byteLength":12,
			"byteOffset":7216,
			"target":34963
		},
		{
			"buffer":0,
			"byteLength":48,
			"byteOffset":7228,
			"target":34962
		},
		{
			"buffer":0,
			"byteLength":48,
			"byteOffset":7276,
			"target":34962
		},
		{
			"buffer":0,
			"byteLength":32,
			"byteOffset":7324,
			"target":34962
		},
		{
			"buffer":0,
			"byteLength":32,
			"byteOffset":7356,
			"target":34962
		},
		{
			"buffer":0,
			"byteLength":12,
			"byteOffset":7388,
			"target":34963
		},
		{
			"buffer":0,
			"byteLength":48,
			"byteOffset":7400,
			"target":34962
		},
		{
			"buffer":0,
			"byteLength":48,
			"byteOffset":7448,
			"target":34962
		},
		{
			"buffer":0,
			"byteLength":32,
			"byteOffset":7496,
			"target":34962
		}
	],
	"samplers":[
		{
			"magFilter":9729,
			"minFilter":9987
		}
	],
	"buffers":[
		{
			"byteLength":7528,
			"uri":"forest.bin"
		}
	]
}
