{
	"asset":{
		"generator":"Khronos glTF Blender I/O v4.1.63",
		"version":"2.0"
	},
	"scene":0,
	"scenes":[
		{
			"name":"Scene",
			"nodes":[
				0
			]
		}
	],
	"nodes":[
		{
			"mesh":0,
			"name":"Maxis-3d3-mesh-79",
			"rotation":[
				0.70710688829422,
				0,
				0,
				0.7071066498756409
			]
		}
	],
	"materials":[
		{
			"name":"mat40-45.001",
			"pbrMetallicRoughness":{
				"baseColorTexture":{
					"index":0
				},
				"metallicFactor":0
			}
		},
		{
			"name":"mat40-46.001",
			"pbrMetallicRoughness":{
				"baseColorTexture":{
					"index":1
				},
				"metallicFactor":0
			}
		},
		{
			"name":"mat40-22.002",
			"pbrMetallicRoughness":{
				"baseColorTexture":{
					"index":2
				},
				"metallicFactor":0
			}
		},
		{
			"name":"mat40-21.002",
			"pbrMetallicRoughness":{
				"baseColorTexture":{
					"index":3
				},
				"metallicFactor":0
			}
		},
		{
			"name":"mat40-36.001",
			"pbrMetallicRoughness":{
				"baseColorTexture":{
					"index":4
				},
				"metallicFactor":0
			}
		},
		{
			"name":"mat40-39.001",
			"pbrMetallicRoughness":{
				"baseColorTexture":{
					"index":5
				},
				"metallicFactor":0
			}
		},
		{
			"name":"mat40-37.001",
			"pbrMetallicRoughness":{
				"baseColorTexture":{
					"index":6
				},
				"metallicFactor":0
			}
		},
		{
			"name":"mat40-38.001",
			"pbrMetallicRoughness":{
				"baseColorTexture":{
					"index":7
				},
				"metallicFactor":0
			}
		},
		{
			"name":"matcolour-48.001",
			"pbrMetallicRoughness":{
				"baseColorFactor":[
					0.05882352963089943,
					0.05882352963089943,
					0.05882352963089943,
					1
				],
				"metallicFactor":0
			}
		},
		{
			"name":"mat40-44.001",
			"pbrMetallicRoughness":{
				"baseColorTexture":{
					"index":8
				},
				"metallicFactor":0
			}
		},
		{
			"name":"mat40-47.001",
			"pbrMetallicRoughness":{
				"baseColorTexture":{
					"index":9
				},
				"metallicFactor":0
			}
		},
		{
			"name":"mat40-23.002",
			"pbrMetallicRoughness":{
				"baseColorTexture":{
					"index":10
				},
				"metallicFactor":0
			}
		},
		{
			"name":"mat40-20.002",
			"pbrMetallicRoughness":{
				"baseColorTexture":{
					"index":11
				},
				"metallicFactor":0
			}
		}
	],
	"meshes":[
		{
			"name":"Maxis-3d3-mesh-79.001",
			"primitives":[
				{
					"attributes":{
						"POSITION":0,
						"NORMAL":1,
						"TEXCOORD_0":2
					},
					"indices":3,
					"material":0
				},
				{
					"attributes":{
						"POSITION":4,
						"NORMAL":5,
						"TEXCOORD_0":6
					},
					"indices":7,
					"material":1
				},
				{
					"attributes":{
						"POSITION":8,
						"NORMAL":9,
						"TEXCOORD_0":10
					},
					"indices":11,
					"material":2
				},
				{
					"attributes":{
						"POSITION":12,
						"NORMAL":13,
						"TEXCOORD_0":14
					},
					"indices":15,
					"material":3
				},
				{
					"attributes":{
						"POSITION":16,
						"NORMAL":17,
						"TEXCOORD_0":18
					},
					"indices":19,
					"material":4
				},
				{
					"attributes":{
						"POSITION":20,
						"NORMAL":21,
						"TEXCOORD_0":22
					},
					"indices":23,
					"material":5
				},
				{
					"attributes":{
						"POSITION":24,
						"NORMAL":25,
						"TEXCOORD_0":26
					},
					"indices":27,
					"material":6
				},
				{
					"attributes":{
						"POSITION":28,
						"NORMAL":29,
						"TEXCOORD_0":30
					},
					"indices":31,
					"material":7
				},
				{
					"attributes":{
						"POSITION":32,
						"NORMAL":33,
						"TEXCOORD_0":34
					},
					"indices":35,
					"material":8
				},
				{
					"attributes":{
						"POSITION":36,
						"NORMAL":37,
						"TEXCOORD_0":38
					},
					"indices":39,
					"material":9
				},
				{
					"attributes":{
						"POSITION":40,
						"NORMAL":41,
						"TEXCOORD_0":42
					},
					"indices":43,
					"material":10
				},
				{
					"attributes":{
						"POSITION":44,
						"NORMAL":45,
						"TEXCOORD_0":46
					},
					"indices":23,
					"material":11
				},
				{
					"attributes":{
						"POSITION":47,
						"NORMAL":48,
						"TEXCOORD_0":49
					},
					"indices":50,
					"material":12
				}
			]
		}
	],
	"textures":[
		{
			"sampler":0,
			"source":0
		},
		{
			"sampler":0,
			"source":1
		},
		{
			"sampler":0,
			"source":2
		},
		{
			"sampler":0,
			"source":3
		},
		{
			"sampler":0,
			"source":4
		},
		{
			"sampler":0,
			"source":5
		},
		{
			"sampler":0,
			"source":6
		},
		{
			"sampler":0,
			"source":7
		},
		{
			"sampler":0,
			"source":8
		},
		{
			"sampler":0,
			"source":9
		},
		{
			"sampler":0,
			"source":10
		},
		{
			"sampler":0,
			"source":11
		}
	],
	"images":[
		{
			"mimeType":"image/png",
			"name":"tex40-45",
			"uri":"../../../Textures/tex40-45.png"
		},
		{
			"mimeType":"image/png",
			"name":"tex40-46",
			"uri":"../../../Textures/tex40-46.png"
		},
		{
			"mimeType":"image/png",
			"name":"tex40-22",
			"uri":"../../../Textures/tex40-22.png"
		},
		{
			"mimeType":"image/png",
			"name":"tex40-21",
			"uri":"../../../Textures/tex40-21.png"
		},
		{
			"mimeType":"image/png",
			"name":"tex40-36",
			"uri":"../../../Textures/tex40-36.png"
		},
		{
			"mimeType":"image/png",
			"name":"tex40-39",
			"uri":"../../../Textures/tex40-39.png"
		},
		{
			"mimeType":"image/png",
			"name":"tex40-37",
			"uri":"../../../Textures/tex40-37.png"
		},
		{
			"mimeType":"image/png",
			"name":"tex40-38",
			"uri":"../../../Textures/tex40-38.png"
		},
		{
			"mimeType":"image/png",
			"name":"tex40-44",
			"uri":"../../../Textures/tex40-44.png"
		},
		{
			"mimeType":"image/png",
			"name":"tex40-47",
			"uri":"../../../Textures/tex40-47.png"
		},
		{
			"mimeType":"image/png",
			"name":"tex40-23",
			"uri":"../../../Textures/tex40-23.png"
		},
		{
			"mimeType":"image/png",
			"name":"tex40-20",
			"uri":"../../../Textures/tex40-20.png"
		}
	],
	"accessors":[
		{
			"bufferView":0,
			"componentType":5126,
			"count":24,
			"max":[
				19.08493423461914,
				0,
				-46.2731819152832
			],
			"min":[
				-19.08493423461914,
				-16.52804946899414,
				-79.27317810058594
			],
			"type":"VEC3"
		},
		{
			"bufferView":1,
			"componentType":5126,
			"count":24,
			"type":"VEC3"
		},
		{
			"bufferView":2,
			"componentType":5126,
			"count":24,
			"type":"VEC2"
		},
		{
			"bufferView":3,
			"componentType":5123,
			"count":36,
			"type":"SCALAR"
		},
		{
			"bufferView":4,
			"componentType":5126,
			"count":25,
			"max":[
				19.08493423461914,
				16.52804946899414,
				-46.2731819152832
			],
			"min":[
				-19.08493423461914,
				-2.288818359375e-05,
				-79.27317810058594
			],
			"type":"VEC3"
		},
		{
			"bufferView":5,
			"componentType":5126,
			"count":25,
			"type":"VEC3"
		},
		{
			"bufferView":6,
			"componentType":5126,
			"count":25,
			"type":"VEC2"
		},
		{
			"bufferView":7,
			"componentType":5123,
			"count":36,
			"type":"SCALAR"
		},
		{
			"bufferView":8,
			"componentType":5126,
			"count":8,
			"max":[
				11.052936553955078,
				0,
				-59
			],
			"min":[
				-11.052936553955078,
				-9.572132110595703,
				-64.82289123535156
			],
			"type":"VEC3"
		},
		{
			"bufferView":9,
			"componentType":5126,
			"count":8,
			"type":"VEC3"
		},
		{
			"bufferView":10,
			"componentType":5126,
			"count":8,
			"type":"VEC2"
		},
		{
			"bufferView":11,
			"componentType":5123,
			"count":12,
			"type":"SCALAR"
		},
		{
			"bufferView":12,
			"componentType":5126,
			"count":8,
			"max":[
				11.052936553955078,
				9.572124481201172,
				-59
			],
			"min":[
				-11.052936553955078,
				-1.52587890625e-05,
				-64.82289123535156
			],
			"type":"VEC3"
		},
		{
			"bufferView":13,
			"componentType":5126,
			"count":8,
			"type":"VEC3"
		},
		{
			"bufferView":14,
			"componentType":5126,
			"count":8,
			"type":"VEC2"
		},
		{
			"bufferView":15,
			"componentType":5123,
			"count":12,
			"type":"SCALAR"
		},
		{
			"bufferView":16,
			"componentType":5126,
			"count":4,
			"max":[
				9.5,
				-16.454463958740234,
				-0.2731781005859375
			],
			"min":[
				-9.5,
				-16.454483032226562,
				-43.2731819152832
			],
			"type":"VEC3"
		},
		{
			"bufferView":17,
			"componentType":5126,
			"count":4,
			"type":"VEC3"
		},
		{
			"bufferView":18,
			"componentType":5126,
			"count":4,
			"type":"VEC2"
		},
		{
			"bufferView":19,
			"componentType":5123,
			"count":6,
			"type":"SCALAR"
		},
		{
			"bufferView":20,
			"componentType":5126,
			"count":4,
			"max":[
				9.5,
				16.45449447631836,
				-0.273193359375
			],
			"min":[
				-9.5,
				16.454479217529297,
				-43.2731819152832
			],
			"type":"VEC3"
		},
		{
			"bufferView":21,
			"componentType":5126,
			"count":4,
			"type":"VEC3"
		},
		{
			"bufferView":22,
			"componentType":5126,
			"count":4,
			"type":"VEC2"
		},
		{
			"bufferView":23,
			"componentType":5123,
			"count":6,
			"type":"SCALAR"
		},
		{
			"bufferView":24,
			"componentType":5126,
			"count":8,
			"max":[
				18.999996185302734,
				1.9073486328125e-05,
				-0.2731781005859375
			],
			"min":[
				-18.999996185302734,
				-16.454483032226562,
				-43.2731819152832
			],
			"type":"VEC3"
		},
		{
			"bufferView":25,
			"componentType":5126,
			"count":8,
			"type":"VEC3"
		},
		{
			"bufferView":26,
			"componentType":5126,
			"count":8,
			"type":"VEC2"
		},
		{
			"bufferView":27,
			"componentType":5123,
			"count":12,
			"type":"SCALAR"
		},
		{
			"bufferView":28,
			"componentType":5126,
			"count":8,
			"max":[
				18.999996185302734,
				16.45449447631836,
				-0.27318572998046875
			],
			"min":[
				-18.999996185302734,
				0,
				-43.2731819152832
			],
			"type":"VEC3"
		},
		{
			"bufferView":29,
			"componentType":5126,
			"count":8,
			"type":"VEC3"
		},
		{
			"bufferView":30,
			"componentType":5126,
			"count":8,
			"type":"VEC2"
		},
		{
			"bufferView":31,
			"componentType":5123,
			"count":12,
			"type":"SCALAR"
		},
		{
			"bufferView":32,
			"componentType":5126,
			"count":55,
			"max":[
				19.08493423461914,
				16.52804946899414,
				-43.2731819152832
			],
			"min":[
				-19.08493423461914,
				-16.52804946899414,
				-79.27317810058594
			],
			"type":"VEC3"
		},
		{
			"bufferView":33,
			"componentType":5126,
			"count":55,
			"type":"VEC3"
		},
		{
			"bufferView":34,
			"componentType":5126,
			"count":55,
			"type":"VEC2"
		},
		{
			"bufferView":35,
			"componentType":5123,
			"count":120,
			"type":"SCALAR"
		},
		{
			"bufferView":36,
			"componentType":5126,
			"count":12,
			"max":[
				9.542476654052734,
				-2.5980758666992188,
				-46.2731819152832
			],
			"min":[
				-9.54245376586914,
				-16.52804946899414,
				-79.27317810058594
			],
			"type":"VEC3"
		},
		{
			"bufferView":37,
			"componentType":5126,
			"count":12,
			"type":"VEC3"
		},
		{
			"bufferView":38,
			"componentType":5126,
			"count":12,
			"type":"VEC2"
		},
		{
			"bufferView":39,
			"componentType":5123,
			"count":18,
			"type":"SCALAR"
		},
		{
			"bufferView":40,
			"componentType":5126,
			"count":12,
			"max":[
				9.54244613647461,
				16.52804946899414,
				-46.2731819152832
			],
			"min":[
				-9.542484283447266,
				2.5980567932128906,
				-79.27317810058594
			],
			"type":"VEC3"
		},
		{
			"bufferView":41,
			"componentType":5126,
			"count":12,
			"type":"VEC3"
		},
		{
			"bufferView":42,
			"componentType":5126,
			"count":12,
			"type":"VEC2"
		},
		{
			"bufferView":43,
			"componentType":5123,
			"count":18,
			"type":"SCALAR"
		},
		{
			"bufferView":44,
			"componentType":5126,
			"count":4,
			"max":[
				5.526470184326172,
				-9.572124481201172,
				-59
			],
			"min":[
				-5.526458740234375,
				-9.572132110595703,
				-64.82289123535156
			],
			"type":"VEC3"
		},
		{
			"bufferView":45,
			"componentType":5126,
			"count":4,
			"type":"VEC3"
		},
		{
			"bufferView":46,
			"componentType":5126,
			"count":4,
			"type":"VEC2"
		},
		{
			"bufferView":47,
			"componentType":5126,
			"count":4,
			"max":[
				5.526454925537109,
				9.572124481201172,
				-59
			],
			"min":[
				-5.526477813720703,
				9.572113037109375,
				-64.82289123535156
			],
			"type":"VEC3"
		},
		{
			"bufferView":48,
			"componentType":5126,
			"count":4,
			"type":"VEC3"
		},
		{
			"bufferView":49,
			"componentType":5126,
			"count":4,
			"type":"VEC2"
		},
		{
			"bufferView":50,
			"componentType":5123,
			"count":6,
			"type":"SCALAR"
		}
	],
	"bufferViews":[
		{
			"buffer":0,
			"byteLength":288,
			"byteOffset":0,
			"target":34962
		},
		{
			"buffer":0,
			"byteLength":288,
			"byteOffset":288,
			"target":34962
		},
		{
			"buffer":0,
			"byteLength":192,
			"byteOffset":576,
			"target":34962
		},
		{
			"buffer":0,
			"byteLength":72,
			"byteOffset":768,
			"target":34963
		},
		{
			"buffer":0,
			"byteLength":300,
			"byteOffset":840,
			"target":34962
		},
		{
			"buffer":0,
			"byteLength":300,
			"byteOffset":1140,
			"target":34962
		},
		{
			"buffer":0,
			"byteLength":200,
			"byteOffset":1440,
			"target":34962
		},
		{
			"buffer":0,
			"byteLength":72,
			"byteOffset":1640,
			"target":34963
		},
		{
			"buffer":0,
			"byteLength":96,
			"byteOffset":1712,
			"target":34962
		},
		{
			"buffer":0,
			"byteLength":96,
			"byteOffset":1808,
			"target":34962
		},
		{
			"buffer":0,
			"byteLength":64,
			"byteOffset":1904,
			"target":34962
		},
		{
			"buffer":0,
			"byteLength":24,
			"byteOffset":1968,
			"target":34963
		},
		{
			"buffer":0,
			"byteLength":96,
			"byteOffset":1992,
			"target":34962
		},
		{
			"buffer":0,
			"byteLength":96,
			"byteOffset":2088,
			"target":34962
		},
		{
			"buffer":0,
			"byteLength":64,
			"byteOffset":2184,
			"target":34962
		},
		{
			"buffer":0,
			"byteLength":24,
			"byteOffset":2248,
			"target":34963
		},
		{
			"buffer":0,
			"byteLength":48,
			"byteOffset":2272,
			"target":34962
		},
		{
			"buffer":0,
			"byteLength":48,
			"byteOffset":2320,
			"target":34962
		},
		{
			"buffer":0,
			"byteLength":32,
			"byteOffset":2368,
			"target":34962
		},
		{
			"buffer":0,
			"byteLength":12,
			"byteOffset":2400,
			"target":34963
		},
		{
			"buffer":0,
			"byteLength":48,
			"byteOffset":2412,
			"target":34962
		},
		{
			"buffer":0,
			"byteLength":48,
			"byteOffset":2460,
			"target":34962
		},
		{
			"buffer":0,
			"byteLength":32,
			"byteOffset":2508,
			"target":34962
		},
		{
			"buffer":0,
			"byteLength":12,
			"byteOffset":2540,
			"target":34963
		},
		{
			"buffer":0,
			"byteLength":96,
			"byteOffset":2552,
			"target":34962
		},
		{
			"buffer":0,
			"byteLength":96,
			"byteOffset":2648,
			"target":34962
		},
		{
			"buffer":0,
			"byteLength":64,
			"byteOffset":2744,
			"target":34962
		},
		{
			"buffer":0,
			"byteLength":24,
			"byteOffset":2808,
			"target":34963
		},
		{
			"buffer":0,
			"byteLength":96,
			"byteOffset":2832,
			"target":34962
		},
		{
			"buffer":0,
			"byteLength":96,
			"byteOffset":2928,
			"target":34962
		},
		{
			"buffer":0,
			"byteLength":64,
			"byteOffset":3024,
			"target":34962
		},
		{
			"buffer":0,
			"byteLength":24,
			"byteOffset":3088,
			"target":34963
		},
		{
			"buffer":0,
			"byteLength":660,
			"byteOffset":3112,
			"target":34962
		},
		{
			"buffer":0,
			"byteLength":660,
			"byteOffset":3772,
			"target":34962
		},
		{
			"buffer":0,
			"byteLength":440,
			"byteOffset":4432,
			"target":34962
		},
		{
			"buffer":0,
			"byteLength":240,
			"byteOffset":4872,
			"target":34963
		},
		{
			"buffer":0,
			"byteLength":144,
			"byteOffset":5112,
			"target":34962
		},
		{
			"buffer":0,
			"byteLength":144,
			"byteOffset":5256,
			"target":34962
		},
		{
			"buffer":0,
			"byteLength":96,
			"byteOffset":5400,
			"target":34962
		},
		{
			"buffer":0,
			"byteLength":36,
			"byteOffset":5496,
			"target":34963
		},
		{
			"buffer":0,
			"byteLength":144,
			"byteOffset":5532,
			"target":34962
		},
		{
			"buffer":0,
			"byteLength":144,
			"byteOffset":5676,
			"target":34962
		},
		{
			"buffer":0,
			"byteLength":96,
			"byteOffset":5820,
			"target":34962
		},
		{
			"buffer":0,
			"byteLength":36,
			"byteOffset":5916,
			"target":34963
		},
		{
			"buffer":0,
			"byteLength":48,
			"byteOffset":5952,
			"target":34962
		},
		{
			"buffer":0,
			"byteLength":48,
			"byteOffset":6000,
			"target":34962
		},
		{
			"buffer":0,
			"byteLength":32,
			"byteOffset":6048,
			"target":34962
		},
		{
			"buffer":0,
			"byteLength":48,
			"byteOffset":6080,
			"target":34962
		},
		{
			"buffer":0,
			"byteLength":48,
			"byteOffset":6128,
			"target":34962
		},
		{
			"buffer":0,
			"byteLength":32,
			"byteOffset":6176,
			"target":34962
		},
		{
			"buffer":0,
			"byteLength":12,
			"byteOffset":6208,
			"target":34963
		}
	],
	"samplers":[
		{
			"magFilter":9729,
			"minFilter":9987
		}
	],
	"buffers":[
		{
			"byteLength":6220,
			"uri":"forest.bin"
		}
	]
}
