{
	"asset":{
		"generator":"Khronos glTF Blender I/O v4.1.63",
		"version":"2.0"
	},
	"extensionsUsed":[
		"KHR_materials_transmission"
	],
	"scene":0,
	"scenes":[
		{
			"name":"Scene",
			"nodes":[
				0
			]
		}
	],
	"nodes":[
		{
			"mesh":0,
			"name":"Maxis-3d1-mesh-28-ARCO",
			"rotation":[
				0.70710688829422,
				0,
				0,
				0.7071066498756409
			]
		}
	],
	"materials":[
		{
			"name":"mat39-16",
			"pbrMetallicRoughness":{
				"baseColorTexture":{
					"index":0
				},
				"metallicFactor":0
			}
		},
		{
			"name":"mat39-19",
			"pbrMetallicRoughness":{
				"baseColorTexture":{
					"index":1
				},
				"metallicFactor":0
			}
		},
		{
			"name":"matcolour-48.010",
			"pbrMetallicRoughness":{
				"baseColorFactor":[
					0.05882352963089943,
					0.05882352963089943,
					0.05882352963089943,
					1
				],
				"metallicFactor":0
			}
		},
		{
			"name":"mat39-17",
			"pbrMetallicRoughness":{
				"baseColorTexture":{
					"index":2
				},
				"metallicFactor":0
			}
		},
		{
			"name":"mat39-18",
			"pbrMetallicRoughness":{
				"baseColorTexture":{
					"index":3
				},
				"metallicFactor":0
			}
		},
		{
			"doubleSided":true,
			"extensions":{
				"KHR_materials_transmission":{
					"transmissionFactor":1
				}
			},
			"name":"matcolour-19",
			"pbrMetallicRoughness":{
				"metallicFactor":0,
				"roughnessFactor":0
			}
		}
	],
	"meshes":[
		{
			"name":"Maxis-3d1-mesh-28-ARCO",
			"primitives":[
				{
					"attributes":{
						"POSITION":0,
						"NORMAL":1,
						"TEXCOORD_0":2
					},
					"indices":3,
					"material":0
				},
				{
					"attributes":{
						"POSITION":4,
						"NORMAL":5,
						"TEXCOORD_0":6
					},
					"indices":7,
					"material":1
				},
				{
					"attributes":{
						"POSITION":8,
						"NORMAL":9,
						"TEXCOORD_0":10
					},
					"indices":11,
					"material":2
				},
				{
					"attributes":{
						"POSITION":12,
						"NORMAL":13,
						"TEXCOORD_0":14
					},
					"indices":15,
					"material":3
				},
				{
					"attributes":{
						"POSITION":16,
						"NORMAL":17,
						"TEXCOORD_0":18
					},
					"indices":19,
					"material":4
				},
				{
					"attributes":{
						"POSITION":20,
						"NORMAL":21,
						"TEXCOORD_0":22
					},
					"indices":23,
					"material":5
				}
			]
		}
	],
	"textures":[
		{
			"sampler":0,
			"source":0
		},
		{
			"sampler":0,
			"source":1
		},
		{
			"sampler":0,
			"source":2
		},
		{
			"sampler":0,
			"source":3
		}
	],
	"images":[
		{
			"mimeType":"image/png",
			"name":"tex39-16",
			"uri":"../../../Textures/tex39-16.png"
		},
		{
			"mimeType":"image/png",
			"name":"tex39-19",
			"uri":"../../../Textures/tex39-19.png"
		},
		{
			"mimeType":"image/png",
			"name":"tex39-17",
			"uri":"../../../Textures/tex39-17.png"
		},
		{
			"mimeType":"image/png",
			"name":"tex39-18",
			"uri":"../../../Textures/tex39-18.png"
		}
	],
	"accessors":[
		{
			"bufferView":0,
			"componentType":5126,
			"count":9,
			"max":[
				21.903980255126953,
				-21.903949737548828,
				-42.72549057006836
			],
			"min":[
				-21.903968811035156,
				-30.976913452148438,
				-94.47481536865234
			],
			"type":"VEC3"
		},
		{
			"bufferView":1,
			"componentType":5126,
			"count":9,
			"type":"VEC3"
		},
		{
			"bufferView":2,
			"componentType":5126,
			"count":9,
			"type":"VEC2"
		},
		{
			"bufferView":3,
			"componentType":5123,
			"count":12,
			"type":"SCALAR"
		},
		{
			"bufferView":4,
			"componentType":5126,
			"count":8,
			"max":[
				21.903995513916016,
				30.976898193359375,
				-42.72551727294922
			],
			"min":[
				-21.90396499633789,
				21.903949737548828,
				-94.47477722167969
			],
			"type":"VEC3"
		},
		{
			"bufferView":5,
			"componentType":5126,
			"count":8,
			"type":"VEC3"
		},
		{
			"bufferView":6,
			"componentType":5126,
			"count":8,
			"type":"VEC2"
		},
		{
			"bufferView":7,
			"componentType":5123,
			"count":12,
			"type":"SCALAR"
		},
		{
			"bufferView":8,
			"componentType":5126,
			"count":1118,
			"max":[
				30.97689437866211,
				30.976898193359375,
				0.18642425537109375
			],
			"min":[
				-31.467166900634766,
				-30.976913452148438,
				-106.79866790771484
			],
			"type":"VEC3"
		},
		{
			"bufferView":9,
			"componentType":5126,
			"count":1118,
			"type":"VEC3"
		},
		{
			"bufferView":10,
			"componentType":5126,
			"count":1118,
			"type":"VEC2"
		},
		{
			"bufferView":11,
			"componentType":5123,
			"count":1350,
			"type":"SCALAR"
		},
		{
			"bufferView":12,
			"componentType":5126,
			"count":9,
			"max":[
				30.97689437866211,
				1.52587890625e-05,
				-42.725502014160156
			],
			"min":[
				-30.97689437866211,
				-21.903995513916016,
				-94.47481536865234
			],
			"type":"VEC3"
		},
		{
			"bufferView":13,
			"componentType":5126,
			"count":9,
			"type":"VEC3"
		},
		{
			"bufferView":14,
			"componentType":5126,
			"count":9,
			"type":"VEC2"
		},
		{
			"bufferView":15,
			"componentType":5123,
			"count":12,
			"type":"SCALAR"
		},
		{
			"bufferView":16,
			"componentType":5126,
			"count":8,
			"max":[
				30.97689437866211,
				21.903995513916016,
				-42.72550582885742
			],
			"min":[
				-30.97689437866211,
				-1.1444091796875e-05,
				-94.47477722167969
			],
			"type":"VEC3"
		},
		{
			"bufferView":17,
			"componentType":5126,
			"count":8,
			"type":"VEC3"
		},
		{
			"bufferView":18,
			"componentType":5126,
			"count":8,
			"type":"VEC2"
		},
		{
			"bufferView":19,
			"componentType":5123,
			"count":12,
			"type":"SCALAR"
		},
		{
			"bufferView":20,
			"componentType":5126,
			"count":188,
			"max":[
				30.97689437866211,
				30.976886749267578,
				-94.4747543334961
			],
			"min":[
				-30.97689437866211,
				-30.976913452148438,
				-126.414794921875
			],
			"type":"VEC3"
		},
		{
			"bufferView":21,
			"componentType":5126,
			"count":188,
			"type":"VEC3"
		},
		{
			"bufferView":22,
			"componentType":5126,
			"count":188,
			"type":"VEC2"
		},
		{
			"bufferView":23,
			"componentType":5123,
			"count":324,
			"type":"SCALAR"
		}
	],
	"bufferViews":[
		{
			"buffer":0,
			"byteLength":108,
			"byteOffset":0,
			"target":34962
		},
		{
			"buffer":0,
			"byteLength":108,
			"byteOffset":108,
			"target":34962
		},
		{
			"buffer":0,
			"byteLength":72,
			"byteOffset":216,
			"target":34962
		},
		{
			"buffer":0,
			"byteLength":24,
			"byteOffset":288,
			"target":34963
		},
		{
			"buffer":0,
			"byteLength":96,
			"byteOffset":312,
			"target":34962
		},
		{
			"buffer":0,
			"byteLength":96,
			"byteOffset":408,
			"target":34962
		},
		{
			"buffer":0,
			"byteLength":64,
			"byteOffset":504,
			"target":34962
		},
		{
			"buffer":0,
			"byteLength":24,
			"byteOffset":568,
			"target":34963
		},
		{
			"buffer":0,
			"byteLength":13416,
			"byteOffset":592,
			"target":34962
		},
		{
			"buffer":0,
			"byteLength":13416,
			"byteOffset":14008,
			"target":34962
		},
		{
			"buffer":0,
			"byteLength":8944,
			"byteOffset":27424,
			"target":34962
		},
		{
			"buffer":0,
			"byteLength":2700,
			"byteOffset":36368,
			"target":34963
		},
		{
			"buffer":0,
			"byteLength":108,
			"byteOffset":39068,
			"target":34962
		},
		{
			"buffer":0,
			"byteLength":108,
			"byteOffset":39176,
			"target":34962
		},
		{
			"buffer":0,
			"byteLength":72,
			"byteOffset":39284,
			"target":34962
		},
		{
			"buffer":0,
			"byteLength":24,
			"byteOffset":39356,
			"target":34963
		},
		{
			"buffer":0,
			"byteLength":96,
			"byteOffset":39380,
			"target":34962
		},
		{
			"buffer":0,
			"byteLength":96,
			"byteOffset":39476,
			"target":34962
		},
		{
			"buffer":0,
			"byteLength":64,
			"byteOffset":39572,
			"target":34962
		},
		{
			"buffer":0,
			"byteLength":24,
			"byteOffset":39636,
			"target":34963
		},
		{
			"buffer":0,
			"byteLength":2256,
			"byteOffset":39660,
			"target":34962
		},
		{
			"buffer":0,
			"byteLength":2256,
			"byteOffset":41916,
			"target":34962
		},
		{
			"buffer":0,
			"byteLength":1504,
			"byteOffset":44172,
			"target":34962
		},
		{
			"buffer":0,
			"byteLength":648,
			"byteOffset":45676,
			"target":34963
		}
	],
	"samplers":[
		{
			"magFilter":9729,
			"minFilter":9987
		}
	],
	"buffers":[
		{
			"byteLength":46324,
			"uri":"launch.bin"
		}
	]
}
