{
	"asset":{
		"generator":"Khronos glTF Blender I/O v4.3.47",
		"version":"2.0"
	},
	"extensionsUsed":[
		"KHR_materials_transmission"
	],
	"scene":0,
	"scenes":[
		{
			"name":"Scene",
			"nodes":[
				0,
				1
			]
		}
	],
	"nodes":[
		{
			"mesh":0,
			"name":"Maxis-3d1-mesh-28-ARCO",
			"rotation":[
				0.70710688829422,
				0,
				0,
				0.7071066498756409
			]
		},
		{
			"extras":{
				"gd_node":"Decal",
				"lower_fade":9,
				"upper_fade":10
			},
			"mesh":1,
			"name":"Ground_AO",
			"scale":[
				63.444061279296875,
				1,
				62.9538459777832
			],
			"translation":[
				-0.24513626098632812,
				-0.18643362820148468,
				1.1444091796875e-05
			]
		}
	],
	"materials":[
		{
			"name":"mat39-16",
			"occlusionTexture":{
				"index":0,
				"texCoord":1
			},
			"pbrMetallicRoughness":{
				"baseColorTexture":{
					"index":1
				},
				"metallicFactor":0
			}
		},
		{
			"name":"mat39-19",
			"occlusionTexture":{
				"index":2,
				"texCoord":1
			},
			"pbrMetallicRoughness":{
				"baseColorTexture":{
					"index":3
				},
				"metallicFactor":0
			}
		},
		{
			"name":"matcolour-48.010",
			"occlusionTexture":{
				"index":4,
				"texCoord":1
			},
			"pbrMetallicRoughness":{
				"baseColorFactor":[
					0.05882352963089943,
					0.05882352963089943,
					0.05882352963089943,
					1
				],
				"metallicFactor":0
			}
		},
		{
			"name":"mat39-17",
			"occlusionTexture":{
				"index":5,
				"texCoord":1
			},
			"pbrMetallicRoughness":{
				"baseColorTexture":{
					"index":6
				},
				"metallicFactor":0
			}
		},
		{
			"name":"mat39-18",
			"occlusionTexture":{
				"index":7,
				"texCoord":1
			},
			"pbrMetallicRoughness":{
				"baseColorTexture":{
					"index":8
				},
				"metallicFactor":0
			}
		},
		{
			"extensions":{
				"KHR_materials_transmission":{
					"transmissionFactor":1
				}
			},
			"name":"matcolour-19",
			"occlusionTexture":{
				"index":9,
				"texCoord":1
			},
			"pbrMetallicRoughness":{
				"metallicFactor":0,
				"roughnessFactor":0
			}
		},
		{
			"name":"Ground_AO",
			"occlusionTexture":{
				"index":10
			},
			"pbrMetallicRoughness":{
				"baseColorFactor":[
					0.800000011920929,
					0.800000011920929,
					0.800000011920929,
					1
				],
				"metallicFactor":0,
				"roughnessFactor":0.5
			}
		}
	],
	"meshes":[
		{
			"name":"Maxis-3d1-mesh-28-ARCO",
			"primitives":[
				{
					"attributes":{
						"POSITION":0,
						"NORMAL":1,
						"TEXCOORD_0":2,
						"TEXCOORD_1":3
					},
					"indices":4,
					"material":0
				},
				{
					"attributes":{
						"POSITION":5,
						"NORMAL":6,
						"TEXCOORD_0":7,
						"TEXCOORD_1":8
					},
					"indices":9,
					"material":1
				},
				{
					"attributes":{
						"POSITION":10,
						"NORMAL":11,
						"TEXCOORD_0":12,
						"TEXCOORD_1":13
					},
					"indices":14,
					"material":2
				},
				{
					"attributes":{
						"POSITION":15,
						"NORMAL":16,
						"TEXCOORD_0":17,
						"TEXCOORD_1":18
					},
					"indices":19,
					"material":3
				},
				{
					"attributes":{
						"POSITION":20,
						"NORMAL":21,
						"TEXCOORD_0":22,
						"TEXCOORD_1":23
					},
					"indices":24,
					"material":4
				},
				{
					"attributes":{
						"POSITION":25,
						"NORMAL":26,
						"TEXCOORD_0":27,
						"TEXCOORD_1":28
					},
					"indices":29,
					"material":5
				}
			]
		},
		{
			"name":"Plane",
			"primitives":[
				{
					"attributes":{
						"POSITION":30,
						"NORMAL":31,
						"TEXCOORD_0":32
					},
					"indices":33,
					"material":6
				}
			]
		}
	],
	"textures":[
		{
			"sampler":0,
			"source":0
		},
		{
			"sampler":0,
			"source":1
		},
		{
			"sampler":0,
			"source":0
		},
		{
			"sampler":0,
			"source":2
		},
		{
			"sampler":0,
			"source":0
		},
		{
			"sampler":0,
			"source":0
		},
		{
			"sampler":0,
			"source":3
		},
		{
			"sampler":0,
			"source":0
		},
		{
			"sampler":0,
			"source":4
		},
		{
			"sampler":0,
			"source":0
		},
		{
			"sampler":0,
			"source":5
		}
	],
	"images":[
		{
			"mimeType":"image/png",
			"name":"launch.png",
			"uri":"../../../Textures/ambient_occlusion/Buildings/Arcology/launch.png"
		},
		{
			"mimeType":"image/png",
			"name":"tex39-16",
			"uri":"../../../Textures/tex39-16.png"
		},
		{
			"mimeType":"image/png",
			"name":"tex39-19",
			"uri":"../../../Textures/tex39-19.png"
		},
		{
			"mimeType":"image/png",
			"name":"tex39-17",
			"uri":"../../../Textures/tex39-17.png"
		},
		{
			"mimeType":"image/png",
			"name":"tex39-18",
			"uri":"../../../Textures/tex39-18.png"
		},
		{
			"mimeType":"image/png",
			"name":"launch_ground.png",
			"uri":"../../../Textures/ambient_occlusion/Buildings/Arcology/launch_ground.png"
		}
	],
	"accessors":[
		{
			"bufferView":0,
			"componentType":5126,
			"count":8,
			"max":[
				21.903980255126953,
				-21.903949737548828,
				-42.72549057006836
			],
			"min":[
				-21.903968811035156,
				-30.976913452148438,
				-94.47481536865234
			],
			"type":"VEC3"
		},
		{
			"bufferView":1,
			"componentType":5126,
			"count":8,
			"type":"VEC3"
		},
		{
			"bufferView":2,
			"componentType":5126,
			"count":8,
			"type":"VEC2"
		},
		{
			"bufferView":3,
			"componentType":5126,
			"count":8,
			"type":"VEC2"
		},
		{
			"bufferView":4,
			"componentType":5123,
			"count":12,
			"type":"SCALAR"
		},
		{
			"bufferView":5,
			"componentType":5126,
			"count":8,
			"max":[
				21.903995513916016,
				30.976898193359375,
				-42.72551727294922
			],
			"min":[
				-21.90396499633789,
				21.903949737548828,
				-94.47477722167969
			],
			"type":"VEC3"
		},
		{
			"bufferView":6,
			"componentType":5126,
			"count":8,
			"type":"VEC3"
		},
		{
			"bufferView":7,
			"componentType":5126,
			"count":8,
			"type":"VEC2"
		},
		{
			"bufferView":8,
			"componentType":5126,
			"count":8,
			"type":"VEC2"
		},
		{
			"bufferView":9,
			"componentType":5123,
			"count":12,
			"type":"SCALAR"
		},
		{
			"bufferView":10,
			"componentType":5126,
			"count":1088,
			"max":[
				30.97689437866211,
				30.976898193359375,
				0.18642425537109375
			],
			"min":[
				-31.467166900634766,
				-30.976913452148438,
				-106.79866790771484
			],
			"type":"VEC3"
		},
		{
			"bufferView":11,
			"componentType":5126,
			"count":1088,
			"type":"VEC3"
		},
		{
			"bufferView":12,
			"componentType":5126,
			"count":1088,
			"type":"VEC2"
		},
		{
			"bufferView":13,
			"componentType":5126,
			"count":1088,
			"type":"VEC2"
		},
		{
			"bufferView":14,
			"componentType":5123,
			"count":1350,
			"type":"SCALAR"
		},
		{
			"bufferView":15,
			"componentType":5126,
			"count":8,
			"max":[
				30.97689437866211,
				1.52587890625e-05,
				-42.725502014160156
			],
			"min":[
				-30.97689437866211,
				-21.903995513916016,
				-94.47481536865234
			],
			"type":"VEC3"
		},
		{
			"bufferView":16,
			"componentType":5126,
			"count":8,
			"type":"VEC3"
		},
		{
			"bufferView":17,
			"componentType":5126,
			"count":8,
			"type":"VEC2"
		},
		{
			"bufferView":18,
			"componentType":5126,
			"count":8,
			"type":"VEC2"
		},
		{
			"bufferView":19,
			"componentType":5123,
			"count":12,
			"type":"SCALAR"
		},
		{
			"bufferView":20,
			"componentType":5126,
			"count":8,
			"max":[
				30.97689437866211,
				21.903995513916016,
				-42.72550582885742
			],
			"min":[
				-30.97689437866211,
				-1.1444091796875e-05,
				-94.47477722167969
			],
			"type":"VEC3"
		},
		{
			"bufferView":21,
			"componentType":5126,
			"count":8,
			"type":"VEC3"
		},
		{
			"bufferView":22,
			"componentType":5126,
			"count":8,
			"type":"VEC2"
		},
		{
			"bufferView":23,
			"componentType":5126,
			"count":8,
			"type":"VEC2"
		},
		{
			"bufferView":24,
			"componentType":5123,
			"count":12,
			"type":"SCALAR"
		},
		{
			"bufferView":25,
			"componentType":5126,
			"count":200,
			"max":[
				30.97689437866211,
				30.976886749267578,
				-94.4747543334961
			],
			"min":[
				-30.97689437866211,
				-30.976913452148438,
				-126.414794921875
			],
			"type":"VEC3"
		},
		{
			"bufferView":26,
			"componentType":5126,
			"count":200,
			"type":"VEC3"
		},
		{
			"bufferView":27,
			"componentType":5126,
			"count":200,
			"type":"VEC2"
		},
		{
			"bufferView":28,
			"componentType":5126,
			"count":200,
			"type":"VEC2"
		},
		{
			"bufferView":29,
			"componentType":5123,
			"count":324,
			"type":"SCALAR"
		},
		{
			"bufferView":30,
			"componentType":5126,
			"count":4,
			"max":[
				0.5,
				0,
				0.5
			],
			"min":[
				-0.5,
				0,
				-0.5
			],
			"type":"VEC3"
		},
		{
			"bufferView":31,
			"componentType":5126,
			"count":4,
			"type":"VEC3"
		},
		{
			"bufferView":32,
			"componentType":5126,
			"count":4,
			"type":"VEC2"
		},
		{
			"bufferView":33,
			"componentType":5123,
			"count":6,
			"type":"SCALAR"
		}
	],
	"bufferViews":[
		{
			"buffer":0,
			"byteLength":96,
			"byteOffset":0,
			"target":34962
		},
		{
			"buffer":0,
			"byteLength":96,
			"byteOffset":96,
			"target":34962
		},
		{
			"buffer":0,
			"byteLength":64,
			"byteOffset":192,
			"target":34962
		},
		{
			"buffer":0,
			"byteLength":64,
			"byteOffset":256,
			"target":34962
		},
		{
			"buffer":0,
			"byteLength":24,
			"byteOffset":320,
			"target":34963
		},
		{
			"buffer":0,
			"byteLength":96,
			"byteOffset":344,
			"target":34962
		},
		{
			"buffer":0,
			"byteLength":96,
			"byteOffset":440,
			"target":34962
		},
		{
			"buffer":0,
			"byteLength":64,
			"byteOffset":536,
			"target":34962
		},
		{
			"buffer":0,
			"byteLength":64,
			"byteOffset":600,
			"target":34962
		},
		{
			"buffer":0,
			"byteLength":24,
			"byteOffset":664,
			"target":34963
		},
		{
			"buffer":0,
			"byteLength":13056,
			"byteOffset":688,
			"target":34962
		},
		{
			"buffer":0,
			"byteLength":13056,
			"byteOffset":13744,
			"target":34962
		},
		{
			"buffer":0,
			"byteLength":8704,
			"byteOffset":26800,
			"target":34962
		},
		{
			"buffer":0,
			"byteLength":8704,
			"byteOffset":35504,
			"target":34962
		},
		{
			"buffer":0,
			"byteLength":2700,
			"byteOffset":44208,
			"target":34963
		},
		{
			"buffer":0,
			"byteLength":96,
			"byteOffset":46908,
			"target":34962
		},
		{
			"buffer":0,
			"byteLength":96,
			"byteOffset":47004,
			"target":34962
		},
		{
			"buffer":0,
			"byteLength":64,
			"byteOffset":47100,
			"target":34962
		},
		{
			"buffer":0,
			"byteLength":64,
			"byteOffset":47164,
			"target":34962
		},
		{
			"buffer":0,
			"byteLength":24,
			"byteOffset":47228,
			"target":34963
		},
		{
			"buffer":0,
			"byteLength":96,
			"byteOffset":47252,
			"target":34962
		},
		{
			"buffer":0,
			"byteLength":96,
			"byteOffset":47348,
			"target":34962
		},
		{
			"buffer":0,
			"byteLength":64,
			"byteOffset":47444,
			"target":34962
		},
		{
			"buffer":0,
			"byteLength":64,
			"byteOffset":47508,
			"target":34962
		},
		{
			"buffer":0,
			"byteLength":24,
			"byteOffset":47572,
			"target":34963
		},
		{
			"buffer":0,
			"byteLength":2400,
			"byteOffset":47596,
			"target":34962
		},
		{
			"buffer":0,
			"byteLength":2400,
			"byteOffset":49996,
			"target":34962
		},
		{
			"buffer":0,
			"byteLength":1600,
			"byteOffset":52396,
			"target":34962
		},
		{
			"buffer":0,
			"byteLength":1600,
			"byteOffset":53996,
			"target":34962
		},
		{
			"buffer":0,
			"byteLength":648,
			"byteOffset":55596,
			"target":34963
		},
		{
			"buffer":0,
			"byteLength":48,
			"byteOffset":56244,
			"target":34962
		},
		{
			"buffer":0,
			"byteLength":48,
			"byteOffset":56292,
			"target":34962
		},
		{
			"buffer":0,
			"byteLength":32,
			"byteOffset":56340,
			"target":34962
		},
		{
			"buffer":0,
			"byteLength":12,
			"byteOffset":56372,
			"target":34963
		}
	],
	"samplers":[
		{
			"magFilter":9729,
			"minFilter":9987
		}
	],
	"buffers":[
		{
			"byteLength":56384,
			"uri":"launch.bin"
		}
	]
}
