{
    "asset" : {
        "generator" : "Khronos glTF Blender I/O v1.7.33",
        "version" : "2.0"
    },
    "scene" : 0,
    "scenes" : [
        {
            "name" : "Scene",
            "nodes" : [
                0
            ]
        }
    ],
    "nodes" : [
        {
            "mesh" : 0,
            "name" : "Maxis-3d1-mesh-28-ARCO",
            "rotation" : [
                0.7071068286895752,
                0,
                0,
                0.7071067094802856
            ]
        }
    ],
    "materials" : [
        {
            "doubleSided" : true,
            "name" : "mat39-16",
            "pbrMetallicRoughness" : {
                "baseColorTexture" : {
                    "index" : 0
                },
                "metallicFactor" : 0
            }
        },
        {
            "doubleSided" : true,
            "name" : "mat39-19",
            "pbrMetallicRoughness" : {
                "baseColorTexture" : {
                    "index" : 1
                },
                "metallicFactor" : 0
            }
        },
        {
            "doubleSided" : true,
            "name" : "matcolour-48.010",
            "pbrMetallicRoughness" : {
                "baseColorFactor" : [
                    0.05882352963089943,
                    0.05882352963089943,
                    0.05882352963089943,
                    1
                ],
                "metallicFactor" : 0
            }
        },
        {
            "doubleSided" : true,
            "name" : "mat39-17",
            "pbrMetallicRoughness" : {
                "baseColorTexture" : {
                    "index" : 2
                },
                "metallicFactor" : 0
            }
        },
        {
            "doubleSided" : true,
            "name" : "mat39-18",
            "pbrMetallicRoughness" : {
                "baseColorTexture" : {
                    "index" : 3
                },
                "metallicFactor" : 0
            }
        },
        {
            "doubleSided" : true,
            "name" : "matcolour-19",
            "pbrMetallicRoughness" : {
                "baseColorFactor" : [
                    0.6235294342041016,
                    0.18431372940540314,
                    0.019607843831181526,
                    1
                ],
                "metallicFactor" : 0
            }
        }
    ],
    "meshes" : [
        {
            "name" : "Maxis-3d1-mesh-28-ARCO",
            "primitives" : [
                {
                    "attributes" : {
                        "POSITION" : 0,
                        "NORMAL" : 1,
                        "TEXCOORD_0" : 2
                    },
                    "indices" : 3,
                    "material" : 0
                },
                {
                    "attributes" : {
                        "POSITION" : 4,
                        "NORMAL" : 5,
                        "TEXCOORD_0" : 6
                    },
                    "indices" : 7,
                    "material" : 1
                },
                {
                    "attributes" : {
                        "POSITION" : 8,
                        "NORMAL" : 9,
                        "TEXCOORD_0" : 10
                    },
                    "indices" : 11,
                    "material" : 2
                },
                {
                    "attributes" : {
                        "POSITION" : 12,
                        "NORMAL" : 13,
                        "TEXCOORD_0" : 14
                    },
                    "indices" : 15,
                    "material" : 3
                },
                {
                    "attributes" : {
                        "POSITION" : 16,
                        "NORMAL" : 17,
                        "TEXCOORD_0" : 18
                    },
                    "indices" : 19,
                    "material" : 4
                },
                {
                    "attributes" : {
                        "POSITION" : 20,
                        "NORMAL" : 21,
                        "TEXCOORD_0" : 22
                    },
                    "indices" : 23,
                    "material" : 5
                },
                {
                    "attributes" : {
                        "POSITION" : 24
                    },
                    "indices" : 25,
                    "material" : 0,
                    "mode" : 1
                }
            ]
        }
    ],
    "textures" : [
        {
            "sampler" : 0,
            "source" : 0
        },
        {
            "sampler" : 0,
            "source" : 1
        },
        {
            "sampler" : 0,
            "source" : 2
        },
        {
            "sampler" : 0,
            "source" : 3
        }
    ],
    "images" : [
        {
            "mimeType" : "image/png",
            "name" : "tex39-16",
            "uri" : "../../../Textures/tex39-16.png"
        },
        {
            "mimeType" : "image/png",
            "name" : "tex39-19",
            "uri" : "../../../Textures/tex39-19.png"
        },
        {
            "mimeType" : "image/png",
            "name" : "tex39-17",
            "uri" : "../../../Textures/tex39-17.png"
        },
        {
            "mimeType" : "image/png",
            "name" : "tex39-18",
            "uri" : "../../../Textures/tex39-18.png"
        }
    ],
    "accessors" : [
        {
            "bufferView" : 0,
            "componentType" : 5126,
            "count" : 12,
            "max" : [
                21.903980255126953,
                -21.903949737548828,
                -42.72549057006836
            ],
            "min" : [
                -21.903968811035156,
                -30.976913452148438,
                -94.47481536865234
            ],
            "type" : "VEC3"
        },
        {
            "bufferView" : 1,
            "componentType" : 5126,
            "count" : 12,
            "type" : "VEC3"
        },
        {
            "bufferView" : 2,
            "componentType" : 5126,
            "count" : 12,
            "type" : "VEC2"
        },
        {
            "bufferView" : 3,
            "componentType" : 5123,
            "count" : 12,
            "type" : "SCALAR"
        },
        {
            "bufferView" : 4,
            "componentType" : 5126,
            "count" : 12,
            "max" : [
                21.903995513916016,
                30.976898193359375,
                -42.72551727294922
            ],
            "min" : [
                -21.90396499633789,
                21.903949737548828,
                -94.47477722167969
            ],
            "type" : "VEC3"
        },
        {
            "bufferView" : 5,
            "componentType" : 5126,
            "count" : 12,
            "type" : "VEC3"
        },
        {
            "bufferView" : 6,
            "componentType" : 5126,
            "count" : 12,
            "type" : "VEC2"
        },
        {
            "bufferView" : 7,
            "componentType" : 5123,
            "count" : 12,
            "type" : "SCALAR"
        },
        {
            "bufferView" : 8,
            "componentType" : 5126,
            "count" : 1326,
            "max" : [
                30.97689437866211,
                30.976898193359375,
                0.18642425537109375
            ],
            "min" : [
                -31.467166900634766,
                -30.976913452148438,
                -106.79866790771484
            ],
            "type" : "VEC3"
        },
        {
            "bufferView" : 9,
            "componentType" : 5126,
            "count" : 1326,
            "type" : "VEC3"
        },
        {
            "bufferView" : 10,
            "componentType" : 5126,
            "count" : 1326,
            "type" : "VEC2"
        },
        {
            "bufferView" : 11,
            "componentType" : 5123,
            "count" : 1350,
            "type" : "SCALAR"
        },
        {
            "bufferView" : 12,
            "componentType" : 5126,
            "count" : 12,
            "max" : [
                30.97689437866211,
                1.52587890625e-05,
                -42.725502014160156
            ],
            "min" : [
                -30.97689437866211,
                -21.903995513916016,
                -94.47481536865234
            ],
            "type" : "VEC3"
        },
        {
            "bufferView" : 13,
            "componentType" : 5126,
            "count" : 12,
            "type" : "VEC3"
        },
        {
            "bufferView" : 14,
            "componentType" : 5126,
            "count" : 12,
            "type" : "VEC2"
        },
        {
            "bufferView" : 15,
            "componentType" : 5123,
            "count" : 12,
            "type" : "SCALAR"
        },
        {
            "bufferView" : 16,
            "componentType" : 5126,
            "count" : 12,
            "max" : [
                30.97689437866211,
                21.903995513916016,
                -42.72550582885742
            ],
            "min" : [
                -30.97689437866211,
                -1.1444091796875e-05,
                -94.47477722167969
            ],
            "type" : "VEC3"
        },
        {
            "bufferView" : 17,
            "componentType" : 5126,
            "count" : 12,
            "type" : "VEC3"
        },
        {
            "bufferView" : 18,
            "componentType" : 5126,
            "count" : 12,
            "type" : "VEC2"
        },
        {
            "bufferView" : 19,
            "componentType" : 5123,
            "count" : 12,
            "type" : "SCALAR"
        },
        {
            "bufferView" : 20,
            "componentType" : 5126,
            "count" : 316,
            "max" : [
                30.97689437866211,
                30.976886749267578,
                -94.4747543334961
            ],
            "min" : [
                -30.97689437866211,
                -30.976913452148438,
                -126.414794921875
            ],
            "type" : "VEC3"
        },
        {
            "bufferView" : 21,
            "componentType" : 5126,
            "count" : 316,
            "type" : "VEC3"
        },
        {
            "bufferView" : 22,
            "componentType" : 5126,
            "count" : 316,
            "type" : "VEC2"
        },
        {
            "bufferView" : 23,
            "componentType" : 5123,
            "count" : 324,
            "type" : "SCALAR"
        },
        {
            "bufferView" : 24,
            "componentType" : 5126,
            "count" : 92,
            "max" : [
                29.78784942626953,
                26.066516876220703,
                -0.006900787353515625
            ],
            "min" : [
                -31.324298858642578,
                -22.56566619873047,
                -108.91738891601562
            ],
            "type" : "VEC3"
        },
        {
            "bufferView" : 25,
            "componentType" : 5123,
            "count" : 92,
            "type" : "SCALAR"
        }
    ],
    "bufferViews" : [
        {
            "buffer" : 0,
            "byteLength" : 144,
            "byteOffset" : 0
        },
        {
            "buffer" : 0,
            "byteLength" : 144,
            "byteOffset" : 144
        },
        {
            "buffer" : 0,
            "byteLength" : 96,
            "byteOffset" : 288
        },
        {
            "buffer" : 0,
            "byteLength" : 24,
            "byteOffset" : 384
        },
        {
            "buffer" : 0,
            "byteLength" : 144,
            "byteOffset" : 408
        },
        {
            "buffer" : 0,
            "byteLength" : 144,
            "byteOffset" : 552
        },
        {
            "buffer" : 0,
            "byteLength" : 96,
            "byteOffset" : 696
        },
        {
            "buffer" : 0,
            "byteLength" : 24,
            "byteOffset" : 792
        },
        {
            "buffer" : 0,
            "byteLength" : 15912,
            "byteOffset" : 816
        },
        {
            "buffer" : 0,
            "byteLength" : 15912,
            "byteOffset" : 16728
        },
        {
            "buffer" : 0,
            "byteLength" : 10608,
            "byteOffset" : 32640
        },
        {
            "buffer" : 0,
            "byteLength" : 2700,
            "byteOffset" : 43248
        },
        {
            "buffer" : 0,
            "byteLength" : 144,
            "byteOffset" : 45948
        },
        {
            "buffer" : 0,
            "byteLength" : 144,
            "byteOffset" : 46092
        },
        {
            "buffer" : 0,
            "byteLength" : 96,
            "byteOffset" : 46236
        },
        {
            "buffer" : 0,
            "byteLength" : 24,
            "byteOffset" : 46332
        },
        {
            "buffer" : 0,
            "byteLength" : 144,
            "byteOffset" : 46356
        },
        {
            "buffer" : 0,
            "byteLength" : 144,
            "byteOffset" : 46500
        },
        {
            "buffer" : 0,
            "byteLength" : 96,
            "byteOffset" : 46644
        },
        {
            "buffer" : 0,
            "byteLength" : 24,
            "byteOffset" : 46740
        },
        {
            "buffer" : 0,
            "byteLength" : 3792,
            "byteOffset" : 46764
        },
        {
            "buffer" : 0,
            "byteLength" : 3792,
            "byteOffset" : 50556
        },
        {
            "buffer" : 0,
            "byteLength" : 2528,
            "byteOffset" : 54348
        },
        {
            "buffer" : 0,
            "byteLength" : 648,
            "byteOffset" : 56876
        },
        {
            "buffer" : 0,
            "byteLength" : 1104,
            "byteOffset" : 57524
        },
        {
            "buffer" : 0,
            "byteLength" : 184,
            "byteOffset" : 58628
        }
    ],
    "samplers" : [
        {
            "magFilter" : 9729,
            "minFilter" : 9987
        }
    ],
    "buffers" : [
        {
            "byteLength" : 58812,
            "uri" : "launch.bin"
        }
    ]
}
