{
	"asset":{
		"generator":"Khronos glTF Blender I/O v4.1.63",
		"version":"2.0"
	},
	"scene":0,
	"scenes":[
		{
			"name":"Scene",
			"nodes":[
				0
			]
		}
	],
	"nodes":[
		{
			"mesh":0,
			"name":"Maxis-3d1-mesh-27-ar251a",
			"rotation":[
				0.70710688829422,
				0,
				0,
				0.7071066498756409
			]
		}
	],
	"materials":[
		{
			"name":"mat40-38.005",
			"pbrMetallicRoughness":{
				"baseColorTexture":{
					"index":0
				},
				"metallicFactor":0
			}
		},
		{
			"name":"mat40-37.005",
			"pbrMetallicRoughness":{
				"baseColorTexture":{
					"index":1
				},
				"metallicFactor":0
			}
		},
		{
			"name":"mat40-36.006",
			"pbrMetallicRoughness":{
				"baseColorTexture":{
					"index":2
				},
				"metallicFactor":0
			}
		},
		{
			"name":"mat40-39.005",
			"pbrMetallicRoughness":{
				"baseColorTexture":{
					"index":3
				},
				"metallicFactor":0
			}
		},
		{
			"name":"mat2-42",
			"pbrMetallicRoughness":{
				"baseColorTexture":{
					"index":4
				},
				"metallicFactor":0
			}
		},
		{
			"name":"mat2-41",
			"pbrMetallicRoughness":{
				"baseColorTexture":{
					"index":5
				},
				"metallicFactor":0
			}
		},
		{
			"name":"matcolour-48.009",
			"pbrMetallicRoughness":{
				"baseColorFactor":[
					0.05882352963089943,
					0.05882352963089943,
					0.05882352963089943,
					1
				],
				"metallicFactor":0
			}
		},
		{
			"name":"mat40-47.002",
			"pbrMetallicRoughness":{
				"baseColorTexture":{
					"index":6
				},
				"metallicFactor":0
			}
		},
		{
			"name":"mat40-44.002",
			"pbrMetallicRoughness":{
				"baseColorTexture":{
					"index":7
				},
				"metallicFactor":0
			}
		},
		{
			"name":"mat40-46.002",
			"pbrMetallicRoughness":{
				"baseColorTexture":{
					"index":8
				},
				"metallicFactor":0
			}
		},
		{
			"name":"mat40-45.002",
			"pbrMetallicRoughness":{
				"baseColorTexture":{
					"index":9
				},
				"metallicFactor":0
			}
		},
		{
			"name":"mat40-23.003",
			"pbrMetallicRoughness":{
				"baseColorTexture":{
					"index":10
				},
				"metallicFactor":0
			}
		},
		{
			"name":"mat40-22.003",
			"pbrMetallicRoughness":{
				"baseColorTexture":{
					"index":11
				},
				"metallicFactor":0
			}
		},
		{
			"name":"mat40-21.003",
			"pbrMetallicRoughness":{
				"baseColorTexture":{
					"index":12
				},
				"metallicFactor":0
			}
		},
		{
			"name":"mat40-20.003",
			"pbrMetallicRoughness":{
				"baseColorTexture":{
					"index":13
				},
				"metallicFactor":0
			}
		}
	],
	"meshes":[
		{
			"name":"Maxis-3d1-mesh-27-ar251a",
			"primitives":[
				{
					"attributes":{
						"POSITION":0,
						"NORMAL":1,
						"TEXCOORD_0":2
					},
					"indices":3,
					"material":0
				},
				{
					"attributes":{
						"POSITION":4,
						"NORMAL":5,
						"TEXCOORD_0":6
					},
					"indices":7,
					"material":1
				},
				{
					"attributes":{
						"POSITION":8,
						"NORMAL":9,
						"TEXCOORD_0":10
					},
					"indices":11,
					"material":2
				},
				{
					"attributes":{
						"POSITION":12,
						"NORMAL":13,
						"TEXCOORD_0":14
					},
					"indices":15,
					"material":3
				},
				{
					"attributes":{
						"POSITION":16,
						"NORMAL":17,
						"TEXCOORD_0":18
					},
					"indices":19,
					"material":4
				},
				{
					"attributes":{
						"POSITION":20,
						"NORMAL":21,
						"TEXCOORD_0":22
					},
					"indices":23,
					"material":5
				},
				{
					"attributes":{
						"POSITION":24,
						"NORMAL":25,
						"TEXCOORD_0":26
					},
					"indices":27,
					"material":6
				},
				{
					"attributes":{
						"POSITION":28,
						"NORMAL":29,
						"TEXCOORD_0":30
					},
					"indices":31,
					"material":7
				},
				{
					"attributes":{
						"POSITION":32,
						"NORMAL":33,
						"TEXCOORD_0":34
					},
					"indices":35,
					"material":8
				},
				{
					"attributes":{
						"POSITION":36,
						"NORMAL":37,
						"TEXCOORD_0":38
					},
					"indices":39,
					"material":9
				},
				{
					"attributes":{
						"POSITION":40,
						"NORMAL":41,
						"TEXCOORD_0":42
					},
					"indices":43,
					"material":10
				},
				{
					"attributes":{
						"POSITION":44,
						"NORMAL":45,
						"TEXCOORD_0":46
					},
					"indices":47,
					"material":11
				},
				{
					"attributes":{
						"POSITION":48,
						"NORMAL":49,
						"TEXCOORD_0":50
					},
					"indices":51,
					"material":12
				},
				{
					"attributes":{
						"POSITION":52,
						"NORMAL":53,
						"TEXCOORD_0":54
					},
					"indices":55,
					"material":13
				},
				{
					"attributes":{
						"POSITION":56,
						"NORMAL":57,
						"TEXCOORD_0":58
					},
					"indices":59,
					"material":14
				}
			]
		}
	],
	"textures":[
		{
			"sampler":0,
			"source":0
		},
		{
			"sampler":0,
			"source":1
		},
		{
			"sampler":0,
			"source":2
		},
		{
			"sampler":0,
			"source":3
		},
		{
			"sampler":0,
			"source":4
		},
		{
			"sampler":0,
			"source":5
		},
		{
			"sampler":0,
			"source":6
		},
		{
			"sampler":0,
			"source":7
		},
		{
			"sampler":0,
			"source":8
		},
		{
			"sampler":0,
			"source":9
		},
		{
			"sampler":0,
			"source":10
		},
		{
			"sampler":0,
			"source":11
		},
		{
			"sampler":0,
			"source":12
		},
		{
			"sampler":0,
			"source":13
		}
	],
	"images":[
		{
			"mimeType":"image/png",
			"name":"tex40-38",
			"uri":"../../../Textures/tex40-38.png"
		},
		{
			"mimeType":"image/png",
			"name":"tex40-37",
			"uri":"../../../Textures/tex40-37.png"
		},
		{
			"mimeType":"image/png",
			"name":"tex40-36",
			"uri":"../../../Textures/tex40-36.png"
		},
		{
			"mimeType":"image/png",
			"name":"tex40-39",
			"uri":"../../../Textures/tex40-39.png"
		},
		{
			"mimeType":"image/png",
			"name":"tex2-42",
			"uri":"../../../Textures/tex2-42.png"
		},
		{
			"mimeType":"image/png",
			"name":"tex2-41",
			"uri":"../../../Textures/tex2-41.png"
		},
		{
			"mimeType":"image/png",
			"name":"tex40-47",
			"uri":"../../../Textures/tex40-47.png"
		},
		{
			"mimeType":"image/png",
			"name":"tex40-44",
			"uri":"../../../Textures/tex40-44.png"
		},
		{
			"mimeType":"image/png",
			"name":"tex40-46",
			"uri":"../../../Textures/tex40-46.png"
		},
		{
			"mimeType":"image/png",
			"name":"tex40-45",
			"uri":"../../../Textures/tex40-45.png"
		},
		{
			"mimeType":"image/png",
			"name":"tex40-23",
			"uri":"../../../Textures/tex40-23.png"
		},
		{
			"mimeType":"image/png",
			"name":"tex40-22",
			"uri":"../../../Textures/tex40-22.png"
		},
		{
			"mimeType":"image/png",
			"name":"tex40-21",
			"uri":"../../../Textures/tex40-21.png"
		},
		{
			"mimeType":"image/png",
			"name":"tex40-20",
			"uri":"../../../Textures/tex40-20.png"
		}
	],
	"accessors":[
		{
			"bufferView":0,
			"componentType":5126,
			"count":6,
			"max":[
				30,
				30.00000762939453,
				-20.999984741210938
			],
			"min":[
				12.14999771118164,
				-29.999988555908203,
				-70.00003051757812
			],
			"type":"VEC3"
		},
		{
			"bufferView":1,
			"componentType":5126,
			"count":6,
			"type":"VEC3"
		},
		{
			"bufferView":2,
			"componentType":5126,
			"count":6,
			"type":"VEC2"
		},
		{
			"bufferView":3,
			"componentType":5123,
			"count":12,
			"type":"SCALAR"
		},
		{
			"bufferView":4,
			"componentType":5126,
			"count":8,
			"max":[
				-12.14999771118164,
				30.00000762939453,
				-20.999984741210938
			],
			"min":[
				-30,
				-29.999988555908203,
				-70.00003051757812
			],
			"type":"VEC3"
		},
		{
			"bufferView":5,
			"componentType":5126,
			"count":8,
			"type":"VEC3"
		},
		{
			"bufferView":6,
			"componentType":5126,
			"count":8,
			"type":"VEC2"
		},
		{
			"bufferView":7,
			"componentType":5123,
			"count":12,
			"type":"SCALAR"
		},
		{
			"bufferView":8,
			"componentType":5126,
			"count":6,
			"max":[
				30,
				-12.1500244140625,
				-20.999984741210938
			],
			"min":[
				-30,
				-29.999988555908203,
				-69.99998474121094
			],
			"type":"VEC3"
		},
		{
			"bufferView":9,
			"componentType":5126,
			"count":6,
			"type":"VEC3"
		},
		{
			"bufferView":10,
			"componentType":5126,
			"count":6,
			"type":"VEC2"
		},
		{
			"bufferView":11,
			"componentType":5123,
			"count":12,
			"type":"SCALAR"
		},
		{
			"bufferView":12,
			"componentType":5126,
			"count":9,
			"max":[
				30,
				30.00000762939453,
				-21
			],
			"min":[
				-30,
				12.149974822998047,
				-70.00003051757812
			],
			"type":"VEC3"
		},
		{
			"bufferView":13,
			"componentType":5126,
			"count":9,
			"type":"VEC3"
		},
		{
			"bufferView":14,
			"componentType":5126,
			"count":9,
			"type":"VEC2"
		},
		{
			"bufferView":15,
			"componentType":5123,
			"count":27,
			"type":"SCALAR"
		},
		{
			"bufferView":16,
			"componentType":5126,
			"count":6,
			"max":[
				5.064243316650391,
				25.15550994873047,
				-61.6246223449707
			],
			"min":[
				-8.758541107177734,
				14.964057922363281,
				-62.27509689331055
			],
			"type":"VEC3"
		},
		{
			"bufferView":17,
			"componentType":5126,
			"count":6,
			"type":"VEC3"
		},
		{
			"bufferView":18,
			"componentType":5126,
			"count":6,
			"type":"VEC2"
		},
		{
			"bufferView":19,
			"componentType":5123,
			"count":6,
			"type":"SCALAR"
		},
		{
			"bufferView":20,
			"componentType":5126,
			"count":4,
			"max":[
				-8.403022766113281,
				25.15550994873047,
				-61.6246223449707
			],
			"min":[
				-8.767005920410156,
				14.964057922363281,
				-62.27509689331055
			],
			"type":"VEC3"
		},
		{
			"bufferView":21,
			"componentType":5126,
			"count":4,
			"type":"VEC3"
		},
		{
			"bufferView":22,
			"componentType":5126,
			"count":4,
			"type":"VEC2"
		},
		{
			"bufferView":23,
			"componentType":5123,
			"count":6,
			"type":"SCALAR"
		},
		{
			"bufferView":24,
			"componentType":5126,
			"count":7,
			"max":[
				12.14999771118164,
				25.15550994873047,
				-62.27509689331055
			],
			"min":[
				-12.14999771118164,
				-12.1500244140625,
				-70.00003051757812
			],
			"type":"VEC3"
		},
		{
			"bufferView":25,
			"componentType":5126,
			"count":7,
			"type":"VEC3"
		},
		{
			"bufferView":26,
			"componentType":5126,
			"count":7,
			"type":"VEC2"
		},
		{
			"bufferView":27,
			"componentType":5123,
			"count":9,
			"type":"SCALAR"
		},
		{
			"bufferView":28,
			"componentType":5126,
			"count":6,
			"max":[
				28,
				30.00000762939453,
				-8.000019073486328
			],
			"min":[
				-28,
				18.30002212524414,
				-21
			],
			"type":"VEC3"
		},
		{
			"bufferView":29,
			"componentType":5126,
			"count":6,
			"type":"VEC3"
		},
		{
			"bufferView":30,
			"componentType":5126,
			"count":6,
			"type":"VEC2"
		},
		{
			"bufferView":31,
			"componentType":5123,
			"count":12,
			"type":"SCALAR"
		},
		{
			"bufferView":32,
			"componentType":5126,
			"count":6,
			"max":[
				28,
				-18.299983978271484,
				-7.999980926513672
			],
			"min":[
				-28,
				-29.999988555908203,
				-20.999984741210938
			],
			"type":"VEC3"
		},
		{
			"bufferView":33,
			"componentType":5126,
			"count":6,
			"type":"VEC3"
		},
		{
			"bufferView":34,
			"componentType":5126,
			"count":6,
			"type":"VEC2"
		},
		{
			"bufferView":35,
			"componentType":5123,
			"count":12,
			"type":"SCALAR"
		},
		{
			"bufferView":36,
			"componentType":5126,
			"count":6,
			"max":[
				30,
				28.000015258789062,
				-7.999980926513672
			],
			"min":[
				18.299999237060547,
				-27.99999237060547,
				-21
			],
			"type":"VEC3"
		},
		{
			"bufferView":37,
			"componentType":5126,
			"count":6,
			"type":"VEC3"
		},
		{
			"bufferView":38,
			"componentType":5126,
			"count":6,
			"type":"VEC2"
		},
		{
			"bufferView":39,
			"componentType":5123,
			"count":12,
			"type":"SCALAR"
		},
		{
			"bufferView":40,
			"componentType":5126,
			"count":6,
			"max":[
				-18.300003051757812,
				28.00000762939453,
				-7.999980926513672
			],
			"min":[
				-30,
				-27.99999237060547,
				-21
			],
			"type":"VEC3"
		},
		{
			"bufferView":41,
			"componentType":5126,
			"count":6,
			"type":"VEC3"
		},
		{
			"bufferView":42,
			"componentType":5126,
			"count":6,
			"type":"VEC2"
		},
		{
			"bufferView":43,
			"componentType":5123,
			"count":12,
			"type":"SCALAR"
		},
		{
			"bufferView":44,
			"componentType":5126,
			"count":20,
			"max":[
				30,
				30.000011444091797,
				1.9073486328125e-05
			],
			"min":[
				-30,
				-27.99999237060547,
				-21
			],
			"type":"VEC3"
		},
		{
			"bufferView":45,
			"componentType":5126,
			"count":20,
			"type":"VEC3"
		},
		{
			"bufferView":46,
			"componentType":5126,
			"count":20,
			"type":"VEC2"
		},
		{
			"bufferView":47,
			"componentType":5123,
			"count":30,
			"type":"SCALAR"
		},
		{
			"bufferView":48,
			"componentType":5126,
			"count":17,
			"max":[
				30,
				30.000011444091797,
				1.9073486328125e-05
			],
			"min":[
				-28,
				-29.999988555908203,
				-21
			],
			"type":"VEC3"
		},
		{
			"bufferView":49,
			"componentType":5126,
			"count":17,
			"type":"VEC3"
		},
		{
			"bufferView":50,
			"componentType":5126,
			"count":17,
			"type":"VEC2"
		},
		{
			"bufferView":51,
			"componentType":5123,
			"count":24,
			"type":"SCALAR"
		},
		{
			"bufferView":52,
			"componentType":5126,
			"count":16,
			"max":[
				28,
				30.000011444091797,
				1.9073486328125e-05
			],
			"min":[
				-30,
				-29.999988555908203,
				-21
			],
			"type":"VEC3"
		},
		{
			"bufferView":53,
			"componentType":5126,
			"count":16,
			"type":"VEC3"
		},
		{
			"bufferView":54,
			"componentType":5126,
			"count":16,
			"type":"VEC2"
		},
		{
			"bufferView":55,
			"componentType":5123,
			"count":24,
			"type":"SCALAR"
		},
		{
			"bufferView":56,
			"componentType":5126,
			"count":16,
			"max":[
				30,
				28.00002670288086,
				1.9073486328125e-05
			],
			"min":[
				-30,
				-29.999988555908203,
				-21
			],
			"type":"VEC3"
		},
		{
			"bufferView":57,
			"componentType":5126,
			"count":16,
			"type":"VEC3"
		},
		{
			"bufferView":58,
			"componentType":5126,
			"count":16,
			"type":"VEC2"
		},
		{
			"bufferView":59,
			"componentType":5123,
			"count":24,
			"type":"SCALAR"
		}
	],
	"bufferViews":[
		{
			"buffer":0,
			"byteLength":72,
			"byteOffset":0,
			"target":34962
		},
		{
			"buffer":0,
			"byteLength":72,
			"byteOffset":72,
			"target":34962
		},
		{
			"buffer":0,
			"byteLength":48,
			"byteOffset":144,
			"target":34962
		},
		{
			"buffer":0,
			"byteLength":24,
			"byteOffset":192,
			"target":34963
		},
		{
			"buffer":0,
			"byteLength":96,
			"byteOffset":216,
			"target":34962
		},
		{
			"buffer":0,
			"byteLength":96,
			"byteOffset":312,
			"target":34962
		},
		{
			"buffer":0,
			"byteLength":64,
			"byteOffset":408,
			"target":34962
		},
		{
			"buffer":0,
			"byteLength":24,
			"byteOffset":472,
			"target":34963
		},
		{
			"buffer":0,
			"byteLength":72,
			"byteOffset":496,
			"target":34962
		},
		{
			"buffer":0,
			"byteLength":72,
			"byteOffset":568,
			"target":34962
		},
		{
			"buffer":0,
			"byteLength":48,
			"byteOffset":640,
			"target":34962
		},
		{
			"buffer":0,
			"byteLength":24,
			"byteOffset":688,
			"target":34963
		},
		{
			"buffer":0,
			"byteLength":108,
			"byteOffset":712,
			"target":34962
		},
		{
			"buffer":0,
			"byteLength":108,
			"byteOffset":820,
			"target":34962
		},
		{
			"buffer":0,
			"byteLength":72,
			"byteOffset":928,
			"target":34962
		},
		{
			"buffer":0,
			"byteLength":54,
			"byteOffset":1000,
			"target":34963
		},
		{
			"buffer":0,
			"byteLength":72,
			"byteOffset":1056,
			"target":34962
		},
		{
			"buffer":0,
			"byteLength":72,
			"byteOffset":1128,
			"target":34962
		},
		{
			"buffer":0,
			"byteLength":48,
			"byteOffset":1200,
			"target":34962
		},
		{
			"buffer":0,
			"byteLength":12,
			"byteOffset":1248,
			"target":34963
		},
		{
			"buffer":0,
			"byteLength":48,
			"byteOffset":1260,
			"target":34962
		},
		{
			"buffer":0,
			"byteLength":48,
			"byteOffset":1308,
			"target":34962
		},
		{
			"buffer":0,
			"byteLength":32,
			"byteOffset":1356,
			"target":34962
		},
		{
			"buffer":0,
			"byteLength":12,
			"byteOffset":1388,
			"target":34963
		},
		{
			"buffer":0,
			"byteLength":84,
			"byteOffset":1400,
			"target":34962
		},
		{
			"buffer":0,
			"byteLength":84,
			"byteOffset":1484,
			"target":34962
		},
		{
			"buffer":0,
			"byteLength":56,
			"byteOffset":1568,
			"target":34962
		},
		{
			"buffer":0,
			"byteLength":18,
			"byteOffset":1624,
			"target":34963
		},
		{
			"buffer":0,
			"byteLength":72,
			"byteOffset":1644,
			"target":34962
		},
		{
			"buffer":0,
			"byteLength":72,
			"byteOffset":1716,
			"target":34962
		},
		{
			"buffer":0,
			"byteLength":48,
			"byteOffset":1788,
			"target":34962
		},
		{
			"buffer":0,
			"byteLength":24,
			"byteOffset":1836,
			"target":34963
		},
		{
			"buffer":0,
			"byteLength":72,
			"byteOffset":1860,
			"target":34962
		},
		{
			"buffer":0,
			"byteLength":72,
			"byteOffset":1932,
			"target":34962
		},
		{
			"buffer":0,
			"byteLength":48,
			"byteOffset":2004,
			"target":34962
		},
		{
			"buffer":0,
			"byteLength":24,
			"byteOffset":2052,
			"target":34963
		},
		{
			"buffer":0,
			"byteLength":72,
			"byteOffset":2076,
			"target":34962
		},
		{
			"buffer":0,
			"byteLength":72,
			"byteOffset":2148,
			"target":34962
		},
		{
			"buffer":0,
			"byteLength":48,
			"byteOffset":2220,
			"target":34962
		},
		{
			"buffer":0,
			"byteLength":24,
			"byteOffset":2268,
			"target":34963
		},
		{
			"buffer":0,
			"byteLength":72,
			"byteOffset":2292,
			"target":34962
		},
		{
			"buffer":0,
			"byteLength":72,
			"byteOffset":2364,
			"target":34962
		},
		{
			"buffer":0,
			"byteLength":48,
			"byteOffset":2436,
			"target":34962
		},
		{
			"buffer":0,
			"byteLength":24,
			"byteOffset":2484,
			"target":34963
		},
		{
			"buffer":0,
			"byteLength":240,
			"byteOffset":2508,
			"target":34962
		},
		{
			"buffer":0,
			"byteLength":240,
			"byteOffset":2748,
			"target":34962
		},
		{
			"buffer":0,
			"byteLength":160,
			"byteOffset":2988,
			"target":34962
		},
		{
			"buffer":0,
			"byteLength":60,
			"byteOffset":3148,
			"target":34963
		},
		{
			"buffer":0,
			"byteLength":204,
			"byteOffset":3208,
			"target":34962
		},
		{
			"buffer":0,
			"byteLength":204,
			"byteOffset":3412,
			"target":34962
		},
		{
			"buffer":0,
			"byteLength":136,
			"byteOffset":3616,
			"target":34962
		},
		{
			"buffer":0,
			"byteLength":48,
			"byteOffset":3752,
			"target":34963
		},
		{
			"buffer":0,
			"byteLength":192,
			"byteOffset":3800,
			"target":34962
		},
		{
			"buffer":0,
			"byteLength":192,
			"byteOffset":3992,
			"target":34962
		},
		{
			"buffer":0,
			"byteLength":128,
			"byteOffset":4184,
			"target":34962
		},
		{
			"buffer":0,
			"byteLength":48,
			"byteOffset":4312,
			"target":34963
		},
		{
			"buffer":0,
			"byteLength":192,
			"byteOffset":4360,
			"target":34962
		},
		{
			"buffer":0,
			"byteLength":192,
			"byteOffset":4552,
			"target":34962
		},
		{
			"buffer":0,
			"byteLength":128,
			"byteOffset":4744,
			"target":34962
		},
		{
			"buffer":0,
			"byteLength":48,
			"byteOffset":4872,
			"target":34963
		}
	],
	"samplers":[
		{
			"magFilter":9729,
			"minFilter":9987
		}
	],
	"buffers":[
		{
			"byteLength":4920,
			"uri":"plymouth.bin"
		}
	]
}
