{
    "asset" : {
        "generator" : "Khronos glTF Blender I/O v1.7.33",
        "version" : "2.0"
    },
    "scene" : 0,
    "scenes" : [
        {
            "name" : "Scene",
            "nodes" : [
                0
            ]
        }
    ],
    "nodes" : [
        {
            "mesh" : 0,
            "name" : "Maxis-3d2-mesh-0",
            "rotation" : [
                0.7071068286895752,
                0,
                0,
                0.7071067094802856
            ]
        }
    ],
    "materials" : [
        {
            "doubleSided" : true,
            "name" : "mat39-7",
            "pbrMetallicRoughness" : {
                "baseColorTexture" : {
                    "index" : 0
                },
                "metallicFactor" : 0
            }
        },
        {
            "doubleSided" : true,
            "name" : "mat39-4",
            "pbrMetallicRoughness" : {
                "baseColorTexture" : {
                    "index" : 1
                },
                "metallicFactor" : 0
            }
        },
        {
            "doubleSided" : true,
            "name" : "mat40-53.003",
            "pbrMetallicRoughness" : {
                "baseColorTexture" : {
                    "index" : 2
                },
                "metallicFactor" : 0
            }
        },
        {
            "doubleSided" : true,
            "name" : "mat40-52.002",
            "pbrMetallicRoughness" : {
                "baseColorTexture" : {
                    "index" : 3
                },
                "metallicFactor" : 0
            }
        },
        {
            "doubleSided" : true,
            "name" : "mat39-6",
            "pbrMetallicRoughness" : {
                "baseColorTexture" : {
                    "index" : 4
                },
                "metallicFactor" : 0
            }
        },
        {
            "doubleSided" : true,
            "name" : "mat39-5",
            "pbrMetallicRoughness" : {
                "baseColorTexture" : {
                    "index" : 5
                },
                "metallicFactor" : 0
            }
        },
        {
            "doubleSided" : true,
            "name" : "matcolour-128.002",
            "pbrMetallicRoughness" : {
                "baseColorFactor" : [
                    0.12156862765550613,
                    0.08235294371843338,
                    0.062745101749897,
                    1
                ],
                "metallicFactor" : 0
            }
        }
    ],
    "meshes" : [
        {
            "name" : "Maxis-3d2-mesh-0",
            "primitives" : [
                {
                    "attributes" : {
                        "POSITION" : 0,
                        "NORMAL" : 1,
                        "TEXCOORD_0" : 2
                    },
                    "indices" : 3,
                    "material" : 0
                },
                {
                    "attributes" : {
                        "POSITION" : 4,
                        "NORMAL" : 5,
                        "TEXCOORD_0" : 6
                    },
                    "indices" : 7,
                    "material" : 1
                },
                {
                    "attributes" : {
                        "POSITION" : 8,
                        "NORMAL" : 9,
                        "TEXCOORD_0" : 10
                    },
                    "indices" : 11,
                    "material" : 2
                },
                {
                    "attributes" : {
                        "POSITION" : 12,
                        "NORMAL" : 13,
                        "TEXCOORD_0" : 14
                    },
                    "indices" : 11,
                    "material" : 3
                },
                {
                    "attributes" : {
                        "POSITION" : 15,
                        "NORMAL" : 16,
                        "TEXCOORD_0" : 17
                    },
                    "indices" : 18,
                    "material" : 4
                },
                {
                    "attributes" : {
                        "POSITION" : 19,
                        "NORMAL" : 20,
                        "TEXCOORD_0" : 21
                    },
                    "indices" : 22,
                    "material" : 5
                },
                {
                    "attributes" : {
                        "POSITION" : 23,
                        "NORMAL" : 24,
                        "TEXCOORD_0" : 25
                    },
                    "indices" : 26,
                    "material" : 6
                }
            ]
        }
    ],
    "textures" : [
        {
            "sampler" : 0,
            "source" : 0
        },
        {
            "sampler" : 0,
            "source" : 1
        },
        {
            "sampler" : 0,
            "source" : 2
        },
        {
            "sampler" : 0,
            "source" : 3
        },
        {
            "sampler" : 0,
            "source" : 4
        },
        {
            "sampler" : 0,
            "source" : 5
        }
    ],
    "images" : [
        {
            "mimeType" : "image/png",
            "name" : "tex39-7",
            "uri" : "../../../Textures/tex39-7.png"
        },
        {
            "mimeType" : "image/png",
            "name" : "tex39-4",
            "uri" : "../../../Textures/tex39-4.png"
        },
        {
            "mimeType" : "image/png",
            "name" : "tex40-53",
            "uri" : "../../../Textures/tex40-53.png"
        },
        {
            "mimeType" : "image/png",
            "name" : "tex40-52",
            "uri" : "../../../Textures/tex40-52.png"
        },
        {
            "mimeType" : "image/png",
            "name" : "tex39-6",
            "uri" : "../../../Textures/tex39-6.png"
        },
        {
            "mimeType" : "image/png",
            "name" : "tex39-5",
            "uri" : "../../../Textures/tex39-5.png"
        }
    ],
    "accessors" : [
        {
            "bufferView" : 0,
            "componentType" : 5126,
            "count" : 4,
            "max" : [
                7.314998626708984,
                5.164478302001953,
                0
            ],
            "min" : [
                -7.314998626708984,
                5.164478302001953,
                -6.30120849609375
            ],
            "type" : "VEC3"
        },
        {
            "bufferView" : 1,
            "componentType" : 5126,
            "count" : 4,
            "type" : "VEC3"
        },
        {
            "bufferView" : 2,
            "componentType" : 5126,
            "count" : 4,
            "type" : "VEC2"
        },
        {
            "bufferView" : 3,
            "componentType" : 5123,
            "count" : 6,
            "type" : "SCALAR"
        },
        {
            "bufferView" : 4,
            "componentType" : 5126,
            "count" : 6,
            "max" : [
                7.314998626708984,
                -5.677391052246094,
                0
            ],
            "min" : [
                -7.314998626708984,
                -5.677394866943359,
                -6.301204681396484
            ],
            "type" : "VEC3"
        },
        {
            "bufferView" : 5,
            "componentType" : 5126,
            "count" : 6,
            "type" : "VEC3"
        },
        {
            "bufferView" : 6,
            "componentType" : 5126,
            "count" : 6,
            "type" : "VEC2"
        },
        {
            "bufferView" : 7,
            "componentType" : 5123,
            "count" : 6,
            "type" : "SCALAR"
        },
        {
            "bufferView" : 8,
            "componentType" : 5126,
            "count" : 3,
            "max" : [
                7.314998626708984,
                5.164478302001953,
                -6.30120849609375
            ],
            "min" : [
                -7.314998626708984,
                5.1644744873046875,
                -11.52621078491211
            ],
            "type" : "VEC3"
        },
        {
            "bufferView" : 9,
            "componentType" : 5126,
            "count" : 3,
            "type" : "VEC3"
        },
        {
            "bufferView" : 10,
            "componentType" : 5126,
            "count" : 3,
            "type" : "VEC2"
        },
        {
            "bufferView" : 11,
            "componentType" : 5123,
            "count" : 3,
            "type" : "SCALAR"
        },
        {
            "bufferView" : 12,
            "componentType" : 5126,
            "count" : 3,
            "max" : [
                7.314998626708984,
                -5.677394866943359,
                -6.301204681396484
            ],
            "min" : [
                -7.314998626708984,
                -5.677398681640625,
                -11.52621078491211
            ],
            "type" : "VEC3"
        },
        {
            "bufferView" : 13,
            "componentType" : 5126,
            "count" : 3,
            "type" : "VEC3"
        },
        {
            "bufferView" : 14,
            "componentType" : 5126,
            "count" : 3,
            "type" : "VEC2"
        },
        {
            "bufferView" : 15,
            "componentType" : 5126,
            "count" : 6,
            "max" : [
                7.314998626708984,
                5.164478302001953,
                0
            ],
            "min" : [
                7.314998626708984,
                -5.677394866943359,
                -6.30120849609375
            ],
            "type" : "VEC3"
        },
        {
            "bufferView" : 16,
            "componentType" : 5126,
            "count" : 6,
            "type" : "VEC3"
        },
        {
            "bufferView" : 17,
            "componentType" : 5126,
            "count" : 6,
            "type" : "VEC2"
        },
        {
            "bufferView" : 18,
            "componentType" : 5123,
            "count" : 6,
            "type" : "SCALAR"
        },
        {
            "bufferView" : 19,
            "componentType" : 5126,
            "count" : 4,
            "max" : [
                -7.314998626708984,
                5.164478302001953,
                0
            ],
            "min" : [
                -7.314998626708984,
                -5.677394866943359,
                -6.30120849609375
            ],
            "type" : "VEC3"
        },
        {
            "bufferView" : 20,
            "componentType" : 5126,
            "count" : 4,
            "type" : "VEC3"
        },
        {
            "bufferView" : 21,
            "componentType" : 5126,
            "count" : 4,
            "type" : "VEC2"
        },
        {
            "bufferView" : 22,
            "componentType" : 5123,
            "count" : 6,
            "type" : "SCALAR"
        },
        {
            "bufferView" : 23,
            "componentType" : 5126,
            "count" : 12,
            "max" : [
                7.314998626708984,
                5.164478302001953,
                -6.301204681396484
            ],
            "min" : [
                -7.314998626708984,
                -5.677398681640625,
                -11.52621078491211
            ],
            "type" : "VEC3"
        },
        {
            "bufferView" : 24,
            "componentType" : 5126,
            "count" : 12,
            "type" : "VEC3"
        },
        {
            "bufferView" : 25,
            "componentType" : 5126,
            "count" : 12,
            "type" : "VEC2"
        },
        {
            "bufferView" : 26,
            "componentType" : 5123,
            "count" : 12,
            "type" : "SCALAR"
        }
    ],
    "bufferViews" : [
        {
            "buffer" : 0,
            "byteLength" : 48,
            "byteOffset" : 0
        },
        {
            "buffer" : 0,
            "byteLength" : 48,
            "byteOffset" : 48
        },
        {
            "buffer" : 0,
            "byteLength" : 32,
            "byteOffset" : 96
        },
        {
            "buffer" : 0,
            "byteLength" : 12,
            "byteOffset" : 128
        },
        {
            "buffer" : 0,
            "byteLength" : 72,
            "byteOffset" : 140
        },
        {
            "buffer" : 0,
            "byteLength" : 72,
            "byteOffset" : 212
        },
        {
            "buffer" : 0,
            "byteLength" : 48,
            "byteOffset" : 284
        },
        {
            "buffer" : 0,
            "byteLength" : 12,
            "byteOffset" : 332
        },
        {
            "buffer" : 0,
            "byteLength" : 36,
            "byteOffset" : 344
        },
        {
            "buffer" : 0,
            "byteLength" : 36,
            "byteOffset" : 380
        },
        {
            "buffer" : 0,
            "byteLength" : 24,
            "byteOffset" : 416
        },
        {
            "buffer" : 0,
            "byteLength" : 6,
            "byteOffset" : 440
        },
        {
            "buffer" : 0,
            "byteLength" : 36,
            "byteOffset" : 448
        },
        {
            "buffer" : 0,
            "byteLength" : 36,
            "byteOffset" : 484
        },
        {
            "buffer" : 0,
            "byteLength" : 24,
            "byteOffset" : 520
        },
        {
            "buffer" : 0,
            "byteLength" : 72,
            "byteOffset" : 544
        },
        {
            "buffer" : 0,
            "byteLength" : 72,
            "byteOffset" : 616
        },
        {
            "buffer" : 0,
            "byteLength" : 48,
            "byteOffset" : 688
        },
        {
            "buffer" : 0,
            "byteLength" : 12,
            "byteOffset" : 736
        },
        {
            "buffer" : 0,
            "byteLength" : 48,
            "byteOffset" : 748
        },
        {
            "buffer" : 0,
            "byteLength" : 48,
            "byteOffset" : 796
        },
        {
            "buffer" : 0,
            "byteLength" : 32,
            "byteOffset" : 844
        },
        {
            "buffer" : 0,
            "byteLength" : 12,
            "byteOffset" : 876
        },
        {
            "buffer" : 0,
            "byteLength" : 144,
            "byteOffset" : 888
        },
        {
            "buffer" : 0,
            "byteLength" : 144,
            "byteOffset" : 1032
        },
        {
            "buffer" : 0,
            "byteLength" : 96,
            "byteOffset" : 1176
        },
        {
            "buffer" : 0,
            "byteLength" : 24,
            "byteOffset" : 1272
        }
    ],
    "samplers" : [
        {
            "magFilter" : 9729,
            "minFilter" : 9987
        }
    ],
    "buffers" : [
        {
            "byteLength" : 1296,
            "uri" : "small_1.bin"
        }
    ]
}
