{
    "asset" : {
        "generator" : "Khronos glTF Blender I/O v1.7.33",
        "version" : "2.0"
    },
    "scene" : 0,
    "scenes" : [
        {
            "name" : "Scene",
            "nodes" : [
                0
            ]
        }
    ],
    "nodes" : [
        {
            "mesh" : 0,
            "name" : "Maxis-3d3-mesh-29",
            "rotation" : [
                0.7071068286895752,
                0,
                0,
                0.7071067094802856
            ]
        }
    ],
    "materials" : [
        {
            "doubleSided" : true,
            "name" : "mat40-52.003",
            "pbrMetallicRoughness" : {
                "baseColorTexture" : {
                    "index" : 0
                },
                "metallicFactor" : 0
            }
        },
        {
            "doubleSided" : true,
            "name" : "mat40-55.003",
            "pbrMetallicRoughness" : {
                "baseColorTexture" : {
                    "index" : 1
                },
                "metallicFactor" : 0
            }
        },
        {
            "doubleSided" : true,
            "name" : "mat39-13",
            "pbrMetallicRoughness" : {
                "baseColorTexture" : {
                    "index" : 2
                },
                "metallicFactor" : 0
            }
        },
        {
            "doubleSided" : true,
            "name" : "mat40-54.003",
            "pbrMetallicRoughness" : {
                "baseColorTexture" : {
                    "index" : 3
                },
                "metallicFactor" : 0
            }
        },
        {
            "doubleSided" : true,
            "name" : "matcolour-48.007",
            "pbrMetallicRoughness" : {
                "baseColorFactor" : [
                    0.05882352963089943,
                    0.05882352963089943,
                    0.05882352963089943,
                    1
                ],
                "metallicFactor" : 0
            }
        },
        {
            "doubleSided" : true,
            "name" : "mat39-30",
            "pbrMetallicRoughness" : {
                "baseColorTexture" : {
                    "index" : 4
                },
                "metallicFactor" : 0
            }
        },
        {
            "doubleSided" : true,
            "name" : "mat39-59",
            "pbrMetallicRoughness" : {
                "baseColorTexture" : {
                    "index" : 5
                },
                "metallicFactor" : 0
            }
        },
        {
            "doubleSided" : true,
            "name" : "mat39-58",
            "pbrMetallicRoughness" : {
                "baseColorTexture" : {
                    "index" : 6
                },
                "metallicFactor" : 0
            }
        },
        {
            "doubleSided" : true,
            "name" : "mat40-22.001",
            "pbrMetallicRoughness" : {
                "baseColorTexture" : {
                    "index" : 7
                },
                "metallicFactor" : 0
            }
        },
        {
            "doubleSided" : true,
            "name" : "mat39-62",
            "pbrMetallicRoughness" : {
                "baseColorTexture" : {
                    "index" : 8
                },
                "metallicFactor" : 0
            }
        },
        {
            "doubleSided" : true,
            "name" : "mat39-60",
            "pbrMetallicRoughness" : {
                "baseColorTexture" : {
                    "index" : 9
                },
                "metallicFactor" : 0
            }
        }
    ],
    "meshes" : [
        {
            "name" : "Maxis-3d3-mesh-29",
            "primitives" : [
                {
                    "attributes" : {
                        "POSITION" : 0,
                        "NORMAL" : 1,
                        "TEXCOORD_0" : 2
                    },
                    "indices" : 3,
                    "material" : 0
                },
                {
                    "attributes" : {
                        "POSITION" : 4,
                        "NORMAL" : 5,
                        "TEXCOORD_0" : 6
                    },
                    "indices" : 7,
                    "material" : 1
                },
                {
                    "attributes" : {
                        "POSITION" : 8,
                        "NORMAL" : 9,
                        "TEXCOORD_0" : 10
                    },
                    "indices" : 11,
                    "material" : 2
                },
                {
                    "attributes" : {
                        "POSITION" : 12,
                        "NORMAL" : 13,
                        "TEXCOORD_0" : 14
                    },
                    "indices" : 15,
                    "material" : 3
                },
                {
                    "attributes" : {
                        "POSITION" : 16,
                        "NORMAL" : 17,
                        "TEXCOORD_0" : 18
                    },
                    "indices" : 19,
                    "material" : 4
                },
                {
                    "attributes" : {
                        "POSITION" : 20,
                        "NORMAL" : 21,
                        "TEXCOORD_0" : 22
                    },
                    "indices" : 23,
                    "material" : 5
                },
                {
                    "attributes" : {
                        "POSITION" : 24,
                        "NORMAL" : 25,
                        "TEXCOORD_0" : 26
                    },
                    "indices" : 27,
                    "material" : 6
                },
                {
                    "attributes" : {
                        "POSITION" : 28,
                        "NORMAL" : 29,
                        "TEXCOORD_0" : 30
                    },
                    "indices" : 31,
                    "material" : 7
                },
                {
                    "attributes" : {
                        "POSITION" : 32,
                        "NORMAL" : 33,
                        "TEXCOORD_0" : 34
                    },
                    "indices" : 35,
                    "material" : 8
                },
                {
                    "attributes" : {
                        "POSITION" : 36,
                        "NORMAL" : 37,
                        "TEXCOORD_0" : 38
                    },
                    "indices" : 39,
                    "material" : 9
                },
                {
                    "attributes" : {
                        "POSITION" : 40,
                        "NORMAL" : 41,
                        "TEXCOORD_0" : 42
                    },
                    "indices" : 43,
                    "material" : 10
                }
            ]
        }
    ],
    "textures" : [
        {
            "sampler" : 0,
            "source" : 0
        },
        {
            "sampler" : 0,
            "source" : 1
        },
        {
            "sampler" : 0,
            "source" : 2
        },
        {
            "sampler" : 0,
            "source" : 3
        },
        {
            "sampler" : 0,
            "source" : 4
        },
        {
            "sampler" : 0,
            "source" : 5
        },
        {
            "sampler" : 0,
            "source" : 6
        },
        {
            "sampler" : 0,
            "source" : 7
        },
        {
            "sampler" : 0,
            "source" : 8
        },
        {
            "sampler" : 0,
            "source" : 9
        }
    ],
    "images" : [
        {
            "mimeType" : "image/png",
            "name" : "tex40-52",
            "uri" : "../../../Textures/tex40-52.png"
        },
        {
            "mimeType" : "image/png",
            "name" : "tex40-55",
            "uri" : "../../../Textures/tex40-55.png"
        },
        {
            "mimeType" : "image/png",
            "name" : "tex39-13",
            "uri" : "../../../Textures/tex39-13.png"
        },
        {
            "mimeType" : "image/png",
            "name" : "tex40-54",
            "uri" : "../../../Textures/tex40-54.png"
        },
        {
            "mimeType" : "image/png",
            "name" : "tex39-30",
            "uri" : "../../../Textures/tex39-30.png"
        },
        {
            "mimeType" : "image/png",
            "name" : "tex39-59",
            "uri" : "../../../Textures/tex39-59.png"
        },
        {
            "mimeType" : "image/png",
            "name" : "tex39-58",
            "uri" : "../../../Textures/tex39-58.png"
        },
        {
            "mimeType" : "image/png",
            "name" : "tex40-22",
            "uri" : "../../../Textures/tex40-22.png"
        },
        {
            "mimeType" : "image/png",
            "name" : "tex39-62",
            "uri" : "../../../Textures/tex39-62.png"
        },
        {
            "mimeType" : "image/png",
            "name" : "tex39-60",
            "uri" : "../../../Textures/tex39-60.png"
        }
    ],
    "accessors" : [
        {
            "bufferView" : 0,
            "componentType" : 5126,
            "count" : 9,
            "max" : [
                7.945598602294922,
                -8.016777038574219,
                0
            ],
            "min" : [
                -7.370876312255859,
                -8.016777038574219,
                -7.7388458251953125
            ],
            "type" : "VEC3"
        },
        {
            "bufferView" : 1,
            "componentType" : 5126,
            "count" : 9,
            "type" : "VEC3"
        },
        {
            "bufferView" : 2,
            "componentType" : 5126,
            "count" : 9,
            "type" : "VEC2"
        },
        {
            "bufferView" : 3,
            "componentType" : 5123,
            "count" : 9,
            "type" : "SCALAR"
        },
        {
            "bufferView" : 4,
            "componentType" : 5126,
            "count" : 21,
            "max" : [
                7.945598602294922,
                5.526210784912109,
                0
            ],
            "min" : [
                -7.370876312255859,
                5.526206970214844,
                -7.738849639892578
            ],
            "type" : "VEC3"
        },
        {
            "bufferView" : 5,
            "componentType" : 5126,
            "count" : 21,
            "type" : "VEC3"
        },
        {
            "bufferView" : 6,
            "componentType" : 5126,
            "count" : 21,
            "type" : "VEC2"
        },
        {
            "bufferView" : 7,
            "componentType" : 5123,
            "count" : 21,
            "type" : "SCALAR"
        },
        {
            "bufferView" : 8,
            "componentType" : 5126,
            "count" : 6,
            "max" : [
                -7.370876312255859,
                5.526210784912109,
                0
            ],
            "min" : [
                -7.370876312255859,
                -8.016777038574219,
                -4.675556182861328
            ],
            "type" : "VEC3"
        },
        {
            "bufferView" : 9,
            "componentType" : 5126,
            "count" : 6,
            "type" : "VEC3"
        },
        {
            "bufferView" : 10,
            "componentType" : 5126,
            "count" : 6,
            "type" : "VEC2"
        },
        {
            "bufferView" : 11,
            "componentType" : 5123,
            "count" : 6,
            "type" : "SCALAR"
        },
        {
            "bufferView" : 12,
            "componentType" : 5126,
            "count" : 30,
            "max" : [
                7.945598602294922,
                5.526210784912109,
                0
            ],
            "min" : [
                7.945598602294922,
                -8.016777038574219,
                -3.2245216369628906
            ],
            "type" : "VEC3"
        },
        {
            "bufferView" : 13,
            "componentType" : 5126,
            "count" : 30,
            "type" : "VEC3"
        },
        {
            "bufferView" : 14,
            "componentType" : 5126,
            "count" : 30,
            "type" : "VEC2"
        },
        {
            "bufferView" : 15,
            "componentType" : 5123,
            "count" : 36,
            "type" : "SCALAR"
        },
        {
            "bufferView" : 16,
            "componentType" : 5126,
            "count" : 13,
            "max" : [
                7.945598602294922,
                5.526416778564453,
                -3.224517822265625
            ],
            "min" : [
                -7.370876312255859,
                -8.016777038574219,
                -7.738849639892578
            ],
            "type" : "VEC3"
        },
        {
            "bufferView" : 17,
            "componentType" : 5126,
            "count" : 13,
            "type" : "VEC3"
        },
        {
            "bufferView" : 18,
            "componentType" : 5126,
            "count" : 13,
            "type" : "VEC2"
        },
        {
            "bufferView" : 19,
            "componentType" : 5123,
            "count" : 15,
            "type" : "SCALAR"
        },
        {
            "bufferView" : 20,
            "componentType" : 5126,
            "count" : 6,
            "max" : [
                3.914947509765625,
                7.6221466064453125,
                0
            ],
            "min" : [
                -6.2422943115234375,
                5.526206970214844,
                -4.836780548095703
            ],
            "type" : "VEC3"
        },
        {
            "bufferView" : 21,
            "componentType" : 5126,
            "count" : 6,
            "type" : "VEC3"
        },
        {
            "bufferView" : 22,
            "componentType" : 5126,
            "count" : 6,
            "type" : "VEC2"
        },
        {
            "bufferView" : 23,
            "componentType" : 5123,
            "count" : 6,
            "type" : "SCALAR"
        },
        {
            "bufferView" : 24,
            "componentType" : 5126,
            "count" : 6,
            "max" : [
                3.914947509765625,
                7.6221466064453125,
                0
            ],
            "min" : [
                3.914947509765625,
                5.526210784912109,
                -4.836780548095703
            ],
            "type" : "VEC3"
        },
        {
            "bufferView" : 25,
            "componentType" : 5126,
            "count" : 6,
            "type" : "VEC3"
        },
        {
            "bufferView" : 26,
            "componentType" : 5126,
            "count" : 6,
            "type" : "VEC2"
        },
        {
            "bufferView" : 27,
            "componentType" : 5123,
            "count" : 6,
            "type" : "SCALAR"
        },
        {
            "bufferView" : 28,
            "componentType" : 5126,
            "count" : 3,
            "max" : [
                -6.2422943115234375,
                7.6221466064453125,
                0
            ],
            "min" : [
                -6.2422943115234375,
                5.526206970214844,
                -4.836780548095703
            ],
            "type" : "VEC3"
        },
        {
            "bufferView" : 29,
            "componentType" : 5126,
            "count" : 3,
            "type" : "VEC3"
        },
        {
            "bufferView" : 30,
            "componentType" : 5126,
            "count" : 3,
            "type" : "VEC2"
        },
        {
            "bufferView" : 31,
            "componentType" : 5123,
            "count" : 3,
            "type" : "SCALAR"
        },
        {
            "bufferView" : 32,
            "componentType" : 5126,
            "count" : 14,
            "max" : [
                7.945598602294922,
                4.5588531494140625,
                0
            ],
            "min" : [
                7.945598602294922,
                -7.0494232177734375,
                -3.06329345703125
            ],
            "type" : "VEC3"
        },
        {
            "bufferView" : 33,
            "componentType" : 5126,
            "count" : 14,
            "type" : "VEC3"
        },
        {
            "bufferView" : 34,
            "componentType" : 5126,
            "count" : 14,
            "type" : "VEC2"
        },
        {
            "bufferView" : 35,
            "componentType" : 5123,
            "count" : 18,
            "type" : "SCALAR"
        },
        {
            "bufferView" : 36,
            "componentType" : 5126,
            "count" : 36,
            "max" : [
                8.429275512695312,
                5.364982604980469,
                0
            ],
            "min" : [
                7.945598602294922,
                -7.855552673339844,
                -3.06329345703125
            ],
            "type" : "VEC3"
        },
        {
            "bufferView" : 37,
            "componentType" : 5126,
            "count" : 36,
            "type" : "VEC3"
        },
        {
            "bufferView" : 38,
            "componentType" : 5126,
            "count" : 36,
            "type" : "VEC2"
        },
        {
            "bufferView" : 39,
            "componentType" : 5123,
            "count" : 36,
            "type" : "SCALAR"
        },
        {
            "bufferView" : 40,
            "componentType" : 5126,
            "count" : 12,
            "max" : [
                8.429275512695312,
                4.5588531494140625,
                0
            ],
            "min" : [
                7.945598602294922,
                -7.855552673339844,
                -3.06329345703125
            ],
            "type" : "VEC3"
        },
        {
            "bufferView" : 41,
            "componentType" : 5126,
            "count" : 12,
            "type" : "VEC3"
        },
        {
            "bufferView" : 42,
            "componentType" : 5126,
            "count" : 12,
            "type" : "VEC2"
        },
        {
            "bufferView" : 43,
            "componentType" : 5123,
            "count" : 12,
            "type" : "SCALAR"
        }
    ],
    "bufferViews" : [
        {
            "buffer" : 0,
            "byteLength" : 108,
            "byteOffset" : 0
        },
        {
            "buffer" : 0,
            "byteLength" : 108,
            "byteOffset" : 108
        },
        {
            "buffer" : 0,
            "byteLength" : 72,
            "byteOffset" : 216
        },
        {
            "buffer" : 0,
            "byteLength" : 18,
            "byteOffset" : 288
        },
        {
            "buffer" : 0,
            "byteLength" : 252,
            "byteOffset" : 308
        },
        {
            "buffer" : 0,
            "byteLength" : 252,
            "byteOffset" : 560
        },
        {
            "buffer" : 0,
            "byteLength" : 168,
            "byteOffset" : 812
        },
        {
            "buffer" : 0,
            "byteLength" : 42,
            "byteOffset" : 980
        },
        {
            "buffer" : 0,
            "byteLength" : 72,
            "byteOffset" : 1024
        },
        {
            "buffer" : 0,
            "byteLength" : 72,
            "byteOffset" : 1096
        },
        {
            "buffer" : 0,
            "byteLength" : 48,
            "byteOffset" : 1168
        },
        {
            "buffer" : 0,
            "byteLength" : 12,
            "byteOffset" : 1216
        },
        {
            "buffer" : 0,
            "byteLength" : 360,
            "byteOffset" : 1228
        },
        {
            "buffer" : 0,
            "byteLength" : 360,
            "byteOffset" : 1588
        },
        {
            "buffer" : 0,
            "byteLength" : 240,
            "byteOffset" : 1948
        },
        {
            "buffer" : 0,
            "byteLength" : 72,
            "byteOffset" : 2188
        },
        {
            "buffer" : 0,
            "byteLength" : 156,
            "byteOffset" : 2260
        },
        {
            "buffer" : 0,
            "byteLength" : 156,
            "byteOffset" : 2416
        },
        {
            "buffer" : 0,
            "byteLength" : 104,
            "byteOffset" : 2572
        },
        {
            "buffer" : 0,
            "byteLength" : 30,
            "byteOffset" : 2676
        },
        {
            "buffer" : 0,
            "byteLength" : 72,
            "byteOffset" : 2708
        },
        {
            "buffer" : 0,
            "byteLength" : 72,
            "byteOffset" : 2780
        },
        {
            "buffer" : 0,
            "byteLength" : 48,
            "byteOffset" : 2852
        },
        {
            "buffer" : 0,
            "byteLength" : 12,
            "byteOffset" : 2900
        },
        {
            "buffer" : 0,
            "byteLength" : 72,
            "byteOffset" : 2912
        },
        {
            "buffer" : 0,
            "byteLength" : 72,
            "byteOffset" : 2984
        },
        {
            "buffer" : 0,
            "byteLength" : 48,
            "byteOffset" : 3056
        },
        {
            "buffer" : 0,
            "byteLength" : 12,
            "byteOffset" : 3104
        },
        {
            "buffer" : 0,
            "byteLength" : 36,
            "byteOffset" : 3116
        },
        {
            "buffer" : 0,
            "byteLength" : 36,
            "byteOffset" : 3152
        },
        {
            "buffer" : 0,
            "byteLength" : 24,
            "byteOffset" : 3188
        },
        {
            "buffer" : 0,
            "byteLength" : 6,
            "byteOffset" : 3212
        },
        {
            "buffer" : 0,
            "byteLength" : 168,
            "byteOffset" : 3220
        },
        {
            "buffer" : 0,
            "byteLength" : 168,
            "byteOffset" : 3388
        },
        {
            "buffer" : 0,
            "byteLength" : 112,
            "byteOffset" : 3556
        },
        {
            "buffer" : 0,
            "byteLength" : 36,
            "byteOffset" : 3668
        },
        {
            "buffer" : 0,
            "byteLength" : 432,
            "byteOffset" : 3704
        },
        {
            "buffer" : 0,
            "byteLength" : 432,
            "byteOffset" : 4136
        },
        {
            "buffer" : 0,
            "byteLength" : 288,
            "byteOffset" : 4568
        },
        {
            "buffer" : 0,
            "byteLength" : 72,
            "byteOffset" : 4856
        },
        {
            "buffer" : 0,
            "byteLength" : 144,
            "byteOffset" : 4928
        },
        {
            "buffer" : 0,
            "byteLength" : 144,
            "byteOffset" : 5072
        },
        {
            "buffer" : 0,
            "byteLength" : 96,
            "byteOffset" : 5216
        },
        {
            "buffer" : 0,
            "byteLength" : 24,
            "byteOffset" : 5312
        }
    ],
    "samplers" : [
        {
            "magFilter" : 9729,
            "minFilter" : 9987
        }
    ],
    "buffers" : [
        {
            "byteLength" : 5336,
            "uri" : "small_2.bin"
        }
    ]
}
