{
	"asset":{
		"generator":"Khronos glTF Blender I/O v4.3.47",
		"version":"2.0"
	},
	"scene":0,
	"scenes":[
		{
			"name":"Scene",
			"nodes":[
				0,
				1
			]
		}
	],
	"nodes":[
		{
			"mesh":0,
			"name":"Maxis-3d3-mesh-58",
			"rotation":[
				0.70710688829422,
				0,
				0,
				0.7071066498756409
			]
		},
		{
			"extras":{
				"gd_node":"Decal",
				"lower_fade":9,
				"upper_fade":10
			},
			"mesh":1,
			"name":"Ground_AO",
			"scale":[
				58.59223556518555,
				1,
				56.58782958984375
			],
			"translation":[
				-0.07526969909667969,
				-0.8041301965713501,
				-3.500704765319824
			]
		}
	],
	"materials":[
		{
			"name":"matcolour-48",
			"occlusionTexture":{
				"index":0,
				"texCoord":1
			},
			"pbrMetallicRoughness":{
				"baseColorFactor":[
					0.05882352963089943,
					0.05882352963089943,
					0.05882352963089943,
					1
				],
				"metallicFactor":0
			}
		},
		{
			"name":"matcolour-80",
			"occlusionTexture":{
				"index":1,
				"texCoord":1
			},
			"pbrMetallicRoughness":{
				"baseColorFactor":[
					0.18431372940540314,
					0.14509804546833038,
					0.03921568766236305,
					1
				],
				"metallicFactor":0
			}
		},
		{
			"name":"mat40-39",
			"occlusionTexture":{
				"index":2,
				"texCoord":1
			},
			"pbrMetallicRoughness":{
				"baseColorTexture":{
					"index":3
				},
				"metallicFactor":0
			}
		},
		{
			"name":"mat2-43",
			"occlusionTexture":{
				"index":4,
				"texCoord":1
			},
			"pbrMetallicRoughness":{
				"baseColorTexture":{
					"index":5
				},
				"metallicFactor":0
			}
		},
		{
			"name":"mat40-60",
			"occlusionTexture":{
				"index":6,
				"texCoord":1
			},
			"pbrMetallicRoughness":{
				"baseColorTexture":{
					"index":7
				},
				"metallicFactor":0
			}
		},
		{
			"name":"mat40-22",
			"occlusionTexture":{
				"index":8,
				"texCoord":1
			},
			"pbrMetallicRoughness":{
				"baseColorTexture":{
					"index":9
				},
				"metallicFactor":0
			}
		},
		{
			"name":"Ground_AO",
			"occlusionTexture":{
				"index":10
			},
			"pbrMetallicRoughness":{
				"baseColorFactor":[
					0.800000011920929,
					0.800000011920929,
					0.800000011920929,
					1
				],
				"metallicFactor":0,
				"roughnessFactor":0.5
			}
		}
	],
	"meshes":[
		{
			"name":"Maxis-3d3-mesh-58",
			"primitives":[
				{
					"attributes":{
						"POSITION":0,
						"NORMAL":1,
						"TEXCOORD_0":2,
						"TEXCOORD_1":3
					},
					"indices":4,
					"material":0
				},
				{
					"attributes":{
						"POSITION":5,
						"NORMAL":6,
						"TEXCOORD_0":7,
						"TEXCOORD_1":8
					},
					"indices":9,
					"material":1
				},
				{
					"attributes":{
						"POSITION":10,
						"NORMAL":11,
						"TEXCOORD_0":12,
						"TEXCOORD_1":13
					},
					"indices":14,
					"material":2
				},
				{
					"attributes":{
						"POSITION":15,
						"NORMAL":16,
						"TEXCOORD_0":17,
						"TEXCOORD_1":18
					},
					"indices":19,
					"material":3
				},
				{
					"attributes":{
						"POSITION":20,
						"NORMAL":21,
						"TEXCOORD_0":22,
						"TEXCOORD_1":23
					},
					"indices":24,
					"material":4
				},
				{
					"attributes":{
						"POSITION":25,
						"NORMAL":26,
						"TEXCOORD_0":27,
						"TEXCOORD_1":28
					},
					"indices":29,
					"material":5
				}
			]
		},
		{
			"name":"Plane",
			"primitives":[
				{
					"attributes":{
						"POSITION":30,
						"NORMAL":31,
						"TEXCOORD_0":32
					},
					"indices":33,
					"material":6
				}
			]
		}
	],
	"textures":[
		{
			"sampler":0,
			"source":0
		},
		{
			"sampler":0,
			"source":0
		},
		{
			"sampler":0,
			"source":0
		},
		{
			"sampler":0,
			"source":1
		},
		{
			"sampler":0,
			"source":0
		},
		{
			"sampler":0,
			"source":2
		},
		{
			"sampler":0,
			"source":0
		},
		{
			"sampler":0,
			"source":3
		},
		{
			"sampler":0,
			"source":0
		},
		{
			"sampler":0,
			"source":4
		},
		{
			"sampler":0,
			"source":5
		}
	],
	"images":[
		{
			"mimeType":"image/png",
			"name":"microwave.png",
			"uri":"../../../Textures/ambient_occlusion/Buildings/Powerplant/microwave.png"
		},
		{
			"mimeType":"image/png",
			"name":"tex40-39",
			"uri":"../../../Textures/tex40-39.png"
		},
		{
			"mimeType":"image/png",
			"name":"tex2-43",
			"uri":"../../../Textures/tex2-43.png"
		},
		{
			"mimeType":"image/png",
			"name":"tex40-60",
			"uri":"../../../Textures/tex40-60.png"
		},
		{
			"mimeType":"image/png",
			"name":"tex40-22",
			"uri":"../../../Textures/tex40-22.png"
		},
		{
			"mimeType":"image/png",
			"name":"microwave_ground.png",
			"uri":"../../../Textures/ambient_occlusion/Buildings/Powerplant/microwave_ground.png"
		}
	],
	"accessors":[
		{
			"bufferView":0,
			"componentType":5126,
			"count":455,
			"max":[
				23.938579559326172,
				19.606433868408203,
				0.8041229248046875
			],
			"min":[
				-25.727657318115234,
				-29.19970703125,
				-39.1458625793457
			],
			"type":"VEC3"
		},
		{
			"bufferView":1,
			"componentType":5126,
			"count":455,
			"type":"VEC3"
		},
		{
			"bufferView":2,
			"componentType":5126,
			"count":455,
			"type":"VEC2"
		},
		{
			"bufferView":3,
			"componentType":5126,
			"count":455,
			"type":"VEC2"
		},
		{
			"bufferView":4,
			"componentType":5123,
			"count":642,
			"type":"SCALAR"
		},
		{
			"bufferView":5,
			"componentType":5126,
			"count":136,
			"max":[
				28.720848083496094,
				24.293197631835938,
				-18.277313232421875
			],
			"min":[
				-28.871387481689453,
				-31.294620513916016,
				-43.75157165527344
			],
			"type":"VEC3"
		},
		{
			"bufferView":6,
			"componentType":5126,
			"count":136,
			"type":"VEC3"
		},
		{
			"bufferView":7,
			"componentType":5126,
			"count":136,
			"type":"VEC2"
		},
		{
			"bufferView":8,
			"componentType":5126,
			"count":136,
			"type":"VEC2"
		},
		{
			"bufferView":9,
			"componentType":5123,
			"count":240,
			"type":"SCALAR"
		},
		{
			"bufferView":10,
			"componentType":5126,
			"count":38,
			"max":[
				23.938579559326172,
				5.973552703857422,
				0
			],
			"min":[
				2.846454620361328,
				-12.180381774902344,
				-14.565284729003906
			],
			"type":"VEC3"
		},
		{
			"bufferView":11,
			"componentType":5126,
			"count":38,
			"type":"VEC3"
		},
		{
			"bufferView":12,
			"componentType":5126,
			"count":38,
			"type":"VEC2"
		},
		{
			"bufferView":13,
			"componentType":5126,
			"count":38,
			"type":"VEC2"
		},
		{
			"bufferView":14,
			"componentType":5123,
			"count":72,
			"type":"SCALAR"
		},
		{
			"bufferView":15,
			"componentType":5126,
			"count":4,
			"max":[
				23.960372924804688,
				4.362518310546875,
				-0.004608154296875
			],
			"min":[
				23.960372924804688,
				2.4640464782714844,
				-3.3252601623535156
			],
			"type":"VEC3"
		},
		{
			"bufferView":16,
			"componentType":5126,
			"count":4,
			"type":"VEC3"
		},
		{
			"bufferView":17,
			"componentType":5126,
			"count":4,
			"type":"VEC2"
		},
		{
			"bufferView":18,
			"componentType":5126,
			"count":4,
			"type":"VEC2"
		},
		{
			"bufferView":19,
			"componentType":5123,
			"count":6,
			"type":"SCALAR"
		},
		{
			"bufferView":20,
			"componentType":5126,
			"count":51,
			"max":[
				10.032718658447266,
				4.338764190673828,
				-10.736785888671875
			],
			"min":[
				-3.707569122314453,
				-7.561054229736328,
				-17.056171417236328
			],
			"type":"VEC3"
		},
		{
			"bufferView":21,
			"componentType":5126,
			"count":51,
			"type":"VEC3"
		},
		{
			"bufferView":22,
			"componentType":5126,
			"count":51,
			"type":"VEC2"
		},
		{
			"bufferView":23,
			"componentType":5126,
			"count":51,
			"type":"VEC2"
		},
		{
			"bufferView":24,
			"componentType":5123,
			"count":105,
			"type":"SCALAR"
		},
		{
			"bufferView":25,
			"componentType":5126,
			"count":47,
			"max":[
				9.471031188964844,
				0.04145050048828125,
				0
			],
			"min":[
				-8.90045166015625,
				-14.9425048828125,
				-14.330585479736328
			],
			"type":"VEC3"
		},
		{
			"bufferView":26,
			"componentType":5126,
			"count":47,
			"type":"VEC3"
		},
		{
			"bufferView":27,
			"componentType":5126,
			"count":47,
			"type":"VEC2"
		},
		{
			"bufferView":28,
			"componentType":5126,
			"count":47,
			"type":"VEC2"
		},
		{
			"bufferView":29,
			"componentType":5123,
			"count":63,
			"type":"SCALAR"
		},
		{
			"bufferView":30,
			"componentType":5126,
			"count":4,
			"max":[
				0.5,
				0,
				0.5
			],
			"min":[
				-0.5,
				0,
				-0.5
			],
			"type":"VEC3"
		},
		{
			"bufferView":31,
			"componentType":5126,
			"count":4,
			"type":"VEC3"
		},
		{
			"bufferView":32,
			"componentType":5126,
			"count":4,
			"type":"VEC2"
		},
		{
			"bufferView":33,
			"componentType":5123,
			"count":6,
			"type":"SCALAR"
		}
	],
	"bufferViews":[
		{
			"buffer":0,
			"byteLength":5460,
			"byteOffset":0,
			"target":34962
		},
		{
			"buffer":0,
			"byteLength":5460,
			"byteOffset":5460,
			"target":34962
		},
		{
			"buffer":0,
			"byteLength":3640,
			"byteOffset":10920,
			"target":34962
		},
		{
			"buffer":0,
			"byteLength":3640,
			"byteOffset":14560,
			"target":34962
		},
		{
			"buffer":0,
			"byteLength":1284,
			"byteOffset":18200,
			"target":34963
		},
		{
			"buffer":0,
			"byteLength":1632,
			"byteOffset":19484,
			"target":34962
		},
		{
			"buffer":0,
			"byteLength":1632,
			"byteOffset":21116,
			"target":34962
		},
		{
			"buffer":0,
			"byteLength":1088,
			"byteOffset":22748,
			"target":34962
		},
		{
			"buffer":0,
			"byteLength":1088,
			"byteOffset":23836,
			"target":34962
		},
		{
			"buffer":0,
			"byteLength":480,
			"byteOffset":24924,
			"target":34963
		},
		{
			"buffer":0,
			"byteLength":456,
			"byteOffset":25404,
			"target":34962
		},
		{
			"buffer":0,
			"byteLength":456,
			"byteOffset":25860,
			"target":34962
		},
		{
			"buffer":0,
			"byteLength":304,
			"byteOffset":26316,
			"target":34962
		},
		{
			"buffer":0,
			"byteLength":304,
			"byteOffset":26620,
			"target":34962
		},
		{
			"buffer":0,
			"byteLength":144,
			"byteOffset":26924,
			"target":34963
		},
		{
			"buffer":0,
			"byteLength":48,
			"byteOffset":27068,
			"target":34962
		},
		{
			"buffer":0,
			"byteLength":48,
			"byteOffset":27116,
			"target":34962
		},
		{
			"buffer":0,
			"byteLength":32,
			"byteOffset":27164,
			"target":34962
		},
		{
			"buffer":0,
			"byteLength":32,
			"byteOffset":27196,
			"target":34962
		},
		{
			"buffer":0,
			"byteLength":12,
			"byteOffset":27228,
			"target":34963
		},
		{
			"buffer":0,
			"byteLength":612,
			"byteOffset":27240,
			"target":34962
		},
		{
			"buffer":0,
			"byteLength":612,
			"byteOffset":27852,
			"target":34962
		},
		{
			"buffer":0,
			"byteLength":408,
			"byteOffset":28464,
			"target":34962
		},
		{
			"buffer":0,
			"byteLength":408,
			"byteOffset":28872,
			"target":34962
		},
		{
			"buffer":0,
			"byteLength":210,
			"byteOffset":29280,
			"target":34963
		},
		{
			"buffer":0,
			"byteLength":564,
			"byteOffset":29492,
			"target":34962
		},
		{
			"buffer":0,
			"byteLength":564,
			"byteOffset":30056,
			"target":34962
		},
		{
			"buffer":0,
			"byteLength":376,
			"byteOffset":30620,
			"target":34962
		},
		{
			"buffer":0,
			"byteLength":376,
			"byteOffset":30996,
			"target":34962
		},
		{
			"buffer":0,
			"byteLength":126,
			"byteOffset":31372,
			"target":34963
		},
		{
			"buffer":0,
			"byteLength":48,
			"byteOffset":31500,
			"target":34962
		},
		{
			"buffer":0,
			"byteLength":48,
			"byteOffset":31548,
			"target":34962
		},
		{
			"buffer":0,
			"byteLength":32,
			"byteOffset":31596,
			"target":34962
		},
		{
			"buffer":0,
			"byteLength":12,
			"byteOffset":31628,
			"target":34963
		}
	],
	"samplers":[
		{
			"magFilter":9729,
			"minFilter":9987
		}
	],
	"buffers":[
		{
			"byteLength":31640,
			"uri":"microwave.bin"
		}
	]
}
