{
	"asset":{
		"generator":"Khronos glTF Blender I/O v4.1.63",
		"version":"2.0"
	},
	"scene":0,
	"scenes":[
		{
			"name":"Scene",
			"nodes":[
				0
			]
		}
	],
	"nodes":[
		{
			"mesh":0,
			"name":"Maxis-3d3-mesh-58",
			"rotation":[
				0.70710688829422,
				0,
				0,
				0.7071066498756409
			]
		}
	],
	"materials":[
		{
			"name":"matcolour-48",
			"pbrMetallicRoughness":{
				"baseColorFactor":[
					0.05882352963089943,
					0.05882352963089943,
					0.05882352963089943,
					1
				],
				"metallicFactor":0
			}
		},
		{
			"name":"matcolour-80",
			"pbrMetallicRoughness":{
				"baseColorFactor":[
					0.18431372940540314,
					0.14509804546833038,
					0.03921568766236305,
					1
				],
				"metallicFactor":0
			}
		},
		{
			"name":"mat40-39",
			"pbrMetallicRoughness":{
				"baseColorTexture":{
					"index":0
				},
				"metallicFactor":0
			}
		},
		{
			"name":"mat2-43",
			"pbrMetallicRoughness":{
				"baseColorTexture":{
					"index":1
				},
				"metallicFactor":0
			}
		},
		{
			"name":"mat40-63",
			"pbrMetallicRoughness":{
				"baseColorTexture":{
					"index":2
				},
				"metallicFactor":0
			}
		},
		{
			"name":"mat40-20",
			"pbrMetallicRoughness":{
				"baseColorTexture":{
					"index":3
				},
				"metallicFactor":0
			}
		}
	],
	"meshes":[
		{
			"name":"Maxis-3d3-mesh-58",
			"primitives":[
				{
					"attributes":{
						"POSITION":0,
						"NORMAL":1,
						"TEXCOORD_0":2,
						"TEXCOORD_1":3
					},
					"indices":4,
					"material":0
				},
				{
					"attributes":{
						"POSITION":5,
						"NORMAL":6,
						"TEXCOORD_0":7,
						"TEXCOORD_1":8
					},
					"indices":9,
					"material":1
				},
				{
					"attributes":{
						"POSITION":10,
						"NORMAL":11,
						"TEXCOORD_0":12,
						"TEXCOORD_1":13
					},
					"indices":14,
					"material":2
				},
				{
					"attributes":{
						"POSITION":15,
						"NORMAL":16,
						"TEXCOORD_0":17,
						"TEXCOORD_1":18
					},
					"indices":19,
					"material":2
				},
				{
					"attributes":{
						"POSITION":20,
						"NORMAL":21,
						"TEXCOORD_0":22,
						"TEXCOORD_1":23
					},
					"indices":24,
					"material":2
				},
				{
					"attributes":{
						"POSITION":25,
						"NORMAL":26,
						"TEXCOORD_0":27,
						"TEXCOORD_1":28
					},
					"indices":29,
					"material":3
				},
				{
					"attributes":{
						"POSITION":30,
						"NORMAL":31,
						"TEXCOORD_0":32,
						"TEXCOORD_1":33
					},
					"indices":34,
					"material":2
				},
				{
					"attributes":{
						"POSITION":35,
						"NORMAL":36,
						"TEXCOORD_0":37,
						"TEXCOORD_1":38
					},
					"indices":39,
					"material":4
				},
				{
					"attributes":{
						"POSITION":40,
						"NORMAL":41,
						"TEXCOORD_0":42,
						"TEXCOORD_1":43
					},
					"indices":44,
					"material":5
				},
				{
					"attributes":{
						"POSITION":45,
						"NORMAL":46,
						"TEXCOORD_0":47,
						"TEXCOORD_1":48
					},
					"indices":49,
					"material":5
				},
				{
					"attributes":{
						"POSITION":50,
						"NORMAL":51,
						"TEXCOORD_0":52,
						"TEXCOORD_1":53
					},
					"indices":54,
					"material":5
				},
				{
					"attributes":{
						"POSITION":55,
						"NORMAL":56,
						"TEXCOORD_0":57,
						"TEXCOORD_1":58
					},
					"indices":59,
					"material":5
				},
				{
					"attributes":{
						"POSITION":60,
						"NORMAL":61,
						"TEXCOORD_0":62,
						"TEXCOORD_1":63
					},
					"indices":64,
					"material":4
				},
				{
					"attributes":{
						"POSITION":65,
						"NORMAL":66,
						"TEXCOORD_0":67,
						"TEXCOORD_1":68
					},
					"indices":69,
					"material":4
				},
				{
					"attributes":{
						"POSITION":70,
						"NORMAL":71,
						"TEXCOORD_0":72,
						"TEXCOORD_1":73
					},
					"indices":74,
					"material":4
				},
				{
					"attributes":{
						"POSITION":75
					},
					"indices":76,
					"material":0,
					"mode":1
				}
			]
		}
	],
	"textures":[
		{
			"sampler":0,
			"source":0
		},
		{
			"sampler":0,
			"source":1
		},
		{
			"sampler":0,
			"source":2
		},
		{
			"sampler":0,
			"source":3
		}
	],
	"images":[
		{
			"mimeType":"image/png",
			"name":"tex40-39",
			"uri":"../../../Textures/tex40-39.png"
		},
		{
			"mimeType":"image/png",
			"name":"tex2-43",
			"uri":"../../../Textures/tex2-43.png"
		},
		{
			"mimeType":"image/png",
			"name":"tex40-63",
			"uri":"../../../Textures/tex40-63.png"
		},
		{
			"mimeType":"image/png",
			"name":"tex40-20",
			"uri":"../../../Textures/tex40-20.png"
		},
		{
			"mimeType":"image/png",
			"name":"powerplant_microwave_ao",
			"uri":"../../../Textures/powerplant_microwave_ao.png"
		}
	],
	"accessors":[
		{
			"bufferView":0,
			"componentType":5126,
			"count":642,
			"max":[
				23.938579559326172,
				19.606433868408203,
				0.8041229248046875
			],
			"min":[
				-25.727657318115234,
				-29.19970703125,
				-39.1458625793457
			],
			"type":"VEC3"
		},
		{
			"bufferView":1,
			"componentType":5126,
			"count":642,
			"type":"VEC3"
		},
		{
			"bufferView":2,
			"componentType":5126,
			"count":642,
			"type":"VEC2"
		},
		{
			"bufferView":3,
			"componentType":5126,
			"count":642,
			"type":"VEC2"
		},
		{
			"bufferView":4,
			"componentType":5123,
			"count":642,
			"type":"SCALAR"
		},
		{
			"bufferView":5,
			"componentType":5126,
			"count":240,
			"max":[
				28.720848083496094,
				24.293197631835938,
				-18.277313232421875
			],
			"min":[
				-28.871387481689453,
				-31.294620513916016,
				-43.75157165527344
			],
			"type":"VEC3"
		},
		{
			"bufferView":6,
			"componentType":5126,
			"count":240,
			"type":"VEC3"
		},
		{
			"bufferView":7,
			"componentType":5126,
			"count":240,
			"type":"VEC2"
		},
		{
			"bufferView":8,
			"componentType":5126,
			"count":240,
			"type":"VEC2"
		},
		{
			"bufferView":9,
			"componentType":5123,
			"count":240,
			"type":"SCALAR"
		},
		{
			"bufferView":10,
			"componentType":5126,
			"count":21,
			"max":[
				23.93857192993164,
				5.973552703857422,
				0
			],
			"min":[
				3.013813018798828,
				-3.8885040283203125,
				-14.565284729003906
			],
			"type":"VEC3"
		},
		{
			"bufferView":11,
			"componentType":5126,
			"count":21,
			"type":"VEC3"
		},
		{
			"bufferView":12,
			"componentType":5126,
			"count":21,
			"type":"VEC2"
		},
		{
			"bufferView":13,
			"componentType":5126,
			"count":21,
			"type":"VEC2"
		},
		{
			"bufferView":14,
			"componentType":5123,
			"count":21,
			"type":"SCALAR"
		},
		{
			"bufferView":15,
			"componentType":5126,
			"count":15,
			"max":[
				23.938579559326172,
				-7.123928070068359,
				0
			],
			"min":[
				2.846454620361328,
				-12.180381774902344,
				-14.565277099609375
			],
			"type":"VEC3"
		},
		{
			"bufferView":16,
			"componentType":5126,
			"count":15,
			"type":"VEC3"
		},
		{
			"bufferView":17,
			"componentType":5126,
			"count":15,
			"type":"VEC2"
		},
		{
			"bufferView":18,
			"componentType":5126,
			"count":15,
			"type":"VEC2"
		},
		{
			"bufferView":19,
			"componentType":5123,
			"count":15,
			"type":"SCALAR"
		},
		{
			"bufferView":20,
			"componentType":5126,
			"count":12,
			"max":[
				23.938579559326172,
				5.973552703857422,
				-0.00560760498046875
			],
			"min":[
				23.93857192993164,
				-12.180377960205078,
				-14.565284729003906
			],
			"type":"VEC3"
		},
		{
			"bufferView":21,
			"componentType":5126,
			"count":12,
			"type":"VEC3"
		},
		{
			"bufferView":22,
			"componentType":5126,
			"count":12,
			"type":"VEC2"
		},
		{
			"bufferView":23,
			"componentType":5126,
			"count":12,
			"type":"VEC2"
		},
		{
			"bufferView":24,
			"componentType":5123,
			"count":12,
			"type":"SCALAR"
		},
		{
			"bufferView":25,
			"componentType":5126,
			"count":6,
			"max":[
				23.960372924804688,
				4.362518310546875,
				-0.004608154296875
			],
			"min":[
				23.960372924804688,
				2.4640464782714844,
				-3.3252601623535156
			],
			"type":"VEC3"
		},
		{
			"bufferView":26,
			"componentType":5126,
			"count":6,
			"type":"VEC3"
		},
		{
			"bufferView":27,
			"componentType":5126,
			"count":6,
			"type":"VEC2"
		},
		{
			"bufferView":28,
			"componentType":5126,
			"count":6,
			"type":"VEC2"
		},
		{
			"bufferView":29,
			"componentType":5123,
			"count":6,
			"type":"SCALAR"
		},
		{
			"bufferView":30,
			"componentType":5126,
			"count":24,
			"max":[
				10.032726287841797,
				5.973552703857422,
				-0.00560760498046875
			],
			"min":[
				10.03271484375,
				-12.180381774902344,
				-14.565284729003906
			],
			"type":"VEC3"
		},
		{
			"bufferView":31,
			"componentType":5126,
			"count":24,
			"type":"VEC3"
		},
		{
			"bufferView":32,
			"componentType":5126,
			"count":24,
			"type":"VEC2"
		},
		{
			"bufferView":33,
			"componentType":5126,
			"count":24,
			"type":"VEC2"
		},
		{
			"bufferView":34,
			"componentType":5123,
			"count":24,
			"type":"SCALAR"
		},
		{
			"bufferView":35,
			"componentType":5126,
			"count":48,
			"max":[
				10.032718658447266,
				3.746501922607422,
				-11.871231079101562
			],
			"min":[
				-3.693225860595703,
				-7.561054229736328,
				-17.056171417236328
			],
			"type":"VEC3"
		},
		{
			"bufferView":36,
			"componentType":5126,
			"count":48,
			"type":"VEC3"
		},
		{
			"bufferView":37,
			"componentType":5126,
			"count":48,
			"type":"VEC2"
		},
		{
			"bufferView":38,
			"componentType":5126,
			"count":48,
			"type":"VEC2"
		},
		{
			"bufferView":39,
			"componentType":5123,
			"count":48,
			"type":"SCALAR"
		},
		{
			"bufferView":40,
			"componentType":5126,
			"count":24,
			"max":[
				9.471031188964844,
				0.04145050048828125,
				0
			],
			"min":[
				2.615680694580078,
				-14.9425048828125,
				-14.330585479736328
			],
			"type":"VEC3"
		},
		{
			"bufferView":41,
			"componentType":5126,
			"count":24,
			"type":"VEC3"
		},
		{
			"bufferView":42,
			"componentType":5126,
			"count":24,
			"type":"VEC2"
		},
		{
			"bufferView":43,
			"componentType":5126,
			"count":24,
			"type":"VEC2"
		},
		{
			"bufferView":44,
			"componentType":5123,
			"count":24,
			"type":"SCALAR"
		},
		{
			"bufferView":45,
			"componentType":5126,
			"count":12,
			"max":[
				5.623954772949219,
				-7.561054229736328,
				0
			],
			"min":[
				-4.863849639892578,
				-14.9425048828125,
				-14.330585479736328
			],
			"type":"VEC3"
		},
		{
			"bufferView":46,
			"componentType":5126,
			"count":12,
			"type":"VEC3"
		},
		{
			"bufferView":47,
			"componentType":5126,
			"count":12,
			"type":"VEC2"
		},
		{
			"bufferView":48,
			"componentType":5126,
			"count":12,
			"type":"VEC2"
		},
		{
			"bufferView":49,
			"componentType":5123,
			"count":12,
			"type":"SCALAR"
		},
		{
			"bufferView":50,
			"componentType":5126,
			"count":18,
			"max":[
				9.471031188964844,
				0.04145050048828125,
				0
			],
			"min":[
				-8.90045166015625,
				-3.4967727661132812,
				-10.736785888671875
			],
			"type":"VEC3"
		},
		{
			"bufferView":51,
			"componentType":5126,
			"count":18,
			"type":"VEC3"
		},
		{
			"bufferView":52,
			"componentType":5126,
			"count":18,
			"type":"VEC2"
		},
		{
			"bufferView":53,
			"componentType":5126,
			"count":18,
			"type":"VEC2"
		},
		{
			"bufferView":54,
			"componentType":5123,
			"count":18,
			"type":"SCALAR"
		},
		{
			"bufferView":55,
			"componentType":5126,
			"count":9,
			"max":[
				-2.902057647705078,
				0.04145050048828125,
				0
			],
			"min":[
				-8.90045166015625,
				-14.942501068115234,
				-14.330585479736328
			],
			"type":"VEC3"
		},
		{
			"bufferView":56,
			"componentType":5126,
			"count":9,
			"type":"VEC3"
		},
		{
			"bufferView":57,
			"componentType":5126,
			"count":9,
			"type":"VEC2"
		},
		{
			"bufferView":58,
			"componentType":5126,
			"count":9,
			"type":"VEC2"
		},
		{
			"bufferView":59,
			"componentType":5123,
			"count":9,
			"type":"SCALAR"
		},
		{
			"bufferView":60,
			"componentType":5126,
			"count":42,
			"max":[
				3.5695152282714844,
				4.338764190673828,
				-10.736785888671875
			],
			"min":[
				-3.707569122314453,
				-3.4967727661132812,
				-13.582305908203125
			],
			"type":"VEC3"
		},
		{
			"bufferView":61,
			"componentType":5126,
			"count":42,
			"type":"VEC3"
		},
		{
			"bufferView":62,
			"componentType":5126,
			"count":42,
			"type":"VEC2"
		},
		{
			"bufferView":63,
			"componentType":5126,
			"count":42,
			"type":"VEC2"
		},
		{
			"bufferView":64,
			"componentType":5123,
			"count":42,
			"type":"SCALAR"
		},
		{
			"bufferView":65,
			"componentType":5126,
			"count":9,
			"max":[
				3.5695152282714844,
				4.338764190673828,
				-10.736785888671875
			],
			"min":[
				2.877155303955078,
				-7.561054229736328,
				-17.056171417236328
			],
			"type":"VEC3"
		},
		{
			"bufferView":66,
			"componentType":5126,
			"count":9,
			"type":"VEC3"
		},
		{
			"bufferView":67,
			"componentType":5126,
			"count":9,
			"type":"VEC2"
		},
		{
			"bufferView":68,
			"componentType":5126,
			"count":9,
			"type":"VEC2"
		},
		{
			"bufferView":69,
			"componentType":5123,
			"count":9,
			"type":"SCALAR"
		},
		{
			"bufferView":70,
			"componentType":5126,
			"count":6,
			"max":[
				-3.0152053833007812,
				4.338764190673828,
				-10.736785888671875
			],
			"min":[
				-3.707569122314453,
				-7.561054229736328,
				-17.056171417236328
			],
			"type":"VEC3"
		},
		{
			"bufferView":71,
			"componentType":5126,
			"count":6,
			"type":"VEC3"
		},
		{
			"bufferView":72,
			"componentType":5126,
			"count":6,
			"type":"VEC2"
		},
		{
			"bufferView":73,
			"componentType":5126,
			"count":6,
			"type":"VEC2"
		},
		{
			"bufferView":74,
			"componentType":5123,
			"count":6,
			"type":"SCALAR"
		},
		{
			"bufferView":75,
			"componentType":5126,
			"count":56,
			"max":[
				18.193603515625,
				20.404457092285156,
				-15.365863800048828
			],
			"min":[
				-26.352989196777344,
				-28.491317749023438,
				-22.566234588623047
			],
			"type":"VEC3"
		},
		{
			"bufferView":76,
			"componentType":5123,
			"count":56,
			"type":"SCALAR"
		}
	],
	"bufferViews":[
		{
			"buffer":0,
			"byteLength":7704,
			"byteOffset":0,
			"target":34962
		},
		{
			"buffer":0,
			"byteLength":7704,
			"byteOffset":7704,
			"target":34962
		},
		{
			"buffer":0,
			"byteLength":5136,
			"byteOffset":15408,
			"target":34962
		},
		{
			"buffer":0,
			"byteLength":5136,
			"byteOffset":20544,
			"target":34962
		},
		{
			"buffer":0,
			"byteLength":1284,
			"byteOffset":25680,
			"target":34963
		},
		{
			"buffer":0,
			"byteLength":2880,
			"byteOffset":26964,
			"target":34962
		},
		{
			"buffer":0,
			"byteLength":2880,
			"byteOffset":29844,
			"target":34962
		},
		{
			"buffer":0,
			"byteLength":1920,
			"byteOffset":32724,
			"target":34962
		},
		{
			"buffer":0,
			"byteLength":1920,
			"byteOffset":34644,
			"target":34962
		},
		{
			"buffer":0,
			"byteLength":480,
			"byteOffset":36564,
			"target":34963
		},
		{
			"buffer":0,
			"byteLength":252,
			"byteOffset":37044,
			"target":34962
		},
		{
			"buffer":0,
			"byteLength":252,
			"byteOffset":37296,
			"target":34962
		},
		{
			"buffer":0,
			"byteLength":168,
			"byteOffset":37548,
			"target":34962
		},
		{
			"buffer":0,
			"byteLength":168,
			"byteOffset":37716,
			"target":34962
		},
		{
			"buffer":0,
			"byteLength":42,
			"byteOffset":37884,
			"target":34963
		},
		{
			"buffer":0,
			"byteLength":180,
			"byteOffset":37928,
			"target":34962
		},
		{
			"buffer":0,
			"byteLength":180,
			"byteOffset":38108,
			"target":34962
		},
		{
			"buffer":0,
			"byteLength":120,
			"byteOffset":38288,
			"target":34962
		},
		{
			"buffer":0,
			"byteLength":120,
			"byteOffset":38408,
			"target":34962
		},
		{
			"buffer":0,
			"byteLength":30,
			"byteOffset":38528,
			"target":34963
		},
		{
			"buffer":0,
			"byteLength":144,
			"byteOffset":38560,
			"target":34962
		},
		{
			"buffer":0,
			"byteLength":144,
			"byteOffset":38704,
			"target":34962
		},
		{
			"buffer":0,
			"byteLength":96,
			"byteOffset":38848,
			"target":34962
		},
		{
			"buffer":0,
			"byteLength":96,
			"byteOffset":38944,
			"target":34962
		},
		{
			"buffer":0,
			"byteLength":24,
			"byteOffset":39040,
			"target":34963
		},
		{
			"buffer":0,
			"byteLength":72,
			"byteOffset":39064,
			"target":34962
		},
		{
			"buffer":0,
			"byteLength":72,
			"byteOffset":39136,
			"target":34962
		},
		{
			"buffer":0,
			"byteLength":48,
			"byteOffset":39208,
			"target":34962
		},
		{
			"buffer":0,
			"byteLength":48,
			"byteOffset":39256,
			"target":34962
		},
		{
			"buffer":0,
			"byteLength":12,
			"byteOffset":39304,
			"target":34963
		},
		{
			"buffer":0,
			"byteLength":288,
			"byteOffset":39316,
			"target":34962
		},
		{
			"buffer":0,
			"byteLength":288,
			"byteOffset":39604,
			"target":34962
		},
		{
			"buffer":0,
			"byteLength":192,
			"byteOffset":39892,
			"target":34962
		},
		{
			"buffer":0,
			"byteLength":192,
			"byteOffset":40084,
			"target":34962
		},
		{
			"buffer":0,
			"byteLength":48,
			"byteOffset":40276,
			"target":34963
		},
		{
			"buffer":0,
			"byteLength":576,
			"byteOffset":40324,
			"target":34962
		},
		{
			"buffer":0,
			"byteLength":576,
			"byteOffset":40900,
			"target":34962
		},
		{
			"buffer":0,
			"byteLength":384,
			"byteOffset":41476,
			"target":34962
		},
		{
			"buffer":0,
			"byteLength":384,
			"byteOffset":41860,
			"target":34962
		},
		{
			"buffer":0,
			"byteLength":96,
			"byteOffset":42244,
			"target":34963
		},
		{
			"buffer":0,
			"byteLength":288,
			"byteOffset":42340,
			"target":34962
		},
		{
			"buffer":0,
			"byteLength":288,
			"byteOffset":42628,
			"target":34962
		},
		{
			"buffer":0,
			"byteLength":192,
			"byteOffset":42916,
			"target":34962
		},
		{
			"buffer":0,
			"byteLength":192,
			"byteOffset":43108,
			"target":34962
		},
		{
			"buffer":0,
			"byteLength":48,
			"byteOffset":43300,
			"target":34963
		},
		{
			"buffer":0,
			"byteLength":144,
			"byteOffset":43348,
			"target":34962
		},
		{
			"buffer":0,
			"byteLength":144,
			"byteOffset":43492,
			"target":34962
		},
		{
			"buffer":0,
			"byteLength":96,
			"byteOffset":43636,
			"target":34962
		},
		{
			"buffer":0,
			"byteLength":96,
			"byteOffset":43732,
			"target":34962
		},
		{
			"buffer":0,
			"byteLength":24,
			"byteOffset":43828,
			"target":34963
		},
		{
			"buffer":0,
			"byteLength":216,
			"byteOffset":43852,
			"target":34962
		},
		{
			"buffer":0,
			"byteLength":216,
			"byteOffset":44068,
			"target":34962
		},
		{
			"buffer":0,
			"byteLength":144,
			"byteOffset":44284,
			"target":34962
		},
		{
			"buffer":0,
			"byteLength":144,
			"byteOffset":44428,
			"target":34962
		},
		{
			"buffer":0,
			"byteLength":36,
			"byteOffset":44572,
			"target":34963
		},
		{
			"buffer":0,
			"byteLength":108,
			"byteOffset":44608,
			"target":34962
		},
		{
			"buffer":0,
			"byteLength":108,
			"byteOffset":44716,
			"target":34962
		},
		{
			"buffer":0,
			"byteLength":72,
			"byteOffset":44824,
			"target":34962
		},
		{
			"buffer":0,
			"byteLength":72,
			"byteOffset":44896,
			"target":34962
		},
		{
			"buffer":0,
			"byteLength":18,
			"byteOffset":44968,
			"target":34963
		},
		{
			"buffer":0,
			"byteLength":504,
			"byteOffset":44988,
			"target":34962
		},
		{
			"buffer":0,
			"byteLength":504,
			"byteOffset":45492,
			"target":34962
		},
		{
			"buffer":0,
			"byteLength":336,
			"byteOffset":45996,
			"target":34962
		},
		{
			"buffer":0,
			"byteLength":336,
			"byteOffset":46332,
			"target":34962
		},
		{
			"buffer":0,
			"byteLength":84,
			"byteOffset":46668,
			"target":34963
		},
		{
			"buffer":0,
			"byteLength":108,
			"byteOffset":46752,
			"target":34962
		},
		{
			"buffer":0,
			"byteLength":108,
			"byteOffset":46860,
			"target":34962
		},
		{
			"buffer":0,
			"byteLength":72,
			"byteOffset":46968,
			"target":34962
		},
		{
			"buffer":0,
			"byteLength":72,
			"byteOffset":47040,
			"target":34962
		},
		{
			"buffer":0,
			"byteLength":18,
			"byteOffset":47112,
			"target":34963
		},
		{
			"buffer":0,
			"byteLength":72,
			"byteOffset":47132,
			"target":34962
		},
		{
			"buffer":0,
			"byteLength":72,
			"byteOffset":47204,
			"target":34962
		},
		{
			"buffer":0,
			"byteLength":48,
			"byteOffset":47276,
			"target":34962
		},
		{
			"buffer":0,
			"byteLength":48,
			"byteOffset":47324,
			"target":34962
		},
		{
			"buffer":0,
			"byteLength":12,
			"byteOffset":47372,
			"target":34963
		},
		{
			"buffer":0,
			"byteLength":672,
			"byteOffset":47384,
			"target":34962
		},
		{
			"buffer":0,
			"byteLength":112,
			"byteOffset":48056,
			"target":34963
		}
	],
	"samplers":[
		{
			"magFilter":9729,
			"minFilter":9987
		}
	],
	"buffers":[
		{
			"byteLength":48168,
			"uri":"microwave.bin"
		}
	]
}
