{
	"asset":{
		"generator":"Khronos glTF Blender I/O v4.1.63",
		"version":"2.0"
	},
	"scene":0,
	"scenes":[
		{
			"name":"Scene",
			"nodes":[
				0
			]
		}
	],
	"nodes":[
		{
			"mesh":0,
			"name":"Maxis-3d3-mesh-58",
			"rotation":[
				0.70710688829422,
				0,
				0,
				0.7071066498756409
			]
		}
	],
	"materials":[
		{
			"name":"matcolour-48",
			"pbrMetallicRoughness":{
				"baseColorFactor":[
					0.05882352963089943,
					0.05882352963089943,
					0.05882352963089943,
					1
				],
				"metallicFactor":0
			}
		},
		{
			"name":"matcolour-80",
			"pbrMetallicRoughness":{
				"baseColorFactor":[
					0.18431372940540314,
					0.14509804546833038,
					0.03921568766236305,
					1
				],
				"metallicFactor":0
			}
		},
		{
			"name":"mat40-39",
			"pbrMetallicRoughness":{
				"baseColorTexture":{
					"index":0
				},
				"metallicFactor":0
			}
		},
		{
			"name":"mat2-43",
			"pbrMetallicRoughness":{
				"baseColorTexture":{
					"index":1
				},
				"metallicFactor":0
			}
		},
		{
			"name":"mat40-60",
			"pbrMetallicRoughness":{
				"baseColorTexture":{
					"index":2
				},
				"metallicFactor":0
			}
		},
		{
			"name":"mat40-22",
			"pbrMetallicRoughness":{
				"baseColorTexture":{
					"index":3
				},
				"metallicFactor":0
			}
		}
	],
	"meshes":[
		{
			"name":"Maxis-3d3-mesh-58",
			"primitives":[
				{
					"attributes":{
						"POSITION":0,
						"NORMAL":1,
						"TEXCOORD_0":2
					},
					"indices":3,
					"material":0
				},
				{
					"attributes":{
						"POSITION":4,
						"NORMAL":5,
						"TEXCOORD_0":6
					},
					"indices":7,
					"material":1
				},
				{
					"attributes":{
						"POSITION":8,
						"NORMAL":9,
						"TEXCOORD_0":10
					},
					"indices":11,
					"material":2
				},
				{
					"attributes":{
						"POSITION":12,
						"NORMAL":13,
						"TEXCOORD_0":14
					},
					"indices":15,
					"material":2
				},
				{
					"attributes":{
						"POSITION":16,
						"NORMAL":17,
						"TEXCOORD_0":18
					},
					"indices":19,
					"material":2
				},
				{
					"attributes":{
						"POSITION":20,
						"NORMAL":21,
						"TEXCOORD_0":22
					},
					"indices":23,
					"material":3
				},
				{
					"attributes":{
						"POSITION":24,
						"NORMAL":25,
						"TEXCOORD_0":26
					},
					"indices":27,
					"material":2
				},
				{
					"attributes":{
						"POSITION":28,
						"NORMAL":29,
						"TEXCOORD_0":30
					},
					"indices":31,
					"material":4
				},
				{
					"attributes":{
						"POSITION":32,
						"NORMAL":33,
						"TEXCOORD_0":34
					},
					"indices":35,
					"material":5
				},
				{
					"attributes":{
						"POSITION":36,
						"NORMAL":37,
						"TEXCOORD_0":38
					},
					"indices":39,
					"material":5
				},
				{
					"attributes":{
						"POSITION":40,
						"NORMAL":41,
						"TEXCOORD_0":42
					},
					"indices":43,
					"material":5
				},
				{
					"attributes":{
						"POSITION":44,
						"NORMAL":45,
						"TEXCOORD_0":46
					},
					"indices":47,
					"material":5
				},
				{
					"attributes":{
						"POSITION":48,
						"NORMAL":49,
						"TEXCOORD_0":50
					},
					"indices":51,
					"material":4
				},
				{
					"attributes":{
						"POSITION":52,
						"NORMAL":53,
						"TEXCOORD_0":54
					},
					"indices":55,
					"material":4
				},
				{
					"attributes":{
						"POSITION":56,
						"NORMAL":57,
						"TEXCOORD_0":58
					},
					"indices":59,
					"material":4
				}
			]
		}
	],
	"textures":[
		{
			"sampler":0,
			"source":0
		},
		{
			"sampler":0,
			"source":1
		},
		{
			"sampler":0,
			"source":2
		},
		{
			"sampler":0,
			"source":3
		}
	],
	"images":[
		{
			"mimeType":"image/png",
			"name":"tex40-39",
			"uri":"../../../Textures/tex40-39.png"
		},
		{
			"mimeType":"image/png",
			"name":"tex2-43",
			"uri":"../../../Textures/tex2-43.png"
		},
		{
			"mimeType":"image/png",
			"name":"tex40-60",
			"uri":"../../../Textures/tex40-60.png"
		},
		{
			"mimeType":"image/png",
			"name":"tex40-22",
			"uri":"../../../Textures/tex40-22.png"
		}
	],
	"accessors":[
		{
			"bufferView":0,
			"componentType":5126,
			"count":496,
			"max":[
				23.938579559326172,
				19.606433868408203,
				0.8041229248046875
			],
			"min":[
				-25.727657318115234,
				-29.19970703125,
				-39.1458625793457
			],
			"type":"VEC3"
		},
		{
			"bufferView":1,
			"componentType":5126,
			"count":496,
			"type":"VEC3"
		},
		{
			"bufferView":2,
			"componentType":5126,
			"count":496,
			"type":"VEC2"
		},
		{
			"bufferView":3,
			"componentType":5123,
			"count":642,
			"type":"SCALAR"
		},
		{
			"bufferView":4,
			"componentType":5126,
			"count":240,
			"max":[
				28.720848083496094,
				24.293197631835938,
				-18.277313232421875
			],
			"min":[
				-28.871387481689453,
				-31.294620513916016,
				-43.75157165527344
			],
			"type":"VEC3"
		},
		{
			"bufferView":5,
			"componentType":5126,
			"count":240,
			"type":"VEC3"
		},
		{
			"bufferView":6,
			"componentType":5126,
			"count":240,
			"type":"VEC2"
		},
		{
			"bufferView":7,
			"componentType":5123,
			"count":240,
			"type":"SCALAR"
		},
		{
			"bufferView":8,
			"componentType":5126,
			"count":13,
			"max":[
				23.93857192993164,
				5.973552703857422,
				0
			],
			"min":[
				3.013813018798828,
				-3.8885040283203125,
				-14.565284729003906
			],
			"type":"VEC3"
		},
		{
			"bufferView":9,
			"componentType":5126,
			"count":13,
			"type":"VEC3"
		},
		{
			"bufferView":10,
			"componentType":5126,
			"count":13,
			"type":"VEC2"
		},
		{
			"bufferView":11,
			"componentType":5123,
			"count":21,
			"type":"SCALAR"
		},
		{
			"bufferView":12,
			"componentType":5126,
			"count":9,
			"max":[
				23.938579559326172,
				-7.123928070068359,
				0
			],
			"min":[
				2.846454620361328,
				-12.180381774902344,
				-14.565277099609375
			],
			"type":"VEC3"
		},
		{
			"bufferView":13,
			"componentType":5126,
			"count":9,
			"type":"VEC3"
		},
		{
			"bufferView":14,
			"componentType":5126,
			"count":9,
			"type":"VEC2"
		},
		{
			"bufferView":15,
			"componentType":5123,
			"count":15,
			"type":"SCALAR"
		},
		{
			"bufferView":16,
			"componentType":5126,
			"count":6,
			"max":[
				23.938579559326172,
				5.973552703857422,
				-0.00560760498046875
			],
			"min":[
				23.93857192993164,
				-12.180377960205078,
				-14.565284729003906
			],
			"type":"VEC3"
		},
		{
			"bufferView":17,
			"componentType":5126,
			"count":6,
			"type":"VEC3"
		},
		{
			"bufferView":18,
			"componentType":5126,
			"count":6,
			"type":"VEC2"
		},
		{
			"bufferView":19,
			"componentType":5123,
			"count":12,
			"type":"SCALAR"
		},
		{
			"bufferView":20,
			"componentType":5126,
			"count":4,
			"max":[
				23.960372924804688,
				4.362518310546875,
				-0.004608154296875
			],
			"min":[
				23.960372924804688,
				2.4640464782714844,
				-3.3252601623535156
			],
			"type":"VEC3"
		},
		{
			"bufferView":21,
			"componentType":5126,
			"count":4,
			"type":"VEC3"
		},
		{
			"bufferView":22,
			"componentType":5126,
			"count":4,
			"type":"VEC2"
		},
		{
			"bufferView":23,
			"componentType":5123,
			"count":6,
			"type":"SCALAR"
		},
		{
			"bufferView":24,
			"componentType":5126,
			"count":10,
			"max":[
				10.032726287841797,
				5.973552703857422,
				-0.00560760498046875
			],
			"min":[
				10.03271484375,
				-12.180381774902344,
				-14.565284729003906
			],
			"type":"VEC3"
		},
		{
			"bufferView":25,
			"componentType":5126,
			"count":10,
			"type":"VEC3"
		},
		{
			"bufferView":26,
			"componentType":5126,
			"count":10,
			"type":"VEC2"
		},
		{
			"bufferView":27,
			"componentType":5123,
			"count":24,
			"type":"SCALAR"
		},
		{
			"bufferView":28,
			"componentType":5126,
			"count":23,
			"max":[
				10.032718658447266,
				3.746501922607422,
				-11.871231079101562
			],
			"min":[
				-3.693225860595703,
				-7.561054229736328,
				-17.056171417236328
			],
			"type":"VEC3"
		},
		{
			"bufferView":29,
			"componentType":5126,
			"count":23,
			"type":"VEC3"
		},
		{
			"bufferView":30,
			"componentType":5126,
			"count":23,
			"type":"VEC2"
		},
		{
			"bufferView":31,
			"componentType":5123,
			"count":48,
			"type":"SCALAR"
		},
		{
			"bufferView":32,
			"componentType":5126,
			"count":22,
			"max":[
				9.471031188964844,
				0.04145050048828125,
				0
			],
			"min":[
				2.615680694580078,
				-14.9425048828125,
				-14.330585479736328
			],
			"type":"VEC3"
		},
		{
			"bufferView":33,
			"componentType":5126,
			"count":22,
			"type":"VEC3"
		},
		{
			"bufferView":34,
			"componentType":5126,
			"count":22,
			"type":"VEC2"
		},
		{
			"bufferView":35,
			"componentType":5123,
			"count":24,
			"type":"SCALAR"
		},
		{
			"bufferView":36,
			"componentType":5126,
			"count":8,
			"max":[
				5.623954772949219,
				-7.561054229736328,
				0
			],
			"min":[
				-4.863849639892578,
				-14.9425048828125,
				-14.330585479736328
			],
			"type":"VEC3"
		},
		{
			"bufferView":37,
			"componentType":5126,
			"count":8,
			"type":"VEC3"
		},
		{
			"bufferView":38,
			"componentType":5126,
			"count":8,
			"type":"VEC2"
		},
		{
			"bufferView":39,
			"componentType":5123,
			"count":12,
			"type":"SCALAR"
		},
		{
			"bufferView":40,
			"componentType":5126,
			"count":16,
			"max":[
				9.471031188964844,
				0.04145050048828125,
				0
			],
			"min":[
				-8.90045166015625,
				-3.4967727661132812,
				-10.736785888671875
			],
			"type":"VEC3"
		},
		{
			"bufferView":41,
			"componentType":5126,
			"count":16,
			"type":"VEC3"
		},
		{
			"bufferView":42,
			"componentType":5126,
			"count":16,
			"type":"VEC2"
		},
		{
			"bufferView":43,
			"componentType":5123,
			"count":18,
			"type":"SCALAR"
		},
		{
			"bufferView":44,
			"componentType":5126,
			"count":9,
			"max":[
				-2.902057647705078,
				0.04145050048828125,
				0
			],
			"min":[
				-8.90045166015625,
				-14.942501068115234,
				-14.330585479736328
			],
			"type":"VEC3"
		},
		{
			"bufferView":45,
			"componentType":5126,
			"count":9,
			"type":"VEC3"
		},
		{
			"bufferView":46,
			"componentType":5126,
			"count":9,
			"type":"VEC2"
		},
		{
			"bufferView":47,
			"componentType":5123,
			"count":9,
			"type":"SCALAR"
		},
		{
			"bufferView":48,
			"componentType":5126,
			"count":30,
			"max":[
				3.5695152282714844,
				4.338764190673828,
				-10.736785888671875
			],
			"min":[
				-3.707569122314453,
				-3.4967727661132812,
				-13.582305908203125
			],
			"type":"VEC3"
		},
		{
			"bufferView":49,
			"componentType":5126,
			"count":30,
			"type":"VEC3"
		},
		{
			"bufferView":50,
			"componentType":5126,
			"count":30,
			"type":"VEC2"
		},
		{
			"bufferView":51,
			"componentType":5123,
			"count":42,
			"type":"SCALAR"
		},
		{
			"bufferView":52,
			"componentType":5126,
			"count":7,
			"max":[
				3.5695152282714844,
				4.338764190673828,
				-10.736785888671875
			],
			"min":[
				2.877155303955078,
				-7.561054229736328,
				-17.056171417236328
			],
			"type":"VEC3"
		},
		{
			"bufferView":53,
			"componentType":5126,
			"count":7,
			"type":"VEC3"
		},
		{
			"bufferView":54,
			"componentType":5126,
			"count":7,
			"type":"VEC2"
		},
		{
			"bufferView":55,
			"componentType":5123,
			"count":9,
			"type":"SCALAR"
		},
		{
			"bufferView":56,
			"componentType":5126,
			"count":6,
			"max":[
				-3.0152053833007812,
				4.338764190673828,
				-10.736785888671875
			],
			"min":[
				-3.707569122314453,
				-7.561054229736328,
				-17.056171417236328
			],
			"type":"VEC3"
		},
		{
			"bufferView":57,
			"componentType":5126,
			"count":6,
			"type":"VEC3"
		},
		{
			"bufferView":58,
			"componentType":5126,
			"count":6,
			"type":"VEC2"
		},
		{
			"bufferView":59,
			"componentType":5123,
			"count":6,
			"type":"SCALAR"
		}
	],
	"bufferViews":[
		{
			"buffer":0,
			"byteLength":5952,
			"byteOffset":0,
			"target":34962
		},
		{
			"buffer":0,
			"byteLength":5952,
			"byteOffset":5952,
			"target":34962
		},
		{
			"buffer":0,
			"byteLength":3968,
			"byteOffset":11904,
			"target":34962
		},
		{
			"buffer":0,
			"byteLength":1284,
			"byteOffset":15872,
			"target":34963
		},
		{
			"buffer":0,
			"byteLength":2880,
			"byteOffset":17156,
			"target":34962
		},
		{
			"buffer":0,
			"byteLength":2880,
			"byteOffset":20036,
			"target":34962
		},
		{
			"buffer":0,
			"byteLength":1920,
			"byteOffset":22916,
			"target":34962
		},
		{
			"buffer":0,
			"byteLength":480,
			"byteOffset":24836,
			"target":34963
		},
		{
			"buffer":0,
			"byteLength":156,
			"byteOffset":25316,
			"target":34962
		},
		{
			"buffer":0,
			"byteLength":156,
			"byteOffset":25472,
			"target":34962
		},
		{
			"buffer":0,
			"byteLength":104,
			"byteOffset":25628,
			"target":34962
		},
		{
			"buffer":0,
			"byteLength":42,
			"byteOffset":25732,
			"target":34963
		},
		{
			"buffer":0,
			"byteLength":108,
			"byteOffset":25776,
			"target":34962
		},
		{
			"buffer":0,
			"byteLength":108,
			"byteOffset":25884,
			"target":34962
		},
		{
			"buffer":0,
			"byteLength":72,
			"byteOffset":25992,
			"target":34962
		},
		{
			"buffer":0,
			"byteLength":30,
			"byteOffset":26064,
			"target":34963
		},
		{
			"buffer":0,
			"byteLength":72,
			"byteOffset":26096,
			"target":34962
		},
		{
			"buffer":0,
			"byteLength":72,
			"byteOffset":26168,
			"target":34962
		},
		{
			"buffer":0,
			"byteLength":48,
			"byteOffset":26240,
			"target":34962
		},
		{
			"buffer":0,
			"byteLength":24,
			"byteOffset":26288,
			"target":34963
		},
		{
			"buffer":0,
			"byteLength":48,
			"byteOffset":26312,
			"target":34962
		},
		{
			"buffer":0,
			"byteLength":48,
			"byteOffset":26360,
			"target":34962
		},
		{
			"buffer":0,
			"byteLength":32,
			"byteOffset":26408,
			"target":34962
		},
		{
			"buffer":0,
			"byteLength":12,
			"byteOffset":26440,
			"target":34963
		},
		{
			"buffer":0,
			"byteLength":120,
			"byteOffset":26452,
			"target":34962
		},
		{
			"buffer":0,
			"byteLength":120,
			"byteOffset":26572,
			"target":34962
		},
		{
			"buffer":0,
			"byteLength":80,
			"byteOffset":26692,
			"target":34962
		},
		{
			"buffer":0,
			"byteLength":48,
			"byteOffset":26772,
			"target":34963
		},
		{
			"buffer":0,
			"byteLength":276,
			"byteOffset":26820,
			"target":34962
		},
		{
			"buffer":0,
			"byteLength":276,
			"byteOffset":27096,
			"target":34962
		},
		{
			"buffer":0,
			"byteLength":184,
			"byteOffset":27372,
			"target":34962
		},
		{
			"buffer":0,
			"byteLength":96,
			"byteOffset":27556,
			"target":34963
		},
		{
			"buffer":0,
			"byteLength":264,
			"byteOffset":27652,
			"target":34962
		},
		{
			"buffer":0,
			"byteLength":264,
			"byteOffset":27916,
			"target":34962
		},
		{
			"buffer":0,
			"byteLength":176,
			"byteOffset":28180,
			"target":34962
		},
		{
			"buffer":0,
			"byteLength":48,
			"byteOffset":28356,
			"target":34963
		},
		{
			"buffer":0,
			"byteLength":96,
			"byteOffset":28404,
			"target":34962
		},
		{
			"buffer":0,
			"byteLength":96,
			"byteOffset":28500,
			"target":34962
		},
		{
			"buffer":0,
			"byteLength":64,
			"byteOffset":28596,
			"target":34962
		},
		{
			"buffer":0,
			"byteLength":24,
			"byteOffset":28660,
			"target":34963
		},
		{
			"buffer":0,
			"byteLength":192,
			"byteOffset":28684,
			"target":34962
		},
		{
			"buffer":0,
			"byteLength":192,
			"byteOffset":28876,
			"target":34962
		},
		{
			"buffer":0,
			"byteLength":128,
			"byteOffset":29068,
			"target":34962
		},
		{
			"buffer":0,
			"byteLength":36,
			"byteOffset":29196,
			"target":34963
		},
		{
			"buffer":0,
			"byteLength":108,
			"byteOffset":29232,
			"target":34962
		},
		{
			"buffer":0,
			"byteLength":108,
			"byteOffset":29340,
			"target":34962
		},
		{
			"buffer":0,
			"byteLength":72,
			"byteOffset":29448,
			"target":34962
		},
		{
			"buffer":0,
			"byteLength":18,
			"byteOffset":29520,
			"target":34963
		},
		{
			"buffer":0,
			"byteLength":360,
			"byteOffset":29540,
			"target":34962
		},
		{
			"buffer":0,
			"byteLength":360,
			"byteOffset":29900,
			"target":34962
		},
		{
			"buffer":0,
			"byteLength":240,
			"byteOffset":30260,
			"target":34962
		},
		{
			"buffer":0,
			"byteLength":84,
			"byteOffset":30500,
			"target":34963
		},
		{
			"buffer":0,
			"byteLength":84,
			"byteOffset":30584,
			"target":34962
		},
		{
			"buffer":0,
			"byteLength":84,
			"byteOffset":30668,
			"target":34962
		},
		{
			"buffer":0,
			"byteLength":56,
			"byteOffset":30752,
			"target":34962
		},
		{
			"buffer":0,
			"byteLength":18,
			"byteOffset":30808,
			"target":34963
		},
		{
			"buffer":0,
			"byteLength":72,
			"byteOffset":30828,
			"target":34962
		},
		{
			"buffer":0,
			"byteLength":72,
			"byteOffset":30900,
			"target":34962
		},
		{
			"buffer":0,
			"byteLength":48,
			"byteOffset":30972,
			"target":34962
		},
		{
			"buffer":0,
			"byteLength":12,
			"byteOffset":31020,
			"target":34963
		}
	],
	"samplers":[
		{
			"magFilter":9729,
			"minFilter":9987
		}
	],
	"buffers":[
		{
			"byteLength":31032,
			"uri":"microwave.bin"
		}
	]
}
