{
	"asset":{
		"generator":"Khronos glTF Blender I/O v4.3.47",
		"version":"2.0"
	},
	"scene":0,
	"scenes":[
		{
			"name":"Scene",
			"nodes":[
				0,
				1
			]
		}
	],
	"nodes":[
		{
			"mesh":0,
			"name":"Maxis-3d1-mesh-22-ap229",
			"rotation":[
				0.70710688829422,
				0,
				0,
				0.7071066498756409
			]
		},
		{
			"extras":{
				"gd_node":"Decal",
				"lower_fade":9,
				"upper_fade":10
			},
			"mesh":1,
			"name":"Ground_AO",
			"scale":[
				15.706085205078125,
				1,
				13.505280494689941
			],
			"translation":[
				-0.037921905517578125,
				-5.639554728986695e-06,
				-0.22893810272216797
			]
		}
	],
	"materials":[
		{
			"name":"matcolour-48.012",
			"occlusionTexture":{
				"index":0,
				"texCoord":1
			},
			"pbrMetallicRoughness":{
				"baseColorFactor":[
					0.05882352963089943,
					0.05882352963089943,
					0.05882352963089943,
					1
				],
				"metallicFactor":0
			}
		},
		{
			"name":"mat40-56",
			"occlusionTexture":{
				"index":1,
				"texCoord":1
			},
			"pbrMetallicRoughness":{
				"baseColorTexture":{
					"index":2
				},
				"metallicFactor":0
			}
		},
		{
			"name":"mat40-59",
			"occlusionTexture":{
				"index":3,
				"texCoord":1
			},
			"pbrMetallicRoughness":{
				"baseColorTexture":{
					"index":4
				},
				"metallicFactor":0
			}
		},
		{
			"name":"mat40-58",
			"occlusionTexture":{
				"index":5,
				"texCoord":1
			},
			"pbrMetallicRoughness":{
				"baseColorTexture":{
					"index":6
				},
				"metallicFactor":0
			}
		},
		{
			"name":"mat40-57",
			"occlusionTexture":{
				"index":7,
				"texCoord":1
			},
			"pbrMetallicRoughness":{
				"baseColorTexture":{
					"index":8
				},
				"metallicFactor":0
			}
		},
		{
			"name":"mat2-42.002",
			"occlusionTexture":{
				"index":9,
				"texCoord":1
			},
			"pbrMetallicRoughness":{
				"baseColorTexture":{
					"index":10
				},
				"metallicFactor":0
			}
		},
		{
			"name":"mat40-38.004",
			"occlusionTexture":{
				"index":11,
				"texCoord":1
			},
			"pbrMetallicRoughness":{
				"baseColorTexture":{
					"index":12
				},
				"metallicFactor":0
			}
		},
		{
			"name":"mat40-36.004",
			"occlusionTexture":{
				"index":13,
				"texCoord":1
			},
			"pbrMetallicRoughness":{
				"baseColorTexture":{
					"index":14
				},
				"metallicFactor":0
			}
		},
		{
			"name":"mat40-39.002",
			"occlusionTexture":{
				"index":15,
				"texCoord":1
			},
			"pbrMetallicRoughness":{
				"baseColorTexture":{
					"index":16
				},
				"metallicFactor":0
			}
		},
		{
			"name":"mat40-37.004",
			"occlusionTexture":{
				"index":17,
				"texCoord":1
			},
			"pbrMetallicRoughness":{
				"baseColorTexture":{
					"index":18
				},
				"metallicFactor":0
			}
		},
		{
			"name":"mat2-43.001",
			"occlusionTexture":{
				"index":19,
				"texCoord":1
			},
			"pbrMetallicRoughness":{
				"baseColorTexture":{
					"index":20
				},
				"metallicFactor":0
			}
		},
		{
			"name":"Ground_AO",
			"occlusionTexture":{
				"index":21
			},
			"pbrMetallicRoughness":{
				"baseColorFactor":[
					0.800000011920929,
					0.800000011920929,
					0.800000011920929,
					1
				],
				"metallicFactor":0,
				"roughnessFactor":0.5
			}
		}
	],
	"meshes":[
		{
			"name":"Maxis-3d1-mesh-22-ap229",
			"primitives":[
				{
					"attributes":{
						"POSITION":0,
						"NORMAL":1,
						"TEXCOORD_0":2,
						"TEXCOORD_1":3
					},
					"indices":4,
					"material":0
				},
				{
					"attributes":{
						"POSITION":5,
						"NORMAL":6,
						"TEXCOORD_0":7,
						"TEXCOORD_1":8
					},
					"indices":9,
					"material":1
				},
				{
					"attributes":{
						"POSITION":10,
						"NORMAL":11,
						"TEXCOORD_0":12,
						"TEXCOORD_1":13
					},
					"indices":9,
					"material":2
				},
				{
					"attributes":{
						"POSITION":14,
						"NORMAL":15,
						"TEXCOORD_0":16,
						"TEXCOORD_1":17
					},
					"indices":18,
					"material":3
				},
				{
					"attributes":{
						"POSITION":19,
						"NORMAL":20,
						"TEXCOORD_0":21,
						"TEXCOORD_1":22
					},
					"indices":23,
					"material":4
				},
				{
					"attributes":{
						"POSITION":24,
						"NORMAL":25,
						"TEXCOORD_0":26,
						"TEXCOORD_1":27
					},
					"indices":28,
					"material":5
				},
				{
					"attributes":{
						"POSITION":29,
						"NORMAL":30,
						"TEXCOORD_0":31,
						"TEXCOORD_1":32
					},
					"indices":33,
					"material":6
				},
				{
					"attributes":{
						"POSITION":34,
						"NORMAL":35,
						"TEXCOORD_0":36,
						"TEXCOORD_1":37
					},
					"indices":38,
					"material":7
				},
				{
					"attributes":{
						"POSITION":39,
						"NORMAL":40,
						"TEXCOORD_0":41,
						"TEXCOORD_1":42
					},
					"indices":43,
					"material":8
				},
				{
					"attributes":{
						"POSITION":44,
						"NORMAL":45,
						"TEXCOORD_0":46,
						"TEXCOORD_1":47
					},
					"indices":48,
					"material":9
				},
				{
					"attributes":{
						"POSITION":49,
						"NORMAL":50,
						"TEXCOORD_0":51,
						"TEXCOORD_1":52
					},
					"indices":53,
					"material":10
				}
			]
		},
		{
			"name":"Plane",
			"primitives":[
				{
					"attributes":{
						"POSITION":54,
						"NORMAL":55,
						"TEXCOORD_0":56
					},
					"indices":57,
					"material":11
				}
			]
		}
	],
	"textures":[
		{
			"sampler":0,
			"source":0
		},
		{
			"sampler":0,
			"source":0
		},
		{
			"sampler":0,
			"source":1
		},
		{
			"sampler":0,
			"source":0
		},
		{
			"sampler":0,
			"source":2
		},
		{
			"sampler":0,
			"source":0
		},
		{
			"sampler":0,
			"source":3
		},
		{
			"sampler":0,
			"source":0
		},
		{
			"sampler":0,
			"source":4
		},
		{
			"sampler":0,
			"source":0
		},
		{
			"sampler":0,
			"source":5
		},
		{
			"sampler":0,
			"source":0
		},
		{
			"sampler":0,
			"source":6
		},
		{
			"sampler":0,
			"source":0
		},
		{
			"sampler":0,
			"source":7
		},
		{
			"sampler":0,
			"source":0
		},
		{
			"sampler":0,
			"source":8
		},
		{
			"sampler":0,
			"source":0
		},
		{
			"sampler":0,
			"source":9
		},
		{
			"sampler":0,
			"source":0
		},
		{
			"sampler":0,
			"source":10
		},
		{
			"sampler":0,
			"source":11
		}
	],
	"images":[
		{
			"mimeType":"image/png",
			"name":"building_2.png",
			"uri":"../../../Textures/ambient_occlusion/Buildings/Airport/building_2.png"
		},
		{
			"mimeType":"image/png",
			"name":"tex40-56",
			"uri":"../../../Textures/tex40-56.png"
		},
		{
			"mimeType":"image/png",
			"name":"tex40-59",
			"uri":"../../../Textures/tex40-59.png"
		},
		{
			"mimeType":"image/png",
			"name":"tex40-58",
			"uri":"../../../Textures/tex40-58.png"
		},
		{
			"mimeType":"image/png",
			"name":"tex40-57",
			"uri":"../../../Textures/tex40-57.png"
		},
		{
			"mimeType":"image/png",
			"name":"tex2-42",
			"uri":"../../../Textures/tex2-42.png"
		},
		{
			"mimeType":"image/png",
			"name":"tex40-38",
			"uri":"../../../Textures/tex40-38.png"
		},
		{
			"mimeType":"image/png",
			"name":"tex40-36",
			"uri":"../../../Textures/tex40-36.png"
		},
		{
			"mimeType":"image/png",
			"name":"tex40-39",
			"uri":"../../../Textures/tex40-39.png"
		},
		{
			"mimeType":"image/png",
			"name":"tex40-37",
			"uri":"../../../Textures/tex40-37.png"
		},
		{
			"mimeType":"image/png",
			"name":"tex2-43",
			"uri":"../../../Textures/tex2-43.png"
		},
		{
			"mimeType":"image/png",
			"name":"building_2_ground.png",
			"uri":"../../../Textures/ambient_occlusion/Buildings/Airport/building_2_ground.png"
		}
	],
	"accessors":[
		{
			"bufferView":0,
			"componentType":5126,
			"count":57,
			"max":[
				7.315120697021484,
				5.951103210449219,
				-4.984458923339844
			],
			"min":[
				-7.390964508056641,
				-6.481578826904297,
				-6.187679290771484
			],
			"type":"VEC3"
		},
		{
			"bufferView":1,
			"componentType":5126,
			"count":57,
			"type":"VEC3"
		},
		{
			"bufferView":2,
			"componentType":5126,
			"count":57,
			"type":"VEC2"
		},
		{
			"bufferView":3,
			"componentType":5126,
			"count":57,
			"type":"VEC2"
		},
		{
			"bufferView":4,
			"componentType":5123,
			"count":102,
			"type":"SCALAR"
		},
		{
			"bufferView":5,
			"componentType":5126,
			"count":4,
			"max":[
				7.315120697021484,
				-6.481575012207031,
				3.814697265625e-06
			],
			"min":[
				-7.390964508056641,
				-6.481578826904297,
				-4.984458923339844
			],
			"type":"VEC3"
		},
		{
			"bufferView":6,
			"componentType":5126,
			"count":4,
			"type":"VEC3"
		},
		{
			"bufferView":7,
			"componentType":5126,
			"count":4,
			"type":"VEC2"
		},
		{
			"bufferView":8,
			"componentType":5126,
			"count":4,
			"type":"VEC2"
		},
		{
			"bufferView":9,
			"componentType":5123,
			"count":6,
			"type":"SCALAR"
		},
		{
			"bufferView":10,
			"componentType":5126,
			"count":4,
			"max":[
				7.315120697021484,
				5.951107025146484,
				-3.814697265625e-06
			],
			"min":[
				-7.390964508056641,
				5.951103210449219,
				-4.984466552734375
			],
			"type":"VEC3"
		},
		{
			"bufferView":11,
			"componentType":5126,
			"count":4,
			"type":"VEC3"
		},
		{
			"bufferView":12,
			"componentType":5126,
			"count":4,
			"type":"VEC2"
		},
		{
			"bufferView":13,
			"componentType":5126,
			"count":4,
			"type":"VEC2"
		},
		{
			"bufferView":14,
			"componentType":5126,
			"count":4,
			"max":[
				7.315120697021484,
				5.951107025146484,
				3.814697265625e-06
			],
			"min":[
				7.315120697021484,
				-6.481578826904297,
				-4.984466552734375
			],
			"type":"VEC3"
		},
		{
			"bufferView":15,
			"componentType":5126,
			"count":4,
			"type":"VEC3"
		},
		{
			"bufferView":16,
			"componentType":5126,
			"count":4,
			"type":"VEC2"
		},
		{
			"bufferView":17,
			"componentType":5126,
			"count":4,
			"type":"VEC2"
		},
		{
			"bufferView":18,
			"componentType":5123,
			"count":6,
			"type":"SCALAR"
		},
		{
			"bufferView":19,
			"componentType":5126,
			"count":4,
			"max":[
				-7.390964508056641,
				5.951107025146484,
				3.814697265625e-06
			],
			"min":[
				-7.390964508056641,
				-6.481578826904297,
				-4.984466552734375
			],
			"type":"VEC3"
		},
		{
			"bufferView":20,
			"componentType":5126,
			"count":4,
			"type":"VEC3"
		},
		{
			"bufferView":21,
			"componentType":5126,
			"count":4,
			"type":"VEC2"
		},
		{
			"bufferView":22,
			"componentType":5126,
			"count":4,
			"type":"VEC2"
		},
		{
			"bufferView":23,
			"componentType":5123,
			"count":6,
			"type":"SCALAR"
		},
		{
			"bufferView":24,
			"componentType":5126,
			"count":4,
			"max":[
				-3.2929000854492188,
				6.023700714111328,
				-0.003936767578125
			],
			"min":[
				-5.755229949951172,
				6.023700714111328,
				-2.797626495361328
			],
			"type":"VEC3"
		},
		{
			"bufferView":25,
			"componentType":5126,
			"count":4,
			"type":"VEC3"
		},
		{
			"bufferView":26,
			"componentType":5126,
			"count":4,
			"type":"VEC2"
		},
		{
			"bufferView":27,
			"componentType":5126,
			"count":4,
			"type":"VEC2"
		},
		{
			"bufferView":28,
			"componentType":5123,
			"count":6,
			"type":"SCALAR"
		},
		{
			"bufferView":29,
			"componentType":5126,
			"count":4,
			"max":[
				-2.9700546264648438,
				2.0292205810546875,
				-4.984462738037109
			],
			"min":[
				-3.889728546142578,
				1.4544258117675781,
				-5.239654541015625
			],
			"type":"VEC3"
		},
		{
			"bufferView":30,
			"componentType":5126,
			"count":4,
			"type":"VEC3"
		},
		{
			"bufferView":31,
			"componentType":5126,
			"count":4,
			"type":"VEC2"
		},
		{
			"bufferView":32,
			"componentType":5126,
			"count":4,
			"type":"VEC2"
		},
		{
			"bufferView":33,
			"componentType":5123,
			"count":6,
			"type":"SCALAR"
		},
		{
			"bufferView":34,
			"componentType":5126,
			"count":4,
			"max":[
				-3.544849395751953,
				1.1095504760742188,
				-4.984462738037109
			],
			"min":[
				-4.4645233154296875,
				0.5347518920898438,
				-5.239654541015625
			],
			"type":"VEC3"
		},
		{
			"bufferView":35,
			"componentType":5126,
			"count":4,
			"type":"VEC3"
		},
		{
			"bufferView":36,
			"componentType":5126,
			"count":4,
			"type":"VEC2"
		},
		{
			"bufferView":37,
			"componentType":5126,
			"count":4,
			"type":"VEC2"
		},
		{
			"bufferView":38,
			"componentType":5123,
			"count":6,
			"type":"SCALAR"
		},
		{
			"bufferView":39,
			"componentType":5126,
			"count":4,
			"max":[
				-2.9700546264648438,
				1.4544258117675781,
				-4.984462738037109
			],
			"min":[
				-3.544849395751953,
				0.5347518920898438,
				-5.239654541015625
			],
			"type":"VEC3"
		},
		{
			"bufferView":40,
			"componentType":5126,
			"count":4,
			"type":"VEC3"
		},
		{
			"bufferView":41,
			"componentType":5126,
			"count":4,
			"type":"VEC2"
		},
		{
			"bufferView":42,
			"componentType":5126,
			"count":4,
			"type":"VEC2"
		},
		{
			"bufferView":43,
			"componentType":5123,
			"count":6,
			"type":"SCALAR"
		},
		{
			"bufferView":44,
			"componentType":5126,
			"count":4,
			"max":[
				-3.889728546142578,
				2.0292205810546875,
				-4.984462738037109
			],
			"min":[
				-4.4645233154296875,
				1.1095504760742188,
				-5.239654541015625
			],
			"type":"VEC3"
		},
		{
			"bufferView":45,
			"componentType":5126,
			"count":4,
			"type":"VEC3"
		},
		{
			"bufferView":46,
			"componentType":5126,
			"count":4,
			"type":"VEC2"
		},
		{
			"bufferView":47,
			"componentType":5126,
			"count":4,
			"type":"VEC2"
		},
		{
			"bufferView":48,
			"componentType":5123,
			"count":6,
			"type":"SCALAR"
		},
		{
			"bufferView":49,
			"componentType":5126,
			"count":16,
			"max":[
				-2.7976150512695312,
				-3.7762107849121094,
				-4.984458923339844
			],
			"min":[
				-3.6023292541503906,
				-4.580928802490234,
				-5.820606231689453
			],
			"type":"VEC3"
		},
		{
			"bufferView":50,
			"componentType":5126,
			"count":16,
			"type":"VEC3"
		},
		{
			"bufferView":51,
			"componentType":5126,
			"count":16,
			"type":"VEC2"
		},
		{
			"bufferView":52,
			"componentType":5126,
			"count":16,
			"type":"VEC2"
		},
		{
			"bufferView":53,
			"componentType":5123,
			"count":24,
			"type":"SCALAR"
		},
		{
			"bufferView":54,
			"componentType":5126,
			"count":4,
			"max":[
				0.5,
				0,
				0.5
			],
			"min":[
				-0.5,
				0,
				-0.5
			],
			"type":"VEC3"
		},
		{
			"bufferView":55,
			"componentType":5126,
			"count":4,
			"type":"VEC3"
		},
		{
			"bufferView":56,
			"componentType":5126,
			"count":4,
			"type":"VEC2"
		},
		{
			"bufferView":57,
			"componentType":5123,
			"count":6,
			"type":"SCALAR"
		}
	],
	"bufferViews":[
		{
			"buffer":0,
			"byteLength":684,
			"byteOffset":0,
			"target":34962
		},
		{
			"buffer":0,
			"byteLength":684,
			"byteOffset":684,
			"target":34962
		},
		{
			"buffer":0,
			"byteLength":456,
			"byteOffset":1368,
			"target":34962
		},
		{
			"buffer":0,
			"byteLength":456,
			"byteOffset":1824,
			"target":34962
		},
		{
			"buffer":0,
			"byteLength":204,
			"byteOffset":2280,
			"target":34963
		},
		{
			"buffer":0,
			"byteLength":48,
			"byteOffset":2484,
			"target":34962
		},
		{
			"buffer":0,
			"byteLength":48,
			"byteOffset":2532,
			"target":34962
		},
		{
			"buffer":0,
			"byteLength":32,
			"byteOffset":2580,
			"target":34962
		},
		{
			"buffer":0,
			"byteLength":32,
			"byteOffset":2612,
			"target":34962
		},
		{
			"buffer":0,
			"byteLength":12,
			"byteOffset":2644,
			"target":34963
		},
		{
			"buffer":0,
			"byteLength":48,
			"byteOffset":2656,
			"target":34962
		},
		{
			"buffer":0,
			"byteLength":48,
			"byteOffset":2704,
			"target":34962
		},
		{
			"buffer":0,
			"byteLength":32,
			"byteOffset":2752,
			"target":34962
		},
		{
			"buffer":0,
			"byteLength":32,
			"byteOffset":2784,
			"target":34962
		},
		{
			"buffer":0,
			"byteLength":48,
			"byteOffset":2816,
			"target":34962
		},
		{
			"buffer":0,
			"byteLength":48,
			"byteOffset":2864,
			"target":34962
		},
		{
			"buffer":0,
			"byteLength":32,
			"byteOffset":2912,
			"target":34962
		},
		{
			"buffer":0,
			"byteLength":32,
			"byteOffset":2944,
			"target":34962
		},
		{
			"buffer":0,
			"byteLength":12,
			"byteOffset":2976,
			"target":34963
		},
		{
			"buffer":0,
			"byteLength":48,
			"byteOffset":2988,
			"target":34962
		},
		{
			"buffer":0,
			"byteLength":48,
			"byteOffset":3036,
			"target":34962
		},
		{
			"buffer":0,
			"byteLength":32,
			"byteOffset":3084,
			"target":34962
		},
		{
			"buffer":0,
			"byteLength":32,
			"byteOffset":3116,
			"target":34962
		},
		{
			"buffer":0,
			"byteLength":12,
			"byteOffset":3148,
			"target":34963
		},
		{
			"buffer":0,
			"byteLength":48,
			"byteOffset":3160,
			"target":34962
		},
		{
			"buffer":0,
			"byteLength":48,
			"byteOffset":3208,
			"target":34962
		},
		{
			"buffer":0,
			"byteLength":32,
			"byteOffset":3256,
			"target":34962
		},
		{
			"buffer":0,
			"byteLength":32,
			"byteOffset":3288,
			"target":34962
		},
		{
			"buffer":0,
			"byteLength":12,
			"byteOffset":3320,
			"target":34963
		},
		{
			"buffer":0,
			"byteLength":48,
			"byteOffset":3332,
			"target":34962
		},
		{
			"buffer":0,
			"byteLength":48,
			"byteOffset":3380,
			"target":34962
		},
		{
			"buffer":0,
			"byteLength":32,
			"byteOffset":3428,
			"target":34962
		},
		{
			"buffer":0,
			"byteLength":32,
			"byteOffset":3460,
			"target":34962
		},
		{
			"buffer":0,
			"byteLength":12,
			"byteOffset":3492,
			"target":34963
		},
		{
			"buffer":0,
			"byteLength":48,
			"byteOffset":3504,
			"target":34962
		},
		{
			"buffer":0,
			"byteLength":48,
			"byteOffset":3552,
			"target":34962
		},
		{
			"buffer":0,
			"byteLength":32,
			"byteOffset":3600,
			"target":34962
		},
		{
			"buffer":0,
			"byteLength":32,
			"byteOffset":3632,
			"target":34962
		},
		{
			"buffer":0,
			"byteLength":12,
			"byteOffset":3664,
			"target":34963
		},
		{
			"buffer":0,
			"byteLength":48,
			"byteOffset":3676,
			"target":34962
		},
		{
			"buffer":0,
			"byteLength":48,
			"byteOffset":3724,
			"target":34962
		},
		{
			"buffer":0,
			"byteLength":32,
			"byteOffset":3772,
			"target":34962
		},
		{
			"buffer":0,
			"byteLength":32,
			"byteOffset":3804,
			"target":34962
		},
		{
			"buffer":0,
			"byteLength":12,
			"byteOffset":3836,
			"target":34963
		},
		{
			"buffer":0,
			"byteLength":48,
			"byteOffset":3848,
			"target":34962
		},
		{
			"buffer":0,
			"byteLength":48,
			"byteOffset":3896,
			"target":34962
		},
		{
			"buffer":0,
			"byteLength":32,
			"byteOffset":3944,
			"target":34962
		},
		{
			"buffer":0,
			"byteLength":32,
			"byteOffset":3976,
			"target":34962
		},
		{
			"buffer":0,
			"byteLength":12,
			"byteOffset":4008,
			"target":34963
		},
		{
			"buffer":0,
			"byteLength":192,
			"byteOffset":4020,
			"target":34962
		},
		{
			"buffer":0,
			"byteLength":192,
			"byteOffset":4212,
			"target":34962
		},
		{
			"buffer":0,
			"byteLength":128,
			"byteOffset":4404,
			"target":34962
		},
		{
			"buffer":0,
			"byteLength":128,
			"byteOffset":4532,
			"target":34962
		},
		{
			"buffer":0,
			"byteLength":48,
			"byteOffset":4660,
			"target":34963
		},
		{
			"buffer":0,
			"byteLength":48,
			"byteOffset":4708,
			"target":34962
		},
		{
			"buffer":0,
			"byteLength":48,
			"byteOffset":4756,
			"target":34962
		},
		{
			"buffer":0,
			"byteLength":32,
			"byteOffset":4804,
			"target":34962
		},
		{
			"buffer":0,
			"byteLength":12,
			"byteOffset":4836,
			"target":34963
		}
	],
	"samplers":[
		{
			"magFilter":9729,
			"minFilter":9987
		}
	],
	"buffers":[
		{
			"byteLength":4848,
			"uri":"building_2.bin"
		}
	]
}
