{
	"asset":{
		"generator":"Khronos glTF Blender I/O v4.1.63",
		"version":"2.0"
	},
	"scene":0,
	"scenes":[
		{
			"name":"Scene",
			"nodes":[
				0
			]
		}
	],
	"nodes":[
		{
			"mesh":0,
			"name":"Maxis-3d1-mesh-21",
			"rotation":[
				0.70710688829422,
				0,
				0,
				0.7071066498756409
			]
		}
	],
	"materials":[
		{
			"name":"matcolour-48.011",
			"pbrMetallicRoughness":{
				"baseColorFactor":[
					0.05882352963089943,
					0.05882352963089943,
					0.05882352963089943,
					1
				],
				"metallicFactor":0
			}
		},
		{
			"name":"mat2-43",
			"pbrMetallicRoughness":{
				"baseColorTexture":{
					"index":0
				},
				"metallicFactor":0
			}
		},
		{
			"name":"mat2-40.001",
			"pbrMetallicRoughness":{
				"baseColorTexture":{
					"index":1
				},
				"metallicFactor":0
			}
		},
		{
			"name":"mat2-42.001",
			"pbrMetallicRoughness":{
				"baseColorTexture":{
					"index":2
				},
				"metallicFactor":0
			}
		},
		{
			"name":"mat2-41.001",
			"pbrMetallicRoughness":{
				"baseColorTexture":{
					"index":3
				},
				"metallicFactor":0
			}
		}
	],
	"meshes":[
		{
			"name":"Maxis-3d1-mesh-21",
			"primitives":[
				{
					"attributes":{
						"POSITION":0,
						"NORMAL":1,
						"TEXCOORD_0":2
					},
					"indices":3,
					"material":0
				},
				{
					"attributes":{
						"POSITION":4,
						"NORMAL":5,
						"TEXCOORD_0":6
					},
					"indices":7,
					"material":1
				},
				{
					"attributes":{
						"POSITION":8,
						"NORMAL":9,
						"TEXCOORD_0":10
					},
					"indices":7,
					"material":2
				},
				{
					"attributes":{
						"POSITION":11,
						"NORMAL":12,
						"TEXCOORD_0":13
					},
					"indices":14,
					"material":3
				},
				{
					"attributes":{
						"POSITION":15,
						"NORMAL":16,
						"TEXCOORD_0":17
					},
					"indices":18,
					"material":4
				}
			]
		}
	],
	"textures":[
		{
			"sampler":0,
			"source":0
		},
		{
			"sampler":0,
			"source":1
		},
		{
			"sampler":0,
			"source":2
		},
		{
			"sampler":0,
			"source":3
		}
	],
	"images":[
		{
			"mimeType":"image/png",
			"name":"tex2-43",
			"uri":"../../../Textures/tex2-43.png"
		},
		{
			"mimeType":"image/png",
			"name":"tex2-40",
			"uri":"../../../Textures/tex2-40.png"
		},
		{
			"mimeType":"image/png",
			"name":"tex2-42",
			"uri":"../../../Textures/tex2-42.png"
		},
		{
			"mimeType":"image/png",
			"name":"tex2-41",
			"uri":"../../../Textures/tex2-41.png"
		}
	],
	"accessors":[
		{
			"bufferView":0,
			"componentType":5126,
			"count":76,
			"max":[
				6.900672912597656,
				6.868732452392578,
				-3.908100128173828
			],
			"min":[
				-6.952533721923828,
				-6.214851379394531,
				-5.355442047119141
			],
			"type":"VEC3"
		},
		{
			"bufferView":1,
			"componentType":5126,
			"count":76,
			"type":"VEC3"
		},
		{
			"bufferView":2,
			"componentType":5126,
			"count":76,
			"type":"VEC2"
		},
		{
			"bufferView":3,
			"componentType":5123,
			"count":150,
			"type":"SCALAR"
		},
		{
			"bufferView":4,
			"componentType":5126,
			"count":4,
			"max":[
				6.900672912597656,
				6.868732452392578,
				-3.814697265625e-06
			],
			"min":[
				-6.952533721923828,
				6.868732452392578,
				-3.908111572265625
			],
			"type":"VEC3"
		},
		{
			"bufferView":5,
			"componentType":5126,
			"count":4,
			"type":"VEC3"
		},
		{
			"bufferView":6,
			"componentType":5126,
			"count":4,
			"type":"VEC2"
		},
		{
			"bufferView":7,
			"componentType":5123,
			"count":6,
			"type":"SCALAR"
		},
		{
			"bufferView":8,
			"componentType":5126,
			"count":4,
			"max":[
				6.900672912597656,
				-6.214851379394531,
				3.814697265625e-06
			],
			"min":[
				-6.952533721923828,
				-6.214851379394531,
				-3.908100128173828
			],
			"type":"VEC3"
		},
		{
			"bufferView":9,
			"componentType":5126,
			"count":4,
			"type":"VEC3"
		},
		{
			"bufferView":10,
			"componentType":5126,
			"count":4,
			"type":"VEC2"
		},
		{
			"bufferView":11,
			"componentType":5126,
			"count":4,
			"max":[
				6.900672912597656,
				6.868732452392578,
				3.814697265625e-06
			],
			"min":[
				6.900672912597656,
				-6.214851379394531,
				-3.908111572265625
			],
			"type":"VEC3"
		},
		{
			"bufferView":12,
			"componentType":5126,
			"count":4,
			"type":"VEC3"
		},
		{
			"bufferView":13,
			"componentType":5126,
			"count":4,
			"type":"VEC2"
		},
		{
			"bufferView":14,
			"componentType":5123,
			"count":6,
			"type":"SCALAR"
		},
		{
			"bufferView":15,
			"componentType":5126,
			"count":4,
			"max":[
				-6.952533721923828,
				6.868732452392578,
				3.814697265625e-06
			],
			"min":[
				-6.952533721923828,
				-6.214851379394531,
				-3.908111572265625
			],
			"type":"VEC3"
		},
		{
			"bufferView":16,
			"componentType":5126,
			"count":4,
			"type":"VEC3"
		},
		{
			"bufferView":17,
			"componentType":5126,
			"count":4,
			"type":"VEC2"
		},
		{
			"bufferView":18,
			"componentType":5123,
			"count":6,
			"type":"SCALAR"
		}
	],
	"bufferViews":[
		{
			"buffer":0,
			"byteLength":912,
			"byteOffset":0,
			"target":34962
		},
		{
			"buffer":0,
			"byteLength":912,
			"byteOffset":912,
			"target":34962
		},
		{
			"buffer":0,
			"byteLength":608,
			"byteOffset":1824,
			"target":34962
		},
		{
			"buffer":0,
			"byteLength":300,
			"byteOffset":2432,
			"target":34963
		},
		{
			"buffer":0,
			"byteLength":48,
			"byteOffset":2732,
			"target":34962
		},
		{
			"buffer":0,
			"byteLength":48,
			"byteOffset":2780,
			"target":34962
		},
		{
			"buffer":0,
			"byteLength":32,
			"byteOffset":2828,
			"target":34962
		},
		{
			"buffer":0,
			"byteLength":12,
			"byteOffset":2860,
			"target":34963
		},
		{
			"buffer":0,
			"byteLength":48,
			"byteOffset":2872,
			"target":34962
		},
		{
			"buffer":0,
			"byteLength":48,
			"byteOffset":2920,
			"target":34962
		},
		{
			"buffer":0,
			"byteLength":32,
			"byteOffset":2968,
			"target":34962
		},
		{
			"buffer":0,
			"byteLength":48,
			"byteOffset":3000,
			"target":34962
		},
		{
			"buffer":0,
			"byteLength":48,
			"byteOffset":3048,
			"target":34962
		},
		{
			"buffer":0,
			"byteLength":32,
			"byteOffset":3096,
			"target":34962
		},
		{
			"buffer":0,
			"byteLength":12,
			"byteOffset":3128,
			"target":34963
		},
		{
			"buffer":0,
			"byteLength":48,
			"byteOffset":3140,
			"target":34962
		},
		{
			"buffer":0,
			"byteLength":48,
			"byteOffset":3188,
			"target":34962
		},
		{
			"buffer":0,
			"byteLength":32,
			"byteOffset":3236,
			"target":34962
		},
		{
			"buffer":0,
			"byteLength":12,
			"byteOffset":3268,
			"target":34963
		}
	],
	"samplers":[
		{
			"magFilter":9729,
			"minFilter":9987
		}
	],
	"buffers":[
		{
			"byteLength":3280,
			"uri":"building_1.bin"
		}
	]
}
