{
	"asset":{
		"generator":"Khronos glTF Blender I/O v4.3.47",
		"version":"2.0"
	},
	"scene":0,
	"scenes":[
		{
			"name":"Scene",
			"nodes":[
				0,
				1
			]
		}
	],
	"nodes":[
		{
			"mesh":0,
			"name":"Maxis-3d1-mesh-21",
			"rotation":[
				0.70710688829422,
				0,
				0,
				0.7071066498756409
			]
		},
		{
			"extras":{
				"gd_node":"Decal",
				"lower_fade":9,
				"upper_fade":10
			},
			"mesh":1,
			"name":"Ground_AO",
			"scale":[
				14.853206634521484,
				1,
				14.08358383178711
			],
			"translation":[
				-0.025930404663085938,
				-5.895553840673529e-06,
				0.32694125175476074
			]
		}
	],
	"materials":[
		{
			"name":"matcolour-48.011",
			"occlusionTexture":{
				"index":0,
				"texCoord":1
			},
			"pbrMetallicRoughness":{
				"baseColorFactor":[
					0.05882352963089943,
					0.05882352963089943,
					0.05882352963089943,
					1
				],
				"metallicFactor":0
			}
		},
		{
			"name":"mat2-43",
			"occlusionTexture":{
				"index":1,
				"texCoord":1
			},
			"pbrMetallicRoughness":{
				"baseColorTexture":{
					"index":2
				},
				"metallicFactor":0
			}
		},
		{
			"name":"mat2-40.001",
			"occlusionTexture":{
				"index":3,
				"texCoord":1
			},
			"pbrMetallicRoughness":{
				"baseColorTexture":{
					"index":4
				},
				"metallicFactor":0
			}
		},
		{
			"name":"mat2-42.001",
			"occlusionTexture":{
				"index":5,
				"texCoord":1
			},
			"pbrMetallicRoughness":{
				"baseColorTexture":{
					"index":6
				},
				"metallicFactor":0
			}
		},
		{
			"name":"mat2-41.001",
			"occlusionTexture":{
				"index":7,
				"texCoord":1
			},
			"pbrMetallicRoughness":{
				"baseColorTexture":{
					"index":8
				},
				"metallicFactor":0
			}
		},
		{
			"name":"Ground_AO",
			"occlusionTexture":{
				"index":9
			},
			"pbrMetallicRoughness":{
				"baseColorFactor":[
					0.800000011920929,
					0.800000011920929,
					0.800000011920929,
					1
				],
				"metallicFactor":0,
				"roughnessFactor":0.5
			}
		}
	],
	"meshes":[
		{
			"name":"Maxis-3d1-mesh-21",
			"primitives":[
				{
					"attributes":{
						"POSITION":0,
						"NORMAL":1,
						"TEXCOORD_0":2,
						"TEXCOORD_1":3
					},
					"indices":4,
					"material":0
				},
				{
					"attributes":{
						"POSITION":5,
						"NORMAL":6,
						"TEXCOORD_0":7,
						"TEXCOORD_1":8
					},
					"indices":9,
					"material":1
				},
				{
					"attributes":{
						"POSITION":10,
						"NORMAL":11,
						"TEXCOORD_0":12,
						"TEXCOORD_1":13
					},
					"indices":14,
					"material":2
				},
				{
					"attributes":{
						"POSITION":15,
						"NORMAL":16,
						"TEXCOORD_0":17,
						"TEXCOORD_1":18
					},
					"indices":19,
					"material":3
				},
				{
					"attributes":{
						"POSITION":20,
						"NORMAL":21,
						"TEXCOORD_0":22,
						"TEXCOORD_1":23
					},
					"indices":24,
					"material":4
				}
			]
		},
		{
			"name":"Plane",
			"primitives":[
				{
					"attributes":{
						"POSITION":25,
						"NORMAL":26,
						"TEXCOORD_0":27
					},
					"indices":28,
					"material":5
				}
			]
		}
	],
	"textures":[
		{
			"sampler":0,
			"source":0
		},
		{
			"sampler":0,
			"source":0
		},
		{
			"sampler":0,
			"source":1
		},
		{
			"sampler":0,
			"source":0
		},
		{
			"sampler":0,
			"source":2
		},
		{
			"sampler":0,
			"source":0
		},
		{
			"sampler":0,
			"source":3
		},
		{
			"sampler":0,
			"source":0
		},
		{
			"sampler":0,
			"source":4
		},
		{
			"sampler":0,
			"source":5
		}
	],
	"images":[
		{
			"mimeType":"image/png",
			"name":"building_1.png",
			"uri":"../../../Textures/ambient_occlusion/Buildings/Airport/building_1.png"
		},
		{
			"mimeType":"image/png",
			"name":"tex2-43",
			"uri":"../../../Textures/tex2-43.png"
		},
		{
			"mimeType":"image/png",
			"name":"tex2-40",
			"uri":"../../../Textures/tex2-40.png"
		},
		{
			"mimeType":"image/png",
			"name":"tex2-42",
			"uri":"../../../Textures/tex2-42.png"
		},
		{
			"mimeType":"image/png",
			"name":"tex2-41",
			"uri":"../../../Textures/tex2-41.png"
		},
		{
			"mimeType":"image/png",
			"name":"building_1_ground.png",
			"uri":"../../../Textures/ambient_occlusion/Buildings/Airport/building_1_ground.png"
		}
	],
	"accessors":[
		{
			"bufferView":0,
			"componentType":5126,
			"count":76,
			"max":[
				6.900672912597656,
				6.868732452392578,
				-3.908100128173828
			],
			"min":[
				-6.952533721923828,
				-6.214851379394531,
				-5.355442047119141
			],
			"type":"VEC3"
		},
		{
			"bufferView":1,
			"componentType":5126,
			"count":76,
			"type":"VEC3"
		},
		{
			"bufferView":2,
			"componentType":5126,
			"count":76,
			"type":"VEC2"
		},
		{
			"bufferView":3,
			"componentType":5126,
			"count":76,
			"type":"VEC2"
		},
		{
			"bufferView":4,
			"componentType":5123,
			"count":150,
			"type":"SCALAR"
		},
		{
			"bufferView":5,
			"componentType":5126,
			"count":4,
			"max":[
				6.900672912597656,
				6.868732452392578,
				-3.814697265625e-06
			],
			"min":[
				-6.952533721923828,
				6.868732452392578,
				-3.908111572265625
			],
			"type":"VEC3"
		},
		{
			"bufferView":6,
			"componentType":5126,
			"count":4,
			"type":"VEC3"
		},
		{
			"bufferView":7,
			"componentType":5126,
			"count":4,
			"type":"VEC2"
		},
		{
			"bufferView":8,
			"componentType":5126,
			"count":4,
			"type":"VEC2"
		},
		{
			"bufferView":9,
			"componentType":5123,
			"count":6,
			"type":"SCALAR"
		},
		{
			"bufferView":10,
			"componentType":5126,
			"count":4,
			"max":[
				6.900672912597656,
				-6.214851379394531,
				3.814697265625e-06
			],
			"min":[
				-6.952533721923828,
				-6.214851379394531,
				-3.908100128173828
			],
			"type":"VEC3"
		},
		{
			"bufferView":11,
			"componentType":5126,
			"count":4,
			"type":"VEC3"
		},
		{
			"bufferView":12,
			"componentType":5126,
			"count":4,
			"type":"VEC2"
		},
		{
			"bufferView":13,
			"componentType":5126,
			"count":4,
			"type":"VEC2"
		},
		{
			"bufferView":14,
			"componentType":5123,
			"count":6,
			"type":"SCALAR"
		},
		{
			"bufferView":15,
			"componentType":5126,
			"count":4,
			"max":[
				6.900672912597656,
				6.868732452392578,
				3.814697265625e-06
			],
			"min":[
				6.900672912597656,
				-6.214851379394531,
				-3.908111572265625
			],
			"type":"VEC3"
		},
		{
			"bufferView":16,
			"componentType":5126,
			"count":4,
			"type":"VEC3"
		},
		{
			"bufferView":17,
			"componentType":5126,
			"count":4,
			"type":"VEC2"
		},
		{
			"bufferView":18,
			"componentType":5126,
			"count":4,
			"type":"VEC2"
		},
		{
			"bufferView":19,
			"componentType":5123,
			"count":6,
			"type":"SCALAR"
		},
		{
			"bufferView":20,
			"componentType":5126,
			"count":4,
			"max":[
				-6.952533721923828,
				6.868732452392578,
				3.814697265625e-06
			],
			"min":[
				-6.952533721923828,
				-6.214851379394531,
				-3.908111572265625
			],
			"type":"VEC3"
		},
		{
			"bufferView":21,
			"componentType":5126,
			"count":4,
			"type":"VEC3"
		},
		{
			"bufferView":22,
			"componentType":5126,
			"count":4,
			"type":"VEC2"
		},
		{
			"bufferView":23,
			"componentType":5126,
			"count":4,
			"type":"VEC2"
		},
		{
			"bufferView":24,
			"componentType":5123,
			"count":6,
			"type":"SCALAR"
		},
		{
			"bufferView":25,
			"componentType":5126,
			"count":4,
			"max":[
				0.5,
				0,
				0.5
			],
			"min":[
				-0.5,
				0,
				-0.5
			],
			"type":"VEC3"
		},
		{
			"bufferView":26,
			"componentType":5126,
			"count":4,
			"type":"VEC3"
		},
		{
			"bufferView":27,
			"componentType":5126,
			"count":4,
			"type":"VEC2"
		},
		{
			"bufferView":28,
			"componentType":5123,
			"count":6,
			"type":"SCALAR"
		}
	],
	"bufferViews":[
		{
			"buffer":0,
			"byteLength":912,
			"byteOffset":0,
			"target":34962
		},
		{
			"buffer":0,
			"byteLength":912,
			"byteOffset":912,
			"target":34962
		},
		{
			"buffer":0,
			"byteLength":608,
			"byteOffset":1824,
			"target":34962
		},
		{
			"buffer":0,
			"byteLength":608,
			"byteOffset":2432,
			"target":34962
		},
		{
			"buffer":0,
			"byteLength":300,
			"byteOffset":3040,
			"target":34963
		},
		{
			"buffer":0,
			"byteLength":48,
			"byteOffset":3340,
			"target":34962
		},
		{
			"buffer":0,
			"byteLength":48,
			"byteOffset":3388,
			"target":34962
		},
		{
			"buffer":0,
			"byteLength":32,
			"byteOffset":3436,
			"target":34962
		},
		{
			"buffer":0,
			"byteLength":32,
			"byteOffset":3468,
			"target":34962
		},
		{
			"buffer":0,
			"byteLength":12,
			"byteOffset":3500,
			"target":34963
		},
		{
			"buffer":0,
			"byteLength":48,
			"byteOffset":3512,
			"target":34962
		},
		{
			"buffer":0,
			"byteLength":48,
			"byteOffset":3560,
			"target":34962
		},
		{
			"buffer":0,
			"byteLength":32,
			"byteOffset":3608,
			"target":34962
		},
		{
			"buffer":0,
			"byteLength":32,
			"byteOffset":3640,
			"target":34962
		},
		{
			"buffer":0,
			"byteLength":12,
			"byteOffset":3672,
			"target":34963
		},
		{
			"buffer":0,
			"byteLength":48,
			"byteOffset":3684,
			"target":34962
		},
		{
			"buffer":0,
			"byteLength":48,
			"byteOffset":3732,
			"target":34962
		},
		{
			"buffer":0,
			"byteLength":32,
			"byteOffset":3780,
			"target":34962
		},
		{
			"buffer":0,
			"byteLength":32,
			"byteOffset":3812,
			"target":34962
		},
		{
			"buffer":0,
			"byteLength":12,
			"byteOffset":3844,
			"target":34963
		},
		{
			"buffer":0,
			"byteLength":48,
			"byteOffset":3856,
			"target":34962
		},
		{
			"buffer":0,
			"byteLength":48,
			"byteOffset":3904,
			"target":34962
		},
		{
			"buffer":0,
			"byteLength":32,
			"byteOffset":3952,
			"target":34962
		},
		{
			"buffer":0,
			"byteLength":32,
			"byteOffset":3984,
			"target":34962
		},
		{
			"buffer":0,
			"byteLength":12,
			"byteOffset":4016,
			"target":34963
		},
		{
			"buffer":0,
			"byteLength":48,
			"byteOffset":4028,
			"target":34962
		},
		{
			"buffer":0,
			"byteLength":48,
			"byteOffset":4076,
			"target":34962
		},
		{
			"buffer":0,
			"byteLength":32,
			"byteOffset":4124,
			"target":34962
		},
		{
			"buffer":0,
			"byteLength":12,
			"byteOffset":4156,
			"target":34963
		}
	],
	"samplers":[
		{
			"magFilter":9729,
			"minFilter":9987
		}
	],
	"buffers":[
		{
			"byteLength":4168,
			"uri":"building_1.bin"
		}
	]
}
