{
    "asset" : {
        "generator" : "Khronos glTF Blender I/O v1.7.33",
        "version" : "2.0"
    },
    "scene" : 0,
    "scenes" : [
        {
            "name" : "Scene",
            "nodes" : [
                0
            ]
        }
    ],
    "nodes" : [
        {
            "mesh" : 0,
            "name" : "Maxis-3d1-mesh-18-tower",
            "rotation" : [
                0.7071068286895752,
                0,
                0,
                0.7071067094802856
            ]
        }
    ],
    "materials" : [
        {
            "doubleSided" : true,
            "name" : "matcolour-48.008",
            "pbrMetallicRoughness" : {
                "baseColorFactor" : [
                    0.05882352963089943,
                    0.05882352963089943,
                    0.05882352963089943,
                    1
                ],
                "metallicFactor" : 0
            }
        },
        {
            "doubleSided" : true,
            "name" : "mat2-30.001",
            "pbrMetallicRoughness" : {
                "baseColorTexture" : {
                    "index" : 0
                },
                "metallicFactor" : 0
            }
        },
        {
            "doubleSided" : true,
            "name" : "mat2-29.001",
            "pbrMetallicRoughness" : {
                "baseColorTexture" : {
                    "index" : 1
                },
                "metallicFactor" : 0
            }
        },
        {
            "doubleSided" : true,
            "name" : "mat2-31.001",
            "pbrMetallicRoughness" : {
                "baseColorTexture" : {
                    "index" : 2
                },
                "metallicFactor" : 0
            }
        },
        {
            "doubleSided" : true,
            "name" : "mat2-28.001",
            "pbrMetallicRoughness" : {
                "baseColorTexture" : {
                    "index" : 3
                },
                "metallicFactor" : 0
            }
        },
        {
            "doubleSided" : true,
            "name" : "mat40-46.002",
            "pbrMetallicRoughness" : {
                "baseColorTexture" : {
                    "index" : 4
                },
                "metallicFactor" : 0
            }
        },
        {
            "doubleSided" : true,
            "name" : "mat40-44.002",
            "pbrMetallicRoughness" : {
                "baseColorTexture" : {
                    "index" : 5
                },
                "metallicFactor" : 0
            }
        },
        {
            "doubleSided" : true,
            "name" : "mat40-45.003",
            "pbrMetallicRoughness" : {
                "baseColorTexture" : {
                    "index" : 6
                },
                "metallicFactor" : 0
            }
        }
    ],
    "meshes" : [
        {
            "name" : "Maxis-3d1-mesh-18-tower",
            "primitives" : [
                {
                    "attributes" : {
                        "POSITION" : 0,
                        "NORMAL" : 1,
                        "TEXCOORD_0" : 2
                    },
                    "indices" : 3,
                    "material" : 0
                },
                {
                    "attributes" : {
                        "POSITION" : 4,
                        "NORMAL" : 5,
                        "TEXCOORD_0" : 6
                    },
                    "indices" : 7,
                    "material" : 1
                },
                {
                    "attributes" : {
                        "POSITION" : 8,
                        "NORMAL" : 9,
                        "TEXCOORD_0" : 10
                    },
                    "indices" : 7,
                    "material" : 2
                },
                {
                    "attributes" : {
                        "POSITION" : 11,
                        "NORMAL" : 12,
                        "TEXCOORD_0" : 13
                    },
                    "indices" : 14,
                    "material" : 3
                },
                {
                    "attributes" : {
                        "POSITION" : 15,
                        "NORMAL" : 16,
                        "TEXCOORD_0" : 17
                    },
                    "indices" : 18,
                    "material" : 4
                },
                {
                    "attributes" : {
                        "POSITION" : 19,
                        "NORMAL" : 20,
                        "TEXCOORD_0" : 21
                    },
                    "indices" : 7,
                    "material" : 5
                },
                {
                    "attributes" : {
                        "POSITION" : 22,
                        "NORMAL" : 23,
                        "TEXCOORD_0" : 24
                    },
                    "indices" : 25,
                    "material" : 6
                },
                {
                    "attributes" : {
                        "POSITION" : 26,
                        "NORMAL" : 27,
                        "TEXCOORD_0" : 28
                    },
                    "indices" : 29,
                    "material" : 7
                },
                {
                    "attributes" : {
                        "POSITION" : 30
                    },
                    "material" : 0,
                    "mode" : 0
                }
            ]
        }
    ],
    "textures" : [
        {
            "sampler" : 0,
            "source" : 0
        },
        {
            "sampler" : 0,
            "source" : 1
        },
        {
            "sampler" : 0,
            "source" : 2
        },
        {
            "sampler" : 0,
            "source" : 3
        },
        {
            "sampler" : 0,
            "source" : 4
        },
        {
            "sampler" : 0,
            "source" : 5
        },
        {
            "sampler" : 0,
            "source" : 6
        }
    ],
    "images" : [
        {
            "mimeType" : "image/png",
            "name" : "tex2-30",
            "uri" : "../../../Textures/tex2-30.png"
        },
        {
            "mimeType" : "image/png",
            "name" : "tex2-29",
            "uri" : "../../../Textures/tex2-29.png"
        },
        {
            "mimeType" : "image/png",
            "name" : "tex2-31",
            "uri" : "../../../Textures/tex2-31.png"
        },
        {
            "mimeType" : "image/png",
            "name" : "tex2-28",
            "uri" : "../../../Textures/tex2-28.png"
        },
        {
            "mimeType" : "image/png",
            "name" : "tex40-46",
            "uri" : "../../../Textures/tex40-46.png"
        },
        {
            "mimeType" : "image/png",
            "name" : "tex40-44",
            "uri" : "../../../Textures/tex40-44.png"
        },
        {
            "mimeType" : "image/png",
            "name" : "tex40-45",
            "uri" : "../../../Textures/tex40-45.png"
        }
    ],
    "accessors" : [
        {
            "bufferView" : 0,
            "componentType" : 5126,
            "count" : 114,
            "max" : [
                5.090950012207031,
                4.881229400634766,
                -6.690238952636719
            ],
            "min" : [
                -4.962242126464844,
                -5.8038787841796875,
                -30.52752685546875
            ],
            "type" : "VEC3"
        },
        {
            "bufferView" : 1,
            "componentType" : 5126,
            "count" : 114,
            "type" : "VEC3"
        },
        {
            "bufferView" : 2,
            "componentType" : 5126,
            "count" : 114,
            "type" : "VEC2"
        },
        {
            "bufferView" : 3,
            "componentType" : 5123,
            "count" : 126,
            "type" : "SCALAR"
        },
        {
            "bufferView" : 4,
            "componentType" : 5126,
            "count" : 6,
            "max" : [
                5.090950012207031,
                4.881233215332031,
                -0.00868988037109375
            ],
            "min" : [
                5.090950012207031,
                -5.8038787841796875,
                -6.69024658203125
            ],
            "type" : "VEC3"
        },
        {
            "bufferView" : 5,
            "componentType" : 5126,
            "count" : 6,
            "type" : "VEC3"
        },
        {
            "bufferView" : 6,
            "componentType" : 5126,
            "count" : 6,
            "type" : "VEC2"
        },
        {
            "bufferView" : 7,
            "componentType" : 5123,
            "count" : 6,
            "type" : "SCALAR"
        },
        {
            "bufferView" : 8,
            "componentType" : 5126,
            "count" : 6,
            "max" : [
                -4.962242126464844,
                4.881233215332031,
                -0.00868988037109375
            ],
            "min" : [
                -4.962242126464844,
                -5.8038787841796875,
                -6.69024658203125
            ],
            "type" : "VEC3"
        },
        {
            "bufferView" : 9,
            "componentType" : 5126,
            "count" : 6,
            "type" : "VEC3"
        },
        {
            "bufferView" : 10,
            "componentType" : 5126,
            "count" : 6,
            "type" : "VEC2"
        },
        {
            "bufferView" : 11,
            "componentType" : 5126,
            "count" : 6,
            "max" : [
                5.090950012207031,
                4.881233215332031,
                -0.008697509765625
            ],
            "min" : [
                -4.962242126464844,
                4.881229400634766,
                -6.69024658203125
            ],
            "type" : "VEC3"
        },
        {
            "bufferView" : 12,
            "componentType" : 5126,
            "count" : 6,
            "type" : "VEC3"
        },
        {
            "bufferView" : 13,
            "componentType" : 5126,
            "count" : 6,
            "type" : "VEC2"
        },
        {
            "bufferView" : 14,
            "componentType" : 5123,
            "count" : 6,
            "type" : "SCALAR"
        },
        {
            "bufferView" : 15,
            "componentType" : 5126,
            "count" : 6,
            "max" : [
                5.090950012207031,
                -5.803874969482422,
                -0.00868988037109375
            ],
            "min" : [
                -4.962242126464844,
                -5.8038787841796875,
                -6.690242767333984
            ],
            "type" : "VEC3"
        },
        {
            "bufferView" : 16,
            "componentType" : 5126,
            "count" : 6,
            "type" : "VEC3"
        },
        {
            "bufferView" : 17,
            "componentType" : 5126,
            "count" : 6,
            "type" : "VEC2"
        },
        {
            "bufferView" : 18,
            "componentType" : 5123,
            "count" : 6,
            "type" : "SCALAR"
        },
        {
            "bufferView" : 19,
            "componentType" : 5126,
            "count" : 6,
            "max" : [
                4.48846435546875,
                4.735801696777344,
                -27.165653228759766
            ],
            "min" : [
                -4.489593505859375,
                3.586750030517578,
                -29.9873046875
            ],
            "type" : "VEC3"
        },
        {
            "bufferView" : 20,
            "componentType" : 5126,
            "count" : 6,
            "type" : "VEC3"
        },
        {
            "bufferView" : 21,
            "componentType" : 5126,
            "count" : 6,
            "type" : "VEC2"
        },
        {
            "bufferView" : 22,
            "componentType" : 5126,
            "count" : 6,
            "max" : [
                4.48846435546875,
                -4.030570983886719,
                -27.165653228759766
            ],
            "min" : [
                -4.489593505859375,
                -5.17962646484375,
                -29.9873046875
            ],
            "type" : "VEC3"
        },
        {
            "bufferView" : 23,
            "componentType" : 5126,
            "count" : 6,
            "type" : "VEC3"
        },
        {
            "bufferView" : 24,
            "componentType" : 5126,
            "count" : 6,
            "type" : "VEC2"
        },
        {
            "bufferView" : 25,
            "componentType" : 5123,
            "count" : 6,
            "type" : "SCALAR"
        },
        {
            "bufferView" : 26,
            "componentType" : 5126,
            "count" : 12,
            "max" : [
                4.48846435546875,
                4.735801696777344,
                -27.165653228759766
            ],
            "min" : [
                -4.489593505859375,
                -5.17962646484375,
                -29.9873046875
            ],
            "type" : "VEC3"
        },
        {
            "bufferView" : 27,
            "componentType" : 5126,
            "count" : 12,
            "type" : "VEC3"
        },
        {
            "bufferView" : 28,
            "componentType" : 5126,
            "count" : 12,
            "type" : "VEC2"
        },
        {
            "bufferView" : 29,
            "componentType" : 5123,
            "count" : 12,
            "type" : "SCALAR"
        },
        {
            "bufferView" : 30,
            "componentType" : 5126,
            "count" : 4,
            "max" : [
                4.509342193603516,
                4.811408996582031,
                -31.03268814086914
            ],
            "min" : [
                -4.363868713378906,
                -5.169090270996094,
                -31.084423065185547
            ],
            "type" : "VEC3"
        }
    ],
    "bufferViews" : [
        {
            "buffer" : 0,
            "byteLength" : 1368,
            "byteOffset" : 0
        },
        {
            "buffer" : 0,
            "byteLength" : 1368,
            "byteOffset" : 1368
        },
        {
            "buffer" : 0,
            "byteLength" : 912,
            "byteOffset" : 2736
        },
        {
            "buffer" : 0,
            "byteLength" : 252,
            "byteOffset" : 3648
        },
        {
            "buffer" : 0,
            "byteLength" : 72,
            "byteOffset" : 3900
        },
        {
            "buffer" : 0,
            "byteLength" : 72,
            "byteOffset" : 3972
        },
        {
            "buffer" : 0,
            "byteLength" : 48,
            "byteOffset" : 4044
        },
        {
            "buffer" : 0,
            "byteLength" : 12,
            "byteOffset" : 4092
        },
        {
            "buffer" : 0,
            "byteLength" : 72,
            "byteOffset" : 4104
        },
        {
            "buffer" : 0,
            "byteLength" : 72,
            "byteOffset" : 4176
        },
        {
            "buffer" : 0,
            "byteLength" : 48,
            "byteOffset" : 4248
        },
        {
            "buffer" : 0,
            "byteLength" : 72,
            "byteOffset" : 4296
        },
        {
            "buffer" : 0,
            "byteLength" : 72,
            "byteOffset" : 4368
        },
        {
            "buffer" : 0,
            "byteLength" : 48,
            "byteOffset" : 4440
        },
        {
            "buffer" : 0,
            "byteLength" : 12,
            "byteOffset" : 4488
        },
        {
            "buffer" : 0,
            "byteLength" : 72,
            "byteOffset" : 4500
        },
        {
            "buffer" : 0,
            "byteLength" : 72,
            "byteOffset" : 4572
        },
        {
            "buffer" : 0,
            "byteLength" : 48,
            "byteOffset" : 4644
        },
        {
            "buffer" : 0,
            "byteLength" : 12,
            "byteOffset" : 4692
        },
        {
            "buffer" : 0,
            "byteLength" : 72,
            "byteOffset" : 4704
        },
        {
            "buffer" : 0,
            "byteLength" : 72,
            "byteOffset" : 4776
        },
        {
            "buffer" : 0,
            "byteLength" : 48,
            "byteOffset" : 4848
        },
        {
            "buffer" : 0,
            "byteLength" : 72,
            "byteOffset" : 4896
        },
        {
            "buffer" : 0,
            "byteLength" : 72,
            "byteOffset" : 4968
        },
        {
            "buffer" : 0,
            "byteLength" : 48,
            "byteOffset" : 5040
        },
        {
            "buffer" : 0,
            "byteLength" : 12,
            "byteOffset" : 5088
        },
        {
            "buffer" : 0,
            "byteLength" : 144,
            "byteOffset" : 5100
        },
        {
            "buffer" : 0,
            "byteLength" : 144,
            "byteOffset" : 5244
        },
        {
            "buffer" : 0,
            "byteLength" : 96,
            "byteOffset" : 5388
        },
        {
            "buffer" : 0,
            "byteLength" : 24,
            "byteOffset" : 5484
        },
        {
            "buffer" : 0,
            "byteLength" : 48,
            "byteOffset" : 5508
        }
    ],
    "samplers" : [
        {
            "magFilter" : 9729,
            "minFilter" : 9987
        }
    ],
    "buffers" : [
        {
            "byteLength" : 5556,
            "uri" : "civilian_control_tower.bin"
        }
    ]
}
