{
	"asset":{
		"generator":"Khronos glTF Blender I/O v4.1.63",
		"version":"2.0"
	},
	"scene":0,
	"scenes":[
		{
			"name":"Scene",
			"nodes":[
				0
			]
		}
	],
	"nodes":[
		{
			"mesh":0,
			"name":"Maxis-3d1-mesh-18-tower",
			"rotation":[
				0.70710688829422,
				0,
				0,
				0.7071066498756409
			]
		}
	],
	"materials":[
		{
			"name":"matcolour-48.008",
			"pbrMetallicRoughness":{
				"baseColorFactor":[
					0.05882352963089943,
					0.05882352963089943,
					0.05882352963089943,
					1
				],
				"metallicFactor":0
			}
		},
		{
			"name":"mat2-30.001",
			"pbrMetallicRoughness":{
				"baseColorTexture":{
					"index":0
				},
				"metallicFactor":0
			}
		},
		{
			"name":"mat2-29.001",
			"pbrMetallicRoughness":{
				"baseColorTexture":{
					"index":1
				},
				"metallicFactor":0
			}
		},
		{
			"name":"mat2-31.001",
			"pbrMetallicRoughness":{
				"baseColorTexture":{
					"index":2
				},
				"metallicFactor":0
			}
		},
		{
			"name":"mat2-28.001",
			"pbrMetallicRoughness":{
				"baseColorTexture":{
					"index":3
				},
				"metallicFactor":0
			}
		},
		{
			"name":"mat40-46.003",
			"pbrMetallicRoughness":{
				"baseColorTexture":{
					"index":4
				},
				"metallicFactor":0
			}
		},
		{
			"name":"mat40-44.003",
			"pbrMetallicRoughness":{
				"baseColorTexture":{
					"index":5
				},
				"metallicFactor":0
			}
		},
		{
			"name":"mat40-45.003",
			"pbrMetallicRoughness":{
				"baseColorTexture":{
					"index":6
				},
				"metallicFactor":0
			}
		}
	],
	"meshes":[
		{
			"name":"Maxis-3d1-mesh-18-tower",
			"primitives":[
				{
					"attributes":{
						"POSITION":0,
						"NORMAL":1,
						"TEXCOORD_0":2
					},
					"indices":3,
					"material":0
				},
				{
					"attributes":{
						"POSITION":4,
						"NORMAL":5,
						"TEXCOORD_0":6
					},
					"indices":7,
					"material":1
				},
				{
					"attributes":{
						"POSITION":8,
						"NORMAL":9,
						"TEXCOORD_0":10
					},
					"indices":11,
					"material":2
				},
				{
					"attributes":{
						"POSITION":12,
						"NORMAL":13,
						"TEXCOORD_0":14
					},
					"indices":15,
					"material":3
				},
				{
					"attributes":{
						"POSITION":16,
						"NORMAL":17,
						"TEXCOORD_0":18
					},
					"indices":19,
					"material":4
				},
				{
					"attributes":{
						"POSITION":20,
						"NORMAL":21,
						"TEXCOORD_0":22
					},
					"indices":23,
					"material":5
				},
				{
					"attributes":{
						"POSITION":24,
						"NORMAL":25,
						"TEXCOORD_0":26
					},
					"indices":27,
					"material":6
				},
				{
					"attributes":{
						"POSITION":28,
						"NORMAL":29,
						"TEXCOORD_0":30
					},
					"indices":31,
					"material":7
				}
			]
		}
	],
	"textures":[
		{
			"sampler":0,
			"source":0
		},
		{
			"sampler":0,
			"source":1
		},
		{
			"sampler":0,
			"source":2
		},
		{
			"sampler":0,
			"source":3
		},
		{
			"sampler":0,
			"source":4
		},
		{
			"sampler":0,
			"source":5
		},
		{
			"sampler":0,
			"source":6
		}
	],
	"images":[
		{
			"mimeType":"image/png",
			"name":"tex2-30",
			"uri":"../../../Textures/tex2-30.png"
		},
		{
			"mimeType":"image/png",
			"name":"tex2-29",
			"uri":"../../../Textures/tex2-29.png"
		},
		{
			"mimeType":"image/png",
			"name":"tex2-31",
			"uri":"../../../Textures/tex2-31.png"
		},
		{
			"mimeType":"image/png",
			"name":"tex2-28",
			"uri":"../../../Textures/tex2-28.png"
		},
		{
			"mimeType":"image/png",
			"name":"tex40-46",
			"uri":"../../../Textures/tex40-46.png"
		},
		{
			"mimeType":"image/png",
			"name":"tex40-44",
			"uri":"../../../Textures/tex40-44.png"
		},
		{
			"mimeType":"image/png",
			"name":"tex40-45",
			"uri":"../../../Textures/tex40-45.png"
		}
	],
	"accessors":[
		{
			"bufferView":0,
			"componentType":5126,
			"count":69,
			"max":[
				5.090950012207031,
				4.881229400634766,
				-6.690238952636719
			],
			"min":[
				-4.962242126464844,
				-5.8038787841796875,
				-30.52752685546875
			],
			"type":"VEC3"
		},
		{
			"bufferView":1,
			"componentType":5126,
			"count":69,
			"type":"VEC3"
		},
		{
			"bufferView":2,
			"componentType":5126,
			"count":69,
			"type":"VEC2"
		},
		{
			"bufferView":3,
			"componentType":5123,
			"count":126,
			"type":"SCALAR"
		},
		{
			"bufferView":4,
			"componentType":5126,
			"count":4,
			"max":[
				5.090950012207031,
				4.881233215332031,
				-0.00868988037109375
			],
			"min":[
				5.090950012207031,
				-5.8038787841796875,
				-6.69024658203125
			],
			"type":"VEC3"
		},
		{
			"bufferView":5,
			"componentType":5126,
			"count":4,
			"type":"VEC3"
		},
		{
			"bufferView":6,
			"componentType":5126,
			"count":4,
			"type":"VEC2"
		},
		{
			"bufferView":7,
			"componentType":5123,
			"count":6,
			"type":"SCALAR"
		},
		{
			"bufferView":8,
			"componentType":5126,
			"count":4,
			"max":[
				-4.962242126464844,
				4.881233215332031,
				-0.00868988037109375
			],
			"min":[
				-4.962242126464844,
				-5.8038787841796875,
				-6.69024658203125
			],
			"type":"VEC3"
		},
		{
			"bufferView":9,
			"componentType":5126,
			"count":4,
			"type":"VEC3"
		},
		{
			"bufferView":10,
			"componentType":5126,
			"count":4,
			"type":"VEC2"
		},
		{
			"bufferView":11,
			"componentType":5123,
			"count":6,
			"type":"SCALAR"
		},
		{
			"bufferView":12,
			"componentType":5126,
			"count":4,
			"max":[
				5.090950012207031,
				4.881233215332031,
				-0.008697509765625
			],
			"min":[
				-4.962242126464844,
				4.881229400634766,
				-6.69024658203125
			],
			"type":"VEC3"
		},
		{
			"bufferView":13,
			"componentType":5126,
			"count":4,
			"type":"VEC3"
		},
		{
			"bufferView":14,
			"componentType":5126,
			"count":4,
			"type":"VEC2"
		},
		{
			"bufferView":15,
			"componentType":5123,
			"count":6,
			"type":"SCALAR"
		},
		{
			"bufferView":16,
			"componentType":5126,
			"count":4,
			"max":[
				5.090950012207031,
				-5.803874969482422,
				-0.00868988037109375
			],
			"min":[
				-4.962242126464844,
				-5.8038787841796875,
				-6.690242767333984
			],
			"type":"VEC3"
		},
		{
			"bufferView":17,
			"componentType":5126,
			"count":4,
			"type":"VEC3"
		},
		{
			"bufferView":18,
			"componentType":5126,
			"count":4,
			"type":"VEC2"
		},
		{
			"bufferView":19,
			"componentType":5123,
			"count":6,
			"type":"SCALAR"
		},
		{
			"bufferView":20,
			"componentType":5126,
			"count":4,
			"max":[
				4.48846435546875,
				4.735801696777344,
				-27.165653228759766
			],
			"min":[
				-4.489593505859375,
				3.586750030517578,
				-29.9873046875
			],
			"type":"VEC3"
		},
		{
			"bufferView":21,
			"componentType":5126,
			"count":4,
			"type":"VEC3"
		},
		{
			"bufferView":22,
			"componentType":5126,
			"count":4,
			"type":"VEC2"
		},
		{
			"bufferView":23,
			"componentType":5123,
			"count":6,
			"type":"SCALAR"
		},
		{
			"bufferView":24,
			"componentType":5126,
			"count":4,
			"max":[
				4.48846435546875,
				-4.030570983886719,
				-27.165653228759766
			],
			"min":[
				-4.489593505859375,
				-5.17962646484375,
				-29.9873046875
			],
			"type":"VEC3"
		},
		{
			"bufferView":25,
			"componentType":5126,
			"count":4,
			"type":"VEC3"
		},
		{
			"bufferView":26,
			"componentType":5126,
			"count":4,
			"type":"VEC2"
		},
		{
			"bufferView":27,
			"componentType":5123,
			"count":6,
			"type":"SCALAR"
		},
		{
			"bufferView":28,
			"componentType":5126,
			"count":8,
			"max":[
				4.48846435546875,
				4.735801696777344,
				-27.165653228759766
			],
			"min":[
				-4.489593505859375,
				-5.17962646484375,
				-29.9873046875
			],
			"type":"VEC3"
		},
		{
			"bufferView":29,
			"componentType":5126,
			"count":8,
			"type":"VEC3"
		},
		{
			"bufferView":30,
			"componentType":5126,
			"count":8,
			"type":"VEC2"
		},
		{
			"bufferView":31,
			"componentType":5123,
			"count":12,
			"type":"SCALAR"
		}
	],
	"bufferViews":[
		{
			"buffer":0,
			"byteLength":828,
			"byteOffset":0,
			"target":34962
		},
		{
			"buffer":0,
			"byteLength":828,
			"byteOffset":828,
			"target":34962
		},
		{
			"buffer":0,
			"byteLength":552,
			"byteOffset":1656,
			"target":34962
		},
		{
			"buffer":0,
			"byteLength":252,
			"byteOffset":2208,
			"target":34963
		},
		{
			"buffer":0,
			"byteLength":48,
			"byteOffset":2460,
			"target":34962
		},
		{
			"buffer":0,
			"byteLength":48,
			"byteOffset":2508,
			"target":34962
		},
		{
			"buffer":0,
			"byteLength":32,
			"byteOffset":2556,
			"target":34962
		},
		{
			"buffer":0,
			"byteLength":12,
			"byteOffset":2588,
			"target":34963
		},
		{
			"buffer":0,
			"byteLength":48,
			"byteOffset":2600,
			"target":34962
		},
		{
			"buffer":0,
			"byteLength":48,
			"byteOffset":2648,
			"target":34962
		},
		{
			"buffer":0,
			"byteLength":32,
			"byteOffset":2696,
			"target":34962
		},
		{
			"buffer":0,
			"byteLength":12,
			"byteOffset":2728,
			"target":34963
		},
		{
			"buffer":0,
			"byteLength":48,
			"byteOffset":2740,
			"target":34962
		},
		{
			"buffer":0,
			"byteLength":48,
			"byteOffset":2788,
			"target":34962
		},
		{
			"buffer":0,
			"byteLength":32,
			"byteOffset":2836,
			"target":34962
		},
		{
			"buffer":0,
			"byteLength":12,
			"byteOffset":2868,
			"target":34963
		},
		{
			"buffer":0,
			"byteLength":48,
			"byteOffset":2880,
			"target":34962
		},
		{
			"buffer":0,
			"byteLength":48,
			"byteOffset":2928,
			"target":34962
		},
		{
			"buffer":0,
			"byteLength":32,
			"byteOffset":2976,
			"target":34962
		},
		{
			"buffer":0,
			"byteLength":12,
			"byteOffset":3008,
			"target":34963
		},
		{
			"buffer":0,
			"byteLength":48,
			"byteOffset":3020,
			"target":34962
		},
		{
			"buffer":0,
			"byteLength":48,
			"byteOffset":3068,
			"target":34962
		},
		{
			"buffer":0,
			"byteLength":32,
			"byteOffset":3116,
			"target":34962
		},
		{
			"buffer":0,
			"byteLength":12,
			"byteOffset":3148,
			"target":34963
		},
		{
			"buffer":0,
			"byteLength":48,
			"byteOffset":3160,
			"target":34962
		},
		{
			"buffer":0,
			"byteLength":48,
			"byteOffset":3208,
			"target":34962
		},
		{
			"buffer":0,
			"byteLength":32,
			"byteOffset":3256,
			"target":34962
		},
		{
			"buffer":0,
			"byteLength":12,
			"byteOffset":3288,
			"target":34963
		},
		{
			"buffer":0,
			"byteLength":96,
			"byteOffset":3300,
			"target":34962
		},
		{
			"buffer":0,
			"byteLength":96,
			"byteOffset":3396,
			"target":34962
		},
		{
			"buffer":0,
			"byteLength":64,
			"byteOffset":3492,
			"target":34962
		},
		{
			"buffer":0,
			"byteLength":24,
			"byteOffset":3556,
			"target":34963
		}
	],
	"samplers":[
		{
			"magFilter":9729,
			"minFilter":9987
		}
	],
	"buffers":[
		{
			"byteLength":3580,
			"uri":"civilian_control_tower.bin"
		}
	]
}
