{
	"asset":{
		"generator":"Khronos glTF Blender I/O v4.3.47",
		"version":"2.0"
	},
	"scene":0,
	"scenes":[
		{
			"name":"Scene",
			"nodes":[
				0,
				1
			]
		}
	],
	"nodes":[
		{
			"mesh":0,
			"name":"Maxis-3d1-mesh-18-tower",
			"rotation":[
				0.70710688829422,
				0,
				0,
				0.7071066498756409
			]
		},
		{
			"extras":{
				"gd_node":"Decal",
				"lower_fade":9,
				"upper_fade":10
			},
			"mesh":1,
			"name":"Ground_AO",
			"scale":[
				11.053192138671875,
				1,
				11.68511962890625
			],
			"translation":[
				0.06435394287109375,
				0.008688400499522686,
				-0.4613182544708252
			]
		}
	],
	"materials":[
		{
			"name":"matcolour-48.008",
			"occlusionTexture":{
				"index":0,
				"texCoord":1
			},
			"pbrMetallicRoughness":{
				"baseColorFactor":[
					0.05882352963089943,
					0.05882352963089943,
					0.05882352963089943,
					1
				],
				"metallicFactor":0
			}
		},
		{
			"name":"mat2-30.001",
			"occlusionTexture":{
				"index":1,
				"texCoord":1
			},
			"pbrMetallicRoughness":{
				"baseColorTexture":{
					"index":2
				},
				"metallicFactor":0
			}
		},
		{
			"name":"mat2-29.001",
			"occlusionTexture":{
				"index":3,
				"texCoord":1
			},
			"pbrMetallicRoughness":{
				"baseColorTexture":{
					"index":4
				},
				"metallicFactor":0
			}
		},
		{
			"name":"mat2-31.001",
			"occlusionTexture":{
				"index":5,
				"texCoord":1
			},
			"pbrMetallicRoughness":{
				"baseColorTexture":{
					"index":6
				},
				"metallicFactor":0
			}
		},
		{
			"name":"mat2-28.001",
			"occlusionTexture":{
				"index":7,
				"texCoord":1
			},
			"pbrMetallicRoughness":{
				"baseColorTexture":{
					"index":8
				},
				"metallicFactor":0
			}
		},
		{
			"name":"mat40-46.003",
			"occlusionTexture":{
				"index":9,
				"texCoord":1
			},
			"pbrMetallicRoughness":{
				"baseColorTexture":{
					"index":10
				},
				"metallicFactor":0
			}
		},
		{
			"name":"mat40-44.003",
			"occlusionTexture":{
				"index":11,
				"texCoord":1
			},
			"pbrMetallicRoughness":{
				"baseColorTexture":{
					"index":12
				},
				"metallicFactor":0
			}
		},
		{
			"name":"mat40-45.003",
			"occlusionTexture":{
				"index":13,
				"texCoord":1
			},
			"pbrMetallicRoughness":{
				"baseColorTexture":{
					"index":14
				},
				"metallicFactor":0
			}
		},
		{
			"name":"Ground_AO",
			"occlusionTexture":{
				"index":15
			},
			"pbrMetallicRoughness":{
				"baseColorFactor":[
					0.800000011920929,
					0.800000011920929,
					0.800000011920929,
					1
				],
				"metallicFactor":0,
				"roughnessFactor":0.5
			}
		}
	],
	"meshes":[
		{
			"name":"Maxis-3d1-mesh-18-tower",
			"primitives":[
				{
					"attributes":{
						"POSITION":0,
						"NORMAL":1,
						"TEXCOORD_0":2,
						"TEXCOORD_1":3
					},
					"indices":4,
					"material":0
				},
				{
					"attributes":{
						"POSITION":5,
						"NORMAL":6,
						"TEXCOORD_0":7,
						"TEXCOORD_1":8
					},
					"indices":9,
					"material":1
				},
				{
					"attributes":{
						"POSITION":10,
						"NORMAL":11,
						"TEXCOORD_0":12,
						"TEXCOORD_1":13
					},
					"indices":14,
					"material":2
				},
				{
					"attributes":{
						"POSITION":15,
						"NORMAL":16,
						"TEXCOORD_0":17,
						"TEXCOORD_1":18
					},
					"indices":19,
					"material":3
				},
				{
					"attributes":{
						"POSITION":20,
						"NORMAL":21,
						"TEXCOORD_0":22,
						"TEXCOORD_1":23
					},
					"indices":24,
					"material":4
				},
				{
					"attributes":{
						"POSITION":25,
						"NORMAL":26,
						"TEXCOORD_0":27,
						"TEXCOORD_1":28
					},
					"indices":29,
					"material":5
				},
				{
					"attributes":{
						"POSITION":30,
						"NORMAL":31,
						"TEXCOORD_0":32,
						"TEXCOORD_1":33
					},
					"indices":34,
					"material":6
				},
				{
					"attributes":{
						"POSITION":35,
						"NORMAL":36,
						"TEXCOORD_0":37,
						"TEXCOORD_1":38
					},
					"indices":39,
					"material":7
				}
			]
		},
		{
			"name":"Plane",
			"primitives":[
				{
					"attributes":{
						"POSITION":40,
						"NORMAL":41,
						"TEXCOORD_0":42
					},
					"indices":43,
					"material":8
				}
			]
		}
	],
	"textures":[
		{
			"sampler":0,
			"source":0
		},
		{
			"sampler":0,
			"source":0
		},
		{
			"sampler":0,
			"source":1
		},
		{
			"sampler":0,
			"source":0
		},
		{
			"sampler":0,
			"source":2
		},
		{
			"sampler":0,
			"source":0
		},
		{
			"sampler":0,
			"source":3
		},
		{
			"sampler":0,
			"source":0
		},
		{
			"sampler":0,
			"source":4
		},
		{
			"sampler":0,
			"source":0
		},
		{
			"sampler":0,
			"source":5
		},
		{
			"sampler":0,
			"source":0
		},
		{
			"sampler":0,
			"source":6
		},
		{
			"sampler":0,
			"source":0
		},
		{
			"sampler":0,
			"source":7
		},
		{
			"sampler":0,
			"source":8
		}
	],
	"images":[
		{
			"mimeType":"image/png",
			"name":"civilian_control_tower.png",
			"uri":"../../../Textures/ambient_occlusion/Buildings/Airport/civilian_control_tower.png"
		},
		{
			"mimeType":"image/png",
			"name":"tex2-30",
			"uri":"../../../Textures/tex2-30.png"
		},
		{
			"mimeType":"image/png",
			"name":"tex2-29",
			"uri":"../../../Textures/tex2-29.png"
		},
		{
			"mimeType":"image/png",
			"name":"tex2-31",
			"uri":"../../../Textures/tex2-31.png"
		},
		{
			"mimeType":"image/png",
			"name":"tex2-28",
			"uri":"../../../Textures/tex2-28.png"
		},
		{
			"mimeType":"image/png",
			"name":"tex40-46",
			"uri":"../../../Textures/tex40-46.png"
		},
		{
			"mimeType":"image/png",
			"name":"tex40-44",
			"uri":"../../../Textures/tex40-44.png"
		},
		{
			"mimeType":"image/png",
			"name":"tex40-45",
			"uri":"../../../Textures/tex40-45.png"
		},
		{
			"mimeType":"image/png",
			"name":"civilian_control_tower_ground.png",
			"uri":"../../../Textures/ambient_occlusion/Buildings/Airport/civilian_control_tower_ground.png"
		}
	],
	"accessors":[
		{
			"bufferView":0,
			"componentType":5126,
			"count":66,
			"max":[
				5.090950012207031,
				4.881229400634766,
				-6.690238952636719
			],
			"min":[
				-4.962242126464844,
				-5.8038787841796875,
				-30.52752685546875
			],
			"type":"VEC3"
		},
		{
			"bufferView":1,
			"componentType":5126,
			"count":66,
			"type":"VEC3"
		},
		{
			"bufferView":2,
			"componentType":5126,
			"count":66,
			"type":"VEC2"
		},
		{
			"bufferView":3,
			"componentType":5126,
			"count":66,
			"type":"VEC2"
		},
		{
			"bufferView":4,
			"componentType":5123,
			"count":126,
			"type":"SCALAR"
		},
		{
			"bufferView":5,
			"componentType":5126,
			"count":4,
			"max":[
				5.090950012207031,
				4.881233215332031,
				-0.00868988037109375
			],
			"min":[
				5.090950012207031,
				-5.8038787841796875,
				-6.69024658203125
			],
			"type":"VEC3"
		},
		{
			"bufferView":6,
			"componentType":5126,
			"count":4,
			"type":"VEC3"
		},
		{
			"bufferView":7,
			"componentType":5126,
			"count":4,
			"type":"VEC2"
		},
		{
			"bufferView":8,
			"componentType":5126,
			"count":4,
			"type":"VEC2"
		},
		{
			"bufferView":9,
			"componentType":5123,
			"count":6,
			"type":"SCALAR"
		},
		{
			"bufferView":10,
			"componentType":5126,
			"count":4,
			"max":[
				-4.962242126464844,
				4.881233215332031,
				-0.00868988037109375
			],
			"min":[
				-4.962242126464844,
				-5.8038787841796875,
				-6.69024658203125
			],
			"type":"VEC3"
		},
		{
			"bufferView":11,
			"componentType":5126,
			"count":4,
			"type":"VEC3"
		},
		{
			"bufferView":12,
			"componentType":5126,
			"count":4,
			"type":"VEC2"
		},
		{
			"bufferView":13,
			"componentType":5126,
			"count":4,
			"type":"VEC2"
		},
		{
			"bufferView":14,
			"componentType":5123,
			"count":6,
			"type":"SCALAR"
		},
		{
			"bufferView":15,
			"componentType":5126,
			"count":4,
			"max":[
				5.090950012207031,
				4.881233215332031,
				-0.008697509765625
			],
			"min":[
				-4.962242126464844,
				4.881229400634766,
				-6.69024658203125
			],
			"type":"VEC3"
		},
		{
			"bufferView":16,
			"componentType":5126,
			"count":4,
			"type":"VEC3"
		},
		{
			"bufferView":17,
			"componentType":5126,
			"count":4,
			"type":"VEC2"
		},
		{
			"bufferView":18,
			"componentType":5126,
			"count":4,
			"type":"VEC2"
		},
		{
			"bufferView":19,
			"componentType":5123,
			"count":6,
			"type":"SCALAR"
		},
		{
			"bufferView":20,
			"componentType":5126,
			"count":4,
			"max":[
				5.090950012207031,
				-5.803874969482422,
				-0.00868988037109375
			],
			"min":[
				-4.962242126464844,
				-5.8038787841796875,
				-6.690242767333984
			],
			"type":"VEC3"
		},
		{
			"bufferView":21,
			"componentType":5126,
			"count":4,
			"type":"VEC3"
		},
		{
			"bufferView":22,
			"componentType":5126,
			"count":4,
			"type":"VEC2"
		},
		{
			"bufferView":23,
			"componentType":5126,
			"count":4,
			"type":"VEC2"
		},
		{
			"bufferView":24,
			"componentType":5123,
			"count":6,
			"type":"SCALAR"
		},
		{
			"bufferView":25,
			"componentType":5126,
			"count":4,
			"max":[
				4.48846435546875,
				4.735801696777344,
				-27.165653228759766
			],
			"min":[
				-4.489593505859375,
				3.586750030517578,
				-29.9873046875
			],
			"type":"VEC3"
		},
		{
			"bufferView":26,
			"componentType":5126,
			"count":4,
			"type":"VEC3"
		},
		{
			"bufferView":27,
			"componentType":5126,
			"count":4,
			"type":"VEC2"
		},
		{
			"bufferView":28,
			"componentType":5126,
			"count":4,
			"type":"VEC2"
		},
		{
			"bufferView":29,
			"componentType":5123,
			"count":6,
			"type":"SCALAR"
		},
		{
			"bufferView":30,
			"componentType":5126,
			"count":4,
			"max":[
				4.48846435546875,
				-4.030570983886719,
				-27.165653228759766
			],
			"min":[
				-4.489593505859375,
				-5.17962646484375,
				-29.9873046875
			],
			"type":"VEC3"
		},
		{
			"bufferView":31,
			"componentType":5126,
			"count":4,
			"type":"VEC3"
		},
		{
			"bufferView":32,
			"componentType":5126,
			"count":4,
			"type":"VEC2"
		},
		{
			"bufferView":33,
			"componentType":5126,
			"count":4,
			"type":"VEC2"
		},
		{
			"bufferView":34,
			"componentType":5123,
			"count":6,
			"type":"SCALAR"
		},
		{
			"bufferView":35,
			"componentType":5126,
			"count":8,
			"max":[
				4.48846435546875,
				4.735801696777344,
				-27.165653228759766
			],
			"min":[
				-4.489593505859375,
				-5.17962646484375,
				-29.9873046875
			],
			"type":"VEC3"
		},
		{
			"bufferView":36,
			"componentType":5126,
			"count":8,
			"type":"VEC3"
		},
		{
			"bufferView":37,
			"componentType":5126,
			"count":8,
			"type":"VEC2"
		},
		{
			"bufferView":38,
			"componentType":5126,
			"count":8,
			"type":"VEC2"
		},
		{
			"bufferView":39,
			"componentType":5123,
			"count":12,
			"type":"SCALAR"
		},
		{
			"bufferView":40,
			"componentType":5126,
			"count":4,
			"max":[
				0.5,
				0,
				0.5
			],
			"min":[
				-0.5,
				0,
				-0.5
			],
			"type":"VEC3"
		},
		{
			"bufferView":41,
			"componentType":5126,
			"count":4,
			"type":"VEC3"
		},
		{
			"bufferView":42,
			"componentType":5126,
			"count":4,
			"type":"VEC2"
		},
		{
			"bufferView":43,
			"componentType":5123,
			"count":6,
			"type":"SCALAR"
		}
	],
	"bufferViews":[
		{
			"buffer":0,
			"byteLength":792,
			"byteOffset":0,
			"target":34962
		},
		{
			"buffer":0,
			"byteLength":792,
			"byteOffset":792,
			"target":34962
		},
		{
			"buffer":0,
			"byteLength":528,
			"byteOffset":1584,
			"target":34962
		},
		{
			"buffer":0,
			"byteLength":528,
			"byteOffset":2112,
			"target":34962
		},
		{
			"buffer":0,
			"byteLength":252,
			"byteOffset":2640,
			"target":34963
		},
		{
			"buffer":0,
			"byteLength":48,
			"byteOffset":2892,
			"target":34962
		},
		{
			"buffer":0,
			"byteLength":48,
			"byteOffset":2940,
			"target":34962
		},
		{
			"buffer":0,
			"byteLength":32,
			"byteOffset":2988,
			"target":34962
		},
		{
			"buffer":0,
			"byteLength":32,
			"byteOffset":3020,
			"target":34962
		},
		{
			"buffer":0,
			"byteLength":12,
			"byteOffset":3052,
			"target":34963
		},
		{
			"buffer":0,
			"byteLength":48,
			"byteOffset":3064,
			"target":34962
		},
		{
			"buffer":0,
			"byteLength":48,
			"byteOffset":3112,
			"target":34962
		},
		{
			"buffer":0,
			"byteLength":32,
			"byteOffset":3160,
			"target":34962
		},
		{
			"buffer":0,
			"byteLength":32,
			"byteOffset":3192,
			"target":34962
		},
		{
			"buffer":0,
			"byteLength":12,
			"byteOffset":3224,
			"target":34963
		},
		{
			"buffer":0,
			"byteLength":48,
			"byteOffset":3236,
			"target":34962
		},
		{
			"buffer":0,
			"byteLength":48,
			"byteOffset":3284,
			"target":34962
		},
		{
			"buffer":0,
			"byteLength":32,
			"byteOffset":3332,
			"target":34962
		},
		{
			"buffer":0,
			"byteLength":32,
			"byteOffset":3364,
			"target":34962
		},
		{
			"buffer":0,
			"byteLength":12,
			"byteOffset":3396,
			"target":34963
		},
		{
			"buffer":0,
			"byteLength":48,
			"byteOffset":3408,
			"target":34962
		},
		{
			"buffer":0,
			"byteLength":48,
			"byteOffset":3456,
			"target":34962
		},
		{
			"buffer":0,
			"byteLength":32,
			"byteOffset":3504,
			"target":34962
		},
		{
			"buffer":0,
			"byteLength":32,
			"byteOffset":3536,
			"target":34962
		},
		{
			"buffer":0,
			"byteLength":12,
			"byteOffset":3568,
			"target":34963
		},
		{
			"buffer":0,
			"byteLength":48,
			"byteOffset":3580,
			"target":34962
		},
		{
			"buffer":0,
			"byteLength":48,
			"byteOffset":3628,
			"target":34962
		},
		{
			"buffer":0,
			"byteLength":32,
			"byteOffset":3676,
			"target":34962
		},
		{
			"buffer":0,
			"byteLength":32,
			"byteOffset":3708,
			"target":34962
		},
		{
			"buffer":0,
			"byteLength":12,
			"byteOffset":3740,
			"target":34963
		},
		{
			"buffer":0,
			"byteLength":48,
			"byteOffset":3752,
			"target":34962
		},
		{
			"buffer":0,
			"byteLength":48,
			"byteOffset":3800,
			"target":34962
		},
		{
			"buffer":0,
			"byteLength":32,
			"byteOffset":3848,
			"target":34962
		},
		{
			"buffer":0,
			"byteLength":32,
			"byteOffset":3880,
			"target":34962
		},
		{
			"buffer":0,
			"byteLength":12,
			"byteOffset":3912,
			"target":34963
		},
		{
			"buffer":0,
			"byteLength":96,
			"byteOffset":3924,
			"target":34962
		},
		{
			"buffer":0,
			"byteLength":96,
			"byteOffset":4020,
			"target":34962
		},
		{
			"buffer":0,
			"byteLength":64,
			"byteOffset":4116,
			"target":34962
		},
		{
			"buffer":0,
			"byteLength":64,
			"byteOffset":4180,
			"target":34962
		},
		{
			"buffer":0,
			"byteLength":24,
			"byteOffset":4244,
			"target":34963
		},
		{
			"buffer":0,
			"byteLength":48,
			"byteOffset":4268,
			"target":34962
		},
		{
			"buffer":0,
			"byteLength":48,
			"byteOffset":4316,
			"target":34962
		},
		{
			"buffer":0,
			"byteLength":32,
			"byteOffset":4364,
			"target":34962
		},
		{
			"buffer":0,
			"byteLength":12,
			"byteOffset":4396,
			"target":34963
		}
	],
	"samplers":[
		{
			"magFilter":9729,
			"minFilter":9987
		}
	],
	"buffers":[
		{
			"byteLength":4408,
			"uri":"civilian_control_tower.bin"
		}
	]
}
