{
	"asset":{
		"generator":"Khronos glTF Blender I/O v4.3.47",
		"version":"2.0"
	},
	"scene":0,
	"scenes":[
		{
			"name":"Scene",
			"nodes":[
				0,
				1
			]
		}
	],
	"nodes":[
		{
			"mesh":0,
			"name":"Maxis-3d1-mesh-25-building",
			"rotation":[
				0.70710688829422,
				0,
				0,
				0.7071066498756409
			]
		},
		{
			"extras":{
				"gd_node":"Decal",
				"lower_fade":9,
				"upper_fade":10
			},
			"mesh":1,
			"name":"Ground_AO",
			"scale":[
				14.165107727050781,
				1,
				15.858301162719727
			],
			"translation":[
				0.08415603637695312,
				-0.007265424355864525,
				-0.03137850761413574
			]
		}
	],
	"materials":[
		{
			"name":"matcolour-128.003",
			"occlusionTexture":{
				"index":0,
				"texCoord":1
			},
			"pbrMetallicRoughness":{
				"baseColorFactor":[
					0.12156862765550613,
					0.08235294371843338,
					0.062745101749897,
					1
				],
				"metallicFactor":0
			}
		},
		{
			"name":"mat2-40.002",
			"occlusionTexture":{
				"index":1,
				"texCoord":1
			},
			"pbrMetallicRoughness":{
				"baseColorTexture":{
					"index":2
				},
				"metallicFactor":0
			}
		},
		{
			"name":"mat40-54.008",
			"occlusionTexture":{
				"index":3,
				"texCoord":1
			},
			"pbrMetallicRoughness":{
				"baseColorTexture":{
					"index":4
				},
				"metallicFactor":0
			}
		},
		{
			"name":"mat40-53.008",
			"occlusionTexture":{
				"index":5,
				"texCoord":1
			},
			"pbrMetallicRoughness":{
				"baseColorTexture":{
					"index":6
				},
				"metallicFactor":0
			}
		},
		{
			"name":"mat40-55.005",
			"occlusionTexture":{
				"index":7,
				"texCoord":1
			},
			"pbrMetallicRoughness":{
				"baseColorTexture":{
					"index":8
				},
				"metallicFactor":0
			}
		},
		{
			"name":"mat40-52.006",
			"occlusionTexture":{
				"index":9,
				"texCoord":1
			},
			"pbrMetallicRoughness":{
				"baseColorTexture":{
					"index":10
				},
				"metallicFactor":0
			}
		},
		{
			"name":"mat40-38.002",
			"occlusionTexture":{
				"index":11,
				"texCoord":1
			},
			"pbrMetallicRoughness":{
				"baseColorTexture":{
					"index":12
				},
				"metallicFactor":0
			}
		},
		{
			"name":"mat40-37.002",
			"occlusionTexture":{
				"index":13,
				"texCoord":1
			},
			"pbrMetallicRoughness":{
				"baseColorTexture":{
					"index":14
				},
				"metallicFactor":0
			}
		},
		{
			"name":"mat40-36.005",
			"occlusionTexture":{
				"index":15,
				"texCoord":1
			},
			"pbrMetallicRoughness":{
				"baseColorTexture":{
					"index":16
				},
				"metallicFactor":0
			}
		},
		{
			"name":"mat40-39.006",
			"occlusionTexture":{
				"index":17,
				"texCoord":1
			},
			"pbrMetallicRoughness":{
				"baseColorTexture":{
					"index":18
				},
				"metallicFactor":0
			}
		},
		{
			"name":"mat40-62.003",
			"occlusionTexture":{
				"index":19,
				"texCoord":1
			},
			"pbrMetallicRoughness":{
				"baseColorTexture":{
					"index":20
				},
				"metallicFactor":0
			}
		},
		{
			"name":"Ground_AO",
			"occlusionTexture":{
				"index":21
			},
			"pbrMetallicRoughness":{
				"baseColorFactor":[
					0.800000011920929,
					0.800000011920929,
					0.800000011920929,
					1
				],
				"metallicFactor":0,
				"roughnessFactor":0.5
			}
		}
	],
	"meshes":[
		{
			"name":"Maxis-3d1-mesh-25-building",
			"primitives":[
				{
					"attributes":{
						"POSITION":0,
						"NORMAL":1,
						"TEXCOORD_0":2,
						"TEXCOORD_1":3
					},
					"indices":4,
					"material":0
				},
				{
					"attributes":{
						"POSITION":5,
						"NORMAL":6,
						"TEXCOORD_0":7,
						"TEXCOORD_1":8
					},
					"indices":9,
					"material":1
				},
				{
					"attributes":{
						"POSITION":10,
						"NORMAL":11,
						"TEXCOORD_0":12,
						"TEXCOORD_1":13
					},
					"indices":14,
					"material":2
				},
				{
					"attributes":{
						"POSITION":15,
						"NORMAL":16,
						"TEXCOORD_0":17,
						"TEXCOORD_1":18
					},
					"indices":19,
					"material":3
				},
				{
					"attributes":{
						"POSITION":20,
						"NORMAL":21,
						"TEXCOORD_0":22,
						"TEXCOORD_1":23
					},
					"indices":24,
					"material":4
				},
				{
					"attributes":{
						"POSITION":25,
						"NORMAL":26,
						"TEXCOORD_0":27,
						"TEXCOORD_1":28
					},
					"indices":29,
					"material":5
				},
				{
					"attributes":{
						"POSITION":30,
						"NORMAL":31,
						"TEXCOORD_0":32,
						"TEXCOORD_1":33
					},
					"indices":34,
					"material":6
				},
				{
					"attributes":{
						"POSITION":35,
						"NORMAL":36,
						"TEXCOORD_0":37,
						"TEXCOORD_1":38
					},
					"indices":39,
					"material":7
				},
				{
					"attributes":{
						"POSITION":40,
						"NORMAL":41,
						"TEXCOORD_0":42,
						"TEXCOORD_1":43
					},
					"indices":44,
					"material":8
				},
				{
					"attributes":{
						"POSITION":45,
						"NORMAL":46,
						"TEXCOORD_0":47,
						"TEXCOORD_1":48
					},
					"indices":49,
					"material":9
				},
				{
					"attributes":{
						"POSITION":50,
						"NORMAL":51,
						"TEXCOORD_0":52,
						"TEXCOORD_1":53
					},
					"indices":54,
					"material":10
				}
			]
		},
		{
			"name":"Plane",
			"primitives":[
				{
					"attributes":{
						"POSITION":55,
						"NORMAL":56,
						"TEXCOORD_0":57
					},
					"indices":19,
					"material":11
				}
			]
		}
	],
	"textures":[
		{
			"sampler":0,
			"source":0
		},
		{
			"sampler":0,
			"source":0
		},
		{
			"sampler":0,
			"source":1
		},
		{
			"sampler":0,
			"source":0
		},
		{
			"sampler":0,
			"source":2
		},
		{
			"sampler":0,
			"source":0
		},
		{
			"sampler":0,
			"source":3
		},
		{
			"sampler":0,
			"source":0
		},
		{
			"sampler":0,
			"source":4
		},
		{
			"sampler":0,
			"source":0
		},
		{
			"sampler":0,
			"source":5
		},
		{
			"sampler":0,
			"source":0
		},
		{
			"sampler":0,
			"source":6
		},
		{
			"sampler":0,
			"source":0
		},
		{
			"sampler":0,
			"source":7
		},
		{
			"sampler":0,
			"source":0
		},
		{
			"sampler":0,
			"source":8
		},
		{
			"sampler":0,
			"source":0
		},
		{
			"sampler":0,
			"source":9
		},
		{
			"sampler":0,
			"source":0
		},
		{
			"sampler":0,
			"source":10
		},
		{
			"sampler":0,
			"source":11
		}
	],
	"images":[
		{
			"mimeType":"image/png",
			"name":"hangar_1.png",
			"uri":"../../../Textures/ambient_occlusion/Buildings/Airport/hangar_1.png"
		},
		{
			"mimeType":"image/png",
			"name":"tex2-40",
			"uri":"../../../Textures/tex2-40.png"
		},
		{
			"mimeType":"image/png",
			"name":"tex40-54",
			"uri":"../../../Textures/tex40-54.png"
		},
		{
			"mimeType":"image/png",
			"name":"tex40-53",
			"uri":"../../../Textures/tex40-53.png"
		},
		{
			"mimeType":"image/png",
			"name":"tex40-55",
			"uri":"../../../Textures/tex40-55.png"
		},
		{
			"mimeType":"image/png",
			"name":"tex40-52",
			"uri":"../../../Textures/tex40-52.png"
		},
		{
			"mimeType":"image/png",
			"name":"tex40-38",
			"uri":"../../../Textures/tex40-38.png"
		},
		{
			"mimeType":"image/png",
			"name":"tex40-37",
			"uri":"../../../Textures/tex40-37.png"
		},
		{
			"mimeType":"image/png",
			"name":"tex40-36",
			"uri":"../../../Textures/tex40-36.png"
		},
		{
			"mimeType":"image/png",
			"name":"tex40-39",
			"uri":"../../../Textures/tex40-39.png"
		},
		{
			"mimeType":"image/png",
			"name":"tex40-62",
			"uri":"../../../Textures/tex40-62.png"
		},
		{
			"mimeType":"image/png",
			"name":"hangar_1_ground.png",
			"uri":"../../../Textures/ambient_occlusion/Buildings/Airport/hangar_1_ground.png"
		}
	],
	"accessors":[
		{
			"bufferView":0,
			"componentType":5126,
			"count":37,
			"max":[
				6.640361785888672,
				7.3101654052734375,
				-4.540767669677734
			],
			"min":[
				-6.4983978271484375,
				-7.460529327392578,
				-8.58346939086914
			],
			"type":"VEC3"
		},
		{
			"bufferView":1,
			"componentType":5126,
			"count":37,
			"type":"VEC3"
		},
		{
			"bufferView":2,
			"componentType":5126,
			"count":37,
			"type":"VEC2"
		},
		{
			"bufferView":3,
			"componentType":5126,
			"count":37,
			"type":"VEC2"
		},
		{
			"bufferView":4,
			"componentType":5123,
			"count":72,
			"type":"SCALAR"
		},
		{
			"bufferView":5,
			"componentType":5126,
			"count":8,
			"max":[
				6.666709899902344,
				7.397769927978516,
				-0.01186370849609375
			],
			"min":[
				0.35540008544921875,
				0.2334442138671875,
				-2.5385475158691406
			],
			"type":"VEC3"
		},
		{
			"bufferView":6,
			"componentType":5126,
			"count":8,
			"type":"VEC3"
		},
		{
			"bufferView":7,
			"componentType":5126,
			"count":8,
			"type":"VEC2"
		},
		{
			"bufferView":8,
			"componentType":5126,
			"count":8,
			"type":"VEC2"
		},
		{
			"bufferView":9,
			"componentType":5123,
			"count":12,
			"type":"SCALAR"
		},
		{
			"bufferView":10,
			"componentType":5126,
			"count":4,
			"max":[
				6.640361785888672,
				7.310169219970703,
				0.00726318359375
			],
			"min":[
				6.640361785888672,
				-7.4605255126953125,
				-4.540771484375
			],
			"type":"VEC3"
		},
		{
			"bufferView":11,
			"componentType":5126,
			"count":4,
			"type":"VEC3"
		},
		{
			"bufferView":12,
			"componentType":5126,
			"count":4,
			"type":"VEC2"
		},
		{
			"bufferView":13,
			"componentType":5126,
			"count":4,
			"type":"VEC2"
		},
		{
			"bufferView":14,
			"componentType":5123,
			"count":6,
			"type":"SCALAR"
		},
		{
			"bufferView":15,
			"componentType":5126,
			"count":4,
			"max":[
				-6.4983978271484375,
				7.310169219970703,
				0.00726318359375
			],
			"min":[
				-6.4983978271484375,
				-7.4605255126953125,
				-4.540771484375
			],
			"type":"VEC3"
		},
		{
			"bufferView":16,
			"componentType":5126,
			"count":4,
			"type":"VEC3"
		},
		{
			"bufferView":17,
			"componentType":5126,
			"count":4,
			"type":"VEC2"
		},
		{
			"bufferView":18,
			"componentType":5126,
			"count":4,
			"type":"VEC2"
		},
		{
			"bufferView":19,
			"componentType":5123,
			"count":6,
			"type":"SCALAR"
		},
		{
			"bufferView":20,
			"componentType":5126,
			"count":9,
			"max":[
				6.640361785888672,
				7.310169219970703,
				0.00725555419921875
			],
			"min":[
				-6.4983978271484375,
				7.3101654052734375,
				-8.58346939086914
			],
			"type":"VEC3"
		},
		{
			"bufferView":21,
			"componentType":5126,
			"count":9,
			"type":"VEC3"
		},
		{
			"bufferView":22,
			"componentType":5126,
			"count":9,
			"type":"VEC2"
		},
		{
			"bufferView":23,
			"componentType":5126,
			"count":9,
			"type":"VEC2"
		},
		{
			"bufferView":24,
			"componentType":5123,
			"count":21,
			"type":"SCALAR"
		},
		{
			"bufferView":25,
			"componentType":5126,
			"count":9,
			"max":[
				6.640361785888672,
				-7.4605255126953125,
				0.00726318359375
			],
			"min":[
				-6.4983978271484375,
				-7.460529327392578,
				-8.58346176147461
			],
			"type":"VEC3"
		},
		{
			"bufferView":26,
			"componentType":5126,
			"count":9,
			"type":"VEC3"
		},
		{
			"bufferView":27,
			"componentType":5126,
			"count":9,
			"type":"VEC2"
		},
		{
			"bufferView":28,
			"componentType":5126,
			"count":9,
			"type":"VEC2"
		},
		{
			"bufferView":29,
			"componentType":5123,
			"count":21,
			"type":"SCALAR"
		},
		{
			"bufferView":30,
			"componentType":5126,
			"count":8,
			"max":[
				5.018032073974609,
				5.566337585449219,
				-7.268379211425781
			],
			"min":[
				4.968669891357422,
				3.531574249267578,
				-8.38076400756836
			],
			"type":"VEC3"
		},
		{
			"bufferView":31,
			"componentType":5126,
			"count":8,
			"type":"VEC3"
		},
		{
			"bufferView":32,
			"componentType":5126,
			"count":8,
			"type":"VEC2"
		},
		{
			"bufferView":33,
			"componentType":5126,
			"count":8,
			"type":"VEC2"
		},
		{
			"bufferView":34,
			"componentType":5123,
			"count":12,
			"type":"SCALAR"
		},
		{
			"bufferView":35,
			"componentType":5126,
			"count":8,
			"max":[
				4.475063323974609,
				5.516975402832031,
				-7.6461639404296875
			],
			"min":[
				4.425701141357422,
				3.4822120666503906,
				-8.38076400756836
			],
			"type":"VEC3"
		},
		{
			"bufferView":36,
			"componentType":5126,
			"count":8,
			"type":"VEC3"
		},
		{
			"bufferView":37,
			"componentType":5126,
			"count":8,
			"type":"VEC2"
		},
		{
			"bufferView":38,
			"componentType":5126,
			"count":8,
			"type":"VEC2"
		},
		{
			"bufferView":39,
			"componentType":5123,
			"count":12,
			"type":"SCALAR"
		},
		{
			"bufferView":40,
			"componentType":5126,
			"count":8,
			"max":[
				5.018032073974609,
				5.023368835449219,
				-7.268379211425781
			],
			"min":[
				4.475063323974609,
				3.4822120666503906,
				-8.38076400756836
			],
			"type":"VEC3"
		},
		{
			"bufferView":41,
			"componentType":5126,
			"count":8,
			"type":"VEC3"
		},
		{
			"bufferView":42,
			"componentType":5126,
			"count":8,
			"type":"VEC2"
		},
		{
			"bufferView":43,
			"componentType":5126,
			"count":8,
			"type":"VEC2"
		},
		{
			"bufferView":44,
			"componentType":5123,
			"count":12,
			"type":"SCALAR"
		},
		{
			"bufferView":45,
			"componentType":5126,
			"count":8,
			"max":[
				4.968669891357422,
				5.566337585449219,
				-7.302722930908203
			],
			"min":[
				4.425701141357422,
				4.025184631347656,
				-8.38076400756836
			],
			"type":"VEC3"
		},
		{
			"bufferView":46,
			"componentType":5126,
			"count":8,
			"type":"VEC3"
		},
		{
			"bufferView":47,
			"componentType":5126,
			"count":8,
			"type":"VEC2"
		},
		{
			"bufferView":48,
			"componentType":5126,
			"count":8,
			"type":"VEC2"
		},
		{
			"bufferView":49,
			"componentType":5123,
			"count":12,
			"type":"SCALAR"
		},
		{
			"bufferView":50,
			"componentType":5126,
			"count":8,
			"max":[
				5.018032073974609,
				5.566337585449219,
				-8.38076400756836
			],
			"min":[
				4.425701141357422,
				3.4822158813476562,
				-8.38076400756836
			],
			"type":"VEC3"
		},
		{
			"bufferView":51,
			"componentType":5126,
			"count":8,
			"type":"VEC3"
		},
		{
			"bufferView":52,
			"componentType":5126,
			"count":8,
			"type":"VEC2"
		},
		{
			"bufferView":53,
			"componentType":5126,
			"count":8,
			"type":"VEC2"
		},
		{
			"bufferView":54,
			"componentType":5123,
			"count":12,
			"type":"SCALAR"
		},
		{
			"bufferView":55,
			"componentType":5126,
			"count":4,
			"max":[
				0.5,
				0,
				0.5
			],
			"min":[
				-0.5,
				0,
				-0.5
			],
			"type":"VEC3"
		},
		{
			"bufferView":56,
			"componentType":5126,
			"count":4,
			"type":"VEC3"
		},
		{
			"bufferView":57,
			"componentType":5126,
			"count":4,
			"type":"VEC2"
		}
	],
	"bufferViews":[
		{
			"buffer":0,
			"byteLength":444,
			"byteOffset":0,
			"target":34962
		},
		{
			"buffer":0,
			"byteLength":444,
			"byteOffset":444,
			"target":34962
		},
		{
			"buffer":0,
			"byteLength":296,
			"byteOffset":888,
			"target":34962
		},
		{
			"buffer":0,
			"byteLength":296,
			"byteOffset":1184,
			"target":34962
		},
		{
			"buffer":0,
			"byteLength":144,
			"byteOffset":1480,
			"target":34963
		},
		{
			"buffer":0,
			"byteLength":96,
			"byteOffset":1624,
			"target":34962
		},
		{
			"buffer":0,
			"byteLength":96,
			"byteOffset":1720,
			"target":34962
		},
		{
			"buffer":0,
			"byteLength":64,
			"byteOffset":1816,
			"target":34962
		},
		{
			"buffer":0,
			"byteLength":64,
			"byteOffset":1880,
			"target":34962
		},
		{
			"buffer":0,
			"byteLength":24,
			"byteOffset":1944,
			"target":34963
		},
		{
			"buffer":0,
			"byteLength":48,
			"byteOffset":1968,
			"target":34962
		},
		{
			"buffer":0,
			"byteLength":48,
			"byteOffset":2016,
			"target":34962
		},
		{
			"buffer":0,
			"byteLength":32,
			"byteOffset":2064,
			"target":34962
		},
		{
			"buffer":0,
			"byteLength":32,
			"byteOffset":2096,
			"target":34962
		},
		{
			"buffer":0,
			"byteLength":12,
			"byteOffset":2128,
			"target":34963
		},
		{
			"buffer":0,
			"byteLength":48,
			"byteOffset":2140,
			"target":34962
		},
		{
			"buffer":0,
			"byteLength":48,
			"byteOffset":2188,
			"target":34962
		},
		{
			"buffer":0,
			"byteLength":32,
			"byteOffset":2236,
			"target":34962
		},
		{
			"buffer":0,
			"byteLength":32,
			"byteOffset":2268,
			"target":34962
		},
		{
			"buffer":0,
			"byteLength":12,
			"byteOffset":2300,
			"target":34963
		},
		{
			"buffer":0,
			"byteLength":108,
			"byteOffset":2312,
			"target":34962
		},
		{
			"buffer":0,
			"byteLength":108,
			"byteOffset":2420,
			"target":34962
		},
		{
			"buffer":0,
			"byteLength":72,
			"byteOffset":2528,
			"target":34962
		},
		{
			"buffer":0,
			"byteLength":72,
			"byteOffset":2600,
			"target":34962
		},
		{
			"buffer":0,
			"byteLength":42,
			"byteOffset":2672,
			"target":34963
		},
		{
			"buffer":0,
			"byteLength":108,
			"byteOffset":2716,
			"target":34962
		},
		{
			"buffer":0,
			"byteLength":108,
			"byteOffset":2824,
			"target":34962
		},
		{
			"buffer":0,
			"byteLength":72,
			"byteOffset":2932,
			"target":34962
		},
		{
			"buffer":0,
			"byteLength":72,
			"byteOffset":3004,
			"target":34962
		},
		{
			"buffer":0,
			"byteLength":42,
			"byteOffset":3076,
			"target":34963
		},
		{
			"buffer":0,
			"byteLength":96,
			"byteOffset":3120,
			"target":34962
		},
		{
			"buffer":0,
			"byteLength":96,
			"byteOffset":3216,
			"target":34962
		},
		{
			"buffer":0,
			"byteLength":64,
			"byteOffset":3312,
			"target":34962
		},
		{
			"buffer":0,
			"byteLength":64,
			"byteOffset":3376,
			"target":34962
		},
		{
			"buffer":0,
			"byteLength":24,
			"byteOffset":3440,
			"target":34963
		},
		{
			"buffer":0,
			"byteLength":96,
			"byteOffset":3464,
			"target":34962
		},
		{
			"buffer":0,
			"byteLength":96,
			"byteOffset":3560,
			"target":34962
		},
		{
			"buffer":0,
			"byteLength":64,
			"byteOffset":3656,
			"target":34962
		},
		{
			"buffer":0,
			"byteLength":64,
			"byteOffset":3720,
			"target":34962
		},
		{
			"buffer":0,
			"byteLength":24,
			"byteOffset":3784,
			"target":34963
		},
		{
			"buffer":0,
			"byteLength":96,
			"byteOffset":3808,
			"target":34962
		},
		{
			"buffer":0,
			"byteLength":96,
			"byteOffset":3904,
			"target":34962
		},
		{
			"buffer":0,
			"byteLength":64,
			"byteOffset":4000,
			"target":34962
		},
		{
			"buffer":0,
			"byteLength":64,
			"byteOffset":4064,
			"target":34962
		},
		{
			"buffer":0,
			"byteLength":24,
			"byteOffset":4128,
			"target":34963
		},
		{
			"buffer":0,
			"byteLength":96,
			"byteOffset":4152,
			"target":34962
		},
		{
			"buffer":0,
			"byteLength":96,
			"byteOffset":4248,
			"target":34962
		},
		{
			"buffer":0,
			"byteLength":64,
			"byteOffset":4344,
			"target":34962
		},
		{
			"buffer":0,
			"byteLength":64,
			"byteOffset":4408,
			"target":34962
		},
		{
			"buffer":0,
			"byteLength":24,
			"byteOffset":4472,
			"target":34963
		},
		{
			"buffer":0,
			"byteLength":96,
			"byteOffset":4496,
			"target":34962
		},
		{
			"buffer":0,
			"byteLength":96,
			"byteOffset":4592,
			"target":34962
		},
		{
			"buffer":0,
			"byteLength":64,
			"byteOffset":4688,
			"target":34962
		},
		{
			"buffer":0,
			"byteLength":64,
			"byteOffset":4752,
			"target":34962
		},
		{
			"buffer":0,
			"byteLength":24,
			"byteOffset":4816,
			"target":34963
		},
		{
			"buffer":0,
			"byteLength":48,
			"byteOffset":4840,
			"target":34962
		},
		{
			"buffer":0,
			"byteLength":48,
			"byteOffset":4888,
			"target":34962
		},
		{
			"buffer":0,
			"byteLength":32,
			"byteOffset":4936,
			"target":34962
		}
	],
	"samplers":[
		{
			"magFilter":9729,
			"minFilter":9987
		}
	],
	"buffers":[
		{
			"byteLength":4968,
			"uri":"hangar_1.bin"
		}
	]
}
