{
    "asset" : {
        "generator" : "Khronos glTF Blender I/O v1.7.33",
        "version" : "2.0"
    },
    "scene" : 0,
    "scenes" : [
        {
            "name" : "Scene",
            "nodes" : [
                0
            ]
        }
    ],
    "nodes" : [
        {
            "mesh" : 0,
            "name" : "Maxis-3d1-mesh-25-building",
            "rotation" : [
                0.7071068286895752,
                0,
                0,
                0.7071067094802856
            ]
        }
    ],
    "materials" : [
        {
            "doubleSided" : true,
            "name" : "matcolour-128.003",
            "pbrMetallicRoughness" : {
                "baseColorFactor" : [
                    0.12156862765550613,
                    0.08235294371843338,
                    0.062745101749897,
                    1
                ],
                "metallicFactor" : 0
            }
        },
        {
            "doubleSided" : true,
            "name" : "mat2-40.002",
            "pbrMetallicRoughness" : {
                "baseColorTexture" : {
                    "index" : 0
                },
                "metallicFactor" : 0
            }
        },
        {
            "doubleSided" : true,
            "name" : "mat40-54.008",
            "pbrMetallicRoughness" : {
                "baseColorTexture" : {
                    "index" : 1
                },
                "metallicFactor" : 0
            }
        },
        {
            "doubleSided" : true,
            "name" : "mat40-53.008",
            "pbrMetallicRoughness" : {
                "baseColorTexture" : {
                    "index" : 2
                },
                "metallicFactor" : 0
            }
        },
        {
            "doubleSided" : true,
            "name" : "mat40-55.005",
            "pbrMetallicRoughness" : {
                "baseColorTexture" : {
                    "index" : 3
                },
                "metallicFactor" : 0
            }
        },
        {
            "doubleSided" : true,
            "name" : "mat40-52.006",
            "pbrMetallicRoughness" : {
                "baseColorTexture" : {
                    "index" : 4
                },
                "metallicFactor" : 0
            }
        },
        {
            "doubleSided" : true,
            "name" : "mat40-38.005",
            "pbrMetallicRoughness" : {
                "baseColorTexture" : {
                    "index" : 5
                },
                "metallicFactor" : 0
            }
        },
        {
            "doubleSided" : true,
            "name" : "mat40-37.005",
            "pbrMetallicRoughness" : {
                "baseColorTexture" : {
                    "index" : 6
                },
                "metallicFactor" : 0
            }
        },
        {
            "doubleSided" : true,
            "name" : "mat40-36.005",
            "pbrMetallicRoughness" : {
                "baseColorTexture" : {
                    "index" : 7
                },
                "metallicFactor" : 0
            }
        },
        {
            "doubleSided" : true,
            "name" : "mat40-39.006",
            "pbrMetallicRoughness" : {
                "baseColorTexture" : {
                    "index" : 8
                },
                "metallicFactor" : 0
            }
        },
        {
            "doubleSided" : true,
            "name" : "mat40-62.003",
            "pbrMetallicRoughness" : {
                "baseColorTexture" : {
                    "index" : 9
                },
                "metallicFactor" : 0
            }
        }
    ],
    "meshes" : [
        {
            "name" : "Maxis-3d1-mesh-25-building",
            "primitives" : [
                {
                    "attributes" : {
                        "POSITION" : 0,
                        "NORMAL" : 1,
                        "TEXCOORD_0" : 2
                    },
                    "indices" : 3,
                    "material" : 0
                },
                {
                    "attributes" : {
                        "POSITION" : 4,
                        "NORMAL" : 5,
                        "TEXCOORD_0" : 6
                    },
                    "indices" : 7,
                    "material" : 1
                },
                {
                    "attributes" : {
                        "POSITION" : 8,
                        "NORMAL" : 9,
                        "TEXCOORD_0" : 10
                    },
                    "indices" : 11,
                    "material" : 2
                },
                {
                    "attributes" : {
                        "POSITION" : 12,
                        "NORMAL" : 13,
                        "TEXCOORD_0" : 14
                    },
                    "indices" : 15,
                    "material" : 3
                },
                {
                    "attributes" : {
                        "POSITION" : 16,
                        "NORMAL" : 17,
                        "TEXCOORD_0" : 18
                    },
                    "indices" : 19,
                    "material" : 4
                },
                {
                    "attributes" : {
                        "POSITION" : 20,
                        "NORMAL" : 21,
                        "TEXCOORD_0" : 22
                    },
                    "indices" : 23,
                    "material" : 5
                },
                {
                    "attributes" : {
                        "POSITION" : 24,
                        "NORMAL" : 25,
                        "TEXCOORD_0" : 26
                    },
                    "indices" : 27,
                    "material" : 6
                },
                {
                    "attributes" : {
                        "POSITION" : 28,
                        "NORMAL" : 29,
                        "TEXCOORD_0" : 30
                    },
                    "indices" : 31,
                    "material" : 7
                },
                {
                    "attributes" : {
                        "POSITION" : 32,
                        "NORMAL" : 33,
                        "TEXCOORD_0" : 34
                    },
                    "indices" : 35,
                    "material" : 8
                },
                {
                    "attributes" : {
                        "POSITION" : 36,
                        "NORMAL" : 37,
                        "TEXCOORD_0" : 38
                    },
                    "indices" : 39,
                    "material" : 9
                },
                {
                    "attributes" : {
                        "POSITION" : 40,
                        "NORMAL" : 41,
                        "TEXCOORD_0" : 42
                    },
                    "indices" : 43,
                    "material" : 10
                }
            ]
        }
    ],
    "textures" : [
        {
            "sampler" : 0,
            "source" : 0
        },
        {
            "sampler" : 0,
            "source" : 1
        },
        {
            "sampler" : 0,
            "source" : 2
        },
        {
            "sampler" : 0,
            "source" : 3
        },
        {
            "sampler" : 0,
            "source" : 4
        },
        {
            "sampler" : 0,
            "source" : 5
        },
        {
            "sampler" : 0,
            "source" : 6
        },
        {
            "sampler" : 0,
            "source" : 7
        },
        {
            "sampler" : 0,
            "source" : 8
        },
        {
            "sampler" : 0,
            "source" : 9
        }
    ],
    "images" : [
        {
            "mimeType" : "image/png",
            "name" : "tex2-40",
            "uri" : "../../../Textures/tex2-40.png"
        },
        {
            "mimeType" : "image/png",
            "name" : "tex40-54",
            "uri" : "../../../Textures/tex40-54.png"
        },
        {
            "mimeType" : "image/png",
            "name" : "tex40-53",
            "uri" : "../../../Textures/tex40-53.png"
        },
        {
            "mimeType" : "image/png",
            "name" : "tex40-55",
            "uri" : "../../../Textures/tex40-55.png"
        },
        {
            "mimeType" : "image/png",
            "name" : "tex40-52",
            "uri" : "../../../Textures/tex40-52.png"
        },
        {
            "mimeType" : "image/png",
            "name" : "tex40-38",
            "uri" : "../../../Textures/tex40-38.png"
        },
        {
            "mimeType" : "image/png",
            "name" : "tex40-37",
            "uri" : "../../../Textures/tex40-37.png"
        },
        {
            "mimeType" : "image/png",
            "name" : "tex40-36",
            "uri" : "../../../Textures/tex40-36.png"
        },
        {
            "mimeType" : "image/png",
            "name" : "tex40-39",
            "uri" : "../../../Textures/tex40-39.png"
        },
        {
            "mimeType" : "image/png",
            "name" : "tex40-62",
            "uri" : "../../../Textures/tex40-62.png"
        }
    ],
    "accessors" : [
        {
            "bufferView" : 0,
            "componentType" : 5126,
            "count" : 68,
            "max" : [
                6.640361785888672,
                7.3101654052734375,
                -4.540767669677734
            ],
            "min" : [
                -6.4983978271484375,
                -7.460529327392578,
                -8.58346939086914
            ],
            "type" : "VEC3"
        },
        {
            "bufferView" : 1,
            "componentType" : 5126,
            "count" : 68,
            "type" : "VEC3"
        },
        {
            "bufferView" : 2,
            "componentType" : 5126,
            "count" : 68,
            "type" : "VEC2"
        },
        {
            "bufferView" : 3,
            "componentType" : 5123,
            "count" : 72,
            "type" : "SCALAR"
        },
        {
            "bufferView" : 4,
            "componentType" : 5126,
            "count" : 10,
            "max" : [
                6.666709899902344,
                7.397769927978516,
                -0.01186370849609375
            ],
            "min" : [
                0.35540008544921875,
                0.2334442138671875,
                -2.5385475158691406
            ],
            "type" : "VEC3"
        },
        {
            "bufferView" : 5,
            "componentType" : 5126,
            "count" : 10,
            "type" : "VEC3"
        },
        {
            "bufferView" : 6,
            "componentType" : 5126,
            "count" : 10,
            "type" : "VEC2"
        },
        {
            "bufferView" : 7,
            "componentType" : 5123,
            "count" : 12,
            "type" : "SCALAR"
        },
        {
            "bufferView" : 8,
            "componentType" : 5126,
            "count" : 4,
            "max" : [
                6.640361785888672,
                7.310169219970703,
                0.00726318359375
            ],
            "min" : [
                6.640361785888672,
                -7.4605255126953125,
                -4.540771484375
            ],
            "type" : "VEC3"
        },
        {
            "bufferView" : 9,
            "componentType" : 5126,
            "count" : 4,
            "type" : "VEC3"
        },
        {
            "bufferView" : 10,
            "componentType" : 5126,
            "count" : 4,
            "type" : "VEC2"
        },
        {
            "bufferView" : 11,
            "componentType" : 5123,
            "count" : 6,
            "type" : "SCALAR"
        },
        {
            "bufferView" : 12,
            "componentType" : 5126,
            "count" : 4,
            "max" : [
                -6.4983978271484375,
                7.310169219970703,
                0.00726318359375
            ],
            "min" : [
                -6.4983978271484375,
                -7.4605255126953125,
                -4.540771484375
            ],
            "type" : "VEC3"
        },
        {
            "bufferView" : 13,
            "componentType" : 5126,
            "count" : 4,
            "type" : "VEC3"
        },
        {
            "bufferView" : 14,
            "componentType" : 5126,
            "count" : 4,
            "type" : "VEC2"
        },
        {
            "bufferView" : 15,
            "componentType" : 5123,
            "count" : 6,
            "type" : "SCALAR"
        },
        {
            "bufferView" : 16,
            "componentType" : 5126,
            "count" : 21,
            "max" : [
                6.640361785888672,
                7.310169219970703,
                0.00725555419921875
            ],
            "min" : [
                -6.4983978271484375,
                7.3101654052734375,
                -8.58346939086914
            ],
            "type" : "VEC3"
        },
        {
            "bufferView" : 17,
            "componentType" : 5126,
            "count" : 21,
            "type" : "VEC3"
        },
        {
            "bufferView" : 18,
            "componentType" : 5126,
            "count" : 21,
            "type" : "VEC2"
        },
        {
            "bufferView" : 19,
            "componentType" : 5123,
            "count" : 21,
            "type" : "SCALAR"
        },
        {
            "bufferView" : 20,
            "componentType" : 5126,
            "count" : 19,
            "max" : [
                6.640361785888672,
                -7.4605255126953125,
                0.00726318359375
            ],
            "min" : [
                -6.4983978271484375,
                -7.460529327392578,
                -8.58346176147461
            ],
            "type" : "VEC3"
        },
        {
            "bufferView" : 21,
            "componentType" : 5126,
            "count" : 19,
            "type" : "VEC3"
        },
        {
            "bufferView" : 22,
            "componentType" : 5126,
            "count" : 19,
            "type" : "VEC2"
        },
        {
            "bufferView" : 23,
            "componentType" : 5123,
            "count" : 21,
            "type" : "SCALAR"
        },
        {
            "bufferView" : 24,
            "componentType" : 5126,
            "count" : 12,
            "max" : [
                5.018032073974609,
                5.566337585449219,
                -7.268379211425781
            ],
            "min" : [
                4.968669891357422,
                3.531574249267578,
                -8.38076400756836
            ],
            "type" : "VEC3"
        },
        {
            "bufferView" : 25,
            "componentType" : 5126,
            "count" : 12,
            "type" : "VEC3"
        },
        {
            "bufferView" : 26,
            "componentType" : 5126,
            "count" : 12,
            "type" : "VEC2"
        },
        {
            "bufferView" : 27,
            "componentType" : 5123,
            "count" : 12,
            "type" : "SCALAR"
        },
        {
            "bufferView" : 28,
            "componentType" : 5126,
            "count" : 12,
            "max" : [
                4.475063323974609,
                5.516975402832031,
                -7.6461639404296875
            ],
            "min" : [
                4.425701141357422,
                3.4822120666503906,
                -8.38076400756836
            ],
            "type" : "VEC3"
        },
        {
            "bufferView" : 29,
            "componentType" : 5126,
            "count" : 12,
            "type" : "VEC3"
        },
        {
            "bufferView" : 30,
            "componentType" : 5126,
            "count" : 12,
            "type" : "VEC2"
        },
        {
            "bufferView" : 31,
            "componentType" : 5123,
            "count" : 12,
            "type" : "SCALAR"
        },
        {
            "bufferView" : 32,
            "componentType" : 5126,
            "count" : 12,
            "max" : [
                5.018032073974609,
                5.023368835449219,
                -7.268379211425781
            ],
            "min" : [
                4.475063323974609,
                3.4822120666503906,
                -8.38076400756836
            ],
            "type" : "VEC3"
        },
        {
            "bufferView" : 33,
            "componentType" : 5126,
            "count" : 12,
            "type" : "VEC3"
        },
        {
            "bufferView" : 34,
            "componentType" : 5126,
            "count" : 12,
            "type" : "VEC2"
        },
        {
            "bufferView" : 35,
            "componentType" : 5123,
            "count" : 12,
            "type" : "SCALAR"
        },
        {
            "bufferView" : 36,
            "componentType" : 5126,
            "count" : 12,
            "max" : [
                4.968669891357422,
                5.566337585449219,
                -7.302722930908203
            ],
            "min" : [
                4.425701141357422,
                4.025184631347656,
                -8.38076400756836
            ],
            "type" : "VEC3"
        },
        {
            "bufferView" : 37,
            "componentType" : 5126,
            "count" : 12,
            "type" : "VEC3"
        },
        {
            "bufferView" : 38,
            "componentType" : 5126,
            "count" : 12,
            "type" : "VEC2"
        },
        {
            "bufferView" : 39,
            "componentType" : 5123,
            "count" : 12,
            "type" : "SCALAR"
        },
        {
            "bufferView" : 40,
            "componentType" : 5126,
            "count" : 12,
            "max" : [
                5.018032073974609,
                5.566337585449219,
                -8.38076400756836
            ],
            "min" : [
                4.425701141357422,
                3.4822158813476562,
                -8.38076400756836
            ],
            "type" : "VEC3"
        },
        {
            "bufferView" : 41,
            "componentType" : 5126,
            "count" : 12,
            "type" : "VEC3"
        },
        {
            "bufferView" : 42,
            "componentType" : 5126,
            "count" : 12,
            "type" : "VEC2"
        },
        {
            "bufferView" : 43,
            "componentType" : 5123,
            "count" : 12,
            "type" : "SCALAR"
        }
    ],
    "bufferViews" : [
        {
            "buffer" : 0,
            "byteLength" : 816,
            "byteOffset" : 0
        },
        {
            "buffer" : 0,
            "byteLength" : 816,
            "byteOffset" : 816
        },
        {
            "buffer" : 0,
            "byteLength" : 544,
            "byteOffset" : 1632
        },
        {
            "buffer" : 0,
            "byteLength" : 144,
            "byteOffset" : 2176
        },
        {
            "buffer" : 0,
            "byteLength" : 120,
            "byteOffset" : 2320
        },
        {
            "buffer" : 0,
            "byteLength" : 120,
            "byteOffset" : 2440
        },
        {
            "buffer" : 0,
            "byteLength" : 80,
            "byteOffset" : 2560
        },
        {
            "buffer" : 0,
            "byteLength" : 24,
            "byteOffset" : 2640
        },
        {
            "buffer" : 0,
            "byteLength" : 48,
            "byteOffset" : 2664
        },
        {
            "buffer" : 0,
            "byteLength" : 48,
            "byteOffset" : 2712
        },
        {
            "buffer" : 0,
            "byteLength" : 32,
            "byteOffset" : 2760
        },
        {
            "buffer" : 0,
            "byteLength" : 12,
            "byteOffset" : 2792
        },
        {
            "buffer" : 0,
            "byteLength" : 48,
            "byteOffset" : 2804
        },
        {
            "buffer" : 0,
            "byteLength" : 48,
            "byteOffset" : 2852
        },
        {
            "buffer" : 0,
            "byteLength" : 32,
            "byteOffset" : 2900
        },
        {
            "buffer" : 0,
            "byteLength" : 12,
            "byteOffset" : 2932
        },
        {
            "buffer" : 0,
            "byteLength" : 252,
            "byteOffset" : 2944
        },
        {
            "buffer" : 0,
            "byteLength" : 252,
            "byteOffset" : 3196
        },
        {
            "buffer" : 0,
            "byteLength" : 168,
            "byteOffset" : 3448
        },
        {
            "buffer" : 0,
            "byteLength" : 42,
            "byteOffset" : 3616
        },
        {
            "buffer" : 0,
            "byteLength" : 228,
            "byteOffset" : 3660
        },
        {
            "buffer" : 0,
            "byteLength" : 228,
            "byteOffset" : 3888
        },
        {
            "buffer" : 0,
            "byteLength" : 152,
            "byteOffset" : 4116
        },
        {
            "buffer" : 0,
            "byteLength" : 42,
            "byteOffset" : 4268
        },
        {
            "buffer" : 0,
            "byteLength" : 144,
            "byteOffset" : 4312
        },
        {
            "buffer" : 0,
            "byteLength" : 144,
            "byteOffset" : 4456
        },
        {
            "buffer" : 0,
            "byteLength" : 96,
            "byteOffset" : 4600
        },
        {
            "buffer" : 0,
            "byteLength" : 24,
            "byteOffset" : 4696
        },
        {
            "buffer" : 0,
            "byteLength" : 144,
            "byteOffset" : 4720
        },
        {
            "buffer" : 0,
            "byteLength" : 144,
            "byteOffset" : 4864
        },
        {
            "buffer" : 0,
            "byteLength" : 96,
            "byteOffset" : 5008
        },
        {
            "buffer" : 0,
            "byteLength" : 24,
            "byteOffset" : 5104
        },
        {
            "buffer" : 0,
            "byteLength" : 144,
            "byteOffset" : 5128
        },
        {
            "buffer" : 0,
            "byteLength" : 144,
            "byteOffset" : 5272
        },
        {
            "buffer" : 0,
            "byteLength" : 96,
            "byteOffset" : 5416
        },
        {
            "buffer" : 0,
            "byteLength" : 24,
            "byteOffset" : 5512
        },
        {
            "buffer" : 0,
            "byteLength" : 144,
            "byteOffset" : 5536
        },
        {
            "buffer" : 0,
            "byteLength" : 144,
            "byteOffset" : 5680
        },
        {
            "buffer" : 0,
            "byteLength" : 96,
            "byteOffset" : 5824
        },
        {
            "buffer" : 0,
            "byteLength" : 24,
            "byteOffset" : 5920
        },
        {
            "buffer" : 0,
            "byteLength" : 144,
            "byteOffset" : 5944
        },
        {
            "buffer" : 0,
            "byteLength" : 144,
            "byteOffset" : 6088
        },
        {
            "buffer" : 0,
            "byteLength" : 96,
            "byteOffset" : 6232
        },
        {
            "buffer" : 0,
            "byteLength" : 24,
            "byteOffset" : 6328
        }
    ],
    "samplers" : [
        {
            "magFilter" : 9729,
            "minFilter" : 9987
        }
    ],
    "buffers" : [
        {
            "byteLength" : 6352,
            "uri" : "hangar_1.bin"
        }
    ]
}
