{
	"asset":{
		"generator":"Khronos glTF Blender I/O v4.3.47",
		"version":"2.0"
	},
	"scene":0,
	"scenes":[
		{
			"name":"Scene",
			"nodes":[
				0,
				1
			]
		}
	],
	"nodes":[
		{
			"mesh":0,
			"name":"Maxis-3d1-mesh-20-apbuilding",
			"rotation":[
				0.70710688829422,
				0,
				0,
				0.7071066498756409
			]
		},
		{
			"extras":{
				"gd_node":"Decal",
				"lower_fade":9,
				"upper_fade":10
			},
			"mesh":1,
			"name":"Ground_AO",
			"scale":[
				15.173248291015625,
				1,
				14.627584457397461
			],
			"translation":[
				0,
				0.00762348435819149,
				0.10185933113098145
			]
		}
	],
	"materials":[
		{
			"name":"matcolour-128.004",
			"occlusionTexture":{
				"index":0,
				"texCoord":1
			},
			"pbrMetallicRoughness":{
				"baseColorFactor":[
					0.12156862765550613,
					0.08235294371843338,
					0.062745101749897,
					1
				],
				"metallicFactor":0
			}
		},
		{
			"name":"mat2-41.002",
			"occlusionTexture":{
				"index":1,
				"texCoord":1
			},
			"pbrMetallicRoughness":{
				"baseColorTexture":{
					"index":2
				},
				"metallicFactor":0
			}
		},
		{
			"name":"mat40-55.004",
			"occlusionTexture":{
				"index":3,
				"texCoord":1
			},
			"pbrMetallicRoughness":{
				"baseColorTexture":{
					"index":4
				},
				"metallicFactor":0
			}
		},
		{
			"name":"mat40-52.005",
			"occlusionTexture":{
				"index":5,
				"texCoord":1
			},
			"pbrMetallicRoughness":{
				"baseColorTexture":{
					"index":6
				},
				"metallicFactor":0
			}
		},
		{
			"name":"mat40-54.007",
			"occlusionTexture":{
				"index":7,
				"texCoord":1
			},
			"pbrMetallicRoughness":{
				"baseColorTexture":{
					"index":8
				},
				"metallicFactor":0
			}
		},
		{
			"name":"mat40-53.007",
			"occlusionTexture":{
				"index":9,
				"texCoord":1
			},
			"pbrMetallicRoughness":{
				"baseColorTexture":{
					"index":10
				},
				"metallicFactor":0
			}
		},
		{
			"name":"Ground_AO",
			"occlusionTexture":{
				"index":11
			},
			"pbrMetallicRoughness":{
				"baseColorFactor":[
					0.800000011920929,
					0.800000011920929,
					0.800000011920929,
					1
				],
				"metallicFactor":0,
				"roughnessFactor":0.5
			}
		}
	],
	"meshes":[
		{
			"name":"Maxis-3d1-mesh-20-apbuilding",
			"primitives":[
				{
					"attributes":{
						"POSITION":0,
						"NORMAL":1,
						"TEXCOORD_0":2,
						"TEXCOORD_1":3
					},
					"indices":4,
					"material":0
				},
				{
					"attributes":{
						"POSITION":5,
						"NORMAL":6,
						"TEXCOORD_0":7,
						"TEXCOORD_1":8
					},
					"indices":9,
					"material":1
				},
				{
					"attributes":{
						"POSITION":10,
						"NORMAL":11,
						"TEXCOORD_0":12,
						"TEXCOORD_1":13
					},
					"indices":14,
					"material":2
				},
				{
					"attributes":{
						"POSITION":15,
						"NORMAL":16,
						"TEXCOORD_0":17,
						"TEXCOORD_1":18
					},
					"indices":19,
					"material":3
				},
				{
					"attributes":{
						"POSITION":20,
						"NORMAL":21,
						"TEXCOORD_0":22,
						"TEXCOORD_1":23
					},
					"indices":24,
					"material":4
				},
				{
					"attributes":{
						"POSITION":25,
						"NORMAL":26,
						"TEXCOORD_0":27,
						"TEXCOORD_1":28
					},
					"indices":29,
					"material":5
				}
			]
		},
		{
			"name":"Plane",
			"primitives":[
				{
					"attributes":{
						"POSITION":30,
						"NORMAL":31,
						"TEXCOORD_0":32
					},
					"indices":33,
					"material":6
				}
			]
		}
	],
	"textures":[
		{
			"sampler":0,
			"source":0
		},
		{
			"sampler":0,
			"source":0
		},
		{
			"sampler":0,
			"source":1
		},
		{
			"sampler":0,
			"source":0
		},
		{
			"sampler":0,
			"source":2
		},
		{
			"sampler":0,
			"source":0
		},
		{
			"sampler":0,
			"source":3
		},
		{
			"sampler":0,
			"source":0
		},
		{
			"sampler":0,
			"source":4
		},
		{
			"sampler":0,
			"source":0
		},
		{
			"sampler":0,
			"source":5
		},
		{
			"sampler":0,
			"source":6
		}
	],
	"images":[
		{
			"mimeType":"image/png",
			"name":"warehouse.png",
			"uri":"../../../Textures/ambient_occlusion/Buildings/Airport/warehouse.png"
		},
		{
			"mimeType":"image/png",
			"name":"tex2-41",
			"uri":"../../../Textures/tex2-41.png"
		},
		{
			"mimeType":"image/png",
			"name":"tex40-55",
			"uri":"../../../Textures/tex40-55.png"
		},
		{
			"mimeType":"image/png",
			"name":"tex40-52",
			"uri":"../../../Textures/tex40-52.png"
		},
		{
			"mimeType":"image/png",
			"name":"tex40-54",
			"uri":"../../../Textures/tex40-54.png"
		},
		{
			"mimeType":"image/png",
			"name":"tex40-53",
			"uri":"../../../Textures/tex40-53.png"
		},
		{
			"mimeType":"image/png",
			"name":"warehouse_ground.png",
			"uri":"../../../Textures/ambient_occlusion/Buildings/Airport/warehouse_ground.png"
		}
	],
	"accessors":[
		{
			"bufferView":0,
			"componentType":5126,
			"count":8,
			"max":[
				7.0866241455078125,
				6.848804473876953,
				-4.971015930175781
			],
			"min":[
				-7.0866241455078125,
				-6.6961822509765625,
				-8.241771697998047
			],
			"type":"VEC3"
		},
		{
			"bufferView":1,
			"componentType":5126,
			"count":8,
			"type":"VEC3"
		},
		{
			"bufferView":2,
			"componentType":5126,
			"count":8,
			"type":"VEC2"
		},
		{
			"bufferView":3,
			"componentType":5126,
			"count":8,
			"type":"VEC2"
		},
		{
			"bufferView":4,
			"componentType":5123,
			"count":12,
			"type":"SCALAR"
		},
		{
			"bufferView":5,
			"componentType":5126,
			"count":16,
			"max":[
				4.351657867431641,
				6.9156494140625,
				-0.007625579833984375
			],
			"min":[
				-4.351558685302734,
				-6.711933135986328,
				-2.4556846618652344
			],
			"type":"VEC3"
		},
		{
			"bufferView":6,
			"componentType":5126,
			"count":16,
			"type":"VEC3"
		},
		{
			"bufferView":7,
			"componentType":5126,
			"count":16,
			"type":"VEC2"
		},
		{
			"bufferView":8,
			"componentType":5126,
			"count":16,
			"type":"VEC2"
		},
		{
			"bufferView":9,
			"componentType":5123,
			"count":24,
			"type":"SCALAR"
		},
		{
			"bufferView":10,
			"componentType":5126,
			"count":9,
			"max":[
				7.0866241455078125,
				6.848804473876953,
				-0.0648956298828125
			],
			"min":[
				-7.0866241455078125,
				6.8488006591796875,
				-8.241771697998047
			],
			"type":"VEC3"
		},
		{
			"bufferView":11,
			"componentType":5126,
			"count":9,
			"type":"VEC3"
		},
		{
			"bufferView":12,
			"componentType":5126,
			"count":9,
			"type":"VEC2"
		},
		{
			"bufferView":13,
			"componentType":5126,
			"count":9,
			"type":"VEC2"
		},
		{
			"bufferView":14,
			"componentType":5123,
			"count":9,
			"type":"SCALAR"
		},
		{
			"bufferView":15,
			"componentType":5126,
			"count":7,
			"max":[
				7.0866241455078125,
				-6.696178436279297,
				-0.06489181518554688
			],
			"min":[
				-7.0866241455078125,
				-6.6961822509765625,
				-8.241767883300781
			],
			"type":"VEC3"
		},
		{
			"bufferView":16,
			"componentType":5126,
			"count":7,
			"type":"VEC3"
		},
		{
			"bufferView":17,
			"componentType":5126,
			"count":7,
			"type":"VEC2"
		},
		{
			"bufferView":18,
			"componentType":5126,
			"count":7,
			"type":"VEC2"
		},
		{
			"bufferView":19,
			"componentType":5123,
			"count":9,
			"type":"SCALAR"
		},
		{
			"bufferView":20,
			"componentType":5126,
			"count":4,
			"max":[
				7.0866241455078125,
				6.8488006591796875,
				-0.06489181518554688
			],
			"min":[
				7.0866241455078125,
				-6.6961822509765625,
				-4.9710235595703125
			],
			"type":"VEC3"
		},
		{
			"bufferView":21,
			"componentType":5126,
			"count":4,
			"type":"VEC3"
		},
		{
			"bufferView":22,
			"componentType":5126,
			"count":4,
			"type":"VEC2"
		},
		{
			"bufferView":23,
			"componentType":5126,
			"count":4,
			"type":"VEC2"
		},
		{
			"bufferView":24,
			"componentType":5123,
			"count":6,
			"type":"SCALAR"
		},
		{
			"bufferView":25,
			"componentType":5126,
			"count":4,
			"max":[
				-7.0866241455078125,
				6.848804473876953,
				-0.06489181518554688
			],
			"min":[
				-7.0866241455078125,
				-6.6961822509765625,
				-4.9710235595703125
			],
			"type":"VEC3"
		},
		{
			"bufferView":26,
			"componentType":5126,
			"count":4,
			"type":"VEC3"
		},
		{
			"bufferView":27,
			"componentType":5126,
			"count":4,
			"type":"VEC2"
		},
		{
			"bufferView":28,
			"componentType":5126,
			"count":4,
			"type":"VEC2"
		},
		{
			"bufferView":29,
			"componentType":5123,
			"count":6,
			"type":"SCALAR"
		},
		{
			"bufferView":30,
			"componentType":5126,
			"count":4,
			"max":[
				0.5,
				0,
				0.5
			],
			"min":[
				-0.5,
				0,
				-0.5
			],
			"type":"VEC3"
		},
		{
			"bufferView":31,
			"componentType":5126,
			"count":4,
			"type":"VEC3"
		},
		{
			"bufferView":32,
			"componentType":5126,
			"count":4,
			"type":"VEC2"
		},
		{
			"bufferView":33,
			"componentType":5123,
			"count":6,
			"type":"SCALAR"
		}
	],
	"bufferViews":[
		{
			"buffer":0,
			"byteLength":96,
			"byteOffset":0,
			"target":34962
		},
		{
			"buffer":0,
			"byteLength":96,
			"byteOffset":96,
			"target":34962
		},
		{
			"buffer":0,
			"byteLength":64,
			"byteOffset":192,
			"target":34962
		},
		{
			"buffer":0,
			"byteLength":64,
			"byteOffset":256,
			"target":34962
		},
		{
			"buffer":0,
			"byteLength":24,
			"byteOffset":320,
			"target":34963
		},
		{
			"buffer":0,
			"byteLength":192,
			"byteOffset":344,
			"target":34962
		},
		{
			"buffer":0,
			"byteLength":192,
			"byteOffset":536,
			"target":34962
		},
		{
			"buffer":0,
			"byteLength":128,
			"byteOffset":728,
			"target":34962
		},
		{
			"buffer":0,
			"byteLength":128,
			"byteOffset":856,
			"target":34962
		},
		{
			"buffer":0,
			"byteLength":48,
			"byteOffset":984,
			"target":34963
		},
		{
			"buffer":0,
			"byteLength":108,
			"byteOffset":1032,
			"target":34962
		},
		{
			"buffer":0,
			"byteLength":108,
			"byteOffset":1140,
			"target":34962
		},
		{
			"buffer":0,
			"byteLength":72,
			"byteOffset":1248,
			"target":34962
		},
		{
			"buffer":0,
			"byteLength":72,
			"byteOffset":1320,
			"target":34962
		},
		{
			"buffer":0,
			"byteLength":18,
			"byteOffset":1392,
			"target":34963
		},
		{
			"buffer":0,
			"byteLength":84,
			"byteOffset":1412,
			"target":34962
		},
		{
			"buffer":0,
			"byteLength":84,
			"byteOffset":1496,
			"target":34962
		},
		{
			"buffer":0,
			"byteLength":56,
			"byteOffset":1580,
			"target":34962
		},
		{
			"buffer":0,
			"byteLength":56,
			"byteOffset":1636,
			"target":34962
		},
		{
			"buffer":0,
			"byteLength":18,
			"byteOffset":1692,
			"target":34963
		},
		{
			"buffer":0,
			"byteLength":48,
			"byteOffset":1712,
			"target":34962
		},
		{
			"buffer":0,
			"byteLength":48,
			"byteOffset":1760,
			"target":34962
		},
		{
			"buffer":0,
			"byteLength":32,
			"byteOffset":1808,
			"target":34962
		},
		{
			"buffer":0,
			"byteLength":32,
			"byteOffset":1840,
			"target":34962
		},
		{
			"buffer":0,
			"byteLength":12,
			"byteOffset":1872,
			"target":34963
		},
		{
			"buffer":0,
			"byteLength":48,
			"byteOffset":1884,
			"target":34962
		},
		{
			"buffer":0,
			"byteLength":48,
			"byteOffset":1932,
			"target":34962
		},
		{
			"buffer":0,
			"byteLength":32,
			"byteOffset":1980,
			"target":34962
		},
		{
			"buffer":0,
			"byteLength":32,
			"byteOffset":2012,
			"target":34962
		},
		{
			"buffer":0,
			"byteLength":12,
			"byteOffset":2044,
			"target":34963
		},
		{
			"buffer":0,
			"byteLength":48,
			"byteOffset":2056,
			"target":34962
		},
		{
			"buffer":0,
			"byteLength":48,
			"byteOffset":2104,
			"target":34962
		},
		{
			"buffer":0,
			"byteLength":32,
			"byteOffset":2152,
			"target":34962
		},
		{
			"buffer":0,
			"byteLength":12,
			"byteOffset":2184,
			"target":34963
		}
	],
	"samplers":[
		{
			"magFilter":9729,
			"minFilter":9987
		}
	],
	"buffers":[
		{
			"byteLength":2196,
			"uri":"warehouse.bin"
		}
	]
}
