{
	"asset":{
		"generator":"Khronos glTF Blender I/O v4.1.63",
		"version":"2.0"
	},
	"scene":0,
	"scenes":[
		{
			"name":"Scene",
			"nodes":[
				0
			]
		}
	],
	"nodes":[
		{
			"mesh":0,
			"name":"Maxis-3d3-mesh-40",
			"rotation":[
				0.70710688829422,
				0,
				0,
				0.7071066498756409
			]
		}
	],
	"materials":[
		{
			"name":"mat2-42.003",
			"pbrMetallicRoughness":{
				"baseColorTexture":{
					"index":0
				},
				"metallicFactor":0
			}
		},
		{
			"name":"matcolour-48.002",
			"pbrMetallicRoughness":{
				"baseColorFactor":[
					0.05882352963089943,
					0.05882352963089943,
					0.05882352963089943,
					1
				],
				"metallicFactor":0
			}
		},
		{
			"name":"mat39-3.001",
			"pbrMetallicRoughness":{
				"baseColorTexture":{
					"index":1
				},
				"metallicFactor":0
			}
		},
		{
			"name":"mat39-0.001",
			"pbrMetallicRoughness":{
				"baseColorTexture":{
					"index":2
				},
				"metallicFactor":0
			}
		},
		{
			"name":"mat39-2.001",
			"pbrMetallicRoughness":{
				"baseColorTexture":{
					"index":3
				},
				"metallicFactor":0
			}
		},
		{
			"name":"mat39-1.001",
			"pbrMetallicRoughness":{
				"baseColorTexture":{
					"index":4
				},
				"metallicFactor":0
			}
		},
		{
			"name":"mat40-51",
			"pbrMetallicRoughness":{
				"baseColorTexture":{
					"index":5
				},
				"metallicFactor":0
			}
		},
		{
			"name":"mat40-48",
			"pbrMetallicRoughness":{
				"baseColorTexture":{
					"index":6
				},
				"metallicFactor":0
			}
		},
		{
			"name":"mat40-49",
			"pbrMetallicRoughness":{
				"baseColorTexture":{
					"index":7
				},
				"metallicFactor":0
			}
		},
		{
			"name":"mat40-50",
			"pbrMetallicRoughness":{
				"baseColorTexture":{
					"index":8
				},
				"metallicFactor":0
			}
		},
		{
			"name":"mat40-21.001",
			"pbrMetallicRoughness":{
				"baseColorTexture":{
					"index":9
				},
				"metallicFactor":0
			}
		},
		{
			"name":"mat40-20.001",
			"pbrMetallicRoughness":{
				"baseColorTexture":{
					"index":10
				},
				"metallicFactor":0
			}
		},
		{
			"name":"mat40-23.001",
			"pbrMetallicRoughness":{
				"baseColorTexture":{
					"index":11
				},
				"metallicFactor":0
			}
		},
		{
			"name":"matcolour-160.001",
			"pbrMetallicRoughness":{
				"baseColorFactor":[
					0.019607843831181526,
					0.16470588743686676,
					0.14509804546833038,
					1
				],
				"metallicFactor":0
			}
		},
		{
			"name":"matcolour-0.001",
			"pbrMetallicRoughness":{
				"baseColorFactor":[
					0,
					0,
					0,
					1
				],
				"metallicFactor":0
			}
		}
	],
	"meshes":[
		{
			"name":"Maxis-3d3-mesh-40",
			"primitives":[
				{
					"attributes":{
						"POSITION":0,
						"NORMAL":1,
						"TEXCOORD_0":2
					},
					"indices":3,
					"material":0
				},
				{
					"attributes":{
						"POSITION":4,
						"NORMAL":5,
						"TEXCOORD_0":6
					},
					"indices":7,
					"material":1
				},
				{
					"attributes":{
						"POSITION":8,
						"NORMAL":9,
						"TEXCOORD_0":10
					},
					"indices":11,
					"material":2
				},
				{
					"attributes":{
						"POSITION":12,
						"NORMAL":13,
						"TEXCOORD_0":14
					},
					"indices":15,
					"material":3
				},
				{
					"attributes":{
						"POSITION":16,
						"NORMAL":17,
						"TEXCOORD_0":18
					},
					"indices":19,
					"material":4
				},
				{
					"attributes":{
						"POSITION":20,
						"NORMAL":21,
						"TEXCOORD_0":22
					},
					"indices":23,
					"material":5
				},
				{
					"attributes":{
						"POSITION":24,
						"NORMAL":25,
						"TEXCOORD_0":26
					},
					"indices":27,
					"material":6
				},
				{
					"attributes":{
						"POSITION":28,
						"NORMAL":29,
						"TEXCOORD_0":30
					},
					"indices":31,
					"material":7
				},
				{
					"attributes":{
						"POSITION":32,
						"NORMAL":33,
						"TEXCOORD_0":34
					},
					"indices":35,
					"material":8
				},
				{
					"attributes":{
						"POSITION":36,
						"NORMAL":37,
						"TEXCOORD_0":38
					},
					"indices":39,
					"material":9
				},
				{
					"attributes":{
						"POSITION":40,
						"NORMAL":41,
						"TEXCOORD_0":42
					},
					"indices":43,
					"material":10
				},
				{
					"attributes":{
						"POSITION":44,
						"NORMAL":45,
						"TEXCOORD_0":46
					},
					"indices":47,
					"material":11
				},
				{
					"attributes":{
						"POSITION":48,
						"NORMAL":49,
						"TEXCOORD_0":50
					},
					"indices":51,
					"material":12
				},
				{
					"attributes":{
						"POSITION":52,
						"NORMAL":53,
						"TEXCOORD_0":54
					},
					"indices":55,
					"material":13
				},
				{
					"attributes":{
						"POSITION":56,
						"NORMAL":57,
						"TEXCOORD_0":58
					},
					"indices":59,
					"material":14
				}
			]
		}
	],
	"textures":[
		{
			"sampler":0,
			"source":0
		},
		{
			"sampler":0,
			"source":1
		},
		{
			"sampler":0,
			"source":2
		},
		{
			"sampler":0,
			"source":3
		},
		{
			"sampler":0,
			"source":4
		},
		{
			"sampler":0,
			"source":5
		},
		{
			"sampler":0,
			"source":6
		},
		{
			"sampler":0,
			"source":7
		},
		{
			"sampler":0,
			"source":8
		},
		{
			"sampler":0,
			"source":9
		},
		{
			"sampler":0,
			"source":10
		},
		{
			"sampler":0,
			"source":11
		}
	],
	"images":[
		{
			"mimeType":"image/png",
			"name":"tex2-42",
			"uri":"../../../Textures/tex2-42.png"
		},
		{
			"mimeType":"image/png",
			"name":"tex39-3",
			"uri":"../../../Textures/tex39-3.png"
		},
		{
			"mimeType":"image/png",
			"name":"tex39-0",
			"uri":"../../../Textures/tex39-0.png"
		},
		{
			"mimeType":"image/png",
			"name":"tex39-2",
			"uri":"../../../Textures/tex39-2.png"
		},
		{
			"mimeType":"image/png",
			"name":"tex39-1",
			"uri":"../../../Textures/tex39-1.png"
		},
		{
			"mimeType":"image/png",
			"name":"tex40-51",
			"uri":"../../../Textures/tex40-51.png"
		},
		{
			"mimeType":"image/png",
			"name":"tex40-48",
			"uri":"../../../Textures/tex40-48.png"
		},
		{
			"mimeType":"image/png",
			"name":"tex40-49",
			"uri":"../../../Textures/tex40-49.png"
		},
		{
			"mimeType":"image/png",
			"name":"tex40-50",
			"uri":"../../../Textures/tex40-50.png"
		},
		{
			"mimeType":"image/png",
			"name":"tex40-21",
			"uri":"../../../Textures/tex40-21.png"
		},
		{
			"mimeType":"image/png",
			"name":"tex40-20",
			"uri":"../../../Textures/tex40-20.png"
		},
		{
			"mimeType":"image/png",
			"name":"tex40-23",
			"uri":"../../../Textures/tex40-23.png"
		}
	],
	"accessors":[
		{
			"bufferView":0,
			"componentType":5126,
			"count":4,
			"max":[
				19.305561065673828,
				10.75313949584961,
				-0.000850677490234375
			],
			"min":[
				17.608139038085938,
				9.055713653564453,
				-4.098091125488281
			],
			"type":"VEC3"
		},
		{
			"bufferView":1,
			"componentType":5126,
			"count":4,
			"type":"VEC3"
		},
		{
			"bufferView":2,
			"componentType":5126,
			"count":4,
			"type":"VEC2"
		},
		{
			"bufferView":3,
			"componentType":5123,
			"count":6,
			"type":"SCALAR"
		},
		{
			"bufferView":4,
			"componentType":5126,
			"count":120,
			"max":[
				21.308269500732422,
				13.066059112548828,
				-7.62939453125e-06
			],
			"min":[
				-9.733104705810547,
				-18.832557678222656,
				-43
			],
			"type":"VEC3"
		},
		{
			"bufferView":5,
			"componentType":5126,
			"count":120,
			"type":"VEC3"
		},
		{
			"bufferView":6,
			"componentType":5126,
			"count":120,
			"type":"VEC2"
		},
		{
			"bufferView":7,
			"componentType":5123,
			"count":213,
			"type":"SCALAR"
		},
		{
			"bufferView":8,
			"componentType":5126,
			"count":7,
			"max":[
				13.715354919433594,
				11.825946807861328,
				-7.62939453125e-06
			],
			"min":[
				-9.733104705810547,
				11.823402404785156,
				-16.121444702148438
			],
			"type":"VEC3"
		},
		{
			"bufferView":9,
			"componentType":5126,
			"count":7,
			"type":"VEC3"
		},
		{
			"bufferView":10,
			"componentType":5126,
			"count":7,
			"type":"VEC2"
		},
		{
			"bufferView":11,
			"componentType":5123,
			"count":9,
			"type":"SCALAR"
		},
		{
			"bufferView":12,
			"componentType":5126,
			"count":4,
			"max":[
				20.06781005859375,
				-18.832557678222656,
				0
			],
			"min":[
				-9.733104705810547,
				-18.832584381103516,
				-16.12142562866211
			],
			"type":"VEC3"
		},
		{
			"bufferView":13,
			"componentType":5126,
			"count":4,
			"type":"VEC3"
		},
		{
			"bufferView":14,
			"componentType":5126,
			"count":4,
			"type":"VEC2"
		},
		{
			"bufferView":15,
			"componentType":5123,
			"count":6,
			"type":"SCALAR"
		},
		{
			"bufferView":16,
			"componentType":5126,
			"count":5,
			"max":[
				20.068164825439453,
				5.470947265625,
				0
			],
			"min":[
				20.06781005859375,
				-18.832584381103516,
				-16.121437072753906
			],
			"type":"VEC3"
		},
		{
			"bufferView":17,
			"componentType":5126,
			"count":5,
			"type":"VEC3"
		},
		{
			"bufferView":18,
			"componentType":5126,
			"count":5,
			"type":"VEC2"
		},
		{
			"bufferView":19,
			"componentType":5123,
			"count":9,
			"type":"SCALAR"
		},
		{
			"bufferView":20,
			"componentType":5126,
			"count":4,
			"max":[
				-9.733104705810547,
				11.823417663574219,
				0
			],
			"min":[
				-9.733104705810547,
				-18.832584381103516,
				-16.121444702148438
			],
			"type":"VEC3"
		},
		{
			"bufferView":21,
			"componentType":5126,
			"count":4,
			"type":"VEC3"
		},
		{
			"bufferView":22,
			"componentType":5126,
			"count":4,
			"type":"VEC2"
		},
		{
			"bufferView":23,
			"componentType":5123,
			"count":6,
			"type":"SCALAR"
		},
		{
			"bufferView":24,
			"componentType":5126,
			"count":8,
			"max":[
				20.068164825439453,
				11.825931549072266,
				-16.121437072753906
			],
			"min":[
				4.722469329833984,
				5.470584869384766,
				-38.44342041015625
			],
			"type":"VEC3"
		},
		{
			"bufferView":25,
			"componentType":5126,
			"count":8,
			"type":"VEC3"
		},
		{
			"bufferView":26,
			"componentType":5126,
			"count":8,
			"type":"VEC2"
		},
		{
			"bufferView":27,
			"componentType":5123,
			"count":12,
			"type":"SCALAR"
		},
		{
			"bufferView":28,
			"componentType":5126,
			"count":4,
			"max":[
				13.712825775146484,
				-9.87255859375,
				-16.12143325805664
			],
			"min":[
				4.725006103515625,
				-9.872573852539062,
				-38.44340515136719
			],
			"type":"VEC3"
		},
		{
			"bufferView":29,
			"componentType":5126,
			"count":4,
			"type":"VEC3"
		},
		{
			"bufferView":30,
			"componentType":5126,
			"count":4,
			"type":"VEC2"
		},
		{
			"bufferView":31,
			"componentType":5123,
			"count":6,
			"type":"SCALAR"
		},
		{
			"bufferView":32,
			"componentType":5126,
			"count":12,
			"max":[
				20.068164825439453,
				5.470600128173828,
				-16.12143325805664
			],
			"min":[
				-1.6303367614746094,
				-9.872573852539062,
				-38.44341278076172
			],
			"type":"VEC3"
		},
		{
			"bufferView":33,
			"componentType":5126,
			"count":12,
			"type":"VEC3"
		},
		{
			"bufferView":34,
			"componentType":5126,
			"count":12,
			"type":"VEC2"
		},
		{
			"bufferView":35,
			"componentType":5123,
			"count":18,
			"type":"SCALAR"
		},
		{
			"bufferView":36,
			"componentType":5126,
			"count":8,
			"max":[
				20.068164825439453,
				11.825923919677734,
				-16.12143325805664
			],
			"min":[
				-1.6303329467773438,
				-3.5175628662109375,
				-38.44342041015625
			],
			"type":"VEC3"
		},
		{
			"bufferView":37,
			"componentType":5126,
			"count":8,
			"type":"VEC3"
		},
		{
			"bufferView":38,
			"componentType":5126,
			"count":8,
			"type":"VEC2"
		},
		{
			"bufferView":39,
			"componentType":5123,
			"count":12,
			"type":"SCALAR"
		},
		{
			"bufferView":40,
			"componentType":5126,
			"count":8,
			"max":[
				7.196483612060547,
				-1.3607292175292969,
				-38.44341278076172
			],
			"min":[
				5.044445037841797,
				-3.5764503479003906,
				-40.56193542480469
			],
			"type":"VEC3"
		},
		{
			"bufferView":41,
			"componentType":5126,
			"count":8,
			"type":"VEC3"
		},
		{
			"bufferView":42,
			"componentType":5126,
			"count":8,
			"type":"VEC2"
		},
		{
			"bufferView":43,
			"componentType":5123,
			"count":12,
			"type":"SCALAR"
		},
		{
			"bufferView":44,
			"componentType":5126,
			"count":4,
			"max":[
				6.2069244384765625,
				-2.191070556640625,
				-38.44341278076172
			],
			"min":[
				5.044445037841797,
				-3.5764503479003906,
				-40.56193542480469
			],
			"type":"VEC3"
		},
		{
			"bufferView":45,
			"componentType":5126,
			"count":4,
			"type":"VEC3"
		},
		{
			"bufferView":46,
			"componentType":5126,
			"count":4,
			"type":"VEC2"
		},
		{
			"bufferView":47,
			"componentType":5123,
			"count":6,
			"type":"SCALAR"
		},
		{
			"bufferView":48,
			"componentType":5126,
			"count":4,
			"max":[
				7.196483612060547,
				-1.3607292175292969,
				-38.44341278076172
			],
			"min":[
				6.034008026123047,
				-2.7461090087890625,
				-40.56193542480469
			],
			"type":"VEC3"
		},
		{
			"bufferView":49,
			"componentType":5126,
			"count":4,
			"type":"VEC3"
		},
		{
			"bufferView":50,
			"componentType":5126,
			"count":4,
			"type":"VEC2"
		},
		{
			"bufferView":51,
			"componentType":5123,
			"count":6,
			"type":"SCALAR"
		},
		{
			"bufferView":52,
			"componentType":5126,
			"count":4,
			"max":[
				16.905216217041016,
				8.660808563232422,
				-38.44340515136719
			],
			"min":[
				4.628753662109375,
				-3.6156578063964844,
				-38.44341278076172
			],
			"type":"VEC3"
		},
		{
			"bufferView":53,
			"componentType":5126,
			"count":4,
			"type":"VEC3"
		},
		{
			"bufferView":54,
			"componentType":5126,
			"count":4,
			"type":"VEC2"
		},
		{
			"bufferView":55,
			"componentType":5123,
			"count":6,
			"type":"SCALAR"
		},
		{
			"bufferView":56,
			"componentType":5126,
			"count":12,
			"max":[
				14.92807388305664,
				-3.5,
				-38.5
			],
			"min":[
				13.215766906738281,
				-4.982898712158203,
				-41.25
			],
			"type":"VEC3"
		},
		{
			"bufferView":57,
			"componentType":5126,
			"count":12,
			"type":"VEC3"
		},
		{
			"bufferView":58,
			"componentType":5126,
			"count":12,
			"type":"VEC2"
		},
		{
			"bufferView":59,
			"componentType":5123,
			"count":24,
			"type":"SCALAR"
		}
	],
	"bufferViews":[
		{
			"buffer":0,
			"byteLength":48,
			"byteOffset":0,
			"target":34962
		},
		{
			"buffer":0,
			"byteLength":48,
			"byteOffset":48,
			"target":34962
		},
		{
			"buffer":0,
			"byteLength":32,
			"byteOffset":96,
			"target":34962
		},
		{
			"buffer":0,
			"byteLength":12,
			"byteOffset":128,
			"target":34963
		},
		{
			"buffer":0,
			"byteLength":1440,
			"byteOffset":140,
			"target":34962
		},
		{
			"buffer":0,
			"byteLength":1440,
			"byteOffset":1580,
			"target":34962
		},
		{
			"buffer":0,
			"byteLength":960,
			"byteOffset":3020,
			"target":34962
		},
		{
			"buffer":0,
			"byteLength":426,
			"byteOffset":3980,
			"target":34963
		},
		{
			"buffer":0,
			"byteLength":84,
			"byteOffset":4408,
			"target":34962
		},
		{
			"buffer":0,
			"byteLength":84,
			"byteOffset":4492,
			"target":34962
		},
		{
			"buffer":0,
			"byteLength":56,
			"byteOffset":4576,
			"target":34962
		},
		{
			"buffer":0,
			"byteLength":18,
			"byteOffset":4632,
			"target":34963
		},
		{
			"buffer":0,
			"byteLength":48,
			"byteOffset":4652,
			"target":34962
		},
		{
			"buffer":0,
			"byteLength":48,
			"byteOffset":4700,
			"target":34962
		},
		{
			"buffer":0,
			"byteLength":32,
			"byteOffset":4748,
			"target":34962
		},
		{
			"buffer":0,
			"byteLength":12,
			"byteOffset":4780,
			"target":34963
		},
		{
			"buffer":0,
			"byteLength":60,
			"byteOffset":4792,
			"target":34962
		},
		{
			"buffer":0,
			"byteLength":60,
			"byteOffset":4852,
			"target":34962
		},
		{
			"buffer":0,
			"byteLength":40,
			"byteOffset":4912,
			"target":34962
		},
		{
			"buffer":0,
			"byteLength":18,
			"byteOffset":4952,
			"target":34963
		},
		{
			"buffer":0,
			"byteLength":48,
			"byteOffset":4972,
			"target":34962
		},
		{
			"buffer":0,
			"byteLength":48,
			"byteOffset":5020,
			"target":34962
		},
		{
			"buffer":0,
			"byteLength":32,
			"byteOffset":5068,
			"target":34962
		},
		{
			"buffer":0,
			"byteLength":12,
			"byteOffset":5100,
			"target":34963
		},
		{
			"buffer":0,
			"byteLength":96,
			"byteOffset":5112,
			"target":34962
		},
		{
			"buffer":0,
			"byteLength":96,
			"byteOffset":5208,
			"target":34962
		},
		{
			"buffer":0,
			"byteLength":64,
			"byteOffset":5304,
			"target":34962
		},
		{
			"buffer":0,
			"byteLength":24,
			"byteOffset":5368,
			"target":34963
		},
		{
			"buffer":0,
			"byteLength":48,
			"byteOffset":5392,
			"target":34962
		},
		{
			"buffer":0,
			"byteLength":48,
			"byteOffset":5440,
			"target":34962
		},
		{
			"buffer":0,
			"byteLength":32,
			"byteOffset":5488,
			"target":34962
		},
		{
			"buffer":0,
			"byteLength":12,
			"byteOffset":5520,
			"target":34963
		},
		{
			"buffer":0,
			"byteLength":144,
			"byteOffset":5532,
			"target":34962
		},
		{
			"buffer":0,
			"byteLength":144,
			"byteOffset":5676,
			"target":34962
		},
		{
			"buffer":0,
			"byteLength":96,
			"byteOffset":5820,
			"target":34962
		},
		{
			"buffer":0,
			"byteLength":36,
			"byteOffset":5916,
			"target":34963
		},
		{
			"buffer":0,
			"byteLength":96,
			"byteOffset":5952,
			"target":34962
		},
		{
			"buffer":0,
			"byteLength":96,
			"byteOffset":6048,
			"target":34962
		},
		{
			"buffer":0,
			"byteLength":64,
			"byteOffset":6144,
			"target":34962
		},
		{
			"buffer":0,
			"byteLength":24,
			"byteOffset":6208,
			"target":34963
		},
		{
			"buffer":0,
			"byteLength":96,
			"byteOffset":6232,
			"target":34962
		},
		{
			"buffer":0,
			"byteLength":96,
			"byteOffset":6328,
			"target":34962
		},
		{
			"buffer":0,
			"byteLength":64,
			"byteOffset":6424,
			"target":34962
		},
		{
			"buffer":0,
			"byteLength":24,
			"byteOffset":6488,
			"target":34963
		},
		{
			"buffer":0,
			"byteLength":48,
			"byteOffset":6512,
			"target":34962
		},
		{
			"buffer":0,
			"byteLength":48,
			"byteOffset":6560,
			"target":34962
		},
		{
			"buffer":0,
			"byteLength":32,
			"byteOffset":6608,
			"target":34962
		},
		{
			"buffer":0,
			"byteLength":12,
			"byteOffset":6640,
			"target":34963
		},
		{
			"buffer":0,
			"byteLength":48,
			"byteOffset":6652,
			"target":34962
		},
		{
			"buffer":0,
			"byteLength":48,
			"byteOffset":6700,
			"target":34962
		},
		{
			"buffer":0,
			"byteLength":32,
			"byteOffset":6748,
			"target":34962
		},
		{
			"buffer":0,
			"byteLength":12,
			"byteOffset":6780,
			"target":34963
		},
		{
			"buffer":0,
			"byteLength":48,
			"byteOffset":6792,
			"target":34962
		},
		{
			"buffer":0,
			"byteLength":48,
			"byteOffset":6840,
			"target":34962
		},
		{
			"buffer":0,
			"byteLength":32,
			"byteOffset":6888,
			"target":34962
		},
		{
			"buffer":0,
			"byteLength":12,
			"byteOffset":6920,
			"target":34963
		},
		{
			"buffer":0,
			"byteLength":144,
			"byteOffset":6932,
			"target":34962
		},
		{
			"buffer":0,
			"byteLength":144,
			"byteOffset":7076,
			"target":34962
		},
		{
			"buffer":0,
			"byteLength":96,
			"byteOffset":7220,
			"target":34962
		},
		{
			"buffer":0,
			"byteLength":48,
			"byteOffset":7316,
			"target":34963
		}
	],
	"samplers":[
		{
			"magFilter":9729,
			"minFilter":9987
		}
	],
	"buffers":[
		{
			"byteLength":7364,
			"uri":"large_1.bin"
		}
	]
}
