{
	"asset":{
		"generator":"Khronos glTF Blender I/O v4.1.63",
		"version":"2.0"
	},
	"scene":0,
	"scenes":[
		{
			"name":"Scene",
			"nodes":[
				0
			]
		}
	],
	"nodes":[
		{
			"mesh":0,
			"name":"Maxis-3d1-mesh-39",
			"rotation":[
				0.70710688829422,
				0,
				0,
				0.7071066498756409
			]
		}
	],
	"materials":[
		{
			"name":"matcolour-48.013",
			"pbrMetallicRoughness":{
				"baseColorFactor":[
					0.05882352963089943,
					0.05882352963089943,
					0.05882352963089943,
					1
				],
				"metallicFactor":0
			}
		},
		{
			"name":"mat39-3.002",
			"pbrMetallicRoughness":{
				"baseColorTexture":{
					"index":0
				},
				"metallicFactor":0
			}
		},
		{
			"name":"mat40-49.001",
			"pbrMetallicRoughness":{
				"baseColorTexture":{
					"index":1
				},
				"metallicFactor":0
			}
		},
		{
			"name":"matcolour-160.002",
			"pbrMetallicRoughness":{
				"baseColorFactor":[
					0.019607843831181526,
					0.16470588743686676,
					0.14509804546833038,
					1
				],
				"metallicFactor":0
			}
		},
		{
			"name":"matcolour-0.002",
			"pbrMetallicRoughness":{
				"baseColorFactor":[
					0,
					0,
					0,
					1
				],
				"metallicFactor":0
			}
		}
	],
	"meshes":[
		{
			"name":"Maxis-3d1-mesh-39",
			"primitives":[
				{
					"attributes":{
						"POSITION":0,
						"NORMAL":1,
						"TEXCOORD_0":2
					},
					"indices":3,
					"material":0
				},
				{
					"attributes":{
						"POSITION":4,
						"NORMAL":5,
						"TEXCOORD_0":6
					},
					"indices":7,
					"material":1
				},
				{
					"attributes":{
						"POSITION":8,
						"NORMAL":9,
						"TEXCOORD_0":10
					},
					"indices":11,
					"material":2
				},
				{
					"attributes":{
						"POSITION":12,
						"NORMAL":13,
						"TEXCOORD_0":14
					},
					"indices":15,
					"material":3
				},
				{
					"attributes":{
						"POSITION":16,
						"NORMAL":17,
						"TEXCOORD_0":18
					},
					"indices":19,
					"material":4
				}
			]
		}
	],
	"textures":[
		{
			"sampler":0,
			"source":0
		},
		{
			"sampler":0,
			"source":1
		}
	],
	"images":[
		{
			"mimeType":"image/png",
			"name":"tex39-3",
			"uri":"../../../Textures/tex39-3.png"
		},
		{
			"mimeType":"image/png",
			"name":"tex40-49",
			"uri":"../../../Textures/tex40-49.png"
		}
	],
	"accessors":[
		{
			"bufferView":0,
			"componentType":5126,
			"count":37,
			"max":[
				10.35858154296875,
				18.863021850585938,
				0.0102081298828125
			],
			"min":[
				-22.308582305908203,
				-15.337764739990234,
				-76.83670043945312
			],
			"type":"VEC3"
		},
		{
			"bufferView":1,
			"componentType":5126,
			"count":37,
			"type":"VEC3"
		},
		{
			"bufferView":2,
			"componentType":5126,
			"count":37,
			"type":"VEC2"
		},
		{
			"bufferView":3,
			"componentType":5123,
			"count":66,
			"type":"SCALAR"
		},
		{
			"bufferView":4,
			"componentType":5126,
			"count":20,
			"max":[
				10.35858154296875,
				17.329437255859375,
				0.0102081298828125
			],
			"min":[
				-22.308582305908203,
				-15.337764739990234,
				-68.87004089355469
			],
			"type":"VEC3"
		},
		{
			"bufferView":5,
			"componentType":5126,
			"count":20,
			"type":"VEC3"
		},
		{
			"bufferView":6,
			"componentType":5126,
			"count":20,
			"type":"VEC2"
		},
		{
			"bufferView":7,
			"componentType":5123,
			"count":36,
			"type":"SCALAR"
		},
		{
			"bufferView":8,
			"componentType":5126,
			"count":16,
			"max":[
				-7.3527069091796875,
				10.255928039550781,
				-68.87004089355469
			],
			"min":[
				-16.547290802001953,
				-4.280963897705078,
				-76.83670043945312
			],
			"type":"VEC3"
		},
		{
			"bufferView":9,
			"componentType":5126,
			"count":16,
			"type":"VEC3"
		},
		{
			"bufferView":10,
			"componentType":5126,
			"count":16,
			"type":"VEC2"
		},
		{
			"bufferView":11,
			"componentType":5123,
			"count":24,
			"type":"SCALAR"
		},
		{
			"bufferView":12,
			"componentType":5126,
			"count":26,
			"max":[
				1.2309226989746094,
				18.863021850585938,
				0.0102081298828125
			],
			"min":[
				-13.180923461914062,
				17.329429626464844,
				-4.793735504150391
			],
			"type":"VEC3"
		},
		{
			"bufferView":13,
			"componentType":5126,
			"count":26,
			"type":"VEC3"
		},
		{
			"bufferView":14,
			"componentType":5126,
			"count":26,
			"type":"VEC2"
		},
		{
			"bufferView":15,
			"componentType":5123,
			"count":54,
			"type":"SCALAR"
		},
		{
			"bufferView":16,
			"componentType":5126,
			"count":9,
			"max":[
				0.5446434020996094,
				17.329437255859375,
				0.0102081298828125
			],
			"min":[
				-12.494644165039062,
				17.329429626464844,
				-4.107452392578125
			],
			"type":"VEC3"
		},
		{
			"bufferView":17,
			"componentType":5126,
			"count":9,
			"type":"VEC3"
		},
		{
			"bufferView":18,
			"componentType":5126,
			"count":9,
			"type":"VEC2"
		},
		{
			"bufferView":19,
			"componentType":5123,
			"count":12,
			"type":"SCALAR"
		}
	],
	"bufferViews":[
		{
			"buffer":0,
			"byteLength":444,
			"byteOffset":0,
			"target":34962
		},
		{
			"buffer":0,
			"byteLength":444,
			"byteOffset":444,
			"target":34962
		},
		{
			"buffer":0,
			"byteLength":296,
			"byteOffset":888,
			"target":34962
		},
		{
			"buffer":0,
			"byteLength":132,
			"byteOffset":1184,
			"target":34963
		},
		{
			"buffer":0,
			"byteLength":240,
			"byteOffset":1316,
			"target":34962
		},
		{
			"buffer":0,
			"byteLength":240,
			"byteOffset":1556,
			"target":34962
		},
		{
			"buffer":0,
			"byteLength":160,
			"byteOffset":1796,
			"target":34962
		},
		{
			"buffer":0,
			"byteLength":72,
			"byteOffset":1956,
			"target":34963
		},
		{
			"buffer":0,
			"byteLength":192,
			"byteOffset":2028,
			"target":34962
		},
		{
			"buffer":0,
			"byteLength":192,
			"byteOffset":2220,
			"target":34962
		},
		{
			"buffer":0,
			"byteLength":128,
			"byteOffset":2412,
			"target":34962
		},
		{
			"buffer":0,
			"byteLength":48,
			"byteOffset":2540,
			"target":34963
		},
		{
			"buffer":0,
			"byteLength":312,
			"byteOffset":2588,
			"target":34962
		},
		{
			"buffer":0,
			"byteLength":312,
			"byteOffset":2900,
			"target":34962
		},
		{
			"buffer":0,
			"byteLength":208,
			"byteOffset":3212,
			"target":34962
		},
		{
			"buffer":0,
			"byteLength":108,
			"byteOffset":3420,
			"target":34963
		},
		{
			"buffer":0,
			"byteLength":108,
			"byteOffset":3528,
			"target":34962
		},
		{
			"buffer":0,
			"byteLength":108,
			"byteOffset":3636,
			"target":34962
		},
		{
			"buffer":0,
			"byteLength":72,
			"byteOffset":3744,
			"target":34962
		},
		{
			"buffer":0,
			"byteLength":24,
			"byteOffset":3816,
			"target":34963
		}
	],
	"samplers":[
		{
			"magFilter":9729,
			"minFilter":9987
		}
	],
	"buffers":[
		{
			"byteLength":3840,
			"uri":"large_2.bin"
		}
	]
}
