{
	"asset":{
		"generator":"Khronos glTF Blender I/O v4.3.47",
		"version":"2.0"
	},
	"scene":0,
	"scenes":[
		{
			"name":"Scene",
			"nodes":[
				0,
				1
			]
		}
	],
	"nodes":[
		{
			"mesh":0,
			"name":"Maxis-3d1-mesh-39",
			"rotation":[
				0.70710688829422,
				0,
				0,
				0.7071066498756409
			]
		},
		{
			"extras":{
				"gd_node":"Decal",
				"lower_fade":9,
				"upper_fade":10
			},
			"mesh":1,
			"name":"Ground_AO",
			"scale":[
				33.66716384887695,
				1,
				35.2008056640625
			],
			"translation":[
				-5.975000381469727,
				-0.010213843546807766,
				1.7626395225524902
			]
		}
	],
	"materials":[
		{
			"name":"matcolour-48.013",
			"occlusionTexture":{
				"index":0,
				"texCoord":1
			},
			"pbrMetallicRoughness":{
				"baseColorFactor":[
					0.05882352963089943,
					0.05882352963089943,
					0.05882352963089943,
					1
				],
				"metallicFactor":0
			}
		},
		{
			"name":"mat39-3.002",
			"occlusionTexture":{
				"index":1,
				"texCoord":1
			},
			"pbrMetallicRoughness":{
				"baseColorTexture":{
					"index":2
				},
				"metallicFactor":0
			}
		},
		{
			"name":"mat40-49.001",
			"occlusionTexture":{
				"index":3,
				"texCoord":1
			},
			"pbrMetallicRoughness":{
				"baseColorTexture":{
					"index":4
				},
				"metallicFactor":0
			}
		},
		{
			"name":"matcolour-160.002",
			"occlusionTexture":{
				"index":5,
				"texCoord":1
			},
			"pbrMetallicRoughness":{
				"baseColorFactor":[
					0.019607843831181526,
					0.16470588743686676,
					0.14509804546833038,
					1
				],
				"metallicFactor":0
			}
		},
		{
			"name":"matcolour-0.002",
			"occlusionTexture":{
				"index":6,
				"texCoord":1
			},
			"pbrMetallicRoughness":{
				"baseColorFactor":[
					0,
					0,
					0,
					1
				],
				"metallicFactor":0
			}
		},
		{
			"name":"Ground_AO.001",
			"occlusionTexture":{
				"index":7
			},
			"pbrMetallicRoughness":{
				"baseColorFactor":[
					0.800000011920929,
					0.800000011920929,
					0.800000011920929,
					1
				],
				"metallicFactor":0,
				"roughnessFactor":0.5
			}
		}
	],
	"meshes":[
		{
			"name":"Maxis-3d1-mesh-39",
			"primitives":[
				{
					"attributes":{
						"POSITION":0,
						"NORMAL":1,
						"TEXCOORD_0":2,
						"TEXCOORD_1":3
					},
					"indices":4,
					"material":0
				},
				{
					"attributes":{
						"POSITION":5,
						"NORMAL":6,
						"TEXCOORD_0":7,
						"TEXCOORD_1":8
					},
					"indices":9,
					"material":1
				},
				{
					"attributes":{
						"POSITION":10,
						"NORMAL":11,
						"TEXCOORD_0":12,
						"TEXCOORD_1":13
					},
					"indices":14,
					"material":2
				},
				{
					"attributes":{
						"POSITION":15,
						"NORMAL":16,
						"TEXCOORD_0":17,
						"TEXCOORD_1":18
					},
					"indices":19,
					"material":3
				},
				{
					"attributes":{
						"POSITION":20,
						"NORMAL":21,
						"TEXCOORD_0":22,
						"TEXCOORD_1":23
					},
					"indices":24,
					"material":4
				}
			]
		},
		{
			"name":"Plane.001",
			"primitives":[
				{
					"attributes":{
						"POSITION":25,
						"NORMAL":26,
						"TEXCOORD_0":27
					},
					"indices":28,
					"material":5
				}
			]
		}
	],
	"textures":[
		{
			"sampler":0,
			"source":0
		},
		{
			"sampler":0,
			"source":0
		},
		{
			"sampler":0,
			"source":1
		},
		{
			"sampler":0,
			"source":0
		},
		{
			"sampler":0,
			"source":2
		},
		{
			"sampler":0,
			"source":0
		},
		{
			"sampler":0,
			"source":0
		},
		{
			"sampler":0,
			"source":3
		}
	],
	"images":[
		{
			"mimeType":"image/png",
			"name":"large_2.png",
			"uri":"../../../Textures/ambient_occlusion/Buildings/Apartments/large_2.png"
		},
		{
			"mimeType":"image/png",
			"name":"tex39-3",
			"uri":"../../../Textures/tex39-3.png"
		},
		{
			"mimeType":"image/png",
			"name":"tex40-49",
			"uri":"../../../Textures/tex40-49.png"
		},
		{
			"mimeType":"image/png",
			"name":"large_2_ground.png",
			"uri":"../../../Textures/ambient_occlusion/Buildings/Apartments/large_2_ground.png"
		}
	],
	"accessors":[
		{
			"bufferView":0,
			"componentType":5126,
			"count":36,
			"max":[
				10.35858154296875,
				18.863021850585938,
				0.0102081298828125
			],
			"min":[
				-22.308582305908203,
				-15.337764739990234,
				-76.83670043945312
			],
			"type":"VEC3"
		},
		{
			"bufferView":1,
			"componentType":5126,
			"count":36,
			"type":"VEC3"
		},
		{
			"bufferView":2,
			"componentType":5126,
			"count":36,
			"type":"VEC2"
		},
		{
			"bufferView":3,
			"componentType":5126,
			"count":36,
			"type":"VEC2"
		},
		{
			"bufferView":4,
			"componentType":5123,
			"count":66,
			"type":"SCALAR"
		},
		{
			"bufferView":5,
			"componentType":5126,
			"count":22,
			"max":[
				10.35858154296875,
				17.329437255859375,
				0.0102081298828125
			],
			"min":[
				-22.308582305908203,
				-15.337764739990234,
				-68.87004089355469
			],
			"type":"VEC3"
		},
		{
			"bufferView":6,
			"componentType":5126,
			"count":22,
			"type":"VEC3"
		},
		{
			"bufferView":7,
			"componentType":5126,
			"count":22,
			"type":"VEC2"
		},
		{
			"bufferView":8,
			"componentType":5126,
			"count":22,
			"type":"VEC2"
		},
		{
			"bufferView":9,
			"componentType":5123,
			"count":36,
			"type":"SCALAR"
		},
		{
			"bufferView":10,
			"componentType":5126,
			"count":16,
			"max":[
				-7.3527069091796875,
				10.255928039550781,
				-68.87004089355469
			],
			"min":[
				-16.547290802001953,
				-4.280963897705078,
				-76.83670043945312
			],
			"type":"VEC3"
		},
		{
			"bufferView":11,
			"componentType":5126,
			"count":16,
			"type":"VEC3"
		},
		{
			"bufferView":12,
			"componentType":5126,
			"count":16,
			"type":"VEC2"
		},
		{
			"bufferView":13,
			"componentType":5126,
			"count":16,
			"type":"VEC2"
		},
		{
			"bufferView":14,
			"componentType":5123,
			"count":24,
			"type":"SCALAR"
		},
		{
			"bufferView":15,
			"componentType":5126,
			"count":32,
			"max":[
				1.2309226989746094,
				18.863021850585938,
				0.0102081298828125
			],
			"min":[
				-13.180923461914062,
				17.329429626464844,
				-4.793735504150391
			],
			"type":"VEC3"
		},
		{
			"bufferView":16,
			"componentType":5126,
			"count":32,
			"type":"VEC3"
		},
		{
			"bufferView":17,
			"componentType":5126,
			"count":32,
			"type":"VEC2"
		},
		{
			"bufferView":18,
			"componentType":5126,
			"count":32,
			"type":"VEC2"
		},
		{
			"bufferView":19,
			"componentType":5123,
			"count":54,
			"type":"SCALAR"
		},
		{
			"bufferView":20,
			"componentType":5126,
			"count":8,
			"max":[
				0.5446434020996094,
				17.329437255859375,
				0.0102081298828125
			],
			"min":[
				-12.494644165039062,
				17.329429626464844,
				-4.107452392578125
			],
			"type":"VEC3"
		},
		{
			"bufferView":21,
			"componentType":5126,
			"count":8,
			"type":"VEC3"
		},
		{
			"bufferView":22,
			"componentType":5126,
			"count":8,
			"type":"VEC2"
		},
		{
			"bufferView":23,
			"componentType":5126,
			"count":8,
			"type":"VEC2"
		},
		{
			"bufferView":24,
			"componentType":5123,
			"count":12,
			"type":"SCALAR"
		},
		{
			"bufferView":25,
			"componentType":5126,
			"count":4,
			"max":[
				0.5,
				0,
				0.5
			],
			"min":[
				-0.5,
				0,
				-0.5
			],
			"type":"VEC3"
		},
		{
			"bufferView":26,
			"componentType":5126,
			"count":4,
			"type":"VEC3"
		},
		{
			"bufferView":27,
			"componentType":5126,
			"count":4,
			"type":"VEC2"
		},
		{
			"bufferView":28,
			"componentType":5123,
			"count":6,
			"type":"SCALAR"
		}
	],
	"bufferViews":[
		{
			"buffer":0,
			"byteLength":432,
			"byteOffset":0,
			"target":34962
		},
		{
			"buffer":0,
			"byteLength":432,
			"byteOffset":432,
			"target":34962
		},
		{
			"buffer":0,
			"byteLength":288,
			"byteOffset":864,
			"target":34962
		},
		{
			"buffer":0,
			"byteLength":288,
			"byteOffset":1152,
			"target":34962
		},
		{
			"buffer":0,
			"byteLength":132,
			"byteOffset":1440,
			"target":34963
		},
		{
			"buffer":0,
			"byteLength":264,
			"byteOffset":1572,
			"target":34962
		},
		{
			"buffer":0,
			"byteLength":264,
			"byteOffset":1836,
			"target":34962
		},
		{
			"buffer":0,
			"byteLength":176,
			"byteOffset":2100,
			"target":34962
		},
		{
			"buffer":0,
			"byteLength":176,
			"byteOffset":2276,
			"target":34962
		},
		{
			"buffer":0,
			"byteLength":72,
			"byteOffset":2452,
			"target":34963
		},
		{
			"buffer":0,
			"byteLength":192,
			"byteOffset":2524,
			"target":34962
		},
		{
			"buffer":0,
			"byteLength":192,
			"byteOffset":2716,
			"target":34962
		},
		{
			"buffer":0,
			"byteLength":128,
			"byteOffset":2908,
			"target":34962
		},
		{
			"buffer":0,
			"byteLength":128,
			"byteOffset":3036,
			"target":34962
		},
		{
			"buffer":0,
			"byteLength":48,
			"byteOffset":3164,
			"target":34963
		},
		{
			"buffer":0,
			"byteLength":384,
			"byteOffset":3212,
			"target":34962
		},
		{
			"buffer":0,
			"byteLength":384,
			"byteOffset":3596,
			"target":34962
		},
		{
			"buffer":0,
			"byteLength":256,
			"byteOffset":3980,
			"target":34962
		},
		{
			"buffer":0,
			"byteLength":256,
			"byteOffset":4236,
			"target":34962
		},
		{
			"buffer":0,
			"byteLength":108,
			"byteOffset":4492,
			"target":34963
		},
		{
			"buffer":0,
			"byteLength":96,
			"byteOffset":4600,
			"target":34962
		},
		{
			"buffer":0,
			"byteLength":96,
			"byteOffset":4696,
			"target":34962
		},
		{
			"buffer":0,
			"byteLength":64,
			"byteOffset":4792,
			"target":34962
		},
		{
			"buffer":0,
			"byteLength":64,
			"byteOffset":4856,
			"target":34962
		},
		{
			"buffer":0,
			"byteLength":24,
			"byteOffset":4920,
			"target":34963
		},
		{
			"buffer":0,
			"byteLength":48,
			"byteOffset":4944,
			"target":34962
		},
		{
			"buffer":0,
			"byteLength":48,
			"byteOffset":4992,
			"target":34962
		},
		{
			"buffer":0,
			"byteLength":32,
			"byteOffset":5040,
			"target":34962
		},
		{
			"buffer":0,
			"byteLength":12,
			"byteOffset":5072,
			"target":34963
		}
	],
	"samplers":[
		{
			"magFilter":9729,
			"minFilter":9987
		}
	],
	"buffers":[
		{
			"byteLength":5084,
			"uri":"large_2.bin"
		}
	]
}
