{
	"asset":{
		"generator":"Khronos glTF Blender I/O v4.1.63",
		"version":"2.0"
	},
	"scene":0,
	"scenes":[
		{
			"name":"Scene",
			"nodes":[
				0
			]
		}
	],
	"nodes":[
		{
			"mesh":0,
			"name":"Maxis-3d3-mesh-31",
			"rotation":[
				0.70710688829422,
				0,
				0,
				0.7071066498756409
			]
		}
	],
	"materials":[
		{
			"name":"matcolour-128",
			"pbrMetallicRoughness":{
				"baseColorFactor":[
					0.12156862765550613,
					0.08235294371843338,
					0.062745101749897,
					1
				],
				"metallicFactor":0
			}
		},
		{
			"name":"mat2-22",
			"pbrMetallicRoughness":{
				"baseColorTexture":{
					"index":0
				},
				"metallicFactor":0
			}
		},
		{
			"name":"mat39-58",
			"pbrMetallicRoughness":{
				"baseColorTexture":{
					"index":1
				},
				"metallicFactor":0
			}
		}
	],
	"meshes":[
		{
			"name":"Maxis-3d3-mesh-31",
			"primitives":[
				{
					"attributes":{
						"POSITION":0,
						"NORMAL":1,
						"TEXCOORD_0":2
					},
					"indices":3,
					"material":0
				},
				{
					"attributes":{
						"POSITION":4,
						"NORMAL":5,
						"TEXCOORD_0":6
					},
					"indices":7,
					"material":1
				},
				{
					"attributes":{
						"POSITION":8,
						"NORMAL":9,
						"TEXCOORD_0":10
					},
					"indices":11,
					"material":1
				},
				{
					"attributes":{
						"POSITION":12,
						"NORMAL":13,
						"TEXCOORD_0":14
					},
					"indices":15,
					"material":2
				},
				{
					"attributes":{
						"POSITION":16,
						"NORMAL":17,
						"TEXCOORD_0":18
					},
					"indices":19,
					"material":2
				},
				{
					"attributes":{
						"POSITION":20,
						"NORMAL":21,
						"TEXCOORD_0":22
					},
					"indices":23,
					"material":1
				},
				{
					"attributes":{
						"POSITION":24,
						"NORMAL":25,
						"TEXCOORD_0":26
					},
					"indices":27,
					"material":1
				},
				{
					"attributes":{
						"POSITION":28,
						"NORMAL":29,
						"TEXCOORD_0":30
					},
					"indices":31
				},
				{
					"attributes":{
						"POSITION":32,
						"NORMAL":33,
						"TEXCOORD_0":34
					},
					"indices":35,
					"material":2
				},
				{
					"attributes":{
						"POSITION":36,
						"NORMAL":37,
						"TEXCOORD_0":38
					},
					"indices":39,
					"material":2
				}
			]
		}
	],
	"textures":[
		{
			"sampler":0,
			"source":0
		},
		{
			"sampler":0,
			"source":1
		}
	],
	"images":[
		{
			"mimeType":"image/png",
			"name":"tex2-22",
			"uri":"../../../Textures/tex2-22.png"
		},
		{
			"mimeType":"image/png",
			"name":"tex39-58",
			"uri":"../../../Textures/tex39-58.png"
		}
	],
	"accessors":[
		{
			"bufferView":0,
			"componentType":5126,
			"count":46,
			"max":[
				14.31716537475586,
				14.98049545288086,
				-10.250007629394531
			],
			"min":[
				-14.88132095336914,
				-14.88132095336914,
				-17.25
			],
			"type":"VEC3"
		},
		{
			"bufferView":1,
			"componentType":5126,
			"count":46,
			"type":"VEC3"
		},
		{
			"bufferView":2,
			"componentType":5126,
			"count":46,
			"type":"VEC2"
		},
		{
			"bufferView":3,
			"componentType":5123,
			"count":66,
			"type":"SCALAR"
		},
		{
			"bufferView":4,
			"componentType":5126,
			"count":16,
			"max":[
				14.317169189453125,
				-0.032398223876953125,
				-0.25
			],
			"min":[
				-14.88132095336914,
				-14.88132095336914,
				-10.250007629394531
			],
			"type":"VEC3"
		},
		{
			"bufferView":5,
			"componentType":5126,
			"count":16,
			"type":"VEC3"
		},
		{
			"bufferView":6,
			"componentType":5126,
			"count":16,
			"type":"VEC2"
		},
		{
			"bufferView":7,
			"componentType":5123,
			"count":24,
			"type":"SCALAR"
		},
		{
			"bufferView":8,
			"componentType":5126,
			"count":16,
			"max":[
				-0.37648773193359375,
				14.98049545288086,
				-0.24999618530273438
			],
			"min":[
				-14.88132095336914,
				-14.88132095336914,
				-10.250007629394531
			],
			"type":"VEC3"
		},
		{
			"bufferView":9,
			"componentType":5126,
			"count":16,
			"type":"VEC3"
		},
		{
			"bufferView":10,
			"componentType":5126,
			"count":16,
			"type":"VEC2"
		},
		{
			"bufferView":11,
			"componentType":5123,
			"count":24,
			"type":"SCALAR"
		},
		{
			"bufferView":12,
			"componentType":5126,
			"count":14,
			"max":[
				14.31716537475586,
				4.916229248046875,
				-10.250007629394531
			],
			"min":[
				-14.88132095336914,
				-14.88132095336914,
				-17.25
			],
			"type":"VEC3"
		},
		{
			"bufferView":13,
			"componentType":5126,
			"count":14,
			"type":"VEC3"
		},
		{
			"bufferView":14,
			"componentType":5126,
			"count":14,
			"type":"VEC2"
		},
		{
			"bufferView":15,
			"componentType":5123,
			"count":18,
			"type":"SCALAR"
		},
		{
			"bufferView":16,
			"componentType":5126,
			"count":14,
			"max":[
				4.5721282958984375,
				14.98049545288086,
				-10.250007629394531
			],
			"min":[
				-14.88132095336914,
				-14.88132095336914,
				-17.25
			],
			"type":"VEC3"
		},
		{
			"bufferView":17,
			"componentType":5126,
			"count":14,
			"type":"VEC3"
		},
		{
			"bufferView":18,
			"componentType":5126,
			"count":14,
			"type":"VEC2"
		},
		{
			"bufferView":19,
			"componentType":5123,
			"count":18,
			"type":"SCALAR"
		},
		{
			"bufferView":20,
			"componentType":5126,
			"count":8,
			"max":[
				14.31716537475586,
				14.98049545288086,
				-0.24999618530273438
			],
			"min":[
				-14.88132095336914,
				-14.88132095336914,
				-10.250007629394531
			],
			"type":"VEC3"
		},
		{
			"bufferView":21,
			"componentType":5126,
			"count":8,
			"type":"VEC3"
		},
		{
			"bufferView":22,
			"componentType":5126,
			"count":8,
			"type":"VEC2"
		},
		{
			"bufferView":23,
			"componentType":5123,
			"count":12,
			"type":"SCALAR"
		},
		{
			"bufferView":24,
			"componentType":5126,
			"count":24,
			"max":[
				14.317169189453125,
				14.98049545288086,
				-0.24999618530273438
			],
			"min":[
				-2.8968544006347656,
				-2.8968582153320312,
				-10.250007629394531
			],
			"type":"VEC3"
		},
		{
			"bufferView":25,
			"componentType":5126,
			"count":24,
			"type":"VEC3"
		},
		{
			"bufferView":26,
			"componentType":5126,
			"count":24,
			"type":"VEC2"
		},
		{
			"bufferView":27,
			"componentType":5123,
			"count":36,
			"type":"SCALAR"
		},
		{
			"bufferView":28,
			"componentType":5126,
			"count":6,
			"max":[
				14.317161560058594,
				12.864852905273438,
				-10.250007629394531
			],
			"min":[
				-2.8968544006347656,
				-2.8968582153320312,
				-10.250007629394531
			],
			"type":"VEC3"
		},
		{
			"bufferView":29,
			"componentType":5126,
			"count":6,
			"type":"VEC3"
		},
		{
			"bufferView":30,
			"componentType":5126,
			"count":6,
			"type":"VEC2"
		},
		{
			"bufferView":31,
			"componentType":5123,
			"count":6,
			"type":"SCALAR"
		},
		{
			"bufferView":32,
			"componentType":5126,
			"count":13,
			"max":[
				12.520755767822266,
				12.864852905273438,
				-10.250007629394531
			],
			"min":[
				-2.8968544006347656,
				-2.8968582153320312,
				-17.25
			],
			"type":"VEC3"
		},
		{
			"bufferView":33,
			"componentType":5126,
			"count":13,
			"type":"VEC3"
		},
		{
			"bufferView":34,
			"componentType":5126,
			"count":13,
			"type":"VEC2"
		},
		{
			"bufferView":35,
			"componentType":5123,
			"count":24,
			"type":"SCALAR"
		},
		{
			"bufferView":36,
			"componentType":5126,
			"count":12,
			"max":[
				12.520755767822266,
				12.864852905273438,
				-10.250007629394531
			],
			"min":[
				-0.5836372375488281,
				-0.5836372375488281,
				-17.25
			],
			"type":"VEC3"
		},
		{
			"bufferView":37,
			"componentType":5126,
			"count":12,
			"type":"VEC3"
		},
		{
			"bufferView":38,
			"componentType":5126,
			"count":12,
			"type":"VEC2"
		},
		{
			"bufferView":39,
			"componentType":5123,
			"count":24,
			"type":"SCALAR"
		}
	],
	"bufferViews":[
		{
			"buffer":0,
			"byteLength":552,
			"byteOffset":0,
			"target":34962
		},
		{
			"buffer":0,
			"byteLength":552,
			"byteOffset":552,
			"target":34962
		},
		{
			"buffer":0,
			"byteLength":368,
			"byteOffset":1104,
			"target":34962
		},
		{
			"buffer":0,
			"byteLength":132,
			"byteOffset":1472,
			"target":34963
		},
		{
			"buffer":0,
			"byteLength":192,
			"byteOffset":1604,
			"target":34962
		},
		{
			"buffer":0,
			"byteLength":192,
			"byteOffset":1796,
			"target":34962
		},
		{
			"buffer":0,
			"byteLength":128,
			"byteOffset":1988,
			"target":34962
		},
		{
			"buffer":0,
			"byteLength":48,
			"byteOffset":2116,
			"target":34963
		},
		{
			"buffer":0,
			"byteLength":192,
			"byteOffset":2164,
			"target":34962
		},
		{
			"buffer":0,
			"byteLength":192,
			"byteOffset":2356,
			"target":34962
		},
		{
			"buffer":0,
			"byteLength":128,
			"byteOffset":2548,
			"target":34962
		},
		{
			"buffer":0,
			"byteLength":48,
			"byteOffset":2676,
			"target":34963
		},
		{
			"buffer":0,
			"byteLength":168,
			"byteOffset":2724,
			"target":34962
		},
		{
			"buffer":0,
			"byteLength":168,
			"byteOffset":2892,
			"target":34962
		},
		{
			"buffer":0,
			"byteLength":112,
			"byteOffset":3060,
			"target":34962
		},
		{
			"buffer":0,
			"byteLength":36,
			"byteOffset":3172,
			"target":34963
		},
		{
			"buffer":0,
			"byteLength":168,
			"byteOffset":3208,
			"target":34962
		},
		{
			"buffer":0,
			"byteLength":168,
			"byteOffset":3376,
			"target":34962
		},
		{
			"buffer":0,
			"byteLength":112,
			"byteOffset":3544,
			"target":34962
		},
		{
			"buffer":0,
			"byteLength":36,
			"byteOffset":3656,
			"target":34963
		},
		{
			"buffer":0,
			"byteLength":96,
			"byteOffset":3692,
			"target":34962
		},
		{
			"buffer":0,
			"byteLength":96,
			"byteOffset":3788,
			"target":34962
		},
		{
			"buffer":0,
			"byteLength":64,
			"byteOffset":3884,
			"target":34962
		},
		{
			"buffer":0,
			"byteLength":24,
			"byteOffset":3948,
			"target":34963
		},
		{
			"buffer":0,
			"byteLength":288,
			"byteOffset":3972,
			"target":34962
		},
		{
			"buffer":0,
			"byteLength":288,
			"byteOffset":4260,
			"target":34962
		},
		{
			"buffer":0,
			"byteLength":192,
			"byteOffset":4548,
			"target":34962
		},
		{
			"buffer":0,
			"byteLength":72,
			"byteOffset":4740,
			"target":34963
		},
		{
			"buffer":0,
			"byteLength":72,
			"byteOffset":4812,
			"target":34962
		},
		{
			"buffer":0,
			"byteLength":72,
			"byteOffset":4884,
			"target":34962
		},
		{
			"buffer":0,
			"byteLength":48,
			"byteOffset":4956,
			"target":34962
		},
		{
			"buffer":0,
			"byteLength":12,
			"byteOffset":5004,
			"target":34963
		},
		{
			"buffer":0,
			"byteLength":156,
			"byteOffset":5016,
			"target":34962
		},
		{
			"buffer":0,
			"byteLength":156,
			"byteOffset":5172,
			"target":34962
		},
		{
			"buffer":0,
			"byteLength":104,
			"byteOffset":5328,
			"target":34962
		},
		{
			"buffer":0,
			"byteLength":48,
			"byteOffset":5432,
			"target":34963
		},
		{
			"buffer":0,
			"byteLength":144,
			"byteOffset":5480,
			"target":34962
		},
		{
			"buffer":0,
			"byteLength":144,
			"byteOffset":5624,
			"target":34962
		},
		{
			"buffer":0,
			"byteLength":96,
			"byteOffset":5768,
			"target":34962
		},
		{
			"buffer":0,
			"byteLength":48,
			"byteOffset":5864,
			"target":34963
		}
	],
	"samplers":[
		{
			"magFilter":9729,
			"minFilter":9987
		}
	],
	"buffers":[
		{
			"byteLength":5912,
			"uri":"medium_1.bin"
		}
	]
}
