{
	"asset":{
		"generator":"Khronos glTF Blender I/O v4.1.63",
		"version":"2.0"
	},
	"scene":0,
	"scenes":[
		{
			"name":"Scene",
			"nodes":[
				0
			]
		}
	],
	"nodes":[
		{
			"mesh":0,
			"name":"Maxis-3d3-mesh-32",
			"rotation":[
				0.70710688829422,
				0,
				0,
				0.7071066498756409
			]
		}
	],
	"materials":[
		{
			"name":"matcolour-48.003",
			"pbrMetallicRoughness":{
				"baseColorFactor":[
					0.05882352963089943,
					0.05882352963089943,
					0.05882352963089943,
					1
				],
				"metallicFactor":0
			}
		},
		{
			"name":"mat39-22",
			"pbrMetallicRoughness":{
				"baseColorTexture":{
					"index":0
				},
				"metallicFactor":0
			}
		},
		{
			"name":"mat39-13",
			"pbrMetallicRoughness":{
				"baseColorTexture":{
					"index":1
				},
				"metallicFactor":0
			}
		},
		{
			"name":"matcolour-128.001",
			"pbrMetallicRoughness":{
				"baseColorFactor":[
					0.12156862765550613,
					0.08235294371843338,
					0.062745101749897,
					1
				],
				"metallicFactor":0
			}
		},
		{
			"name":"mat40-60",
			"pbrMetallicRoughness":{
				"baseColorTexture":{
					"index":2
				},
				"metallicFactor":0
			}
		},
		{
			"name":"mat39-31",
			"pbrMetallicRoughness":{
				"baseColorTexture":{
					"index":3
				},
				"metallicFactor":0
			}
		},
		{
			"name":"mat40-20",
			"pbrMetallicRoughness":{
				"baseColorTexture":{
					"index":4
				},
				"metallicFactor":0
			}
		},
		{
			"name":"mat2-40",
			"pbrMetallicRoughness":{
				"baseColorTexture":{
					"index":5
				},
				"metallicFactor":0
			}
		}
	],
	"meshes":[
		{
			"name":"Maxis-3d3-mesh-32",
			"primitives":[
				{
					"attributes":{
						"POSITION":0,
						"NORMAL":1,
						"TEXCOORD_0":2
					},
					"indices":3,
					"material":0
				},
				{
					"attributes":{
						"POSITION":4,
						"NORMAL":5,
						"TEXCOORD_0":6
					},
					"indices":7,
					"material":1
				},
				{
					"attributes":{
						"POSITION":8,
						"NORMAL":9,
						"TEXCOORD_0":10
					},
					"indices":11,
					"material":1
				},
				{
					"attributes":{
						"POSITION":12,
						"NORMAL":13,
						"TEXCOORD_0":14
					},
					"indices":15,
					"material":1
				},
				{
					"attributes":{
						"POSITION":16,
						"NORMAL":17,
						"TEXCOORD_0":18
					},
					"indices":19,
					"material":1
				},
				{
					"attributes":{
						"POSITION":20,
						"NORMAL":21,
						"TEXCOORD_0":22
					},
					"indices":23,
					"material":2
				},
				{
					"attributes":{
						"POSITION":24,
						"NORMAL":25,
						"TEXCOORD_0":26
					},
					"indices":27,
					"material":2
				},
				{
					"attributes":{
						"POSITION":28,
						"NORMAL":29,
						"TEXCOORD_0":30
					},
					"indices":31,
					"material":2
				},
				{
					"attributes":{
						"POSITION":32,
						"NORMAL":33,
						"TEXCOORD_0":34
					},
					"indices":35,
					"material":2
				},
				{
					"attributes":{
						"POSITION":36,
						"NORMAL":37,
						"TEXCOORD_0":38
					},
					"indices":39,
					"material":3
				},
				{
					"attributes":{
						"POSITION":40,
						"NORMAL":41,
						"TEXCOORD_0":42
					},
					"indices":43,
					"material":4
				},
				{
					"attributes":{
						"POSITION":44,
						"NORMAL":45,
						"TEXCOORD_0":46
					},
					"indices":15,
					"material":5
				},
				{
					"attributes":{
						"POSITION":47,
						"NORMAL":48,
						"TEXCOORD_0":49
					},
					"indices":50,
					"material":5
				},
				{
					"attributes":{
						"POSITION":51,
						"NORMAL":52,
						"TEXCOORD_0":53
					},
					"indices":54,
					"material":5
				},
				{
					"attributes":{
						"POSITION":55,
						"NORMAL":56,
						"TEXCOORD_0":57
					},
					"indices":58,
					"material":5
				},
				{
					"attributes":{
						"POSITION":59,
						"NORMAL":60,
						"TEXCOORD_0":61
					},
					"indices":62,
					"material":6
				},
				{
					"attributes":{
						"POSITION":63,
						"NORMAL":64,
						"TEXCOORD_0":65
					},
					"indices":15,
					"material":6
				},
				{
					"attributes":{
						"POSITION":66,
						"NORMAL":67,
						"TEXCOORD_0":68
					},
					"indices":15,
					"material":6
				},
				{
					"attributes":{
						"POSITION":69,
						"NORMAL":70,
						"TEXCOORD_0":71
					},
					"indices":72,
					"material":6
				},
				{
					"attributes":{
						"POSITION":73,
						"NORMAL":74,
						"TEXCOORD_0":75
					},
					"indices":23,
					"material":7
				},
				{
					"attributes":{
						"POSITION":76,
						"NORMAL":77,
						"TEXCOORD_0":78
					},
					"indices":72,
					"material":7
				},
				{
					"attributes":{
						"POSITION":79,
						"NORMAL":80,
						"TEXCOORD_0":81
					},
					"indices":31,
					"material":7
				},
				{
					"attributes":{
						"POSITION":82,
						"NORMAL":83,
						"TEXCOORD_0":84
					},
					"indices":39,
					"material":7
				}
			]
		}
	],
	"textures":[
		{
			"sampler":0,
			"source":0
		},
		{
			"sampler":0,
			"source":1
		},
		{
			"sampler":0,
			"source":2
		},
		{
			"sampler":0,
			"source":3
		},
		{
			"sampler":0,
			"source":4
		},
		{
			"sampler":0,
			"source":5
		}
	],
	"images":[
		{
			"mimeType":"image/png",
			"name":"tex39-22",
			"uri":"../../../Textures/tex39-22.png"
		},
		{
			"mimeType":"image/png",
			"name":"tex39-13",
			"uri":"../../../Textures/tex39-13.png"
		},
		{
			"mimeType":"image/png",
			"name":"tex40-60",
			"uri":"../../../Textures/tex40-60.png"
		},
		{
			"mimeType":"image/png",
			"name":"tex39-31",
			"uri":"../../../Textures/tex39-31.png"
		},
		{
			"mimeType":"image/png",
			"name":"tex40-20",
			"uri":"../../../Textures/tex40-20.png"
		},
		{
			"mimeType":"image/png",
			"name":"tex2-40",
			"uri":"../../../Textures/tex2-40.png"
		}
	],
	"accessors":[
		{
			"bufferView":0,
			"componentType":5126,
			"count":25,
			"max":[
				15,
				14.535541534423828,
				-13.499992370605469
			],
			"min":[
				-13.5,
				-14.680900573730469,
				-15.000003814697266
			],
			"type":"VEC3"
		},
		{
			"bufferView":1,
			"componentType":5126,
			"count":25,
			"type":"VEC3"
		},
		{
			"bufferView":2,
			"componentType":5126,
			"count":25,
			"type":"VEC2"
		},
		{
			"bufferView":3,
			"componentType":5123,
			"count":72,
			"type":"SCALAR"
		},
		{
			"bufferView":4,
			"componentType":5126,
			"count":4,
			"max":[
				-2,
				14.53554916381836,
				3.814697265625e-06
			],
			"min":[
				-2,
				-14.680900573730469,
				-15.000003814697266
			],
			"type":"VEC3"
		},
		{
			"bufferView":5,
			"componentType":5126,
			"count":4,
			"type":"VEC3"
		},
		{
			"bufferView":6,
			"componentType":5126,
			"count":4,
			"type":"VEC2"
		},
		{
			"bufferView":7,
			"componentType":5123,
			"count":6,
			"type":"SCALAR"
		},
		{
			"bufferView":8,
			"componentType":5126,
			"count":4,
			"max":[
				-13.5,
				14.53554916381836,
				3.814697265625e-06
			],
			"min":[
				-13.5,
				-14.680900573730469,
				-15.000003814697266
			],
			"type":"VEC3"
		},
		{
			"bufferView":9,
			"componentType":5126,
			"count":4,
			"type":"VEC3"
		},
		{
			"bufferView":10,
			"componentType":5126,
			"count":4,
			"type":"VEC2"
		},
		{
			"bufferView":11,
			"componentType":5123,
			"count":6,
			"type":"SCALAR"
		},
		{
			"bufferView":12,
			"componentType":5126,
			"count":4,
			"max":[
				-2,
				14.53554916381836,
				-3.814697265625e-06
			],
			"min":[
				-13.5,
				14.535541534423828,
				-15.000003814697266
			],
			"type":"VEC3"
		},
		{
			"bufferView":13,
			"componentType":5126,
			"count":4,
			"type":"VEC3"
		},
		{
			"bufferView":14,
			"componentType":5126,
			"count":4,
			"type":"VEC2"
		},
		{
			"bufferView":15,
			"componentType":5123,
			"count":6,
			"type":"SCALAR"
		},
		{
			"bufferView":16,
			"componentType":5126,
			"count":4,
			"max":[
				-2,
				-14.680896759033203,
				3.814697265625e-06
			],
			"min":[
				-13.5,
				-14.680900573730469,
				-14.999992370605469
			],
			"type":"VEC3"
		},
		{
			"bufferView":17,
			"componentType":5126,
			"count":4,
			"type":"VEC3"
		},
		{
			"bufferView":18,
			"componentType":5126,
			"count":4,
			"type":"VEC2"
		},
		{
			"bufferView":19,
			"componentType":5123,
			"count":6,
			"type":"SCALAR"
		},
		{
			"bufferView":20,
			"componentType":5126,
			"count":4,
			"max":[
				1.5,
				14.391742706298828,
				3.814697265625e-06
			],
			"min":[
				1.5,
				-12.791282653808594,
				-13.500003814697266
			],
			"type":"VEC3"
		},
		{
			"bufferView":21,
			"componentType":5126,
			"count":4,
			"type":"VEC3"
		},
		{
			"bufferView":22,
			"componentType":5126,
			"count":4,
			"type":"VEC2"
		},
		{
			"bufferView":23,
			"componentType":5123,
			"count":6,
			"type":"SCALAR"
		},
		{
			"bufferView":24,
			"componentType":5126,
			"count":8,
			"max":[
				15,
				14.391742706298828,
				3.814697265625e-06
			],
			"min":[
				8.5,
				-12.791282653808594,
				-13.500003814697266
			],
			"type":"VEC3"
		},
		{
			"bufferView":25,
			"componentType":5126,
			"count":8,
			"type":"VEC3"
		},
		{
			"bufferView":26,
			"componentType":5126,
			"count":8,
			"type":"VEC2"
		},
		{
			"bufferView":27,
			"componentType":5123,
			"count":12,
			"type":"SCALAR"
		},
		{
			"bufferView":28,
			"componentType":5126,
			"count":4,
			"max":[
				15,
				-12.791278839111328,
				3.814697265625e-06
			],
			"min":[
				1.5,
				-12.791282653808594,
				-13.499992370605469
			],
			"type":"VEC3"
		},
		{
			"bufferView":29,
			"componentType":5126,
			"count":4,
			"type":"VEC3"
		},
		{
			"bufferView":30,
			"componentType":5126,
			"count":4,
			"type":"VEC2"
		},
		{
			"bufferView":31,
			"componentType":5123,
			"count":6,
			"type":"SCALAR"
		},
		{
			"bufferView":32,
			"componentType":5126,
			"count":8,
			"max":[
				15,
				14.391742706298828,
				0
			],
			"min":[
				1.5,
				-2.291278839111328,
				-13.500003814697266
			],
			"type":"VEC3"
		},
		{
			"bufferView":33,
			"componentType":5126,
			"count":8,
			"type":"VEC3"
		},
		{
			"bufferView":34,
			"componentType":5126,
			"count":8,
			"type":"VEC2"
		},
		{
			"bufferView":35,
			"componentType":5123,
			"count":12,
			"type":"SCALAR"
		},
		{
			"bufferView":36,
			"componentType":5126,
			"count":4,
			"max":[
				-5.785026550292969,
				-8.681438446044922,
				-17.702518463134766
			],
			"min":[
				-13.132240295410156,
				-14.436782836914062,
				-17.70252227783203
			],
			"type":"VEC3"
		},
		{
			"bufferView":37,
			"componentType":5126,
			"count":4,
			"type":"VEC3"
		},
		{
			"bufferView":38,
			"componentType":5126,
			"count":4,
			"type":"VEC2"
		},
		{
			"bufferView":39,
			"componentType":5123,
			"count":6,
			"type":"SCALAR"
		},
		{
			"bufferView":40,
			"componentType":5126,
			"count":8,
			"max":[
				5.571388244628906,
				-4.367458343505859,
				-15.718879699707031
			],
			"min":[
				-12.492366790771484,
				-12.581260681152344,
				-16.359455108642578
			],
			"type":"VEC3"
		},
		{
			"bufferView":41,
			"componentType":5126,
			"count":8,
			"type":"VEC3"
		},
		{
			"bufferView":42,
			"componentType":5126,
			"count":8,
			"type":"VEC2"
		},
		{
			"bufferView":43,
			"componentType":5123,
			"count":12,
			"type":"SCALAR"
		},
		{
			"bufferView":44,
			"componentType":5126,
			"count":4,
			"max":[
				-5.785026550292969,
				-8.681438446044922,
				-14.999996185302734
			],
			"min":[
				-13.132240295410156,
				-8.681438446044922,
				-17.70252227783203
			],
			"type":"VEC3"
		},
		{
			"bufferView":45,
			"componentType":5126,
			"count":4,
			"type":"VEC3"
		},
		{
			"bufferView":46,
			"componentType":5126,
			"count":4,
			"type":"VEC2"
		},
		{
			"bufferView":47,
			"componentType":5126,
			"count":4,
			"max":[
				-5.785026550292969,
				-14.436779022216797,
				-14.999992370605469
			],
			"min":[
				-13.132240295410156,
				-14.436782836914062,
				-17.702518463134766
			],
			"type":"VEC3"
		},
		{
			"bufferView":48,
			"componentType":5126,
			"count":4,
			"type":"VEC3"
		},
		{
			"bufferView":49,
			"componentType":5126,
			"count":4,
			"type":"VEC2"
		},
		{
			"bufferView":50,
			"componentType":5123,
			"count":6,
			"type":"SCALAR"
		},
		{
			"bufferView":51,
			"componentType":5126,
			"count":4,
			"max":[
				-5.785026550292969,
				-8.681438446044922,
				-14.999992370605469
			],
			"min":[
				-5.785026550292969,
				-14.436782836914062,
				-17.70252227783203
			],
			"type":"VEC3"
		},
		{
			"bufferView":52,
			"componentType":5126,
			"count":4,
			"type":"VEC3"
		},
		{
			"bufferView":53,
			"componentType":5126,
			"count":4,
			"type":"VEC2"
		},
		{
			"bufferView":54,
			"componentType":5123,
			"count":6,
			"type":"SCALAR"
		},
		{
			"bufferView":55,
			"componentType":5126,
			"count":4,
			"max":[
				-13.132240295410156,
				-8.681438446044922,
				-14.999992370605469
			],
			"min":[
				-13.132240295410156,
				-14.436782836914062,
				-17.70252227783203
			],
			"type":"VEC3"
		},
		{
			"bufferView":56,
			"componentType":5126,
			"count":4,
			"type":"VEC3"
		},
		{
			"bufferView":57,
			"componentType":5126,
			"count":4,
			"type":"VEC2"
		},
		{
			"bufferView":58,
			"componentType":5123,
			"count":6,
			"type":"SCALAR"
		},
		{
			"bufferView":59,
			"componentType":5126,
			"count":4,
			"max":[
				-8.446922302246094,
				-8.412899017333984,
				-15
			],
			"min":[
				-12.492366790771484,
				-8.41290283203125,
				-16.359455108642578
			],
			"type":"VEC3"
		},
		{
			"bufferView":60,
			"componentType":5126,
			"count":4,
			"type":"VEC3"
		},
		{
			"bufferView":61,
			"componentType":5126,
			"count":4,
			"type":"VEC2"
		},
		{
			"bufferView":62,
			"componentType":5123,
			"count":6,
			"type":"SCALAR"
		},
		{
			"bufferView":63,
			"componentType":5126,
			"count":4,
			"max":[
				-8.446922302246094,
				-4.367454528808594,
				-15
			],
			"min":[
				-12.492366790771484,
				-4.367458343505859,
				-16.359455108642578
			],
			"type":"VEC3"
		},
		{
			"bufferView":64,
			"componentType":5126,
			"count":4,
			"type":"VEC3"
		},
		{
			"bufferView":65,
			"componentType":5126,
			"count":4,
			"type":"VEC2"
		},
		{
			"bufferView":66,
			"componentType":5126,
			"count":4,
			"max":[
				-12.492366790771484,
				-4.367454528808594,
				-15
			],
			"min":[
				-12.492366790771484,
				-8.41290283203125,
				-16.359455108642578
			],
			"type":"VEC3"
		},
		{
			"bufferView":67,
			"componentType":5126,
			"count":4,
			"type":"VEC3"
		},
		{
			"bufferView":68,
			"componentType":5126,
			"count":4,
			"type":"VEC2"
		},
		{
			"bufferView":69,
			"componentType":5126,
			"count":4,
			"max":[
				-8.446922302246094,
				-4.367454528808594,
				-15
			],
			"min":[
				-8.446922302246094,
				-8.41290283203125,
				-16.359455108642578
			],
			"type":"VEC3"
		},
		{
			"bufferView":70,
			"componentType":5126,
			"count":4,
			"type":"VEC3"
		},
		{
			"bufferView":71,
			"componentType":5126,
			"count":4,
			"type":"VEC2"
		},
		{
			"bufferView":72,
			"componentType":5123,
			"count":6,
			"type":"SCALAR"
		},
		{
			"bufferView":73,
			"componentType":5126,
			"count":4,
			"max":[
				5.571388244628906,
				-8.800857543945312,
				-13.499996185302734
			],
			"min":[
				1.7909889221191406,
				-8.800857543945312,
				-15.718879699707031
			],
			"type":"VEC3"
		},
		{
			"bufferView":74,
			"componentType":5126,
			"count":4,
			"type":"VEC3"
		},
		{
			"bufferView":75,
			"componentType":5126,
			"count":4,
			"type":"VEC2"
		},
		{
			"bufferView":76,
			"componentType":5126,
			"count":4,
			"max":[
				5.571388244628906,
				-12.581260681152344,
				-13.499992370605469
			],
			"min":[
				1.7909889221191406,
				-12.581260681152344,
				-15.718879699707031
			],
			"type":"VEC3"
		},
		{
			"bufferView":77,
			"componentType":5126,
			"count":4,
			"type":"VEC3"
		},
		{
			"bufferView":78,
			"componentType":5126,
			"count":4,
			"type":"VEC2"
		},
		{
			"bufferView":79,
			"componentType":5126,
			"count":4,
			"max":[
				1.7909889221191406,
				-8.800857543945312,
				-13.499992370605469
			],
			"min":[
				1.7909889221191406,
				-12.581260681152344,
				-15.718879699707031
			],
			"type":"VEC3"
		},
		{
			"bufferView":80,
			"componentType":5126,
			"count":4,
			"type":"VEC3"
		},
		{
			"bufferView":81,
			"componentType":5126,
			"count":4,
			"type":"VEC2"
		},
		{
			"bufferView":82,
			"componentType":5126,
			"count":4,
			"max":[
				5.571388244628906,
				-8.800857543945312,
				-13.499992370605469
			],
			"min":[
				5.571388244628906,
				-12.581260681152344,
				-15.718879699707031
			],
			"type":"VEC3"
		},
		{
			"bufferView":83,
			"componentType":5126,
			"count":4,
			"type":"VEC3"
		},
		{
			"bufferView":84,
			"componentType":5126,
			"count":4,
			"type":"VEC2"
		}
	],
	"bufferViews":[
		{
			"buffer":0,
			"byteLength":300,
			"byteOffset":0,
			"target":34962
		},
		{
			"buffer":0,
			"byteLength":300,
			"byteOffset":300,
			"target":34962
		},
		{
			"buffer":0,
			"byteLength":200,
			"byteOffset":600,
			"target":34962
		},
		{
			"buffer":0,
			"byteLength":144,
			"byteOffset":800,
			"target":34963
		},
		{
			"buffer":0,
			"byteLength":48,
			"byteOffset":944,
			"target":34962
		},
		{
			"buffer":0,
			"byteLength":48,
			"byteOffset":992,
			"target":34962
		},
		{
			"buffer":0,
			"byteLength":32,
			"byteOffset":1040,
			"target":34962
		},
		{
			"buffer":0,
			"byteLength":12,
			"byteOffset":1072,
			"target":34963
		},
		{
			"buffer":0,
			"byteLength":48,
			"byteOffset":1084,
			"target":34962
		},
		{
			"buffer":0,
			"byteLength":48,
			"byteOffset":1132,
			"target":34962
		},
		{
			"buffer":0,
			"byteLength":32,
			"byteOffset":1180,
			"target":34962
		},
		{
			"buffer":0,
			"byteLength":12,
			"byteOffset":1212,
			"target":34963
		},
		{
			"buffer":0,
			"byteLength":48,
			"byteOffset":1224,
			"target":34962
		},
		{
			"buffer":0,
			"byteLength":48,
			"byteOffset":1272,
			"target":34962
		},
		{
			"buffer":0,
			"byteLength":32,
			"byteOffset":1320,
			"target":34962
		},
		{
			"buffer":0,
			"byteLength":12,
			"byteOffset":1352,
			"target":34963
		},
		{
			"buffer":0,
			"byteLength":48,
			"byteOffset":1364,
			"target":34962
		},
		{
			"buffer":0,
			"byteLength":48,
			"byteOffset":1412,
			"target":34962
		},
		{
			"buffer":0,
			"byteLength":32,
			"byteOffset":1460,
			"target":34962
		},
		{
			"buffer":0,
			"byteLength":12,
			"byteOffset":1492,
			"target":34963
		},
		{
			"buffer":0,
			"byteLength":48,
			"byteOffset":1504,
			"target":34962
		},
		{
			"buffer":0,
			"byteLength":48,
			"byteOffset":1552,
			"target":34962
		},
		{
			"buffer":0,
			"byteLength":32,
			"byteOffset":1600,
			"target":34962
		},
		{
			"buffer":0,
			"byteLength":12,
			"byteOffset":1632,
			"target":34963
		},
		{
			"buffer":0,
			"byteLength":96,
			"byteOffset":1644,
			"target":34962
		},
		{
			"buffer":0,
			"byteLength":96,
			"byteOffset":1740,
			"target":34962
		},
		{
			"buffer":0,
			"byteLength":64,
			"byteOffset":1836,
			"target":34962
		},
		{
			"buffer":0,
			"byteLength":24,
			"byteOffset":1900,
			"target":34963
		},
		{
			"buffer":0,
			"byteLength":48,
			"byteOffset":1924,
			"target":34962
		},
		{
			"buffer":0,
			"byteLength":48,
			"byteOffset":1972,
			"target":34962
		},
		{
			"buffer":0,
			"byteLength":32,
			"byteOffset":2020,
			"target":34962
		},
		{
			"buffer":0,
			"byteLength":12,
			"byteOffset":2052,
			"target":34963
		},
		{
			"buffer":0,
			"byteLength":96,
			"byteOffset":2064,
			"target":34962
		},
		{
			"buffer":0,
			"byteLength":96,
			"byteOffset":2160,
			"target":34962
		},
		{
			"buffer":0,
			"byteLength":64,
			"byteOffset":2256,
			"target":34962
		},
		{
			"buffer":0,
			"byteLength":24,
			"byteOffset":2320,
			"target":34963
		},
		{
			"buffer":0,
			"byteLength":48,
			"byteOffset":2344,
			"target":34962
		},
		{
			"buffer":0,
			"byteLength":48,
			"byteOffset":2392,
			"target":34962
		},
		{
			"buffer":0,
			"byteLength":32,
			"byteOffset":2440,
			"target":34962
		},
		{
			"buffer":0,
			"byteLength":12,
			"byteOffset":2472,
			"target":34963
		},
		{
			"buffer":0,
			"byteLength":96,
			"byteOffset":2484,
			"target":34962
		},
		{
			"buffer":0,
			"byteLength":96,
			"byteOffset":2580,
			"target":34962
		},
		{
			"buffer":0,
			"byteLength":64,
			"byteOffset":2676,
			"target":34962
		},
		{
			"buffer":0,
			"byteLength":24,
			"byteOffset":2740,
			"target":34963
		},
		{
			"buffer":0,
			"byteLength":48,
			"byteOffset":2764,
			"target":34962
		},
		{
			"buffer":0,
			"byteLength":48,
			"byteOffset":2812,
			"target":34962
		},
		{
			"buffer":0,
			"byteLength":32,
			"byteOffset":2860,
			"target":34962
		},
		{
			"buffer":0,
			"byteLength":48,
			"byteOffset":2892,
			"target":34962
		},
		{
			"buffer":0,
			"byteLength":48,
			"byteOffset":2940,
			"target":34962
		},
		{
			"buffer":0,
			"byteLength":32,
			"byteOffset":2988,
			"target":34962
		},
		{
			"buffer":0,
			"byteLength":12,
			"byteOffset":3020,
			"target":34963
		},
		{
			"buffer":0,
			"byteLength":48,
			"byteOffset":3032,
			"target":34962
		},
		{
			"buffer":0,
			"byteLength":48,
			"byteOffset":3080,
			"target":34962
		},
		{
			"buffer":0,
			"byteLength":32,
			"byteOffset":3128,
			"target":34962
		},
		{
			"buffer":0,
			"byteLength":12,
			"byteOffset":3160,
			"target":34963
		},
		{
			"buffer":0,
			"byteLength":48,
			"byteOffset":3172,
			"target":34962
		},
		{
			"buffer":0,
			"byteLength":48,
			"byteOffset":3220,
			"target":34962
		},
		{
			"buffer":0,
			"byteLength":32,
			"byteOffset":3268,
			"target":34962
		},
		{
			"buffer":0,
			"byteLength":12,
			"byteOffset":3300,
			"target":34963
		},
		{
			"buffer":0,
			"byteLength":48,
			"byteOffset":3312,
			"target":34962
		},
		{
			"buffer":0,
			"byteLength":48,
			"byteOffset":3360,
			"target":34962
		},
		{
			"buffer":0,
			"byteLength":32,
			"byteOffset":3408,
			"target":34962
		},
		{
			"buffer":0,
			"byteLength":12,
			"byteOffset":3440,
			"target":34963
		},
		{
			"buffer":0,
			"byteLength":48,
			"byteOffset":3452,
			"target":34962
		},
		{
			"buffer":0,
			"byteLength":48,
			"byteOffset":3500,
			"target":34962
		},
		{
			"buffer":0,
			"byteLength":32,
			"byteOffset":3548,
			"target":34962
		},
		{
			"buffer":0,
			"byteLength":48,
			"byteOffset":3580,
			"target":34962
		},
		{
			"buffer":0,
			"byteLength":48,
			"byteOffset":3628,
			"target":34962
		},
		{
			"buffer":0,
			"byteLength":32,
			"byteOffset":3676,
			"target":34962
		},
		{
			"buffer":0,
			"byteLength":48,
			"byteOffset":3708,
			"target":34962
		},
		{
			"buffer":0,
			"byteLength":48,
			"byteOffset":3756,
			"target":34962
		},
		{
			"buffer":0,
			"byteLength":32,
			"byteOffset":3804,
			"target":34962
		},
		{
			"buffer":0,
			"byteLength":12,
			"byteOffset":3836,
			"target":34963
		},
		{
			"buffer":0,
			"byteLength":48,
			"byteOffset":3848,
			"target":34962
		},
		{
			"buffer":0,
			"byteLength":48,
			"byteOffset":3896,
			"target":34962
		},
		{
			"buffer":0,
			"byteLength":32,
			"byteOffset":3944,
			"target":34962
		},
		{
			"buffer":0,
			"byteLength":48,
			"byteOffset":3976,
			"target":34962
		},
		{
			"buffer":0,
			"byteLength":48,
			"byteOffset":4024,
			"target":34962
		},
		{
			"buffer":0,
			"byteLength":32,
			"byteOffset":4072,
			"target":34962
		},
		{
			"buffer":0,
			"byteLength":48,
			"byteOffset":4104,
			"target":34962
		},
		{
			"buffer":0,
			"byteLength":48,
			"byteOffset":4152,
			"target":34962
		},
		{
			"buffer":0,
			"byteLength":32,
			"byteOffset":4200,
			"target":34962
		},
		{
			"buffer":0,
			"byteLength":48,
			"byteOffset":4232,
			"target":34962
		},
		{
			"buffer":0,
			"byteLength":48,
			"byteOffset":4280,
			"target":34962
		},
		{
			"buffer":0,
			"byteLength":32,
			"byteOffset":4328,
			"target":34962
		}
	],
	"samplers":[
		{
			"magFilter":9729,
			"minFilter":9987
		}
	],
	"buffers":[
		{
			"byteLength":4360,
			"uri":"medium_2.bin"
		}
	]
}
