{
	"asset":{
		"generator":"Khronos glTF Blender I/O v4.3.47",
		"version":"2.0"
	},
	"scene":0,
	"scenes":[
		{
			"name":"Scene",
			"nodes":[
				0,
				1
			]
		}
	],
	"nodes":[
		{
			"mesh":0,
			"name":"Maxis-3d3-mesh-32",
			"rotation":[
				0.70710688829422,
				0,
				0,
				0.7071066498756409
			]
		},
		{
			"extras":{
				"gd_node":"Decal",
				"lower_fade":9,
				"upper_fade":10
			},
			"mesh":1,
			"name":"Ground_AO",
			"scale":[
				29.5,
				1,
				30.216453552246094
			],
			"translation":[
				0.75,
				-8.218187758757267e-06,
				-0.07267284393310547
			]
		}
	],
	"materials":[
		{
			"name":"matcolour-48.003",
			"occlusionTexture":{
				"index":0,
				"texCoord":1
			},
			"pbrMetallicRoughness":{
				"baseColorFactor":[
					0.05882352963089943,
					0.05882352963089943,
					0.05882352963089943,
					1
				],
				"metallicFactor":0
			}
		},
		{
			"name":"mat39-22",
			"occlusionTexture":{
				"index":1,
				"texCoord":1
			},
			"pbrMetallicRoughness":{
				"baseColorTexture":{
					"index":2
				},
				"metallicFactor":0
			}
		},
		{
			"name":"mat39-13",
			"occlusionTexture":{
				"index":3,
				"texCoord":1
			},
			"pbrMetallicRoughness":{
				"baseColorTexture":{
					"index":4
				},
				"metallicFactor":0
			}
		},
		{
			"name":"matcolour-128.001",
			"occlusionTexture":{
				"index":5,
				"texCoord":1
			},
			"pbrMetallicRoughness":{
				"baseColorFactor":[
					0.12156862765550613,
					0.08235294371843338,
					0.062745101749897,
					1
				],
				"metallicFactor":0
			}
		},
		{
			"name":"mat40-60",
			"occlusionTexture":{
				"index":6,
				"texCoord":1
			},
			"pbrMetallicRoughness":{
				"baseColorTexture":{
					"index":7
				},
				"metallicFactor":0
			}
		},
		{
			"name":"mat39-31",
			"occlusionTexture":{
				"index":8,
				"texCoord":1
			},
			"pbrMetallicRoughness":{
				"baseColorTexture":{
					"index":9
				},
				"metallicFactor":0
			}
		},
		{
			"name":"mat40-20",
			"occlusionTexture":{
				"index":10,
				"texCoord":1
			},
			"pbrMetallicRoughness":{
				"baseColorTexture":{
					"index":11
				},
				"metallicFactor":0
			}
		},
		{
			"name":"mat2-40",
			"occlusionTexture":{
				"index":12,
				"texCoord":1
			},
			"pbrMetallicRoughness":{
				"baseColorTexture":{
					"index":13
				},
				"metallicFactor":0
			}
		},
		{
			"name":"Ground_AO.001",
			"occlusionTexture":{
				"index":14
			},
			"pbrMetallicRoughness":{
				"baseColorFactor":[
					0.800000011920929,
					0.800000011920929,
					0.800000011920929,
					1
				],
				"metallicFactor":0,
				"roughnessFactor":0.5
			}
		}
	],
	"meshes":[
		{
			"name":"Maxis-3d3-mesh-32",
			"primitives":[
				{
					"attributes":{
						"POSITION":0,
						"NORMAL":1,
						"TEXCOORD_0":2,
						"TEXCOORD_1":3
					},
					"indices":4,
					"material":0
				},
				{
					"attributes":{
						"POSITION":5,
						"NORMAL":6,
						"TEXCOORD_0":7,
						"TEXCOORD_1":8
					},
					"indices":9,
					"material":1
				},
				{
					"attributes":{
						"POSITION":10,
						"NORMAL":11,
						"TEXCOORD_0":12,
						"TEXCOORD_1":13
					},
					"indices":14,
					"material":2
				},
				{
					"attributes":{
						"POSITION":15,
						"NORMAL":16,
						"TEXCOORD_0":17,
						"TEXCOORD_1":18
					},
					"indices":19,
					"material":3
				},
				{
					"attributes":{
						"POSITION":20,
						"NORMAL":21,
						"TEXCOORD_0":22,
						"TEXCOORD_1":23
					},
					"indices":24,
					"material":4
				},
				{
					"attributes":{
						"POSITION":25,
						"NORMAL":26,
						"TEXCOORD_0":27,
						"TEXCOORD_1":28
					},
					"indices":29,
					"material":5
				},
				{
					"attributes":{
						"POSITION":30,
						"NORMAL":31,
						"TEXCOORD_0":32,
						"TEXCOORD_1":33
					},
					"indices":34,
					"material":6
				},
				{
					"attributes":{
						"POSITION":35,
						"NORMAL":36,
						"TEXCOORD_0":37,
						"TEXCOORD_1":38
					},
					"indices":39,
					"material":7
				}
			]
		},
		{
			"name":"Plane.001",
			"primitives":[
				{
					"attributes":{
						"POSITION":40,
						"NORMAL":41,
						"TEXCOORD_0":42
					},
					"indices":43,
					"material":8
				}
			]
		}
	],
	"textures":[
		{
			"sampler":0,
			"source":0
		},
		{
			"sampler":0,
			"source":0
		},
		{
			"sampler":0,
			"source":1
		},
		{
			"sampler":0,
			"source":0
		},
		{
			"sampler":0,
			"source":2
		},
		{
			"sampler":0,
			"source":0
		},
		{
			"sampler":0,
			"source":0
		},
		{
			"sampler":0,
			"source":3
		},
		{
			"sampler":0,
			"source":0
		},
		{
			"sampler":0,
			"source":4
		},
		{
			"sampler":0,
			"source":0
		},
		{
			"sampler":0,
			"source":5
		},
		{
			"sampler":0,
			"source":0
		},
		{
			"sampler":0,
			"source":6
		},
		{
			"sampler":0,
			"source":7
		}
	],
	"images":[
		{
			"mimeType":"image/png",
			"name":"medium_2.png",
			"uri":"../../../Textures/ambient_occlusion/Buildings/Apartments/medium_2.png"
		},
		{
			"mimeType":"image/png",
			"name":"tex39-22",
			"uri":"../../../Textures/tex39-22.png"
		},
		{
			"mimeType":"image/png",
			"name":"tex39-13",
			"uri":"../../../Textures/tex39-13.png"
		},
		{
			"mimeType":"image/png",
			"name":"tex40-60",
			"uri":"../../../Textures/tex40-60.png"
		},
		{
			"mimeType":"image/png",
			"name":"tex39-31",
			"uri":"../../../Textures/tex39-31.png"
		},
		{
			"mimeType":"image/png",
			"name":"tex40-20",
			"uri":"../../../Textures/tex40-20.png"
		},
		{
			"mimeType":"image/png",
			"name":"tex2-40",
			"uri":"../../../Textures/tex2-40.png"
		},
		{
			"mimeType":"image/png",
			"name":"medium_2_ground.png",
			"uri":"../../../Textures/ambient_occlusion/Buildings/Apartments/medium_2_ground.png"
		}
	],
	"accessors":[
		{
			"bufferView":0,
			"componentType":5126,
			"count":39,
			"max":[
				15,
				14.535541534423828,
				-13.499992370605469
			],
			"min":[
				-13.5,
				-14.680900573730469,
				-15.000003814697266
			],
			"type":"VEC3"
		},
		{
			"bufferView":1,
			"componentType":5126,
			"count":39,
			"type":"VEC3"
		},
		{
			"bufferView":2,
			"componentType":5126,
			"count":39,
			"type":"VEC2"
		},
		{
			"bufferView":3,
			"componentType":5126,
			"count":39,
			"type":"VEC2"
		},
		{
			"bufferView":4,
			"componentType":5123,
			"count":72,
			"type":"SCALAR"
		},
		{
			"bufferView":5,
			"componentType":5126,
			"count":16,
			"max":[
				-2,
				14.53554916381836,
				3.814697265625e-06
			],
			"min":[
				-13.5,
				-14.680900573730469,
				-15.000003814697266
			],
			"type":"VEC3"
		},
		{
			"bufferView":6,
			"componentType":5126,
			"count":16,
			"type":"VEC3"
		},
		{
			"bufferView":7,
			"componentType":5126,
			"count":16,
			"type":"VEC2"
		},
		{
			"bufferView":8,
			"componentType":5126,
			"count":16,
			"type":"VEC2"
		},
		{
			"bufferView":9,
			"componentType":5123,
			"count":24,
			"type":"SCALAR"
		},
		{
			"bufferView":10,
			"componentType":5126,
			"count":24,
			"max":[
				15,
				14.391742706298828,
				3.814697265625e-06
			],
			"min":[
				1.5,
				-12.791282653808594,
				-13.500003814697266
			],
			"type":"VEC3"
		},
		{
			"bufferView":11,
			"componentType":5126,
			"count":24,
			"type":"VEC3"
		},
		{
			"bufferView":12,
			"componentType":5126,
			"count":24,
			"type":"VEC2"
		},
		{
			"bufferView":13,
			"componentType":5126,
			"count":24,
			"type":"VEC2"
		},
		{
			"bufferView":14,
			"componentType":5123,
			"count":36,
			"type":"SCALAR"
		},
		{
			"bufferView":15,
			"componentType":5126,
			"count":4,
			"max":[
				-5.785026550292969,
				-8.681438446044922,
				-17.702518463134766
			],
			"min":[
				-13.132240295410156,
				-14.436782836914062,
				-17.70252227783203
			],
			"type":"VEC3"
		},
		{
			"bufferView":16,
			"componentType":5126,
			"count":4,
			"type":"VEC3"
		},
		{
			"bufferView":17,
			"componentType":5126,
			"count":4,
			"type":"VEC2"
		},
		{
			"bufferView":18,
			"componentType":5126,
			"count":4,
			"type":"VEC2"
		},
		{
			"bufferView":19,
			"componentType":5123,
			"count":6,
			"type":"SCALAR"
		},
		{
			"bufferView":20,
			"componentType":5126,
			"count":8,
			"max":[
				5.571388244628906,
				-4.367458343505859,
				-15.718879699707031
			],
			"min":[
				-12.492366790771484,
				-12.581260681152344,
				-16.359455108642578
			],
			"type":"VEC3"
		},
		{
			"bufferView":21,
			"componentType":5126,
			"count":8,
			"type":"VEC3"
		},
		{
			"bufferView":22,
			"componentType":5126,
			"count":8,
			"type":"VEC2"
		},
		{
			"bufferView":23,
			"componentType":5126,
			"count":8,
			"type":"VEC2"
		},
		{
			"bufferView":24,
			"componentType":5123,
			"count":12,
			"type":"SCALAR"
		},
		{
			"bufferView":25,
			"componentType":5126,
			"count":16,
			"max":[
				-5.785026550292969,
				-8.681438446044922,
				-14.999992370605469
			],
			"min":[
				-13.132240295410156,
				-14.436782836914062,
				-17.70252227783203
			],
			"type":"VEC3"
		},
		{
			"bufferView":26,
			"componentType":5126,
			"count":16,
			"type":"VEC3"
		},
		{
			"bufferView":27,
			"componentType":5126,
			"count":16,
			"type":"VEC2"
		},
		{
			"bufferView":28,
			"componentType":5126,
			"count":16,
			"type":"VEC2"
		},
		{
			"bufferView":29,
			"componentType":5123,
			"count":24,
			"type":"SCALAR"
		},
		{
			"bufferView":30,
			"componentType":5126,
			"count":18,
			"max":[
				-8.446922302246094,
				-4.367454528808594,
				-15
			],
			"min":[
				-12.492366790771484,
				-8.41290283203125,
				-16.359455108642578
			],
			"type":"VEC3"
		},
		{
			"bufferView":31,
			"componentType":5126,
			"count":18,
			"type":"VEC3"
		},
		{
			"bufferView":32,
			"componentType":5126,
			"count":18,
			"type":"VEC2"
		},
		{
			"bufferView":33,
			"componentType":5126,
			"count":18,
			"type":"VEC2"
		},
		{
			"bufferView":34,
			"componentType":5123,
			"count":24,
			"type":"SCALAR"
		},
		{
			"bufferView":35,
			"componentType":5126,
			"count":16,
			"max":[
				5.571388244628906,
				-8.800857543945312,
				-13.499992370605469
			],
			"min":[
				1.7909889221191406,
				-12.581260681152344,
				-15.718879699707031
			],
			"type":"VEC3"
		},
		{
			"bufferView":36,
			"componentType":5126,
			"count":16,
			"type":"VEC3"
		},
		{
			"bufferView":37,
			"componentType":5126,
			"count":16,
			"type":"VEC2"
		},
		{
			"bufferView":38,
			"componentType":5126,
			"count":16,
			"type":"VEC2"
		},
		{
			"bufferView":39,
			"componentType":5123,
			"count":24,
			"type":"SCALAR"
		},
		{
			"bufferView":40,
			"componentType":5126,
			"count":4,
			"max":[
				0.5,
				0,
				0.5
			],
			"min":[
				-0.5,
				0,
				-0.5
			],
			"type":"VEC3"
		},
		{
			"bufferView":41,
			"componentType":5126,
			"count":4,
			"type":"VEC3"
		},
		{
			"bufferView":42,
			"componentType":5126,
			"count":4,
			"type":"VEC2"
		},
		{
			"bufferView":43,
			"componentType":5123,
			"count":6,
			"type":"SCALAR"
		}
	],
	"bufferViews":[
		{
			"buffer":0,
			"byteLength":468,
			"byteOffset":0,
			"target":34962
		},
		{
			"buffer":0,
			"byteLength":468,
			"byteOffset":468,
			"target":34962
		},
		{
			"buffer":0,
			"byteLength":312,
			"byteOffset":936,
			"target":34962
		},
		{
			"buffer":0,
			"byteLength":312,
			"byteOffset":1248,
			"target":34962
		},
		{
			"buffer":0,
			"byteLength":144,
			"byteOffset":1560,
			"target":34963
		},
		{
			"buffer":0,
			"byteLength":192,
			"byteOffset":1704,
			"target":34962
		},
		{
			"buffer":0,
			"byteLength":192,
			"byteOffset":1896,
			"target":34962
		},
		{
			"buffer":0,
			"byteLength":128,
			"byteOffset":2088,
			"target":34962
		},
		{
			"buffer":0,
			"byteLength":128,
			"byteOffset":2216,
			"target":34962
		},
		{
			"buffer":0,
			"byteLength":48,
			"byteOffset":2344,
			"target":34963
		},
		{
			"buffer":0,
			"byteLength":288,
			"byteOffset":2392,
			"target":34962
		},
		{
			"buffer":0,
			"byteLength":288,
			"byteOffset":2680,
			"target":34962
		},
		{
			"buffer":0,
			"byteLength":192,
			"byteOffset":2968,
			"target":34962
		},
		{
			"buffer":0,
			"byteLength":192,
			"byteOffset":3160,
			"target":34962
		},
		{
			"buffer":0,
			"byteLength":72,
			"byteOffset":3352,
			"target":34963
		},
		{
			"buffer":0,
			"byteLength":48,
			"byteOffset":3424,
			"target":34962
		},
		{
			"buffer":0,
			"byteLength":48,
			"byteOffset":3472,
			"target":34962
		},
		{
			"buffer":0,
			"byteLength":32,
			"byteOffset":3520,
			"target":34962
		},
		{
			"buffer":0,
			"byteLength":32,
			"byteOffset":3552,
			"target":34962
		},
		{
			"buffer":0,
			"byteLength":12,
			"byteOffset":3584,
			"target":34963
		},
		{
			"buffer":0,
			"byteLength":96,
			"byteOffset":3596,
			"target":34962
		},
		{
			"buffer":0,
			"byteLength":96,
			"byteOffset":3692,
			"target":34962
		},
		{
			"buffer":0,
			"byteLength":64,
			"byteOffset":3788,
			"target":34962
		},
		{
			"buffer":0,
			"byteLength":64,
			"byteOffset":3852,
			"target":34962
		},
		{
			"buffer":0,
			"byteLength":24,
			"byteOffset":3916,
			"target":34963
		},
		{
			"buffer":0,
			"byteLength":192,
			"byteOffset":3940,
			"target":34962
		},
		{
			"buffer":0,
			"byteLength":192,
			"byteOffset":4132,
			"target":34962
		},
		{
			"buffer":0,
			"byteLength":128,
			"byteOffset":4324,
			"target":34962
		},
		{
			"buffer":0,
			"byteLength":128,
			"byteOffset":4452,
			"target":34962
		},
		{
			"buffer":0,
			"byteLength":48,
			"byteOffset":4580,
			"target":34963
		},
		{
			"buffer":0,
			"byteLength":216,
			"byteOffset":4628,
			"target":34962
		},
		{
			"buffer":0,
			"byteLength":216,
			"byteOffset":4844,
			"target":34962
		},
		{
			"buffer":0,
			"byteLength":144,
			"byteOffset":5060,
			"target":34962
		},
		{
			"buffer":0,
			"byteLength":144,
			"byteOffset":5204,
			"target":34962
		},
		{
			"buffer":0,
			"byteLength":48,
			"byteOffset":5348,
			"target":34963
		},
		{
			"buffer":0,
			"byteLength":192,
			"byteOffset":5396,
			"target":34962
		},
		{
			"buffer":0,
			"byteLength":192,
			"byteOffset":5588,
			"target":34962
		},
		{
			"buffer":0,
			"byteLength":128,
			"byteOffset":5780,
			"target":34962
		},
		{
			"buffer":0,
			"byteLength":128,
			"byteOffset":5908,
			"target":34962
		},
		{
			"buffer":0,
			"byteLength":48,
			"byteOffset":6036,
			"target":34963
		},
		{
			"buffer":0,
			"byteLength":48,
			"byteOffset":6084,
			"target":34962
		},
		{
			"buffer":0,
			"byteLength":48,
			"byteOffset":6132,
			"target":34962
		},
		{
			"buffer":0,
			"byteLength":32,
			"byteOffset":6180,
			"target":34962
		},
		{
			"buffer":0,
			"byteLength":12,
			"byteOffset":6212,
			"target":34963
		}
	],
	"samplers":[
		{
			"magFilter":9729,
			"minFilter":9987
		}
	],
	"buffers":[
		{
			"byteLength":6224,
			"uri":"medium_2.bin"
		}
	]
}
