{
    "asset" : {
        "generator" : "Khronos glTF Blender I/O v1.7.33",
        "version" : "2.0"
    },
    "scene" : 0,
    "scenes" : [
        {
            "name" : "Scene",
            "nodes" : [
                0
            ]
        }
    ],
    "nodes" : [
        {
            "mesh" : 0,
            "name" : "Maxis-3d3-mesh-30",
            "rotation" : [
                0.7071068286895752,
                0,
                0,
                0.7071067094802856
            ]
        }
    ],
    "materials" : [
        {
            "doubleSided" : true,
            "name" : "mat2-30.003",
            "pbrMetallicRoughness" : {
                "baseColorTexture" : {
                    "index" : 0
                },
                "metallicFactor" : 0
            }
        },
        {
            "doubleSided" : true,
            "name" : "mat2-29.002",
            "pbrMetallicRoughness" : {
                "baseColorTexture" : {
                    "index" : 1
                },
                "metallicFactor" : 0
            }
        },
        {
            "doubleSided" : true,
            "name" : "mat2-28.003",
            "pbrMetallicRoughness" : {
                "baseColorTexture" : {
                    "index" : 2
                },
                "metallicFactor" : 0
            }
        },
        {
            "doubleSided" : true,
            "name" : "mat2-31.003",
            "pbrMetallicRoughness" : {
                "baseColorTexture" : {
                    "index" : 3
                },
                "metallicFactor" : 0
            }
        },
        {
            "doubleSided" : true,
            "name" : "matcolour-48.014",
            "pbrMetallicRoughness" : {
                "baseColorFactor" : [
                    0.05882352963089943,
                    0.05882352963089943,
                    0.05882352963089943,
                    1
                ],
                "metallicFactor" : 0
            }
        },
        {
            "doubleSided" : true,
            "name" : "mat2-43.003",
            "pbrMetallicRoughness" : {
                "baseColorTexture" : {
                    "index" : 4
                },
                "metallicFactor" : 0
            }
        },
        {
            "doubleSided" : true,
            "name" : "mat2-40.002",
            "pbrMetallicRoughness" : {
                "baseColorTexture" : {
                    "index" : 5
                },
                "metallicFactor" : 0
            }
        },
        {
            "doubleSided" : true,
            "name" : "mat2-42.002",
            "pbrMetallicRoughness" : {
                "baseColorTexture" : {
                    "index" : 6
                },
                "metallicFactor" : 0
            }
        },
        {
            "doubleSided" : true,
            "name" : "mat2-41.001",
            "pbrMetallicRoughness" : {
                "baseColorTexture" : {
                    "index" : 7
                },
                "metallicFactor" : 0
            }
        }
    ],
    "meshes" : [
        {
            "name" : "Maxis-3d3-mesh-30",
            "primitives" : [
                {
                    "attributes" : {
                        "POSITION" : 0,
                        "NORMAL" : 1,
                        "TEXCOORD_0" : 2
                    },
                    "indices" : 3,
                    "material" : 0
                },
                {
                    "attributes" : {
                        "POSITION" : 4,
                        "NORMAL" : 5,
                        "TEXCOORD_0" : 6
                    },
                    "indices" : 7,
                    "material" : 1
                },
                {
                    "attributes" : {
                        "POSITION" : 8,
                        "NORMAL" : 9,
                        "TEXCOORD_0" : 10
                    },
                    "indices" : 11,
                    "material" : 2
                },
                {
                    "attributes" : {
                        "POSITION" : 12,
                        "NORMAL" : 13,
                        "TEXCOORD_0" : 14
                    },
                    "indices" : 15,
                    "material" : 3
                },
                {
                    "attributes" : {
                        "POSITION" : 16,
                        "NORMAL" : 17,
                        "TEXCOORD_0" : 18
                    },
                    "indices" : 19,
                    "material" : 4
                },
                {
                    "attributes" : {
                        "POSITION" : 20,
                        "NORMAL" : 21,
                        "TEXCOORD_0" : 22
                    },
                    "indices" : 23,
                    "material" : 5
                },
                {
                    "attributes" : {
                        "POSITION" : 24,
                        "NORMAL" : 25,
                        "TEXCOORD_0" : 26
                    },
                    "indices" : 23,
                    "material" : 6
                },
                {
                    "attributes" : {
                        "POSITION" : 27,
                        "NORMAL" : 28,
                        "TEXCOORD_0" : 29
                    },
                    "indices" : 30,
                    "material" : 7
                },
                {
                    "attributes" : {
                        "POSITION" : 31,
                        "NORMAL" : 32,
                        "TEXCOORD_0" : 33
                    },
                    "indices" : 34,
                    "material" : 8
                }
            ]
        }
    ],
    "textures" : [
        {
            "sampler" : 0,
            "source" : 0
        },
        {
            "sampler" : 0,
            "source" : 1
        },
        {
            "sampler" : 0,
            "source" : 2
        },
        {
            "sampler" : 0,
            "source" : 3
        },
        {
            "sampler" : 0,
            "source" : 4
        },
        {
            "sampler" : 0,
            "source" : 5
        },
        {
            "sampler" : 0,
            "source" : 6
        },
        {
            "sampler" : 0,
            "source" : 7
        }
    ],
    "images" : [
        {
            "mimeType" : "image/png",
            "name" : "tex2-30",
            "uri" : "../../../Textures/tex2-30.png"
        },
        {
            "mimeType" : "image/png",
            "name" : "tex2-29",
            "uri" : "../../../Textures/tex2-29.png"
        },
        {
            "mimeType" : "image/png",
            "name" : "tex2-28",
            "uri" : "../../../Textures/tex2-28.png"
        },
        {
            "mimeType" : "image/png",
            "name" : "tex2-31",
            "uri" : "../../../Textures/tex2-31.png"
        },
        {
            "mimeType" : "image/png",
            "name" : "tex2-43",
            "uri" : "../../../Textures/tex2-43.png"
        },
        {
            "mimeType" : "image/png",
            "name" : "tex2-40",
            "uri" : "../../../Textures/tex2-40.png"
        },
        {
            "mimeType" : "image/png",
            "name" : "tex2-42",
            "uri" : "../../../Textures/tex2-42.png"
        },
        {
            "mimeType" : "image/png",
            "name" : "tex2-41",
            "uri" : "../../../Textures/tex2-41.png"
        }
    ],
    "accessors" : [
        {
            "bufferView" : 0,
            "componentType" : 5126,
            "count" : 6,
            "max" : [
                14.000003814697266,
                12.5,
                1.1444091796875e-05
            ],
            "min" : [
                13.999996185302734,
                -12.499996185302734,
                -7.3562164306640625
            ],
            "type" : "VEC3"
        },
        {
            "bufferView" : 1,
            "componentType" : 5126,
            "count" : 6,
            "type" : "VEC3"
        },
        {
            "bufferView" : 2,
            "componentType" : 5126,
            "count" : 6,
            "type" : "VEC2"
        },
        {
            "bufferView" : 3,
            "componentType" : 5123,
            "count" : 6,
            "type" : "SCALAR"
        },
        {
            "bufferView" : 4,
            "componentType" : 5126,
            "count" : 12,
            "max" : [
                4.384525299072266,
                12.499996185302734,
                1.1444091796875e-05
            ],
            "min" : [
                -2.0000038146972656,
                -12.499996185302734,
                -7.356212615966797
            ],
            "type" : "VEC3"
        },
        {
            "bufferView" : 5,
            "componentType" : 5126,
            "count" : 12,
            "type" : "VEC3"
        },
        {
            "bufferView" : 6,
            "componentType" : 5126,
            "count" : 12,
            "type" : "VEC2"
        },
        {
            "bufferView" : 7,
            "componentType" : 5123,
            "count" : 12,
            "type" : "SCALAR"
        },
        {
            "bufferView" : 8,
            "componentType" : 5126,
            "count" : 12,
            "max" : [
                14.000003814697266,
                6.5,
                1.1444091796875e-05
            ],
            "min" : [
                -2,
                -12.499996185302734,
                -7.356212615966797
            ],
            "type" : "VEC3"
        },
        {
            "bufferView" : 9,
            "componentType" : 5126,
            "count" : 12,
            "type" : "VEC3"
        },
        {
            "bufferView" : 10,
            "componentType" : 5126,
            "count" : 12,
            "type" : "VEC2"
        },
        {
            "bufferView" : 11,
            "componentType" : 5123,
            "count" : 12,
            "type" : "SCALAR"
        },
        {
            "bufferView" : 12,
            "componentType" : 5126,
            "count" : 6,
            "max" : [
                13.999996185302734,
                12.5,
                0
            ],
            "min" : [
                -2.0000038146972656,
                12.499996185302734,
                -7.3562164306640625
            ],
            "type" : "VEC3"
        },
        {
            "bufferView" : 13,
            "componentType" : 5126,
            "count" : 6,
            "type" : "VEC3"
        },
        {
            "bufferView" : 14,
            "componentType" : 5126,
            "count" : 6,
            "type" : "VEC2"
        },
        {
            "bufferView" : 15,
            "componentType" : 5123,
            "count" : 6,
            "type" : "SCALAR"
        },
        {
            "bufferView" : 16,
            "componentType" : 5126,
            "count" : 16,
            "max" : [
                14,
                12.708332061767578,
                -7.13897705078125
            ],
            "min" : [
                -14.166664123535156,
                -14.166664123535156,
                -7.3562164306640625
            ],
            "type" : "VEC3"
        },
        {
            "bufferView" : 17,
            "componentType" : 5126,
            "count" : 16,
            "type" : "VEC3"
        },
        {
            "bufferView" : 18,
            "componentType" : 5126,
            "count" : 16,
            "type" : "VEC2"
        },
        {
            "bufferView" : 19,
            "componentType" : 5123,
            "count" : 18,
            "type" : "SCALAR"
        },
        {
            "bufferView" : 20,
            "componentType" : 5126,
            "count" : 4,
            "max" : [
                -7.708332061767578,
                12.708332061767578,
                0
            ],
            "min" : [
                -14.166664123535156,
                12.708332061767578,
                -7.13897705078125
            ],
            "type" : "VEC3"
        },
        {
            "bufferView" : 21,
            "componentType" : 5126,
            "count" : 4,
            "type" : "VEC3"
        },
        {
            "bufferView" : 22,
            "componentType" : 5126,
            "count" : 4,
            "type" : "VEC2"
        },
        {
            "bufferView" : 23,
            "componentType" : 5123,
            "count" : 6,
            "type" : "SCALAR"
        },
        {
            "bufferView" : 24,
            "componentType" : 5126,
            "count" : 4,
            "max" : [
                -7.708332061767578,
                -14.166664123535156,
                0
            ],
            "min" : [
                -14.166664123535156,
                -14.166664123535156,
                -7.13897705078125
            ],
            "type" : "VEC3"
        },
        {
            "bufferView" : 25,
            "componentType" : 5126,
            "count" : 4,
            "type" : "VEC3"
        },
        {
            "bufferView" : 26,
            "componentType" : 5126,
            "count" : 4,
            "type" : "VEC2"
        },
        {
            "bufferView" : 27,
            "componentType" : 5126,
            "count" : 4,
            "max" : [
                -7.708332061767578,
                12.708332061767578,
                0
            ],
            "min" : [
                -7.708332061767578,
                -14.166664123535156,
                -7.13897705078125
            ],
            "type" : "VEC3"
        },
        {
            "bufferView" : 28,
            "componentType" : 5126,
            "count" : 4,
            "type" : "VEC3"
        },
        {
            "bufferView" : 29,
            "componentType" : 5126,
            "count" : 4,
            "type" : "VEC2"
        },
        {
            "bufferView" : 30,
            "componentType" : 5123,
            "count" : 6,
            "type" : "SCALAR"
        },
        {
            "bufferView" : 31,
            "componentType" : 5126,
            "count" : 4,
            "max" : [
                -14.166664123535156,
                12.708332061767578,
                0
            ],
            "min" : [
                -14.166664123535156,
                -14.166664123535156,
                -7.13897705078125
            ],
            "type" : "VEC3"
        },
        {
            "bufferView" : 32,
            "componentType" : 5126,
            "count" : 4,
            "type" : "VEC3"
        },
        {
            "bufferView" : 33,
            "componentType" : 5126,
            "count" : 4,
            "type" : "VEC2"
        },
        {
            "bufferView" : 34,
            "componentType" : 5123,
            "count" : 6,
            "type" : "SCALAR"
        }
    ],
    "bufferViews" : [
        {
            "buffer" : 0,
            "byteLength" : 72,
            "byteOffset" : 0
        },
        {
            "buffer" : 0,
            "byteLength" : 72,
            "byteOffset" : 72
        },
        {
            "buffer" : 0,
            "byteLength" : 48,
            "byteOffset" : 144
        },
        {
            "buffer" : 0,
            "byteLength" : 12,
            "byteOffset" : 192
        },
        {
            "buffer" : 0,
            "byteLength" : 144,
            "byteOffset" : 204
        },
        {
            "buffer" : 0,
            "byteLength" : 144,
            "byteOffset" : 348
        },
        {
            "buffer" : 0,
            "byteLength" : 96,
            "byteOffset" : 492
        },
        {
            "buffer" : 0,
            "byteLength" : 24,
            "byteOffset" : 588
        },
        {
            "buffer" : 0,
            "byteLength" : 144,
            "byteOffset" : 612
        },
        {
            "buffer" : 0,
            "byteLength" : 144,
            "byteOffset" : 756
        },
        {
            "buffer" : 0,
            "byteLength" : 96,
            "byteOffset" : 900
        },
        {
            "buffer" : 0,
            "byteLength" : 24,
            "byteOffset" : 996
        },
        {
            "buffer" : 0,
            "byteLength" : 72,
            "byteOffset" : 1020
        },
        {
            "buffer" : 0,
            "byteLength" : 72,
            "byteOffset" : 1092
        },
        {
            "buffer" : 0,
            "byteLength" : 48,
            "byteOffset" : 1164
        },
        {
            "buffer" : 0,
            "byteLength" : 12,
            "byteOffset" : 1212
        },
        {
            "buffer" : 0,
            "byteLength" : 192,
            "byteOffset" : 1224
        },
        {
            "buffer" : 0,
            "byteLength" : 192,
            "byteOffset" : 1416
        },
        {
            "buffer" : 0,
            "byteLength" : 128,
            "byteOffset" : 1608
        },
        {
            "buffer" : 0,
            "byteLength" : 36,
            "byteOffset" : 1736
        },
        {
            "buffer" : 0,
            "byteLength" : 48,
            "byteOffset" : 1772
        },
        {
            "buffer" : 0,
            "byteLength" : 48,
            "byteOffset" : 1820
        },
        {
            "buffer" : 0,
            "byteLength" : 32,
            "byteOffset" : 1868
        },
        {
            "buffer" : 0,
            "byteLength" : 12,
            "byteOffset" : 1900
        },
        {
            "buffer" : 0,
            "byteLength" : 48,
            "byteOffset" : 1912
        },
        {
            "buffer" : 0,
            "byteLength" : 48,
            "byteOffset" : 1960
        },
        {
            "buffer" : 0,
            "byteLength" : 32,
            "byteOffset" : 2008
        },
        {
            "buffer" : 0,
            "byteLength" : 48,
            "byteOffset" : 2040
        },
        {
            "buffer" : 0,
            "byteLength" : 48,
            "byteOffset" : 2088
        },
        {
            "buffer" : 0,
            "byteLength" : 32,
            "byteOffset" : 2136
        },
        {
            "buffer" : 0,
            "byteLength" : 12,
            "byteOffset" : 2168
        },
        {
            "buffer" : 0,
            "byteLength" : 48,
            "byteOffset" : 2180
        },
        {
            "buffer" : 0,
            "byteLength" : 48,
            "byteOffset" : 2228
        },
        {
            "buffer" : 0,
            "byteLength" : 32,
            "byteOffset" : 2276
        },
        {
            "buffer" : 0,
            "byteLength" : 12,
            "byteOffset" : 2308
        }
    ],
    "samplers" : [
        {
            "magFilter" : 9729,
            "minFilter" : 9987
        }
    ],
    "buffers" : [
        {
            "byteLength" : 2320,
            "uri" : "small_1.bin"
        }
    ]
}
