{
	"asset":{
		"generator":"Khronos glTF Blender I/O v4.1.63",
		"version":"2.0"
	},
	"scene":0,
	"scenes":[
		{
			"name":"Scene",
			"nodes":[
				0
			]
		}
	],
	"nodes":[
		{
			"mesh":0,
			"name":"Maxis-3d1-mesh-53",
			"rotation":[
				0.70710688829422,
				0,
				0,
				0.7071066498756409
			]
		}
	],
	"materials":[
		{
			"name":"mat39-14",
			"pbrMetallicRoughness":{
				"baseColorTexture":{
					"index":0
				},
				"metallicFactor":0
			}
		},
		{
			"name":"mat40-55",
			"pbrMetallicRoughness":{
				"baseColorTexture":{
					"index":1
				},
				"metallicFactor":0
			}
		},
		{
			"name":"matcolour-48.015",
			"pbrMetallicRoughness":{
				"baseColorFactor":[
					0.05882352963089943,
					0.05882352963089943,
					0.05882352963089943,
					1
				],
				"metallicFactor":0
			}
		}
	],
	"meshes":[
		{
			"name":"Maxis-3d1-mesh-53",
			"primitives":[
				{
					"attributes":{
						"POSITION":0,
						"NORMAL":1,
						"TEXCOORD_0":2
					},
					"indices":3,
					"material":0
				},
				{
					"attributes":{
						"POSITION":4,
						"NORMAL":5,
						"TEXCOORD_0":6
					},
					"indices":7,
					"material":0
				},
				{
					"attributes":{
						"POSITION":8,
						"NORMAL":9,
						"TEXCOORD_0":10
					},
					"indices":11,
					"material":1
				},
				{
					"attributes":{
						"POSITION":12,
						"NORMAL":13,
						"TEXCOORD_0":14
					},
					"indices":15,
					"material":1
				},
				{
					"attributes":{
						"POSITION":16,
						"NORMAL":17,
						"TEXCOORD_0":18
					},
					"indices":19,
					"material":0
				},
				{
					"attributes":{
						"POSITION":20,
						"NORMAL":21,
						"TEXCOORD_0":22
					},
					"indices":23,
					"material":0
				},
				{
					"attributes":{
						"POSITION":24,
						"NORMAL":25,
						"TEXCOORD_0":26
					},
					"indices":27,
					"material":2
				}
			]
		}
	],
	"textures":[
		{
			"sampler":0,
			"source":0
		},
		{
			"sampler":0,
			"source":1
		}
	],
	"images":[
		{
			"mimeType":"image/png",
			"name":"tex39-14",
			"uri":"../../../Textures/tex39-14.png"
		},
		{
			"mimeType":"image/png",
			"name":"tex40-55",
			"uri":"../../../Textures/tex40-55.png"
		}
	],
	"accessors":[
		{
			"bufferView":0,
			"componentType":5126,
			"count":16,
			"max":[
				13.40386962890625,
				13.38015365600586,
				0
			],
			"min":[
				-13.386035919189453,
				-14.315109252929688,
				-4.196254730224609
			],
			"type":"VEC3"
		},
		{
			"bufferView":1,
			"componentType":5126,
			"count":16,
			"type":"VEC3"
		},
		{
			"bufferView":2,
			"componentType":5126,
			"count":16,
			"type":"VEC2"
		},
		{
			"bufferView":3,
			"componentType":5123,
			"count":24,
			"type":"SCALAR"
		},
		{
			"bufferView":4,
			"componentType":5126,
			"count":16,
			"max":[
				13.40386962890625,
				-0.00978851318359375,
				3.814697265625e-06
			],
			"min":[
				-13.386035919189453,
				-14.379364013671875,
				-4.1962432861328125
			],
			"type":"VEC3"
		},
		{
			"bufferView":5,
			"componentType":5126,
			"count":16,
			"type":"VEC3"
		},
		{
			"bufferView":6,
			"componentType":5126,
			"count":16,
			"type":"VEC2"
		},
		{
			"bufferView":7,
			"componentType":5123,
			"count":24,
			"type":"SCALAR"
		},
		{
			"bufferView":8,
			"componentType":5126,
			"count":36,
			"max":[
				13.40386962890625,
				13.380149841308594,
				-4.196250915527344
			],
			"min":[
				-13.386035919189453,
				-14.315109252929688,
				-13.068408966064453
			],
			"type":"VEC3"
		},
		{
			"bufferView":9,
			"componentType":5126,
			"count":36,
			"type":"VEC3"
		},
		{
			"bufferView":10,
			"componentType":5126,
			"count":36,
			"type":"VEC2"
		},
		{
			"bufferView":11,
			"componentType":5123,
			"count":60,
			"type":"SCALAR"
		},
		{
			"bufferView":12,
			"componentType":5126,
			"count":36,
			"max":[
				13.40386962890625,
				1.3794097900390625,
				-4.1962432861328125
			],
			"min":[
				-13.386035919189453,
				-14.37936782836914,
				-13.068401336669922
			],
			"type":"VEC3"
		},
		{
			"bufferView":13,
			"componentType":5126,
			"count":36,
			"type":"VEC3"
		},
		{
			"bufferView":14,
			"componentType":5126,
			"count":36,
			"type":"VEC2"
		},
		{
			"bufferView":15,
			"componentType":5123,
			"count":60,
			"type":"SCALAR"
		},
		{
			"bufferView":16,
			"componentType":5126,
			"count":34,
			"max":[
				13.40386962890625,
				13.38015365600586,
				3.814697265625e-06
			],
			"min":[
				-7.594264984130859,
				-14.379364013671875,
				-9.37337875366211
			],
			"type":"VEC3"
		},
		{
			"bufferView":17,
			"componentType":5126,
			"count":34,
			"type":"VEC3"
		},
		{
			"bufferView":18,
			"componentType":5126,
			"count":34,
			"type":"VEC2"
		},
		{
			"bufferView":19,
			"componentType":5123,
			"count":48,
			"type":"SCALAR"
		},
		{
			"bufferView":20,
			"componentType":5126,
			"count":32,
			"max":[
				7.612102508544922,
				13.38015365600586,
				3.814697265625e-06
			],
			"min":[
				-13.386035919189453,
				-14.379364013671875,
				-9.37337875366211
			],
			"type":"VEC3"
		},
		{
			"bufferView":21,
			"componentType":5126,
			"count":32,
			"type":"VEC3"
		},
		{
			"bufferView":22,
			"componentType":5126,
			"count":32,
			"type":"VEC2"
		},
		{
			"bufferView":23,
			"componentType":5123,
			"count":48,
			"type":"SCALAR"
		},
		{
			"bufferView":24,
			"componentType":5126,
			"count":99,
			"max":[
				13.40386962890625,
				13.380149841308594,
				-4.1962432861328125
			],
			"min":[
				-13.386035919189453,
				-14.37936782836914,
				-13.068408966064453
			],
			"type":"VEC3"
		},
		{
			"bufferView":25,
			"componentType":5126,
			"count":99,
			"type":"VEC3"
		},
		{
			"bufferView":26,
			"componentType":5126,
			"count":99,
			"type":"VEC2"
		},
		{
			"bufferView":27,
			"componentType":5123,
			"count":192,
			"type":"SCALAR"
		}
	],
	"bufferViews":[
		{
			"buffer":0,
			"byteLength":192,
			"byteOffset":0,
			"target":34962
		},
		{
			"buffer":0,
			"byteLength":192,
			"byteOffset":192,
			"target":34962
		},
		{
			"buffer":0,
			"byteLength":128,
			"byteOffset":384,
			"target":34962
		},
		{
			"buffer":0,
			"byteLength":48,
			"byteOffset":512,
			"target":34963
		},
		{
			"buffer":0,
			"byteLength":192,
			"byteOffset":560,
			"target":34962
		},
		{
			"buffer":0,
			"byteLength":192,
			"byteOffset":752,
			"target":34962
		},
		{
			"buffer":0,
			"byteLength":128,
			"byteOffset":944,
			"target":34962
		},
		{
			"buffer":0,
			"byteLength":48,
			"byteOffset":1072,
			"target":34963
		},
		{
			"buffer":0,
			"byteLength":432,
			"byteOffset":1120,
			"target":34962
		},
		{
			"buffer":0,
			"byteLength":432,
			"byteOffset":1552,
			"target":34962
		},
		{
			"buffer":0,
			"byteLength":288,
			"byteOffset":1984,
			"target":34962
		},
		{
			"buffer":0,
			"byteLength":120,
			"byteOffset":2272,
			"target":34963
		},
		{
			"buffer":0,
			"byteLength":432,
			"byteOffset":2392,
			"target":34962
		},
		{
			"buffer":0,
			"byteLength":432,
			"byteOffset":2824,
			"target":34962
		},
		{
			"buffer":0,
			"byteLength":288,
			"byteOffset":3256,
			"target":34962
		},
		{
			"buffer":0,
			"byteLength":120,
			"byteOffset":3544,
			"target":34963
		},
		{
			"buffer":0,
			"byteLength":408,
			"byteOffset":3664,
			"target":34962
		},
		{
			"buffer":0,
			"byteLength":408,
			"byteOffset":4072,
			"target":34962
		},
		{
			"buffer":0,
			"byteLength":272,
			"byteOffset":4480,
			"target":34962
		},
		{
			"buffer":0,
			"byteLength":96,
			"byteOffset":4752,
			"target":34963
		},
		{
			"buffer":0,
			"byteLength":384,
			"byteOffset":4848,
			"target":34962
		},
		{
			"buffer":0,
			"byteLength":384,
			"byteOffset":5232,
			"target":34962
		},
		{
			"buffer":0,
			"byteLength":256,
			"byteOffset":5616,
			"target":34962
		},
		{
			"buffer":0,
			"byteLength":96,
			"byteOffset":5872,
			"target":34963
		},
		{
			"buffer":0,
			"byteLength":1188,
			"byteOffset":5968,
			"target":34962
		},
		{
			"buffer":0,
			"byteLength":1188,
			"byteOffset":7156,
			"target":34962
		},
		{
			"buffer":0,
			"byteLength":792,
			"byteOffset":8344,
			"target":34962
		},
		{
			"buffer":0,
			"byteLength":384,
			"byteOffset":9136,
			"target":34963
		}
	],
	"samplers":[
		{
			"magFilter":9729,
			"minFilter":9987
		}
	],
	"buffers":[
		{
			"byteLength":9520,
			"uri":"small_2.bin"
		}
	]
}
