{
	"asset":{
		"generator":"Khronos glTF Blender I/O v4.3.47",
		"version":"2.0"
	},
	"scene":0,
	"scenes":[
		{
			"name":"Scene",
			"nodes":[
				0,
				1
			]
		}
	],
	"nodes":[
		{
			"mesh":0,
			"name":"Maxis-3d1-mesh-54",
			"rotation":[
				0.70710688829422,
				0,
				0,
				0.7071066498756409
			]
		},
		{
			"extras":{
				"gd_node":"Decal",
				"lower_fade":9,
				"upper_fade":10
			},
			"mesh":1,
			"name":"Ground_AO",
			"scale":[
				26.01251220703125,
				1,
				22.527999877929688
			],
			"translation":[
				0,
				-6.547802968270844e-06,
				-1.7422471046447754
			]
		}
	],
	"materials":[
		{
			"name":"matcolour-128.003",
			"occlusionTexture":{
				"index":0,
				"texCoord":1
			},
			"pbrMetallicRoughness":{
				"baseColorFactor":[
					0.12156862765550613,
					0.08235294371843338,
					0.062745101749897,
					1
				],
				"metallicFactor":0
			}
		},
		{
			"name":"mat40-15",
			"occlusionTexture":{
				"index":1,
				"texCoord":1
			},
			"pbrMetallicRoughness":{
				"baseColorTexture":{
					"index":2
				},
				"metallicFactor":0
			}
		},
		{
			"name":"Ground_AO.001",
			"occlusionTexture":{
				"index":3
			},
			"pbrMetallicRoughness":{
				"baseColorFactor":[
					0.800000011920929,
					0.800000011920929,
					0.800000011920929,
					1
				],
				"metallicFactor":0,
				"roughnessFactor":0.5
			}
		}
	],
	"meshes":[
		{
			"name":"Maxis-3d1-mesh-54",
			"primitives":[
				{
					"attributes":{
						"POSITION":0,
						"NORMAL":1,
						"TEXCOORD_0":2,
						"TEXCOORD_1":3
					},
					"indices":4,
					"material":0
				},
				{
					"attributes":{
						"POSITION":5,
						"NORMAL":6,
						"TEXCOORD_0":7,
						"TEXCOORD_1":8
					},
					"indices":9,
					"material":1
				}
			]
		},
		{
			"name":"Plane.001",
			"primitives":[
				{
					"attributes":{
						"POSITION":10,
						"NORMAL":11,
						"TEXCOORD_0":12
					},
					"indices":13,
					"material":2
				}
			]
		}
	],
	"textures":[
		{
			"sampler":0,
			"source":0
		},
		{
			"sampler":0,
			"source":0
		},
		{
			"sampler":0,
			"source":1
		},
		{
			"sampler":0,
			"source":2
		}
	],
	"images":[
		{
			"mimeType":"image/png",
			"name":"small_3.png",
			"uri":"../../../Textures/ambient_occlusion/Buildings/Apartments/small_3.png"
		},
		{
			"mimeType":"image/png",
			"name":"tex40-15",
			"uri":"../../../Textures/tex40-15.png"
		},
		{
			"mimeType":"image/png",
			"name":"small_3_ground.png",
			"uri":"../../../Textures/ambient_occlusion/Buildings/Apartments/small_3_ground.png"
		}
	],
	"accessors":[
		{
			"bufferView":0,
			"componentType":5126,
			"count":86,
			"max":[
				12.506256103515625,
				9.021747589111328,
				-7.7624969482421875
			],
			"min":[
				-12.506256103515625,
				-12.506248474121094,
				-8.629043579101562
			],
			"type":"VEC3"
		},
		{
			"bufferView":1,
			"componentType":5126,
			"count":86,
			"type":"VEC3"
		},
		{
			"bufferView":2,
			"componentType":5126,
			"count":86,
			"type":"VEC2"
		},
		{
			"bufferView":3,
			"componentType":5126,
			"count":86,
			"type":"VEC2"
		},
		{
			"bufferView":4,
			"componentType":5123,
			"count":138,
			"type":"SCALAR"
		},
		{
			"bufferView":5,
			"componentType":5126,
			"count":42,
			"max":[
				12.506256103515625,
				9.021751403808594,
				3.814697265625e-06
			],
			"min":[
				-12.506256103515625,
				-12.506248474121094,
				-7.988605499267578
			],
			"type":"VEC3"
		},
		{
			"bufferView":6,
			"componentType":5126,
			"count":42,
			"type":"VEC3"
		},
		{
			"bufferView":7,
			"componentType":5126,
			"count":42,
			"type":"VEC2"
		},
		{
			"bufferView":8,
			"componentType":5126,
			"count":42,
			"type":"VEC2"
		},
		{
			"bufferView":9,
			"componentType":5123,
			"count":60,
			"type":"SCALAR"
		},
		{
			"bufferView":10,
			"componentType":5126,
			"count":4,
			"max":[
				0.5,
				0,
				0.5
			],
			"min":[
				-0.5,
				0,
				-0.5
			],
			"type":"VEC3"
		},
		{
			"bufferView":11,
			"componentType":5126,
			"count":4,
			"type":"VEC3"
		},
		{
			"bufferView":12,
			"componentType":5126,
			"count":4,
			"type":"VEC2"
		},
		{
			"bufferView":13,
			"componentType":5123,
			"count":6,
			"type":"SCALAR"
		}
	],
	"bufferViews":[
		{
			"buffer":0,
			"byteLength":1032,
			"byteOffset":0,
			"target":34962
		},
		{
			"buffer":0,
			"byteLength":1032,
			"byteOffset":1032,
			"target":34962
		},
		{
			"buffer":0,
			"byteLength":688,
			"byteOffset":2064,
			"target":34962
		},
		{
			"buffer":0,
			"byteLength":688,
			"byteOffset":2752,
			"target":34962
		},
		{
			"buffer":0,
			"byteLength":276,
			"byteOffset":3440,
			"target":34963
		},
		{
			"buffer":0,
			"byteLength":504,
			"byteOffset":3716,
			"target":34962
		},
		{
			"buffer":0,
			"byteLength":504,
			"byteOffset":4220,
			"target":34962
		},
		{
			"buffer":0,
			"byteLength":336,
			"byteOffset":4724,
			"target":34962
		},
		{
			"buffer":0,
			"byteLength":336,
			"byteOffset":5060,
			"target":34962
		},
		{
			"buffer":0,
			"byteLength":120,
			"byteOffset":5396,
			"target":34963
		},
		{
			"buffer":0,
			"byteLength":48,
			"byteOffset":5516,
			"target":34962
		},
		{
			"buffer":0,
			"byteLength":48,
			"byteOffset":5564,
			"target":34962
		},
		{
			"buffer":0,
			"byteLength":32,
			"byteOffset":5612,
			"target":34962
		},
		{
			"buffer":0,
			"byteLength":12,
			"byteOffset":5644,
			"target":34963
		}
	],
	"samplers":[
		{
			"magFilter":9729,
			"minFilter":9987
		}
	],
	"buffers":[
		{
			"byteLength":5656,
			"uri":"small_3.bin"
		}
	]
}
