{
	"asset":{
		"generator":"Khronos glTF Blender I/O v4.1.63",
		"version":"2.0"
	},
	"scene":0,
	"scenes":[
		{
			"name":"Scene",
			"nodes":[
				0
			]
		}
	],
	"nodes":[
		{
			"mesh":0,
			"name":"Maxis-3d3-mesh-30",
			"rotation":[
				0.70710688829422,
				0,
				0,
				0.7071066498756409
			]
		}
	],
	"materials":[
		{
			"name":"mat2-30",
			"pbrMetallicRoughness":{
				"baseColorTexture":{
					"index":0
				},
				"metallicFactor":0
			}
		},
		{
			"name":"matcolour-48",
			"pbrMetallicRoughness":{
				"baseColorFactor":[
					0.05882352963089943,
					0.05882352963089943,
					0.05882352963089943,
					1
				],
				"metallicFactor":0
			}
		},
		{
			"name":"mat2-43",
			"pbrMetallicRoughness":{
				"baseColorTexture":{
					"index":1
				},
				"metallicFactor":0
			}
		}
	],
	"meshes":[
		{
			"name":"Maxis-3d3-mesh-30",
			"primitives":[
				{
					"attributes":{
						"POSITION":0,
						"NORMAL":1,
						"TEXCOORD_0":2
					},
					"indices":3,
					"material":0
				},
				{
					"attributes":{
						"POSITION":4,
						"NORMAL":5,
						"TEXCOORD_0":6
					},
					"indices":7,
					"material":0
				},
				{
					"attributes":{
						"POSITION":8,
						"NORMAL":9,
						"TEXCOORD_0":10
					},
					"indices":11,
					"material":0
				},
				{
					"attributes":{
						"POSITION":12,
						"NORMAL":13,
						"TEXCOORD_0":14
					},
					"indices":15,
					"material":0
				},
				{
					"attributes":{
						"POSITION":16,
						"NORMAL":17,
						"TEXCOORD_0":18
					},
					"indices":19,
					"material":1
				},
				{
					"attributes":{
						"POSITION":20,
						"NORMAL":21,
						"TEXCOORD_0":22
					},
					"indices":23,
					"material":2
				},
				{
					"attributes":{
						"POSITION":24,
						"NORMAL":25,
						"TEXCOORD_0":26
					},
					"indices":27,
					"material":2
				},
				{
					"attributes":{
						"POSITION":28,
						"NORMAL":29,
						"TEXCOORD_0":30
					},
					"indices":31,
					"material":2
				},
				{
					"attributes":{
						"POSITION":32,
						"NORMAL":33,
						"TEXCOORD_0":34
					},
					"indices":35,
					"material":2
				}
			]
		}
	],
	"textures":[
		{
			"sampler":0,
			"source":0
		},
		{
			"sampler":0,
			"source":1
		}
	],
	"images":[
		{
			"mimeType":"image/png",
			"name":"tex2-30",
			"uri":"../../../Textures/tex2-30.png"
		},
		{
			"mimeType":"image/png",
			"name":"tex2-43",
			"uri":"../../../Textures/tex2-43.png"
		}
	],
	"accessors":[
		{
			"bufferView":0,
			"componentType":5126,
			"count":4,
			"max":[
				14.000003814697266,
				12.5,
				1.1444091796875e-05
			],
			"min":[
				13.999996185302734,
				-12.499996185302734,
				-7.3562164306640625
			],
			"type":"VEC3"
		},
		{
			"bufferView":1,
			"componentType":5126,
			"count":4,
			"type":"VEC3"
		},
		{
			"bufferView":2,
			"componentType":5126,
			"count":4,
			"type":"VEC2"
		},
		{
			"bufferView":3,
			"componentType":5123,
			"count":6,
			"type":"SCALAR"
		},
		{
			"bufferView":4,
			"componentType":5126,
			"count":8,
			"max":[
				4.384525299072266,
				12.499996185302734,
				1.1444091796875e-05
			],
			"min":[
				-2.0000038146972656,
				-12.499996185302734,
				-7.356212615966797
			],
			"type":"VEC3"
		},
		{
			"bufferView":5,
			"componentType":5126,
			"count":8,
			"type":"VEC3"
		},
		{
			"bufferView":6,
			"componentType":5126,
			"count":8,
			"type":"VEC2"
		},
		{
			"bufferView":7,
			"componentType":5123,
			"count":12,
			"type":"SCALAR"
		},
		{
			"bufferView":8,
			"componentType":5126,
			"count":8,
			"max":[
				14.000003814697266,
				6.5,
				1.1444091796875e-05
			],
			"min":[
				-2,
				-12.499996185302734,
				-7.356212615966797
			],
			"type":"VEC3"
		},
		{
			"bufferView":9,
			"componentType":5126,
			"count":8,
			"type":"VEC3"
		},
		{
			"bufferView":10,
			"componentType":5126,
			"count":8,
			"type":"VEC2"
		},
		{
			"bufferView":11,
			"componentType":5123,
			"count":12,
			"type":"SCALAR"
		},
		{
			"bufferView":12,
			"componentType":5126,
			"count":4,
			"max":[
				13.999996185302734,
				12.5,
				0
			],
			"min":[
				-2.0000038146972656,
				12.499996185302734,
				-7.3562164306640625
			],
			"type":"VEC3"
		},
		{
			"bufferView":13,
			"componentType":5126,
			"count":4,
			"type":"VEC3"
		},
		{
			"bufferView":14,
			"componentType":5126,
			"count":4,
			"type":"VEC2"
		},
		{
			"bufferView":15,
			"componentType":5123,
			"count":6,
			"type":"SCALAR"
		},
		{
			"bufferView":16,
			"componentType":5126,
			"count":14,
			"max":[
				14,
				12.708332061767578,
				-7.13897705078125
			],
			"min":[
				-14.166664123535156,
				-14.166664123535156,
				-7.3562164306640625
			],
			"type":"VEC3"
		},
		{
			"bufferView":17,
			"componentType":5126,
			"count":14,
			"type":"VEC3"
		},
		{
			"bufferView":18,
			"componentType":5126,
			"count":14,
			"type":"VEC2"
		},
		{
			"bufferView":19,
			"componentType":5123,
			"count":18,
			"type":"SCALAR"
		},
		{
			"bufferView":20,
			"componentType":5126,
			"count":4,
			"max":[
				-7.708332061767578,
				12.708332061767578,
				0
			],
			"min":[
				-14.166664123535156,
				12.708332061767578,
				-7.13897705078125
			],
			"type":"VEC3"
		},
		{
			"bufferView":21,
			"componentType":5126,
			"count":4,
			"type":"VEC3"
		},
		{
			"bufferView":22,
			"componentType":5126,
			"count":4,
			"type":"VEC2"
		},
		{
			"bufferView":23,
			"componentType":5123,
			"count":6,
			"type":"SCALAR"
		},
		{
			"bufferView":24,
			"componentType":5126,
			"count":4,
			"max":[
				-7.708332061767578,
				-14.166664123535156,
				0
			],
			"min":[
				-14.166664123535156,
				-14.166664123535156,
				-7.13897705078125
			],
			"type":"VEC3"
		},
		{
			"bufferView":25,
			"componentType":5126,
			"count":4,
			"type":"VEC3"
		},
		{
			"bufferView":26,
			"componentType":5126,
			"count":4,
			"type":"VEC2"
		},
		{
			"bufferView":27,
			"componentType":5123,
			"count":6,
			"type":"SCALAR"
		},
		{
			"bufferView":28,
			"componentType":5126,
			"count":4,
			"max":[
				-7.708332061767578,
				12.708332061767578,
				0
			],
			"min":[
				-7.708332061767578,
				-14.166664123535156,
				-7.13897705078125
			],
			"type":"VEC3"
		},
		{
			"bufferView":29,
			"componentType":5126,
			"count":4,
			"type":"VEC3"
		},
		{
			"bufferView":30,
			"componentType":5126,
			"count":4,
			"type":"VEC2"
		},
		{
			"bufferView":31,
			"componentType":5123,
			"count":6,
			"type":"SCALAR"
		},
		{
			"bufferView":32,
			"componentType":5126,
			"count":4,
			"max":[
				-14.166664123535156,
				12.708332061767578,
				0
			],
			"min":[
				-14.166664123535156,
				-14.166664123535156,
				-7.13897705078125
			],
			"type":"VEC3"
		},
		{
			"bufferView":33,
			"componentType":5126,
			"count":4,
			"type":"VEC3"
		},
		{
			"bufferView":34,
			"componentType":5126,
			"count":4,
			"type":"VEC2"
		},
		{
			"bufferView":35,
			"componentType":5123,
			"count":6,
			"type":"SCALAR"
		}
	],
	"bufferViews":[
		{
			"buffer":0,
			"byteLength":48,
			"byteOffset":0,
			"target":34962
		},
		{
			"buffer":0,
			"byteLength":48,
			"byteOffset":48,
			"target":34962
		},
		{
			"buffer":0,
			"byteLength":32,
			"byteOffset":96,
			"target":34962
		},
		{
			"buffer":0,
			"byteLength":12,
			"byteOffset":128,
			"target":34963
		},
		{
			"buffer":0,
			"byteLength":96,
			"byteOffset":140,
			"target":34962
		},
		{
			"buffer":0,
			"byteLength":96,
			"byteOffset":236,
			"target":34962
		},
		{
			"buffer":0,
			"byteLength":64,
			"byteOffset":332,
			"target":34962
		},
		{
			"buffer":0,
			"byteLength":24,
			"byteOffset":396,
			"target":34963
		},
		{
			"buffer":0,
			"byteLength":96,
			"byteOffset":420,
			"target":34962
		},
		{
			"buffer":0,
			"byteLength":96,
			"byteOffset":516,
			"target":34962
		},
		{
			"buffer":0,
			"byteLength":64,
			"byteOffset":612,
			"target":34962
		},
		{
			"buffer":0,
			"byteLength":24,
			"byteOffset":676,
			"target":34963
		},
		{
			"buffer":0,
			"byteLength":48,
			"byteOffset":700,
			"target":34962
		},
		{
			"buffer":0,
			"byteLength":48,
			"byteOffset":748,
			"target":34962
		},
		{
			"buffer":0,
			"byteLength":32,
			"byteOffset":796,
			"target":34962
		},
		{
			"buffer":0,
			"byteLength":12,
			"byteOffset":828,
			"target":34963
		},
		{
			"buffer":0,
			"byteLength":168,
			"byteOffset":840,
			"target":34962
		},
		{
			"buffer":0,
			"byteLength":168,
			"byteOffset":1008,
			"target":34962
		},
		{
			"buffer":0,
			"byteLength":112,
			"byteOffset":1176,
			"target":34962
		},
		{
			"buffer":0,
			"byteLength":36,
			"byteOffset":1288,
			"target":34963
		},
		{
			"buffer":0,
			"byteLength":48,
			"byteOffset":1324,
			"target":34962
		},
		{
			"buffer":0,
			"byteLength":48,
			"byteOffset":1372,
			"target":34962
		},
		{
			"buffer":0,
			"byteLength":32,
			"byteOffset":1420,
			"target":34962
		},
		{
			"buffer":0,
			"byteLength":12,
			"byteOffset":1452,
			"target":34963
		},
		{
			"buffer":0,
			"byteLength":48,
			"byteOffset":1464,
			"target":34962
		},
		{
			"buffer":0,
			"byteLength":48,
			"byteOffset":1512,
			"target":34962
		},
		{
			"buffer":0,
			"byteLength":32,
			"byteOffset":1560,
			"target":34962
		},
		{
			"buffer":0,
			"byteLength":12,
			"byteOffset":1592,
			"target":34963
		},
		{
			"buffer":0,
			"byteLength":48,
			"byteOffset":1604,
			"target":34962
		},
		{
			"buffer":0,
			"byteLength":48,
			"byteOffset":1652,
			"target":34962
		},
		{
			"buffer":0,
			"byteLength":32,
			"byteOffset":1700,
			"target":34962
		},
		{
			"buffer":0,
			"byteLength":12,
			"byteOffset":1732,
			"target":34963
		},
		{
			"buffer":0,
			"byteLength":48,
			"byteOffset":1744,
			"target":34962
		},
		{
			"buffer":0,
			"byteLength":48,
			"byteOffset":1792,
			"target":34962
		},
		{
			"buffer":0,
			"byteLength":32,
			"byteOffset":1840,
			"target":34962
		},
		{
			"buffer":0,
			"byteLength":12,
			"byteOffset":1872,
			"target":34963
		}
	],
	"samplers":[
		{
			"magFilter":9729,
			"minFilter":9987
		}
	],
	"buffers":[
		{
			"byteLength":1884,
			"uri":"small_1.bin"
		}
	]
}
