{
	"asset":{
		"generator":"Khronos glTF Blender I/O v4.1.63",
		"version":"2.0"
	},
	"scene":0,
	"scenes":[
		{
			"name":"Scene",
			"nodes":[
				0
			]
		}
	],
	"nodes":[
		{
			"mesh":0,
			"name":"Maxis-3d1-mesh-54",
			"rotation":[
				0.70710688829422,
				0,
				0,
				0.7071066498756409
			]
		}
	],
	"materials":[
		{
			"name":"matcolour-128.003",
			"pbrMetallicRoughness":{
				"baseColorFactor":[
					0.12156862765550613,
					0.08235294371843338,
					0.062745101749897,
					1
				],
				"metallicFactor":0
			}
		},
		{
			"name":"mat40-15",
			"pbrMetallicRoughness":{
				"baseColorTexture":{
					"index":0
				},
				"metallicFactor":0
			}
		}
	],
	"meshes":[
		{
			"name":"Maxis-3d1-mesh-54",
			"primitives":[
				{
					"attributes":{
						"POSITION":0,
						"NORMAL":1,
						"TEXCOORD_0":2
					},
					"indices":3,
					"material":0
				},
				{
					"attributes":{
						"POSITION":4,
						"NORMAL":5,
						"TEXCOORD_0":6
					},
					"indices":7,
					"material":1
				},
				{
					"attributes":{
						"POSITION":8,
						"NORMAL":9,
						"TEXCOORD_0":10
					},
					"indices":11,
					"material":1
				},
				{
					"attributes":{
						"POSITION":12,
						"NORMAL":13,
						"TEXCOORD_0":14
					},
					"indices":15,
					"material":1
				},
				{
					"attributes":{
						"POSITION":16,
						"NORMAL":17,
						"TEXCOORD_0":18
					},
					"indices":19,
					"material":1
				}
			]
		}
	],
	"textures":[
		{
			"sampler":0,
			"source":0
		}
	],
	"images":[
		{
			"mimeType":"image/png",
			"name":"tex40-15",
			"uri":"../../../Textures/tex40-15.png"
		}
	],
	"accessors":[
		{
			"bufferView":0,
			"componentType":5126,
			"count":84,
			"max":[
				12.506256103515625,
				9.021747589111328,
				-7.7624969482421875
			],
			"min":[
				-12.506256103515625,
				-12.506248474121094,
				-8.629043579101562
			],
			"type":"VEC3"
		},
		{
			"bufferView":1,
			"componentType":5126,
			"count":84,
			"type":"VEC3"
		},
		{
			"bufferView":2,
			"componentType":5126,
			"count":84,
			"type":"VEC2"
		},
		{
			"bufferView":3,
			"componentType":5123,
			"count":138,
			"type":"SCALAR"
		},
		{
			"bufferView":4,
			"componentType":5126,
			"count":20,
			"max":[
				12.506256103515625,
				9.021751403808594,
				3.814697265625e-06
			],
			"min":[
				-12.506256103515625,
				-5.174995422363281,
				-7.988605499267578
			],
			"type":"VEC3"
		},
		{
			"bufferView":5,
			"componentType":5126,
			"count":20,
			"type":"VEC3"
		},
		{
			"bufferView":6,
			"componentType":5126,
			"count":20,
			"type":"VEC2"
		},
		{
			"bufferView":7,
			"componentType":5123,
			"count":30,
			"type":"SCALAR"
		},
		{
			"bufferView":8,
			"componentType":5126,
			"count":12,
			"max":[
				12.506256103515625,
				9.021751403808594,
				0
			],
			"min":[
				-12.466358184814453,
				-12.506248474121094,
				-7.9886016845703125
			],
			"type":"VEC3"
		},
		{
			"bufferView":9,
			"componentType":5126,
			"count":12,
			"type":"VEC3"
		},
		{
			"bufferView":10,
			"componentType":5126,
			"count":12,
			"type":"VEC2"
		},
		{
			"bufferView":11,
			"componentType":5123,
			"count":18,
			"type":"SCALAR"
		},
		{
			"bufferView":12,
			"componentType":5126,
			"count":4,
			"max":[
				12.506256103515625,
				-12.506244659423828,
				3.814697265625e-06
			],
			"min":[
				-12.506256103515625,
				-12.506248474121094,
				-7.762500762939453
			],
			"type":"VEC3"
		},
		{
			"bufferView":13,
			"componentType":5126,
			"count":4,
			"type":"VEC3"
		},
		{
			"bufferView":14,
			"componentType":5126,
			"count":4,
			"type":"VEC2"
		},
		{
			"bufferView":15,
			"componentType":5123,
			"count":6,
			"type":"SCALAR"
		},
		{
			"bufferView":16,
			"componentType":5126,
			"count":4,
			"max":[
				-12.506256103515625,
				-5.174995422363281,
				3.814697265625e-06
			],
			"min":[
				-12.506256103515625,
				-12.506248474121094,
				-7.7624969482421875
			],
			"type":"VEC3"
		},
		{
			"bufferView":17,
			"componentType":5126,
			"count":4,
			"type":"VEC3"
		},
		{
			"bufferView":18,
			"componentType":5126,
			"count":4,
			"type":"VEC2"
		},
		{
			"bufferView":19,
			"componentType":5123,
			"count":6,
			"type":"SCALAR"
		}
	],
	"bufferViews":[
		{
			"buffer":0,
			"byteLength":1008,
			"byteOffset":0,
			"target":34962
		},
		{
			"buffer":0,
			"byteLength":1008,
			"byteOffset":1008,
			"target":34962
		},
		{
			"buffer":0,
			"byteLength":672,
			"byteOffset":2016,
			"target":34962
		},
		{
			"buffer":0,
			"byteLength":276,
			"byteOffset":2688,
			"target":34963
		},
		{
			"buffer":0,
			"byteLength":240,
			"byteOffset":2964,
			"target":34962
		},
		{
			"buffer":0,
			"byteLength":240,
			"byteOffset":3204,
			"target":34962
		},
		{
			"buffer":0,
			"byteLength":160,
			"byteOffset":3444,
			"target":34962
		},
		{
			"buffer":0,
			"byteLength":60,
			"byteOffset":3604,
			"target":34963
		},
		{
			"buffer":0,
			"byteLength":144,
			"byteOffset":3664,
			"target":34962
		},
		{
			"buffer":0,
			"byteLength":144,
			"byteOffset":3808,
			"target":34962
		},
		{
			"buffer":0,
			"byteLength":96,
			"byteOffset":3952,
			"target":34962
		},
		{
			"buffer":0,
			"byteLength":36,
			"byteOffset":4048,
			"target":34963
		},
		{
			"buffer":0,
			"byteLength":48,
			"byteOffset":4084,
			"target":34962
		},
		{
			"buffer":0,
			"byteLength":48,
			"byteOffset":4132,
			"target":34962
		},
		{
			"buffer":0,
			"byteLength":32,
			"byteOffset":4180,
			"target":34962
		},
		{
			"buffer":0,
			"byteLength":12,
			"byteOffset":4212,
			"target":34963
		},
		{
			"buffer":0,
			"byteLength":48,
			"byteOffset":4224,
			"target":34962
		},
		{
			"buffer":0,
			"byteLength":48,
			"byteOffset":4272,
			"target":34962
		},
		{
			"buffer":0,
			"byteLength":32,
			"byteOffset":4320,
			"target":34962
		},
		{
			"buffer":0,
			"byteLength":12,
			"byteOffset":4352,
			"target":34963
		}
	],
	"samplers":[
		{
			"magFilter":9729,
			"minFilter":9987
		}
	],
	"buffers":[
		{
			"byteLength":4364,
			"uri":"small_3.bin"
		}
	]
}
