{
	"asset":{
		"generator":"Khronos glTF Blender I/O v4.3.47",
		"version":"2.0"
	},
	"scene":0,
	"scenes":[
		{
			"name":"Scene",
			"nodes":[
				0,
				1
			]
		}
	],
	"nodes":[
		{
			"mesh":0,
			"name":"Maxis-3d1-mesh-53",
			"rotation":[
				0.70710688829422,
				0,
				0,
				0.7071066498756409
			]
		},
		{
			"extras":{
				"gd_node":"Decal",
				"lower_fade":9,
				"upper_fade":10
			},
			"mesh":1,
			"name":"Ground_AO",
			"scale":[
				27.789905548095703,
				1,
				28.759523391723633
			],
			"translation":[
				0.008916854858398438,
				-7.868164175306447e-06,
				-0.4996051788330078
			]
		}
	],
	"materials":[
		{
			"name":"mat39-14",
			"occlusionTexture":{
				"index":0,
				"texCoord":1
			},
			"pbrMetallicRoughness":{
				"baseColorTexture":{
					"index":1
				},
				"metallicFactor":0
			}
		},
		{
			"name":"mat40-55",
			"occlusionTexture":{
				"index":2,
				"texCoord":1
			},
			"pbrMetallicRoughness":{
				"baseColorTexture":{
					"index":3
				},
				"metallicFactor":0
			}
		},
		{
			"name":"matcolour-48.015",
			"occlusionTexture":{
				"index":4,
				"texCoord":1
			},
			"pbrMetallicRoughness":{
				"baseColorFactor":[
					0.05882352963089943,
					0.05882352963089943,
					0.05882352963089943,
					1
				],
				"metallicFactor":0
			}
		},
		{
			"name":"Ground_AO.001",
			"occlusionTexture":{
				"index":5
			},
			"pbrMetallicRoughness":{
				"baseColorFactor":[
					0.800000011920929,
					0.800000011920929,
					0.800000011920929,
					1
				],
				"metallicFactor":0,
				"roughnessFactor":0.5
			}
		}
	],
	"meshes":[
		{
			"name":"Maxis-3d1-mesh-53",
			"primitives":[
				{
					"attributes":{
						"POSITION":0,
						"NORMAL":1,
						"TEXCOORD_0":2,
						"TEXCOORD_1":3
					},
					"indices":4,
					"material":0
				},
				{
					"attributes":{
						"POSITION":5,
						"NORMAL":6,
						"TEXCOORD_0":7,
						"TEXCOORD_1":8
					},
					"indices":9,
					"material":1
				},
				{
					"attributes":{
						"POSITION":10,
						"NORMAL":11,
						"TEXCOORD_0":12,
						"TEXCOORD_1":13
					},
					"indices":14,
					"material":2
				}
			]
		},
		{
			"name":"Plane.001",
			"primitives":[
				{
					"attributes":{
						"POSITION":15,
						"NORMAL":16,
						"TEXCOORD_0":17
					},
					"indices":18,
					"material":3
				}
			]
		}
	],
	"textures":[
		{
			"sampler":0,
			"source":0
		},
		{
			"sampler":0,
			"source":1
		},
		{
			"sampler":0,
			"source":0
		},
		{
			"sampler":0,
			"source":2
		},
		{
			"sampler":0,
			"source":0
		},
		{
			"sampler":0,
			"source":3
		}
	],
	"images":[
		{
			"mimeType":"image/png",
			"name":"small_2.png",
			"uri":"../../../Textures/ambient_occlusion/Buildings/Apartments/small_2.png"
		},
		{
			"mimeType":"image/png",
			"name":"tex39-14",
			"uri":"../../../Textures/tex39-14.png"
		},
		{
			"mimeType":"image/png",
			"name":"tex40-55",
			"uri":"../../../Textures/tex40-55.png"
		},
		{
			"mimeType":"image/png",
			"name":"small_2_ground.png",
			"uri":"../../../Textures/ambient_occlusion/Buildings/Apartments/small_2_ground.png"
		}
	],
	"accessors":[
		{
			"bufferView":0,
			"componentType":5126,
			"count":96,
			"max":[
				13.40386962890625,
				13.38015365600586,
				3.814697265625e-06
			],
			"min":[
				-13.386035919189453,
				-14.379364013671875,
				-9.37337875366211
			],
			"type":"VEC3"
		},
		{
			"bufferView":1,
			"componentType":5126,
			"count":96,
			"type":"VEC3"
		},
		{
			"bufferView":2,
			"componentType":5126,
			"count":96,
			"type":"VEC2"
		},
		{
			"bufferView":3,
			"componentType":5126,
			"count":96,
			"type":"VEC2"
		},
		{
			"bufferView":4,
			"componentType":5123,
			"count":144,
			"type":"SCALAR"
		},
		{
			"bufferView":5,
			"componentType":5126,
			"count":72,
			"max":[
				13.40386962890625,
				13.380149841308594,
				-4.1962432861328125
			],
			"min":[
				-13.386035919189453,
				-14.37936782836914,
				-13.068408966064453
			],
			"type":"VEC3"
		},
		{
			"bufferView":6,
			"componentType":5126,
			"count":72,
			"type":"VEC3"
		},
		{
			"bufferView":7,
			"componentType":5126,
			"count":72,
			"type":"VEC2"
		},
		{
			"bufferView":8,
			"componentType":5126,
			"count":72,
			"type":"VEC2"
		},
		{
			"bufferView":9,
			"componentType":5123,
			"count":120,
			"type":"SCALAR"
		},
		{
			"bufferView":10,
			"componentType":5126,
			"count":96,
			"max":[
				13.40386962890625,
				13.380149841308594,
				-4.1962432861328125
			],
			"min":[
				-13.386035919189453,
				-14.37936782836914,
				-13.068408966064453
			],
			"type":"VEC3"
		},
		{
			"bufferView":11,
			"componentType":5126,
			"count":96,
			"type":"VEC3"
		},
		{
			"bufferView":12,
			"componentType":5126,
			"count":96,
			"type":"VEC2"
		},
		{
			"bufferView":13,
			"componentType":5126,
			"count":96,
			"type":"VEC2"
		},
		{
			"bufferView":14,
			"componentType":5123,
			"count":192,
			"type":"SCALAR"
		},
		{
			"bufferView":15,
			"componentType":5126,
			"count":4,
			"max":[
				0.5,
				0,
				0.5
			],
			"min":[
				-0.5,
				0,
				-0.5
			],
			"type":"VEC3"
		},
		{
			"bufferView":16,
			"componentType":5126,
			"count":4,
			"type":"VEC3"
		},
		{
			"bufferView":17,
			"componentType":5126,
			"count":4,
			"type":"VEC2"
		},
		{
			"bufferView":18,
			"componentType":5123,
			"count":6,
			"type":"SCALAR"
		}
	],
	"bufferViews":[
		{
			"buffer":0,
			"byteLength":1152,
			"byteOffset":0,
			"target":34962
		},
		{
			"buffer":0,
			"byteLength":1152,
			"byteOffset":1152,
			"target":34962
		},
		{
			"buffer":0,
			"byteLength":768,
			"byteOffset":2304,
			"target":34962
		},
		{
			"buffer":0,
			"byteLength":768,
			"byteOffset":3072,
			"target":34962
		},
		{
			"buffer":0,
			"byteLength":288,
			"byteOffset":3840,
			"target":34963
		},
		{
			"buffer":0,
			"byteLength":864,
			"byteOffset":4128,
			"target":34962
		},
		{
			"buffer":0,
			"byteLength":864,
			"byteOffset":4992,
			"target":34962
		},
		{
			"buffer":0,
			"byteLength":576,
			"byteOffset":5856,
			"target":34962
		},
		{
			"buffer":0,
			"byteLength":576,
			"byteOffset":6432,
			"target":34962
		},
		{
			"buffer":0,
			"byteLength":240,
			"byteOffset":7008,
			"target":34963
		},
		{
			"buffer":0,
			"byteLength":1152,
			"byteOffset":7248,
			"target":34962
		},
		{
			"buffer":0,
			"byteLength":1152,
			"byteOffset":8400,
			"target":34962
		},
		{
			"buffer":0,
			"byteLength":768,
			"byteOffset":9552,
			"target":34962
		},
		{
			"buffer":0,
			"byteLength":768,
			"byteOffset":10320,
			"target":34962
		},
		{
			"buffer":0,
			"byteLength":384,
			"byteOffset":11088,
			"target":34963
		},
		{
			"buffer":0,
			"byteLength":48,
			"byteOffset":11472,
			"target":34962
		},
		{
			"buffer":0,
			"byteLength":48,
			"byteOffset":11520,
			"target":34962
		},
		{
			"buffer":0,
			"byteLength":32,
			"byteOffset":11568,
			"target":34962
		},
		{
			"buffer":0,
			"byteLength":12,
			"byteOffset":11600,
			"target":34963
		}
	],
	"samplers":[
		{
			"magFilter":9729,
			"minFilter":9987
		}
	],
	"buffers":[
		{
			"byteLength":11612,
			"uri":"small_2.bin"
		}
	]
}
