{
	"asset":{
		"generator":"Khronos glTF Blender I/O v4.3.47",
		"version":"2.0"
	},
	"scene":0,
	"scenes":[
		{
			"name":"Scene",
			"nodes":[
				0,
				1
			]
		}
	],
	"nodes":[
		{
			"mesh":0,
			"name":"Maxis-3d2-mesh-9-roof02",
			"rotation":[
				0.70710688829422,
				0,
				0,
				0.7071066498756409
			]
		},
		{
			"extras":{
				"gd_node":"Decal",
				"lower_fade":9,
				"upper_fade":10
			},
			"mesh":1,
			"name":"Ground_AO",
			"scale":[
				25.985755920410156,
				1,
				29.7020263671875
			],
			"translation":[
				-0.055572509765625,
				-5.738835170632228e-06,
				-0.030123233795166016
			]
		}
	],
	"materials":[
		{
			"name":"mat40-60",
			"occlusionTexture":{
				"index":0,
				"texCoord":1
			},
			"pbrMetallicRoughness":{
				"baseColorTexture":{
					"index":1
				},
				"metallicFactor":0
			}
		},
		{
			"name":"mat40-43.003",
			"occlusionTexture":{
				"index":2,
				"texCoord":1
			},
			"pbrMetallicRoughness":{
				"baseColorTexture":{
					"index":3
				},
				"metallicFactor":0
			}
		},
		{
			"name":"mat40-40",
			"occlusionTexture":{
				"index":4,
				"texCoord":1
			},
			"pbrMetallicRoughness":{
				"baseColorTexture":{
					"index":5
				},
				"metallicFactor":0
			}
		},
		{
			"name":"mat40-42.001",
			"occlusionTexture":{
				"index":6,
				"texCoord":1
			},
			"pbrMetallicRoughness":{
				"baseColorTexture":{
					"index":7
				},
				"metallicFactor":0
			}
		},
		{
			"name":"mat40-41",
			"occlusionTexture":{
				"index":8,
				"texCoord":1
			},
			"pbrMetallicRoughness":{
				"baseColorTexture":{
					"index":9
				},
				"metallicFactor":0
			}
		},
		{
			"name":"mat40-55.005",
			"occlusionTexture":{
				"index":10,
				"texCoord":1
			},
			"pbrMetallicRoughness":{
				"baseColorTexture":{
					"index":11
				},
				"metallicFactor":0
			}
		},
		{
			"name":"mat40-52.007",
			"occlusionTexture":{
				"index":12,
				"texCoord":1
			},
			"pbrMetallicRoughness":{
				"baseColorTexture":{
					"index":13
				},
				"metallicFactor":0
			}
		},
		{
			"name":"mat40-54.008",
			"occlusionTexture":{
				"index":14,
				"texCoord":1
			},
			"pbrMetallicRoughness":{
				"baseColorTexture":{
					"index":15
				},
				"metallicFactor":0
			}
		},
		{
			"name":"mat40-53.008",
			"occlusionTexture":{
				"index":16,
				"texCoord":1
			},
			"pbrMetallicRoughness":{
				"baseColorTexture":{
					"index":17
				},
				"metallicFactor":0
			}
		},
		{
			"name":"mat2-41",
			"occlusionTexture":{
				"index":18,
				"texCoord":1
			},
			"pbrMetallicRoughness":{
				"baseColorTexture":{
					"index":19
				},
				"metallicFactor":0
			}
		},
		{
			"name":"matcolour-128.001",
			"occlusionTexture":{
				"index":20,
				"texCoord":1
			},
			"pbrMetallicRoughness":{
				"baseColorFactor":[
					0.12156862765550613,
					0.08235294371843338,
					0.062745101749897,
					1
				],
				"metallicFactor":0
			}
		},
		{
			"name":"matcolour-48.007",
			"occlusionTexture":{
				"index":21,
				"texCoord":1
			},
			"pbrMetallicRoughness":{
				"baseColorFactor":[
					0.05882352963089943,
					0.05882352963089943,
					0.05882352963089943,
					1
				],
				"metallicFactor":0
			}
		},
		{
			"name":"Ground_AO",
			"occlusionTexture":{
				"index":22
			},
			"pbrMetallicRoughness":{
				"baseColorFactor":[
					0.800000011920929,
					0.800000011920929,
					0.800000011920929,
					1
				],
				"metallicFactor":0,
				"roughnessFactor":0.5
			}
		}
	],
	"meshes":[
		{
			"name":"Maxis-3d2-mesh-9-roof02",
			"primitives":[
				{
					"attributes":{
						"POSITION":0,
						"NORMAL":1,
						"TEXCOORD_0":2,
						"TEXCOORD_1":3
					},
					"indices":4,
					"material":0
				},
				{
					"attributes":{
						"POSITION":5,
						"NORMAL":6,
						"TEXCOORD_0":7,
						"TEXCOORD_1":8
					},
					"indices":9,
					"material":1
				},
				{
					"attributes":{
						"POSITION":10,
						"NORMAL":11,
						"TEXCOORD_0":12,
						"TEXCOORD_1":13
					},
					"indices":14,
					"material":2
				},
				{
					"attributes":{
						"POSITION":15,
						"NORMAL":16,
						"TEXCOORD_0":17,
						"TEXCOORD_1":18
					},
					"indices":19,
					"material":3
				},
				{
					"attributes":{
						"POSITION":20,
						"NORMAL":21,
						"TEXCOORD_0":22,
						"TEXCOORD_1":23
					},
					"indices":24,
					"material":4
				},
				{
					"attributes":{
						"POSITION":25,
						"NORMAL":26,
						"TEXCOORD_0":27,
						"TEXCOORD_1":28
					},
					"indices":29,
					"material":5
				},
				{
					"attributes":{
						"POSITION":30,
						"NORMAL":31,
						"TEXCOORD_0":32,
						"TEXCOORD_1":33
					},
					"indices":34,
					"material":6
				},
				{
					"attributes":{
						"POSITION":35,
						"NORMAL":36,
						"TEXCOORD_0":37,
						"TEXCOORD_1":38
					},
					"indices":39,
					"material":7
				},
				{
					"attributes":{
						"POSITION":40,
						"NORMAL":41,
						"TEXCOORD_0":42,
						"TEXCOORD_1":43
					},
					"indices":44,
					"material":8
				},
				{
					"attributes":{
						"POSITION":45,
						"NORMAL":46,
						"TEXCOORD_0":47,
						"TEXCOORD_1":48
					},
					"indices":49,
					"material":9
				},
				{
					"attributes":{
						"POSITION":50,
						"NORMAL":51,
						"TEXCOORD_0":52,
						"TEXCOORD_1":53
					},
					"indices":54,
					"material":10
				},
				{
					"attributes":{
						"POSITION":55,
						"NORMAL":56,
						"TEXCOORD_0":57,
						"TEXCOORD_1":58
					},
					"indices":59,
					"material":11
				}
			]
		},
		{
			"name":"Plane",
			"primitives":[
				{
					"attributes":{
						"POSITION":60,
						"NORMAL":61,
						"TEXCOORD_0":62
					},
					"indices":63,
					"material":12
				}
			]
		}
	],
	"textures":[
		{
			"sampler":0,
			"source":0
		},
		{
			"sampler":0,
			"source":1
		},
		{
			"sampler":0,
			"source":0
		},
		{
			"sampler":0,
			"source":2
		},
		{
			"sampler":0,
			"source":0
		},
		{
			"sampler":0,
			"source":3
		},
		{
			"sampler":0,
			"source":0
		},
		{
			"sampler":0,
			"source":4
		},
		{
			"sampler":0,
			"source":0
		},
		{
			"sampler":0,
			"source":5
		},
		{
			"sampler":0,
			"source":0
		},
		{
			"sampler":0,
			"source":6
		},
		{
			"sampler":0,
			"source":0
		},
		{
			"sampler":0,
			"source":7
		},
		{
			"sampler":0,
			"source":0
		},
		{
			"sampler":0,
			"source":8
		},
		{
			"sampler":0,
			"source":0
		},
		{
			"sampler":0,
			"source":9
		},
		{
			"sampler":0,
			"source":0
		},
		{
			"sampler":0,
			"source":10
		},
		{
			"sampler":0,
			"source":0
		},
		{
			"sampler":0,
			"source":0
		},
		{
			"sampler":0,
			"source":11
		}
	],
	"images":[
		{
			"mimeType":"image/png",
			"name":"small_5.png",
			"uri":"../../../Textures/ambient_occlusion/Buildings/Factory/small_5.png"
		},
		{
			"mimeType":"image/png",
			"name":"tex40-60",
			"uri":"../../../Textures/tex40-60.png"
		},
		{
			"mimeType":"image/png",
			"name":"tex40-43",
			"uri":"../../../Textures/tex40-43.png"
		},
		{
			"mimeType":"image/png",
			"name":"tex40-40",
			"uri":"../../../Textures/tex40-40.png"
		},
		{
			"mimeType":"image/png",
			"name":"tex40-42",
			"uri":"../../../Textures/tex40-42.png"
		},
		{
			"mimeType":"image/png",
			"name":"tex40-41",
			"uri":"../../../Textures/tex40-41.png"
		},
		{
			"mimeType":"image/png",
			"name":"tex40-55",
			"uri":"../../../Textures/tex40-55.png"
		},
		{
			"mimeType":"image/png",
			"name":"tex40-52",
			"uri":"../../../Textures/tex40-52.png"
		},
		{
			"mimeType":"image/png",
			"name":"tex40-54",
			"uri":"../../../Textures/tex40-54.png"
		},
		{
			"mimeType":"image/png",
			"name":"tex40-53",
			"uri":"../../../Textures/tex40-53.png"
		},
		{
			"mimeType":"image/png",
			"name":"tex2-41",
			"uri":"../../../Textures/tex2-41.png"
		},
		{
			"mimeType":"image/png",
			"name":"small_5_ground.png",
			"uri":"../../../Textures/ambient_occlusion/Buildings/Factory/small_5_ground.png"
		}
	],
	"accessors":[
		{
			"bufferView":0,
			"componentType":5126,
			"count":8,
			"max":[
				-9.736328125,
				8.663684844970703,
				-21.24248504638672
			],
			"min":[
				-11.441238403320312,
				1.4420585632324219,
				-21.24248504638672
			],
			"type":"VEC3"
		},
		{
			"bufferView":1,
			"componentType":5126,
			"count":8,
			"type":"VEC3"
		},
		{
			"bufferView":2,
			"componentType":5126,
			"count":8,
			"type":"VEC2"
		},
		{
			"bufferView":3,
			"componentType":5126,
			"count":8,
			"type":"VEC2"
		},
		{
			"bufferView":4,
			"componentType":5123,
			"count":12,
			"type":"SCALAR"
		},
		{
			"bufferView":5,
			"componentType":5126,
			"count":8,
			"max":[
				12.437305450439453,
				14.32088851928711,
				0
			],
			"min":[
				-12.548450469970703,
				-6.867794036865234,
				-11.243595123291016
			],
			"type":"VEC3"
		},
		{
			"bufferView":6,
			"componentType":5126,
			"count":8,
			"type":"VEC3"
		},
		{
			"bufferView":7,
			"componentType":5126,
			"count":8,
			"type":"VEC2"
		},
		{
			"bufferView":8,
			"componentType":5126,
			"count":8,
			"type":"VEC2"
		},
		{
			"bufferView":9,
			"componentType":5123,
			"count":12,
			"type":"SCALAR"
		},
		{
			"bufferView":10,
			"componentType":5126,
			"count":8,
			"max":[
				12.437305450439453,
				-4.215118408203125,
				3.814697265625e-06
			],
			"min":[
				-12.548450469970703,
				-14.38113784790039,
				-11.243587493896484
			],
			"type":"VEC3"
		},
		{
			"bufferView":11,
			"componentType":5126,
			"count":8,
			"type":"VEC3"
		},
		{
			"bufferView":12,
			"componentType":5126,
			"count":8,
			"type":"VEC2"
		},
		{
			"bufferView":13,
			"componentType":5126,
			"count":8,
			"type":"VEC2"
		},
		{
			"bufferView":14,
			"componentType":5123,
			"count":12,
			"type":"SCALAR"
		},
		{
			"bufferView":15,
			"componentType":5126,
			"count":12,
			"max":[
				12.437305450439453,
				14.32088851928711,
				3.814697265625e-06
			],
			"min":[
				3.256092071533203,
				-10.624454498291016,
				-11.243595123291016
			],
			"type":"VEC3"
		},
		{
			"bufferView":16,
			"componentType":5126,
			"count":12,
			"type":"VEC3"
		},
		{
			"bufferView":17,
			"componentType":5126,
			"count":12,
			"type":"VEC2"
		},
		{
			"bufferView":18,
			"componentType":5126,
			"count":12,
			"type":"VEC2"
		},
		{
			"bufferView":19,
			"componentType":5123,
			"count":18,
			"type":"SCALAR"
		},
		{
			"bufferView":20,
			"componentType":5126,
			"count":12,
			"max":[
				11.931758880615234,
				14.320884704589844,
				3.814697265625e-06
			],
			"min":[
				-12.548450469970703,
				-14.38113784790039,
				-11.243595123291016
			],
			"type":"VEC3"
		},
		{
			"bufferView":21,
			"componentType":5126,
			"count":12,
			"type":"VEC3"
		},
		{
			"bufferView":22,
			"componentType":5126,
			"count":12,
			"type":"VEC2"
		},
		{
			"bufferView":23,
			"componentType":5126,
			"count":12,
			"type":"VEC2"
		},
		{
			"bufferView":24,
			"componentType":5123,
			"count":18,
			"type":"SCALAR"
		},
		{
			"bufferView":25,
			"componentType":5126,
			"count":17,
			"max":[
				12.437305450439453,
				14.320880889892578,
				-11.24359130859375
			],
			"min":[
				-12.022239685058594,
				2.732166290283203,
				-21.24248504638672
			],
			"type":"VEC3"
		},
		{
			"bufferView":26,
			"componentType":5126,
			"count":17,
			"type":"VEC3"
		},
		{
			"bufferView":27,
			"componentType":5126,
			"count":17,
			"type":"VEC2"
		},
		{
			"bufferView":28,
			"componentType":5126,
			"count":17,
			"type":"VEC2"
		},
		{
			"bufferView":29,
			"componentType":5123,
			"count":21,
			"type":"SCALAR"
		},
		{
			"bufferView":30,
			"componentType":5126,
			"count":17,
			"max":[
				12.437305450439453,
				7.3735809326171875,
				-11.243587493896484
			],
			"min":[
				-12.022239685058594,
				-4.215122222900391,
				-21.24248504638672
			],
			"type":"VEC3"
		},
		{
			"bufferView":31,
			"componentType":5126,
			"count":17,
			"type":"VEC3"
		},
		{
			"bufferView":32,
			"componentType":5126,
			"count":17,
			"type":"VEC2"
		},
		{
			"bufferView":33,
			"componentType":5126,
			"count":17,
			"type":"VEC2"
		},
		{
			"bufferView":34,
			"componentType":5123,
			"count":21,
			"type":"SCALAR"
		},
		{
			"bufferView":35,
			"componentType":5126,
			"count":8,
			"max":[
				-9.155330657958984,
				9.103336334228516,
				-11.24359130859375
			],
			"min":[
				-9.736328125,
				1.0024223327636719,
				-21.24248504638672
			],
			"type":"VEC3"
		},
		{
			"bufferView":36,
			"componentType":5126,
			"count":8,
			"type":"VEC3"
		},
		{
			"bufferView":37,
			"componentType":5126,
			"count":8,
			"type":"VEC2"
		},
		{
			"bufferView":38,
			"componentType":5126,
			"count":8,
			"type":"VEC2"
		},
		{
			"bufferView":39,
			"componentType":5123,
			"count":12,
			"type":"SCALAR"
		},
		{
			"bufferView":40,
			"componentType":5126,
			"count":8,
			"max":[
				-11.441238403320312,
				9.103336334228516,
				-11.24359130859375
			],
			"min":[
				-12.022239685058594,
				1.0024223327636719,
				-21.24248504638672
			],
			"type":"VEC3"
		},
		{
			"bufferView":41,
			"componentType":5126,
			"count":8,
			"type":"VEC3"
		},
		{
			"bufferView":42,
			"componentType":5126,
			"count":8,
			"type":"VEC2"
		},
		{
			"bufferView":43,
			"componentType":5126,
			"count":8,
			"type":"VEC2"
		},
		{
			"bufferView":44,
			"componentType":5123,
			"count":12,
			"type":"SCALAR"
		},
		{
			"bufferView":45,
			"componentType":5126,
			"count":12,
			"max":[
				6.068386077880859,
				14.320880889892578,
				-11.243587493896484
			],
			"min":[
				-8.62911605834961,
				-4.215122222900391,
				-14.366817474365234
			],
			"type":"VEC3"
		},
		{
			"bufferView":46,
			"componentType":5126,
			"count":12,
			"type":"VEC3"
		},
		{
			"bufferView":47,
			"componentType":5126,
			"count":12,
			"type":"VEC2"
		},
		{
			"bufferView":48,
			"componentType":5126,
			"count":12,
			"type":"VEC2"
		},
		{
			"bufferView":49,
			"componentType":5123,
			"count":18,
			"type":"SCALAR"
		},
		{
			"bufferView":50,
			"componentType":5126,
			"count":59,
			"max":[
				12.437305450439453,
				14.320880889892578,
				-2.7755355834960938
			],
			"min":[
				-12.548450469970703,
				-14.38113784790039,
				-14.366817474365234
			],
			"type":"VEC3"
		},
		{
			"bufferView":51,
			"componentType":5126,
			"count":59,
			"type":"VEC3"
		},
		{
			"bufferView":52,
			"componentType":5126,
			"count":59,
			"type":"VEC2"
		},
		{
			"bufferView":53,
			"componentType":5126,
			"count":59,
			"type":"VEC2"
		},
		{
			"bufferView":54,
			"componentType":5123,
			"count":108,
			"type":"SCALAR"
		},
		{
			"bufferView":55,
			"componentType":5126,
			"count":6,
			"max":[
				11.302772521972656,
				-7.412494659423828,
				-3.7553672790527344
			],
			"min":[
				3.8850746154785156,
				-13.836406707763672,
				-3.75537109375
			],
			"type":"VEC3"
		},
		{
			"bufferView":56,
			"componentType":5126,
			"count":6,
			"type":"VEC3"
		},
		{
			"bufferView":57,
			"componentType":5126,
			"count":6,
			"type":"VEC2"
		},
		{
			"bufferView":58,
			"componentType":5126,
			"count":6,
			"type":"VEC2"
		},
		{
			"bufferView":59,
			"componentType":5123,
			"count":12,
			"type":"SCALAR"
		},
		{
			"bufferView":60,
			"componentType":5126,
			"count":4,
			"max":[
				0.5,
				0,
				0.5
			],
			"min":[
				-0.5,
				0,
				-0.5
			],
			"type":"VEC3"
		},
		{
			"bufferView":61,
			"componentType":5126,
			"count":4,
			"type":"VEC3"
		},
		{
			"bufferView":62,
			"componentType":5126,
			"count":4,
			"type":"VEC2"
		},
		{
			"bufferView":63,
			"componentType":5123,
			"count":6,
			"type":"SCALAR"
		}
	],
	"bufferViews":[
		{
			"buffer":0,
			"byteLength":96,
			"byteOffset":0,
			"target":34962
		},
		{
			"buffer":0,
			"byteLength":96,
			"byteOffset":96,
			"target":34962
		},
		{
			"buffer":0,
			"byteLength":64,
			"byteOffset":192,
			"target":34962
		},
		{
			"buffer":0,
			"byteLength":64,
			"byteOffset":256,
			"target":34962
		},
		{
			"buffer":0,
			"byteLength":24,
			"byteOffset":320,
			"target":34963
		},
		{
			"buffer":0,
			"byteLength":96,
			"byteOffset":344,
			"target":34962
		},
		{
			"buffer":0,
			"byteLength":96,
			"byteOffset":440,
			"target":34962
		},
		{
			"buffer":0,
			"byteLength":64,
			"byteOffset":536,
			"target":34962
		},
		{
			"buffer":0,
			"byteLength":64,
			"byteOffset":600,
			"target":34962
		},
		{
			"buffer":0,
			"byteLength":24,
			"byteOffset":664,
			"target":34963
		},
		{
			"buffer":0,
			"byteLength":96,
			"byteOffset":688,
			"target":34962
		},
		{
			"buffer":0,
			"byteLength":96,
			"byteOffset":784,
			"target":34962
		},
		{
			"buffer":0,
			"byteLength":64,
			"byteOffset":880,
			"target":34962
		},
		{
			"buffer":0,
			"byteLength":64,
			"byteOffset":944,
			"target":34962
		},
		{
			"buffer":0,
			"byteLength":24,
			"byteOffset":1008,
			"target":34963
		},
		{
			"buffer":0,
			"byteLength":144,
			"byteOffset":1032,
			"target":34962
		},
		{
			"buffer":0,
			"byteLength":144,
			"byteOffset":1176,
			"target":34962
		},
		{
			"buffer":0,
			"byteLength":96,
			"byteOffset":1320,
			"target":34962
		},
		{
			"buffer":0,
			"byteLength":96,
			"byteOffset":1416,
			"target":34962
		},
		{
			"buffer":0,
			"byteLength":36,
			"byteOffset":1512,
			"target":34963
		},
		{
			"buffer":0,
			"byteLength":144,
			"byteOffset":1548,
			"target":34962
		},
		{
			"buffer":0,
			"byteLength":144,
			"byteOffset":1692,
			"target":34962
		},
		{
			"buffer":0,
			"byteLength":96,
			"byteOffset":1836,
			"target":34962
		},
		{
			"buffer":0,
			"byteLength":96,
			"byteOffset":1932,
			"target":34962
		},
		{
			"buffer":0,
			"byteLength":36,
			"byteOffset":2028,
			"target":34963
		},
		{
			"buffer":0,
			"byteLength":204,
			"byteOffset":2064,
			"target":34962
		},
		{
			"buffer":0,
			"byteLength":204,
			"byteOffset":2268,
			"target":34962
		},
		{
			"buffer":0,
			"byteLength":136,
			"byteOffset":2472,
			"target":34962
		},
		{
			"buffer":0,
			"byteLength":136,
			"byteOffset":2608,
			"target":34962
		},
		{
			"buffer":0,
			"byteLength":42,
			"byteOffset":2744,
			"target":34963
		},
		{
			"buffer":0,
			"byteLength":204,
			"byteOffset":2788,
			"target":34962
		},
		{
			"buffer":0,
			"byteLength":204,
			"byteOffset":2992,
			"target":34962
		},
		{
			"buffer":0,
			"byteLength":136,
			"byteOffset":3196,
			"target":34962
		},
		{
			"buffer":0,
			"byteLength":136,
			"byteOffset":3332,
			"target":34962
		},
		{
			"buffer":0,
			"byteLength":42,
			"byteOffset":3468,
			"target":34963
		},
		{
			"buffer":0,
			"byteLength":96,
			"byteOffset":3512,
			"target":34962
		},
		{
			"buffer":0,
			"byteLength":96,
			"byteOffset":3608,
			"target":34962
		},
		{
			"buffer":0,
			"byteLength":64,
			"byteOffset":3704,
			"target":34962
		},
		{
			"buffer":0,
			"byteLength":64,
			"byteOffset":3768,
			"target":34962
		},
		{
			"buffer":0,
			"byteLength":24,
			"byteOffset":3832,
			"target":34963
		},
		{
			"buffer":0,
			"byteLength":96,
			"byteOffset":3856,
			"target":34962
		},
		{
			"buffer":0,
			"byteLength":96,
			"byteOffset":3952,
			"target":34962
		},
		{
			"buffer":0,
			"byteLength":64,
			"byteOffset":4048,
			"target":34962
		},
		{
			"buffer":0,
			"byteLength":64,
			"byteOffset":4112,
			"target":34962
		},
		{
			"buffer":0,
			"byteLength":24,
			"byteOffset":4176,
			"target":34963
		},
		{
			"buffer":0,
			"byteLength":144,
			"byteOffset":4200,
			"target":34962
		},
		{
			"buffer":0,
			"byteLength":144,
			"byteOffset":4344,
			"target":34962
		},
		{
			"buffer":0,
			"byteLength":96,
			"byteOffset":4488,
			"target":34962
		},
		{
			"buffer":0,
			"byteLength":96,
			"byteOffset":4584,
			"target":34962
		},
		{
			"buffer":0,
			"byteLength":36,
			"byteOffset":4680,
			"target":34963
		},
		{
			"buffer":0,
			"byteLength":708,
			"byteOffset":4716,
			"target":34962
		},
		{
			"buffer":0,
			"byteLength":708,
			"byteOffset":5424,
			"target":34962
		},
		{
			"buffer":0,
			"byteLength":472,
			"byteOffset":6132,
			"target":34962
		},
		{
			"buffer":0,
			"byteLength":472,
			"byteOffset":6604,
			"target":34962
		},
		{
			"buffer":0,
			"byteLength":216,
			"byteOffset":7076,
			"target":34963
		},
		{
			"buffer":0,
			"byteLength":72,
			"byteOffset":7292,
			"target":34962
		},
		{
			"buffer":0,
			"byteLength":72,
			"byteOffset":7364,
			"target":34962
		},
		{
			"buffer":0,
			"byteLength":48,
			"byteOffset":7436,
			"target":34962
		},
		{
			"buffer":0,
			"byteLength":48,
			"byteOffset":7484,
			"target":34962
		},
		{
			"buffer":0,
			"byteLength":24,
			"byteOffset":7532,
			"target":34963
		},
		{
			"buffer":0,
			"byteLength":48,
			"byteOffset":7556,
			"target":34962
		},
		{
			"buffer":0,
			"byteLength":48,
			"byteOffset":7604,
			"target":34962
		},
		{
			"buffer":0,
			"byteLength":32,
			"byteOffset":7652,
			"target":34962
		},
		{
			"buffer":0,
			"byteLength":12,
			"byteOffset":7684,
			"target":34963
		}
	],
	"samplers":[
		{
			"magFilter":9729,
			"minFilter":9987
		}
	],
	"buffers":[
		{
			"byteLength":7696,
			"uri":"small_5.bin"
		}
	]
}
