{
	"asset":{
		"generator":"Khronos glTF Blender I/O v4.3.47",
		"version":"2.0"
	},
	"scene":0,
	"scenes":[
		{
			"name":"Scene",
			"nodes":[
				0,
				1
			]
		}
	],
	"nodes":[
		{
			"mesh":0,
			"name":"Maxis-3d2-mesh-7.001",
			"rotation":[
				0.70710688829422,
				0,
				0,
				0.7071066498756409
			]
		},
		{
			"extras":{
				"gd_node":"Decal",
				"lower_fade":9,
				"upper_fade":10
			},
			"mesh":1,
			"name":"Ground_AO",
			"scale":[
				28.000572204589844,
				1,
				30.901382446289062
			],
			"translation":[
				-0.9997138977050781,
				-5.884009169676574e-06,
				0.45069217681884766
			]
		}
	],
	"materials":[
		{
			"name":"matcolour-48.008",
			"occlusionTexture":{
				"index":0,
				"texCoord":1
			},
			"pbrMetallicRoughness":{
				"baseColorFactor":[
					0.05882352963089943,
					0.05882352963089943,
					0.05882352963089943,
					1
				],
				"metallicFactor":0
			}
		},
		{
			"name":"mat39-15.001",
			"occlusionTexture":{
				"index":1,
				"texCoord":1
			},
			"pbrMetallicRoughness":{
				"baseColorTexture":{
					"index":2
				},
				"metallicFactor":0
			}
		},
		{
			"name":"mat39-12.001",
			"occlusionTexture":{
				"index":3,
				"texCoord":1
			},
			"pbrMetallicRoughness":{
				"baseColorTexture":{
					"index":4
				},
				"metallicFactor":0
			}
		},
		{
			"name":"mat39-14.001",
			"occlusionTexture":{
				"index":5,
				"texCoord":1
			},
			"pbrMetallicRoughness":{
				"baseColorTexture":{
					"index":6
				},
				"metallicFactor":0
			}
		},
		{
			"name":"mat40-54.007",
			"occlusionTexture":{
				"index":7,
				"texCoord":1
			},
			"pbrMetallicRoughness":{
				"baseColorTexture":{
					"index":8
				},
				"metallicFactor":0
			}
		},
		{
			"name":"mat39-13.001",
			"occlusionTexture":{
				"index":9,
				"texCoord":1
			},
			"pbrMetallicRoughness":{
				"baseColorTexture":{
					"index":10
				},
				"metallicFactor":0
			}
		},
		{
			"name":"mat40-53.007",
			"occlusionTexture":{
				"index":11,
				"texCoord":1
			},
			"pbrMetallicRoughness":{
				"baseColorTexture":{
					"index":12
				},
				"metallicFactor":0
			}
		},
		{
			"name":"mat40-52.006",
			"occlusionTexture":{
				"index":13,
				"texCoord":1
			},
			"pbrMetallicRoughness":{
				"baseColorTexture":{
					"index":14
				},
				"metallicFactor":0
			}
		},
		{
			"name":"mat40-55.004",
			"occlusionTexture":{
				"index":15,
				"texCoord":1
			},
			"pbrMetallicRoughness":{
				"baseColorTexture":{
					"index":16
				},
				"metallicFactor":0
			}
		},
		{
			"name":"Ground_AO",
			"occlusionTexture":{
				"index":17
			},
			"pbrMetallicRoughness":{
				"baseColorFactor":[
					0.800000011920929,
					0.800000011920929,
					0.800000011920929,
					1
				],
				"metallicFactor":0,
				"roughnessFactor":0.5
			}
		}
	],
	"meshes":[
		{
			"name":"Maxis-3d2-mesh-7.001",
			"primitives":[
				{
					"attributes":{
						"POSITION":0,
						"NORMAL":1,
						"TEXCOORD_0":2,
						"TEXCOORD_1":3
					},
					"indices":4,
					"material":0
				},
				{
					"attributes":{
						"POSITION":5,
						"NORMAL":6,
						"TEXCOORD_0":7,
						"TEXCOORD_1":8
					},
					"indices":9,
					"material":1
				},
				{
					"attributes":{
						"POSITION":10,
						"NORMAL":11,
						"TEXCOORD_0":12,
						"TEXCOORD_1":13
					},
					"indices":14,
					"material":2
				},
				{
					"attributes":{
						"POSITION":15,
						"NORMAL":16,
						"TEXCOORD_0":17,
						"TEXCOORD_1":18
					},
					"indices":19,
					"material":3
				},
				{
					"attributes":{
						"POSITION":20,
						"NORMAL":21,
						"TEXCOORD_0":22,
						"TEXCOORD_1":23
					},
					"indices":24,
					"material":4
				},
				{
					"attributes":{
						"POSITION":25,
						"NORMAL":26,
						"TEXCOORD_0":27,
						"TEXCOORD_1":28
					},
					"indices":29,
					"material":5
				},
				{
					"attributes":{
						"POSITION":30,
						"NORMAL":31,
						"TEXCOORD_0":32,
						"TEXCOORD_1":33
					},
					"indices":34,
					"material":6
				},
				{
					"attributes":{
						"POSITION":35,
						"NORMAL":36,
						"TEXCOORD_0":37,
						"TEXCOORD_1":38
					},
					"indices":39,
					"material":7
				},
				{
					"attributes":{
						"POSITION":40,
						"NORMAL":41,
						"TEXCOORD_0":42,
						"TEXCOORD_1":43
					},
					"indices":44,
					"material":8
				}
			]
		},
		{
			"name":"Plane",
			"primitives":[
				{
					"attributes":{
						"POSITION":45,
						"NORMAL":46,
						"TEXCOORD_0":47
					},
					"indices":48,
					"material":9
				}
			]
		}
	],
	"textures":[
		{
			"sampler":0,
			"source":0
		},
		{
			"sampler":0,
			"source":0
		},
		{
			"sampler":0,
			"source":1
		},
		{
			"sampler":0,
			"source":0
		},
		{
			"sampler":0,
			"source":2
		},
		{
			"sampler":0,
			"source":0
		},
		{
			"sampler":0,
			"source":3
		},
		{
			"sampler":0,
			"source":0
		},
		{
			"sampler":0,
			"source":4
		},
		{
			"sampler":0,
			"source":0
		},
		{
			"sampler":0,
			"source":5
		},
		{
			"sampler":0,
			"source":0
		},
		{
			"sampler":0,
			"source":6
		},
		{
			"sampler":0,
			"source":0
		},
		{
			"sampler":0,
			"source":7
		},
		{
			"sampler":0,
			"source":0
		},
		{
			"sampler":0,
			"source":8
		},
		{
			"sampler":0,
			"source":9
		}
	],
	"images":[
		{
			"mimeType":"image/png",
			"name":"small_3.png",
			"uri":"../../../Textures/ambient_occlusion/Buildings/Factory/small_3.png"
		},
		{
			"mimeType":"image/png",
			"name":"tex39-15",
			"uri":"../../../Textures/tex39-15.png"
		},
		{
			"mimeType":"image/png",
			"name":"tex39-12",
			"uri":"../../../Textures/tex39-12.png"
		},
		{
			"mimeType":"image/png",
			"name":"tex39-14",
			"uri":"../../../Textures/tex39-14.png"
		},
		{
			"mimeType":"image/png",
			"name":"tex40-54",
			"uri":"../../../Textures/tex40-54.png"
		},
		{
			"mimeType":"image/png",
			"name":"tex39-13",
			"uri":"../../../Textures/tex39-13.png"
		},
		{
			"mimeType":"image/png",
			"name":"tex40-53",
			"uri":"../../../Textures/tex40-53.png"
		},
		{
			"mimeType":"image/png",
			"name":"tex40-52",
			"uri":"../../../Textures/tex40-52.png"
		},
		{
			"mimeType":"image/png",
			"name":"tex40-55",
			"uri":"../../../Textures/tex40-55.png"
		},
		{
			"mimeType":"image/png",
			"name":"small_3_ground.png",
			"uri":"../../../Textures/ambient_occlusion/Buildings/Factory/small_3_ground.png"
		}
	],
	"accessors":[
		{
			"bufferView":0,
			"componentType":5126,
			"count":55,
			"max":[
				12.500572204589844,
				15.401374816894531,
				-6.494804382324219
			],
			"min":[
				-14.5,
				-14.5,
				-13.000003814697266
			],
			"type":"VEC3"
		},
		{
			"bufferView":1,
			"componentType":5126,
			"count":55,
			"type":"VEC3"
		},
		{
			"bufferView":2,
			"componentType":5126,
			"count":55,
			"type":"VEC2"
		},
		{
			"bufferView":3,
			"componentType":5126,
			"count":55,
			"type":"VEC2"
		},
		{
			"bufferView":4,
			"componentType":5123,
			"count":114,
			"type":"SCALAR"
		},
		{
			"bufferView":5,
			"componentType":5126,
			"count":8,
			"max":[
				12.500568389892578,
				15.401382446289062,
				0
			],
			"min":[
				-14.5,
				-9.500003814697266,
				-6.500003814697266
			],
			"type":"VEC3"
		},
		{
			"bufferView":6,
			"componentType":5126,
			"count":8,
			"type":"VEC3"
		},
		{
			"bufferView":7,
			"componentType":5126,
			"count":8,
			"type":"VEC2"
		},
		{
			"bufferView":8,
			"componentType":5126,
			"count":8,
			"type":"VEC2"
		},
		{
			"bufferView":9,
			"componentType":5123,
			"count":12,
			"type":"SCALAR"
		},
		{
			"bufferView":10,
			"componentType":5126,
			"count":8,
			"max":[
				12.500572204589844,
				-6.098621368408203,
				3.814697265625e-06
			],
			"min":[
				-14.5,
				-14.5,
				-6.499996185302734
			],
			"type":"VEC3"
		},
		{
			"bufferView":11,
			"componentType":5126,
			"count":8,
			"type":"VEC3"
		},
		{
			"bufferView":12,
			"componentType":5126,
			"count":8,
			"type":"VEC2"
		},
		{
			"bufferView":13,
			"componentType":5126,
			"count":8,
			"type":"VEC2"
		},
		{
			"bufferView":14,
			"componentType":5123,
			"count":12,
			"type":"SCALAR"
		},
		{
			"bufferView":15,
			"componentType":5126,
			"count":8,
			"max":[
				12.500572204589844,
				15.401382446289062,
				3.814697265625e-06
			],
			"min":[
				-4.5,
				-14.5,
				-6.500003814697266
			],
			"type":"VEC3"
		},
		{
			"bufferView":16,
			"componentType":5126,
			"count":8,
			"type":"VEC3"
		},
		{
			"bufferView":17,
			"componentType":5126,
			"count":8,
			"type":"VEC2"
		},
		{
			"bufferView":18,
			"componentType":5126,
			"count":8,
			"type":"VEC2"
		},
		{
			"bufferView":19,
			"componentType":5123,
			"count":12,
			"type":"SCALAR"
		},
		{
			"bufferView":20,
			"componentType":5126,
			"count":19,
			"max":[
				12.500572204589844,
				15.401374816894531,
				-6.499996185302734
			],
			"min":[
				-5.375995635986328,
				-6.098625183105469,
				-13.000003814697266
			],
			"type":"VEC3"
		},
		{
			"bufferView":21,
			"componentType":5126,
			"count":19,
			"type":"VEC3"
		},
		{
			"bufferView":22,
			"componentType":5126,
			"count":19,
			"type":"VEC2"
		},
		{
			"bufferView":23,
			"componentType":5126,
			"count":19,
			"type":"VEC2"
		},
		{
			"bufferView":24,
			"componentType":5123,
			"count":27,
			"type":"SCALAR"
		},
		{
			"bufferView":25,
			"componentType":5126,
			"count":10,
			"max":[
				-12.499427795410156,
				15.401378631591797,
				3.814697265625e-06
			],
			"min":[
				-14.5,
				-14.5,
				-6.500003814697266
			],
			"type":"VEC3"
		},
		{
			"bufferView":26,
			"componentType":5126,
			"count":10,
			"type":"VEC3"
		},
		{
			"bufferView":27,
			"componentType":5126,
			"count":10,
			"type":"VEC2"
		},
		{
			"bufferView":28,
			"componentType":5126,
			"count":10,
			"type":"VEC2"
		},
		{
			"bufferView":29,
			"componentType":5123,
			"count":12,
			"type":"SCALAR"
		},
		{
			"bufferView":30,
			"componentType":5126,
			"count":19,
			"max":[
				5.725185394287109,
				15.401371002197266,
				-6.499996185302734
			],
			"min":[
				-12.499427795410156,
				-6.098628997802734,
				-13.000003814697266
			],
			"type":"VEC3"
		},
		{
			"bufferView":31,
			"componentType":5126,
			"count":19,
			"type":"VEC3"
		},
		{
			"bufferView":32,
			"componentType":5126,
			"count":19,
			"type":"VEC2"
		},
		{
			"bufferView":33,
			"componentType":5126,
			"count":19,
			"type":"VEC2"
		},
		{
			"bufferView":34,
			"componentType":5123,
			"count":27,
			"type":"SCALAR"
		},
		{
			"bufferView":35,
			"componentType":5126,
			"count":16,
			"max":[
				6.713310241699219,
				13.830390930175781,
				-8.27676773071289
			],
			"min":[
				-6.3641204833984375,
				13.62460708618164,
				-11.35806655883789
			],
			"type":"VEC3"
		},
		{
			"bufferView":36,
			"componentType":5126,
			"count":16,
			"type":"VEC3"
		},
		{
			"bufferView":37,
			"componentType":5126,
			"count":16,
			"type":"VEC2"
		},
		{
			"bufferView":38,
			"componentType":5126,
			"count":16,
			"type":"VEC2"
		},
		{
			"bufferView":39,
			"componentType":5123,
			"count":24,
			"type":"SCALAR"
		},
		{
			"bufferView":40,
			"componentType":5126,
			"count":16,
			"max":[
				6.800384521484375,
				14.79806900024414,
				-7.103309631347656
			],
			"min":[
				-6.451194763183594,
				14.513923645019531,
				-11.35806655883789
			],
			"type":"VEC3"
		},
		{
			"bufferView":41,
			"componentType":5126,
			"count":16,
			"type":"VEC3"
		},
		{
			"bufferView":42,
			"componentType":5126,
			"count":16,
			"type":"VEC2"
		},
		{
			"bufferView":43,
			"componentType":5126,
			"count":16,
			"type":"VEC2"
		},
		{
			"bufferView":44,
			"componentType":5123,
			"count":24,
			"type":"SCALAR"
		},
		{
			"bufferView":45,
			"componentType":5126,
			"count":4,
			"max":[
				0.5,
				0,
				0.5
			],
			"min":[
				-0.5,
				0,
				-0.5
			],
			"type":"VEC3"
		},
		{
			"bufferView":46,
			"componentType":5126,
			"count":4,
			"type":"VEC3"
		},
		{
			"bufferView":47,
			"componentType":5126,
			"count":4,
			"type":"VEC2"
		},
		{
			"bufferView":48,
			"componentType":5123,
			"count":6,
			"type":"SCALAR"
		}
	],
	"bufferViews":[
		{
			"buffer":0,
			"byteLength":660,
			"byteOffset":0,
			"target":34962
		},
		{
			"buffer":0,
			"byteLength":660,
			"byteOffset":660,
			"target":34962
		},
		{
			"buffer":0,
			"byteLength":440,
			"byteOffset":1320,
			"target":34962
		},
		{
			"buffer":0,
			"byteLength":440,
			"byteOffset":1760,
			"target":34962
		},
		{
			"buffer":0,
			"byteLength":228,
			"byteOffset":2200,
			"target":34963
		},
		{
			"buffer":0,
			"byteLength":96,
			"byteOffset":2428,
			"target":34962
		},
		{
			"buffer":0,
			"byteLength":96,
			"byteOffset":2524,
			"target":34962
		},
		{
			"buffer":0,
			"byteLength":64,
			"byteOffset":2620,
			"target":34962
		},
		{
			"buffer":0,
			"byteLength":64,
			"byteOffset":2684,
			"target":34962
		},
		{
			"buffer":0,
			"byteLength":24,
			"byteOffset":2748,
			"target":34963
		},
		{
			"buffer":0,
			"byteLength":96,
			"byteOffset":2772,
			"target":34962
		},
		{
			"buffer":0,
			"byteLength":96,
			"byteOffset":2868,
			"target":34962
		},
		{
			"buffer":0,
			"byteLength":64,
			"byteOffset":2964,
			"target":34962
		},
		{
			"buffer":0,
			"byteLength":64,
			"byteOffset":3028,
			"target":34962
		},
		{
			"buffer":0,
			"byteLength":24,
			"byteOffset":3092,
			"target":34963
		},
		{
			"buffer":0,
			"byteLength":96,
			"byteOffset":3116,
			"target":34962
		},
		{
			"buffer":0,
			"byteLength":96,
			"byteOffset":3212,
			"target":34962
		},
		{
			"buffer":0,
			"byteLength":64,
			"byteOffset":3308,
			"target":34962
		},
		{
			"buffer":0,
			"byteLength":64,
			"byteOffset":3372,
			"target":34962
		},
		{
			"buffer":0,
			"byteLength":24,
			"byteOffset":3436,
			"target":34963
		},
		{
			"buffer":0,
			"byteLength":228,
			"byteOffset":3460,
			"target":34962
		},
		{
			"buffer":0,
			"byteLength":228,
			"byteOffset":3688,
			"target":34962
		},
		{
			"buffer":0,
			"byteLength":152,
			"byteOffset":3916,
			"target":34962
		},
		{
			"buffer":0,
			"byteLength":152,
			"byteOffset":4068,
			"target":34962
		},
		{
			"buffer":0,
			"byteLength":54,
			"byteOffset":4220,
			"target":34963
		},
		{
			"buffer":0,
			"byteLength":120,
			"byteOffset":4276,
			"target":34962
		},
		{
			"buffer":0,
			"byteLength":120,
			"byteOffset":4396,
			"target":34962
		},
		{
			"buffer":0,
			"byteLength":80,
			"byteOffset":4516,
			"target":34962
		},
		{
			"buffer":0,
			"byteLength":80,
			"byteOffset":4596,
			"target":34962
		},
		{
			"buffer":0,
			"byteLength":24,
			"byteOffset":4676,
			"target":34963
		},
		{
			"buffer":0,
			"byteLength":228,
			"byteOffset":4700,
			"target":34962
		},
		{
			"buffer":0,
			"byteLength":228,
			"byteOffset":4928,
			"target":34962
		},
		{
			"buffer":0,
			"byteLength":152,
			"byteOffset":5156,
			"target":34962
		},
		{
			"buffer":0,
			"byteLength":152,
			"byteOffset":5308,
			"target":34962
		},
		{
			"buffer":0,
			"byteLength":54,
			"byteOffset":5460,
			"target":34963
		},
		{
			"buffer":0,
			"byteLength":192,
			"byteOffset":5516,
			"target":34962
		},
		{
			"buffer":0,
			"byteLength":192,
			"byteOffset":5708,
			"target":34962
		},
		{
			"buffer":0,
			"byteLength":128,
			"byteOffset":5900,
			"target":34962
		},
		{
			"buffer":0,
			"byteLength":128,
			"byteOffset":6028,
			"target":34962
		},
		{
			"buffer":0,
			"byteLength":48,
			"byteOffset":6156,
			"target":34963
		},
		{
			"buffer":0,
			"byteLength":192,
			"byteOffset":6204,
			"target":34962
		},
		{
			"buffer":0,
			"byteLength":192,
			"byteOffset":6396,
			"target":34962
		},
		{
			"buffer":0,
			"byteLength":128,
			"byteOffset":6588,
			"target":34962
		},
		{
			"buffer":0,
			"byteLength":128,
			"byteOffset":6716,
			"target":34962
		},
		{
			"buffer":0,
			"byteLength":48,
			"byteOffset":6844,
			"target":34963
		},
		{
			"buffer":0,
			"byteLength":48,
			"byteOffset":6892,
			"target":34962
		},
		{
			"buffer":0,
			"byteLength":48,
			"byteOffset":6940,
			"target":34962
		},
		{
			"buffer":0,
			"byteLength":32,
			"byteOffset":6988,
			"target":34962
		},
		{
			"buffer":0,
			"byteLength":12,
			"byteOffset":7020,
			"target":34963
		}
	],
	"samplers":[
		{
			"magFilter":9729,
			"minFilter":9987
		}
	],
	"buffers":[
		{
			"byteLength":7032,
			"uri":"small_3.bin"
		}
	]
}
