{
	"asset":{
		"generator":"Khronos glTF Blender I/O v4.3.47",
		"version":"2.0"
	},
	"scene":0,
	"scenes":[
		{
			"name":"Scene",
			"nodes":[
				0,
				1
			]
		}
	],
	"nodes":[
		{
			"mesh":0,
			"name":"Maxis-3d2-mesh-5",
			"rotation":[
				0.70710688829422,
				0,
				0,
				0.7071066498756409
			]
		},
		{
			"extras":{
				"gd_node":"Decal",
				"lower_fade":9,
				"upper_fade":10
			},
			"mesh":1,
			"name":"Ground_AO",
			"scale":[
				30.754390716552734,
				1,
				22.19070816040039
			],
			"translation":[
				0.6672954559326172,
				-5.250099547993159e-06,
				0.0879969596862793
			]
		}
	],
	"materials":[
		{
			"name":"matcolour-48.002",
			"occlusionTexture":{
				"index":0,
				"texCoord":1
			},
			"pbrMetallicRoughness":{
				"baseColorFactor":[
					0.05882352963089943,
					0.05882352963089943,
					0.05882352963089943,
					1
				],
				"metallicFactor":0
			}
		},
		{
			"name":"mat40-62",
			"occlusionTexture":{
				"index":1,
				"texCoord":1
			},
			"pbrMetallicRoughness":{
				"baseColorTexture":{
					"index":2
				},
				"metallicFactor":0
			}
		},
		{
			"name":"mat39-27",
			"occlusionTexture":{
				"index":3,
				"texCoord":1
			},
			"pbrMetallicRoughness":{
				"baseColorTexture":{
					"index":4
				},
				"metallicFactor":0
			}
		},
		{
			"name":"mat39-24",
			"occlusionTexture":{
				"index":5,
				"texCoord":1
			},
			"pbrMetallicRoughness":{
				"baseColorTexture":{
					"index":6
				},
				"metallicFactor":0
			}
		},
		{
			"name":"mat39-0",
			"occlusionTexture":{
				"index":7,
				"texCoord":1
			},
			"pbrMetallicRoughness":{
				"baseColorTexture":{
					"index":8
				},
				"metallicFactor":0
			}
		},
		{
			"name":"mat39-2",
			"occlusionTexture":{
				"index":9,
				"texCoord":1
			},
			"pbrMetallicRoughness":{
				"baseColorTexture":{
					"index":10
				},
				"metallicFactor":0
			}
		},
		{
			"name":"mat39-1",
			"occlusionTexture":{
				"index":11,
				"texCoord":1
			},
			"pbrMetallicRoughness":{
				"baseColorTexture":{
					"index":12
				},
				"metallicFactor":0
			}
		},
		{
			"name":"mat39-26",
			"occlusionTexture":{
				"index":13,
				"texCoord":1
			},
			"pbrMetallicRoughness":{
				"baseColorTexture":{
					"index":14
				},
				"metallicFactor":0
			}
		},
		{
			"name":"mat39-25",
			"occlusionTexture":{
				"index":15,
				"texCoord":1
			},
			"pbrMetallicRoughness":{
				"baseColorTexture":{
					"index":16
				},
				"metallicFactor":0
			}
		},
		{
			"name":"mat39-3",
			"occlusionTexture":{
				"index":17,
				"texCoord":1
			},
			"pbrMetallicRoughness":{
				"baseColorTexture":{
					"index":18
				},
				"metallicFactor":0
			}
		},
		{
			"name":"mat39-63",
			"occlusionTexture":{
				"index":19,
				"texCoord":1
			},
			"pbrMetallicRoughness":{
				"baseColorTexture":{
					"index":20
				},
				"metallicFactor":0
			}
		},
		{
			"name":"mat39-60",
			"occlusionTexture":{
				"index":21,
				"texCoord":1
			},
			"pbrMetallicRoughness":{
				"baseColorTexture":{
					"index":22
				},
				"metallicFactor":0
			}
		},
		{
			"name":"mat39-61",
			"occlusionTexture":{
				"index":23,
				"texCoord":1
			},
			"pbrMetallicRoughness":{
				"baseColorTexture":{
					"index":24
				},
				"metallicFactor":0
			}
		},
		{
			"name":"mat39-62",
			"occlusionTexture":{
				"index":25,
				"texCoord":1
			},
			"pbrMetallicRoughness":{
				"baseColorTexture":{
					"index":26
				},
				"metallicFactor":0
			}
		},
		{
			"name":"Ground_AO",
			"occlusionTexture":{
				"index":27
			},
			"pbrMetallicRoughness":{
				"baseColorFactor":[
					0.800000011920929,
					0.800000011920929,
					0.800000011920929,
					1
				],
				"metallicFactor":0,
				"roughnessFactor":0.5
			}
		}
	],
	"meshes":[
		{
			"name":"Maxis-3d2-mesh-5",
			"primitives":[
				{
					"attributes":{
						"POSITION":0,
						"NORMAL":1,
						"TEXCOORD_0":2,
						"TEXCOORD_1":3
					},
					"indices":4,
					"material":0
				},
				{
					"attributes":{
						"POSITION":5,
						"NORMAL":6,
						"TEXCOORD_0":7,
						"TEXCOORD_1":8
					},
					"indices":9,
					"material":1
				},
				{
					"attributes":{
						"POSITION":10,
						"NORMAL":11,
						"TEXCOORD_0":12,
						"TEXCOORD_1":13
					},
					"indices":14,
					"material":2
				},
				{
					"attributes":{
						"POSITION":15,
						"NORMAL":16,
						"TEXCOORD_0":17,
						"TEXCOORD_1":18
					},
					"indices":14,
					"material":3
				},
				{
					"attributes":{
						"POSITION":19,
						"NORMAL":20,
						"TEXCOORD_0":21,
						"TEXCOORD_1":22
					},
					"indices":23,
					"material":4
				},
				{
					"attributes":{
						"POSITION":24,
						"NORMAL":25,
						"TEXCOORD_0":26,
						"TEXCOORD_1":27
					},
					"indices":28,
					"material":5
				},
				{
					"attributes":{
						"POSITION":29,
						"NORMAL":30,
						"TEXCOORD_0":31,
						"TEXCOORD_1":32
					},
					"indices":33,
					"material":6
				},
				{
					"attributes":{
						"POSITION":34,
						"NORMAL":35,
						"TEXCOORD_0":36,
						"TEXCOORD_1":37
					},
					"indices":38,
					"material":7
				},
				{
					"attributes":{
						"POSITION":39,
						"NORMAL":40,
						"TEXCOORD_0":41,
						"TEXCOORD_1":42
					},
					"indices":43,
					"material":8
				},
				{
					"attributes":{
						"POSITION":44,
						"NORMAL":45,
						"TEXCOORD_0":46,
						"TEXCOORD_1":47
					},
					"indices":48,
					"material":9
				},
				{
					"attributes":{
						"POSITION":49,
						"NORMAL":50,
						"TEXCOORD_0":51,
						"TEXCOORD_1":52
					},
					"indices":53,
					"material":10
				},
				{
					"attributes":{
						"POSITION":54,
						"NORMAL":55,
						"TEXCOORD_0":56,
						"TEXCOORD_1":57
					},
					"indices":58,
					"material":11
				},
				{
					"attributes":{
						"POSITION":59,
						"NORMAL":60,
						"TEXCOORD_0":61,
						"TEXCOORD_1":62
					},
					"indices":63,
					"material":12
				},
				{
					"attributes":{
						"POSITION":64,
						"NORMAL":65,
						"TEXCOORD_0":66,
						"TEXCOORD_1":67
					},
					"indices":68,
					"material":13
				}
			]
		},
		{
			"name":"Plane",
			"primitives":[
				{
					"attributes":{
						"POSITION":69,
						"NORMAL":70,
						"TEXCOORD_0":71
					},
					"indices":72,
					"material":14
				}
			]
		}
	],
	"textures":[
		{
			"sampler":0,
			"source":0
		},
		{
			"sampler":0,
			"source":0
		},
		{
			"sampler":0,
			"source":1
		},
		{
			"sampler":0,
			"source":0
		},
		{
			"sampler":0,
			"source":2
		},
		{
			"sampler":0,
			"source":0
		},
		{
			"sampler":0,
			"source":3
		},
		{
			"sampler":0,
			"source":0
		},
		{
			"sampler":0,
			"source":4
		},
		{
			"sampler":0,
			"source":0
		},
		{
			"sampler":0,
			"source":5
		},
		{
			"sampler":0,
			"source":0
		},
		{
			"sampler":0,
			"source":6
		},
		{
			"sampler":0,
			"source":0
		},
		{
			"sampler":0,
			"source":7
		},
		{
			"sampler":0,
			"source":0
		},
		{
			"sampler":0,
			"source":8
		},
		{
			"sampler":0,
			"source":0
		},
		{
			"sampler":0,
			"source":9
		},
		{
			"sampler":0,
			"source":0
		},
		{
			"sampler":0,
			"source":10
		},
		{
			"sampler":0,
			"source":0
		},
		{
			"sampler":0,
			"source":11
		},
		{
			"sampler":0,
			"source":0
		},
		{
			"sampler":0,
			"source":12
		},
		{
			"sampler":0,
			"source":0
		},
		{
			"sampler":0,
			"source":13
		},
		{
			"sampler":0,
			"source":14
		}
	],
	"images":[
		{
			"mimeType":"image/png",
			"name":"small_1.png",
			"uri":"../../../Textures/ambient_occlusion/Buildings/Factory/small_1.png"
		},
		{
			"mimeType":"image/png",
			"name":"tex40-62",
			"uri":"../../../Textures/tex40-62.png"
		},
		{
			"mimeType":"image/png",
			"name":"tex39-27",
			"uri":"../../../Textures/tex39-27.png"
		},
		{
			"mimeType":"image/png",
			"name":"tex39-24",
			"uri":"../../../Textures/tex39-24.png"
		},
		{
			"mimeType":"image/png",
			"name":"tex39-0",
			"uri":"../../../Textures/tex39-0.png"
		},
		{
			"mimeType":"image/png",
			"name":"tex39-2",
			"uri":"../../../Textures/tex39-2.png"
		},
		{
			"mimeType":"image/png",
			"name":"tex39-1",
			"uri":"../../../Textures/tex39-1.png"
		},
		{
			"mimeType":"image/png",
			"name":"tex39-26",
			"uri":"../../../Textures/tex39-26.png"
		},
		{
			"mimeType":"image/png",
			"name":"tex39-25",
			"uri":"../../../Textures/tex39-25.png"
		},
		{
			"mimeType":"image/png",
			"name":"tex39-3",
			"uri":"../../../Textures/tex39-3.png"
		},
		{
			"mimeType":"image/png",
			"name":"tex39-63",
			"uri":"../../../Textures/tex39-63.png"
		},
		{
			"mimeType":"image/png",
			"name":"tex39-60",
			"uri":"../../../Textures/tex39-60.png"
		},
		{
			"mimeType":"image/png",
			"name":"tex39-61",
			"uri":"../../../Textures/tex39-61.png"
		},
		{
			"mimeType":"image/png",
			"name":"tex39-62",
			"uri":"../../../Textures/tex39-62.png"
		},
		{
			"mimeType":"image/png",
			"name":"small_1_ground.png",
			"uri":"../../../Textures/ambient_occlusion/Buildings/Factory/small_1_ground.png"
		}
	],
	"accessors":[
		{
			"bufferView":0,
			"componentType":5126,
			"count":59,
			"max":[
				15.544490814208984,
				10.683345794677734,
				-5.340911865234375
			],
			"min":[
				-14.20989990234375,
				-10.50735855102539,
				-10.626571655273438
			],
			"type":"VEC3"
		},
		{
			"bufferView":1,
			"componentType":5126,
			"count":59,
			"type":"VEC3"
		},
		{
			"bufferView":2,
			"componentType":5126,
			"count":59,
			"type":"VEC2"
		},
		{
			"bufferView":3,
			"componentType":5126,
			"count":59,
			"type":"VEC2"
		},
		{
			"bufferView":4,
			"componentType":5123,
			"count":150,
			"type":"SCALAR"
		},
		{
			"bufferView":5,
			"componentType":5126,
			"count":12,
			"max":[
				-4.468631744384766,
				3.5217247009277344,
				-20.27084732055664
			],
			"min":[
				-5.354671478271484,
				-6.396892547607422,
				-20.27084732055664
			],
			"type":"VEC3"
		},
		{
			"bufferView":6,
			"componentType":5126,
			"count":12,
			"type":"VEC3"
		},
		{
			"bufferView":7,
			"componentType":5126,
			"count":12,
			"type":"VEC2"
		},
		{
			"bufferView":8,
			"componentType":5126,
			"count":12,
			"type":"VEC2"
		},
		{
			"bufferView":9,
			"componentType":5123,
			"count":18,
			"type":"SCALAR"
		},
		{
			"bufferView":10,
			"componentType":5126,
			"count":4,
			"max":[
				15.544490814208984,
				10.683349609375,
				-3.814697265625e-06
			],
			"min":[
				-14.20989990234375,
				10.683345794677734,
				-5.340923309326172
			],
			"type":"VEC3"
		},
		{
			"bufferView":11,
			"componentType":5126,
			"count":4,
			"type":"VEC3"
		},
		{
			"bufferView":12,
			"componentType":5126,
			"count":4,
			"type":"VEC2"
		},
		{
			"bufferView":13,
			"componentType":5126,
			"count":4,
			"type":"VEC2"
		},
		{
			"bufferView":14,
			"componentType":5123,
			"count":6,
			"type":"SCALAR"
		},
		{
			"bufferView":15,
			"componentType":5126,
			"count":4,
			"max":[
				15.544490814208984,
				-10.507354736328125,
				3.814697265625e-06
			],
			"min":[
				-14.20989990234375,
				-10.50735855102539,
				-5.340911865234375
			],
			"type":"VEC3"
		},
		{
			"bufferView":16,
			"componentType":5126,
			"count":4,
			"type":"VEC3"
		},
		{
			"bufferView":17,
			"componentType":5126,
			"count":4,
			"type":"VEC2"
		},
		{
			"bufferView":18,
			"componentType":5126,
			"count":4,
			"type":"VEC2"
		},
		{
			"bufferView":19,
			"componentType":5126,
			"count":4,
			"max":[
				-1.9893455505371094,
				-8.876178741455078,
				-5.340915679931641
			],
			"min":[
				-12.084587097167969,
				-8.876178741455078,
				-10.626564025878906
			],
			"type":"VEC3"
		},
		{
			"bufferView":20,
			"componentType":5126,
			"count":4,
			"type":"VEC3"
		},
		{
			"bufferView":21,
			"componentType":5126,
			"count":4,
			"type":"VEC2"
		},
		{
			"bufferView":22,
			"componentType":5126,
			"count":4,
			"type":"VEC2"
		},
		{
			"bufferView":23,
			"componentType":5123,
			"count":6,
			"type":"SCALAR"
		},
		{
			"bufferView":24,
			"componentType":5126,
			"count":4,
			"max":[
				-1.9893455505371094,
				6.001014709472656,
				-5.340915679931641
			],
			"min":[
				-1.9893455505371094,
				-8.876178741455078,
				-10.626571655273438
			],
			"type":"VEC3"
		},
		{
			"bufferView":25,
			"componentType":5126,
			"count":4,
			"type":"VEC3"
		},
		{
			"bufferView":26,
			"componentType":5126,
			"count":4,
			"type":"VEC2"
		},
		{
			"bufferView":27,
			"componentType":5126,
			"count":4,
			"type":"VEC2"
		},
		{
			"bufferView":28,
			"componentType":5123,
			"count":6,
			"type":"SCALAR"
		},
		{
			"bufferView":29,
			"componentType":5126,
			"count":4,
			"max":[
				-12.084587097167969,
				6.001014709472656,
				-5.340915679931641
			],
			"min":[
				-12.084587097167969,
				-8.876178741455078,
				-10.626571655273438
			],
			"type":"VEC3"
		},
		{
			"bufferView":30,
			"componentType":5126,
			"count":4,
			"type":"VEC3"
		},
		{
			"bufferView":31,
			"componentType":5126,
			"count":4,
			"type":"VEC2"
		},
		{
			"bufferView":32,
			"componentType":5126,
			"count":4,
			"type":"VEC2"
		},
		{
			"bufferView":33,
			"componentType":5123,
			"count":6,
			"type":"SCALAR"
		},
		{
			"bufferView":34,
			"componentType":5126,
			"count":4,
			"max":[
				15.544490814208984,
				10.683349609375,
				3.814697265625e-06
			],
			"min":[
				15.544490814208984,
				-10.50735855102539,
				-5.340923309326172
			],
			"type":"VEC3"
		},
		{
			"bufferView":35,
			"componentType":5126,
			"count":4,
			"type":"VEC3"
		},
		{
			"bufferView":36,
			"componentType":5126,
			"count":4,
			"type":"VEC2"
		},
		{
			"bufferView":37,
			"componentType":5126,
			"count":4,
			"type":"VEC2"
		},
		{
			"bufferView":38,
			"componentType":5123,
			"count":6,
			"type":"SCALAR"
		},
		{
			"bufferView":39,
			"componentType":5126,
			"count":4,
			"max":[
				-14.20989990234375,
				10.683349609375,
				3.814697265625e-06
			],
			"min":[
				-14.20989990234375,
				-10.50735855102539,
				-5.340923309326172
			],
			"type":"VEC3"
		},
		{
			"bufferView":40,
			"componentType":5126,
			"count":4,
			"type":"VEC3"
		},
		{
			"bufferView":41,
			"componentType":5126,
			"count":4,
			"type":"VEC2"
		},
		{
			"bufferView":42,
			"componentType":5126,
			"count":4,
			"type":"VEC2"
		},
		{
			"bufferView":43,
			"componentType":5123,
			"count":6,
			"type":"SCALAR"
		},
		{
			"bufferView":44,
			"componentType":5126,
			"count":8,
			"max":[
				-1.9893455505371094,
				6.001014709472656,
				-5.340923309326172
			],
			"min":[
				-12.084587097167969,
				6.001010894775391,
				-10.626571655273438
			],
			"type":"VEC3"
		},
		{
			"bufferView":45,
			"componentType":5126,
			"count":8,
			"type":"VEC3"
		},
		{
			"bufferView":46,
			"componentType":5126,
			"count":8,
			"type":"VEC2"
		},
		{
			"bufferView":47,
			"componentType":5126,
			"count":8,
			"type":"VEC2"
		},
		{
			"bufferView":48,
			"componentType":5123,
			"count":24,
			"type":"SCALAR"
		},
		{
			"bufferView":49,
			"componentType":5126,
			"count":12,
			"max":[
				-4.149505615234375,
				3.8408546447753906,
				-10.626564025878906
			],
			"min":[
				-5.673801422119141,
				-5.510856628417969,
				-20.27084732055664
			],
			"type":"VEC3"
		},
		{
			"bufferView":50,
			"componentType":5126,
			"count":12,
			"type":"VEC3"
		},
		{
			"bufferView":51,
			"componentType":5126,
			"count":12,
			"type":"VEC2"
		},
		{
			"bufferView":52,
			"componentType":5126,
			"count":12,
			"type":"VEC2"
		},
		{
			"bufferView":53,
			"componentType":5123,
			"count":18,
			"type":"SCALAR"
		},
		{
			"bufferView":54,
			"componentType":5126,
			"count":12,
			"max":[
				-4.149505615234375,
				2.6356849670410156,
				-10.626564025878906
			],
			"min":[
				-5.673801422119141,
				-6.716022491455078,
				-20.27084732055664
			],
			"type":"VEC3"
		},
		{
			"bufferView":55,
			"componentType":5126,
			"count":12,
			"type":"VEC3"
		},
		{
			"bufferView":56,
			"componentType":5126,
			"count":12,
			"type":"VEC2"
		},
		{
			"bufferView":57,
			"componentType":5126,
			"count":12,
			"type":"VEC2"
		},
		{
			"bufferView":58,
			"componentType":5123,
			"count":18,
			"type":"SCALAR"
		},
		{
			"bufferView":59,
			"componentType":5126,
			"count":12,
			"max":[
				-5.354671478271484,
				3.8408546447753906,
				-10.626564025878906
			],
			"min":[
				-5.673801422119141,
				-6.716022491455078,
				-20.27084732055664
			],
			"type":"VEC3"
		},
		{
			"bufferView":60,
			"componentType":5126,
			"count":12,
			"type":"VEC3"
		},
		{
			"bufferView":61,
			"componentType":5126,
			"count":12,
			"type":"VEC2"
		},
		{
			"bufferView":62,
			"componentType":5126,
			"count":12,
			"type":"VEC2"
		},
		{
			"bufferView":63,
			"componentType":5123,
			"count":18,
			"type":"SCALAR"
		},
		{
			"bufferView":64,
			"componentType":5126,
			"count":12,
			"max":[
				-4.149505615234375,
				3.8408546447753906,
				-10.626564025878906
			],
			"min":[
				-4.468631744384766,
				-6.716022491455078,
				-20.27084732055664
			],
			"type":"VEC3"
		},
		{
			"bufferView":65,
			"componentType":5126,
			"count":12,
			"type":"VEC3"
		},
		{
			"bufferView":66,
			"componentType":5126,
			"count":12,
			"type":"VEC2"
		},
		{
			"bufferView":67,
			"componentType":5126,
			"count":12,
			"type":"VEC2"
		},
		{
			"bufferView":68,
			"componentType":5123,
			"count":18,
			"type":"SCALAR"
		},
		{
			"bufferView":69,
			"componentType":5126,
			"count":4,
			"max":[
				0.5,
				0,
				0.5
			],
			"min":[
				-0.5,
				0,
				-0.5
			],
			"type":"VEC3"
		},
		{
			"bufferView":70,
			"componentType":5126,
			"count":4,
			"type":"VEC3"
		},
		{
			"bufferView":71,
			"componentType":5126,
			"count":4,
			"type":"VEC2"
		},
		{
			"bufferView":72,
			"componentType":5123,
			"count":6,
			"type":"SCALAR"
		}
	],
	"bufferViews":[
		{
			"buffer":0,
			"byteLength":708,
			"byteOffset":0,
			"target":34962
		},
		{
			"buffer":0,
			"byteLength":708,
			"byteOffset":708,
			"target":34962
		},
		{
			"buffer":0,
			"byteLength":472,
			"byteOffset":1416,
			"target":34962
		},
		{
			"buffer":0,
			"byteLength":472,
			"byteOffset":1888,
			"target":34962
		},
		{
			"buffer":0,
			"byteLength":300,
			"byteOffset":2360,
			"target":34963
		},
		{
			"buffer":0,
			"byteLength":144,
			"byteOffset":2660,
			"target":34962
		},
		{
			"buffer":0,
			"byteLength":144,
			"byteOffset":2804,
			"target":34962
		},
		{
			"buffer":0,
			"byteLength":96,
			"byteOffset":2948,
			"target":34962
		},
		{
			"buffer":0,
			"byteLength":96,
			"byteOffset":3044,
			"target":34962
		},
		{
			"buffer":0,
			"byteLength":36,
			"byteOffset":3140,
			"target":34963
		},
		{
			"buffer":0,
			"byteLength":48,
			"byteOffset":3176,
			"target":34962
		},
		{
			"buffer":0,
			"byteLength":48,
			"byteOffset":3224,
			"target":34962
		},
		{
			"buffer":0,
			"byteLength":32,
			"byteOffset":3272,
			"target":34962
		},
		{
			"buffer":0,
			"byteLength":32,
			"byteOffset":3304,
			"target":34962
		},
		{
			"buffer":0,
			"byteLength":12,
			"byteOffset":3336,
			"target":34963
		},
		{
			"buffer":0,
			"byteLength":48,
			"byteOffset":3348,
			"target":34962
		},
		{
			"buffer":0,
			"byteLength":48,
			"byteOffset":3396,
			"target":34962
		},
		{
			"buffer":0,
			"byteLength":32,
			"byteOffset":3444,
			"target":34962
		},
		{
			"buffer":0,
			"byteLength":32,
			"byteOffset":3476,
			"target":34962
		},
		{
			"buffer":0,
			"byteLength":48,
			"byteOffset":3508,
			"target":34962
		},
		{
			"buffer":0,
			"byteLength":48,
			"byteOffset":3556,
			"target":34962
		},
		{
			"buffer":0,
			"byteLength":32,
			"byteOffset":3604,
			"target":34962
		},
		{
			"buffer":0,
			"byteLength":32,
			"byteOffset":3636,
			"target":34962
		},
		{
			"buffer":0,
			"byteLength":12,
			"byteOffset":3668,
			"target":34963
		},
		{
			"buffer":0,
			"byteLength":48,
			"byteOffset":3680,
			"target":34962
		},
		{
			"buffer":0,
			"byteLength":48,
			"byteOffset":3728,
			"target":34962
		},
		{
			"buffer":0,
			"byteLength":32,
			"byteOffset":3776,
			"target":34962
		},
		{
			"buffer":0,
			"byteLength":32,
			"byteOffset":3808,
			"target":34962
		},
		{
			"buffer":0,
			"byteLength":12,
			"byteOffset":3840,
			"target":34963
		},
		{
			"buffer":0,
			"byteLength":48,
			"byteOffset":3852,
			"target":34962
		},
		{
			"buffer":0,
			"byteLength":48,
			"byteOffset":3900,
			"target":34962
		},
		{
			"buffer":0,
			"byteLength":32,
			"byteOffset":3948,
			"target":34962
		},
		{
			"buffer":0,
			"byteLength":32,
			"byteOffset":3980,
			"target":34962
		},
		{
			"buffer":0,
			"byteLength":12,
			"byteOffset":4012,
			"target":34963
		},
		{
			"buffer":0,
			"byteLength":48,
			"byteOffset":4024,
			"target":34962
		},
		{
			"buffer":0,
			"byteLength":48,
			"byteOffset":4072,
			"target":34962
		},
		{
			"buffer":0,
			"byteLength":32,
			"byteOffset":4120,
			"target":34962
		},
		{
			"buffer":0,
			"byteLength":32,
			"byteOffset":4152,
			"target":34962
		},
		{
			"buffer":0,
			"byteLength":12,
			"byteOffset":4184,
			"target":34963
		},
		{
			"buffer":0,
			"byteLength":48,
			"byteOffset":4196,
			"target":34962
		},
		{
			"buffer":0,
			"byteLength":48,
			"byteOffset":4244,
			"target":34962
		},
		{
			"buffer":0,
			"byteLength":32,
			"byteOffset":4292,
			"target":34962
		},
		{
			"buffer":0,
			"byteLength":32,
			"byteOffset":4324,
			"target":34962
		},
		{
			"buffer":0,
			"byteLength":12,
			"byteOffset":4356,
			"target":34963
		},
		{
			"buffer":0,
			"byteLength":96,
			"byteOffset":4368,
			"target":34962
		},
		{
			"buffer":0,
			"byteLength":96,
			"byteOffset":4464,
			"target":34962
		},
		{
			"buffer":0,
			"byteLength":64,
			"byteOffset":4560,
			"target":34962
		},
		{
			"buffer":0,
			"byteLength":64,
			"byteOffset":4624,
			"target":34962
		},
		{
			"buffer":0,
			"byteLength":48,
			"byteOffset":4688,
			"target":34963
		},
		{
			"buffer":0,
			"byteLength":144,
			"byteOffset":4736,
			"target":34962
		},
		{
			"buffer":0,
			"byteLength":144,
			"byteOffset":4880,
			"target":34962
		},
		{
			"buffer":0,
			"byteLength":96,
			"byteOffset":5024,
			"target":34962
		},
		{
			"buffer":0,
			"byteLength":96,
			"byteOffset":5120,
			"target":34962
		},
		{
			"buffer":0,
			"byteLength":36,
			"byteOffset":5216,
			"target":34963
		},
		{
			"buffer":0,
			"byteLength":144,
			"byteOffset":5252,
			"target":34962
		},
		{
			"buffer":0,
			"byteLength":144,
			"byteOffset":5396,
			"target":34962
		},
		{
			"buffer":0,
			"byteLength":96,
			"byteOffset":5540,
			"target":34962
		},
		{
			"buffer":0,
			"byteLength":96,
			"byteOffset":5636,
			"target":34962
		},
		{
			"buffer":0,
			"byteLength":36,
			"byteOffset":5732,
			"target":34963
		},
		{
			"buffer":0,
			"byteLength":144,
			"byteOffset":5768,
			"target":34962
		},
		{
			"buffer":0,
			"byteLength":144,
			"byteOffset":5912,
			"target":34962
		},
		{
			"buffer":0,
			"byteLength":96,
			"byteOffset":6056,
			"target":34962
		},
		{
			"buffer":0,
			"byteLength":96,
			"byteOffset":6152,
			"target":34962
		},
		{
			"buffer":0,
			"byteLength":36,
			"byteOffset":6248,
			"target":34963
		},
		{
			"buffer":0,
			"byteLength":144,
			"byteOffset":6284,
			"target":34962
		},
		{
			"buffer":0,
			"byteLength":144,
			"byteOffset":6428,
			"target":34962
		},
		{
			"buffer":0,
			"byteLength":96,
			"byteOffset":6572,
			"target":34962
		},
		{
			"buffer":0,
			"byteLength":96,
			"byteOffset":6668,
			"target":34962
		},
		{
			"buffer":0,
			"byteLength":36,
			"byteOffset":6764,
			"target":34963
		},
		{
			"buffer":0,
			"byteLength":48,
			"byteOffset":6800,
			"target":34962
		},
		{
			"buffer":0,
			"byteLength":48,
			"byteOffset":6848,
			"target":34962
		},
		{
			"buffer":0,
			"byteLength":32,
			"byteOffset":6896,
			"target":34962
		},
		{
			"buffer":0,
			"byteLength":12,
			"byteOffset":6928,
			"target":34963
		}
	],
	"samplers":[
		{
			"magFilter":9729,
			"minFilter":9987
		}
	],
	"buffers":[
		{
			"byteLength":6940,
			"uri":"small_1.bin"
		}
	]
}
