{
    "asset" : {
        "generator" : "Khronos glTF Blender I/O v1.7.33",
        "version" : "2.0"
    },
    "scene" : 0,
    "scenes" : [
        {
            "name" : "Scene",
            "nodes" : [
                0
            ]
        }
    ],
    "nodes" : [
        {
            "mesh" : 0,
            "name" : "Maxis-3d2-mesh-6",
            "rotation" : [
                0.7071068286895752,
                0,
                0,
                0.7071067094802856
            ]
        }
    ],
    "materials" : [
        {
            "doubleSided" : true,
            "name" : "matcolour-48.005",
            "pbrMetallicRoughness" : {
                "baseColorFactor" : [
                    0.05882352963089943,
                    0.05882352963089943,
                    0.05882352963089943,
                    1
                ],
                "metallicFactor" : 0
            }
        },
        {
            "doubleSided" : true,
            "name" : "mat2-7",
            "pbrMetallicRoughness" : {
                "baseColorTexture" : {
                    "index" : 0
                },
                "metallicFactor" : 0
            }
        },
        {
            "doubleSided" : true,
            "name" : "mat2-4",
            "pbrMetallicRoughness" : {
                "baseColorTexture" : {
                    "index" : 1
                },
                "metallicFactor" : 0
            }
        },
        {
            "doubleSided" : true,
            "name" : "mat2-5",
            "pbrMetallicRoughness" : {
                "baseColorTexture" : {
                    "index" : 2
                },
                "metallicFactor" : 0
            }
        },
        {
            "doubleSided" : true,
            "name" : "mat2-6",
            "pbrMetallicRoughness" : {
                "baseColorTexture" : {
                    "index" : 3
                },
                "metallicFactor" : 0
            }
        },
        {
            "doubleSided" : true,
            "name" : "mat39-31",
            "pbrMetallicRoughness" : {
                "baseColorTexture" : {
                    "index" : 4
                },
                "metallicFactor" : 0
            }
        },
        {
            "doubleSided" : true,
            "name" : "mat39-28",
            "pbrMetallicRoughness" : {
                "baseColorTexture" : {
                    "index" : 5
                },
                "metallicFactor" : 0
            }
        },
        {
            "doubleSided" : true,
            "name" : "mat39-30",
            "pbrMetallicRoughness" : {
                "baseColorTexture" : {
                    "index" : 6
                },
                "metallicFactor" : 0
            }
        },
        {
            "doubleSided" : true,
            "name" : "mat39-29",
            "pbrMetallicRoughness" : {
                "baseColorTexture" : {
                    "index" : 7
                },
                "metallicFactor" : 0
            }
        }
    ],
    "meshes" : [
        {
            "name" : "Maxis-3d2-mesh-6",
            "primitives" : [
                {
                    "attributes" : {
                        "POSITION" : 0,
                        "NORMAL" : 1,
                        "TEXCOORD_0" : 2
                    },
                    "indices" : 3,
                    "material" : 0
                },
                {
                    "attributes" : {
                        "POSITION" : 4,
                        "NORMAL" : 5,
                        "TEXCOORD_0" : 6
                    },
                    "indices" : 7,
                    "material" : 1
                },
                {
                    "attributes" : {
                        "POSITION" : 8,
                        "NORMAL" : 9,
                        "TEXCOORD_0" : 10
                    },
                    "indices" : 11,
                    "material" : 2
                },
                {
                    "attributes" : {
                        "POSITION" : 12,
                        "NORMAL" : 13,
                        "TEXCOORD_0" : 14
                    },
                    "indices" : 15,
                    "material" : 3
                },
                {
                    "attributes" : {
                        "POSITION" : 16,
                        "NORMAL" : 17,
                        "TEXCOORD_0" : 18
                    },
                    "indices" : 19,
                    "material" : 4
                },
                {
                    "attributes" : {
                        "POSITION" : 20,
                        "NORMAL" : 21,
                        "TEXCOORD_0" : 22
                    },
                    "indices" : 23,
                    "material" : 5
                },
                {
                    "attributes" : {
                        "POSITION" : 24,
                        "NORMAL" : 25,
                        "TEXCOORD_0" : 26
                    },
                    "indices" : 23,
                    "material" : 6
                },
                {
                    "attributes" : {
                        "POSITION" : 27,
                        "NORMAL" : 28,
                        "TEXCOORD_0" : 29
                    },
                    "indices" : 30,
                    "material" : 7
                },
                {
                    "attributes" : {
                        "POSITION" : 31,
                        "NORMAL" : 32,
                        "TEXCOORD_0" : 33
                    },
                    "indices" : 34,
                    "material" : 8
                }
            ]
        }
    ],
    "textures" : [
        {
            "sampler" : 0,
            "source" : 0
        },
        {
            "sampler" : 0,
            "source" : 1
        },
        {
            "sampler" : 0,
            "source" : 2
        },
        {
            "sampler" : 0,
            "source" : 3
        },
        {
            "sampler" : 0,
            "source" : 4
        },
        {
            "sampler" : 0,
            "source" : 5
        },
        {
            "sampler" : 0,
            "source" : 6
        },
        {
            "sampler" : 0,
            "source" : 7
        }
    ],
    "images" : [
        {
            "mimeType" : "image/png",
            "name" : "tex2-7",
            "uri" : "../../../Textures/tex2-7.png"
        },
        {
            "mimeType" : "image/png",
            "name" : "tex2-4",
            "uri" : "../../../Textures/tex2-4.png"
        },
        {
            "mimeType" : "image/png",
            "name" : "tex2-5",
            "uri" : "../../../Textures/tex2-5.png"
        },
        {
            "mimeType" : "image/png",
            "name" : "tex2-6",
            "uri" : "../../../Textures/tex2-6.png"
        },
        {
            "mimeType" : "image/png",
            "name" : "tex39-31",
            "uri" : "../../../Textures/tex39-31.png"
        },
        {
            "mimeType" : "image/png",
            "name" : "tex39-28",
            "uri" : "../../../Textures/tex39-28.png"
        },
        {
            "mimeType" : "image/png",
            "name" : "tex39-30",
            "uri" : "../../../Textures/tex39-30.png"
        },
        {
            "mimeType" : "image/png",
            "name" : "tex39-29",
            "uri" : "../../../Textures/tex39-29.png"
        }
    ],
    "accessors" : [
        {
            "bufferView" : 0,
            "componentType" : 5126,
            "count" : 168,
            "max" : [
                10.900726318359375,
                14.672119140625,
                3.814697265625e-06
            ],
            "min" : [
                -13.66757583618164,
                -15.036022186279297,
                -18.218368530273438
            ],
            "type" : "VEC3"
        },
        {
            "bufferView" : 1,
            "componentType" : 5126,
            "count" : 168,
            "type" : "VEC3"
        },
        {
            "bufferView" : 2,
            "componentType" : 5126,
            "count" : 168,
            "type" : "VEC2"
        },
        {
            "bufferView" : 3,
            "componentType" : 5123,
            "count" : 174,
            "type" : "SCALAR"
        },
        {
            "bufferView" : 4,
            "componentType" : 5126,
            "count" : 14,
            "max" : [
                10.900726318359375,
                8.591442108154297,
                0
            ],
            "min" : [
                -11.091094970703125,
                -6.7110137939453125,
                -16.88150405883789
            ],
            "type" : "VEC3"
        },
        {
            "bufferView" : 5,
            "componentType" : 5126,
            "count" : 14,
            "type" : "VEC3"
        },
        {
            "bufferView" : 6,
            "componentType" : 5126,
            "count" : 14,
            "type" : "VEC2"
        },
        {
            "bufferView" : 7,
            "componentType" : 5123,
            "count" : 18,
            "type" : "SCALAR"
        },
        {
            "bufferView" : 8,
            "componentType" : 5126,
            "count" : 14,
            "max" : [
                10.900726318359375,
                -6.130123138427734,
                0
            ],
            "min" : [
                -11.091094970703125,
                -15.036022186279297,
                -16.881492614746094
            ],
            "type" : "VEC3"
        },
        {
            "bufferView" : 9,
            "componentType" : 5126,
            "count" : 14,
            "type" : "VEC3"
        },
        {
            "bufferView" : 10,
            "componentType" : 5126,
            "count" : 14,
            "type" : "VEC2"
        },
        {
            "bufferView" : 11,
            "componentType" : 5123,
            "count" : 18,
            "type" : "SCALAR"
        },
        {
            "bufferView" : 12,
            "componentType" : 5126,
            "count" : 14,
            "max" : [
                1.0147857666015625,
                8.591442108154297,
                0
            ],
            "min" : [
                -11.091094970703125,
                -15.036022186279297,
                -16.88150405883789
            ],
            "type" : "VEC3"
        },
        {
            "bufferView" : 13,
            "componentType" : 5126,
            "count" : 14,
            "type" : "VEC3"
        },
        {
            "bufferView" : 14,
            "componentType" : 5126,
            "count" : 14,
            "type" : "VEC2"
        },
        {
            "bufferView" : 15,
            "componentType" : 5123,
            "count" : 18,
            "type" : "SCALAR"
        },
        {
            "bufferView" : 16,
            "componentType" : 5126,
            "count" : 16,
            "max" : [
                10.900726318359375,
                8.591442108154297,
                0
            ],
            "min" : [
                -6.123661041259766,
                -15.036022186279297,
                -16.88150405883789
            ],
            "type" : "VEC3"
        },
        {
            "bufferView" : 17,
            "componentType" : 5126,
            "count" : 16,
            "type" : "VEC3"
        },
        {
            "bufferView" : 18,
            "componentType" : 5126,
            "count" : 16,
            "type" : "VEC2"
        },
        {
            "bufferView" : 19,
            "componentType" : 5123,
            "count" : 18,
            "type" : "SCALAR"
        },
        {
            "bufferView" : 20,
            "componentType" : 5126,
            "count" : 4,
            "max" : [
                9.464763641357422,
                14.672122955322266,
                -7.62939453125e-06
            ],
            "min" : [
                -13.66757583618164,
                14.672119140625,
                -14.465751647949219
            ],
            "type" : "VEC3"
        },
        {
            "bufferView" : 21,
            "componentType" : 5126,
            "count" : 4,
            "type" : "VEC3"
        },
        {
            "bufferView" : 22,
            "componentType" : 5126,
            "count" : 4,
            "type" : "VEC2"
        },
        {
            "bufferView" : 23,
            "componentType" : 5123,
            "count" : 6,
            "type" : "SCALAR"
        },
        {
            "bufferView" : 24,
            "componentType" : 5126,
            "count" : 4,
            "max" : [
                9.464763641357422,
                -6.532524108886719,
                0
            ],
            "min" : [
                -13.66757583618164,
                -6.532527923583984,
                -14.465740203857422
            ],
            "type" : "VEC3"
        },
        {
            "bufferView" : 25,
            "componentType" : 5126,
            "count" : 4,
            "type" : "VEC3"
        },
        {
            "bufferView" : 26,
            "componentType" : 5126,
            "count" : 4,
            "type" : "VEC2"
        },
        {
            "bufferView" : 27,
            "componentType" : 5126,
            "count" : 6,
            "max" : [
                9.464763641357422,
                14.672122955322266,
                0
            ],
            "min" : [
                9.464763641357422,
                -6.532527923583984,
                -14.465751647949219
            ],
            "type" : "VEC3"
        },
        {
            "bufferView" : 28,
            "componentType" : 5126,
            "count" : 6,
            "type" : "VEC3"
        },
        {
            "bufferView" : 29,
            "componentType" : 5126,
            "count" : 6,
            "type" : "VEC2"
        },
        {
            "bufferView" : 30,
            "componentType" : 5123,
            "count" : 6,
            "type" : "SCALAR"
        },
        {
            "bufferView" : 31,
            "componentType" : 5126,
            "count" : 6,
            "max" : [
                -13.66757583618164,
                14.672122955322266,
                0
            ],
            "min" : [
                -13.66757583618164,
                -6.532527923583984,
                -14.465751647949219
            ],
            "type" : "VEC3"
        },
        {
            "bufferView" : 32,
            "componentType" : 5126,
            "count" : 6,
            "type" : "VEC3"
        },
        {
            "bufferView" : 33,
            "componentType" : 5126,
            "count" : 6,
            "type" : "VEC2"
        },
        {
            "bufferView" : 34,
            "componentType" : 5123,
            "count" : 6,
            "type" : "SCALAR"
        }
    ],
    "bufferViews" : [
        {
            "buffer" : 0,
            "byteLength" : 2016,
            "byteOffset" : 0
        },
        {
            "buffer" : 0,
            "byteLength" : 2016,
            "byteOffset" : 2016
        },
        {
            "buffer" : 0,
            "byteLength" : 1344,
            "byteOffset" : 4032
        },
        {
            "buffer" : 0,
            "byteLength" : 348,
            "byteOffset" : 5376
        },
        {
            "buffer" : 0,
            "byteLength" : 168,
            "byteOffset" : 5724
        },
        {
            "buffer" : 0,
            "byteLength" : 168,
            "byteOffset" : 5892
        },
        {
            "buffer" : 0,
            "byteLength" : 112,
            "byteOffset" : 6060
        },
        {
            "buffer" : 0,
            "byteLength" : 36,
            "byteOffset" : 6172
        },
        {
            "buffer" : 0,
            "byteLength" : 168,
            "byteOffset" : 6208
        },
        {
            "buffer" : 0,
            "byteLength" : 168,
            "byteOffset" : 6376
        },
        {
            "buffer" : 0,
            "byteLength" : 112,
            "byteOffset" : 6544
        },
        {
            "buffer" : 0,
            "byteLength" : 36,
            "byteOffset" : 6656
        },
        {
            "buffer" : 0,
            "byteLength" : 168,
            "byteOffset" : 6692
        },
        {
            "buffer" : 0,
            "byteLength" : 168,
            "byteOffset" : 6860
        },
        {
            "buffer" : 0,
            "byteLength" : 112,
            "byteOffset" : 7028
        },
        {
            "buffer" : 0,
            "byteLength" : 36,
            "byteOffset" : 7140
        },
        {
            "buffer" : 0,
            "byteLength" : 192,
            "byteOffset" : 7176
        },
        {
            "buffer" : 0,
            "byteLength" : 192,
            "byteOffset" : 7368
        },
        {
            "buffer" : 0,
            "byteLength" : 128,
            "byteOffset" : 7560
        },
        {
            "buffer" : 0,
            "byteLength" : 36,
            "byteOffset" : 7688
        },
        {
            "buffer" : 0,
            "byteLength" : 48,
            "byteOffset" : 7724
        },
        {
            "buffer" : 0,
            "byteLength" : 48,
            "byteOffset" : 7772
        },
        {
            "buffer" : 0,
            "byteLength" : 32,
            "byteOffset" : 7820
        },
        {
            "buffer" : 0,
            "byteLength" : 12,
            "byteOffset" : 7852
        },
        {
            "buffer" : 0,
            "byteLength" : 48,
            "byteOffset" : 7864
        },
        {
            "buffer" : 0,
            "byteLength" : 48,
            "byteOffset" : 7912
        },
        {
            "buffer" : 0,
            "byteLength" : 32,
            "byteOffset" : 7960
        },
        {
            "buffer" : 0,
            "byteLength" : 72,
            "byteOffset" : 7992
        },
        {
            "buffer" : 0,
            "byteLength" : 72,
            "byteOffset" : 8064
        },
        {
            "buffer" : 0,
            "byteLength" : 48,
            "byteOffset" : 8136
        },
        {
            "buffer" : 0,
            "byteLength" : 12,
            "byteOffset" : 8184
        },
        {
            "buffer" : 0,
            "byteLength" : 72,
            "byteOffset" : 8196
        },
        {
            "buffer" : 0,
            "byteLength" : 72,
            "byteOffset" : 8268
        },
        {
            "buffer" : 0,
            "byteLength" : 48,
            "byteOffset" : 8340
        },
        {
            "buffer" : 0,
            "byteLength" : 12,
            "byteOffset" : 8388
        }
    ],
    "samplers" : [
        {
            "magFilter" : 9729,
            "minFilter" : 9987
        }
    ],
    "buffers" : [
        {
            "byteLength" : 8400,
            "uri" : "small_2.bin"
        }
    ]
}
