{
	"asset":{
		"generator":"Khronos glTF Blender I/O v4.3.47",
		"version":"2.0"
	},
	"scene":0,
	"scenes":[
		{
			"name":"Scene",
			"nodes":[
				0,
				1
			]
		}
	],
	"nodes":[
		{
			"mesh":0,
			"name":"Maxis-3d3-mesh-0",
			"rotation":[
				0.70710688829422,
				0,
				0,
				0.7071066498756409
			]
		},
		{
			"extras":{
				"gd_node":"Decal",
				"lower_fade":9,
				"upper_fade":10
			},
			"mesh":1,
			"name":"Ground_AO",
			"scale":[
				30.999996185302734,
				1,
				26.0000057220459
			],
			"translation":[
				0.2634868621826172,
				0.002531282138079405,
				-0.0221405029296875
			]
		}
	],
	"materials":[
		{
			"name":"mat40-61",
			"occlusionTexture":{
				"index":0,
				"texCoord":1
			},
			"pbrMetallicRoughness":{
				"baseColorTexture":{
					"index":1
				},
				"metallicFactor":0
			}
		},
		{
			"name":"matcolour-128.002",
			"occlusionTexture":{
				"index":2,
				"texCoord":1
			},
			"pbrMetallicRoughness":{
				"baseColorFactor":[
					0.12156862765550613,
					0.08235294371843338,
					0.062745101749897,
					1
				],
				"metallicFactor":0
			}
		},
		{
			"name":"matcolour-48.011",
			"occlusionTexture":{
				"index":3,
				"texCoord":1
			},
			"pbrMetallicRoughness":{
				"baseColorFactor":[
					0.05882352963089943,
					0.05882352963089943,
					0.05882352963089943,
					1
				],
				"metallicFactor":0
			}
		},
		{
			"name":"mat39-9",
			"occlusionTexture":{
				"index":4,
				"texCoord":1
			},
			"pbrMetallicRoughness":{
				"baseColorTexture":{
					"index":5
				},
				"metallicFactor":0
			}
		},
		{
			"name":"mat39-10",
			"occlusionTexture":{
				"index":6,
				"texCoord":1
			},
			"pbrMetallicRoughness":{
				"baseColorTexture":{
					"index":7
				},
				"metallicFactor":0
			}
		},
		{
			"name":"mat2-41.001",
			"occlusionTexture":{
				"index":8,
				"texCoord":1
			},
			"pbrMetallicRoughness":{
				"baseColorTexture":{
					"index":9
				},
				"metallicFactor":0
			}
		},
		{
			"name":"mat39-11",
			"occlusionTexture":{
				"index":10,
				"texCoord":1
			},
			"pbrMetallicRoughness":{
				"baseColorTexture":{
					"index":11
				},
				"metallicFactor":0
			}
		},
		{
			"name":"mat39-8",
			"occlusionTexture":{
				"index":12,
				"texCoord":1
			},
			"pbrMetallicRoughness":{
				"baseColorTexture":{
					"index":13
				},
				"metallicFactor":0
			}
		},
		{
			"name":"mat39-63.001",
			"occlusionTexture":{
				"index":14,
				"texCoord":1
			},
			"pbrMetallicRoughness":{
				"baseColorTexture":{
					"index":15
				},
				"metallicFactor":0
			}
		},
		{
			"name":"mat39-60.001",
			"occlusionTexture":{
				"index":16,
				"texCoord":1
			},
			"pbrMetallicRoughness":{
				"baseColorTexture":{
					"index":17
				},
				"metallicFactor":0
			}
		},
		{
			"name":"mat39-61.001",
			"occlusionTexture":{
				"index":18,
				"texCoord":1
			},
			"pbrMetallicRoughness":{
				"baseColorTexture":{
					"index":19
				},
				"metallicFactor":0
			}
		},
		{
			"name":"mat39-62.001",
			"occlusionTexture":{
				"index":20,
				"texCoord":1
			},
			"pbrMetallicRoughness":{
				"baseColorTexture":{
					"index":21
				},
				"metallicFactor":0
			}
		},
		{
			"name":"Ground_AO",
			"occlusionTexture":{
				"index":22
			},
			"pbrMetallicRoughness":{
				"baseColorFactor":[
					0.800000011920929,
					0.800000011920929,
					0.800000011920929,
					1
				],
				"metallicFactor":0,
				"roughnessFactor":0.5
			}
		}
	],
	"meshes":[
		{
			"name":"Maxis-3d3-mesh-0",
			"primitives":[
				{
					"attributes":{
						"POSITION":0,
						"NORMAL":1,
						"TEXCOORD_0":2,
						"TEXCOORD_1":3
					},
					"indices":4,
					"material":0
				},
				{
					"attributes":{
						"POSITION":5,
						"NORMAL":6,
						"TEXCOORD_0":7,
						"TEXCOORD_1":8
					},
					"indices":9,
					"material":1
				},
				{
					"attributes":{
						"POSITION":10,
						"NORMAL":11,
						"TEXCOORD_0":12,
						"TEXCOORD_1":13
					},
					"indices":14,
					"material":2
				},
				{
					"attributes":{
						"POSITION":15,
						"NORMAL":16,
						"TEXCOORD_0":17,
						"TEXCOORD_1":18
					},
					"indices":19,
					"material":3
				},
				{
					"attributes":{
						"POSITION":20,
						"NORMAL":21,
						"TEXCOORD_0":22,
						"TEXCOORD_1":23
					},
					"indices":24,
					"material":4
				},
				{
					"attributes":{
						"POSITION":25,
						"NORMAL":26,
						"TEXCOORD_0":27,
						"TEXCOORD_1":28
					},
					"indices":29,
					"material":5
				},
				{
					"attributes":{
						"POSITION":30,
						"NORMAL":31,
						"TEXCOORD_0":32,
						"TEXCOORD_1":33
					},
					"indices":34,
					"material":6
				},
				{
					"attributes":{
						"POSITION":35,
						"NORMAL":36,
						"TEXCOORD_0":37,
						"TEXCOORD_1":38
					},
					"indices":39,
					"material":7
				},
				{
					"attributes":{
						"POSITION":40,
						"NORMAL":41,
						"TEXCOORD_0":42,
						"TEXCOORD_1":43
					},
					"indices":44,
					"material":8
				},
				{
					"attributes":{
						"POSITION":45,
						"NORMAL":46,
						"TEXCOORD_0":47,
						"TEXCOORD_1":48
					},
					"indices":49,
					"material":9
				},
				{
					"attributes":{
						"POSITION":50,
						"NORMAL":51,
						"TEXCOORD_0":52,
						"TEXCOORD_1":53
					},
					"indices":54,
					"material":10
				},
				{
					"attributes":{
						"POSITION":55,
						"NORMAL":56,
						"TEXCOORD_0":57,
						"TEXCOORD_1":58
					},
					"indices":59,
					"material":11
				}
			]
		},
		{
			"name":"Plane",
			"primitives":[
				{
					"attributes":{
						"POSITION":60,
						"NORMAL":61,
						"TEXCOORD_0":62
					},
					"indices":63,
					"material":12
				}
			]
		}
	],
	"textures":[
		{
			"sampler":0,
			"source":0
		},
		{
			"sampler":0,
			"source":1
		},
		{
			"sampler":0,
			"source":0
		},
		{
			"sampler":0,
			"source":0
		},
		{
			"sampler":0,
			"source":0
		},
		{
			"sampler":0,
			"source":2
		},
		{
			"sampler":0,
			"source":0
		},
		{
			"sampler":0,
			"source":3
		},
		{
			"sampler":0,
			"source":0
		},
		{
			"sampler":0,
			"source":4
		},
		{
			"sampler":0,
			"source":0
		},
		{
			"sampler":0,
			"source":5
		},
		{
			"sampler":0,
			"source":0
		},
		{
			"sampler":0,
			"source":6
		},
		{
			"sampler":0,
			"source":0
		},
		{
			"sampler":0,
			"source":7
		},
		{
			"sampler":0,
			"source":0
		},
		{
			"sampler":0,
			"source":8
		},
		{
			"sampler":0,
			"source":0
		},
		{
			"sampler":0,
			"source":9
		},
		{
			"sampler":0,
			"source":0
		},
		{
			"sampler":0,
			"source":10
		},
		{
			"sampler":0,
			"source":11
		}
	],
	"images":[
		{
			"mimeType":"image/png",
			"name":"small_6.png",
			"uri":"../../../Textures/ambient_occlusion/Buildings/Factory/small_6.png"
		},
		{
			"mimeType":"image/png",
			"name":"tex40-61",
			"uri":"../../../Textures/tex40-61.png"
		},
		{
			"mimeType":"image/png",
			"name":"tex39-9",
			"uri":"../../../Textures/tex39-9.png"
		},
		{
			"mimeType":"image/png",
			"name":"tex39-10",
			"uri":"../../../Textures/tex39-10.png"
		},
		{
			"mimeType":"image/png",
			"name":"tex2-41",
			"uri":"../../../Textures/tex2-41.png"
		},
		{
			"mimeType":"image/png",
			"name":"tex39-11",
			"uri":"../../../Textures/tex39-11.png"
		},
		{
			"mimeType":"image/png",
			"name":"tex39-8",
			"uri":"../../../Textures/tex39-8.png"
		},
		{
			"mimeType":"image/png",
			"name":"tex39-63",
			"uri":"../../../Textures/tex39-63.png"
		},
		{
			"mimeType":"image/png",
			"name":"tex39-60",
			"uri":"../../../Textures/tex39-60.png"
		},
		{
			"mimeType":"image/png",
			"name":"tex39-61",
			"uri":"../../../Textures/tex39-61.png"
		},
		{
			"mimeType":"image/png",
			"name":"tex39-62",
			"uri":"../../../Textures/tex39-62.png"
		},
		{
			"mimeType":"image/png",
			"name":"small_6_ground.png",
			"uri":"../../../Textures/ambient_occlusion/Buildings/Factory/small_6_ground.png"
		}
	],
	"accessors":[
		{
			"bufferView":0,
			"componentType":5126,
			"count":12,
			"max":[
				-6.666664123535156,
				4.476238250732422,
				-28.530887603759766
			],
			"min":[
				-8.359390258789062,
				-7.987724304199219,
				-28.530887603759766
			],
			"type":"VEC3"
		},
		{
			"bufferView":1,
			"componentType":5126,
			"count":12,
			"type":"VEC3"
		},
		{
			"bufferView":2,
			"componentType":5126,
			"count":12,
			"type":"VEC2"
		},
		{
			"bufferView":3,
			"componentType":5126,
			"count":12,
			"type":"VEC2"
		},
		{
			"bufferView":4,
			"componentType":5123,
			"count":18,
			"type":"SCALAR"
		},
		{
			"bufferView":5,
			"componentType":5126,
			"count":4,
			"max":[
				-6.277507781982422,
				10.610950469970703,
				-8.030887603759766
			],
			"min":[
				-8.748550415039062,
				8.575973510742188,
				-8.030887603759766
			],
			"type":"VEC3"
		},
		{
			"bufferView":6,
			"componentType":5126,
			"count":4,
			"type":"VEC3"
		},
		{
			"bufferView":7,
			"componentType":5126,
			"count":4,
			"type":"VEC2"
		},
		{
			"bufferView":8,
			"componentType":5126,
			"count":4,
			"type":"VEC2"
		},
		{
			"bufferView":9,
			"componentType":5123,
			"count":6,
			"type":"SCALAR"
		},
		{
			"bufferView":10,
			"componentType":5126,
			"count":49,
			"max":[
				15.263484954833984,
				12.477855682373047,
				-7.002532958984375
			],
			"min":[
				-14.73651123046875,
				-12.522144317626953,
				-14.502548217773438
			],
			"type":"VEC3"
		},
		{
			"bufferView":11,
			"componentType":5126,
			"count":49,
			"type":"VEC3"
		},
		{
			"bufferView":12,
			"componentType":5126,
			"count":49,
			"type":"VEC2"
		},
		{
			"bufferView":13,
			"componentType":5126,
			"count":49,
			"type":"VEC2"
		},
		{
			"bufferView":14,
			"componentType":5123,
			"count":114,
			"type":"SCALAR"
		},
		{
			"bufferView":15,
			"componentType":5126,
			"count":4,
			"max":[
				-14.73651123046875,
				12.477855682373047,
				-0.002532958984375
			],
			"min":[
				-14.73651123046875,
				-12.522140502929688,
				-7.0025482177734375
			],
			"type":"VEC3"
		},
		{
			"bufferView":16,
			"componentType":5126,
			"count":4,
			"type":"VEC3"
		},
		{
			"bufferView":17,
			"componentType":5126,
			"count":4,
			"type":"VEC2"
		},
		{
			"bufferView":18,
			"componentType":5126,
			"count":4,
			"type":"VEC2"
		},
		{
			"bufferView":19,
			"componentType":5123,
			"count":6,
			"type":"SCALAR"
		},
		{
			"bufferView":20,
			"componentType":5126,
			"count":4,
			"max":[
				15.263484954833984,
				12.477859497070312,
				-0.002532958984375
			],
			"min":[
				15.263484954833984,
				-12.522140502929688,
				-7.0025482177734375
			],
			"type":"VEC3"
		},
		{
			"bufferView":21,
			"componentType":5126,
			"count":4,
			"type":"VEC3"
		},
		{
			"bufferView":22,
			"componentType":5126,
			"count":4,
			"type":"VEC2"
		},
		{
			"bufferView":23,
			"componentType":5126,
			"count":4,
			"type":"VEC2"
		},
		{
			"bufferView":24,
			"componentType":5123,
			"count":6,
			"type":"SCALAR"
		},
		{
			"bufferView":25,
			"componentType":5126,
			"count":4,
			"max":[
				0.2634849548339844,
				12.477855682373047,
				-7.002532958984375
			],
			"min":[
				0.2634849548339844,
				-12.522144317626953,
				-14.502548217773438
			],
			"type":"VEC3"
		},
		{
			"bufferView":26,
			"componentType":5126,
			"count":4,
			"type":"VEC3"
		},
		{
			"bufferView":27,
			"componentType":5126,
			"count":4,
			"type":"VEC2"
		},
		{
			"bufferView":28,
			"componentType":5126,
			"count":4,
			"type":"VEC2"
		},
		{
			"bufferView":29,
			"componentType":5123,
			"count":6,
			"type":"SCALAR"
		},
		{
			"bufferView":30,
			"componentType":5126,
			"count":6,
			"max":[
				15.263484954833984,
				12.477859497070312,
				-0.002544403076171875
			],
			"min":[
				-14.73651123046875,
				12.477855682373047,
				-7.0025482177734375
			],
			"type":"VEC3"
		},
		{
			"bufferView":31,
			"componentType":5126,
			"count":6,
			"type":"VEC3"
		},
		{
			"bufferView":32,
			"componentType":5126,
			"count":6,
			"type":"VEC2"
		},
		{
			"bufferView":33,
			"componentType":5126,
			"count":6,
			"type":"VEC2"
		},
		{
			"bufferView":34,
			"componentType":5123,
			"count":6,
			"type":"SCALAR"
		},
		{
			"bufferView":35,
			"componentType":5126,
			"count":4,
			"max":[
				15.263484954833984,
				-12.522140502929688,
				-0.002532958984375
			],
			"min":[
				-14.73651123046875,
				-12.522140502929688,
				-7.002532958984375
			],
			"type":"VEC3"
		},
		{
			"bufferView":36,
			"componentType":5126,
			"count":4,
			"type":"VEC3"
		},
		{
			"bufferView":37,
			"componentType":5126,
			"count":4,
			"type":"VEC2"
		},
		{
			"bufferView":38,
			"componentType":5126,
			"count":4,
			"type":"VEC2"
		},
		{
			"bufferView":39,
			"componentType":5123,
			"count":6,
			"type":"SCALAR"
		},
		{
			"bufferView":40,
			"componentType":5126,
			"count":12,
			"max":[
				-6.282501220703125,
				4.7926177978515625,
				-7.002536773681641
			],
			"min":[
				-8.74355697631836,
				-6.593715667724609,
				-28.530887603759766
			],
			"type":"VEC3"
		},
		{
			"bufferView":41,
			"componentType":5126,
			"count":12,
			"type":"VEC3"
		},
		{
			"bufferView":42,
			"componentType":5126,
			"count":12,
			"type":"VEC2"
		},
		{
			"bufferView":43,
			"componentType":5126,
			"count":12,
			"type":"VEC2"
		},
		{
			"bufferView":44,
			"componentType":5123,
			"count":18,
			"type":"SCALAR"
		},
		{
			"bufferView":45,
			"componentType":5126,
			"count":12,
			"max":[
				-6.282501220703125,
				3.0822296142578125,
				-7.002536773681641
			],
			"min":[
				-8.74355697631836,
				-8.304080963134766,
				-28.530887603759766
			],
			"type":"VEC3"
		},
		{
			"bufferView":46,
			"componentType":5126,
			"count":12,
			"type":"VEC3"
		},
		{
			"bufferView":47,
			"componentType":5126,
			"count":12,
			"type":"VEC2"
		},
		{
			"bufferView":48,
			"componentType":5126,
			"count":12,
			"type":"VEC2"
		},
		{
			"bufferView":49,
			"componentType":5123,
			"count":18,
			"type":"SCALAR"
		},
		{
			"bufferView":50,
			"componentType":5126,
			"count":12,
			"max":[
				-8.359390258789062,
				4.7926177978515625,
				-7.002536773681641
			],
			"min":[
				-8.74355697631836,
				-8.304080963134766,
				-28.530887603759766
			],
			"type":"VEC3"
		},
		{
			"bufferView":51,
			"componentType":5126,
			"count":12,
			"type":"VEC3"
		},
		{
			"bufferView":52,
			"componentType":5126,
			"count":12,
			"type":"VEC2"
		},
		{
			"bufferView":53,
			"componentType":5126,
			"count":12,
			"type":"VEC2"
		},
		{
			"bufferView":54,
			"componentType":5123,
			"count":18,
			"type":"SCALAR"
		},
		{
			"bufferView":55,
			"componentType":5126,
			"count":12,
			"max":[
				-6.282501220703125,
				4.7926177978515625,
				-7.002536773681641
			],
			"min":[
				-6.666664123535156,
				-8.304080963134766,
				-28.530887603759766
			],
			"type":"VEC3"
		},
		{
			"bufferView":56,
			"componentType":5126,
			"count":12,
			"type":"VEC3"
		},
		{
			"bufferView":57,
			"componentType":5126,
			"count":12,
			"type":"VEC2"
		},
		{
			"bufferView":58,
			"componentType":5126,
			"count":12,
			"type":"VEC2"
		},
		{
			"bufferView":59,
			"componentType":5123,
			"count":18,
			"type":"SCALAR"
		},
		{
			"bufferView":60,
			"componentType":5126,
			"count":4,
			"max":[
				0.5,
				0,
				0.5
			],
			"min":[
				-0.5,
				0,
				-0.5
			],
			"type":"VEC3"
		},
		{
			"bufferView":61,
			"componentType":5126,
			"count":4,
			"type":"VEC3"
		},
		{
			"bufferView":62,
			"componentType":5126,
			"count":4,
			"type":"VEC2"
		},
		{
			"bufferView":63,
			"componentType":5123,
			"count":6,
			"type":"SCALAR"
		}
	],
	"bufferViews":[
		{
			"buffer":0,
			"byteLength":144,
			"byteOffset":0,
			"target":34962
		},
		{
			"buffer":0,
			"byteLength":144,
			"byteOffset":144,
			"target":34962
		},
		{
			"buffer":0,
			"byteLength":96,
			"byteOffset":288,
			"target":34962
		},
		{
			"buffer":0,
			"byteLength":96,
			"byteOffset":384,
			"target":34962
		},
		{
			"buffer":0,
			"byteLength":36,
			"byteOffset":480,
			"target":34963
		},
		{
			"buffer":0,
			"byteLength":48,
			"byteOffset":516,
			"target":34962
		},
		{
			"buffer":0,
			"byteLength":48,
			"byteOffset":564,
			"target":34962
		},
		{
			"buffer":0,
			"byteLength":32,
			"byteOffset":612,
			"target":34962
		},
		{
			"buffer":0,
			"byteLength":32,
			"byteOffset":644,
			"target":34962
		},
		{
			"buffer":0,
			"byteLength":12,
			"byteOffset":676,
			"target":34963
		},
		{
			"buffer":0,
			"byteLength":588,
			"byteOffset":688,
			"target":34962
		},
		{
			"buffer":0,
			"byteLength":588,
			"byteOffset":1276,
			"target":34962
		},
		{
			"buffer":0,
			"byteLength":392,
			"byteOffset":1864,
			"target":34962
		},
		{
			"buffer":0,
			"byteLength":392,
			"byteOffset":2256,
			"target":34962
		},
		{
			"buffer":0,
			"byteLength":228,
			"byteOffset":2648,
			"target":34963
		},
		{
			"buffer":0,
			"byteLength":48,
			"byteOffset":2876,
			"target":34962
		},
		{
			"buffer":0,
			"byteLength":48,
			"byteOffset":2924,
			"target":34962
		},
		{
			"buffer":0,
			"byteLength":32,
			"byteOffset":2972,
			"target":34962
		},
		{
			"buffer":0,
			"byteLength":32,
			"byteOffset":3004,
			"target":34962
		},
		{
			"buffer":0,
			"byteLength":12,
			"byteOffset":3036,
			"target":34963
		},
		{
			"buffer":0,
			"byteLength":48,
			"byteOffset":3048,
			"target":34962
		},
		{
			"buffer":0,
			"byteLength":48,
			"byteOffset":3096,
			"target":34962
		},
		{
			"buffer":0,
			"byteLength":32,
			"byteOffset":3144,
			"target":34962
		},
		{
			"buffer":0,
			"byteLength":32,
			"byteOffset":3176,
			"target":34962
		},
		{
			"buffer":0,
			"byteLength":12,
			"byteOffset":3208,
			"target":34963
		},
		{
			"buffer":0,
			"byteLength":48,
			"byteOffset":3220,
			"target":34962
		},
		{
			"buffer":0,
			"byteLength":48,
			"byteOffset":3268,
			"target":34962
		},
		{
			"buffer":0,
			"byteLength":32,
			"byteOffset":3316,
			"target":34962
		},
		{
			"buffer":0,
			"byteLength":32,
			"byteOffset":3348,
			"target":34962
		},
		{
			"buffer":0,
			"byteLength":12,
			"byteOffset":3380,
			"target":34963
		},
		{
			"buffer":0,
			"byteLength":72,
			"byteOffset":3392,
			"target":34962
		},
		{
			"buffer":0,
			"byteLength":72,
			"byteOffset":3464,
			"target":34962
		},
		{
			"buffer":0,
			"byteLength":48,
			"byteOffset":3536,
			"target":34962
		},
		{
			"buffer":0,
			"byteLength":48,
			"byteOffset":3584,
			"target":34962
		},
		{
			"buffer":0,
			"byteLength":12,
			"byteOffset":3632,
			"target":34963
		},
		{
			"buffer":0,
			"byteLength":48,
			"byteOffset":3644,
			"target":34962
		},
		{
			"buffer":0,
			"byteLength":48,
			"byteOffset":3692,
			"target":34962
		},
		{
			"buffer":0,
			"byteLength":32,
			"byteOffset":3740,
			"target":34962
		},
		{
			"buffer":0,
			"byteLength":32,
			"byteOffset":3772,
			"target":34962
		},
		{
			"buffer":0,
			"byteLength":12,
			"byteOffset":3804,
			"target":34963
		},
		{
			"buffer":0,
			"byteLength":144,
			"byteOffset":3816,
			"target":34962
		},
		{
			"buffer":0,
			"byteLength":144,
			"byteOffset":3960,
			"target":34962
		},
		{
			"buffer":0,
			"byteLength":96,
			"byteOffset":4104,
			"target":34962
		},
		{
			"buffer":0,
			"byteLength":96,
			"byteOffset":4200,
			"target":34962
		},
		{
			"buffer":0,
			"byteLength":36,
			"byteOffset":4296,
			"target":34963
		},
		{
			"buffer":0,
			"byteLength":144,
			"byteOffset":4332,
			"target":34962
		},
		{
			"buffer":0,
			"byteLength":144,
			"byteOffset":4476,
			"target":34962
		},
		{
			"buffer":0,
			"byteLength":96,
			"byteOffset":4620,
			"target":34962
		},
		{
			"buffer":0,
			"byteLength":96,
			"byteOffset":4716,
			"target":34962
		},
		{
			"buffer":0,
			"byteLength":36,
			"byteOffset":4812,
			"target":34963
		},
		{
			"buffer":0,
			"byteLength":144,
			"byteOffset":4848,
			"target":34962
		},
		{
			"buffer":0,
			"byteLength":144,
			"byteOffset":4992,
			"target":34962
		},
		{
			"buffer":0,
			"byteLength":96,
			"byteOffset":5136,
			"target":34962
		},
		{
			"buffer":0,
			"byteLength":96,
			"byteOffset":5232,
			"target":34962
		},
		{
			"buffer":0,
			"byteLength":36,
			"byteOffset":5328,
			"target":34963
		},
		{
			"buffer":0,
			"byteLength":144,
			"byteOffset":5364,
			"target":34962
		},
		{
			"buffer":0,
			"byteLength":144,
			"byteOffset":5508,
			"target":34962
		},
		{
			"buffer":0,
			"byteLength":96,
			"byteOffset":5652,
			"target":34962
		},
		{
			"buffer":0,
			"byteLength":96,
			"byteOffset":5748,
			"target":34962
		},
		{
			"buffer":0,
			"byteLength":36,
			"byteOffset":5844,
			"target":34963
		},
		{
			"buffer":0,
			"byteLength":48,
			"byteOffset":5880,
			"target":34962
		},
		{
			"buffer":0,
			"byteLength":48,
			"byteOffset":5928,
			"target":34962
		},
		{
			"buffer":0,
			"byteLength":32,
			"byteOffset":5976,
			"target":34962
		},
		{
			"buffer":0,
			"byteLength":12,
			"byteOffset":6008,
			"target":34963
		}
	],
	"samplers":[
		{
			"magFilter":9729,
			"minFilter":9987
		}
	],
	"buffers":[
		{
			"byteLength":6020,
			"uri":"small_6.bin"
		}
	]
}
