{
	"asset":{
		"generator":"Khronos glTF Blender I/O v4.3.47",
		"version":"2.0"
	},
	"scene":0,
	"scenes":[
		{
			"name":"Scene",
			"nodes":[
				0,
				1
			]
		}
	],
	"nodes":[
		{
			"mesh":0,
			"name":"Maxis-3d2-mesh-6",
			"rotation":[
				0.70710688829422,
				0,
				0,
				0.7071066498756409
			]
		},
		{
			"extras":{
				"gd_node":"Decal",
				"lower_fade":9,
				"upper_fade":10
			},
			"mesh":1,
			"name":"Ground_AO",
			"scale":[
				25.568302154541016,
				1,
				30.708145141601562
			],
			"translation":[
				-1.3834247589111328,
				-5.786027031717822e-06,
				-0.18194818496704102
			]
		}
	],
	"materials":[
		{
			"name":"matcolour-48.005",
			"occlusionTexture":{
				"index":0,
				"texCoord":1
			},
			"pbrMetallicRoughness":{
				"baseColorFactor":[
					0.05882352963089943,
					0.05882352963089943,
					0.05882352963089943,
					1
				],
				"metallicFactor":0
			}
		},
		{
			"name":"mat2-7",
			"occlusionTexture":{
				"index":1,
				"texCoord":1
			},
			"pbrMetallicRoughness":{
				"baseColorTexture":{
					"index":2
				},
				"metallicFactor":0
			}
		},
		{
			"name":"mat2-4",
			"occlusionTexture":{
				"index":3,
				"texCoord":1
			},
			"pbrMetallicRoughness":{
				"baseColorTexture":{
					"index":4
				},
				"metallicFactor":0
			}
		},
		{
			"name":"mat2-5",
			"occlusionTexture":{
				"index":5,
				"texCoord":1
			},
			"pbrMetallicRoughness":{
				"baseColorTexture":{
					"index":6
				},
				"metallicFactor":0
			}
		},
		{
			"name":"mat2-6",
			"occlusionTexture":{
				"index":7,
				"texCoord":1
			},
			"pbrMetallicRoughness":{
				"baseColorTexture":{
					"index":8
				},
				"metallicFactor":0
			}
		},
		{
			"name":"mat39-31",
			"occlusionTexture":{
				"index":9,
				"texCoord":1
			},
			"pbrMetallicRoughness":{
				"baseColorTexture":{
					"index":10
				},
				"metallicFactor":0
			}
		},
		{
			"name":"mat39-28",
			"occlusionTexture":{
				"index":11,
				"texCoord":1
			},
			"pbrMetallicRoughness":{
				"baseColorTexture":{
					"index":12
				},
				"metallicFactor":0
			}
		},
		{
			"name":"mat39-30",
			"occlusionTexture":{
				"index":13,
				"texCoord":1
			},
			"pbrMetallicRoughness":{
				"baseColorTexture":{
					"index":14
				},
				"metallicFactor":0
			}
		},
		{
			"name":"mat39-29",
			"occlusionTexture":{
				"index":15,
				"texCoord":1
			},
			"pbrMetallicRoughness":{
				"baseColorTexture":{
					"index":16
				},
				"metallicFactor":0
			}
		},
		{
			"name":"Ground_AO",
			"occlusionTexture":{
				"index":17
			},
			"pbrMetallicRoughness":{
				"baseColorFactor":[
					0.800000011920929,
					0.800000011920929,
					0.800000011920929,
					1
				],
				"metallicFactor":0,
				"roughnessFactor":0.5
			}
		}
	],
	"meshes":[
		{
			"name":"Maxis-3d2-mesh-6",
			"primitives":[
				{
					"attributes":{
						"POSITION":0,
						"NORMAL":1,
						"TEXCOORD_0":2,
						"TEXCOORD_1":3
					},
					"indices":4,
					"material":0
				},
				{
					"attributes":{
						"POSITION":5,
						"NORMAL":6,
						"TEXCOORD_0":7,
						"TEXCOORD_1":8
					},
					"indices":9,
					"material":1
				},
				{
					"attributes":{
						"POSITION":10,
						"NORMAL":11,
						"TEXCOORD_0":12,
						"TEXCOORD_1":13
					},
					"indices":14,
					"material":2
				},
				{
					"attributes":{
						"POSITION":15,
						"NORMAL":16,
						"TEXCOORD_0":17,
						"TEXCOORD_1":18
					},
					"indices":19,
					"material":3
				},
				{
					"attributes":{
						"POSITION":20,
						"NORMAL":21,
						"TEXCOORD_0":22,
						"TEXCOORD_1":23
					},
					"indices":24,
					"material":4
				},
				{
					"attributes":{
						"POSITION":25,
						"NORMAL":26,
						"TEXCOORD_0":27,
						"TEXCOORD_1":28
					},
					"indices":29,
					"material":5
				},
				{
					"attributes":{
						"POSITION":30,
						"NORMAL":31,
						"TEXCOORD_0":32,
						"TEXCOORD_1":33
					},
					"indices":34,
					"material":6
				},
				{
					"attributes":{
						"POSITION":35,
						"NORMAL":36,
						"TEXCOORD_0":37,
						"TEXCOORD_1":38
					},
					"indices":39,
					"material":7
				},
				{
					"attributes":{
						"POSITION":40,
						"NORMAL":41,
						"TEXCOORD_0":42,
						"TEXCOORD_1":43
					},
					"indices":29,
					"material":8
				}
			]
		},
		{
			"name":"Plane",
			"primitives":[
				{
					"attributes":{
						"POSITION":44,
						"NORMAL":45,
						"TEXCOORD_0":46
					},
					"indices":47,
					"material":9
				}
			]
		}
	],
	"textures":[
		{
			"sampler":0,
			"source":0
		},
		{
			"sampler":0,
			"source":0
		},
		{
			"sampler":0,
			"source":1
		},
		{
			"sampler":0,
			"source":0
		},
		{
			"sampler":0,
			"source":2
		},
		{
			"sampler":0,
			"source":0
		},
		{
			"sampler":0,
			"source":3
		},
		{
			"sampler":0,
			"source":0
		},
		{
			"sampler":0,
			"source":4
		},
		{
			"sampler":0,
			"source":0
		},
		{
			"sampler":0,
			"source":5
		},
		{
			"sampler":0,
			"source":0
		},
		{
			"sampler":0,
			"source":6
		},
		{
			"sampler":0,
			"source":0
		},
		{
			"sampler":0,
			"source":7
		},
		{
			"sampler":0,
			"source":0
		},
		{
			"sampler":0,
			"source":8
		},
		{
			"sampler":0,
			"source":9
		}
	],
	"images":[
		{
			"mimeType":"image/png",
			"name":"small_2.png",
			"uri":"../../../Textures/ambient_occlusion/Buildings/Factory/small_2.png"
		},
		{
			"mimeType":"image/png",
			"name":"tex2-7",
			"uri":"../../../Textures/tex2-7.png"
		},
		{
			"mimeType":"image/png",
			"name":"tex2-4",
			"uri":"../../../Textures/tex2-4.png"
		},
		{
			"mimeType":"image/png",
			"name":"tex2-5",
			"uri":"../../../Textures/tex2-5.png"
		},
		{
			"mimeType":"image/png",
			"name":"tex2-6",
			"uri":"../../../Textures/tex2-6.png"
		},
		{
			"mimeType":"image/png",
			"name":"tex39-31",
			"uri":"../../../Textures/tex39-31.png"
		},
		{
			"mimeType":"image/png",
			"name":"tex39-28",
			"uri":"../../../Textures/tex39-28.png"
		},
		{
			"mimeType":"image/png",
			"name":"tex39-30",
			"uri":"../../../Textures/tex39-30.png"
		},
		{
			"mimeType":"image/png",
			"name":"tex39-29",
			"uri":"../../../Textures/tex39-29.png"
		},
		{
			"mimeType":"image/png",
			"name":"small_2_ground.png",
			"uri":"../../../Textures/ambient_occlusion/Buildings/Factory/small_2_ground.png"
		}
	],
	"accessors":[
		{
			"bufferView":0,
			"componentType":5126,
			"count":89,
			"max":[
				10.900726318359375,
				14.672119140625,
				3.814697265625e-06
			],
			"min":[
				-13.66757583618164,
				-15.036022186279297,
				-18.218368530273438
			],
			"type":"VEC3"
		},
		{
			"bufferView":1,
			"componentType":5126,
			"count":89,
			"type":"VEC3"
		},
		{
			"bufferView":2,
			"componentType":5126,
			"count":89,
			"type":"VEC2"
		},
		{
			"bufferView":3,
			"componentType":5126,
			"count":89,
			"type":"VEC2"
		},
		{
			"bufferView":4,
			"componentType":5123,
			"count":174,
			"type":"SCALAR"
		},
		{
			"bufferView":5,
			"componentType":5126,
			"count":12,
			"max":[
				10.900726318359375,
				8.591442108154297,
				0
			],
			"min":[
				-11.091094970703125,
				-6.7110137939453125,
				-16.88150405883789
			],
			"type":"VEC3"
		},
		{
			"bufferView":6,
			"componentType":5126,
			"count":12,
			"type":"VEC3"
		},
		{
			"bufferView":7,
			"componentType":5126,
			"count":12,
			"type":"VEC2"
		},
		{
			"bufferView":8,
			"componentType":5126,
			"count":12,
			"type":"VEC2"
		},
		{
			"bufferView":9,
			"componentType":5123,
			"count":18,
			"type":"SCALAR"
		},
		{
			"bufferView":10,
			"componentType":5126,
			"count":12,
			"max":[
				10.900726318359375,
				-6.130123138427734,
				0
			],
			"min":[
				-11.091094970703125,
				-15.036022186279297,
				-16.881492614746094
			],
			"type":"VEC3"
		},
		{
			"bufferView":11,
			"componentType":5126,
			"count":12,
			"type":"VEC3"
		},
		{
			"bufferView":12,
			"componentType":5126,
			"count":12,
			"type":"VEC2"
		},
		{
			"bufferView":13,
			"componentType":5126,
			"count":12,
			"type":"VEC2"
		},
		{
			"bufferView":14,
			"componentType":5123,
			"count":18,
			"type":"SCALAR"
		},
		{
			"bufferView":15,
			"componentType":5126,
			"count":12,
			"max":[
				1.0147857666015625,
				8.591442108154297,
				0
			],
			"min":[
				-11.091094970703125,
				-15.036022186279297,
				-16.88150405883789
			],
			"type":"VEC3"
		},
		{
			"bufferView":16,
			"componentType":5126,
			"count":12,
			"type":"VEC3"
		},
		{
			"bufferView":17,
			"componentType":5126,
			"count":12,
			"type":"VEC2"
		},
		{
			"bufferView":18,
			"componentType":5126,
			"count":12,
			"type":"VEC2"
		},
		{
			"bufferView":19,
			"componentType":5123,
			"count":18,
			"type":"SCALAR"
		},
		{
			"bufferView":20,
			"componentType":5126,
			"count":12,
			"max":[
				10.900726318359375,
				8.591442108154297,
				0
			],
			"min":[
				-6.123661041259766,
				-15.036022186279297,
				-16.88150405883789
			],
			"type":"VEC3"
		},
		{
			"bufferView":21,
			"componentType":5126,
			"count":12,
			"type":"VEC3"
		},
		{
			"bufferView":22,
			"componentType":5126,
			"count":12,
			"type":"VEC2"
		},
		{
			"bufferView":23,
			"componentType":5126,
			"count":12,
			"type":"VEC2"
		},
		{
			"bufferView":24,
			"componentType":5123,
			"count":18,
			"type":"SCALAR"
		},
		{
			"bufferView":25,
			"componentType":5126,
			"count":4,
			"max":[
				9.464763641357422,
				14.672122955322266,
				-7.62939453125e-06
			],
			"min":[
				-13.66757583618164,
				14.672119140625,
				-14.465751647949219
			],
			"type":"VEC3"
		},
		{
			"bufferView":26,
			"componentType":5126,
			"count":4,
			"type":"VEC3"
		},
		{
			"bufferView":27,
			"componentType":5126,
			"count":4,
			"type":"VEC2"
		},
		{
			"bufferView":28,
			"componentType":5126,
			"count":4,
			"type":"VEC2"
		},
		{
			"bufferView":29,
			"componentType":5123,
			"count":6,
			"type":"SCALAR"
		},
		{
			"bufferView":30,
			"componentType":5126,
			"count":4,
			"max":[
				9.464763641357422,
				-6.532524108886719,
				0
			],
			"min":[
				-13.66757583618164,
				-6.532527923583984,
				-14.465740203857422
			],
			"type":"VEC3"
		},
		{
			"bufferView":31,
			"componentType":5126,
			"count":4,
			"type":"VEC3"
		},
		{
			"bufferView":32,
			"componentType":5126,
			"count":4,
			"type":"VEC2"
		},
		{
			"bufferView":33,
			"componentType":5126,
			"count":4,
			"type":"VEC2"
		},
		{
			"bufferView":34,
			"componentType":5123,
			"count":6,
			"type":"SCALAR"
		},
		{
			"bufferView":35,
			"componentType":5126,
			"count":4,
			"max":[
				9.464763641357422,
				14.672122955322266,
				0
			],
			"min":[
				9.464763641357422,
				-6.532527923583984,
				-14.465751647949219
			],
			"type":"VEC3"
		},
		{
			"bufferView":36,
			"componentType":5126,
			"count":4,
			"type":"VEC3"
		},
		{
			"bufferView":37,
			"componentType":5126,
			"count":4,
			"type":"VEC2"
		},
		{
			"bufferView":38,
			"componentType":5126,
			"count":4,
			"type":"VEC2"
		},
		{
			"bufferView":39,
			"componentType":5123,
			"count":6,
			"type":"SCALAR"
		},
		{
			"bufferView":40,
			"componentType":5126,
			"count":4,
			"max":[
				-13.66757583618164,
				14.672122955322266,
				0
			],
			"min":[
				-13.66757583618164,
				-6.532527923583984,
				-14.465751647949219
			],
			"type":"VEC3"
		},
		{
			"bufferView":41,
			"componentType":5126,
			"count":4,
			"type":"VEC3"
		},
		{
			"bufferView":42,
			"componentType":5126,
			"count":4,
			"type":"VEC2"
		},
		{
			"bufferView":43,
			"componentType":5126,
			"count":4,
			"type":"VEC2"
		},
		{
			"bufferView":44,
			"componentType":5126,
			"count":4,
			"max":[
				0.5,
				0,
				0.5
			],
			"min":[
				-0.5,
				0,
				-0.5
			],
			"type":"VEC3"
		},
		{
			"bufferView":45,
			"componentType":5126,
			"count":4,
			"type":"VEC3"
		},
		{
			"bufferView":46,
			"componentType":5126,
			"count":4,
			"type":"VEC2"
		},
		{
			"bufferView":47,
			"componentType":5123,
			"count":6,
			"type":"SCALAR"
		}
	],
	"bufferViews":[
		{
			"buffer":0,
			"byteLength":1068,
			"byteOffset":0,
			"target":34962
		},
		{
			"buffer":0,
			"byteLength":1068,
			"byteOffset":1068,
			"target":34962
		},
		{
			"buffer":0,
			"byteLength":712,
			"byteOffset":2136,
			"target":34962
		},
		{
			"buffer":0,
			"byteLength":712,
			"byteOffset":2848,
			"target":34962
		},
		{
			"buffer":0,
			"byteLength":348,
			"byteOffset":3560,
			"target":34963
		},
		{
			"buffer":0,
			"byteLength":144,
			"byteOffset":3908,
			"target":34962
		},
		{
			"buffer":0,
			"byteLength":144,
			"byteOffset":4052,
			"target":34962
		},
		{
			"buffer":0,
			"byteLength":96,
			"byteOffset":4196,
			"target":34962
		},
		{
			"buffer":0,
			"byteLength":96,
			"byteOffset":4292,
			"target":34962
		},
		{
			"buffer":0,
			"byteLength":36,
			"byteOffset":4388,
			"target":34963
		},
		{
			"buffer":0,
			"byteLength":144,
			"byteOffset":4424,
			"target":34962
		},
		{
			"buffer":0,
			"byteLength":144,
			"byteOffset":4568,
			"target":34962
		},
		{
			"buffer":0,
			"byteLength":96,
			"byteOffset":4712,
			"target":34962
		},
		{
			"buffer":0,
			"byteLength":96,
			"byteOffset":4808,
			"target":34962
		},
		{
			"buffer":0,
			"byteLength":36,
			"byteOffset":4904,
			"target":34963
		},
		{
			"buffer":0,
			"byteLength":144,
			"byteOffset":4940,
			"target":34962
		},
		{
			"buffer":0,
			"byteLength":144,
			"byteOffset":5084,
			"target":34962
		},
		{
			"buffer":0,
			"byteLength":96,
			"byteOffset":5228,
			"target":34962
		},
		{
			"buffer":0,
			"byteLength":96,
			"byteOffset":5324,
			"target":34962
		},
		{
			"buffer":0,
			"byteLength":36,
			"byteOffset":5420,
			"target":34963
		},
		{
			"buffer":0,
			"byteLength":144,
			"byteOffset":5456,
			"target":34962
		},
		{
			"buffer":0,
			"byteLength":144,
			"byteOffset":5600,
			"target":34962
		},
		{
			"buffer":0,
			"byteLength":96,
			"byteOffset":5744,
			"target":34962
		},
		{
			"buffer":0,
			"byteLength":96,
			"byteOffset":5840,
			"target":34962
		},
		{
			"buffer":0,
			"byteLength":36,
			"byteOffset":5936,
			"target":34963
		},
		{
			"buffer":0,
			"byteLength":48,
			"byteOffset":5972,
			"target":34962
		},
		{
			"buffer":0,
			"byteLength":48,
			"byteOffset":6020,
			"target":34962
		},
		{
			"buffer":0,
			"byteLength":32,
			"byteOffset":6068,
			"target":34962
		},
		{
			"buffer":0,
			"byteLength":32,
			"byteOffset":6100,
			"target":34962
		},
		{
			"buffer":0,
			"byteLength":12,
			"byteOffset":6132,
			"target":34963
		},
		{
			"buffer":0,
			"byteLength":48,
			"byteOffset":6144,
			"target":34962
		},
		{
			"buffer":0,
			"byteLength":48,
			"byteOffset":6192,
			"target":34962
		},
		{
			"buffer":0,
			"byteLength":32,
			"byteOffset":6240,
			"target":34962
		},
		{
			"buffer":0,
			"byteLength":32,
			"byteOffset":6272,
			"target":34962
		},
		{
			"buffer":0,
			"byteLength":12,
			"byteOffset":6304,
			"target":34963
		},
		{
			"buffer":0,
			"byteLength":48,
			"byteOffset":6316,
			"target":34962
		},
		{
			"buffer":0,
			"byteLength":48,
			"byteOffset":6364,
			"target":34962
		},
		{
			"buffer":0,
			"byteLength":32,
			"byteOffset":6412,
			"target":34962
		},
		{
			"buffer":0,
			"byteLength":32,
			"byteOffset":6444,
			"target":34962
		},
		{
			"buffer":0,
			"byteLength":12,
			"byteOffset":6476,
			"target":34963
		},
		{
			"buffer":0,
			"byteLength":48,
			"byteOffset":6488,
			"target":34962
		},
		{
			"buffer":0,
			"byteLength":48,
			"byteOffset":6536,
			"target":34962
		},
		{
			"buffer":0,
			"byteLength":32,
			"byteOffset":6584,
			"target":34962
		},
		{
			"buffer":0,
			"byteLength":32,
			"byteOffset":6616,
			"target":34962
		},
		{
			"buffer":0,
			"byteLength":48,
			"byteOffset":6648,
			"target":34962
		},
		{
			"buffer":0,
			"byteLength":48,
			"byteOffset":6696,
			"target":34962
		},
		{
			"buffer":0,
			"byteLength":32,
			"byteOffset":6744,
			"target":34962
		},
		{
			"buffer":0,
			"byteLength":12,
			"byteOffset":6776,
			"target":34963
		}
	],
	"samplers":[
		{
			"magFilter":9729,
			"minFilter":9987
		}
	],
	"buffers":[
		{
			"byteLength":6788,
			"uri":"small_2.bin"
		}
	]
}
