{
	"asset":{
		"generator":"Khronos glTF Blender I/O v4.5.48",
		"version":"2.0"
	},
	"scene":0,
	"scenes":[
		{
			"name":"Scene",
			"nodes":[
				3,
				4,
				5
			]
		}
	],
	"nodes":[
		{
			"extras":{
				"gltf_export":true,
				"texture_size":1
			},
			"mesh":0,
			"name":"Barrier",
			"translation":[
				0.7066025733947754,
				-7.418187618255615,
				22.03302574157715
			]
		},
		{
			"extras":{
				"gltf_export":true,
				"texture_size":1
			},
			"mesh":1,
			"name":"Fence",
			"translation":[
				23.744983673095703,
				-6.085700988769531,
				-3.781100273132324
			]
		},
		{
			"extras":{
				"gltf_export":true,
				"texture_size":1
			},
			"mesh":2,
			"name":"Sign",
			"rotation":[
				0.7071068286895752,
				0,
				0,
				0.7071068286895752
			],
			"translation":[
				-2.558802604675293,
				-2.0786852836608887,
				9.815147399902344
			]
		},
		{
			"children":[
				0,
				1,
				2
			],
			"extras":{
				"booleans":{},
				"gltf_export":true,
				"texture_size":4
			},
			"mesh":3,
			"name":"Police Station",
			"translation":[
				-6.321097373962402,
				8.085700988769531,
				-5.940774917602539
			]
		},
		{
			"extras":{
				"gltf_export":true,
				"gd_node":"Occluder"
			},
			"mesh":4,
			"name":"Police Station Base",
			"translation":[
				-6.321097373962402,
				8.085700988769531,
				-5.940774917602539
			]
		},
		{
			"extras":{
				"gltf_export":true,
				"gd_node":"Collision"
			},
			"mesh":4,
			"name":"Collider",
			"translation":[
				-6.321097373962402,
				8.085700988769531,
				-5.940774917602539
			]
		}
	],
	"materials":[
		{
			"name":"ORM Material",
			"normalTexture":{
				"index":0
			},
			"occlusionTexture":{
				"index":1
			},
			"pbrMetallicRoughness":{
				"baseColorTexture":{
					"index":2
				},
				"metallicRoughnessTexture":{
					"index":1
				}
			}
		},
		{
			"name":"ORM Material.001",
			"normalTexture":{
				"index":3
			},
			"occlusionTexture":{
				"index":4
			},
			"pbrMetallicRoughness":{
				"baseColorTexture":{
					"index":5
				},
				"metallicRoughnessTexture":{
					"index":4
				}
			}
		},
		{
			"name":"ORM Material.003",
			"normalTexture":{
				"index":6
			},
			"occlusionTexture":{
				"index":7
			},
			"pbrMetallicRoughness":{
				"baseColorTexture":{
					"index":8
				},
				"metallicRoughnessTexture":{
					"index":7
				}
			}
		},
		{
			"emissiveFactor":[
				1,
				1,
				1
			],
			"emissiveTexture":{
				"index":9
			},
			"name":"ORM Material.002",
			"normalTexture":{
				"index":10
			},
			"occlusionTexture":{
				"index":11
			},
			"pbrMetallicRoughness":{
				"baseColorTexture":{
					"index":12
				},
				"metallicRoughnessTexture":{
					"index":11
				}
			}
		}
	],
	"meshes":[
		{
			"name":"Barrier",
			"primitives":[
				{
					"attributes":{
						"POSITION":0,
						"NORMAL":1,
						"TEXCOORD_0":2
					},
					"indices":3,
					"material":0
				}
			]
		},
		{
			"name":"Cube",
			"primitives":[
				{
					"attributes":{
						"POSITION":4,
						"NORMAL":5,
						"TEXCOORD_0":6
					},
					"indices":7,
					"material":1
				}
			]
		},
		{
			"name":"Sign",
			"primitives":[
				{
					"attributes":{
						"POSITION":8,
						"NORMAL":9,
						"TEXCOORD_0":10
					},
					"indices":11,
					"material":2
				}
			]
		},
		{
			"name":"Police Station",
			"primitives":[
				{
					"attributes":{
						"POSITION":12,
						"NORMAL":13,
						"TEXCOORD_0":14
					},
					"indices":15,
					"material":3
				}
			]
		},
		{
			"name":"Police Station Base",
			"primitives":[
				{
					"attributes":{
						"POSITION":16,
						"NORMAL":17,
						"TEXCOORD_0":18
					},
					"indices":19
				}
			]
		}
	],
	"textures":[
		{
			"sampler":0,
			"source":0
		},
		{
			"sampler":0,
			"source":1
		},
		{
			"sampler":0,
			"source":2
		},
		{
			"sampler":0,
			"source":3
		},
		{
			"sampler":0,
			"source":4
		},
		{
			"sampler":0,
			"source":5
		},
		{
			"sampler":0,
			"source":6
		},
		{
			"sampler":0,
			"source":7
		},
		{
			"sampler":0,
			"source":8
		},
		{
			"sampler":0,
			"source":9
		},
		{
			"sampler":0,
			"source":10
		},
		{
			"sampler":0,
			"source":11
		},
		{
			"sampler":0,
			"source":12
		}
	],
	"images":[
		{
			"mimeType":"image/png",
			"name":"barrier_normal",
			"uri":"barrier_normal.png"
		},
		{
			"mimeType":"image/png",
			"name":"barrier_orm",
			"uri":"barrier_orm.png"
		},
		{
			"mimeType":"image/png",
			"name":"barrier_diffuse",
			"uri":"barrier_diffuse.png"
		},
		{
			"mimeType":"image/png",
			"name":"fence_normal",
			"uri":"fence_normal.png"
		},
		{
			"mimeType":"image/png",
			"name":"fence_orm",
			"uri":"fence_orm.png"
		},
		{
			"mimeType":"image/png",
			"name":"fence_diffuse",
			"uri":"fence_diffuse.png"
		},
		{
			"mimeType":"image/png",
			"name":"sign_normal",
			"uri":"sign_normal.png"
		},
		{
			"mimeType":"image/png",
			"name":"sign_orm",
			"uri":"sign_orm.png"
		},
		{
			"mimeType":"image/png",
			"name":"sign_diffuse",
			"uri":"sign_diffuse.png"
		},
		{
			"mimeType":"image/png",
			"name":"police_station_emission",
			"uri":"police_station_emission.png"
		},
		{
			"mimeType":"image/png",
			"name":"police_station_normal",
			"uri":"police_station_normal.png"
		},
		{
			"mimeType":"image/png",
			"name":"police_station_orm",
			"uri":"police_station_orm.png"
		},
		{
			"mimeType":"image/png",
			"name":"police_station_diffuse",
			"uri":"police_station_diffuse.png"
		}
	],
	"accessors":[
		{
			"bufferView":0,
			"componentType":5126,
			"count":596,
			"max":[
				13.499999046325684,
				0.1500004529953003,
				0.12990382313728333
			],
			"min":[
				-13.499999046325684,
				-0.6499999761581421,
				-0.12990382313728333
			],
			"type":"VEC3"
		},
		{
			"bufferView":1,
			"componentType":5126,
			"count":596,
			"type":"VEC3"
		},
		{
			"bufferView":2,
			"componentType":5126,
			"count":596,
			"type":"VEC2"
		},
		{
			"bufferView":3,
			"componentType":5123,
			"count":1152,
			"type":"SCALAR"
		},
		{
			"bufferView":4,
			"componentType":5126,
			"count":11344,
			"max":[
				3.684619665145874,
				0.9935535192489624,
				12.052858352661133
			],
			"min":[
				-3.5340657234191895,
				-2,
				-12.052858352661133
			],
			"type":"VEC3"
		},
		{
			"bufferView":5,
			"componentType":5126,
			"count":11344,
			"type":"VEC3"
		},
		{
			"bufferView":6,
			"componentType":5126,
			"count":11344,
			"type":"VEC2"
		},
		{
			"bufferView":7,
			"componentType":5123,
			"count":32034,
			"type":"SCALAR"
		},
		{
			"bufferView":8,
			"componentType":5126,
			"count":572,
			"max":[
				8.684900283813477,
				0,
				0.018083181232213974
			],
			"min":[
				0.129294753074646,
				-0.15000000596046448,
				-1.3019890785217285
			],
			"type":"VEC3"
		},
		{
			"bufferView":9,
			"componentType":5126,
			"count":572,
			"type":"VEC3"
		},
		{
			"bufferView":10,
			"componentType":5126,
			"count":572,
			"type":"VEC2"
		},
		{
			"bufferView":11,
			"componentType":5123,
			"count":1080,
			"type":"SCALAR"
		},
		{
			"bufferView":12,
			"componentType":5126,
			"count":11040,
			"max":[
				30.32109832763672,
				18.044292449951172,
				29.94077491760254
			],
			"min":[
				-17.67890167236328,
				-8.085700988769531,
				-18.05922508239746
			],
			"type":"VEC3"
		},
		{
			"bufferView":13,
			"componentType":5126,
			"count":11040,
			"type":"VEC3"
		},
		{
			"bufferView":14,
			"componentType":5126,
			"count":11040,
			"type":"VEC2"
		},
		{
			"bufferView":15,
			"componentType":5123,
			"count":21900,
			"type":"SCALAR"
		},
		{
			"bufferView":16,
			"componentType":5126,
			"count":664,
			"max":[
				20.610916137695312,
				18.044292449951172,
				21.083513259887695
			],
			"min":[
				-15.222407341003418,
				-8.085700988769531,
				-16.083402633666992
			],
			"type":"VEC3"
		},
		{
			"bufferView":17,
			"componentType":5126,
			"count":664,
			"type":"VEC3"
		},
		{
			"bufferView":18,
			"componentType":5126,
			"count":664,
			"type":"VEC2"
		},
		{
			"bufferView":19,
			"componentType":5123,
			"count":1284,
			"type":"SCALAR"
		}
	],
	"bufferViews":[
		{
			"buffer":0,
			"byteLength":7152,
			"byteOffset":0,
			"target":34962
		},
		{
			"buffer":0,
			"byteLength":7152,
			"byteOffset":7152,
			"target":34962
		},
		{
			"buffer":0,
			"byteLength":4768,
			"byteOffset":14304,
			"target":34962
		},
		{
			"buffer":0,
			"byteLength":2304,
			"byteOffset":19072,
			"target":34963
		},
		{
			"buffer":0,
			"byteLength":136128,
			"byteOffset":21376,
			"target":34962
		},
		{
			"buffer":0,
			"byteLength":136128,
			"byteOffset":157504,
			"target":34962
		},
		{
			"buffer":0,
			"byteLength":90752,
			"byteOffset":293632,
			"target":34962
		},
		{
			"buffer":0,
			"byteLength":64068,
			"byteOffset":384384,
			"target":34963
		},
		{
			"buffer":0,
			"byteLength":6864,
			"byteOffset":448452,
			"target":34962
		},
		{
			"buffer":0,
			"byteLength":6864,
			"byteOffset":455316,
			"target":34962
		},
		{
			"buffer":0,
			"byteLength":4576,
			"byteOffset":462180,
			"target":34962
		},
		{
			"buffer":0,
			"byteLength":2160,
			"byteOffset":466756,
			"target":34963
		},
		{
			"buffer":0,
			"byteLength":132480,
			"byteOffset":468916,
			"target":34962
		},
		{
			"buffer":0,
			"byteLength":132480,
			"byteOffset":601396,
			"target":34962
		},
		{
			"buffer":0,
			"byteLength":88320,
			"byteOffset":733876,
			"target":34962
		},
		{
			"buffer":0,
			"byteLength":43800,
			"byteOffset":822196,
			"target":34963
		},
		{
			"buffer":0,
			"byteLength":7968,
			"byteOffset":865996,
			"target":34962
		},
		{
			"buffer":0,
			"byteLength":7968,
			"byteOffset":873964,
			"target":34962
		},
		{
			"buffer":0,
			"byteLength":5312,
			"byteOffset":881932,
			"target":34962
		},
		{
			"buffer":0,
			"byteLength":2568,
			"byteOffset":887244,
			"target":34963
		}
	],
	"samplers":[
		{
			"magFilter":9729,
			"minFilter":9987
		}
	],
	"buffers":[
		{
			"byteLength":889812,
			"uri":"scene.bin"
		}
	]
}
