{
	"asset":{
		"generator":"Khronos glTF Blender I/O v4.1.63",
		"version":"2.0"
	},
	"extensionsUsed":[
		"KHR_materials_clearcoat"
	],
	"scene":0,
	"scenes":[
		{
			"name":"Scene",
			"nodes":[
				0
			]
		}
	],
	"nodes":[
		{
			"mesh":0,
			"name":"Maxis-3d2-mesh-106",
			"rotation":[
				0.70710688829422,
				0,
				0,
				0.7071066498756409
			]
		}
	],
	"materials":[
		{
			"extensions":{
				"KHR_materials_clearcoat":{
					"clearcoatFactor":1,
					"clearcoatRoughnessFactor":0.019999999552965164
				}
			},
			"name":"matcolour-80",
			"occlusionTexture":{
				"index":0
			},
			"pbrMetallicRoughness":{
				"baseColorFactor":[
					0.18431372940540314,
					0.14509804546833038,
					0.03921568766236305,
					1
				],
				"metallicFactor":0
			}
		},
		{
			"extensions":{
				"KHR_materials_clearcoat":{
					"clearcoatFactor":1,
					"clearcoatRoughnessFactor":0.019999999552965164
				}
			},
			"name":"matcolour-16",
			"occlusionTexture":{
				"index":1
			},
			"pbrMetallicRoughness":{
				"baseColorFactor":[
					0.5607843399047852,
					0.062745101749897,
					0.019607843831181526,
					1
				],
				"metallicFactor":0
			}
		},
		{
			"name":"matcolour-0",
			"occlusionTexture":{
				"index":2
			},
			"pbrMetallicRoughness":{
				"baseColorFactor":[
					0,
					0,
					0,
					1
				],
				"metallicFactor":0,
				"roughnessFactor":0
			}
		}
	],
	"meshes":[
		{
			"name":"Maxis-3d2-mesh-106",
			"primitives":[
				{
					"attributes":{
						"POSITION":0,
						"NORMAL":1,
						"TEXCOORD_0":2
					},
					"indices":3,
					"material":0
				},
				{
					"attributes":{
						"POSITION":4,
						"NORMAL":5,
						"TEXCOORD_0":6
					},
					"indices":7,
					"material":1
				},
				{
					"attributes":{
						"POSITION":8,
						"NORMAL":9,
						"TEXCOORD_0":10
					},
					"indices":11,
					"material":2
				}
			]
		}
	],
	"textures":[
		{
			"sampler":0,
			"source":0
		},
		{
			"sampler":0,
			"source":0
		},
		{
			"sampler":0,
			"source":0
		}
	],
	"images":[
		{
			"mimeType":"image/png",
			"name":"helicopter_schweizer_300_ao",
			"uri":"../../../Textures/helicopter_schweizer_300_ao.png"
		}
	],
	"accessors":[
		{
			"bufferView":0,
			"componentType":5126,
			"count":1089,
			"max":[
				0.6293373107910156,
				4.7229461669921875,
				0
			],
			"min":[
				-0.6293373107910156,
				-1.888397216796875,
				-2.2880401611328125
			],
			"type":"VEC3"
		},
		{
			"bufferView":1,
			"componentType":5126,
			"count":1089,
			"type":"VEC3"
		},
		{
			"bufferView":2,
			"componentType":5126,
			"count":1089,
			"type":"VEC2"
		},
		{
			"bufferView":3,
			"componentType":5123,
			"count":1089,
			"type":"SCALAR"
		},
		{
			"bufferView":4,
			"componentType":5126,
			"count":489,
			"max":[
				0.592315673828125,
				4.729656219482422,
				-0.31201171875
			],
			"min":[
				-0.59332275390625,
				-1.6035308837890625,
				-1.7940635681152344
			],
			"type":"VEC3"
		},
		{
			"bufferView":5,
			"componentType":5126,
			"count":489,
			"type":"VEC3"
		},
		{
			"bufferView":6,
			"componentType":5126,
			"count":489,
			"type":"VEC2"
		},
		{
			"bufferView":7,
			"componentType":5123,
			"count":489,
			"type":"SCALAR"
		},
		{
			"bufferView":8,
			"componentType":5126,
			"count":264,
			"max":[
				0.592315673828125,
				-0.061595916748046875,
				-0.6084175109863281
			],
			"min":[
				-0.59332275390625,
				-1.6035308837890625,
				-1.8533439636230469
			],
			"type":"VEC3"
		},
		{
			"bufferView":9,
			"componentType":5126,
			"count":264,
			"type":"VEC3"
		},
		{
			"bufferView":10,
			"componentType":5126,
			"count":264,
			"type":"VEC2"
		},
		{
			"bufferView":11,
			"componentType":5123,
			"count":264,
			"type":"SCALAR"
		}
	],
	"bufferViews":[
		{
			"buffer":0,
			"byteLength":13068,
			"byteOffset":0,
			"target":34962
		},
		{
			"buffer":0,
			"byteLength":13068,
			"byteOffset":13068,
			"target":34962
		},
		{
			"buffer":0,
			"byteLength":8712,
			"byteOffset":26136,
			"target":34962
		},
		{
			"buffer":0,
			"byteLength":2178,
			"byteOffset":34848,
			"target":34963
		},
		{
			"buffer":0,
			"byteLength":5868,
			"byteOffset":37028,
			"target":34962
		},
		{
			"buffer":0,
			"byteLength":5868,
			"byteOffset":42896,
			"target":34962
		},
		{
			"buffer":0,
			"byteLength":3912,
			"byteOffset":48764,
			"target":34962
		},
		{
			"buffer":0,
			"byteLength":978,
			"byteOffset":52676,
			"target":34963
		},
		{
			"buffer":0,
			"byteLength":3168,
			"byteOffset":53656,
			"target":34962
		},
		{
			"buffer":0,
			"byteLength":3168,
			"byteOffset":56824,
			"target":34962
		},
		{
			"buffer":0,
			"byteLength":2112,
			"byteOffset":59992,
			"target":34962
		},
		{
			"buffer":0,
			"byteLength":528,
			"byteOffset":62104,
			"target":34963
		}
	],
	"samplers":[
		{
			"magFilter":9729,
			"minFilter":9987
		}
	],
	"buffers":[
		{
			"byteLength":62632,
			"uri":"main.bin"
		}
	]
}
