{
	"asset":{
		"generator":"Khronos glTF Blender I/O v4.3.47",
		"version":"2.0"
	},
	"scene":0,
	"scenes":[
		{
			"name":"Scene",
			"nodes":[
				0,
				1
			]
		}
	],
	"nodes":[
		{
			"mesh":0,
			"name":"Maxis-3d2-mesh-106",
			"rotation":[
				0.70710688829422,
				0,
				0,
				0.7071066498756409
			]
		},
		{
			"extras":{
				"gd_node":"Decal",
				"lower_fade":9,
				"upper_fade":10
			},
			"mesh":1,
			"name":"Ground_AO",
			"scale":[
				2.2586746215820312,
				1,
				7.618053436279297
			],
			"translation":[
				0,
				0,
				1.4206295013427734
			]
		}
	],
	"materials":[
		{
			"name":"matcolour-80",
			"occlusionTexture":{
				"index":0,
				"texCoord":1
			},
			"pbrMetallicRoughness":{
				"baseColorFactor":[
					0.18431372940540314,
					0.14509804546833038,
					0.03921568766236305,
					1
				],
				"metallicFactor":0
			}
		},
		{
			"name":"matcolour-16",
			"occlusionTexture":{
				"index":1,
				"texCoord":1
			},
			"pbrMetallicRoughness":{
				"baseColorFactor":[
					0.5607843399047852,
					0.062745101749897,
					0.019607843831181526,
					1
				],
				"metallicFactor":0
			}
		},
		{
			"name":"matcolour-0",
			"occlusionTexture":{
				"index":2,
				"texCoord":1
			},
			"pbrMetallicRoughness":{
				"baseColorFactor":[
					0,
					0,
					0,
					1
				],
				"metallicFactor":0
			}
		},
		{
			"name":"Ground_AO.001",
			"occlusionTexture":{
				"index":3
			},
			"pbrMetallicRoughness":{
				"baseColorFactor":[
					0.800000011920929,
					0.800000011920929,
					0.800000011920929,
					1
				],
				"metallicFactor":0,
				"roughnessFactor":0.5
			}
		}
	],
	"meshes":[
		{
			"name":"Maxis-3d2-mesh-106",
			"primitives":[
				{
					"attributes":{
						"POSITION":0,
						"NORMAL":1,
						"TEXCOORD_0":2,
						"TEXCOORD_1":3
					},
					"indices":4,
					"material":0
				},
				{
					"attributes":{
						"POSITION":5,
						"NORMAL":6,
						"TEXCOORD_0":7,
						"TEXCOORD_1":8
					},
					"indices":9,
					"material":1
				},
				{
					"attributes":{
						"POSITION":10,
						"NORMAL":11,
						"TEXCOORD_0":12,
						"TEXCOORD_1":13
					},
					"indices":14,
					"material":2
				}
			]
		},
		{
			"name":"Plane.001",
			"primitives":[
				{
					"attributes":{
						"POSITION":15,
						"NORMAL":16,
						"TEXCOORD_0":17
					},
					"indices":18,
					"material":3
				}
			]
		}
	],
	"textures":[
		{
			"sampler":0,
			"source":0
		},
		{
			"sampler":0,
			"source":0
		},
		{
			"sampler":0,
			"source":0
		},
		{
			"sampler":0,
			"source":1
		}
	],
	"images":[
		{
			"mimeType":"image/png",
			"name":"main.png",
			"uri":"../../../Textures/ambient_occlusion/Helis/schweizer_300/main.png"
		},
		{
			"mimeType":"image/png",
			"name":"main_ground.png",
			"uri":"../../../Textures/ambient_occlusion/Helis/schweizer_300/main_ground.png"
		}
	],
	"accessors":[
		{
			"bufferView":0,
			"componentType":5126,
			"count":631,
			"max":[
				0.6293373107910156,
				4.7229461669921875,
				0
			],
			"min":[
				-0.6293373107910156,
				-1.888397216796875,
				-2.2880401611328125
			],
			"type":"VEC3"
		},
		{
			"bufferView":1,
			"componentType":5126,
			"count":631,
			"type":"VEC3"
		},
		{
			"bufferView":2,
			"componentType":5126,
			"count":631,
			"type":"VEC2"
		},
		{
			"bufferView":3,
			"componentType":5126,
			"count":631,
			"type":"VEC2"
		},
		{
			"bufferView":4,
			"componentType":5123,
			"count":1089,
			"type":"SCALAR"
		},
		{
			"bufferView":5,
			"componentType":5126,
			"count":246,
			"max":[
				0.592315673828125,
				4.729656219482422,
				-0.31201171875
			],
			"min":[
				-0.59332275390625,
				-1.6035308837890625,
				-1.7940635681152344
			],
			"type":"VEC3"
		},
		{
			"bufferView":6,
			"componentType":5126,
			"count":246,
			"type":"VEC3"
		},
		{
			"bufferView":7,
			"componentType":5126,
			"count":246,
			"type":"VEC2"
		},
		{
			"bufferView":8,
			"componentType":5126,
			"count":246,
			"type":"VEC2"
		},
		{
			"bufferView":9,
			"componentType":5123,
			"count":489,
			"type":"SCALAR"
		},
		{
			"bufferView":10,
			"componentType":5126,
			"count":133,
			"max":[
				0.592315673828125,
				-0.061595916748046875,
				-0.6084175109863281
			],
			"min":[
				-0.59332275390625,
				-1.6035308837890625,
				-1.8533439636230469
			],
			"type":"VEC3"
		},
		{
			"bufferView":11,
			"componentType":5126,
			"count":133,
			"type":"VEC3"
		},
		{
			"bufferView":12,
			"componentType":5126,
			"count":133,
			"type":"VEC2"
		},
		{
			"bufferView":13,
			"componentType":5126,
			"count":133,
			"type":"VEC2"
		},
		{
			"bufferView":14,
			"componentType":5123,
			"count":264,
			"type":"SCALAR"
		},
		{
			"bufferView":15,
			"componentType":5126,
			"count":4,
			"max":[
				0.5,
				0,
				0.5
			],
			"min":[
				-0.5,
				0,
				-0.5
			],
			"type":"VEC3"
		},
		{
			"bufferView":16,
			"componentType":5126,
			"count":4,
			"type":"VEC3"
		},
		{
			"bufferView":17,
			"componentType":5126,
			"count":4,
			"type":"VEC2"
		},
		{
			"bufferView":18,
			"componentType":5123,
			"count":6,
			"type":"SCALAR"
		}
	],
	"bufferViews":[
		{
			"buffer":0,
			"byteLength":7572,
			"byteOffset":0,
			"target":34962
		},
		{
			"buffer":0,
			"byteLength":7572,
			"byteOffset":7572,
			"target":34962
		},
		{
			"buffer":0,
			"byteLength":5048,
			"byteOffset":15144,
			"target":34962
		},
		{
			"buffer":0,
			"byteLength":5048,
			"byteOffset":20192,
			"target":34962
		},
		{
			"buffer":0,
			"byteLength":2178,
			"byteOffset":25240,
			"target":34963
		},
		{
			"buffer":0,
			"byteLength":2952,
			"byteOffset":27420,
			"target":34962
		},
		{
			"buffer":0,
			"byteLength":2952,
			"byteOffset":30372,
			"target":34962
		},
		{
			"buffer":0,
			"byteLength":1968,
			"byteOffset":33324,
			"target":34962
		},
		{
			"buffer":0,
			"byteLength":1968,
			"byteOffset":35292,
			"target":34962
		},
		{
			"buffer":0,
			"byteLength":978,
			"byteOffset":37260,
			"target":34963
		},
		{
			"buffer":0,
			"byteLength":1596,
			"byteOffset":38240,
			"target":34962
		},
		{
			"buffer":0,
			"byteLength":1596,
			"byteOffset":39836,
			"target":34962
		},
		{
			"buffer":0,
			"byteLength":1064,
			"byteOffset":41432,
			"target":34962
		},
		{
			"buffer":0,
			"byteLength":1064,
			"byteOffset":42496,
			"target":34962
		},
		{
			"buffer":0,
			"byteLength":528,
			"byteOffset":43560,
			"target":34963
		},
		{
			"buffer":0,
			"byteLength":48,
			"byteOffset":44088,
			"target":34962
		},
		{
			"buffer":0,
			"byteLength":48,
			"byteOffset":44136,
			"target":34962
		},
		{
			"buffer":0,
			"byteLength":32,
			"byteOffset":44184,
			"target":34962
		},
		{
			"buffer":0,
			"byteLength":12,
			"byteOffset":44216,
			"target":34963
		}
	],
	"samplers":[
		{
			"magFilter":9729,
			"minFilter":9987
		}
	],
	"buffers":[
		{
			"byteLength":44228,
			"uri":"main.bin"
		}
	]
}
