{
    "asset" : {
        "generator" : "Khronos glTF Blender I/O v1.7.33",
        "version" : "2.0"
    },
    "scene" : 0,
    "scenes" : [
        {
            "name" : "Scene",
            "nodes" : [
                0
            ]
        }
    ],
    "nodes" : [
        {
            "mesh" : 0,
            "name" : "Maxis-3d3-mesh-11",
            "rotation" : [
                0.7071068286895752,
                0,
                0,
                0.7071067094802856
            ]
        }
    ],
    "materials" : [
        {
            "doubleSided" : true,
            "name" : "mat2-31",
            "pbrMetallicRoughness" : {
                "baseColorTexture" : {
                    "index" : 0
                },
                "metallicFactor" : 0
            }
        },
        {
            "doubleSided" : true,
            "name" : "mat2-28",
            "pbrMetallicRoughness" : {
                "baseColorTexture" : {
                    "index" : 1
                },
                "metallicFactor" : 0
            }
        },
        {
            "doubleSided" : true,
            "name" : "mat2-30",
            "pbrMetallicRoughness" : {
                "baseColorTexture" : {
                    "index" : 2
                },
                "metallicFactor" : 0
            }
        },
        {
            "doubleSided" : true,
            "name" : "mat2-29",
            "pbrMetallicRoughness" : {
                "baseColorTexture" : {
                    "index" : 3
                },
                "metallicFactor" : 0
            }
        },
        {
            "doubleSided" : true,
            "name" : "mat39-44",
            "pbrMetallicRoughness" : {
                "baseColorTexture" : {
                    "index" : 4
                },
                "metallicFactor" : 0
            }
        },
        {
            "doubleSided" : true,
            "name" : "mat39-63.003",
            "pbrMetallicRoughness" : {
                "baseColorTexture" : {
                    "index" : 5
                },
                "metallicFactor" : 0
            }
        },
        {
            "doubleSided" : true,
            "name" : "mat39-62.003",
            "pbrMetallicRoughness" : {
                "baseColorTexture" : {
                    "index" : 6
                },
                "metallicFactor" : 0
            }
        },
        {
            "doubleSided" : true,
            "name" : "mat39-61.003",
            "pbrMetallicRoughness" : {
                "baseColorTexture" : {
                    "index" : 7
                },
                "metallicFactor" : 0
            }
        },
        {
            "doubleSided" : true,
            "name" : "mat39-60.003",
            "pbrMetallicRoughness" : {
                "baseColorTexture" : {
                    "index" : 8
                },
                "metallicFactor" : 0
            }
        },
        {
            "doubleSided" : true,
            "name" : "matcolour-128.003",
            "pbrMetallicRoughness" : {
                "baseColorFactor" : [
                    0.12156862765550613,
                    0.08235294371843338,
                    0.062745101749897,
                    1
                ],
                "metallicFactor" : 0
            }
        }
    ],
    "meshes" : [
        {
            "name" : "Maxis-3d3-mesh-11",
            "primitives" : [
                {
                    "attributes" : {
                        "POSITION" : 0,
                        "NORMAL" : 1,
                        "TEXCOORD_0" : 2
                    },
                    "indices" : 3,
                    "material" : 0
                },
                {
                    "attributes" : {
                        "POSITION" : 4,
                        "NORMAL" : 5,
                        "TEXCOORD_0" : 6
                    },
                    "indices" : 7,
                    "material" : 1
                },
                {
                    "attributes" : {
                        "POSITION" : 8,
                        "NORMAL" : 9,
                        "TEXCOORD_0" : 10
                    },
                    "indices" : 11,
                    "material" : 2
                },
                {
                    "attributes" : {
                        "POSITION" : 12,
                        "NORMAL" : 13,
                        "TEXCOORD_0" : 14
                    },
                    "indices" : 15,
                    "material" : 3
                },
                {
                    "attributes" : {
                        "POSITION" : 16,
                        "NORMAL" : 17,
                        "TEXCOORD_0" : 18
                    },
                    "indices" : 7,
                    "material" : 4
                },
                {
                    "attributes" : {
                        "POSITION" : 19,
                        "NORMAL" : 20,
                        "TEXCOORD_0" : 21
                    },
                    "indices" : 22,
                    "material" : 5
                },
                {
                    "attributes" : {
                        "POSITION" : 23,
                        "NORMAL" : 24,
                        "TEXCOORD_0" : 25
                    },
                    "indices" : 26,
                    "material" : 6
                },
                {
                    "attributes" : {
                        "POSITION" : 27,
                        "NORMAL" : 28,
                        "TEXCOORD_0" : 29
                    },
                    "indices" : 30,
                    "material" : 7
                },
                {
                    "attributes" : {
                        "POSITION" : 31,
                        "NORMAL" : 32,
                        "TEXCOORD_0" : 33
                    },
                    "indices" : 34,
                    "material" : 8
                },
                {
                    "attributes" : {
                        "POSITION" : 35,
                        "NORMAL" : 36,
                        "TEXCOORD_0" : 37
                    },
                    "indices" : 38,
                    "material" : 9
                }
            ]
        }
    ],
    "textures" : [
        {
            "sampler" : 0,
            "source" : 0
        },
        {
            "sampler" : 0,
            "source" : 1
        },
        {
            "sampler" : 0,
            "source" : 2
        },
        {
            "sampler" : 0,
            "source" : 3
        },
        {
            "sampler" : 0,
            "source" : 4
        },
        {
            "sampler" : 0,
            "source" : 5
        },
        {
            "sampler" : 0,
            "source" : 6
        },
        {
            "sampler" : 0,
            "source" : 7
        },
        {
            "sampler" : 0,
            "source" : 8
        }
    ],
    "images" : [
        {
            "mimeType" : "image/png",
            "name" : "tex2-31",
            "uri" : "../../../Textures/tex2-31.png"
        },
        {
            "mimeType" : "image/png",
            "name" : "tex2-28",
            "uri" : "../../../Textures/tex2-28.png"
        },
        {
            "mimeType" : "image/png",
            "name" : "tex2-30",
            "uri" : "../../../Textures/tex2-30.png"
        },
        {
            "mimeType" : "image/png",
            "name" : "tex2-29",
            "uri" : "../../../Textures/tex2-29.png"
        },
        {
            "mimeType" : "image/png",
            "name" : "tex39-44",
            "uri" : "../../../Textures/tex39-44.png"
        },
        {
            "mimeType" : "image/png",
            "name" : "tex39-63",
            "uri" : "../../../Textures/tex39-63.png"
        },
        {
            "mimeType" : "image/png",
            "name" : "tex39-62",
            "uri" : "../../../Textures/tex39-62.png"
        },
        {
            "mimeType" : "image/png",
            "name" : "tex39-61",
            "uri" : "../../../Textures/tex39-61.png"
        },
        {
            "mimeType" : "image/png",
            "name" : "tex39-60",
            "uri" : "../../../Textures/tex39-60.png"
        }
    ],
    "accessors" : [
        {
            "bufferView" : 0,
            "componentType" : 5126,
            "count" : 10,
            "max" : [
                6.145442962646484,
                7.571876525878906,
                0.043125152587890625
            ],
            "min" : [
                -7.3199310302734375,
                -0.07063674926757812,
                -4.953525543212891
            ],
            "type" : "VEC3"
        },
        {
            "bufferView" : 1,
            "componentType" : 5126,
            "count" : 10,
            "type" : "VEC3"
        },
        {
            "bufferView" : 2,
            "componentType" : 5126,
            "count" : 10,
            "type" : "VEC2"
        },
        {
            "bufferView" : 3,
            "componentType" : 5123,
            "count" : 12,
            "type" : "SCALAR"
        },
        {
            "bufferView" : 4,
            "componentType" : 5126,
            "count" : 4,
            "max" : [
                -0.9449310302734375,
                0.26718902587890625,
                0.043121337890625
            ],
            "min" : [
                -7.3199310302734375,
                0.26718902587890625,
                -4.953517913818359
            ],
            "type" : "VEC3"
        },
        {
            "bufferView" : 5,
            "componentType" : 5126,
            "count" : 4,
            "type" : "VEC3"
        },
        {
            "bufferView" : 6,
            "componentType" : 5126,
            "count" : 4,
            "type" : "VEC2"
        },
        {
            "bufferView" : 7,
            "componentType" : 5123,
            "count" : 6,
            "type" : "SCALAR"
        },
        {
            "bufferView" : 8,
            "componentType" : 5126,
            "count" : 12,
            "max" : [
                7.743320465087891,
                7.571876525878906,
                0.043125152587890625
            ],
            "min" : [
                -0.9449310302734375,
                -7.3530731201171875,
                -4.953525543212891
            ],
            "type" : "VEC3"
        },
        {
            "bufferView" : 9,
            "componentType" : 5126,
            "count" : 12,
            "type" : "VEC3"
        },
        {
            "bufferView" : 10,
            "componentType" : 5126,
            "count" : 12,
            "type" : "VEC2"
        },
        {
            "bufferView" : 11,
            "componentType" : 5123,
            "count" : 12,
            "type" : "SCALAR"
        },
        {
            "bufferView" : 12,
            "componentType" : 5126,
            "count" : 10,
            "max" : [
                0.438629150390625,
                7.571876525878906,
                0.043125152587890625
            ],
            "min" : [
                -7.3199310302734375,
                -7.3530731201171875,
                -4.953525543212891
            ],
            "type" : "VEC3"
        },
        {
            "bufferView" : 13,
            "componentType" : 5126,
            "count" : 10,
            "type" : "VEC3"
        },
        {
            "bufferView" : 14,
            "componentType" : 5126,
            "count" : 10,
            "type" : "VEC2"
        },
        {
            "bufferView" : 15,
            "componentType" : 5123,
            "count" : 12,
            "type" : "SCALAR"
        },
        {
            "bufferView" : 16,
            "componentType" : 5126,
            "count" : 4,
            "max" : [
                7.743320465087891,
                -7.3530731201171875,
                0.043125152587890625
            ],
            "min" : [
                0.438629150390625,
                -7.3530731201171875,
                -4.953517913818359
            ],
            "type" : "VEC3"
        },
        {
            "bufferView" : 17,
            "componentType" : 5126,
            "count" : 4,
            "type" : "VEC3"
        },
        {
            "bufferView" : 18,
            "componentType" : 5126,
            "count" : 4,
            "type" : "VEC2"
        },
        {
            "bufferView" : 19,
            "componentType" : 5126,
            "count" : 15,
            "max" : [
                7.743320465087891,
                7.571872711181641,
                0.043125152587890625
            ],
            "min" : [
                -7.3199310302734375,
                -0.9866294860839844,
                -8.694366455078125
            ],
            "type" : "VEC3"
        },
        {
            "bufferView" : 20,
            "componentType" : 5126,
            "count" : 15,
            "type" : "VEC3"
        },
        {
            "bufferView" : 21,
            "componentType" : 5126,
            "count" : 15,
            "type" : "VEC2"
        },
        {
            "bufferView" : 22,
            "componentType" : 5123,
            "count" : 21,
            "type" : "SCALAR"
        },
        {
            "bufferView" : 23,
            "componentType" : 5126,
            "count" : 7,
            "max" : [
                7.743320465087891,
                -0.07049560546875,
                0.043125152587890625
            ],
            "min" : [
                6.145442962646484,
                -7.3530731201171875,
                -8.694358825683594
            ],
            "type" : "VEC3"
        },
        {
            "bufferView" : 24,
            "componentType" : 5126,
            "count" : 7,
            "type" : "VEC3"
        },
        {
            "bufferView" : 25,
            "componentType" : 5126,
            "count" : 7,
            "type" : "VEC2"
        },
        {
            "bufferView" : 26,
            "componentType" : 5123,
            "count" : 9,
            "type" : "SCALAR"
        },
        {
            "bufferView" : 27,
            "componentType" : 5126,
            "count" : 9,
            "max" : [
                2.0369300842285156,
                -0.07049560546875,
                0.043125152587890625
            ],
            "min" : [
                0.438629150390625,
                -7.3530731201171875,
                -8.694358825683594
            ],
            "type" : "VEC3"
        },
        {
            "bufferView" : 28,
            "componentType" : 5126,
            "count" : 9,
            "type" : "VEC3"
        },
        {
            "bufferView" : 29,
            "componentType" : 5126,
            "count" : 9,
            "type" : "VEC2"
        },
        {
            "bufferView" : 30,
            "componentType" : 5123,
            "count" : 9,
            "type" : "SCALAR"
        },
        {
            "bufferView" : 31,
            "componentType" : 5126,
            "count" : 3,
            "max" : [
                -0.9449310302734375,
                0.26718902587890625,
                -4.953517913818359
            ],
            "min" : [
                -7.3199310302734375,
                0.2671852111816406,
                -8.69436264038086
            ],
            "type" : "VEC3"
        },
        {
            "bufferView" : 32,
            "componentType" : 5126,
            "count" : 3,
            "type" : "VEC3"
        },
        {
            "bufferView" : 33,
            "componentType" : 5126,
            "count" : 3,
            "type" : "VEC2"
        },
        {
            "bufferView" : 34,
            "componentType" : 5123,
            "count" : 3,
            "type" : "SCALAR"
        },
        {
            "bufferView" : 35,
            "componentType" : 5126,
            "count" : 28,
            "max" : [
                7.743320465087891,
                7.571872711181641,
                -2.3987960815429688
            ],
            "min" : [
                -7.3199310302734375,
                -7.3530731201171875,
                -8.694366455078125
            ],
            "type" : "VEC3"
        },
        {
            "bufferView" : 36,
            "componentType" : 5126,
            "count" : 28,
            "type" : "VEC3"
        },
        {
            "bufferView" : 37,
            "componentType" : 5126,
            "count" : 28,
            "type" : "VEC2"
        },
        {
            "bufferView" : 38,
            "componentType" : 5123,
            "count" : 30,
            "type" : "SCALAR"
        }
    ],
    "bufferViews" : [
        {
            "buffer" : 0,
            "byteLength" : 120,
            "byteOffset" : 0
        },
        {
            "buffer" : 0,
            "byteLength" : 120,
            "byteOffset" : 120
        },
        {
            "buffer" : 0,
            "byteLength" : 80,
            "byteOffset" : 240
        },
        {
            "buffer" : 0,
            "byteLength" : 24,
            "byteOffset" : 320
        },
        {
            "buffer" : 0,
            "byteLength" : 48,
            "byteOffset" : 344
        },
        {
            "buffer" : 0,
            "byteLength" : 48,
            "byteOffset" : 392
        },
        {
            "buffer" : 0,
            "byteLength" : 32,
            "byteOffset" : 440
        },
        {
            "buffer" : 0,
            "byteLength" : 12,
            "byteOffset" : 472
        },
        {
            "buffer" : 0,
            "byteLength" : 144,
            "byteOffset" : 484
        },
        {
            "buffer" : 0,
            "byteLength" : 144,
            "byteOffset" : 628
        },
        {
            "buffer" : 0,
            "byteLength" : 96,
            "byteOffset" : 772
        },
        {
            "buffer" : 0,
            "byteLength" : 24,
            "byteOffset" : 868
        },
        {
            "buffer" : 0,
            "byteLength" : 120,
            "byteOffset" : 892
        },
        {
            "buffer" : 0,
            "byteLength" : 120,
            "byteOffset" : 1012
        },
        {
            "buffer" : 0,
            "byteLength" : 80,
            "byteOffset" : 1132
        },
        {
            "buffer" : 0,
            "byteLength" : 24,
            "byteOffset" : 1212
        },
        {
            "buffer" : 0,
            "byteLength" : 48,
            "byteOffset" : 1236
        },
        {
            "buffer" : 0,
            "byteLength" : 48,
            "byteOffset" : 1284
        },
        {
            "buffer" : 0,
            "byteLength" : 32,
            "byteOffset" : 1332
        },
        {
            "buffer" : 0,
            "byteLength" : 180,
            "byteOffset" : 1364
        },
        {
            "buffer" : 0,
            "byteLength" : 180,
            "byteOffset" : 1544
        },
        {
            "buffer" : 0,
            "byteLength" : 120,
            "byteOffset" : 1724
        },
        {
            "buffer" : 0,
            "byteLength" : 42,
            "byteOffset" : 1844
        },
        {
            "buffer" : 0,
            "byteLength" : 84,
            "byteOffset" : 1888
        },
        {
            "buffer" : 0,
            "byteLength" : 84,
            "byteOffset" : 1972
        },
        {
            "buffer" : 0,
            "byteLength" : 56,
            "byteOffset" : 2056
        },
        {
            "buffer" : 0,
            "byteLength" : 18,
            "byteOffset" : 2112
        },
        {
            "buffer" : 0,
            "byteLength" : 108,
            "byteOffset" : 2132
        },
        {
            "buffer" : 0,
            "byteLength" : 108,
            "byteOffset" : 2240
        },
        {
            "buffer" : 0,
            "byteLength" : 72,
            "byteOffset" : 2348
        },
        {
            "buffer" : 0,
            "byteLength" : 18,
            "byteOffset" : 2420
        },
        {
            "buffer" : 0,
            "byteLength" : 36,
            "byteOffset" : 2440
        },
        {
            "buffer" : 0,
            "byteLength" : 36,
            "byteOffset" : 2476
        },
        {
            "buffer" : 0,
            "byteLength" : 24,
            "byteOffset" : 2512
        },
        {
            "buffer" : 0,
            "byteLength" : 6,
            "byteOffset" : 2536
        },
        {
            "buffer" : 0,
            "byteLength" : 336,
            "byteOffset" : 2544
        },
        {
            "buffer" : 0,
            "byteLength" : 336,
            "byteOffset" : 2880
        },
        {
            "buffer" : 0,
            "byteLength" : 224,
            "byteOffset" : 3216
        },
        {
            "buffer" : 0,
            "byteLength" : 60,
            "byteOffset" : 3440
        }
    ],
    "samplers" : [
        {
            "magFilter" : 9729,
            "minFilter" : 9987
        }
    ],
    "buffers" : [
        {
            "byteLength" : 3500,
            "uri" : "lower_class_3.bin"
        }
    ]
}
