{
	"asset":{
		"generator":"Khronos glTF Blender I/O v4.1.63",
		"version":"2.0"
	},
	"scene":0,
	"scenes":[
		{
			"name":"Scene",
			"nodes":[
				0
			]
		}
	],
	"nodes":[
		{
			"mesh":0,
			"name":"Maxis-3d3-mesh-9",
			"rotation":[
				0.70710688829422,
				0,
				0,
				0.7071066498756409
			]
		}
	],
	"materials":[
		{
			"name":"mat2-36",
			"pbrMetallicRoughness":{
				"baseColorTexture":{
					"index":0
				},
				"metallicFactor":0
			}
		},
		{
			"name":"mat40-37",
			"pbrMetallicRoughness":{
				"baseColorTexture":{
					"index":1
				},
				"metallicFactor":0
			}
		},
		{
			"name":"mat39-61",
			"pbrMetallicRoughness":{
				"baseColorTexture":{
					"index":2
				},
				"metallicFactor":0
			}
		}
	],
	"meshes":[
		{
			"name":"Maxis-3d3-mesh-9",
			"primitives":[
				{
					"attributes":{
						"POSITION":0,
						"NORMAL":1,
						"TEXCOORD_0":2
					},
					"indices":3,
					"material":0
				},
				{
					"attributes":{
						"POSITION":4,
						"NORMAL":5,
						"TEXCOORD_0":6
					},
					"indices":7,
					"material":0
				},
				{
					"attributes":{
						"POSITION":8,
						"NORMAL":9,
						"TEXCOORD_0":10
					},
					"indices":11,
					"material":0
				},
				{
					"attributes":{
						"POSITION":12,
						"NORMAL":13,
						"TEXCOORD_0":14
					},
					"indices":15,
					"material":0
				},
				{
					"attributes":{
						"POSITION":16,
						"NORMAL":17,
						"TEXCOORD_0":18
					},
					"indices":19,
					"material":1
				},
				{
					"attributes":{
						"POSITION":20,
						"NORMAL":21,
						"TEXCOORD_0":22
					},
					"indices":23,
					"material":1
				},
				{
					"attributes":{
						"POSITION":24,
						"NORMAL":25,
						"TEXCOORD_0":26
					},
					"indices":27,
					"material":1
				},
				{
					"attributes":{
						"POSITION":28,
						"NORMAL":29,
						"TEXCOORD_0":30
					},
					"indices":31,
					"material":1
				},
				{
					"attributes":{
						"POSITION":32,
						"NORMAL":33,
						"TEXCOORD_0":34
					},
					"indices":35,
					"material":2
				},
				{
					"attributes":{
						"POSITION":36,
						"NORMAL":37,
						"TEXCOORD_0":38
					},
					"indices":35,
					"material":2
				},
				{
					"attributes":{
						"POSITION":39,
						"NORMAL":40,
						"TEXCOORD_0":41
					},
					"indices":35,
					"material":2
				},
				{
					"attributes":{
						"POSITION":42,
						"NORMAL":43,
						"TEXCOORD_0":44
					},
					"indices":45,
					"material":2
				}
			]
		}
	],
	"textures":[
		{
			"sampler":0,
			"source":0
		},
		{
			"sampler":0,
			"source":1
		},
		{
			"sampler":0,
			"source":2
		}
	],
	"images":[
		{
			"mimeType":"image/png",
			"name":"tex2-36",
			"uri":"../../../Textures/tex2-36.png"
		},
		{
			"mimeType":"image/png",
			"name":"tex40-37",
			"uri":"../../../Textures/tex40-37.png"
		},
		{
			"mimeType":"image/png",
			"name":"tex39-61",
			"uri":"../../../Textures/tex39-61.png"
		}
	],
	"accessors":[
		{
			"bufferView":0,
			"componentType":5126,
			"count":8,
			"max":[
				6.949760437011719,
				-6.660636901855469,
				-0.01622772216796875
			],
			"min":[
				-6.824623107910156,
				-6.660858154296875,
				-5.292758941650391
			],
			"type":"VEC3"
		},
		{
			"bufferView":1,
			"componentType":5126,
			"count":8,
			"type":"VEC3"
		},
		{
			"bufferView":2,
			"componentType":5126,
			"count":8,
			"type":"VEC2"
		},
		{
			"bufferView":3,
			"componentType":5123,
			"count":12,
			"type":"SCALAR"
		},
		{
			"bufferView":4,
			"componentType":5126,
			"count":10,
			"max":[
				6.949760437011719,
				6.814144134521484,
				-0.01622772216796875
			],
			"min":[
				-6.824623107910156,
				-1.6137046813964844,
				-5.292957305908203
			],
			"type":"VEC3"
		},
		{
			"bufferView":5,
			"componentType":5126,
			"count":10,
			"type":"VEC3"
		},
		{
			"bufferView":6,
			"componentType":5126,
			"count":10,
			"type":"VEC2"
		},
		{
			"bufferView":7,
			"componentType":5123,
			"count":12,
			"type":"SCALAR"
		},
		{
			"bufferView":8,
			"componentType":5126,
			"count":10,
			"max":[
				6.949760437011719,
				6.814144134521484,
				-0.01622772216796875
			],
			"min":[
				-1.0121879577636719,
				-6.660858154296875,
				-5.292957305908203
			],
			"type":"VEC3"
		},
		{
			"bufferView":9,
			"componentType":5126,
			"count":10,
			"type":"VEC3"
		},
		{
			"bufferView":10,
			"componentType":5126,
			"count":10,
			"type":"VEC2"
		},
		{
			"bufferView":11,
			"componentType":5123,
			"count":12,
			"type":"SCALAR"
		},
		{
			"bufferView":12,
			"componentType":5126,
			"count":4,
			"max":[
				-6.824623107910156,
				6.814140319824219,
				-0.016300201416015625
			],
			"min":[
				-6.824623107910156,
				-6.660697937011719,
				-5.292766571044922
			],
			"type":"VEC3"
		},
		{
			"bufferView":13,
			"componentType":5126,
			"count":4,
			"type":"VEC3"
		},
		{
			"bufferView":14,
			"componentType":5126,
			"count":4,
			"type":"VEC2"
		},
		{
			"bufferView":15,
			"componentType":5123,
			"count":6,
			"type":"SCALAR"
		},
		{
			"bufferView":16,
			"componentType":5126,
			"count":4,
			"max":[
				-3.9184036254882812,
				6.814140319824219,
				-5.292758941650391
			],
			"min":[
				-6.824623107910156,
				-6.660678863525391,
				-7.514434814453125
			],
			"type":"VEC3"
		},
		{
			"bufferView":17,
			"componentType":5126,
			"count":4,
			"type":"VEC3"
		},
		{
			"bufferView":18,
			"componentType":5126,
			"count":4,
			"type":"VEC2"
		},
		{
			"bufferView":19,
			"componentType":5123,
			"count":6,
			"type":"SCALAR"
		},
		{
			"bufferView":20,
			"componentType":5126,
			"count":6,
			"max":[
				-1.0112800598144531,
				6.814140319824219,
				-5.292758941650391
			],
			"min":[
				-3.9184036254882812,
				-6.660678863525391,
				-7.514434814453125
			],
			"type":"VEC3"
		},
		{
			"bufferView":21,
			"componentType":5126,
			"count":6,
			"type":"VEC3"
		},
		{
			"bufferView":22,
			"componentType":5126,
			"count":6,
			"type":"VEC2"
		},
		{
			"bufferView":23,
			"componentType":5123,
			"count":6,
			"type":"SCALAR"
		},
		{
			"bufferView":24,
			"componentType":5126,
			"count":6,
			"max":[
				6.949760437011719,
				-1.6131477355957031,
				-5.292762756347656
			],
			"min":[
				-1.011505126953125,
				-4.20965576171875,
				-7.514427185058594
			],
			"type":"VEC3"
		},
		{
			"bufferView":25,
			"componentType":5126,
			"count":6,
			"type":"VEC3"
		},
		{
			"bufferView":26,
			"componentType":5126,
			"count":6,
			"type":"VEC2"
		},
		{
			"bufferView":27,
			"componentType":5123,
			"count":6,
			"type":"SCALAR"
		},
		{
			"bufferView":28,
			"componentType":5126,
			"count":4,
			"max":[
				6.949756622314453,
				-4.20965576171875,
				-5.292758941650391
			],
			"min":[
				-1.0112800598144531,
				-6.6608428955078125,
				-7.514427185058594
			],
			"type":"VEC3"
		},
		{
			"bufferView":29,
			"componentType":5126,
			"count":4,
			"type":"VEC3"
		},
		{
			"bufferView":30,
			"componentType":5126,
			"count":4,
			"type":"VEC2"
		},
		{
			"bufferView":31,
			"componentType":5123,
			"count":6,
			"type":"SCALAR"
		},
		{
			"bufferView":32,
			"componentType":5126,
			"count":3,
			"max":[
				-1.0103111267089844,
				-1.6131477355957031,
				-5.292758941650391
			],
			"min":[
				-1.011505126953125,
				-6.660636901855469,
				-7.514427185058594
			],
			"type":"VEC3"
		},
		{
			"bufferView":33,
			"componentType":5126,
			"count":3,
			"type":"VEC3"
		},
		{
			"bufferView":34,
			"componentType":5126,
			"count":3,
			"type":"VEC2"
		},
		{
			"bufferView":35,
			"componentType":5123,
			"count":3,
			"type":"SCALAR"
		},
		{
			"bufferView":36,
			"componentType":5126,
			"count":3,
			"max":[
				6.949760437011719,
				-1.61346435546875,
				-5.292758941650391
			],
			"min":[
				6.949756622314453,
				-6.6608428955078125,
				-7.514427185058594
			],
			"type":"VEC3"
		},
		{
			"bufferView":37,
			"componentType":5126,
			"count":3,
			"type":"VEC3"
		},
		{
			"bufferView":38,
			"componentType":5126,
			"count":3,
			"type":"VEC2"
		},
		{
			"bufferView":39,
			"componentType":5126,
			"count":3,
			"max":[
				-1.0112800598144531,
				-6.660636901855469,
				-5.292758941650391
			],
			"min":[
				-6.824623107910156,
				-6.660678863525391,
				-7.514427185058594
			],
			"type":"VEC3"
		},
		{
			"bufferView":40,
			"componentType":5126,
			"count":3,
			"type":"VEC3"
		},
		{
			"bufferView":41,
			"componentType":5126,
			"count":3,
			"type":"VEC2"
		},
		{
			"bufferView":42,
			"componentType":5126,
			"count":3,
			"max":[
				-1.0121879577636719,
				6.814140319824219,
				-5.292766571044922
			],
			"min":[
				-6.824623107910156,
				6.814140319824219,
				-7.514434814453125
			],
			"type":"VEC3"
		},
		{
			"bufferView":43,
			"componentType":5126,
			"count":3,
			"type":"VEC3"
		},
		{
			"bufferView":44,
			"componentType":5126,
			"count":3,
			"type":"VEC2"
		},
		{
			"bufferView":45,
			"componentType":5123,
			"count":3,
			"type":"SCALAR"
		}
	],
	"bufferViews":[
		{
			"buffer":0,
			"byteLength":96,
			"byteOffset":0,
			"target":34962
		},
		{
			"buffer":0,
			"byteLength":96,
			"byteOffset":96,
			"target":34962
		},
		{
			"buffer":0,
			"byteLength":64,
			"byteOffset":192,
			"target":34962
		},
		{
			"buffer":0,
			"byteLength":24,
			"byteOffset":256,
			"target":34963
		},
		{
			"buffer":0,
			"byteLength":120,
			"byteOffset":280,
			"target":34962
		},
		{
			"buffer":0,
			"byteLength":120,
			"byteOffset":400,
			"target":34962
		},
		{
			"buffer":0,
			"byteLength":80,
			"byteOffset":520,
			"target":34962
		},
		{
			"buffer":0,
			"byteLength":24,
			"byteOffset":600,
			"target":34963
		},
		{
			"buffer":0,
			"byteLength":120,
			"byteOffset":624,
			"target":34962
		},
		{
			"buffer":0,
			"byteLength":120,
			"byteOffset":744,
			"target":34962
		},
		{
			"buffer":0,
			"byteLength":80,
			"byteOffset":864,
			"target":34962
		},
		{
			"buffer":0,
			"byteLength":24,
			"byteOffset":944,
			"target":34963
		},
		{
			"buffer":0,
			"byteLength":48,
			"byteOffset":968,
			"target":34962
		},
		{
			"buffer":0,
			"byteLength":48,
			"byteOffset":1016,
			"target":34962
		},
		{
			"buffer":0,
			"byteLength":32,
			"byteOffset":1064,
			"target":34962
		},
		{
			"buffer":0,
			"byteLength":12,
			"byteOffset":1096,
			"target":34963
		},
		{
			"buffer":0,
			"byteLength":48,
			"byteOffset":1108,
			"target":34962
		},
		{
			"buffer":0,
			"byteLength":48,
			"byteOffset":1156,
			"target":34962
		},
		{
			"buffer":0,
			"byteLength":32,
			"byteOffset":1204,
			"target":34962
		},
		{
			"buffer":0,
			"byteLength":12,
			"byteOffset":1236,
			"target":34963
		},
		{
			"buffer":0,
			"byteLength":72,
			"byteOffset":1248,
			"target":34962
		},
		{
			"buffer":0,
			"byteLength":72,
			"byteOffset":1320,
			"target":34962
		},
		{
			"buffer":0,
			"byteLength":48,
			"byteOffset":1392,
			"target":34962
		},
		{
			"buffer":0,
			"byteLength":12,
			"byteOffset":1440,
			"target":34963
		},
		{
			"buffer":0,
			"byteLength":72,
			"byteOffset":1452,
			"target":34962
		},
		{
			"buffer":0,
			"byteLength":72,
			"byteOffset":1524,
			"target":34962
		},
		{
			"buffer":0,
			"byteLength":48,
			"byteOffset":1596,
			"target":34962
		},
		{
			"buffer":0,
			"byteLength":12,
			"byteOffset":1644,
			"target":34963
		},
		{
			"buffer":0,
			"byteLength":48,
			"byteOffset":1656,
			"target":34962
		},
		{
			"buffer":0,
			"byteLength":48,
			"byteOffset":1704,
			"target":34962
		},
		{
			"buffer":0,
			"byteLength":32,
			"byteOffset":1752,
			"target":34962
		},
		{
			"buffer":0,
			"byteLength":12,
			"byteOffset":1784,
			"target":34963
		},
		{
			"buffer":0,
			"byteLength":36,
			"byteOffset":1796,
			"target":34962
		},
		{
			"buffer":0,
			"byteLength":36,
			"byteOffset":1832,
			"target":34962
		},
		{
			"buffer":0,
			"byteLength":24,
			"byteOffset":1868,
			"target":34962
		},
		{
			"buffer":0,
			"byteLength":6,
			"byteOffset":1892,
			"target":34963
		},
		{
			"buffer":0,
			"byteLength":36,
			"byteOffset":1900,
			"target":34962
		},
		{
			"buffer":0,
			"byteLength":36,
			"byteOffset":1936,
			"target":34962
		},
		{
			"buffer":0,
			"byteLength":24,
			"byteOffset":1972,
			"target":34962
		},
		{
			"buffer":0,
			"byteLength":36,
			"byteOffset":1996,
			"target":34962
		},
		{
			"buffer":0,
			"byteLength":36,
			"byteOffset":2032,
			"target":34962
		},
		{
			"buffer":0,
			"byteLength":24,
			"byteOffset":2068,
			"target":34962
		},
		{
			"buffer":0,
			"byteLength":36,
			"byteOffset":2092,
			"target":34962
		},
		{
			"buffer":0,
			"byteLength":36,
			"byteOffset":2128,
			"target":34962
		},
		{
			"buffer":0,
			"byteLength":24,
			"byteOffset":2164,
			"target":34962
		},
		{
			"buffer":0,
			"byteLength":6,
			"byteOffset":2188,
			"target":34963
		}
	],
	"samplers":[
		{
			"magFilter":9729,
			"minFilter":9987
		}
	],
	"buffers":[
		{
			"byteLength":2196,
			"uri":"lower_class_1.bin"
		}
	]
}
