{
	"asset":{
		"generator":"Khronos glTF Blender I/O v4.3.47",
		"version":"2.0"
	},
	"scene":0,
	"scenes":[
		{
			"name":"Scene",
			"nodes":[
				0,
				1
			]
		}
	],
	"nodes":[
		{
			"mesh":0,
			"name":"Maxis-3d3-mesh-11",
			"rotation":[
				0.70710688829422,
				0,
				0,
				0.7071066498756409
			]
		},
		{
			"extras":{
				"gd_node":"Decal",
				"lower_fade":9,
				"upper_fade":10
			},
			"mesh":1,
			"name":"Ground_AO",
			"scale":[
				16.063251495361328,
				1,
				15.924951553344727
			],
			"translation":[
				0.21169471740722656,
				-0.04312744364142418,
				0.10940313339233398
			]
		}
	],
	"materials":[
		{
			"name":"mat2-31",
			"occlusionTexture":{
				"index":0,
				"texCoord":1
			},
			"pbrMetallicRoughness":{
				"baseColorTexture":{
					"index":1
				},
				"metallicFactor":0
			}
		},
		{
			"name":"mat39-63",
			"occlusionTexture":{
				"index":2,
				"texCoord":1
			},
			"pbrMetallicRoughness":{
				"baseColorTexture":{
					"index":3
				},
				"metallicFactor":0
			}
		},
		{
			"name":"matcolour-128",
			"occlusionTexture":{
				"index":4,
				"texCoord":1
			},
			"pbrMetallicRoughness":{
				"baseColorFactor":[
					0.12156862765550613,
					0.08235294371843338,
					0.062745101749897,
					1
				],
				"metallicFactor":0
			}
		},
		{
			"name":"Ground_AO",
			"occlusionTexture":{
				"index":5
			},
			"pbrMetallicRoughness":{
				"baseColorFactor":[
					0.800000011920929,
					0.800000011920929,
					0.800000011920929,
					1
				],
				"metallicFactor":0,
				"roughnessFactor":0.5
			}
		}
	],
	"meshes":[
		{
			"name":"Maxis-3d3-mesh-11",
			"primitives":[
				{
					"attributes":{
						"POSITION":0,
						"NORMAL":1,
						"TEXCOORD_0":2,
						"TEXCOORD_1":3
					},
					"indices":4,
					"material":0
				},
				{
					"attributes":{
						"POSITION":5,
						"NORMAL":6,
						"TEXCOORD_0":7,
						"TEXCOORD_1":8
					},
					"indices":9,
					"material":1
				},
				{
					"attributes":{
						"POSITION":10,
						"NORMAL":11,
						"TEXCOORD_0":12,
						"TEXCOORD_1":13
					},
					"indices":14,
					"material":2
				}
			]
		},
		{
			"name":"Plane",
			"primitives":[
				{
					"attributes":{
						"POSITION":15,
						"NORMAL":16,
						"TEXCOORD_0":17
					},
					"indices":18,
					"material":3
				}
			]
		}
	],
	"textures":[
		{
			"sampler":0,
			"source":0
		},
		{
			"sampler":0,
			"source":1
		},
		{
			"sampler":0,
			"source":0
		},
		{
			"sampler":0,
			"source":2
		},
		{
			"sampler":0,
			"source":0
		},
		{
			"sampler":0,
			"source":3
		}
	],
	"images":[
		{
			"mimeType":"image/png",
			"name":"lower_class_3.png",
			"uri":"../../../Textures/ambient_occlusion/Buildings/Home/lower_class_3.png"
		},
		{
			"mimeType":"image/png",
			"name":"tex2-31",
			"uri":"../../../Textures/tex2-31.png"
		},
		{
			"mimeType":"image/png",
			"name":"tex39-63",
			"uri":"../../../Textures/tex39-63.png"
		},
		{
			"mimeType":"image/png",
			"name":"lower_class_3_ground.png",
			"uri":"../../../Textures/ambient_occlusion/Buildings/Home/lower_class_3_ground.png"
		}
	],
	"accessors":[
		{
			"bufferView":0,
			"componentType":5126,
			"count":34,
			"max":[
				7.743320465087891,
				7.571876525878906,
				0.043125152587890625
			],
			"min":[
				-7.3199310302734375,
				-7.3530731201171875,
				-4.953525543212891
			],
			"type":"VEC3"
		},
		{
			"bufferView":1,
			"componentType":5126,
			"count":34,
			"type":"VEC3"
		},
		{
			"bufferView":2,
			"componentType":5126,
			"count":34,
			"type":"VEC2"
		},
		{
			"bufferView":3,
			"componentType":5126,
			"count":34,
			"type":"VEC2"
		},
		{
			"bufferView":4,
			"componentType":5123,
			"count":48,
			"type":"SCALAR"
		},
		{
			"bufferView":5,
			"componentType":5126,
			"count":28,
			"max":[
				7.743320465087891,
				7.571872711181641,
				0.043125152587890625
			],
			"min":[
				-7.3199310302734375,
				-7.3530731201171875,
				-8.694366455078125
			],
			"type":"VEC3"
		},
		{
			"bufferView":6,
			"componentType":5126,
			"count":28,
			"type":"VEC3"
		},
		{
			"bufferView":7,
			"componentType":5126,
			"count":28,
			"type":"VEC2"
		},
		{
			"bufferView":8,
			"componentType":5126,
			"count":28,
			"type":"VEC2"
		},
		{
			"bufferView":9,
			"componentType":5123,
			"count":42,
			"type":"SCALAR"
		},
		{
			"bufferView":10,
			"componentType":5126,
			"count":22,
			"max":[
				7.743320465087891,
				7.571872711181641,
				-2.3987960815429688
			],
			"min":[
				-7.3199310302734375,
				-7.3530731201171875,
				-8.694366455078125
			],
			"type":"VEC3"
		},
		{
			"bufferView":11,
			"componentType":5126,
			"count":22,
			"type":"VEC3"
		},
		{
			"bufferView":12,
			"componentType":5126,
			"count":22,
			"type":"VEC2"
		},
		{
			"bufferView":13,
			"componentType":5126,
			"count":22,
			"type":"VEC2"
		},
		{
			"bufferView":14,
			"componentType":5123,
			"count":30,
			"type":"SCALAR"
		},
		{
			"bufferView":15,
			"componentType":5126,
			"count":4,
			"max":[
				0.5,
				0,
				0.5
			],
			"min":[
				-0.5,
				0,
				-0.5
			],
			"type":"VEC3"
		},
		{
			"bufferView":16,
			"componentType":5126,
			"count":4,
			"type":"VEC3"
		},
		{
			"bufferView":17,
			"componentType":5126,
			"count":4,
			"type":"VEC2"
		},
		{
			"bufferView":18,
			"componentType":5123,
			"count":6,
			"type":"SCALAR"
		}
	],
	"bufferViews":[
		{
			"buffer":0,
			"byteLength":408,
			"byteOffset":0,
			"target":34962
		},
		{
			"buffer":0,
			"byteLength":408,
			"byteOffset":408,
			"target":34962
		},
		{
			"buffer":0,
			"byteLength":272,
			"byteOffset":816,
			"target":34962
		},
		{
			"buffer":0,
			"byteLength":272,
			"byteOffset":1088,
			"target":34962
		},
		{
			"buffer":0,
			"byteLength":96,
			"byteOffset":1360,
			"target":34963
		},
		{
			"buffer":0,
			"byteLength":336,
			"byteOffset":1456,
			"target":34962
		},
		{
			"buffer":0,
			"byteLength":336,
			"byteOffset":1792,
			"target":34962
		},
		{
			"buffer":0,
			"byteLength":224,
			"byteOffset":2128,
			"target":34962
		},
		{
			"buffer":0,
			"byteLength":224,
			"byteOffset":2352,
			"target":34962
		},
		{
			"buffer":0,
			"byteLength":84,
			"byteOffset":2576,
			"target":34963
		},
		{
			"buffer":0,
			"byteLength":264,
			"byteOffset":2660,
			"target":34962
		},
		{
			"buffer":0,
			"byteLength":264,
			"byteOffset":2924,
			"target":34962
		},
		{
			"buffer":0,
			"byteLength":176,
			"byteOffset":3188,
			"target":34962
		},
		{
			"buffer":0,
			"byteLength":176,
			"byteOffset":3364,
			"target":34962
		},
		{
			"buffer":0,
			"byteLength":60,
			"byteOffset":3540,
			"target":34963
		},
		{
			"buffer":0,
			"byteLength":48,
			"byteOffset":3600,
			"target":34962
		},
		{
			"buffer":0,
			"byteLength":48,
			"byteOffset":3648,
			"target":34962
		},
		{
			"buffer":0,
			"byteLength":32,
			"byteOffset":3696,
			"target":34962
		},
		{
			"buffer":0,
			"byteLength":12,
			"byteOffset":3728,
			"target":34963
		}
	],
	"samplers":[
		{
			"magFilter":9729,
			"minFilter":9987
		}
	],
	"buffers":[
		{
			"byteLength":3740,
			"uri":"lower_class_3.bin"
		}
	]
}
