{
	"asset":{
		"generator":"Khronos glTF Blender I/O v4.3.47",
		"version":"2.0"
	},
	"scene":0,
	"scenes":[
		{
			"name":"Scene",
			"nodes":[
				0,
				1
			]
		}
	],
	"nodes":[
		{
			"mesh":0,
			"name":"Maxis-3d3-mesh-10",
			"rotation":[
				0.70710688829422,
				0,
				0,
				0.7071066498756409
			]
		},
		{
			"extras":{
				"gd_node":"Decal",
				"lower_fade":9,
				"upper_fade":10
			},
			"mesh":1,
			"name":"Ground_AO",
			"scale":[
				10.548587799072266,
				1,
				15.766464233398438
			],
			"translation":[
				-1.7859973907470703,
				-0.4174826443195343,
				-0.06311726570129395
			]
		}
	],
	"materials":[
		{
			"name":"mat39-14",
			"occlusionTexture":{
				"index":0,
				"texCoord":1
			},
			"pbrMetallicRoughness":{
				"baseColorTexture":{
					"index":1
				},
				"metallicFactor":0
			}
		},
		{
			"name":"mat39-22",
			"occlusionTexture":{
				"index":2,
				"texCoord":1
			},
			"pbrMetallicRoughness":{
				"baseColorTexture":{
					"index":3
				},
				"metallicFactor":0
			}
		},
		{
			"name":"mat2-39.001",
			"occlusionTexture":{
				"index":4,
				"texCoord":1
			},
			"pbrMetallicRoughness":{
				"baseColorTexture":{
					"index":5
				},
				"metallicFactor":0
			}
		},
		{
			"name":"matcolour-48",
			"occlusionTexture":{
				"index":6,
				"texCoord":1
			},
			"pbrMetallicRoughness":{
				"baseColorFactor":[
					0.05882352963089943,
					0.05882352963089943,
					0.05882352963089943,
					1
				],
				"metallicFactor":0
			}
		},
		{
			"name":"Ground_AO",
			"occlusionTexture":{
				"index":7
			},
			"pbrMetallicRoughness":{
				"baseColorFactor":[
					0.800000011920929,
					0.800000011920929,
					0.800000011920929,
					1
				],
				"metallicFactor":0,
				"roughnessFactor":0.5
			}
		}
	],
	"meshes":[
		{
			"name":"Maxis-3d3-mesh-10",
			"primitives":[
				{
					"attributes":{
						"POSITION":0,
						"NORMAL":1,
						"TEXCOORD_0":2,
						"TEXCOORD_1":3
					},
					"indices":4,
					"material":0
				},
				{
					"attributes":{
						"POSITION":5,
						"NORMAL":6,
						"TEXCOORD_0":7,
						"TEXCOORD_1":8
					},
					"indices":9,
					"material":1
				},
				{
					"attributes":{
						"POSITION":10,
						"NORMAL":11,
						"TEXCOORD_0":12,
						"TEXCOORD_1":13
					},
					"indices":14,
					"material":2
				},
				{
					"attributes":{
						"POSITION":15,
						"NORMAL":16,
						"TEXCOORD_0":17,
						"TEXCOORD_1":18
					},
					"indices":19,
					"material":3
				}
			]
		},
		{
			"name":"Plane",
			"primitives":[
				{
					"attributes":{
						"POSITION":20,
						"NORMAL":21,
						"TEXCOORD_0":22
					},
					"indices":23,
					"material":4
				}
			]
		}
	],
	"textures":[
		{
			"sampler":0,
			"source":0
		},
		{
			"sampler":0,
			"source":1
		},
		{
			"sampler":0,
			"source":0
		},
		{
			"sampler":0,
			"source":2
		},
		{
			"sampler":0,
			"source":0
		},
		{
			"sampler":0,
			"source":3
		},
		{
			"sampler":0,
			"source":0
		},
		{
			"sampler":0,
			"source":4
		}
	],
	"images":[
		{
			"mimeType":"image/png",
			"name":"lower_class_2.png",
			"uri":"../../../Textures/ambient_occlusion/Buildings/Home/lower_class_2.png"
		},
		{
			"mimeType":"image/png",
			"name":"tex39-14",
			"uri":"../../../Textures/tex39-14.png"
		},
		{
			"mimeType":"image/png",
			"name":"tex39-22",
			"uri":"../../../Textures/tex39-22.png"
		},
		{
			"mimeType":"image/png",
			"name":"tex2-39",
			"uri":"../../../Textures/tex2-39.png"
		},
		{
			"mimeType":"image/png",
			"name":"lower_class_2_ground.png",
			"uri":"../../../Textures/ambient_occlusion/Buildings/Home/lower_class_2_ground.png"
		}
	],
	"accessors":[
		{
			"bufferView":0,
			"componentType":5126,
			"count":16,
			"max":[
				2.95587158203125,
				7.320110321044922,
				-0.012676239013671875
			],
			"min":[
				-6.560291290283203,
				-7.44635009765625,
				-8.544414520263672
			],
			"type":"VEC3"
		},
		{
			"bufferView":1,
			"componentType":5126,
			"count":16,
			"type":"VEC3"
		},
		{
			"bufferView":2,
			"componentType":5126,
			"count":16,
			"type":"VEC2"
		},
		{
			"bufferView":3,
			"componentType":5126,
			"count":16,
			"type":"VEC2"
		},
		{
			"bufferView":4,
			"componentType":5123,
			"count":24,
			"type":"SCALAR"
		},
		{
			"bufferView":5,
			"componentType":5126,
			"count":18,
			"max":[
				1.0288505554199219,
				4.329898834228516,
				-8.54440689086914
			],
			"min":[
				-4.633266448974609,
				-4.456142425537109,
				-13.560504913330078
			],
			"type":"VEC3"
		},
		{
			"bufferView":6,
			"componentType":5126,
			"count":18,
			"type":"VEC3"
		},
		{
			"bufferView":7,
			"componentType":5126,
			"count":18,
			"type":"VEC2"
		},
		{
			"bufferView":8,
			"componentType":5126,
			"count":18,
			"type":"VEC2"
		},
		{
			"bufferView":9,
			"componentType":5123,
			"count":24,
			"type":"SCALAR"
		},
		{
			"bufferView":10,
			"componentType":5126,
			"count":12,
			"max":[
				2.9882965087890625,
				3.919830322265625,
				0.41748046875
			],
			"min":[
				2.9882965087890625,
				-4.093818664550781,
				-3.2172889709472656
			],
			"type":"VEC3"
		},
		{
			"bufferView":11,
			"componentType":5126,
			"count":12,
			"type":"VEC3"
		},
		{
			"bufferView":12,
			"componentType":5126,
			"count":12,
			"type":"VEC2"
		},
		{
			"bufferView":13,
			"componentType":5126,
			"count":12,
			"type":"VEC2"
		},
		{
			"bufferView":14,
			"componentType":5123,
			"count":18,
			"type":"SCALAR"
		},
		{
			"bufferView":15,
			"componentType":5126,
			"count":36,
			"max":[
				2.95587158203125,
				7.320106506347656,
				-8.54440689086914
			],
			"min":[
				-6.560291290283203,
				-7.44635009765625,
				-17.431514739990234
			],
			"type":"VEC3"
		},
		{
			"bufferView":16,
			"componentType":5126,
			"count":36,
			"type":"VEC3"
		},
		{
			"bufferView":17,
			"componentType":5126,
			"count":36,
			"type":"VEC2"
		},
		{
			"bufferView":18,
			"componentType":5126,
			"count":36,
			"type":"VEC2"
		},
		{
			"bufferView":19,
			"componentType":5123,
			"count":48,
			"type":"SCALAR"
		},
		{
			"bufferView":20,
			"componentType":5126,
			"count":4,
			"max":[
				0.5,
				0,
				0.5
			],
			"min":[
				-0.5,
				0,
				-0.5
			],
			"type":"VEC3"
		},
		{
			"bufferView":21,
			"componentType":5126,
			"count":4,
			"type":"VEC3"
		},
		{
			"bufferView":22,
			"componentType":5126,
			"count":4,
			"type":"VEC2"
		},
		{
			"bufferView":23,
			"componentType":5123,
			"count":6,
			"type":"SCALAR"
		}
	],
	"bufferViews":[
		{
			"buffer":0,
			"byteLength":192,
			"byteOffset":0,
			"target":34962
		},
		{
			"buffer":0,
			"byteLength":192,
			"byteOffset":192,
			"target":34962
		},
		{
			"buffer":0,
			"byteLength":128,
			"byteOffset":384,
			"target":34962
		},
		{
			"buffer":0,
			"byteLength":128,
			"byteOffset":512,
			"target":34962
		},
		{
			"buffer":0,
			"byteLength":48,
			"byteOffset":640,
			"target":34963
		},
		{
			"buffer":0,
			"byteLength":216,
			"byteOffset":688,
			"target":34962
		},
		{
			"buffer":0,
			"byteLength":216,
			"byteOffset":904,
			"target":34962
		},
		{
			"buffer":0,
			"byteLength":144,
			"byteOffset":1120,
			"target":34962
		},
		{
			"buffer":0,
			"byteLength":144,
			"byteOffset":1264,
			"target":34962
		},
		{
			"buffer":0,
			"byteLength":48,
			"byteOffset":1408,
			"target":34963
		},
		{
			"buffer":0,
			"byteLength":144,
			"byteOffset":1456,
			"target":34962
		},
		{
			"buffer":0,
			"byteLength":144,
			"byteOffset":1600,
			"target":34962
		},
		{
			"buffer":0,
			"byteLength":96,
			"byteOffset":1744,
			"target":34962
		},
		{
			"buffer":0,
			"byteLength":96,
			"byteOffset":1840,
			"target":34962
		},
		{
			"buffer":0,
			"byteLength":36,
			"byteOffset":1936,
			"target":34963
		},
		{
			"buffer":0,
			"byteLength":432,
			"byteOffset":1972,
			"target":34962
		},
		{
			"buffer":0,
			"byteLength":432,
			"byteOffset":2404,
			"target":34962
		},
		{
			"buffer":0,
			"byteLength":288,
			"byteOffset":2836,
			"target":34962
		},
		{
			"buffer":0,
			"byteLength":288,
			"byteOffset":3124,
			"target":34962
		},
		{
			"buffer":0,
			"byteLength":96,
			"byteOffset":3412,
			"target":34963
		},
		{
			"buffer":0,
			"byteLength":48,
			"byteOffset":3508,
			"target":34962
		},
		{
			"buffer":0,
			"byteLength":48,
			"byteOffset":3556,
			"target":34962
		},
		{
			"buffer":0,
			"byteLength":32,
			"byteOffset":3604,
			"target":34962
		},
		{
			"buffer":0,
			"byteLength":12,
			"byteOffset":3636,
			"target":34963
		}
	],
	"samplers":[
		{
			"magFilter":9729,
			"minFilter":9987
		}
	],
	"buffers":[
		{
			"byteLength":3648,
			"uri":"lower_class_2.bin"
		}
	]
}
