{
	"asset":{
		"generator":"Khronos glTF Blender I/O v4.3.47",
		"version":"2.0"
	},
	"scene":0,
	"scenes":[
		{
			"name":"Scene",
			"nodes":[
				0,
				1
			]
		}
	],
	"nodes":[
		{
			"mesh":0,
			"name":"Maxis-3d3-mesh-14",
			"rotation":[
				0.70710688829422,
				0,
				0,
				0.7071066498756409
			]
		},
		{
			"extras":{
				"gd_node":"Decal",
				"lower_fade":9,
				"upper_fade":10
			},
			"mesh":1,
			"name":"Ground_AO",
			"scale":[
				15.700214385986328,
				1,
				15.268479347229004
			],
			"translation":[
				-0.10928916931152344,
				-0.022798830643296242,
				0.13105106353759766
			]
		}
	],
	"materials":[
		{
			"name":"mat39-15",
			"occlusionTexture":{
				"index":0,
				"texCoord":1
			},
			"pbrMetallicRoughness":{
				"baseColorTexture":{
					"index":1
				},
				"metallicFactor":0
			}
		},
		{
			"name":"mat40-53",
			"occlusionTexture":{
				"index":2,
				"texCoord":1
			},
			"pbrMetallicRoughness":{
				"baseColorTexture":{
					"index":3
				},
				"metallicFactor":0
			}
		},
		{
			"name":"mat40-62",
			"occlusionTexture":{
				"index":4,
				"texCoord":1
			},
			"pbrMetallicRoughness":{
				"baseColorTexture":{
					"index":5
				},
				"metallicFactor":0
			}
		},
		{
			"name":"Ground_AO",
			"occlusionTexture":{
				"index":6
			},
			"pbrMetallicRoughness":{
				"baseColorFactor":[
					0.800000011920929,
					0.800000011920929,
					0.800000011920929,
					1
				],
				"metallicFactor":0,
				"roughnessFactor":0.5
			}
		}
	],
	"meshes":[
		{
			"name":"Maxis-3d3-mesh-14",
			"primitives":[
				{
					"attributes":{
						"POSITION":0,
						"NORMAL":1,
						"TEXCOORD_0":2,
						"TEXCOORD_1":3
					},
					"indices":4,
					"material":0
				},
				{
					"attributes":{
						"POSITION":5,
						"NORMAL":6,
						"TEXCOORD_0":7,
						"TEXCOORD_1":8
					},
					"indices":9,
					"material":1
				},
				{
					"attributes":{
						"POSITION":10,
						"NORMAL":11,
						"TEXCOORD_0":12,
						"TEXCOORD_1":13
					},
					"indices":14,
					"material":2
				}
			]
		},
		{
			"name":"Plane",
			"primitives":[
				{
					"attributes":{
						"POSITION":15,
						"NORMAL":16,
						"TEXCOORD_0":17
					},
					"indices":18,
					"material":3
				}
			]
		}
	],
	"textures":[
		{
			"sampler":0,
			"source":0
		},
		{
			"sampler":0,
			"source":1
		},
		{
			"sampler":0,
			"source":0
		},
		{
			"sampler":0,
			"source":2
		},
		{
			"sampler":0,
			"source":0
		},
		{
			"sampler":0,
			"source":3
		},
		{
			"sampler":0,
			"source":4
		}
	],
	"images":[
		{
			"mimeType":"image/png",
			"name":"middle_class_3.png",
			"uri":"../../../Textures/ambient_occlusion/Buildings/Home/middle_class_3.png"
		},
		{
			"mimeType":"image/png",
			"name":"tex39-15",
			"uri":"../../../Textures/tex39-15.png"
		},
		{
			"mimeType":"image/png",
			"name":"tex40-53",
			"uri":"../../../Textures/tex40-53.png"
		},
		{
			"mimeType":"image/png",
			"name":"tex40-62",
			"uri":"../../../Textures/tex40-62.png"
		},
		{
			"mimeType":"image/png",
			"name":"middle_class_3_ground.png",
			"uri":"../../../Textures/ambient_occlusion/Buildings/Home/middle_class_3_ground.png"
		}
	],
	"accessors":[
		{
			"bufferView":0,
			"componentType":5126,
			"count":32,
			"max":[
				7.240818023681641,
				7.265289306640625,
				0.022796630859375
			],
			"min":[
				-7.4593963623046875,
				-7.0031890869140625,
				-4.868419647216797
			],
			"type":"VEC3"
		},
		{
			"bufferView":1,
			"componentType":5126,
			"count":32,
			"type":"VEC3"
		},
		{
			"bufferView":2,
			"componentType":5126,
			"count":32,
			"type":"VEC2"
		},
		{
			"bufferView":3,
			"componentType":5126,
			"count":32,
			"type":"VEC2"
		},
		{
			"bufferView":4,
			"componentType":5123,
			"count":48,
			"type":"SCALAR"
		},
		{
			"bufferView":5,
			"componentType":5126,
			"count":12,
			"max":[
				7.240818023681641,
				7.265289306640625,
				-4.868415832519531
			],
			"min":[
				-7.4593963623046875,
				-7.0031890869140625,
				-6.818264007568359
			],
			"type":"VEC3"
		},
		{
			"bufferView":6,
			"componentType":5126,
			"count":12,
			"type":"VEC3"
		},
		{
			"bufferView":7,
			"componentType":5126,
			"count":12,
			"type":"VEC2"
		},
		{
			"bufferView":8,
			"componentType":5126,
			"count":12,
			"type":"VEC2"
		},
		{
			"bufferView":9,
			"componentType":5123,
			"count":12,
			"type":"SCALAR"
		},
		{
			"bufferView":10,
			"componentType":5126,
			"count":18,
			"max":[
				7.240818023681641,
				7.265289306640625,
				-4.868415832519531
			],
			"min":[
				-7.4593963623046875,
				-7.0031890869140625,
				-6.818264007568359
			],
			"type":"VEC3"
		},
		{
			"bufferView":11,
			"componentType":5126,
			"count":18,
			"type":"VEC3"
		},
		{
			"bufferView":12,
			"componentType":5126,
			"count":18,
			"type":"VEC2"
		},
		{
			"bufferView":13,
			"componentType":5126,
			"count":18,
			"type":"VEC2"
		},
		{
			"bufferView":14,
			"componentType":5123,
			"count":24,
			"type":"SCALAR"
		},
		{
			"bufferView":15,
			"componentType":5126,
			"count":4,
			"max":[
				0.5,
				0,
				0.5
			],
			"min":[
				-0.5,
				0,
				-0.5
			],
			"type":"VEC3"
		},
		{
			"bufferView":16,
			"componentType":5126,
			"count":4,
			"type":"VEC3"
		},
		{
			"bufferView":17,
			"componentType":5126,
			"count":4,
			"type":"VEC2"
		},
		{
			"bufferView":18,
			"componentType":5123,
			"count":6,
			"type":"SCALAR"
		}
	],
	"bufferViews":[
		{
			"buffer":0,
			"byteLength":384,
			"byteOffset":0,
			"target":34962
		},
		{
			"buffer":0,
			"byteLength":384,
			"byteOffset":384,
			"target":34962
		},
		{
			"buffer":0,
			"byteLength":256,
			"byteOffset":768,
			"target":34962
		},
		{
			"buffer":0,
			"byteLength":256,
			"byteOffset":1024,
			"target":34962
		},
		{
			"buffer":0,
			"byteLength":96,
			"byteOffset":1280,
			"target":34963
		},
		{
			"buffer":0,
			"byteLength":144,
			"byteOffset":1376,
			"target":34962
		},
		{
			"buffer":0,
			"byteLength":144,
			"byteOffset":1520,
			"target":34962
		},
		{
			"buffer":0,
			"byteLength":96,
			"byteOffset":1664,
			"target":34962
		},
		{
			"buffer":0,
			"byteLength":96,
			"byteOffset":1760,
			"target":34962
		},
		{
			"buffer":0,
			"byteLength":24,
			"byteOffset":1856,
			"target":34963
		},
		{
			"buffer":0,
			"byteLength":216,
			"byteOffset":1880,
			"target":34962
		},
		{
			"buffer":0,
			"byteLength":216,
			"byteOffset":2096,
			"target":34962
		},
		{
			"buffer":0,
			"byteLength":144,
			"byteOffset":2312,
			"target":34962
		},
		{
			"buffer":0,
			"byteLength":144,
			"byteOffset":2456,
			"target":34962
		},
		{
			"buffer":0,
			"byteLength":48,
			"byteOffset":2600,
			"target":34963
		},
		{
			"buffer":0,
			"byteLength":48,
			"byteOffset":2648,
			"target":34962
		},
		{
			"buffer":0,
			"byteLength":48,
			"byteOffset":2696,
			"target":34962
		},
		{
			"buffer":0,
			"byteLength":32,
			"byteOffset":2744,
			"target":34962
		},
		{
			"buffer":0,
			"byteLength":12,
			"byteOffset":2776,
			"target":34963
		}
	],
	"samplers":[
		{
			"magFilter":9729,
			"minFilter":9987
		}
	],
	"buffers":[
		{
			"byteLength":2788,
			"uri":"middle_class_3.bin"
		}
	]
}
