{
	"asset":{
		"generator":"Khronos glTF Blender I/O v4.3.47",
		"version":"2.0"
	},
	"scene":0,
	"scenes":[
		{
			"name":"Scene",
			"nodes":[
				0,
				1
			]
		}
	],
	"nodes":[
		{
			"mesh":0,
			"name":"Maxis-3d3-mesh-13",
			"rotation":[
				0.70710688829422,
				0,
				0,
				0.7071066498756409
			]
		},
		{
			"extras":{
				"gd_node":"Decal",
				"lower_fade":9,
				"upper_fade":10
			},
			"mesh":1,
			"name":"Ground_AO",
			"scale":[
				14.576156616210938,
				1,
				15.70033073425293
			],
			"translation":[
				0.12291336059570312,
				0.005513821262866259,
				0.012572526931762695
			]
		}
	],
	"materials":[
		{
			"name":"mat40-55",
			"occlusionTexture":{
				"index":0,
				"texCoord":1
			},
			"pbrMetallicRoughness":{
				"baseColorTexture":{
					"index":1
				},
				"metallicFactor":0
			}
		},
		{
			"name":"mat39-14",
			"occlusionTexture":{
				"index":2,
				"texCoord":1
			},
			"pbrMetallicRoughness":{
				"baseColorTexture":{
					"index":3
				},
				"metallicFactor":0
			}
		},
		{
			"name":"mat40-63",
			"occlusionTexture":{
				"index":4,
				"texCoord":1
			},
			"pbrMetallicRoughness":{
				"baseColorTexture":{
					"index":5
				},
				"metallicFactor":0
			}
		},
		{
			"name":"Ground_AO",
			"occlusionTexture":{
				"index":6
			},
			"pbrMetallicRoughness":{
				"baseColorFactor":[
					0.800000011920929,
					0.800000011920929,
					0.800000011920929,
					1
				],
				"metallicFactor":0,
				"roughnessFactor":0.5
			}
		}
	],
	"meshes":[
		{
			"name":"Maxis-3d3-mesh-13",
			"primitives":[
				{
					"attributes":{
						"POSITION":0,
						"NORMAL":1,
						"TEXCOORD_0":2,
						"TEXCOORD_1":3
					},
					"indices":4,
					"material":0
				},
				{
					"attributes":{
						"POSITION":5,
						"NORMAL":6,
						"TEXCOORD_0":7,
						"TEXCOORD_1":8
					},
					"indices":9,
					"material":1
				},
				{
					"attributes":{
						"POSITION":10,
						"NORMAL":11,
						"TEXCOORD_0":12,
						"TEXCOORD_1":13
					},
					"indices":14,
					"material":2
				}
			]
		},
		{
			"name":"Plane",
			"primitives":[
				{
					"attributes":{
						"POSITION":15,
						"NORMAL":16,
						"TEXCOORD_0":17
					},
					"indices":18,
					"material":3
				}
			]
		}
	],
	"textures":[
		{
			"sampler":0,
			"source":0
		},
		{
			"sampler":0,
			"source":1
		},
		{
			"sampler":0,
			"source":0
		},
		{
			"sampler":0,
			"source":2
		},
		{
			"sampler":0,
			"source":0
		},
		{
			"sampler":0,
			"source":3
		},
		{
			"sampler":0,
			"source":4
		}
	],
	"images":[
		{
			"mimeType":"image/png",
			"name":"middle_class_2.png",
			"uri":"../../../Textures/ambient_occlusion/Buildings/Home/middle_class_2.png"
		},
		{
			"mimeType":"image/png",
			"name":"tex40-55",
			"uri":"../../../Textures/tex40-55.png"
		},
		{
			"mimeType":"image/png",
			"name":"tex39-14",
			"uri":"../../../Textures/tex39-14.png"
		},
		{
			"mimeType":"image/png",
			"name":"tex40-63",
			"uri":"../../../Textures/tex40-63.png"
		},
		{
			"mimeType":"image/png",
			"name":"middle_class_2_ground.png",
			"uri":"../../../Textures/ambient_occlusion/Buildings/Home/middle_class_2_ground.png"
		}
	],
	"accessors":[
		{
			"bufferView":0,
			"componentType":5126,
			"count":12,
			"max":[
				6.910991668701172,
				7.36273193359375,
				-4.527961730957031
			],
			"min":[
				-6.665164947509766,
				-7.337593078613281,
				-7.898353576660156
			],
			"type":"VEC3"
		},
		{
			"bufferView":1,
			"componentType":5126,
			"count":12,
			"type":"VEC3"
		},
		{
			"bufferView":2,
			"componentType":5126,
			"count":12,
			"type":"VEC2"
		},
		{
			"bufferView":3,
			"componentType":5126,
			"count":12,
			"type":"VEC2"
		},
		{
			"bufferView":4,
			"componentType":5123,
			"count":12,
			"type":"SCALAR"
		},
		{
			"bufferView":5,
			"componentType":5126,
			"count":32,
			"max":[
				6.910991668701172,
				7.362735748291016,
				-0.00551605224609375
			],
			"min":[
				-6.665164947509766,
				-7.337593078613281,
				-4.741325378417969
			],
			"type":"VEC3"
		},
		{
			"bufferView":6,
			"componentType":5126,
			"count":32,
			"type":"VEC3"
		},
		{
			"bufferView":7,
			"componentType":5126,
			"count":32,
			"type":"VEC2"
		},
		{
			"bufferView":8,
			"componentType":5126,
			"count":32,
			"type":"VEC2"
		},
		{
			"bufferView":9,
			"componentType":5123,
			"count":48,
			"type":"SCALAR"
		},
		{
			"bufferView":10,
			"componentType":5126,
			"count":16,
			"max":[
				6.910991668701172,
				7.36273193359375,
				-4.527961730957031
			],
			"min":[
				-6.665164947509766,
				-7.337593078613281,
				-7.898353576660156
			],
			"type":"VEC3"
		},
		{
			"bufferView":11,
			"componentType":5126,
			"count":16,
			"type":"VEC3"
		},
		{
			"bufferView":12,
			"componentType":5126,
			"count":16,
			"type":"VEC2"
		},
		{
			"bufferView":13,
			"componentType":5126,
			"count":16,
			"type":"VEC2"
		},
		{
			"bufferView":14,
			"componentType":5123,
			"count":24,
			"type":"SCALAR"
		},
		{
			"bufferView":15,
			"componentType":5126,
			"count":4,
			"max":[
				0.5,
				0,
				0.5
			],
			"min":[
				-0.5,
				0,
				-0.5
			],
			"type":"VEC3"
		},
		{
			"bufferView":16,
			"componentType":5126,
			"count":4,
			"type":"VEC3"
		},
		{
			"bufferView":17,
			"componentType":5126,
			"count":4,
			"type":"VEC2"
		},
		{
			"bufferView":18,
			"componentType":5123,
			"count":6,
			"type":"SCALAR"
		}
	],
	"bufferViews":[
		{
			"buffer":0,
			"byteLength":144,
			"byteOffset":0,
			"target":34962
		},
		{
			"buffer":0,
			"byteLength":144,
			"byteOffset":144,
			"target":34962
		},
		{
			"buffer":0,
			"byteLength":96,
			"byteOffset":288,
			"target":34962
		},
		{
			"buffer":0,
			"byteLength":96,
			"byteOffset":384,
			"target":34962
		},
		{
			"buffer":0,
			"byteLength":24,
			"byteOffset":480,
			"target":34963
		},
		{
			"buffer":0,
			"byteLength":384,
			"byteOffset":504,
			"target":34962
		},
		{
			"buffer":0,
			"byteLength":384,
			"byteOffset":888,
			"target":34962
		},
		{
			"buffer":0,
			"byteLength":256,
			"byteOffset":1272,
			"target":34962
		},
		{
			"buffer":0,
			"byteLength":256,
			"byteOffset":1528,
			"target":34962
		},
		{
			"buffer":0,
			"byteLength":96,
			"byteOffset":1784,
			"target":34963
		},
		{
			"buffer":0,
			"byteLength":192,
			"byteOffset":1880,
			"target":34962
		},
		{
			"buffer":0,
			"byteLength":192,
			"byteOffset":2072,
			"target":34962
		},
		{
			"buffer":0,
			"byteLength":128,
			"byteOffset":2264,
			"target":34962
		},
		{
			"buffer":0,
			"byteLength":128,
			"byteOffset":2392,
			"target":34962
		},
		{
			"buffer":0,
			"byteLength":48,
			"byteOffset":2520,
			"target":34963
		},
		{
			"buffer":0,
			"byteLength":48,
			"byteOffset":2568,
			"target":34962
		},
		{
			"buffer":0,
			"byteLength":48,
			"byteOffset":2616,
			"target":34962
		},
		{
			"buffer":0,
			"byteLength":32,
			"byteOffset":2664,
			"target":34962
		},
		{
			"buffer":0,
			"byteLength":12,
			"byteOffset":2696,
			"target":34963
		}
	],
	"samplers":[
		{
			"magFilter":9729,
			"minFilter":9987
		}
	],
	"buffers":[
		{
			"byteLength":2708,
			"uri":"middle_class_2.bin"
		}
	]
}
