{
	"asset":{
		"generator":"Khronos glTF Blender I/O v4.3.47",
		"version":"2.0"
	},
	"scene":0,
	"scenes":[
		{
			"name":"Scene",
			"nodes":[
				0,
				1
			]
		}
	],
	"nodes":[
		{
			"mesh":0,
			"name":"Maxis-3d3-mesh-12",
			"rotation":[
				0.70710688829422,
				0,
				0,
				0.7071066498756409
			]
		},
		{
			"extras":{
				"gd_node":"Decal",
				"lower_fade":9,
				"upper_fade":10
			},
			"mesh":1,
			"name":"Ground_AO",
			"scale":[
				11.831615447998047,
				1,
				15.794914245605469
			],
			"translation":[
				0.4104900360107422,
				0.008084885776042938,
				0.0993201732635498
			]
		}
	],
	"materials":[
		{
			"name":"mat39-63",
			"occlusionTexture":{
				"index":0,
				"texCoord":1
			},
			"pbrMetallicRoughness":{
				"baseColorTexture":{
					"index":1
				},
				"metallicFactor":0
			}
		},
		{
			"name":"mat2-31",
			"occlusionTexture":{
				"index":2,
				"texCoord":1
			},
			"pbrMetallicRoughness":{
				"baseColorTexture":{
					"index":3
				},
				"metallicFactor":0
			}
		},
		{
			"name":"matcolour-48",
			"occlusionTexture":{
				"index":4,
				"texCoord":1
			},
			"pbrMetallicRoughness":{
				"baseColorFactor":[
					0.05882352963089943,
					0.05882352963089943,
					0.05882352963089943,
					1
				],
				"metallicFactor":0
			}
		},
		{
			"name":"Ground_AO",
			"occlusionTexture":{
				"index":5
			},
			"pbrMetallicRoughness":{
				"baseColorFactor":[
					0.800000011920929,
					0.800000011920929,
					0.800000011920929,
					1
				],
				"metallicFactor":0,
				"roughnessFactor":0.5
			}
		}
	],
	"meshes":[
		{
			"name":"Maxis-3d3-mesh-12.001",
			"primitives":[
				{
					"attributes":{
						"POSITION":0,
						"NORMAL":1,
						"TEXCOORD_0":2,
						"TEXCOORD_1":3
					},
					"indices":4,
					"material":0
				},
				{
					"attributes":{
						"POSITION":5,
						"NORMAL":6,
						"TEXCOORD_0":7,
						"TEXCOORD_1":8
					},
					"indices":9,
					"material":1
				},
				{
					"attributes":{
						"POSITION":10,
						"NORMAL":11,
						"TEXCOORD_0":12,
						"TEXCOORD_1":13
					},
					"indices":14,
					"material":2
				}
			]
		},
		{
			"name":"Plane",
			"primitives":[
				{
					"attributes":{
						"POSITION":15,
						"NORMAL":16,
						"TEXCOORD_0":17
					},
					"indices":18,
					"material":3
				}
			]
		}
	],
	"textures":[
		{
			"sampler":0,
			"source":0
		},
		{
			"sampler":0,
			"source":1
		},
		{
			"sampler":0,
			"source":0
		},
		{
			"sampler":0,
			"source":2
		},
		{
			"sampler":0,
			"source":0
		},
		{
			"sampler":0,
			"source":3
		}
	],
	"images":[
		{
			"mimeType":"image/png",
			"name":"middle_class_1.png",
			"uri":"../../../Textures/ambient_occlusion/Buildings/Home/middle_class_1.png"
		},
		{
			"mimeType":"image/png",
			"name":"tex39-63",
			"uri":"../../../Textures/tex39-63.png"
		},
		{
			"mimeType":"image/png",
			"name":"tex2-31",
			"uri":"../../../Textures/tex2-31.png"
		},
		{
			"mimeType":"image/png",
			"name":"middle_class_1_ground.png",
			"uri":"../../../Textures/ambient_occlusion/Buildings/Home/middle_class_1_ground.png"
		}
	],
	"accessors":[
		{
			"bufferView":0,
			"componentType":5126,
			"count":24,
			"max":[
				5.826297760009766,
				7.496776580810547,
				-3.9268417358398438
			],
			"min":[
				-5.005317687988281,
				-7.298137664794922,
				-5.046489715576172
			],
			"type":"VEC3"
		},
		{
			"bufferView":1,
			"componentType":5126,
			"count":24,
			"type":"VEC3"
		},
		{
			"bufferView":2,
			"componentType":5126,
			"count":24,
			"type":"VEC2"
		},
		{
			"bufferView":3,
			"componentType":5126,
			"count":24,
			"type":"VEC2"
		},
		{
			"bufferView":4,
			"componentType":5123,
			"count":24,
			"type":"SCALAR"
		},
		{
			"bufferView":5,
			"componentType":5126,
			"count":64,
			"max":[
				5.826297760009766,
				7.496776580810547,
				-0.008087158203125
			],
			"min":[
				-5.005317687988281,
				-7.298137664794922,
				-3.926849365234375
			],
			"type":"VEC3"
		},
		{
			"bufferView":6,
			"componentType":5126,
			"count":64,
			"type":"VEC3"
		},
		{
			"bufferView":7,
			"componentType":5126,
			"count":64,
			"type":"VEC2"
		},
		{
			"bufferView":8,
			"componentType":5126,
			"count":64,
			"type":"VEC2"
		},
		{
			"bufferView":9,
			"componentType":5123,
			"count":96,
			"type":"SCALAR"
		},
		{
			"bufferView":10,
			"componentType":5126,
			"count":32,
			"max":[
				5.826297760009766,
				7.496776580810547,
				-3.9268417358398438
			],
			"min":[
				-5.005317687988281,
				-7.298137664794922,
				-5.046489715576172
			],
			"type":"VEC3"
		},
		{
			"bufferView":11,
			"componentType":5126,
			"count":32,
			"type":"VEC3"
		},
		{
			"bufferView":12,
			"componentType":5126,
			"count":32,
			"type":"VEC2"
		},
		{
			"bufferView":13,
			"componentType":5126,
			"count":32,
			"type":"VEC2"
		},
		{
			"bufferView":14,
			"componentType":5123,
			"count":48,
			"type":"SCALAR"
		},
		{
			"bufferView":15,
			"componentType":5126,
			"count":4,
			"max":[
				0.5,
				0,
				0.5
			],
			"min":[
				-0.5,
				0,
				-0.5
			],
			"type":"VEC3"
		},
		{
			"bufferView":16,
			"componentType":5126,
			"count":4,
			"type":"VEC3"
		},
		{
			"bufferView":17,
			"componentType":5126,
			"count":4,
			"type":"VEC2"
		},
		{
			"bufferView":18,
			"componentType":5123,
			"count":6,
			"type":"SCALAR"
		}
	],
	"bufferViews":[
		{
			"buffer":0,
			"byteLength":288,
			"byteOffset":0,
			"target":34962
		},
		{
			"buffer":0,
			"byteLength":288,
			"byteOffset":288,
			"target":34962
		},
		{
			"buffer":0,
			"byteLength":192,
			"byteOffset":576,
			"target":34962
		},
		{
			"buffer":0,
			"byteLength":192,
			"byteOffset":768,
			"target":34962
		},
		{
			"buffer":0,
			"byteLength":48,
			"byteOffset":960,
			"target":34963
		},
		{
			"buffer":0,
			"byteLength":768,
			"byteOffset":1008,
			"target":34962
		},
		{
			"buffer":0,
			"byteLength":768,
			"byteOffset":1776,
			"target":34962
		},
		{
			"buffer":0,
			"byteLength":512,
			"byteOffset":2544,
			"target":34962
		},
		{
			"buffer":0,
			"byteLength":512,
			"byteOffset":3056,
			"target":34962
		},
		{
			"buffer":0,
			"byteLength":192,
			"byteOffset":3568,
			"target":34963
		},
		{
			"buffer":0,
			"byteLength":384,
			"byteOffset":3760,
			"target":34962
		},
		{
			"buffer":0,
			"byteLength":384,
			"byteOffset":4144,
			"target":34962
		},
		{
			"buffer":0,
			"byteLength":256,
			"byteOffset":4528,
			"target":34962
		},
		{
			"buffer":0,
			"byteLength":256,
			"byteOffset":4784,
			"target":34962
		},
		{
			"buffer":0,
			"byteLength":96,
			"byteOffset":5040,
			"target":34963
		},
		{
			"buffer":0,
			"byteLength":48,
			"byteOffset":5136,
			"target":34962
		},
		{
			"buffer":0,
			"byteLength":48,
			"byteOffset":5184,
			"target":34962
		},
		{
			"buffer":0,
			"byteLength":32,
			"byteOffset":5232,
			"target":34962
		},
		{
			"buffer":0,
			"byteLength":12,
			"byteOffset":5264,
			"target":34963
		}
	],
	"samplers":[
		{
			"magFilter":9729,
			"minFilter":9987
		}
	],
	"buffers":[
		{
			"byteLength":5276,
			"uri":"middle_class_1.bin"
		}
	]
}
