{
	"asset":{
		"generator":"Khronos glTF Blender I/O v4.1.63",
		"version":"2.0"
	},
	"scene":0,
	"scenes":[
		{
			"name":"Scene",
			"nodes":[
				0
			]
		}
	],
	"nodes":[
		{
			"mesh":0,
			"name":"Maxis-3d3-mesh-14",
			"rotation":[
				0.70710688829422,
				0,
				0,
				0.7071066498756409
			]
		}
	],
	"materials":[
		{
			"name":"mat39-15",
			"pbrMetallicRoughness":{
				"baseColorTexture":{
					"index":0
				},
				"metallicFactor":0
			}
		},
		{
			"name":"mat40-53",
			"pbrMetallicRoughness":{
				"baseColorTexture":{
					"index":1
				},
				"metallicFactor":0
			}
		},
		{
			"name":"mat40-62",
			"pbrMetallicRoughness":{
				"baseColorTexture":{
					"index":2
				},
				"metallicFactor":0
			}
		}
	],
	"meshes":[
		{
			"name":"Maxis-3d3-mesh-14",
			"primitives":[
				{
					"attributes":{
						"POSITION":0,
						"NORMAL":1,
						"TEXCOORD_0":2
					},
					"indices":3,
					"material":0
				},
				{
					"attributes":{
						"POSITION":4,
						"NORMAL":5,
						"TEXCOORD_0":6
					},
					"indices":7,
					"material":0
				},
				{
					"attributes":{
						"POSITION":8,
						"NORMAL":9,
						"TEXCOORD_0":10
					},
					"indices":11,
					"material":0
				},
				{
					"attributes":{
						"POSITION":12,
						"NORMAL":13,
						"TEXCOORD_0":14
					},
					"indices":15,
					"material":0
				},
				{
					"attributes":{
						"POSITION":16,
						"NORMAL":17,
						"TEXCOORD_0":18
					},
					"indices":19,
					"material":1
				},
				{
					"attributes":{
						"POSITION":20,
						"NORMAL":21,
						"TEXCOORD_0":22
					},
					"indices":23,
					"material":1
				},
				{
					"attributes":{
						"POSITION":24,
						"NORMAL":25,
						"TEXCOORD_0":26
					},
					"indices":27,
					"material":2
				},
				{
					"attributes":{
						"POSITION":28,
						"NORMAL":29,
						"TEXCOORD_0":30
					},
					"indices":31,
					"material":2
				}
			]
		}
	],
	"textures":[
		{
			"sampler":0,
			"source":0
		},
		{
			"sampler":0,
			"source":1
		},
		{
			"sampler":0,
			"source":2
		}
	],
	"images":[
		{
			"mimeType":"image/png",
			"name":"tex39-15",
			"uri":"../../../Textures/tex39-15.png"
		},
		{
			"mimeType":"image/png",
			"name":"tex40-53",
			"uri":"../../../Textures/tex40-53.png"
		},
		{
			"mimeType":"image/png",
			"name":"tex40-62",
			"uri":"../../../Textures/tex40-62.png"
		}
	],
	"accessors":[
		{
			"bufferView":0,
			"componentType":5126,
			"count":8,
			"max":[
				7.240192413330078,
				7.265289306640625,
				0.022796630859375
			],
			"min":[
				-7.4593963623046875,
				-0.17894744873046875,
				-4.868419647216797
			],
			"type":"VEC3"
		},
		{
			"bufferView":1,
			"componentType":5126,
			"count":8,
			"type":"VEC3"
		},
		{
			"bufferView":2,
			"componentType":5126,
			"count":8,
			"type":"VEC2"
		},
		{
			"bufferView":3,
			"componentType":5123,
			"count":12,
			"type":"SCALAR"
		},
		{
			"bufferView":4,
			"componentType":5126,
			"count":8,
			"max":[
				7.240818023681641,
				0.4408302307128906,
				0.022796630859375
			],
			"min":[
				-7.4593963623046875,
				-7.0031890869140625,
				-4.868415832519531
			],
			"type":"VEC3"
		},
		{
			"bufferView":5,
			"componentType":5126,
			"count":8,
			"type":"VEC3"
		},
		{
			"bufferView":6,
			"componentType":5126,
			"count":8,
			"type":"VEC2"
		},
		{
			"bufferView":7,
			"componentType":5123,
			"count":12,
			"type":"SCALAR"
		},
		{
			"bufferView":8,
			"componentType":5126,
			"count":8,
			"max":[
				-7.404205322265625,
				7.265289306640625,
				0.022796630859375
			],
			"min":[
				-7.4593963623046875,
				-7.0031890869140625,
				-4.868419647216797
			],
			"type":"VEC3"
		},
		{
			"bufferView":9,
			"componentType":5126,
			"count":8,
			"type":"VEC3"
		},
		{
			"bufferView":10,
			"componentType":5126,
			"count":8,
			"type":"VEC2"
		},
		{
			"bufferView":11,
			"componentType":5123,
			"count":12,
			"type":"SCALAR"
		},
		{
			"bufferView":12,
			"componentType":5126,
			"count":8,
			"max":[
				7.240818023681641,
				7.265289306640625,
				0.022796630859375
			],
			"min":[
				-0.45214080810546875,
				-7.003185272216797,
				-4.868419647216797
			],
			"type":"VEC3"
		},
		{
			"bufferView":13,
			"componentType":5126,
			"count":8,
			"type":"VEC3"
		},
		{
			"bufferView":14,
			"componentType":5126,
			"count":8,
			"type":"VEC2"
		},
		{
			"bufferView":15,
			"componentType":5123,
			"count":12,
			"type":"SCALAR"
		},
		{
			"bufferView":16,
			"componentType":5126,
			"count":6,
			"max":[
				-7.404205322265625,
				7.265289306640625,
				-4.868415832519531
			],
			"min":[
				-7.4593963623046875,
				-7.0031890869140625,
				-6.818264007568359
			],
			"type":"VEC3"
		},
		{
			"bufferView":17,
			"componentType":5126,
			"count":6,
			"type":"VEC3"
		},
		{
			"bufferView":18,
			"componentType":5126,
			"count":6,
			"type":"VEC2"
		},
		{
			"bufferView":19,
			"componentType":5123,
			"count":6,
			"type":"SCALAR"
		},
		{
			"bufferView":20,
			"componentType":5126,
			"count":6,
			"max":[
				7.240818023681641,
				7.265289306640625,
				-4.868415832519531
			],
			"min":[
				-0.45214080810546875,
				-7.003185272216797,
				-6.818264007568359
			],
			"type":"VEC3"
		},
		{
			"bufferView":21,
			"componentType":5126,
			"count":6,
			"type":"VEC3"
		},
		{
			"bufferView":22,
			"componentType":5126,
			"count":6,
			"type":"VEC2"
		},
		{
			"bufferView":23,
			"componentType":5123,
			"count":6,
			"type":"SCALAR"
		},
		{
			"bufferView":24,
			"componentType":5126,
			"count":10,
			"max":[
				7.240818023681641,
				3.853057861328125,
				-4.868415832519531
			],
			"min":[
				-7.4593963623046875,
				-7.0031890869140625,
				-6.818264007568359
			],
			"type":"VEC3"
		},
		{
			"bufferView":25,
			"componentType":5126,
			"count":10,
			"type":"VEC3"
		},
		{
			"bufferView":26,
			"componentType":5126,
			"count":10,
			"type":"VEC2"
		},
		{
			"bufferView":27,
			"componentType":5123,
			"count":12,
			"type":"SCALAR"
		},
		{
			"bufferView":28,
			"componentType":5126,
			"count":10,
			"max":[
				7.240505218505859,
				7.265289306640625,
				-4.868415832519531
			],
			"min":[
				-7.4593963623046875,
				-3.623523712158203,
				-6.818264007568359
			],
			"type":"VEC3"
		},
		{
			"bufferView":29,
			"componentType":5126,
			"count":10,
			"type":"VEC3"
		},
		{
			"bufferView":30,
			"componentType":5126,
			"count":10,
			"type":"VEC2"
		},
		{
			"bufferView":31,
			"componentType":5123,
			"count":12,
			"type":"SCALAR"
		}
	],
	"bufferViews":[
		{
			"buffer":0,
			"byteLength":96,
			"byteOffset":0,
			"target":34962
		},
		{
			"buffer":0,
			"byteLength":96,
			"byteOffset":96,
			"target":34962
		},
		{
			"buffer":0,
			"byteLength":64,
			"byteOffset":192,
			"target":34962
		},
		{
			"buffer":0,
			"byteLength":24,
			"byteOffset":256,
			"target":34963
		},
		{
			"buffer":0,
			"byteLength":96,
			"byteOffset":280,
			"target":34962
		},
		{
			"buffer":0,
			"byteLength":96,
			"byteOffset":376,
			"target":34962
		},
		{
			"buffer":0,
			"byteLength":64,
			"byteOffset":472,
			"target":34962
		},
		{
			"buffer":0,
			"byteLength":24,
			"byteOffset":536,
			"target":34963
		},
		{
			"buffer":0,
			"byteLength":96,
			"byteOffset":560,
			"target":34962
		},
		{
			"buffer":0,
			"byteLength":96,
			"byteOffset":656,
			"target":34962
		},
		{
			"buffer":0,
			"byteLength":64,
			"byteOffset":752,
			"target":34962
		},
		{
			"buffer":0,
			"byteLength":24,
			"byteOffset":816,
			"target":34963
		},
		{
			"buffer":0,
			"byteLength":96,
			"byteOffset":840,
			"target":34962
		},
		{
			"buffer":0,
			"byteLength":96,
			"byteOffset":936,
			"target":34962
		},
		{
			"buffer":0,
			"byteLength":64,
			"byteOffset":1032,
			"target":34962
		},
		{
			"buffer":0,
			"byteLength":24,
			"byteOffset":1096,
			"target":34963
		},
		{
			"buffer":0,
			"byteLength":72,
			"byteOffset":1120,
			"target":34962
		},
		{
			"buffer":0,
			"byteLength":72,
			"byteOffset":1192,
			"target":34962
		},
		{
			"buffer":0,
			"byteLength":48,
			"byteOffset":1264,
			"target":34962
		},
		{
			"buffer":0,
			"byteLength":12,
			"byteOffset":1312,
			"target":34963
		},
		{
			"buffer":0,
			"byteLength":72,
			"byteOffset":1324,
			"target":34962
		},
		{
			"buffer":0,
			"byteLength":72,
			"byteOffset":1396,
			"target":34962
		},
		{
			"buffer":0,
			"byteLength":48,
			"byteOffset":1468,
			"target":34962
		},
		{
			"buffer":0,
			"byteLength":12,
			"byteOffset":1516,
			"target":34963
		},
		{
			"buffer":0,
			"byteLength":120,
			"byteOffset":1528,
			"target":34962
		},
		{
			"buffer":0,
			"byteLength":120,
			"byteOffset":1648,
			"target":34962
		},
		{
			"buffer":0,
			"byteLength":80,
			"byteOffset":1768,
			"target":34962
		},
		{
			"buffer":0,
			"byteLength":24,
			"byteOffset":1848,
			"target":34963
		},
		{
			"buffer":0,
			"byteLength":120,
			"byteOffset":1872,
			"target":34962
		},
		{
			"buffer":0,
			"byteLength":120,
			"byteOffset":1992,
			"target":34962
		},
		{
			"buffer":0,
			"byteLength":80,
			"byteOffset":2112,
			"target":34962
		},
		{
			"buffer":0,
			"byteLength":24,
			"byteOffset":2192,
			"target":34963
		}
	],
	"samplers":[
		{
			"magFilter":9729,
			"minFilter":9987
		}
	],
	"buffers":[
		{
			"byteLength":2216,
			"uri":"middle_class_3.bin"
		}
	]
}
