{
	"asset":{
		"generator":"Khronos glTF Blender I/O v4.1.63",
		"version":"2.0"
	},
	"scene":0,
	"scenes":[
		{
			"name":"Scene",
			"nodes":[
				0
			]
		}
	],
	"nodes":[
		{
			"mesh":0,
			"name":"Maxis-3d3-mesh-12",
			"rotation":[
				0.70710688829422,
				0,
				0,
				0.7071066498756409
			]
		}
	],
	"materials":[
		{
			"name":"mat39-63",
			"pbrMetallicRoughness":{
				"baseColorTexture":{
					"index":0
				},
				"metallicFactor":0
			}
		},
		{
			"name":"mat2-31",
			"pbrMetallicRoughness":{
				"baseColorTexture":{
					"index":1
				},
				"metallicFactor":0
			}
		},
		{
			"name":"matcolour-48",
			"pbrMetallicRoughness":{
				"baseColorFactor":[
					0.05882352963089943,
					0.05882352963089943,
					0.05882352963089943,
					1
				],
				"metallicFactor":0
			}
		}
	],
	"meshes":[
		{
			"name":"Maxis-3d3-mesh-12.001",
			"primitives":[
				{
					"attributes":{
						"POSITION":0,
						"NORMAL":1,
						"TEXCOORD_0":2
					},
					"indices":3,
					"material":0
				},
				{
					"attributes":{
						"POSITION":4,
						"NORMAL":5,
						"TEXCOORD_0":6
					},
					"indices":7,
					"material":0
				},
				{
					"attributes":{
						"POSITION":8,
						"NORMAL":9,
						"TEXCOORD_0":10
					},
					"indices":11,
					"material":1
				},
				{
					"attributes":{
						"POSITION":12,
						"NORMAL":13,
						"TEXCOORD_0":14
					},
					"indices":15,
					"material":1
				},
				{
					"attributes":{
						"POSITION":16,
						"NORMAL":17,
						"TEXCOORD_0":18
					},
					"indices":19,
					"material":1
				},
				{
					"attributes":{
						"POSITION":20,
						"NORMAL":21,
						"TEXCOORD_0":22
					},
					"indices":23,
					"material":1
				},
				{
					"attributes":{
						"POSITION":24,
						"NORMAL":25,
						"TEXCOORD_0":26
					},
					"indices":27,
					"material":2
				}
			]
		}
	],
	"textures":[
		{
			"sampler":0,
			"source":0
		},
		{
			"sampler":0,
			"source":1
		}
	],
	"images":[
		{
			"mimeType":"image/png",
			"name":"tex39-63",
			"uri":"../../../Textures/tex39-63.png"
		},
		{
			"mimeType":"image/png",
			"name":"tex2-31",
			"uri":"../../../Textures/tex2-31.png"
		}
	],
	"accessors":[
		{
			"bufferView":0,
			"componentType":5126,
			"count":12,
			"max":[
				5.826297760009766,
				7.496776580810547,
				-3.9268455505371094
			],
			"min":[
				-5.005317687988281,
				-0.0689697265625,
				-5.046489715576172
			],
			"type":"VEC3"
		},
		{
			"bufferView":1,
			"componentType":5126,
			"count":12,
			"type":"VEC3"
		},
		{
			"bufferView":2,
			"componentType":5126,
			"count":12,
			"type":"VEC2"
		},
		{
			"bufferView":3,
			"componentType":5123,
			"count":12,
			"type":"SCALAR"
		},
		{
			"bufferView":4,
			"componentType":5126,
			"count":12,
			"max":[
				5.826297760009766,
				0.267608642578125,
				-3.9268417358398438
			],
			"min":[
				-5.005317687988281,
				-7.298137664794922,
				-5.046489715576172
			],
			"type":"VEC3"
		},
		{
			"bufferView":5,
			"componentType":5126,
			"count":12,
			"type":"VEC3"
		},
		{
			"bufferView":6,
			"componentType":5126,
			"count":12,
			"type":"VEC2"
		},
		{
			"bufferView":7,
			"componentType":5123,
			"count":12,
			"type":"SCALAR"
		},
		{
			"bufferView":8,
			"componentType":5126,
			"count":16,
			"max":[
				5.826297760009766,
				7.496776580810547,
				-0.008090972900390625
			],
			"min":[
				-5.005317687988281,
				-0.0689697265625,
				-3.926849365234375
			],
			"type":"VEC3"
		},
		{
			"bufferView":9,
			"componentType":5126,
			"count":16,
			"type":"VEC3"
		},
		{
			"bufferView":10,
			"componentType":5126,
			"count":16,
			"type":"VEC2"
		},
		{
			"bufferView":11,
			"componentType":5123,
			"count":24,
			"type":"SCALAR"
		},
		{
			"bufferView":12,
			"componentType":5126,
			"count":16,
			"max":[
				5.826297760009766,
				0.267608642578125,
				-0.008087158203125
			],
			"min":[
				-5.005317687988281,
				-7.298137664794922,
				-3.9268455505371094
			],
			"type":"VEC3"
		},
		{
			"bufferView":13,
			"componentType":5126,
			"count":16,
			"type":"VEC3"
		},
		{
			"bufferView":14,
			"componentType":5126,
			"count":16,
			"type":"VEC2"
		},
		{
			"bufferView":15,
			"componentType":5123,
			"count":24,
			"type":"SCALAR"
		},
		{
			"bufferView":16,
			"componentType":5126,
			"count":16,
			"max":[
				5.826297760009766,
				7.496776580810547,
				-0.008087158203125
			],
			"min":[
				-0.31036376953125,
				-7.298137664794922,
				-3.926849365234375
			],
			"type":"VEC3"
		},
		{
			"bufferView":17,
			"componentType":5126,
			"count":16,
			"type":"VEC3"
		},
		{
			"bufferView":18,
			"componentType":5126,
			"count":16,
			"type":"VEC2"
		},
		{
			"bufferView":19,
			"componentType":5123,
			"count":24,
			"type":"SCALAR"
		},
		{
			"bufferView":20,
			"componentType":5126,
			"count":16,
			"max":[
				1.1313438415527344,
				7.496776580810547,
				-0.008087158203125
			],
			"min":[
				-5.005317687988281,
				-7.298137664794922,
				-3.926849365234375
			],
			"type":"VEC3"
		},
		{
			"bufferView":21,
			"componentType":5126,
			"count":16,
			"type":"VEC3"
		},
		{
			"bufferView":22,
			"componentType":5126,
			"count":16,
			"type":"VEC2"
		},
		{
			"bufferView":23,
			"componentType":5123,
			"count":24,
			"type":"SCALAR"
		},
		{
			"bufferView":24,
			"componentType":5126,
			"count":32,
			"max":[
				5.826297760009766,
				7.496776580810547,
				-3.9268417358398438
			],
			"min":[
				-5.005317687988281,
				-7.298137664794922,
				-5.046489715576172
			],
			"type":"VEC3"
		},
		{
			"bufferView":25,
			"componentType":5126,
			"count":32,
			"type":"VEC3"
		},
		{
			"bufferView":26,
			"componentType":5126,
			"count":32,
			"type":"VEC2"
		},
		{
			"bufferView":27,
			"componentType":5123,
			"count":48,
			"type":"SCALAR"
		}
	],
	"bufferViews":[
		{
			"buffer":0,
			"byteLength":144,
			"byteOffset":0,
			"target":34962
		},
		{
			"buffer":0,
			"byteLength":144,
			"byteOffset":144,
			"target":34962
		},
		{
			"buffer":0,
			"byteLength":96,
			"byteOffset":288,
			"target":34962
		},
		{
			"buffer":0,
			"byteLength":24,
			"byteOffset":384,
			"target":34963
		},
		{
			"buffer":0,
			"byteLength":144,
			"byteOffset":408,
			"target":34962
		},
		{
			"buffer":0,
			"byteLength":144,
			"byteOffset":552,
			"target":34962
		},
		{
			"buffer":0,
			"byteLength":96,
			"byteOffset":696,
			"target":34962
		},
		{
			"buffer":0,
			"byteLength":24,
			"byteOffset":792,
			"target":34963
		},
		{
			"buffer":0,
			"byteLength":192,
			"byteOffset":816,
			"target":34962
		},
		{
			"buffer":0,
			"byteLength":192,
			"byteOffset":1008,
			"target":34962
		},
		{
			"buffer":0,
			"byteLength":128,
			"byteOffset":1200,
			"target":34962
		},
		{
			"buffer":0,
			"byteLength":48,
			"byteOffset":1328,
			"target":34963
		},
		{
			"buffer":0,
			"byteLength":192,
			"byteOffset":1376,
			"target":34962
		},
		{
			"buffer":0,
			"byteLength":192,
			"byteOffset":1568,
			"target":34962
		},
		{
			"buffer":0,
			"byteLength":128,
			"byteOffset":1760,
			"target":34962
		},
		{
			"buffer":0,
			"byteLength":48,
			"byteOffset":1888,
			"target":34963
		},
		{
			"buffer":0,
			"byteLength":192,
			"byteOffset":1936,
			"target":34962
		},
		{
			"buffer":0,
			"byteLength":192,
			"byteOffset":2128,
			"target":34962
		},
		{
			"buffer":0,
			"byteLength":128,
			"byteOffset":2320,
			"target":34962
		},
		{
			"buffer":0,
			"byteLength":48,
			"byteOffset":2448,
			"target":34963
		},
		{
			"buffer":0,
			"byteLength":192,
			"byteOffset":2496,
			"target":34962
		},
		{
			"buffer":0,
			"byteLength":192,
			"byteOffset":2688,
			"target":34962
		},
		{
			"buffer":0,
			"byteLength":128,
			"byteOffset":2880,
			"target":34962
		},
		{
			"buffer":0,
			"byteLength":48,
			"byteOffset":3008,
			"target":34963
		},
		{
			"buffer":0,
			"byteLength":384,
			"byteOffset":3056,
			"target":34962
		},
		{
			"buffer":0,
			"byteLength":384,
			"byteOffset":3440,
			"target":34962
		},
		{
			"buffer":0,
			"byteLength":256,
			"byteOffset":3824,
			"target":34962
		},
		{
			"buffer":0,
			"byteLength":96,
			"byteOffset":4080,
			"target":34963
		}
	],
	"samplers":[
		{
			"magFilter":9729,
			"minFilter":9987
		}
	],
	"buffers":[
		{
			"byteLength":4176,
			"uri":"middle_class_1.bin"
		}
	]
}
