{
    "asset" : {
        "generator" : "Khronos glTF Blender I/O v1.7.33",
        "version" : "2.0"
    },
    "scene" : 0,
    "scenes" : [
        {
            "name" : "Scene",
            "nodes" : [
                0
            ]
        }
    ],
    "nodes" : [
        {
            "mesh" : 0,
            "name" : "Maxis-3d3-mesh-12.001",
            "rotation" : [
                0.7071068286895752,
                0,
                0,
                0.7071067094802856
            ]
        }
    ],
    "materials" : [
        {
            "doubleSided" : true,
            "name" : "mat39-63.004",
            "pbrMetallicRoughness" : {
                "baseColorTexture" : {
                    "index" : 0
                },
                "metallicFactor" : 0
            }
        },
        {
            "doubleSided" : true,
            "name" : "mat39-60.004",
            "pbrMetallicRoughness" : {
                "baseColorTexture" : {
                    "index" : 1
                },
                "metallicFactor" : 0
            }
        },
        {
            "doubleSided" : true,
            "name" : "mat2-31.001",
            "pbrMetallicRoughness" : {
                "baseColorTexture" : {
                    "index" : 2
                },
                "metallicFactor" : 0
            }
        },
        {
            "doubleSided" : true,
            "name" : "mat2-28.001",
            "pbrMetallicRoughness" : {
                "baseColorTexture" : {
                    "index" : 3
                },
                "metallicFactor" : 0
            }
        },
        {
            "doubleSided" : true,
            "name" : "mat2-30.001",
            "pbrMetallicRoughness" : {
                "baseColorTexture" : {
                    "index" : 4
                },
                "metallicFactor" : 0
            }
        },
        {
            "doubleSided" : true,
            "name" : "mat2-29.001",
            "pbrMetallicRoughness" : {
                "baseColorTexture" : {
                    "index" : 5
                },
                "metallicFactor" : 0
            }
        },
        {
            "doubleSided" : true,
            "name" : "matcolour-48.014",
            "pbrMetallicRoughness" : {
                "baseColorFactor" : [
                    0.05882352963089943,
                    0.05882352963089943,
                    0.05882352963089943,
                    1
                ],
                "metallicFactor" : 0
            }
        }
    ],
    "meshes" : [
        {
            "name" : "Maxis-3d3-mesh-12.001",
            "primitives" : [
                {
                    "attributes" : {
                        "POSITION" : 0,
                        "NORMAL" : 1,
                        "TEXCOORD_0" : 2
                    },
                    "indices" : 3,
                    "material" : 0
                },
                {
                    "attributes" : {
                        "POSITION" : 4,
                        "NORMAL" : 5,
                        "TEXCOORD_0" : 6
                    },
                    "indices" : 3,
                    "material" : 1
                },
                {
                    "attributes" : {
                        "POSITION" : 7,
                        "NORMAL" : 8,
                        "TEXCOORD_0" : 9
                    },
                    "indices" : 10,
                    "material" : 2
                },
                {
                    "attributes" : {
                        "POSITION" : 11,
                        "NORMAL" : 12,
                        "TEXCOORD_0" : 13
                    },
                    "indices" : 10,
                    "material" : 3
                },
                {
                    "attributes" : {
                        "POSITION" : 14,
                        "NORMAL" : 15,
                        "TEXCOORD_0" : 16
                    },
                    "indices" : 17,
                    "material" : 4
                },
                {
                    "attributes" : {
                        "POSITION" : 18,
                        "NORMAL" : 19,
                        "TEXCOORD_0" : 20
                    },
                    "indices" : 21,
                    "material" : 5
                },
                {
                    "attributes" : {
                        "POSITION" : 22,
                        "NORMAL" : 23,
                        "TEXCOORD_0" : 24
                    },
                    "indices" : 25,
                    "material" : 6
                }
            ]
        }
    ],
    "textures" : [
        {
            "sampler" : 0,
            "source" : 0
        },
        {
            "sampler" : 0,
            "source" : 1
        },
        {
            "sampler" : 0,
            "source" : 2
        },
        {
            "sampler" : 0,
            "source" : 3
        },
        {
            "sampler" : 0,
            "source" : 4
        },
        {
            "sampler" : 0,
            "source" : 5
        }
    ],
    "images" : [
        {
            "mimeType" : "image/png",
            "name" : "tex39-63",
            "uri" : "../../../Textures/tex39-63.png"
        },
        {
            "mimeType" : "image/png",
            "name" : "tex39-60",
            "uri" : "../../../Textures/tex39-60.png"
        },
        {
            "mimeType" : "image/png",
            "name" : "tex2-31",
            "uri" : "../../../Textures/tex2-31.png"
        },
        {
            "mimeType" : "image/png",
            "name" : "tex2-28",
            "uri" : "../../../Textures/tex2-28.png"
        },
        {
            "mimeType" : "image/png",
            "name" : "tex2-30",
            "uri" : "../../../Textures/tex2-30.png"
        },
        {
            "mimeType" : "image/png",
            "name" : "tex2-29",
            "uri" : "../../../Textures/tex2-29.png"
        }
    ],
    "accessors" : [
        {
            "bufferView" : 0,
            "componentType" : 5126,
            "count" : 12,
            "max" : [
                5.826297760009766,
                7.496776580810547,
                -3.9268455505371094
            ],
            "min" : [
                -5.005317687988281,
                -0.0689697265625,
                -5.046489715576172
            ],
            "type" : "VEC3"
        },
        {
            "bufferView" : 1,
            "componentType" : 5126,
            "count" : 12,
            "type" : "VEC3"
        },
        {
            "bufferView" : 2,
            "componentType" : 5126,
            "count" : 12,
            "type" : "VEC2"
        },
        {
            "bufferView" : 3,
            "componentType" : 5123,
            "count" : 12,
            "type" : "SCALAR"
        },
        {
            "bufferView" : 4,
            "componentType" : 5126,
            "count" : 12,
            "max" : [
                5.826297760009766,
                0.267608642578125,
                -3.9268417358398438
            ],
            "min" : [
                -5.005317687988281,
                -7.298137664794922,
                -5.046489715576172
            ],
            "type" : "VEC3"
        },
        {
            "bufferView" : 5,
            "componentType" : 5126,
            "count" : 12,
            "type" : "VEC3"
        },
        {
            "bufferView" : 6,
            "componentType" : 5126,
            "count" : 12,
            "type" : "VEC2"
        },
        {
            "bufferView" : 7,
            "componentType" : 5126,
            "count" : 16,
            "max" : [
                5.826297760009766,
                7.496776580810547,
                -0.008090972900390625
            ],
            "min" : [
                -5.005317687988281,
                -0.0689697265625,
                -3.926849365234375
            ],
            "type" : "VEC3"
        },
        {
            "bufferView" : 8,
            "componentType" : 5126,
            "count" : 16,
            "type" : "VEC3"
        },
        {
            "bufferView" : 9,
            "componentType" : 5126,
            "count" : 16,
            "type" : "VEC2"
        },
        {
            "bufferView" : 10,
            "componentType" : 5123,
            "count" : 24,
            "type" : "SCALAR"
        },
        {
            "bufferView" : 11,
            "componentType" : 5126,
            "count" : 16,
            "max" : [
                5.826297760009766,
                0.267608642578125,
                -0.008087158203125
            ],
            "min" : [
                -5.005317687988281,
                -7.298137664794922,
                -3.9268455505371094
            ],
            "type" : "VEC3"
        },
        {
            "bufferView" : 12,
            "componentType" : 5126,
            "count" : 16,
            "type" : "VEC3"
        },
        {
            "bufferView" : 13,
            "componentType" : 5126,
            "count" : 16,
            "type" : "VEC2"
        },
        {
            "bufferView" : 14,
            "componentType" : 5126,
            "count" : 16,
            "max" : [
                5.826297760009766,
                7.496776580810547,
                -0.008087158203125
            ],
            "min" : [
                -0.31036376953125,
                -7.298137664794922,
                -3.926849365234375
            ],
            "type" : "VEC3"
        },
        {
            "bufferView" : 15,
            "componentType" : 5126,
            "count" : 16,
            "type" : "VEC3"
        },
        {
            "bufferView" : 16,
            "componentType" : 5126,
            "count" : 16,
            "type" : "VEC2"
        },
        {
            "bufferView" : 17,
            "componentType" : 5123,
            "count" : 24,
            "type" : "SCALAR"
        },
        {
            "bufferView" : 18,
            "componentType" : 5126,
            "count" : 16,
            "max" : [
                1.1313438415527344,
                7.496776580810547,
                -0.008087158203125
            ],
            "min" : [
                -5.005317687988281,
                -7.298137664794922,
                -3.926849365234375
            ],
            "type" : "VEC3"
        },
        {
            "bufferView" : 19,
            "componentType" : 5126,
            "count" : 16,
            "type" : "VEC3"
        },
        {
            "bufferView" : 20,
            "componentType" : 5126,
            "count" : 16,
            "type" : "VEC2"
        },
        {
            "bufferView" : 21,
            "componentType" : 5123,
            "count" : 24,
            "type" : "SCALAR"
        },
        {
            "bufferView" : 22,
            "componentType" : 5126,
            "count" : 48,
            "max" : [
                5.826297760009766,
                7.496776580810547,
                -3.9268417358398438
            ],
            "min" : [
                -5.005317687988281,
                -7.298137664794922,
                -5.046489715576172
            ],
            "type" : "VEC3"
        },
        {
            "bufferView" : 23,
            "componentType" : 5126,
            "count" : 48,
            "type" : "VEC3"
        },
        {
            "bufferView" : 24,
            "componentType" : 5126,
            "count" : 48,
            "type" : "VEC2"
        },
        {
            "bufferView" : 25,
            "componentType" : 5123,
            "count" : 48,
            "type" : "SCALAR"
        }
    ],
    "bufferViews" : [
        {
            "buffer" : 0,
            "byteLength" : 144,
            "byteOffset" : 0
        },
        {
            "buffer" : 0,
            "byteLength" : 144,
            "byteOffset" : 144
        },
        {
            "buffer" : 0,
            "byteLength" : 96,
            "byteOffset" : 288
        },
        {
            "buffer" : 0,
            "byteLength" : 24,
            "byteOffset" : 384
        },
        {
            "buffer" : 0,
            "byteLength" : 144,
            "byteOffset" : 408
        },
        {
            "buffer" : 0,
            "byteLength" : 144,
            "byteOffset" : 552
        },
        {
            "buffer" : 0,
            "byteLength" : 96,
            "byteOffset" : 696
        },
        {
            "buffer" : 0,
            "byteLength" : 192,
            "byteOffset" : 792
        },
        {
            "buffer" : 0,
            "byteLength" : 192,
            "byteOffset" : 984
        },
        {
            "buffer" : 0,
            "byteLength" : 128,
            "byteOffset" : 1176
        },
        {
            "buffer" : 0,
            "byteLength" : 48,
            "byteOffset" : 1304
        },
        {
            "buffer" : 0,
            "byteLength" : 192,
            "byteOffset" : 1352
        },
        {
            "buffer" : 0,
            "byteLength" : 192,
            "byteOffset" : 1544
        },
        {
            "buffer" : 0,
            "byteLength" : 128,
            "byteOffset" : 1736
        },
        {
            "buffer" : 0,
            "byteLength" : 192,
            "byteOffset" : 1864
        },
        {
            "buffer" : 0,
            "byteLength" : 192,
            "byteOffset" : 2056
        },
        {
            "buffer" : 0,
            "byteLength" : 128,
            "byteOffset" : 2248
        },
        {
            "buffer" : 0,
            "byteLength" : 48,
            "byteOffset" : 2376
        },
        {
            "buffer" : 0,
            "byteLength" : 192,
            "byteOffset" : 2424
        },
        {
            "buffer" : 0,
            "byteLength" : 192,
            "byteOffset" : 2616
        },
        {
            "buffer" : 0,
            "byteLength" : 128,
            "byteOffset" : 2808
        },
        {
            "buffer" : 0,
            "byteLength" : 48,
            "byteOffset" : 2936
        },
        {
            "buffer" : 0,
            "byteLength" : 576,
            "byteOffset" : 2984
        },
        {
            "buffer" : 0,
            "byteLength" : 576,
            "byteOffset" : 3560
        },
        {
            "buffer" : 0,
            "byteLength" : 384,
            "byteOffset" : 4136
        },
        {
            "buffer" : 0,
            "byteLength" : 96,
            "byteOffset" : 4520
        }
    ],
    "samplers" : [
        {
            "magFilter" : 9729,
            "minFilter" : 9987
        }
    ],
    "buffers" : [
        {
            "byteLength" : 4616,
            "uri" : "middle_class_1.bin"
        }
    ]
}
