{
	"asset":{
		"generator":"Khronos glTF Blender I/O v4.1.63",
		"version":"2.0"
	},
	"scene":0,
	"scenes":[
		{
			"name":"Scene",
			"nodes":[
				0
			]
		}
	],
	"nodes":[
		{
			"mesh":0,
			"name":"Maxis-3d3-mesh-13",
			"rotation":[
				0.70710688829422,
				0,
				0,
				0.7071066498756409
			]
		}
	],
	"materials":[
		{
			"name":"mat40-55",
			"pbrMetallicRoughness":{
				"baseColorTexture":{
					"index":0
				},
				"metallicFactor":0
			}
		},
		{
			"name":"mat39-14",
			"pbrMetallicRoughness":{
				"baseColorTexture":{
					"index":1
				},
				"metallicFactor":0
			}
		},
		{
			"name":"mat40-63",
			"pbrMetallicRoughness":{
				"baseColorTexture":{
					"index":2
				},
				"metallicFactor":0
			}
		}
	],
	"meshes":[
		{
			"name":"Maxis-3d3-mesh-13",
			"primitives":[
				{
					"attributes":{
						"POSITION":0,
						"NORMAL":1,
						"TEXCOORD_0":2
					},
					"indices":3,
					"material":0
				},
				{
					"attributes":{
						"POSITION":4,
						"NORMAL":5,
						"TEXCOORD_0":6
					},
					"indices":7,
					"material":0
				},
				{
					"attributes":{
						"POSITION":8,
						"NORMAL":9,
						"TEXCOORD_0":10
					},
					"indices":11,
					"material":1
				},
				{
					"attributes":{
						"POSITION":12,
						"NORMAL":13,
						"TEXCOORD_0":14
					},
					"indices":15,
					"material":1
				},
				{
					"attributes":{
						"POSITION":16,
						"NORMAL":17,
						"TEXCOORD_0":18
					},
					"indices":19,
					"material":1
				},
				{
					"attributes":{
						"POSITION":20,
						"NORMAL":21,
						"TEXCOORD_0":22
					},
					"indices":23,
					"material":1
				},
				{
					"attributes":{
						"POSITION":24,
						"NORMAL":25,
						"TEXCOORD_0":26
					},
					"indices":27,
					"material":2
				},
				{
					"attributes":{
						"POSITION":28,
						"NORMAL":29,
						"TEXCOORD_0":30
					},
					"indices":31,
					"material":2
				}
			]
		}
	],
	"textures":[
		{
			"sampler":0,
			"source":0
		},
		{
			"sampler":0,
			"source":1
		},
		{
			"sampler":0,
			"source":2
		}
	],
	"images":[
		{
			"mimeType":"image/png",
			"name":"tex40-55",
			"uri":"../../../Textures/tex40-55.png"
		},
		{
			"mimeType":"image/png",
			"name":"tex39-14",
			"uri":"../../../Textures/tex39-14.png"
		},
		{
			"mimeType":"image/png",
			"name":"tex40-63",
			"uri":"../../../Textures/tex40-63.png"
		}
	],
	"accessors":[
		{
			"bufferView":0,
			"componentType":5126,
			"count":6,
			"max":[
				-0.43904876708984375,
				7.36273193359375,
				-4.527961730957031
			],
			"min":[
				-6.665164947509766,
				-7.337593078613281,
				-7.898353576660156
			],
			"type":"VEC3"
		},
		{
			"bufferView":1,
			"componentType":5126,
			"count":6,
			"type":"VEC3"
		},
		{
			"bufferView":2,
			"componentType":5126,
			"count":6,
			"type":"VEC2"
		},
		{
			"bufferView":3,
			"componentType":5123,
			"count":6,
			"type":"SCALAR"
		},
		{
			"bufferView":4,
			"componentType":5126,
			"count":6,
			"max":[
				6.910991668701172,
				0.4158592224121094,
				-4.527961730957031
			],
			"min":[
				-6.665164947509766,
				-7.337593078613281,
				-7.898349761962891
			],
			"type":"VEC3"
		},
		{
			"bufferView":5,
			"componentType":5126,
			"count":6,
			"type":"VEC3"
		},
		{
			"bufferView":6,
			"componentType":5126,
			"count":6,
			"type":"VEC2"
		},
		{
			"bufferView":7,
			"componentType":5123,
			"count":6,
			"type":"SCALAR"
		},
		{
			"bufferView":8,
			"componentType":5126,
			"count":8,
			"max":[
				6.910991668701172,
				7.362735748291016,
				-0.00551605224609375
			],
			"min":[
				-0.695831298828125,
				-2.647808074951172,
				-4.741325378417969
			],
			"type":"VEC3"
		},
		{
			"bufferView":9,
			"componentType":5126,
			"count":8,
			"type":"VEC3"
		},
		{
			"bufferView":10,
			"componentType":5126,
			"count":8,
			"type":"VEC2"
		},
		{
			"bufferView":11,
			"componentType":5123,
			"count":12,
			"type":"SCALAR"
		},
		{
			"bufferView":12,
			"componentType":5126,
			"count":8,
			"max":[
				6.910991668701172,
				7.362735748291016,
				-0.00551605224609375
			],
			"min":[
				-6.665164947509766,
				-7.337593078613281,
				-4.741325378417969
			],
			"type":"VEC3"
		},
		{
			"bufferView":13,
			"componentType":5126,
			"count":8,
			"type":"VEC3"
		},
		{
			"bufferView":14,
			"componentType":5126,
			"count":8,
			"type":"VEC2"
		},
		{
			"bufferView":15,
			"componentType":5123,
			"count":12,
			"type":"SCALAR"
		},
		{
			"bufferView":16,
			"componentType":5126,
			"count":8,
			"max":[
				-0.43904876708984375,
				7.362735748291016,
				-0.005519866943359375
			],
			"min":[
				-6.665164947509766,
				-7.337593078613281,
				-4.741325378417969
			],
			"type":"VEC3"
		},
		{
			"bufferView":17,
			"componentType":5126,
			"count":8,
			"type":"VEC3"
		},
		{
			"bufferView":18,
			"componentType":5126,
			"count":8,
			"type":"VEC2"
		},
		{
			"bufferView":19,
			"componentType":5123,
			"count":12,
			"type":"SCALAR"
		},
		{
			"bufferView":20,
			"componentType":5126,
			"count":8,
			"max":[
				6.910991668701172,
				0.4158592224121094,
				-0.00551605224609375
			],
			"min":[
				-6.665164947509766,
				-7.337593078613281,
				-4.741321563720703
			],
			"type":"VEC3"
		},
		{
			"bufferView":21,
			"componentType":5126,
			"count":8,
			"type":"VEC3"
		},
		{
			"bufferView":22,
			"componentType":5126,
			"count":8,
			"type":"VEC2"
		},
		{
			"bufferView":23,
			"componentType":5123,
			"count":12,
			"type":"SCALAR"
		},
		{
			"bufferView":24,
			"componentType":5126,
			"count":8,
			"max":[
				6.910991668701172,
				7.36273193359375,
				-4.527961730957031
			],
			"min":[
				-6.665164947509766,
				-7.337593078613281,
				-7.898353576660156
			],
			"type":"VEC3"
		},
		{
			"bufferView":25,
			"componentType":5126,
			"count":8,
			"type":"VEC3"
		},
		{
			"bufferView":26,
			"componentType":5126,
			"count":8,
			"type":"VEC2"
		},
		{
			"bufferView":27,
			"componentType":5123,
			"count":12,
			"type":"SCALAR"
		},
		{
			"bufferView":28,
			"componentType":5126,
			"count":8,
			"max":[
				6.910991668701172,
				7.36273193359375,
				-4.527961730957031
			],
			"min":[
				-3.552104949951172,
				-4.992702484130859,
				-7.898353576660156
			],
			"type":"VEC3"
		},
		{
			"bufferView":29,
			"componentType":5126,
			"count":8,
			"type":"VEC3"
		},
		{
			"bufferView":30,
			"componentType":5126,
			"count":8,
			"type":"VEC2"
		},
		{
			"bufferView":31,
			"componentType":5123,
			"count":12,
			"type":"SCALAR"
		}
	],
	"bufferViews":[
		{
			"buffer":0,
			"byteLength":72,
			"byteOffset":0,
			"target":34962
		},
		{
			"buffer":0,
			"byteLength":72,
			"byteOffset":72,
			"target":34962
		},
		{
			"buffer":0,
			"byteLength":48,
			"byteOffset":144,
			"target":34962
		},
		{
			"buffer":0,
			"byteLength":12,
			"byteOffset":192,
			"target":34963
		},
		{
			"buffer":0,
			"byteLength":72,
			"byteOffset":204,
			"target":34962
		},
		{
			"buffer":0,
			"byteLength":72,
			"byteOffset":276,
			"target":34962
		},
		{
			"buffer":0,
			"byteLength":48,
			"byteOffset":348,
			"target":34962
		},
		{
			"buffer":0,
			"byteLength":12,
			"byteOffset":396,
			"target":34963
		},
		{
			"buffer":0,
			"byteLength":96,
			"byteOffset":408,
			"target":34962
		},
		{
			"buffer":0,
			"byteLength":96,
			"byteOffset":504,
			"target":34962
		},
		{
			"buffer":0,
			"byteLength":64,
			"byteOffset":600,
			"target":34962
		},
		{
			"buffer":0,
			"byteLength":24,
			"byteOffset":664,
			"target":34963
		},
		{
			"buffer":0,
			"byteLength":96,
			"byteOffset":688,
			"target":34962
		},
		{
			"buffer":0,
			"byteLength":96,
			"byteOffset":784,
			"target":34962
		},
		{
			"buffer":0,
			"byteLength":64,
			"byteOffset":880,
			"target":34962
		},
		{
			"buffer":0,
			"byteLength":24,
			"byteOffset":944,
			"target":34963
		},
		{
			"buffer":0,
			"byteLength":96,
			"byteOffset":968,
			"target":34962
		},
		{
			"buffer":0,
			"byteLength":96,
			"byteOffset":1064,
			"target":34962
		},
		{
			"buffer":0,
			"byteLength":64,
			"byteOffset":1160,
			"target":34962
		},
		{
			"buffer":0,
			"byteLength":24,
			"byteOffset":1224,
			"target":34963
		},
		{
			"buffer":0,
			"byteLength":96,
			"byteOffset":1248,
			"target":34962
		},
		{
			"buffer":0,
			"byteLength":96,
			"byteOffset":1344,
			"target":34962
		},
		{
			"buffer":0,
			"byteLength":64,
			"byteOffset":1440,
			"target":34962
		},
		{
			"buffer":0,
			"byteLength":24,
			"byteOffset":1504,
			"target":34963
		},
		{
			"buffer":0,
			"byteLength":96,
			"byteOffset":1528,
			"target":34962
		},
		{
			"buffer":0,
			"byteLength":96,
			"byteOffset":1624,
			"target":34962
		},
		{
			"buffer":0,
			"byteLength":64,
			"byteOffset":1720,
			"target":34962
		},
		{
			"buffer":0,
			"byteLength":24,
			"byteOffset":1784,
			"target":34963
		},
		{
			"buffer":0,
			"byteLength":96,
			"byteOffset":1808,
			"target":34962
		},
		{
			"buffer":0,
			"byteLength":96,
			"byteOffset":1904,
			"target":34962
		},
		{
			"buffer":0,
			"byteLength":64,
			"byteOffset":2000,
			"target":34962
		},
		{
			"buffer":0,
			"byteLength":24,
			"byteOffset":2064,
			"target":34963
		}
	],
	"samplers":[
		{
			"magFilter":9729,
			"minFilter":9987
		}
	],
	"buffers":[
		{
			"byteLength":2088,
			"uri":"middle_class_2.bin"
		}
	]
}
