{
    "asset" : {
        "generator" : "Khronos glTF Blender I/O v1.7.33",
        "version" : "2.0"
    },
    "scene" : 0,
    "scenes" : [
        {
            "name" : "Scene",
            "nodes" : [
                0
            ]
        }
    ],
    "nodes" : [
        {
            "mesh" : 0,
            "name" : "Maxis-3d3-mesh-16",
            "rotation" : [
                0.7071068286895752,
                0,
                0,
                0.7071067094802856
            ]
        }
    ],
    "materials" : [
        {
            "doubleSided" : true,
            "name" : "mat2-31.002",
            "pbrMetallicRoughness" : {
                "baseColorTexture" : {
                    "index" : 0
                },
                "metallicFactor" : 0
            }
        },
        {
            "doubleSided" : true,
            "name" : "mat2-28.002",
            "pbrMetallicRoughness" : {
                "baseColorTexture" : {
                    "index" : 1
                },
                "metallicFactor" : 0
            }
        },
        {
            "doubleSided" : true,
            "name" : "mat2-30.002",
            "pbrMetallicRoughness" : {
                "baseColorTexture" : {
                    "index" : 2
                },
                "metallicFactor" : 0
            }
        },
        {
            "doubleSided" : true,
            "name" : "mat2-29.002",
            "pbrMetallicRoughness" : {
                "baseColorTexture" : {
                    "index" : 3
                },
                "metallicFactor" : 0
            }
        },
        {
            "doubleSided" : true,
            "name" : "mat39-63.005",
            "pbrMetallicRoughness" : {
                "baseColorTexture" : {
                    "index" : 4
                },
                "metallicFactor" : 0
            }
        },
        {
            "doubleSided" : true,
            "name" : "mat39-60.005",
            "pbrMetallicRoughness" : {
                "baseColorTexture" : {
                    "index" : 5
                },
                "metallicFactor" : 0
            }
        },
        {
            "doubleSided" : true,
            "name" : "matcolour-128",
            "pbrMetallicRoughness" : {
                "baseColorFactor" : [
                    0.12156862765550613,
                    0.08235294371843338,
                    0.062745101749897,
                    1
                ],
                "metallicFactor" : 0
            }
        }
    ],
    "meshes" : [
        {
            "name" : "Maxis-3d3-mesh-16",
            "primitives" : [
                {
                    "attributes" : {
                        "POSITION" : 0,
                        "NORMAL" : 1,
                        "TEXCOORD_0" : 2
                    },
                    "indices" : 3,
                    "material" : 0
                },
                {
                    "attributes" : {
                        "POSITION" : 4,
                        "NORMAL" : 5,
                        "TEXCOORD_0" : 6
                    },
                    "indices" : 7,
                    "material" : 1
                },
                {
                    "attributes" : {
                        "POSITION" : 8,
                        "NORMAL" : 9,
                        "TEXCOORD_0" : 10
                    },
                    "indices" : 11,
                    "material" : 2
                },
                {
                    "attributes" : {
                        "POSITION" : 12,
                        "NORMAL" : 13,
                        "TEXCOORD_0" : 14
                    },
                    "indices" : 15,
                    "material" : 3
                },
                {
                    "attributes" : {
                        "POSITION" : 16,
                        "NORMAL" : 17,
                        "TEXCOORD_0" : 18
                    },
                    "indices" : 19,
                    "material" : 4
                },
                {
                    "attributes" : {
                        "POSITION" : 20,
                        "NORMAL" : 21,
                        "TEXCOORD_0" : 22
                    },
                    "indices" : 19,
                    "material" : 5
                },
                {
                    "attributes" : {
                        "POSITION" : 23,
                        "NORMAL" : 24,
                        "TEXCOORD_0" : 25
                    },
                    "indices" : 26,
                    "material" : 6
                }
            ]
        }
    ],
    "textures" : [
        {
            "sampler" : 0,
            "source" : 0
        },
        {
            "sampler" : 0,
            "source" : 1
        },
        {
            "sampler" : 0,
            "source" : 2
        },
        {
            "sampler" : 0,
            "source" : 3
        },
        {
            "sampler" : 0,
            "source" : 4
        },
        {
            "sampler" : 0,
            "source" : 5
        }
    ],
    "images" : [
        {
            "mimeType" : "image/png",
            "name" : "tex2-31",
            "uri" : "../../../Textures/tex2-31.png"
        },
        {
            "mimeType" : "image/png",
            "name" : "tex2-28",
            "uri" : "../../../Textures/tex2-28.png"
        },
        {
            "mimeType" : "image/png",
            "name" : "tex2-30",
            "uri" : "../../../Textures/tex2-30.png"
        },
        {
            "mimeType" : "image/png",
            "name" : "tex2-29",
            "uri" : "../../../Textures/tex2-29.png"
        },
        {
            "mimeType" : "image/png",
            "name" : "tex39-63",
            "uri" : "../../../Textures/tex39-63.png"
        },
        {
            "mimeType" : "image/png",
            "name" : "tex39-60",
            "uri" : "../../../Textures/tex39-60.png"
        }
    ],
    "accessors" : [
        {
            "bufferView" : 0,
            "componentType" : 5126,
            "count" : 16,
            "max" : [
                5.936672210693359,
                7.435222625732422,
                0.0687103271484375
            ],
            "min" : [
                -5.073436737060547,
                -0.35820770263671875,
                -5.083858489990234
            ],
            "type" : "VEC3"
        },
        {
            "bufferView" : 1,
            "componentType" : 5126,
            "count" : 16,
            "type" : "VEC3"
        },
        {
            "bufferView" : 2,
            "componentType" : 5126,
            "count" : 16,
            "type" : "VEC2"
        },
        {
            "bufferView" : 3,
            "componentType" : 5123,
            "count" : 24,
            "type" : "SCALAR"
        },
        {
            "bufferView" : 4,
            "componentType" : 5126,
            "count" : 20,
            "max" : [
                5.936672210693359,
                0.060222625732421875,
                0.06871414184570312
            ],
            "min" : [
                -5.073436737060547,
                -7.733211517333984,
                -5.083858489990234
            ],
            "type" : "VEC3"
        },
        {
            "bufferView" : 5,
            "componentType" : 5126,
            "count" : 20,
            "type" : "VEC3"
        },
        {
            "bufferView" : 6,
            "componentType" : 5126,
            "count" : 20,
            "type" : "VEC2"
        },
        {
            "bufferView" : 7,
            "componentType" : 5123,
            "count" : 24,
            "type" : "SCALAR"
        },
        {
            "bufferView" : 8,
            "componentType" : 5126,
            "count" : 20,
            "max" : [
                5.936672210693359,
                7.435222625732422,
                0.06871414184570312
            ],
            "min" : [
                -0.2837715148925781,
                -7.733211517333984,
                -5.083858489990234
            ],
            "type" : "VEC3"
        },
        {
            "bufferView" : 9,
            "componentType" : 5126,
            "count" : 20,
            "type" : "VEC3"
        },
        {
            "bufferView" : 10,
            "componentType" : 5126,
            "count" : 20,
            "type" : "VEC2"
        },
        {
            "bufferView" : 11,
            "componentType" : 5123,
            "count" : 24,
            "type" : "SCALAR"
        },
        {
            "bufferView" : 12,
            "componentType" : 5126,
            "count" : 20,
            "max" : [
                1.1470069885253906,
                7.435222625732422,
                0.06871414184570312
            ],
            "min" : [
                -5.073436737060547,
                -7.733211517333984,
                -5.083858489990234
            ],
            "type" : "VEC3"
        },
        {
            "bufferView" : 13,
            "componentType" : 5126,
            "count" : 20,
            "type" : "VEC3"
        },
        {
            "bufferView" : 14,
            "componentType" : 5126,
            "count" : 20,
            "type" : "VEC2"
        },
        {
            "bufferView" : 15,
            "componentType" : 5123,
            "count" : 24,
            "type" : "SCALAR"
        },
        {
            "bufferView" : 16,
            "componentType" : 5126,
            "count" : 12,
            "max" : [
                5.936672210693359,
                7.435222625732422,
                -5.083858489990234
            ],
            "min" : [
                -5.073436737060547,
                -0.35820770263671875,
                -6.2260894775390625
            ],
            "type" : "VEC3"
        },
        {
            "bufferView" : 17,
            "componentType" : 5126,
            "count" : 12,
            "type" : "VEC3"
        },
        {
            "bufferView" : 18,
            "componentType" : 5126,
            "count" : 12,
            "type" : "VEC2"
        },
        {
            "bufferView" : 19,
            "componentType" : 5123,
            "count" : 12,
            "type" : "SCALAR"
        },
        {
            "bufferView" : 20,
            "componentType" : 5126,
            "count" : 12,
            "max" : [
                5.936672210693359,
                0.060222625732421875,
                -5.083858489990234
            ],
            "min" : [
                -5.073436737060547,
                -7.733211517333984,
                -6.2260894775390625
            ],
            "type" : "VEC3"
        },
        {
            "bufferView" : 21,
            "componentType" : 5126,
            "count" : 12,
            "type" : "VEC3"
        },
        {
            "bufferView" : 22,
            "componentType" : 5126,
            "count" : 12,
            "type" : "VEC2"
        },
        {
            "bufferView" : 23,
            "componentType" : 5126,
            "count" : 48,
            "max" : [
                5.936672210693359,
                7.435222625732422,
                -5.083858489990234
            ],
            "min" : [
                -5.073436737060547,
                -7.733211517333984,
                -6.2260894775390625
            ],
            "type" : "VEC3"
        },
        {
            "bufferView" : 24,
            "componentType" : 5126,
            "count" : 48,
            "type" : "VEC3"
        },
        {
            "bufferView" : 25,
            "componentType" : 5126,
            "count" : 48,
            "type" : "VEC2"
        },
        {
            "bufferView" : 26,
            "componentType" : 5123,
            "count" : 48,
            "type" : "SCALAR"
        }
    ],
    "bufferViews" : [
        {
            "buffer" : 0,
            "byteLength" : 192,
            "byteOffset" : 0
        },
        {
            "buffer" : 0,
            "byteLength" : 192,
            "byteOffset" : 192
        },
        {
            "buffer" : 0,
            "byteLength" : 128,
            "byteOffset" : 384
        },
        {
            "buffer" : 0,
            "byteLength" : 48,
            "byteOffset" : 512
        },
        {
            "buffer" : 0,
            "byteLength" : 240,
            "byteOffset" : 560
        },
        {
            "buffer" : 0,
            "byteLength" : 240,
            "byteOffset" : 800
        },
        {
            "buffer" : 0,
            "byteLength" : 160,
            "byteOffset" : 1040
        },
        {
            "buffer" : 0,
            "byteLength" : 48,
            "byteOffset" : 1200
        },
        {
            "buffer" : 0,
            "byteLength" : 240,
            "byteOffset" : 1248
        },
        {
            "buffer" : 0,
            "byteLength" : 240,
            "byteOffset" : 1488
        },
        {
            "buffer" : 0,
            "byteLength" : 160,
            "byteOffset" : 1728
        },
        {
            "buffer" : 0,
            "byteLength" : 48,
            "byteOffset" : 1888
        },
        {
            "buffer" : 0,
            "byteLength" : 240,
            "byteOffset" : 1936
        },
        {
            "buffer" : 0,
            "byteLength" : 240,
            "byteOffset" : 2176
        },
        {
            "buffer" : 0,
            "byteLength" : 160,
            "byteOffset" : 2416
        },
        {
            "buffer" : 0,
            "byteLength" : 48,
            "byteOffset" : 2576
        },
        {
            "buffer" : 0,
            "byteLength" : 144,
            "byteOffset" : 2624
        },
        {
            "buffer" : 0,
            "byteLength" : 144,
            "byteOffset" : 2768
        },
        {
            "buffer" : 0,
            "byteLength" : 96,
            "byteOffset" : 2912
        },
        {
            "buffer" : 0,
            "byteLength" : 24,
            "byteOffset" : 3008
        },
        {
            "buffer" : 0,
            "byteLength" : 144,
            "byteOffset" : 3032
        },
        {
            "buffer" : 0,
            "byteLength" : 144,
            "byteOffset" : 3176
        },
        {
            "buffer" : 0,
            "byteLength" : 96,
            "byteOffset" : 3320
        },
        {
            "buffer" : 0,
            "byteLength" : 576,
            "byteOffset" : 3416
        },
        {
            "buffer" : 0,
            "byteLength" : 576,
            "byteOffset" : 3992
        },
        {
            "buffer" : 0,
            "byteLength" : 384,
            "byteOffset" : 4568
        },
        {
            "buffer" : 0,
            "byteLength" : 96,
            "byteOffset" : 4952
        }
    ],
    "samplers" : [
        {
            "magFilter" : 9729,
            "minFilter" : 9987
        }
    ],
    "buffers" : [
        {
            "byteLength" : 5048,
            "uri" : "middle_class_5.bin"
        }
    ]
}
