{
	"asset":{
		"generator":"Khronos glTF Blender I/O v4.1.63",
		"version":"2.0"
	},
	"scene":0,
	"scenes":[
		{
			"name":"Scene",
			"nodes":[
				0
			]
		}
	],
	"nodes":[
		{
			"mesh":0,
			"name":"Maxis-3d3-mesh-16",
			"rotation":[
				0.70710688829422,
				0,
				0,
				0.7071066498756409
			]
		}
	],
	"materials":[
		{
			"name":"mat2-31",
			"pbrMetallicRoughness":{
				"baseColorTexture":{
					"index":0
				},
				"metallicFactor":0
			}
		},
		{
			"name":"mat39-63",
			"pbrMetallicRoughness":{
				"baseColorTexture":{
					"index":1
				},
				"metallicFactor":0
			}
		},
		{
			"name":"matcolour-128",
			"pbrMetallicRoughness":{
				"baseColorFactor":[
					0.12156862765550613,
					0.08235294371843338,
					0.062745101749897,
					1
				],
				"metallicFactor":0
			}
		}
	],
	"meshes":[
		{
			"name":"Maxis-3d3-mesh-16",
			"primitives":[
				{
					"attributes":{
						"POSITION":0,
						"NORMAL":1,
						"TEXCOORD_0":2
					},
					"indices":3,
					"material":0
				},
				{
					"attributes":{
						"POSITION":4,
						"NORMAL":5,
						"TEXCOORD_0":6
					},
					"indices":7,
					"material":0
				},
				{
					"attributes":{
						"POSITION":8,
						"NORMAL":9,
						"TEXCOORD_0":10
					},
					"indices":11,
					"material":0
				},
				{
					"attributes":{
						"POSITION":12,
						"NORMAL":13,
						"TEXCOORD_0":14
					},
					"indices":15,
					"material":0
				},
				{
					"attributes":{
						"POSITION":16,
						"NORMAL":17,
						"TEXCOORD_0":18
					},
					"indices":19,
					"material":1
				},
				{
					"attributes":{
						"POSITION":20,
						"NORMAL":21,
						"TEXCOORD_0":22
					},
					"indices":23,
					"material":1
				},
				{
					"attributes":{
						"POSITION":24,
						"NORMAL":25,
						"TEXCOORD_0":26
					},
					"indices":27,
					"material":2
				}
			]
		}
	],
	"textures":[
		{
			"sampler":0,
			"source":0
		},
		{
			"sampler":0,
			"source":1
		}
	],
	"images":[
		{
			"mimeType":"image/png",
			"name":"tex2-31",
			"uri":"../../../Textures/tex2-31.png"
		},
		{
			"mimeType":"image/png",
			"name":"tex39-63",
			"uri":"../../../Textures/tex39-63.png"
		}
	],
	"accessors":[
		{
			"bufferView":0,
			"componentType":5126,
			"count":16,
			"max":[
				5.936672210693359,
				7.435222625732422,
				0.0687103271484375
			],
			"min":[
				-5.073436737060547,
				-0.35820770263671875,
				-5.083858489990234
			],
			"type":"VEC3"
		},
		{
			"bufferView":1,
			"componentType":5126,
			"count":16,
			"type":"VEC3"
		},
		{
			"bufferView":2,
			"componentType":5126,
			"count":16,
			"type":"VEC2"
		},
		{
			"bufferView":3,
			"componentType":5123,
			"count":24,
			"type":"SCALAR"
		},
		{
			"bufferView":4,
			"componentType":5126,
			"count":16,
			"max":[
				5.936672210693359,
				0.060222625732421875,
				0.06871414184570312
			],
			"min":[
				-5.073436737060547,
				-7.733211517333984,
				-5.083858489990234
			],
			"type":"VEC3"
		},
		{
			"bufferView":5,
			"componentType":5126,
			"count":16,
			"type":"VEC3"
		},
		{
			"bufferView":6,
			"componentType":5126,
			"count":16,
			"type":"VEC2"
		},
		{
			"bufferView":7,
			"componentType":5123,
			"count":24,
			"type":"SCALAR"
		},
		{
			"bufferView":8,
			"componentType":5126,
			"count":16,
			"max":[
				5.936672210693359,
				7.435222625732422,
				0.06871414184570312
			],
			"min":[
				-0.2837715148925781,
				-7.733211517333984,
				-5.083858489990234
			],
			"type":"VEC3"
		},
		{
			"bufferView":9,
			"componentType":5126,
			"count":16,
			"type":"VEC3"
		},
		{
			"bufferView":10,
			"componentType":5126,
			"count":16,
			"type":"VEC2"
		},
		{
			"bufferView":11,
			"componentType":5123,
			"count":24,
			"type":"SCALAR"
		},
		{
			"bufferView":12,
			"componentType":5126,
			"count":16,
			"max":[
				1.1470069885253906,
				7.435222625732422,
				0.06871414184570312
			],
			"min":[
				-5.073436737060547,
				-7.733211517333984,
				-5.083858489990234
			],
			"type":"VEC3"
		},
		{
			"bufferView":13,
			"componentType":5126,
			"count":16,
			"type":"VEC3"
		},
		{
			"bufferView":14,
			"componentType":5126,
			"count":16,
			"type":"VEC2"
		},
		{
			"bufferView":15,
			"componentType":5123,
			"count":24,
			"type":"SCALAR"
		},
		{
			"bufferView":16,
			"componentType":5126,
			"count":12,
			"max":[
				5.936672210693359,
				7.435222625732422,
				-5.083858489990234
			],
			"min":[
				-5.073436737060547,
				-0.35820770263671875,
				-6.2260894775390625
			],
			"type":"VEC3"
		},
		{
			"bufferView":17,
			"componentType":5126,
			"count":12,
			"type":"VEC3"
		},
		{
			"bufferView":18,
			"componentType":5126,
			"count":12,
			"type":"VEC2"
		},
		{
			"bufferView":19,
			"componentType":5123,
			"count":12,
			"type":"SCALAR"
		},
		{
			"bufferView":20,
			"componentType":5126,
			"count":12,
			"max":[
				5.936672210693359,
				0.060222625732421875,
				-5.083858489990234
			],
			"min":[
				-5.073436737060547,
				-7.733211517333984,
				-6.2260894775390625
			],
			"type":"VEC3"
		},
		{
			"bufferView":21,
			"componentType":5126,
			"count":12,
			"type":"VEC3"
		},
		{
			"bufferView":22,
			"componentType":5126,
			"count":12,
			"type":"VEC2"
		},
		{
			"bufferView":23,
			"componentType":5123,
			"count":12,
			"type":"SCALAR"
		},
		{
			"bufferView":24,
			"componentType":5126,
			"count":32,
			"max":[
				5.936672210693359,
				7.435222625732422,
				-5.083858489990234
			],
			"min":[
				-5.073436737060547,
				-7.733211517333984,
				-6.2260894775390625
			],
			"type":"VEC3"
		},
		{
			"bufferView":25,
			"componentType":5126,
			"count":32,
			"type":"VEC3"
		},
		{
			"bufferView":26,
			"componentType":5126,
			"count":32,
			"type":"VEC2"
		},
		{
			"bufferView":27,
			"componentType":5123,
			"count":48,
			"type":"SCALAR"
		}
	],
	"bufferViews":[
		{
			"buffer":0,
			"byteLength":192,
			"byteOffset":0,
			"target":34962
		},
		{
			"buffer":0,
			"byteLength":192,
			"byteOffset":192,
			"target":34962
		},
		{
			"buffer":0,
			"byteLength":128,
			"byteOffset":384,
			"target":34962
		},
		{
			"buffer":0,
			"byteLength":48,
			"byteOffset":512,
			"target":34963
		},
		{
			"buffer":0,
			"byteLength":192,
			"byteOffset":560,
			"target":34962
		},
		{
			"buffer":0,
			"byteLength":192,
			"byteOffset":752,
			"target":34962
		},
		{
			"buffer":0,
			"byteLength":128,
			"byteOffset":944,
			"target":34962
		},
		{
			"buffer":0,
			"byteLength":48,
			"byteOffset":1072,
			"target":34963
		},
		{
			"buffer":0,
			"byteLength":192,
			"byteOffset":1120,
			"target":34962
		},
		{
			"buffer":0,
			"byteLength":192,
			"byteOffset":1312,
			"target":34962
		},
		{
			"buffer":0,
			"byteLength":128,
			"byteOffset":1504,
			"target":34962
		},
		{
			"buffer":0,
			"byteLength":48,
			"byteOffset":1632,
			"target":34963
		},
		{
			"buffer":0,
			"byteLength":192,
			"byteOffset":1680,
			"target":34962
		},
		{
			"buffer":0,
			"byteLength":192,
			"byteOffset":1872,
			"target":34962
		},
		{
			"buffer":0,
			"byteLength":128,
			"byteOffset":2064,
			"target":34962
		},
		{
			"buffer":0,
			"byteLength":48,
			"byteOffset":2192,
			"target":34963
		},
		{
			"buffer":0,
			"byteLength":144,
			"byteOffset":2240,
			"target":34962
		},
		{
			"buffer":0,
			"byteLength":144,
			"byteOffset":2384,
			"target":34962
		},
		{
			"buffer":0,
			"byteLength":96,
			"byteOffset":2528,
			"target":34962
		},
		{
			"buffer":0,
			"byteLength":24,
			"byteOffset":2624,
			"target":34963
		},
		{
			"buffer":0,
			"byteLength":144,
			"byteOffset":2648,
			"target":34962
		},
		{
			"buffer":0,
			"byteLength":144,
			"byteOffset":2792,
			"target":34962
		},
		{
			"buffer":0,
			"byteLength":96,
			"byteOffset":2936,
			"target":34962
		},
		{
			"buffer":0,
			"byteLength":24,
			"byteOffset":3032,
			"target":34963
		},
		{
			"buffer":0,
			"byteLength":384,
			"byteOffset":3056,
			"target":34962
		},
		{
			"buffer":0,
			"byteLength":384,
			"byteOffset":3440,
			"target":34962
		},
		{
			"buffer":0,
			"byteLength":256,
			"byteOffset":3824,
			"target":34962
		},
		{
			"buffer":0,
			"byteLength":96,
			"byteOffset":4080,
			"target":34963
		}
	],
	"samplers":[
		{
			"magFilter":9729,
			"minFilter":9987
		}
	],
	"buffers":[
		{
			"byteLength":4176,
			"uri":"middle_class_5.bin"
		}
	]
}
