{
	"asset":{
		"generator":"Khronos glTF Blender I/O v4.1.63",
		"version":"2.0"
	},
	"scene":0,
	"scenes":[
		{
			"name":"Scene",
			"nodes":[
				0
			]
		}
	],
	"nodes":[
		{
			"mesh":0,
			"name":"Maxis-3d3-mesh-20",
			"rotation":[
				0.70710688829422,
				0,
				0,
				0.7071066498756409
			]
		}
	],
	"materials":[
		{
			"name":"mat40-31",
			"pbrMetallicRoughness":{
				"baseColorTexture":{
					"index":0
				},
				"metallicFactor":0
			}
		},
		{
			"name":"mat39-61",
			"pbrMetallicRoughness":{
				"baseColorTexture":{
					"index":1
				},
				"metallicFactor":0
			}
		},
		{
			"name":"mat40-62",
			"pbrMetallicRoughness":{
				"baseColorTexture":{
					"index":2
				},
				"metallicFactor":0
			}
		}
	],
	"meshes":[
		{
			"name":"Maxis-3d3-mesh-20",
			"primitives":[
				{
					"attributes":{
						"POSITION":0,
						"NORMAL":1,
						"TEXCOORD_0":2
					},
					"indices":3,
					"material":0
				},
				{
					"attributes":{
						"POSITION":4,
						"NORMAL":5,
						"TEXCOORD_0":6
					},
					"indices":3,
					"material":0
				},
				{
					"attributes":{
						"POSITION":7,
						"NORMAL":8,
						"TEXCOORD_0":9
					},
					"indices":10,
					"material":0
				},
				{
					"attributes":{
						"POSITION":11,
						"NORMAL":12,
						"TEXCOORD_0":13
					},
					"indices":14,
					"material":0
				},
				{
					"attributes":{
						"POSITION":15,
						"NORMAL":16,
						"TEXCOORD_0":17
					},
					"indices":18,
					"material":1
				},
				{
					"attributes":{
						"POSITION":19,
						"NORMAL":20,
						"TEXCOORD_0":21
					},
					"indices":22,
					"material":1
				},
				{
					"attributes":{
						"POSITION":23,
						"NORMAL":24,
						"TEXCOORD_0":25
					},
					"indices":26,
					"material":2
				},
				{
					"attributes":{
						"POSITION":27,
						"NORMAL":28,
						"TEXCOORD_0":29
					},
					"indices":30,
					"material":2
				}
			]
		}
	],
	"textures":[
		{
			"sampler":0,
			"source":0
		},
		{
			"sampler":0,
			"source":1
		},
		{
			"sampler":0,
			"source":2
		}
	],
	"images":[
		{
			"mimeType":"image/png",
			"name":"tex40-31",
			"uri":"../../../Textures/tex40-31.png"
		},
		{
			"mimeType":"image/png",
			"name":"tex39-61",
			"uri":"../../../Textures/tex39-61.png"
		},
		{
			"mimeType":"image/png",
			"name":"tex40-62",
			"uri":"../../../Textures/tex40-62.png"
		}
	],
	"accessors":[
		{
			"bufferView":0,
			"componentType":5126,
			"count":4,
			"max":[
				6.220161437988281,
				-0.13821792602539062,
				-0.00624847412109375
			],
			"min":[
				-6.63983154296875,
				-0.13822174072265625,
				-7.9861297607421875
			],
			"type":"VEC3"
		},
		{
			"bufferView":1,
			"componentType":5126,
			"count":4,
			"type":"VEC3"
		},
		{
			"bufferView":2,
			"componentType":5126,
			"count":4,
			"type":"VEC2"
		},
		{
			"bufferView":3,
			"componentType":5123,
			"count":6,
			"type":"SCALAR"
		},
		{
			"bufferView":4,
			"componentType":5126,
			"count":4,
			"max":[
				6.220165252685547,
				-6.9423065185546875,
				-0.00624847412109375
			],
			"min":[
				-6.63983154296875,
				-6.9423065185546875,
				-7.9861297607421875
			],
			"type":"VEC3"
		},
		{
			"bufferView":5,
			"componentType":5126,
			"count":4,
			"type":"VEC3"
		},
		{
			"bufferView":6,
			"componentType":5126,
			"count":4,
			"type":"VEC2"
		},
		{
			"bufferView":7,
			"componentType":5126,
			"count":4,
			"max":[
				-6.639827728271484,
				-0.13822174072265625,
				-0.00624847412109375
			],
			"min":[
				-6.63983154296875,
				-6.9423065185546875,
				-7.9861297607421875
			],
			"type":"VEC3"
		},
		{
			"bufferView":8,
			"componentType":5126,
			"count":4,
			"type":"VEC3"
		},
		{
			"bufferView":9,
			"componentType":5126,
			"count":4,
			"type":"VEC2"
		},
		{
			"bufferView":10,
			"componentType":5123,
			"count":6,
			"type":"SCALAR"
		},
		{
			"bufferView":11,
			"componentType":5126,
			"count":4,
			"max":[
				6.220165252685547,
				-0.13821792602539062,
				-0.00624847412109375
			],
			"min":[
				6.220161437988281,
				-6.9423065185546875,
				-7.9861297607421875
			],
			"type":"VEC3"
		},
		{
			"bufferView":12,
			"componentType":5126,
			"count":4,
			"type":"VEC3"
		},
		{
			"bufferView":13,
			"componentType":5126,
			"count":4,
			"type":"VEC2"
		},
		{
			"bufferView":14,
			"componentType":5123,
			"count":6,
			"type":"SCALAR"
		},
		{
			"bufferView":15,
			"componentType":5126,
			"count":3,
			"max":[
				-6.63983154296875,
				-0.13822174072265625,
				-7.9861297607421875
			],
			"min":[
				-6.63983154296875,
				-6.9423065185546875,
				-11.346080780029297
			],
			"type":"VEC3"
		},
		{
			"bufferView":16,
			"componentType":5126,
			"count":3,
			"type":"VEC3"
		},
		{
			"bufferView":17,
			"componentType":5126,
			"count":3,
			"type":"VEC2"
		},
		{
			"bufferView":18,
			"componentType":5123,
			"count":3,
			"type":"SCALAR"
		},
		{
			"bufferView":19,
			"componentType":5126,
			"count":3,
			"max":[
				6.220165252685547,
				-0.13822174072265625,
				-7.9861297607421875
			],
			"min":[
				6.220161437988281,
				-6.9423065185546875,
				-11.346080780029297
			],
			"type":"VEC3"
		},
		{
			"bufferView":20,
			"componentType":5126,
			"count":3,
			"type":"VEC3"
		},
		{
			"bufferView":21,
			"componentType":5126,
			"count":3,
			"type":"VEC2"
		},
		{
			"bufferView":22,
			"componentType":5123,
			"count":3,
			"type":"SCALAR"
		},
		{
			"bufferView":23,
			"componentType":5126,
			"count":4,
			"max":[
				6.220165252685547,
				-3.540264129638672,
				-7.9861297607421875
			],
			"min":[
				-6.63983154296875,
				-6.9423065185546875,
				-11.346080780029297
			],
			"type":"VEC3"
		},
		{
			"bufferView":24,
			"componentType":5126,
			"count":4,
			"type":"VEC3"
		},
		{
			"bufferView":25,
			"componentType":5126,
			"count":4,
			"type":"VEC2"
		},
		{
			"bufferView":26,
			"componentType":5123,
			"count":6,
			"type":"SCALAR"
		},
		{
			"bufferView":27,
			"componentType":5126,
			"count":4,
			"max":[
				6.220161437988281,
				-0.13822174072265625,
				-7.9861297607421875
			],
			"min":[
				-6.63983154296875,
				-3.540264129638672,
				-11.346080780029297
			],
			"type":"VEC3"
		},
		{
			"bufferView":28,
			"componentType":5126,
			"count":4,
			"type":"VEC3"
		},
		{
			"bufferView":29,
			"componentType":5126,
			"count":4,
			"type":"VEC2"
		},
		{
			"bufferView":30,
			"componentType":5123,
			"count":6,
			"type":"SCALAR"
		}
	],
	"bufferViews":[
		{
			"buffer":0,
			"byteLength":48,
			"byteOffset":0,
			"target":34962
		},
		{
			"buffer":0,
			"byteLength":48,
			"byteOffset":48,
			"target":34962
		},
		{
			"buffer":0,
			"byteLength":32,
			"byteOffset":96,
			"target":34962
		},
		{
			"buffer":0,
			"byteLength":12,
			"byteOffset":128,
			"target":34963
		},
		{
			"buffer":0,
			"byteLength":48,
			"byteOffset":140,
			"target":34962
		},
		{
			"buffer":0,
			"byteLength":48,
			"byteOffset":188,
			"target":34962
		},
		{
			"buffer":0,
			"byteLength":32,
			"byteOffset":236,
			"target":34962
		},
		{
			"buffer":0,
			"byteLength":48,
			"byteOffset":268,
			"target":34962
		},
		{
			"buffer":0,
			"byteLength":48,
			"byteOffset":316,
			"target":34962
		},
		{
			"buffer":0,
			"byteLength":32,
			"byteOffset":364,
			"target":34962
		},
		{
			"buffer":0,
			"byteLength":12,
			"byteOffset":396,
			"target":34963
		},
		{
			"buffer":0,
			"byteLength":48,
			"byteOffset":408,
			"target":34962
		},
		{
			"buffer":0,
			"byteLength":48,
			"byteOffset":456,
			"target":34962
		},
		{
			"buffer":0,
			"byteLength":32,
			"byteOffset":504,
			"target":34962
		},
		{
			"buffer":0,
			"byteLength":12,
			"byteOffset":536,
			"target":34963
		},
		{
			"buffer":0,
			"byteLength":36,
			"byteOffset":548,
			"target":34962
		},
		{
			"buffer":0,
			"byteLength":36,
			"byteOffset":584,
			"target":34962
		},
		{
			"buffer":0,
			"byteLength":24,
			"byteOffset":620,
			"target":34962
		},
		{
			"buffer":0,
			"byteLength":6,
			"byteOffset":644,
			"target":34963
		},
		{
			"buffer":0,
			"byteLength":36,
			"byteOffset":652,
			"target":34962
		},
		{
			"buffer":0,
			"byteLength":36,
			"byteOffset":688,
			"target":34962
		},
		{
			"buffer":0,
			"byteLength":24,
			"byteOffset":724,
			"target":34962
		},
		{
			"buffer":0,
			"byteLength":6,
			"byteOffset":748,
			"target":34963
		},
		{
			"buffer":0,
			"byteLength":48,
			"byteOffset":756,
			"target":34962
		},
		{
			"buffer":0,
			"byteLength":48,
			"byteOffset":804,
			"target":34962
		},
		{
			"buffer":0,
			"byteLength":32,
			"byteOffset":852,
			"target":34962
		},
		{
			"buffer":0,
			"byteLength":12,
			"byteOffset":884,
			"target":34963
		},
		{
			"buffer":0,
			"byteLength":48,
			"byteOffset":896,
			"target":34962
		},
		{
			"buffer":0,
			"byteLength":48,
			"byteOffset":944,
			"target":34962
		},
		{
			"buffer":0,
			"byteLength":32,
			"byteOffset":992,
			"target":34962
		},
		{
			"buffer":0,
			"byteLength":12,
			"byteOffset":1024,
			"target":34963
		}
	],
	"samplers":[
		{
			"magFilter":9729,
			"minFilter":9987
		}
	],
	"buffers":[
		{
			"byteLength":1036,
			"uri":"upper_class_4.bin"
		}
	]
}
