{
    "asset" : {
        "generator" : "Khronos glTF Blender I/O v1.7.33",
        "version" : "2.0"
    },
    "scene" : 0,
    "scenes" : [
        {
            "name" : "Scene",
            "nodes" : [
                0
            ]
        }
    ],
    "nodes" : [
        {
            "mesh" : 0,
            "name" : "Maxis-3d3-mesh-20",
            "rotation" : [
                0.7071068286895752,
                0,
                0,
                0.7071067094802856
            ]
        }
    ],
    "materials" : [
        {
            "doubleSided" : true,
            "name" : "mat40-31.002",
            "pbrMetallicRoughness" : {
                "baseColorTexture" : {
                    "index" : 0
                },
                "metallicFactor" : 0
            }
        },
        {
            "doubleSided" : true,
            "name" : "mat40-28.002",
            "pbrMetallicRoughness" : {
                "baseColorTexture" : {
                    "index" : 1
                },
                "metallicFactor" : 0
            }
        },
        {
            "doubleSided" : true,
            "name" : "mat40-29.002",
            "pbrMetallicRoughness" : {
                "baseColorTexture" : {
                    "index" : 2
                },
                "metallicFactor" : 0
            }
        },
        {
            "doubleSided" : true,
            "name" : "mat40-30.002",
            "pbrMetallicRoughness" : {
                "baseColorTexture" : {
                    "index" : 3
                },
                "metallicFactor" : 0
            }
        },
        {
            "doubleSided" : true,
            "name" : "mat39-61.007",
            "pbrMetallicRoughness" : {
                "baseColorTexture" : {
                    "index" : 4
                },
                "metallicFactor" : 0
            }
        },
        {
            "doubleSided" : true,
            "name" : "mat39-62.007",
            "pbrMetallicRoughness" : {
                "baseColorTexture" : {
                    "index" : 5
                },
                "metallicFactor" : 0
            }
        },
        {
            "doubleSided" : true,
            "name" : "mat40-62.005",
            "pbrMetallicRoughness" : {
                "baseColorTexture" : {
                    "index" : 6
                },
                "metallicFactor" : 0
            }
        },
        {
            "doubleSided" : true,
            "name" : "mat40-63.004",
            "pbrMetallicRoughness" : {
                "baseColorTexture" : {
                    "index" : 7
                },
                "metallicFactor" : 0
            }
        }
    ],
    "meshes" : [
        {
            "name" : "Maxis-3d3-mesh-20",
            "primitives" : [
                {
                    "attributes" : {
                        "POSITION" : 0,
                        "NORMAL" : 1,
                        "TEXCOORD_0" : 2
                    },
                    "indices" : 3,
                    "material" : 0
                },
                {
                    "attributes" : {
                        "POSITION" : 4,
                        "NORMAL" : 5,
                        "TEXCOORD_0" : 6
                    },
                    "indices" : 7,
                    "material" : 1
                },
                {
                    "attributes" : {
                        "POSITION" : 8,
                        "NORMAL" : 9,
                        "TEXCOORD_0" : 10
                    },
                    "indices" : 11,
                    "material" : 2
                },
                {
                    "attributes" : {
                        "POSITION" : 12,
                        "NORMAL" : 13,
                        "TEXCOORD_0" : 14
                    },
                    "indices" : 15,
                    "material" : 3
                },
                {
                    "attributes" : {
                        "POSITION" : 16,
                        "NORMAL" : 17,
                        "TEXCOORD_0" : 18
                    },
                    "indices" : 19,
                    "material" : 4
                },
                {
                    "attributes" : {
                        "POSITION" : 20,
                        "NORMAL" : 21,
                        "TEXCOORD_0" : 22
                    },
                    "indices" : 23,
                    "material" : 5
                },
                {
                    "attributes" : {
                        "POSITION" : 24,
                        "NORMAL" : 25,
                        "TEXCOORD_0" : 26
                    },
                    "indices" : 27,
                    "material" : 6
                },
                {
                    "attributes" : {
                        "POSITION" : 28,
                        "NORMAL" : 29,
                        "TEXCOORD_0" : 30
                    },
                    "indices" : 31,
                    "material" : 7
                }
            ]
        }
    ],
    "textures" : [
        {
            "sampler" : 0,
            "source" : 0
        },
        {
            "sampler" : 0,
            "source" : 1
        },
        {
            "sampler" : 0,
            "source" : 2
        },
        {
            "sampler" : 0,
            "source" : 3
        },
        {
            "sampler" : 0,
            "source" : 4
        },
        {
            "sampler" : 0,
            "source" : 5
        },
        {
            "sampler" : 0,
            "source" : 6
        },
        {
            "sampler" : 0,
            "source" : 7
        }
    ],
    "images" : [
        {
            "mimeType" : "image/png",
            "name" : "tex40-31",
            "uri" : "../../../Textures/tex40-31.png"
        },
        {
            "mimeType" : "image/png",
            "name" : "tex40-28",
            "uri" : "../../../Textures/tex40-28.png"
        },
        {
            "mimeType" : "image/png",
            "name" : "tex40-29",
            "uri" : "../../../Textures/tex40-29.png"
        },
        {
            "mimeType" : "image/png",
            "name" : "tex40-30",
            "uri" : "../../../Textures/tex40-30.png"
        },
        {
            "mimeType" : "image/png",
            "name" : "tex39-61",
            "uri" : "../../../Textures/tex39-61.png"
        },
        {
            "mimeType" : "image/png",
            "name" : "tex39-62",
            "uri" : "../../../Textures/tex39-62.png"
        },
        {
            "mimeType" : "image/png",
            "name" : "tex40-62",
            "uri" : "../../../Textures/tex40-62.png"
        },
        {
            "mimeType" : "image/png",
            "name" : "tex40-63",
            "uri" : "../../../Textures/tex40-63.png"
        }
    ],
    "accessors" : [
        {
            "bufferView" : 0,
            "componentType" : 5126,
            "count" : 6,
            "max" : [
                6.220161437988281,
                -0.13821792602539062,
                -0.00624847412109375
            ],
            "min" : [
                -6.63983154296875,
                -0.13822174072265625,
                -7.9861297607421875
            ],
            "type" : "VEC3"
        },
        {
            "bufferView" : 1,
            "componentType" : 5126,
            "count" : 6,
            "type" : "VEC3"
        },
        {
            "bufferView" : 2,
            "componentType" : 5126,
            "count" : 6,
            "type" : "VEC2"
        },
        {
            "bufferView" : 3,
            "componentType" : 5123,
            "count" : 6,
            "type" : "SCALAR"
        },
        {
            "bufferView" : 4,
            "componentType" : 5126,
            "count" : 4,
            "max" : [
                6.220165252685547,
                -6.9423065185546875,
                -0.00624847412109375
            ],
            "min" : [
                -6.63983154296875,
                -6.9423065185546875,
                -7.9861297607421875
            ],
            "type" : "VEC3"
        },
        {
            "bufferView" : 5,
            "componentType" : 5126,
            "count" : 4,
            "type" : "VEC3"
        },
        {
            "bufferView" : 6,
            "componentType" : 5126,
            "count" : 4,
            "type" : "VEC2"
        },
        {
            "bufferView" : 7,
            "componentType" : 5123,
            "count" : 6,
            "type" : "SCALAR"
        },
        {
            "bufferView" : 8,
            "componentType" : 5126,
            "count" : 6,
            "max" : [
                -6.639827728271484,
                -0.13822174072265625,
                -0.00624847412109375
            ],
            "min" : [
                -6.63983154296875,
                -6.9423065185546875,
                -7.9861297607421875
            ],
            "type" : "VEC3"
        },
        {
            "bufferView" : 9,
            "componentType" : 5126,
            "count" : 6,
            "type" : "VEC3"
        },
        {
            "bufferView" : 10,
            "componentType" : 5126,
            "count" : 6,
            "type" : "VEC2"
        },
        {
            "bufferView" : 11,
            "componentType" : 5123,
            "count" : 6,
            "type" : "SCALAR"
        },
        {
            "bufferView" : 12,
            "componentType" : 5126,
            "count" : 6,
            "max" : [
                6.220165252685547,
                -0.13821792602539062,
                -0.00624847412109375
            ],
            "min" : [
                6.220161437988281,
                -6.9423065185546875,
                -7.9861297607421875
            ],
            "type" : "VEC3"
        },
        {
            "bufferView" : 13,
            "componentType" : 5126,
            "count" : 6,
            "type" : "VEC3"
        },
        {
            "bufferView" : 14,
            "componentType" : 5126,
            "count" : 6,
            "type" : "VEC2"
        },
        {
            "bufferView" : 15,
            "componentType" : 5123,
            "count" : 6,
            "type" : "SCALAR"
        },
        {
            "bufferView" : 16,
            "componentType" : 5126,
            "count" : 3,
            "max" : [
                -6.63983154296875,
                -0.13822174072265625,
                -7.9861297607421875
            ],
            "min" : [
                -6.63983154296875,
                -6.9423065185546875,
                -11.346080780029297
            ],
            "type" : "VEC3"
        },
        {
            "bufferView" : 17,
            "componentType" : 5126,
            "count" : 3,
            "type" : "VEC3"
        },
        {
            "bufferView" : 18,
            "componentType" : 5126,
            "count" : 3,
            "type" : "VEC2"
        },
        {
            "bufferView" : 19,
            "componentType" : 5123,
            "count" : 3,
            "type" : "SCALAR"
        },
        {
            "bufferView" : 20,
            "componentType" : 5126,
            "count" : 3,
            "max" : [
                6.220165252685547,
                -0.13822174072265625,
                -7.9861297607421875
            ],
            "min" : [
                6.220161437988281,
                -6.9423065185546875,
                -11.346080780029297
            ],
            "type" : "VEC3"
        },
        {
            "bufferView" : 21,
            "componentType" : 5126,
            "count" : 3,
            "type" : "VEC3"
        },
        {
            "bufferView" : 22,
            "componentType" : 5126,
            "count" : 3,
            "type" : "VEC2"
        },
        {
            "bufferView" : 23,
            "componentType" : 5123,
            "count" : 3,
            "type" : "SCALAR"
        },
        {
            "bufferView" : 24,
            "componentType" : 5126,
            "count" : 6,
            "max" : [
                6.220165252685547,
                -3.540264129638672,
                -7.9861297607421875
            ],
            "min" : [
                -6.63983154296875,
                -6.9423065185546875,
                -11.346080780029297
            ],
            "type" : "VEC3"
        },
        {
            "bufferView" : 25,
            "componentType" : 5126,
            "count" : 6,
            "type" : "VEC3"
        },
        {
            "bufferView" : 26,
            "componentType" : 5126,
            "count" : 6,
            "type" : "VEC2"
        },
        {
            "bufferView" : 27,
            "componentType" : 5123,
            "count" : 6,
            "type" : "SCALAR"
        },
        {
            "bufferView" : 28,
            "componentType" : 5126,
            "count" : 4,
            "max" : [
                6.220161437988281,
                -0.13822174072265625,
                -7.9861297607421875
            ],
            "min" : [
                -6.63983154296875,
                -3.540264129638672,
                -11.346080780029297
            ],
            "type" : "VEC3"
        },
        {
            "bufferView" : 29,
            "componentType" : 5126,
            "count" : 4,
            "type" : "VEC3"
        },
        {
            "bufferView" : 30,
            "componentType" : 5126,
            "count" : 4,
            "type" : "VEC2"
        },
        {
            "bufferView" : 31,
            "componentType" : 5123,
            "count" : 6,
            "type" : "SCALAR"
        }
    ],
    "bufferViews" : [
        {
            "buffer" : 0,
            "byteLength" : 72,
            "byteOffset" : 0
        },
        {
            "buffer" : 0,
            "byteLength" : 72,
            "byteOffset" : 72
        },
        {
            "buffer" : 0,
            "byteLength" : 48,
            "byteOffset" : 144
        },
        {
            "buffer" : 0,
            "byteLength" : 12,
            "byteOffset" : 192
        },
        {
            "buffer" : 0,
            "byteLength" : 48,
            "byteOffset" : 204
        },
        {
            "buffer" : 0,
            "byteLength" : 48,
            "byteOffset" : 252
        },
        {
            "buffer" : 0,
            "byteLength" : 32,
            "byteOffset" : 300
        },
        {
            "buffer" : 0,
            "byteLength" : 12,
            "byteOffset" : 332
        },
        {
            "buffer" : 0,
            "byteLength" : 72,
            "byteOffset" : 344
        },
        {
            "buffer" : 0,
            "byteLength" : 72,
            "byteOffset" : 416
        },
        {
            "buffer" : 0,
            "byteLength" : 48,
            "byteOffset" : 488
        },
        {
            "buffer" : 0,
            "byteLength" : 12,
            "byteOffset" : 536
        },
        {
            "buffer" : 0,
            "byteLength" : 72,
            "byteOffset" : 548
        },
        {
            "buffer" : 0,
            "byteLength" : 72,
            "byteOffset" : 620
        },
        {
            "buffer" : 0,
            "byteLength" : 48,
            "byteOffset" : 692
        },
        {
            "buffer" : 0,
            "byteLength" : 12,
            "byteOffset" : 740
        },
        {
            "buffer" : 0,
            "byteLength" : 36,
            "byteOffset" : 752
        },
        {
            "buffer" : 0,
            "byteLength" : 36,
            "byteOffset" : 788
        },
        {
            "buffer" : 0,
            "byteLength" : 24,
            "byteOffset" : 824
        },
        {
            "buffer" : 0,
            "byteLength" : 6,
            "byteOffset" : 848
        },
        {
            "buffer" : 0,
            "byteLength" : 36,
            "byteOffset" : 856
        },
        {
            "buffer" : 0,
            "byteLength" : 36,
            "byteOffset" : 892
        },
        {
            "buffer" : 0,
            "byteLength" : 24,
            "byteOffset" : 928
        },
        {
            "buffer" : 0,
            "byteLength" : 6,
            "byteOffset" : 952
        },
        {
            "buffer" : 0,
            "byteLength" : 72,
            "byteOffset" : 960
        },
        {
            "buffer" : 0,
            "byteLength" : 72,
            "byteOffset" : 1032
        },
        {
            "buffer" : 0,
            "byteLength" : 48,
            "byteOffset" : 1104
        },
        {
            "buffer" : 0,
            "byteLength" : 12,
            "byteOffset" : 1152
        },
        {
            "buffer" : 0,
            "byteLength" : 48,
            "byteOffset" : 1164
        },
        {
            "buffer" : 0,
            "byteLength" : 48,
            "byteOffset" : 1212
        },
        {
            "buffer" : 0,
            "byteLength" : 32,
            "byteOffset" : 1260
        },
        {
            "buffer" : 0,
            "byteLength" : 12,
            "byteOffset" : 1292
        }
    ],
    "samplers" : [
        {
            "magFilter" : 9729,
            "minFilter" : 9987
        }
    ],
    "buffers" : [
        {
            "byteLength" : 1304,
            "uri" : "upper_class_4.bin"
        }
    ]
}
