{
	"asset":{
		"generator":"Khronos glTF Blender I/O v4.3.47",
		"version":"2.0"
	},
	"scene":0,
	"scenes":[
		{
			"name":"Scene",
			"nodes":[
				0,
				1
			]
		}
	],
	"nodes":[
		{
			"mesh":0,
			"name":"Maxis-3d3-mesh-17",
			"rotation":[
				0.70710688829422,
				0,
				0,
				0.7071066498756409
			]
		},
		{
			"extras":{
				"gd_node":"Decal",
				"lower_fade":9,
				"upper_fade":10
			},
			"mesh":1,
			"name":"Ground_AO",
			"scale":[
				8.820308685302734,
				1,
				8.869993209838867
			],
			"translation":[
				3.084470748901367,
				7.348215603997232e-06,
				-3.006847858428955
			]
		}
	],
	"materials":[
		{
			"name":"mat40-53",
			"occlusionTexture":{
				"index":0,
				"texCoord":1
			},
			"pbrMetallicRoughness":{
				"baseColorTexture":{
					"index":1
				},
				"metallicFactor":0
			}
		},
		{
			"name":"mat40-31",
			"occlusionTexture":{
				"index":2,
				"texCoord":1
			},
			"pbrMetallicRoughness":{
				"baseColorTexture":{
					"index":3
				},
				"metallicFactor":0
			}
		},
		{
			"name":"mat2-15",
			"occlusionTexture":{
				"index":4,
				"texCoord":1
			},
			"pbrMetallicRoughness":{
				"baseColorTexture":{
					"index":5
				},
				"metallicFactor":0
			}
		},
		{
			"name":"mat39-62",
			"occlusionTexture":{
				"index":6,
				"texCoord":1
			},
			"pbrMetallicRoughness":{
				"baseColorTexture":{
					"index":7
				},
				"metallicFactor":0
			}
		},
		{
			"name":"mat40-62",
			"occlusionTexture":{
				"index":8,
				"texCoord":1
			},
			"pbrMetallicRoughness":{
				"baseColorTexture":{
					"index":9
				},
				"metallicFactor":0
			}
		},
		{
			"name":"Ground_AO",
			"occlusionTexture":{
				"index":10
			},
			"pbrMetallicRoughness":{
				"baseColorFactor":[
					0.800000011920929,
					0.800000011920929,
					0.800000011920929,
					1
				],
				"metallicFactor":0,
				"roughnessFactor":0.5
			}
		}
	],
	"meshes":[
		{
			"name":"Maxis-3d3-mesh-17.001",
			"primitives":[
				{
					"attributes":{
						"POSITION":0,
						"NORMAL":1,
						"TEXCOORD_0":2,
						"TEXCOORD_1":3
					},
					"indices":4,
					"material":0
				},
				{
					"attributes":{
						"POSITION":5,
						"NORMAL":6,
						"TEXCOORD_0":7,
						"TEXCOORD_1":8
					},
					"indices":9,
					"material":1
				},
				{
					"attributes":{
						"POSITION":10,
						"NORMAL":11,
						"TEXCOORD_0":12,
						"TEXCOORD_1":13
					},
					"indices":14,
					"material":2
				},
				{
					"attributes":{
						"POSITION":15,
						"NORMAL":16,
						"TEXCOORD_0":17,
						"TEXCOORD_1":18
					},
					"indices":19,
					"material":3
				},
				{
					"attributes":{
						"POSITION":20,
						"NORMAL":21,
						"TEXCOORD_0":22,
						"TEXCOORD_1":23
					},
					"indices":24,
					"material":4
				}
			]
		},
		{
			"name":"Plane",
			"primitives":[
				{
					"attributes":{
						"POSITION":25,
						"NORMAL":26,
						"TEXCOORD_0":27
					},
					"indices":28,
					"material":5
				}
			]
		}
	],
	"textures":[
		{
			"sampler":0,
			"source":0
		},
		{
			"sampler":0,
			"source":1
		},
		{
			"sampler":0,
			"source":0
		},
		{
			"sampler":0,
			"source":2
		},
		{
			"sampler":0,
			"source":0
		},
		{
			"sampler":0,
			"source":3
		},
		{
			"sampler":0,
			"source":0
		},
		{
			"sampler":0,
			"source":4
		},
		{
			"sampler":0,
			"source":0
		},
		{
			"sampler":0,
			"source":5
		},
		{
			"sampler":0,
			"source":6
		}
	],
	"images":[
		{
			"mimeType":"image/png",
			"name":"upper_class_1.png",
			"uri":"../../../Textures/ambient_occlusion/Buildings/Home/upper_class_1.png"
		},
		{
			"mimeType":"image/png",
			"name":"tex40-53",
			"uri":"../../../Textures/tex40-53.png"
		},
		{
			"mimeType":"image/png",
			"name":"tex40-31",
			"uri":"../../../Textures/tex40-31.png"
		},
		{
			"mimeType":"image/png",
			"name":"tex2-15",
			"uri":"../../../Textures/tex2-15.png"
		},
		{
			"mimeType":"image/png",
			"name":"tex39-62",
			"uri":"../../../Textures/tex39-62.png"
		},
		{
			"mimeType":"image/png",
			"name":"tex40-62",
			"uri":"../../../Textures/tex40-62.png"
		},
		{
			"mimeType":"image/png",
			"name":"upper_class_1_ground.png",
			"uri":"../../../Textures/ambient_occlusion/Buildings/Home/upper_class_1_ground.png"
		}
	],
	"accessors":[
		{
			"bufferView":0,
			"componentType":5126,
			"count":6,
			"max":[
				6.994625091552734,
				-0.11722946166992188,
				-5.172309875488281
			],
			"min":[
				-0.82568359375,
				-6.941844940185547,
				-8.58481216430664
			],
			"type":"VEC3"
		},
		{
			"bufferView":1,
			"componentType":5126,
			"count":6,
			"type":"VEC3"
		},
		{
			"bufferView":2,
			"componentType":5126,
			"count":6,
			"type":"VEC2"
		},
		{
			"bufferView":3,
			"componentType":5126,
			"count":6,
			"type":"VEC2"
		},
		{
			"bufferView":4,
			"componentType":5123,
			"count":6,
			"type":"SCALAR"
		},
		{
			"bufferView":5,
			"componentType":5126,
			"count":20,
			"max":[
				6.994625091552734,
				-0.11722946166992188,
				-7.62939453125e-06
			],
			"min":[
				-0.82568359375,
				-6.941844940185547,
				-5.172313690185547
			],
			"type":"VEC3"
		},
		{
			"bufferView":6,
			"componentType":5126,
			"count":20,
			"type":"VEC3"
		},
		{
			"bufferView":7,
			"componentType":5126,
			"count":20,
			"type":"VEC2"
		},
		{
			"bufferView":8,
			"componentType":5126,
			"count":20,
			"type":"VEC2"
		},
		{
			"bufferView":9,
			"componentType":5123,
			"count":36,
			"type":"SCALAR"
		},
		{
			"bufferView":10,
			"componentType":5126,
			"count":4,
			"max":[
				4.118236541748047,
				0.9281463623046875,
				-1.1444091796875e-05
			],
			"min":[
				2.050701141357422,
				0.9281425476074219,
				-2.954639434814453
			],
			"type":"VEC3"
		},
		{
			"bufferView":11,
			"componentType":5126,
			"count":4,
			"type":"VEC3"
		},
		{
			"bufferView":12,
			"componentType":5126,
			"count":4,
			"type":"VEC2"
		},
		{
			"bufferView":13,
			"componentType":5126,
			"count":4,
			"type":"VEC2"
		},
		{
			"bufferView":14,
			"componentType":5123,
			"count":6,
			"type":"SCALAR"
		},
		{
			"bufferView":15,
			"componentType":5126,
			"count":8,
			"max":[
				4.118236541748047,
				0.9281463623046875,
				-1.1444091796875e-05
			],
			"min":[
				2.050701141357422,
				-0.11722946166992188,
				-4.9063720703125
			],
			"type":"VEC3"
		},
		{
			"bufferView":16,
			"componentType":5126,
			"count":8,
			"type":"VEC3"
		},
		{
			"bufferView":17,
			"componentType":5126,
			"count":8,
			"type":"VEC2"
		},
		{
			"bufferView":18,
			"componentType":5126,
			"count":8,
			"type":"VEC2"
		},
		{
			"bufferView":19,
			"componentType":5123,
			"count":12,
			"type":"SCALAR"
		},
		{
			"bufferView":20,
			"componentType":5126,
			"count":12,
			"max":[
				6.994625091552734,
				0.9281425476074219,
				-2.954639434814453
			],
			"min":[
				-0.82568359375,
				-6.941844940185547,
				-8.58481216430664
			],
			"type":"VEC3"
		},
		{
			"bufferView":21,
			"componentType":5126,
			"count":12,
			"type":"VEC3"
		},
		{
			"bufferView":22,
			"componentType":5126,
			"count":12,
			"type":"VEC2"
		},
		{
			"bufferView":23,
			"componentType":5126,
			"count":12,
			"type":"VEC2"
		},
		{
			"bufferView":24,
			"componentType":5123,
			"count":18,
			"type":"SCALAR"
		},
		{
			"bufferView":25,
			"componentType":5126,
			"count":4,
			"max":[
				0.5,
				0,
				0.5
			],
			"min":[
				-0.5,
				0,
				-0.5
			],
			"type":"VEC3"
		},
		{
			"bufferView":26,
			"componentType":5126,
			"count":4,
			"type":"VEC3"
		},
		{
			"bufferView":27,
			"componentType":5126,
			"count":4,
			"type":"VEC2"
		},
		{
			"bufferView":28,
			"componentType":5123,
			"count":6,
			"type":"SCALAR"
		}
	],
	"bufferViews":[
		{
			"buffer":0,
			"byteLength":72,
			"byteOffset":0,
			"target":34962
		},
		{
			"buffer":0,
			"byteLength":72,
			"byteOffset":72,
			"target":34962
		},
		{
			"buffer":0,
			"byteLength":48,
			"byteOffset":144,
			"target":34962
		},
		{
			"buffer":0,
			"byteLength":48,
			"byteOffset":192,
			"target":34962
		},
		{
			"buffer":0,
			"byteLength":12,
			"byteOffset":240,
			"target":34963
		},
		{
			"buffer":0,
			"byteLength":240,
			"byteOffset":252,
			"target":34962
		},
		{
			"buffer":0,
			"byteLength":240,
			"byteOffset":492,
			"target":34962
		},
		{
			"buffer":0,
			"byteLength":160,
			"byteOffset":732,
			"target":34962
		},
		{
			"buffer":0,
			"byteLength":160,
			"byteOffset":892,
			"target":34962
		},
		{
			"buffer":0,
			"byteLength":72,
			"byteOffset":1052,
			"target":34963
		},
		{
			"buffer":0,
			"byteLength":48,
			"byteOffset":1124,
			"target":34962
		},
		{
			"buffer":0,
			"byteLength":48,
			"byteOffset":1172,
			"target":34962
		},
		{
			"buffer":0,
			"byteLength":32,
			"byteOffset":1220,
			"target":34962
		},
		{
			"buffer":0,
			"byteLength":32,
			"byteOffset":1252,
			"target":34962
		},
		{
			"buffer":0,
			"byteLength":12,
			"byteOffset":1284,
			"target":34963
		},
		{
			"buffer":0,
			"byteLength":96,
			"byteOffset":1296,
			"target":34962
		},
		{
			"buffer":0,
			"byteLength":96,
			"byteOffset":1392,
			"target":34962
		},
		{
			"buffer":0,
			"byteLength":64,
			"byteOffset":1488,
			"target":34962
		},
		{
			"buffer":0,
			"byteLength":64,
			"byteOffset":1552,
			"target":34962
		},
		{
			"buffer":0,
			"byteLength":24,
			"byteOffset":1616,
			"target":34963
		},
		{
			"buffer":0,
			"byteLength":144,
			"byteOffset":1640,
			"target":34962
		},
		{
			"buffer":0,
			"byteLength":144,
			"byteOffset":1784,
			"target":34962
		},
		{
			"buffer":0,
			"byteLength":96,
			"byteOffset":1928,
			"target":34962
		},
		{
			"buffer":0,
			"byteLength":96,
			"byteOffset":2024,
			"target":34962
		},
		{
			"buffer":0,
			"byteLength":36,
			"byteOffset":2120,
			"target":34963
		},
		{
			"buffer":0,
			"byteLength":48,
			"byteOffset":2156,
			"target":34962
		},
		{
			"buffer":0,
			"byteLength":48,
			"byteOffset":2204,
			"target":34962
		},
		{
			"buffer":0,
			"byteLength":32,
			"byteOffset":2252,
			"target":34962
		},
		{
			"buffer":0,
			"byteLength":12,
			"byteOffset":2284,
			"target":34963
		}
	],
	"samplers":[
		{
			"magFilter":9729,
			"minFilter":9987
		}
	],
	"buffers":[
		{
			"byteLength":2296,
			"uri":"upper_class_1.bin"
		}
	]
}
