{
	"asset":{
		"generator":"Khronos glTF Blender I/O v4.1.63",
		"version":"2.0"
	},
	"scene":0,
	"scenes":[
		{
			"name":"Scene",
			"nodes":[
				0
			]
		}
	],
	"nodes":[
		{
			"mesh":0,
			"name":"Maxis-3d3-mesh-17",
			"rotation":[
				0.70710688829422,
				0,
				0,
				0.7071066498756409
			]
		}
	],
	"materials":[
		{
			"name":"mat40-53",
			"pbrMetallicRoughness":{
				"baseColorTexture":{
					"index":0
				},
				"metallicFactor":0
			}
		},
		{
			"name":"mat40-31",
			"pbrMetallicRoughness":{
				"baseColorTexture":{
					"index":1
				},
				"metallicFactor":0
			}
		},
		{
			"name":"mat2-15",
			"pbrMetallicRoughness":{
				"baseColorTexture":{
					"index":2
				},
				"metallicFactor":0
			}
		},
		{
			"name":"mat39-62",
			"pbrMetallicRoughness":{
				"baseColorTexture":{
					"index":3
				},
				"metallicFactor":0
			}
		},
		{
			"name":"mat40-62",
			"pbrMetallicRoughness":{
				"baseColorTexture":{
					"index":4
				},
				"metallicFactor":0
			}
		}
	],
	"meshes":[
		{
			"name":"Maxis-3d3-mesh-17.001",
			"primitives":[
				{
					"attributes":{
						"POSITION":0,
						"NORMAL":1,
						"TEXCOORD_0":2
					},
					"indices":3,
					"material":0
				},
				{
					"attributes":{
						"POSITION":4,
						"NORMAL":5,
						"TEXCOORD_0":6
					},
					"indices":7,
					"material":0
				},
				{
					"attributes":{
						"POSITION":8,
						"NORMAL":9,
						"TEXCOORD_0":10
					},
					"indices":11,
					"material":1
				},
				{
					"attributes":{
						"POSITION":12,
						"NORMAL":13,
						"TEXCOORD_0":14
					},
					"indices":15,
					"material":1
				},
				{
					"attributes":{
						"POSITION":16,
						"NORMAL":17,
						"TEXCOORD_0":18
					},
					"indices":15,
					"material":2
				},
				{
					"attributes":{
						"POSITION":19,
						"NORMAL":20,
						"TEXCOORD_0":21
					},
					"indices":22,
					"material":1
				},
				{
					"attributes":{
						"POSITION":23,
						"NORMAL":24,
						"TEXCOORD_0":25
					},
					"indices":22,
					"material":1
				},
				{
					"attributes":{
						"POSITION":26,
						"NORMAL":27,
						"TEXCOORD_0":28
					},
					"indices":29,
					"material":3
				},
				{
					"attributes":{
						"POSITION":30,
						"NORMAL":31,
						"TEXCOORD_0":32
					},
					"indices":29,
					"material":3
				},
				{
					"attributes":{
						"POSITION":33,
						"NORMAL":34,
						"TEXCOORD_0":35
					},
					"indices":36,
					"material":4
				},
				{
					"attributes":{
						"POSITION":37,
						"NORMAL":38,
						"TEXCOORD_0":39
					},
					"indices":40,
					"material":4
				},
				{
					"attributes":{
						"POSITION":41,
						"NORMAL":42,
						"TEXCOORD_0":43
					},
					"indices":44,
					"material":4
				}
			]
		}
	],
	"textures":[
		{
			"sampler":0,
			"source":0
		},
		{
			"sampler":0,
			"source":1
		},
		{
			"sampler":0,
			"source":2
		},
		{
			"sampler":0,
			"source":3
		},
		{
			"sampler":0,
			"source":4
		}
	],
	"images":[
		{
			"mimeType":"image/png",
			"name":"tex40-53",
			"uri":"../../../Textures/tex40-53.png"
		},
		{
			"mimeType":"image/png",
			"name":"tex40-31",
			"uri":"../../../Textures/tex40-31.png"
		},
		{
			"mimeType":"image/png",
			"name":"tex2-15",
			"uri":"../../../Textures/tex2-15.png"
		},
		{
			"mimeType":"image/png",
			"name":"tex39-62",
			"uri":"../../../Textures/tex39-62.png"
		},
		{
			"mimeType":"image/png",
			"name":"tex40-62",
			"uri":"../../../Textures/tex40-62.png"
		}
	],
	"accessors":[
		{
			"bufferView":0,
			"componentType":5126,
			"count":3,
			"max":[
				-0.82568359375,
				-0.11722946166992188,
				-5.172309875488281
			],
			"min":[
				-0.82568359375,
				-6.941844940185547,
				-8.58481216430664
			],
			"type":"VEC3"
		},
		{
			"bufferView":1,
			"componentType":5126,
			"count":3,
			"type":"VEC3"
		},
		{
			"bufferView":2,
			"componentType":5126,
			"count":3,
			"type":"VEC2"
		},
		{
			"bufferView":3,
			"componentType":5123,
			"count":3,
			"type":"SCALAR"
		},
		{
			"bufferView":4,
			"componentType":5126,
			"count":3,
			"max":[
				6.994625091552734,
				-0.11722946166992188,
				-5.172309875488281
			],
			"min":[
				6.994625091552734,
				-6.941844940185547,
				-8.584808349609375
			],
			"type":"VEC3"
		},
		{
			"bufferView":5,
			"componentType":5126,
			"count":3,
			"type":"VEC3"
		},
		{
			"bufferView":6,
			"componentType":5126,
			"count":3,
			"type":"VEC2"
		},
		{
			"bufferView":7,
			"componentType":5123,
			"count":3,
			"type":"SCALAR"
		},
		{
			"bufferView":8,
			"componentType":5126,
			"count":8,
			"max":[
				6.994625091552734,
				-0.11722946166992188,
				-1.1444091796875e-05
			],
			"min":[
				-0.82568359375,
				-0.11722946166992188,
				-5.172313690185547
			],
			"type":"VEC3"
		},
		{
			"bufferView":9,
			"componentType":5126,
			"count":8,
			"type":"VEC3"
		},
		{
			"bufferView":10,
			"componentType":5126,
			"count":8,
			"type":"VEC2"
		},
		{
			"bufferView":11,
			"componentType":5123,
			"count":18,
			"type":"SCALAR"
		},
		{
			"bufferView":12,
			"componentType":5126,
			"count":4,
			"max":[
				6.994625091552734,
				-6.941841125488281,
				-7.62939453125e-06
			],
			"min":[
				-0.82568359375,
				-6.941844940185547,
				-5.172309875488281
			],
			"type":"VEC3"
		},
		{
			"bufferView":13,
			"componentType":5126,
			"count":4,
			"type":"VEC3"
		},
		{
			"bufferView":14,
			"componentType":5126,
			"count":4,
			"type":"VEC2"
		},
		{
			"bufferView":15,
			"componentType":5123,
			"count":6,
			"type":"SCALAR"
		},
		{
			"bufferView":16,
			"componentType":5126,
			"count":4,
			"max":[
				4.118236541748047,
				0.9281463623046875,
				-1.1444091796875e-05
			],
			"min":[
				2.050701141357422,
				0.9281425476074219,
				-2.954639434814453
			],
			"type":"VEC3"
		},
		{
			"bufferView":17,
			"componentType":5126,
			"count":4,
			"type":"VEC3"
		},
		{
			"bufferView":18,
			"componentType":5126,
			"count":4,
			"type":"VEC2"
		},
		{
			"bufferView":19,
			"componentType":5126,
			"count":4,
			"max":[
				-0.82568359375,
				-0.11722946166992188,
				-7.62939453125e-06
			],
			"min":[
				-0.82568359375,
				-6.941844940185547,
				-5.172313690185547
			],
			"type":"VEC3"
		},
		{
			"bufferView":20,
			"componentType":5126,
			"count":4,
			"type":"VEC3"
		},
		{
			"bufferView":21,
			"componentType":5126,
			"count":4,
			"type":"VEC2"
		},
		{
			"bufferView":22,
			"componentType":5123,
			"count":6,
			"type":"SCALAR"
		},
		{
			"bufferView":23,
			"componentType":5126,
			"count":4,
			"max":[
				6.994625091552734,
				-0.11722946166992188,
				-7.62939453125e-06
			],
			"min":[
				6.994625091552734,
				-6.941844940185547,
				-5.172313690185547
			],
			"type":"VEC3"
		},
		{
			"bufferView":24,
			"componentType":5126,
			"count":4,
			"type":"VEC3"
		},
		{
			"bufferView":25,
			"componentType":5126,
			"count":4,
			"type":"VEC2"
		},
		{
			"bufferView":26,
			"componentType":5126,
			"count":4,
			"max":[
				4.118236541748047,
				0.9281463623046875,
				-1.1444091796875e-05
			],
			"min":[
				4.118236541748047,
				-0.11722946166992188,
				-4.9063720703125
			],
			"type":"VEC3"
		},
		{
			"bufferView":27,
			"componentType":5126,
			"count":4,
			"type":"VEC3"
		},
		{
			"bufferView":28,
			"componentType":5126,
			"count":4,
			"type":"VEC2"
		},
		{
			"bufferView":29,
			"componentType":5123,
			"count":6,
			"type":"SCALAR"
		},
		{
			"bufferView":30,
			"componentType":5126,
			"count":4,
			"max":[
				2.050701141357422,
				0.9281425476074219,
				-1.1444091796875e-05
			],
			"min":[
				2.050701141357422,
				-0.11722946166992188,
				-4.9063720703125
			],
			"type":"VEC3"
		},
		{
			"bufferView":31,
			"componentType":5126,
			"count":4,
			"type":"VEC3"
		},
		{
			"bufferView":32,
			"componentType":5126,
			"count":4,
			"type":"VEC2"
		},
		{
			"bufferView":33,
			"componentType":5126,
			"count":4,
			"max":[
				6.994625091552734,
				-0.11722946166992188,
				-5.172313690185547
			],
			"min":[
				-0.82568359375,
				-3.5293426513671875,
				-8.58481216430664
			],
			"type":"VEC3"
		},
		{
			"bufferView":34,
			"componentType":5126,
			"count":4,
			"type":"VEC3"
		},
		{
			"bufferView":35,
			"componentType":5126,
			"count":4,
			"type":"VEC2"
		},
		{
			"bufferView":36,
			"componentType":5123,
			"count":6,
			"type":"SCALAR"
		},
		{
			"bufferView":37,
			"componentType":5126,
			"count":4,
			"max":[
				6.994625091552734,
				-3.5293426513671875,
				-5.172309875488281
			],
			"min":[
				-0.82568359375,
				-6.941844940185547,
				-8.58481216430664
			],
			"type":"VEC3"
		},
		{
			"bufferView":38,
			"componentType":5126,
			"count":4,
			"type":"VEC3"
		},
		{
			"bufferView":39,
			"componentType":5126,
			"count":4,
			"type":"VEC2"
		},
		{
			"bufferView":40,
			"componentType":5123,
			"count":6,
			"type":"SCALAR"
		},
		{
			"bufferView":41,
			"componentType":5126,
			"count":4,
			"max":[
				4.118236541748047,
				0.9281425476074219,
				-2.954639434814453
			],
			"min":[
				2.050701141357422,
				-0.11722946166992188,
				-4.9063720703125
			],
			"type":"VEC3"
		},
		{
			"bufferView":42,
			"componentType":5126,
			"count":4,
			"type":"VEC3"
		},
		{
			"bufferView":43,
			"componentType":5126,
			"count":4,
			"type":"VEC2"
		},
		{
			"bufferView":44,
			"componentType":5123,
			"count":6,
			"type":"SCALAR"
		}
	],
	"bufferViews":[
		{
			"buffer":0,
			"byteLength":36,
			"byteOffset":0,
			"target":34962
		},
		{
			"buffer":0,
			"byteLength":36,
			"byteOffset":36,
			"target":34962
		},
		{
			"buffer":0,
			"byteLength":24,
			"byteOffset":72,
			"target":34962
		},
		{
			"buffer":0,
			"byteLength":6,
			"byteOffset":96,
			"target":34963
		},
		{
			"buffer":0,
			"byteLength":36,
			"byteOffset":104,
			"target":34962
		},
		{
			"buffer":0,
			"byteLength":36,
			"byteOffset":140,
			"target":34962
		},
		{
			"buffer":0,
			"byteLength":24,
			"byteOffset":176,
			"target":34962
		},
		{
			"buffer":0,
			"byteLength":6,
			"byteOffset":200,
			"target":34963
		},
		{
			"buffer":0,
			"byteLength":96,
			"byteOffset":208,
			"target":34962
		},
		{
			"buffer":0,
			"byteLength":96,
			"byteOffset":304,
			"target":34962
		},
		{
			"buffer":0,
			"byteLength":64,
			"byteOffset":400,
			"target":34962
		},
		{
			"buffer":0,
			"byteLength":36,
			"byteOffset":464,
			"target":34963
		},
		{
			"buffer":0,
			"byteLength":48,
			"byteOffset":500,
			"target":34962
		},
		{
			"buffer":0,
			"byteLength":48,
			"byteOffset":548,
			"target":34962
		},
		{
			"buffer":0,
			"byteLength":32,
			"byteOffset":596,
			"target":34962
		},
		{
			"buffer":0,
			"byteLength":12,
			"byteOffset":628,
			"target":34963
		},
		{
			"buffer":0,
			"byteLength":48,
			"byteOffset":640,
			"target":34962
		},
		{
			"buffer":0,
			"byteLength":48,
			"byteOffset":688,
			"target":34962
		},
		{
			"buffer":0,
			"byteLength":32,
			"byteOffset":736,
			"target":34962
		},
		{
			"buffer":0,
			"byteLength":48,
			"byteOffset":768,
			"target":34962
		},
		{
			"buffer":0,
			"byteLength":48,
			"byteOffset":816,
			"target":34962
		},
		{
			"buffer":0,
			"byteLength":32,
			"byteOffset":864,
			"target":34962
		},
		{
			"buffer":0,
			"byteLength":12,
			"byteOffset":896,
			"target":34963
		},
		{
			"buffer":0,
			"byteLength":48,
			"byteOffset":908,
			"target":34962
		},
		{
			"buffer":0,
			"byteLength":48,
			"byteOffset":956,
			"target":34962
		},
		{
			"buffer":0,
			"byteLength":32,
			"byteOffset":1004,
			"target":34962
		},
		{
			"buffer":0,
			"byteLength":48,
			"byteOffset":1036,
			"target":34962
		},
		{
			"buffer":0,
			"byteLength":48,
			"byteOffset":1084,
			"target":34962
		},
		{
			"buffer":0,
			"byteLength":32,
			"byteOffset":1132,
			"target":34962
		},
		{
			"buffer":0,
			"byteLength":12,
			"byteOffset":1164,
			"target":34963
		},
		{
			"buffer":0,
			"byteLength":48,
			"byteOffset":1176,
			"target":34962
		},
		{
			"buffer":0,
			"byteLength":48,
			"byteOffset":1224,
			"target":34962
		},
		{
			"buffer":0,
			"byteLength":32,
			"byteOffset":1272,
			"target":34962
		},
		{
			"buffer":0,
			"byteLength":48,
			"byteOffset":1304,
			"target":34962
		},
		{
			"buffer":0,
			"byteLength":48,
			"byteOffset":1352,
			"target":34962
		},
		{
			"buffer":0,
			"byteLength":32,
			"byteOffset":1400,
			"target":34962
		},
		{
			"buffer":0,
			"byteLength":12,
			"byteOffset":1432,
			"target":34963
		},
		{
			"buffer":0,
			"byteLength":48,
			"byteOffset":1444,
			"target":34962
		},
		{
			"buffer":0,
			"byteLength":48,
			"byteOffset":1492,
			"target":34962
		},
		{
			"buffer":0,
			"byteLength":32,
			"byteOffset":1540,
			"target":34962
		},
		{
			"buffer":0,
			"byteLength":12,
			"byteOffset":1572,
			"target":34963
		},
		{
			"buffer":0,
			"byteLength":48,
			"byteOffset":1584,
			"target":34962
		},
		{
			"buffer":0,
			"byteLength":48,
			"byteOffset":1632,
			"target":34962
		},
		{
			"buffer":0,
			"byteLength":32,
			"byteOffset":1680,
			"target":34962
		},
		{
			"buffer":0,
			"byteLength":12,
			"byteOffset":1712,
			"target":34963
		}
	],
	"samplers":[
		{
			"magFilter":9729,
			"minFilter":9987
		}
	],
	"buffers":[
		{
			"byteLength":1724,
			"uri":"upper_class_1.bin"
		}
	]
}
