{
	"asset":{
		"generator":"Khronos glTF Blender I/O v4.1.63",
		"version":"2.0"
	},
	"scene":0,
	"scenes":[
		{
			"name":"Scene",
			"nodes":[
				0
			]
		}
	],
	"nodes":[
		{
			"mesh":0,
			"name":"Maxis-3d3-mesh-18",
			"rotation":[
				0.70710688829422,
				0,
				0,
				0.7071066498756409
			]
		}
	],
	"materials":[
		{
			"name":"mat39-27",
			"pbrMetallicRoughness":{
				"baseColorTexture":{
					"index":0
				},
				"metallicFactor":0
			}
		},
		{
			"name":"matcolour-48",
			"pbrMetallicRoughness":{
				"baseColorFactor":[
					0.05882352963089943,
					0.05882352963089943,
					0.05882352963089943,
					1
				],
				"metallicFactor":0
			}
		}
	],
	"meshes":[
		{
			"name":"Maxis-3d3-mesh-18",
			"primitives":[
				{
					"attributes":{
						"POSITION":0,
						"NORMAL":1,
						"TEXCOORD_0":2
					},
					"indices":3,
					"material":0
				},
				{
					"attributes":{
						"POSITION":4,
						"NORMAL":5,
						"TEXCOORD_0":6
					},
					"indices":7,
					"material":0
				},
				{
					"attributes":{
						"POSITION":8,
						"NORMAL":9,
						"TEXCOORD_0":10
					},
					"indices":11,
					"material":0
				},
				{
					"attributes":{
						"POSITION":12,
						"NORMAL":13,
						"TEXCOORD_0":14
					},
					"indices":15,
					"material":0
				},
				{
					"attributes":{
						"POSITION":16,
						"NORMAL":17,
						"TEXCOORD_0":18
					},
					"indices":19,
					"material":1
				}
			]
		}
	],
	"textures":[
		{
			"sampler":0,
			"source":0
		}
	],
	"images":[
		{
			"mimeType":"image/png",
			"name":"tex39-27",
			"uri":"../../../Textures/tex39-27.png"
		}
	],
	"accessors":[
		{
			"bufferView":0,
			"componentType":5126,
			"count":8,
			"max":[
				6.829948425292969,
				-0.6899185180664062,
				0.00140380859375
			],
			"min":[
				-1.2298469543457031,
				-2.1375045776367188,
				-7.2365570068359375
			],
			"type":"VEC3"
		},
		{
			"bufferView":1,
			"componentType":5126,
			"count":8,
			"type":"VEC3"
		},
		{
			"bufferView":2,
			"componentType":5126,
			"count":8,
			"type":"VEC2"
		},
		{
			"bufferView":3,
			"componentType":5123,
			"count":12,
			"type":"SCALAR"
		},
		{
			"bufferView":4,
			"componentType":5126,
			"count":8,
			"max":[
				6.829948425292969,
				-5.605335235595703,
				0.001407623291015625
			],
			"min":[
				-1.2298469543457031,
				-7.05291748046875,
				-7.2365570068359375
			],
			"type":"VEC3"
		},
		{
			"bufferView":5,
			"componentType":5126,
			"count":8,
			"type":"VEC3"
		},
		{
			"bufferView":6,
			"componentType":5126,
			"count":8,
			"type":"VEC2"
		},
		{
			"bufferView":7,
			"componentType":5123,
			"count":12,
			"type":"SCALAR"
		},
		{
			"bufferView":8,
			"componentType":5126,
			"count":9,
			"max":[
				6.829948425292969,
				-0.6899185180664062,
				0.001407623291015625
			],
			"min":[
				4.996345520019531,
				-7.05291748046875,
				-7.2365570068359375
			],
			"type":"VEC3"
		},
		{
			"bufferView":9,
			"componentType":5126,
			"count":9,
			"type":"VEC3"
		},
		{
			"bufferView":10,
			"componentType":5126,
			"count":9,
			"type":"VEC2"
		},
		{
			"bufferView":11,
			"componentType":5123,
			"count":12,
			"type":"SCALAR"
		},
		{
			"bufferView":12,
			"componentType":5126,
			"count":8,
			"max":[
				0.6037521362304688,
				-0.6899185180664062,
				0.001407623291015625
			],
			"min":[
				-1.2298469543457031,
				-7.05291748046875,
				-7.2365570068359375
			],
			"type":"VEC3"
		},
		{
			"bufferView":13,
			"componentType":5126,
			"count":8,
			"type":"VEC3"
		},
		{
			"bufferView":14,
			"componentType":5126,
			"count":8,
			"type":"VEC2"
		},
		{
			"bufferView":15,
			"componentType":5123,
			"count":12,
			"type":"SCALAR"
		},
		{
			"bufferView":16,
			"componentType":5126,
			"count":14,
			"max":[
				6.829948425292969,
				-0.6899185180664062,
				-4.856266021728516
			],
			"min":[
				-1.2298469543457031,
				-7.05291748046875,
				-7.2365570068359375
			],
			"type":"VEC3"
		},
		{
			"bufferView":17,
			"componentType":5126,
			"count":14,
			"type":"VEC3"
		},
		{
			"bufferView":18,
			"componentType":5126,
			"count":14,
			"type":"VEC2"
		},
		{
			"bufferView":19,
			"componentType":5123,
			"count":30,
			"type":"SCALAR"
		}
	],
	"bufferViews":[
		{
			"buffer":0,
			"byteLength":96,
			"byteOffset":0,
			"target":34962
		},
		{
			"buffer":0,
			"byteLength":96,
			"byteOffset":96,
			"target":34962
		},
		{
			"buffer":0,
			"byteLength":64,
			"byteOffset":192,
			"target":34962
		},
		{
			"buffer":0,
			"byteLength":24,
			"byteOffset":256,
			"target":34963
		},
		{
			"buffer":0,
			"byteLength":96,
			"byteOffset":280,
			"target":34962
		},
		{
			"buffer":0,
			"byteLength":96,
			"byteOffset":376,
			"target":34962
		},
		{
			"buffer":0,
			"byteLength":64,
			"byteOffset":472,
			"target":34962
		},
		{
			"buffer":0,
			"byteLength":24,
			"byteOffset":536,
			"target":34963
		},
		{
			"buffer":0,
			"byteLength":108,
			"byteOffset":560,
			"target":34962
		},
		{
			"buffer":0,
			"byteLength":108,
			"byteOffset":668,
			"target":34962
		},
		{
			"buffer":0,
			"byteLength":72,
			"byteOffset":776,
			"target":34962
		},
		{
			"buffer":0,
			"byteLength":24,
			"byteOffset":848,
			"target":34963
		},
		{
			"buffer":0,
			"byteLength":96,
			"byteOffset":872,
			"target":34962
		},
		{
			"buffer":0,
			"byteLength":96,
			"byteOffset":968,
			"target":34962
		},
		{
			"buffer":0,
			"byteLength":64,
			"byteOffset":1064,
			"target":34962
		},
		{
			"buffer":0,
			"byteLength":24,
			"byteOffset":1128,
			"target":34963
		},
		{
			"buffer":0,
			"byteLength":168,
			"byteOffset":1152,
			"target":34962
		},
		{
			"buffer":0,
			"byteLength":168,
			"byteOffset":1320,
			"target":34962
		},
		{
			"buffer":0,
			"byteLength":112,
			"byteOffset":1488,
			"target":34962
		},
		{
			"buffer":0,
			"byteLength":60,
			"byteOffset":1600,
			"target":34963
		}
	],
	"samplers":[
		{
			"magFilter":9729,
			"minFilter":9987
		}
	],
	"buffers":[
		{
			"byteLength":1660,
			"uri":"upper_class_2.bin"
		}
	]
}
