{
    "asset" : {
        "generator" : "Khronos glTF Blender I/O v1.7.33",
        "version" : "2.0"
    },
    "scene" : 0,
    "scenes" : [
        {
            "name" : "Scene",
            "nodes" : [
                0
            ]
        }
    ],
    "nodes" : [
        {
            "mesh" : 0,
            "name" : "Maxis-3d1-mesh-22-ap229",
            "rotation" : [
                0.7071068286895752,
                0,
                0,
                0.7071067094802856
            ]
        }
    ],
    "materials" : [
        {
            "doubleSided" : true,
            "name" : "matcolour-48.012",
            "pbrMetallicRoughness" : {
                "baseColorFactor" : [
                    0.05882352963089943,
                    0.05882352963089943,
                    0.05882352963089943,
                    1
                ],
                "metallicFactor" : 0
            }
        },
        {
            "doubleSided" : true,
            "name" : "mat40-56",
            "pbrMetallicRoughness" : {
                "baseColorTexture" : {
                    "index" : 0
                },
                "metallicFactor" : 0
            }
        },
        {
            "doubleSided" : true,
            "name" : "mat40-59",
            "pbrMetallicRoughness" : {
                "baseColorTexture" : {
                    "index" : 1
                },
                "metallicFactor" : 0
            }
        },
        {
            "doubleSided" : true,
            "name" : "mat40-58",
            "pbrMetallicRoughness" : {
                "baseColorTexture" : {
                    "index" : 2
                },
                "metallicFactor" : 0
            }
        },
        {
            "doubleSided" : true,
            "name" : "mat40-57",
            "pbrMetallicRoughness" : {
                "baseColorTexture" : {
                    "index" : 3
                },
                "metallicFactor" : 0
            }
        },
        {
            "doubleSided" : true,
            "name" : "mat2-42.002",
            "pbrMetallicRoughness" : {
                "baseColorTexture" : {
                    "index" : 4
                },
                "metallicFactor" : 0
            }
        },
        {
            "doubleSided" : true,
            "name" : "mat40-38.004",
            "pbrMetallicRoughness" : {
                "baseColorTexture" : {
                    "index" : 5
                },
                "metallicFactor" : 0
            }
        },
        {
            "doubleSided" : true,
            "name" : "mat40-36.004",
            "pbrMetallicRoughness" : {
                "baseColorTexture" : {
                    "index" : 6
                },
                "metallicFactor" : 0
            }
        },
        {
            "doubleSided" : true,
            "name" : "mat40-39.005",
            "pbrMetallicRoughness" : {
                "baseColorTexture" : {
                    "index" : 7
                },
                "metallicFactor" : 0
            }
        },
        {
            "doubleSided" : true,
            "name" : "mat40-37.004",
            "pbrMetallicRoughness" : {
                "baseColorTexture" : {
                    "index" : 8
                },
                "metallicFactor" : 0
            }
        },
        {
            "doubleSided" : true,
            "name" : "mat2-43.001",
            "pbrMetallicRoughness" : {
                "baseColorTexture" : {
                    "index" : 9
                },
                "metallicFactor" : 0
            }
        }
    ],
    "meshes" : [
        {
            "name" : "Maxis-3d1-mesh-22-ap229",
            "primitives" : [
                {
                    "attributes" : {
                        "POSITION" : 0,
                        "NORMAL" : 1,
                        "TEXCOORD_0" : 2
                    },
                    "indices" : 3,
                    "material" : 0
                },
                {
                    "attributes" : {
                        "POSITION" : 4,
                        "NORMAL" : 5,
                        "TEXCOORD_0" : 6
                    },
                    "indices" : 7,
                    "material" : 1
                },
                {
                    "attributes" : {
                        "POSITION" : 8,
                        "NORMAL" : 9,
                        "TEXCOORD_0" : 10
                    },
                    "indices" : 11,
                    "material" : 2
                },
                {
                    "attributes" : {
                        "POSITION" : 12,
                        "NORMAL" : 13,
                        "TEXCOORD_0" : 14
                    },
                    "indices" : 15,
                    "material" : 3
                },
                {
                    "attributes" : {
                        "POSITION" : 16,
                        "NORMAL" : 17,
                        "TEXCOORD_0" : 18
                    },
                    "indices" : 19,
                    "material" : 4
                },
                {
                    "attributes" : {
                        "POSITION" : 20,
                        "NORMAL" : 21,
                        "TEXCOORD_0" : 22
                    },
                    "indices" : 23,
                    "material" : 5
                },
                {
                    "attributes" : {
                        "POSITION" : 24,
                        "NORMAL" : 25,
                        "TEXCOORD_0" : 26
                    },
                    "indices" : 27,
                    "material" : 6
                },
                {
                    "attributes" : {
                        "POSITION" : 28,
                        "NORMAL" : 29,
                        "TEXCOORD_0" : 30
                    },
                    "indices" : 15,
                    "material" : 7
                },
                {
                    "attributes" : {
                        "POSITION" : 31,
                        "NORMAL" : 32,
                        "TEXCOORD_0" : 33
                    },
                    "indices" : 34,
                    "material" : 8
                },
                {
                    "attributes" : {
                        "POSITION" : 35,
                        "NORMAL" : 36,
                        "TEXCOORD_0" : 37
                    },
                    "indices" : 38,
                    "material" : 9
                },
                {
                    "attributes" : {
                        "POSITION" : 39,
                        "NORMAL" : 40,
                        "TEXCOORD_0" : 41
                    },
                    "indices" : 42,
                    "material" : 10
                }
            ]
        }
    ],
    "textures" : [
        {
            "sampler" : 0,
            "source" : 0
        },
        {
            "sampler" : 0,
            "source" : 1
        },
        {
            "sampler" : 0,
            "source" : 2
        },
        {
            "sampler" : 0,
            "source" : 3
        },
        {
            "sampler" : 0,
            "source" : 4
        },
        {
            "sampler" : 0,
            "source" : 5
        },
        {
            "sampler" : 0,
            "source" : 6
        },
        {
            "sampler" : 0,
            "source" : 7
        },
        {
            "sampler" : 0,
            "source" : 8
        },
        {
            "sampler" : 0,
            "source" : 9
        }
    ],
    "images" : [
        {
            "mimeType" : "image/png",
            "name" : "tex40-56",
            "uri" : "../../../Textures/tex40-56.png"
        },
        {
            "mimeType" : "image/png",
            "name" : "tex40-59",
            "uri" : "../../../Textures/tex40-59.png"
        },
        {
            "mimeType" : "image/png",
            "name" : "tex40-58",
            "uri" : "../../../Textures/tex40-58.png"
        },
        {
            "mimeType" : "image/png",
            "name" : "tex40-57",
            "uri" : "../../../Textures/tex40-57.png"
        },
        {
            "mimeType" : "image/png",
            "name" : "tex2-42",
            "uri" : "../../../Textures/tex2-42.png"
        },
        {
            "mimeType" : "image/png",
            "name" : "tex40-38",
            "uri" : "../../../Textures/tex40-38.png"
        },
        {
            "mimeType" : "image/png",
            "name" : "tex40-36",
            "uri" : "../../../Textures/tex40-36.png"
        },
        {
            "mimeType" : "image/png",
            "name" : "tex40-39",
            "uri" : "../../../Textures/tex40-39.png"
        },
        {
            "mimeType" : "image/png",
            "name" : "tex40-37",
            "uri" : "../../../Textures/tex40-37.png"
        },
        {
            "mimeType" : "image/png",
            "name" : "tex2-43",
            "uri" : "../../../Textures/tex2-43.png"
        }
    ],
    "accessors" : [
        {
            "bufferView" : 0,
            "componentType" : 5126,
            "count" : 100,
            "max" : [
                7.315120697021484,
                5.951103210449219,
                -4.984458923339844
            ],
            "min" : [
                -7.390964508056641,
                -6.481578826904297,
                -6.187679290771484
            ],
            "type" : "VEC3"
        },
        {
            "bufferView" : 1,
            "componentType" : 5126,
            "count" : 100,
            "type" : "VEC3"
        },
        {
            "bufferView" : 2,
            "componentType" : 5126,
            "count" : 100,
            "type" : "VEC2"
        },
        {
            "bufferView" : 3,
            "componentType" : 5123,
            "count" : 102,
            "type" : "SCALAR"
        },
        {
            "bufferView" : 4,
            "componentType" : 5126,
            "count" : 6,
            "max" : [
                7.315120697021484,
                -6.481575012207031,
                3.814697265625e-06
            ],
            "min" : [
                -7.390964508056641,
                -6.481578826904297,
                -4.984458923339844
            ],
            "type" : "VEC3"
        },
        {
            "bufferView" : 5,
            "componentType" : 5126,
            "count" : 6,
            "type" : "VEC3"
        },
        {
            "bufferView" : 6,
            "componentType" : 5126,
            "count" : 6,
            "type" : "VEC2"
        },
        {
            "bufferView" : 7,
            "componentType" : 5123,
            "count" : 6,
            "type" : "SCALAR"
        },
        {
            "bufferView" : 8,
            "componentType" : 5126,
            "count" : 6,
            "max" : [
                7.315120697021484,
                5.951107025146484,
                -3.814697265625e-06
            ],
            "min" : [
                -7.390964508056641,
                5.951103210449219,
                -4.984466552734375
            ],
            "type" : "VEC3"
        },
        {
            "bufferView" : 9,
            "componentType" : 5126,
            "count" : 6,
            "type" : "VEC3"
        },
        {
            "bufferView" : 10,
            "componentType" : 5126,
            "count" : 6,
            "type" : "VEC2"
        },
        {
            "bufferView" : 11,
            "componentType" : 5123,
            "count" : 6,
            "type" : "SCALAR"
        },
        {
            "bufferView" : 12,
            "componentType" : 5126,
            "count" : 4,
            "max" : [
                7.315120697021484,
                5.951107025146484,
                3.814697265625e-06
            ],
            "min" : [
                7.315120697021484,
                -6.481578826904297,
                -4.984466552734375
            ],
            "type" : "VEC3"
        },
        {
            "bufferView" : 13,
            "componentType" : 5126,
            "count" : 4,
            "type" : "VEC3"
        },
        {
            "bufferView" : 14,
            "componentType" : 5126,
            "count" : 4,
            "type" : "VEC2"
        },
        {
            "bufferView" : 15,
            "componentType" : 5123,
            "count" : 6,
            "type" : "SCALAR"
        },
        {
            "bufferView" : 16,
            "componentType" : 5126,
            "count" : 4,
            "max" : [
                -7.390964508056641,
                5.951107025146484,
                3.814697265625e-06
            ],
            "min" : [
                -7.390964508056641,
                -6.481578826904297,
                -4.984466552734375
            ],
            "type" : "VEC3"
        },
        {
            "bufferView" : 17,
            "componentType" : 5126,
            "count" : 4,
            "type" : "VEC3"
        },
        {
            "bufferView" : 18,
            "componentType" : 5126,
            "count" : 4,
            "type" : "VEC2"
        },
        {
            "bufferView" : 19,
            "componentType" : 5123,
            "count" : 6,
            "type" : "SCALAR"
        },
        {
            "bufferView" : 20,
            "componentType" : 5126,
            "count" : 4,
            "max" : [
                -3.2929000854492188,
                6.023700714111328,
                -0.003936767578125
            ],
            "min" : [
                -5.755229949951172,
                6.023700714111328,
                -2.797626495361328
            ],
            "type" : "VEC3"
        },
        {
            "bufferView" : 21,
            "componentType" : 5126,
            "count" : 4,
            "type" : "VEC3"
        },
        {
            "bufferView" : 22,
            "componentType" : 5126,
            "count" : 4,
            "type" : "VEC2"
        },
        {
            "bufferView" : 23,
            "componentType" : 5123,
            "count" : 6,
            "type" : "SCALAR"
        },
        {
            "bufferView" : 24,
            "componentType" : 5126,
            "count" : 4,
            "max" : [
                -2.9700546264648438,
                2.0292205810546875,
                -4.984462738037109
            ],
            "min" : [
                -3.889728546142578,
                1.4544258117675781,
                -5.239654541015625
            ],
            "type" : "VEC3"
        },
        {
            "bufferView" : 25,
            "componentType" : 5126,
            "count" : 4,
            "type" : "VEC3"
        },
        {
            "bufferView" : 26,
            "componentType" : 5126,
            "count" : 4,
            "type" : "VEC2"
        },
        {
            "bufferView" : 27,
            "componentType" : 5123,
            "count" : 6,
            "type" : "SCALAR"
        },
        {
            "bufferView" : 28,
            "componentType" : 5126,
            "count" : 4,
            "max" : [
                -3.544849395751953,
                1.1095504760742188,
                -4.984462738037109
            ],
            "min" : [
                -4.4645233154296875,
                0.5347518920898438,
                -5.239654541015625
            ],
            "type" : "VEC3"
        },
        {
            "bufferView" : 29,
            "componentType" : 5126,
            "count" : 4,
            "type" : "VEC3"
        },
        {
            "bufferView" : 30,
            "componentType" : 5126,
            "count" : 4,
            "type" : "VEC2"
        },
        {
            "bufferView" : 31,
            "componentType" : 5126,
            "count" : 6,
            "max" : [
                -2.9700546264648438,
                1.4544258117675781,
                -4.984462738037109
            ],
            "min" : [
                -3.544849395751953,
                0.5347518920898438,
                -5.239654541015625
            ],
            "type" : "VEC3"
        },
        {
            "bufferView" : 32,
            "componentType" : 5126,
            "count" : 6,
            "type" : "VEC3"
        },
        {
            "bufferView" : 33,
            "componentType" : 5126,
            "count" : 6,
            "type" : "VEC2"
        },
        {
            "bufferView" : 34,
            "componentType" : 5123,
            "count" : 6,
            "type" : "SCALAR"
        },
        {
            "bufferView" : 35,
            "componentType" : 5126,
            "count" : 6,
            "max" : [
                -3.889728546142578,
                2.0292205810546875,
                -4.984462738037109
            ],
            "min" : [
                -4.4645233154296875,
                1.1095504760742188,
                -5.239654541015625
            ],
            "type" : "VEC3"
        },
        {
            "bufferView" : 36,
            "componentType" : 5126,
            "count" : 6,
            "type" : "VEC3"
        },
        {
            "bufferView" : 37,
            "componentType" : 5126,
            "count" : 6,
            "type" : "VEC2"
        },
        {
            "bufferView" : 38,
            "componentType" : 5123,
            "count" : 6,
            "type" : "SCALAR"
        },
        {
            "bufferView" : 39,
            "componentType" : 5126,
            "count" : 22,
            "max" : [
                -2.7976150512695312,
                -3.7762107849121094,
                -4.984458923339844
            ],
            "min" : [
                -3.6023292541503906,
                -4.580928802490234,
                -5.820606231689453
            ],
            "type" : "VEC3"
        },
        {
            "bufferView" : 40,
            "componentType" : 5126,
            "count" : 22,
            "type" : "VEC3"
        },
        {
            "bufferView" : 41,
            "componentType" : 5126,
            "count" : 22,
            "type" : "VEC2"
        },
        {
            "bufferView" : 42,
            "componentType" : 5123,
            "count" : 24,
            "type" : "SCALAR"
        }
    ],
    "bufferViews" : [
        {
            "buffer" : 0,
            "byteLength" : 1200,
            "byteOffset" : 0
        },
        {
            "buffer" : 0,
            "byteLength" : 1200,
            "byteOffset" : 1200
        },
        {
            "buffer" : 0,
            "byteLength" : 800,
            "byteOffset" : 2400
        },
        {
            "buffer" : 0,
            "byteLength" : 204,
            "byteOffset" : 3200
        },
        {
            "buffer" : 0,
            "byteLength" : 72,
            "byteOffset" : 3404
        },
        {
            "buffer" : 0,
            "byteLength" : 72,
            "byteOffset" : 3476
        },
        {
            "buffer" : 0,
            "byteLength" : 48,
            "byteOffset" : 3548
        },
        {
            "buffer" : 0,
            "byteLength" : 12,
            "byteOffset" : 3596
        },
        {
            "buffer" : 0,
            "byteLength" : 72,
            "byteOffset" : 3608
        },
        {
            "buffer" : 0,
            "byteLength" : 72,
            "byteOffset" : 3680
        },
        {
            "buffer" : 0,
            "byteLength" : 48,
            "byteOffset" : 3752
        },
        {
            "buffer" : 0,
            "byteLength" : 12,
            "byteOffset" : 3800
        },
        {
            "buffer" : 0,
            "byteLength" : 48,
            "byteOffset" : 3812
        },
        {
            "buffer" : 0,
            "byteLength" : 48,
            "byteOffset" : 3860
        },
        {
            "buffer" : 0,
            "byteLength" : 32,
            "byteOffset" : 3908
        },
        {
            "buffer" : 0,
            "byteLength" : 12,
            "byteOffset" : 3940
        },
        {
            "buffer" : 0,
            "byteLength" : 48,
            "byteOffset" : 3952
        },
        {
            "buffer" : 0,
            "byteLength" : 48,
            "byteOffset" : 4000
        },
        {
            "buffer" : 0,
            "byteLength" : 32,
            "byteOffset" : 4048
        },
        {
            "buffer" : 0,
            "byteLength" : 12,
            "byteOffset" : 4080
        },
        {
            "buffer" : 0,
            "byteLength" : 48,
            "byteOffset" : 4092
        },
        {
            "buffer" : 0,
            "byteLength" : 48,
            "byteOffset" : 4140
        },
        {
            "buffer" : 0,
            "byteLength" : 32,
            "byteOffset" : 4188
        },
        {
            "buffer" : 0,
            "byteLength" : 12,
            "byteOffset" : 4220
        },
        {
            "buffer" : 0,
            "byteLength" : 48,
            "byteOffset" : 4232
        },
        {
            "buffer" : 0,
            "byteLength" : 48,
            "byteOffset" : 4280
        },
        {
            "buffer" : 0,
            "byteLength" : 32,
            "byteOffset" : 4328
        },
        {
            "buffer" : 0,
            "byteLength" : 12,
            "byteOffset" : 4360
        },
        {
            "buffer" : 0,
            "byteLength" : 48,
            "byteOffset" : 4372
        },
        {
            "buffer" : 0,
            "byteLength" : 48,
            "byteOffset" : 4420
        },
        {
            "buffer" : 0,
            "byteLength" : 32,
            "byteOffset" : 4468
        },
        {
            "buffer" : 0,
            "byteLength" : 72,
            "byteOffset" : 4500
        },
        {
            "buffer" : 0,
            "byteLength" : 72,
            "byteOffset" : 4572
        },
        {
            "buffer" : 0,
            "byteLength" : 48,
            "byteOffset" : 4644
        },
        {
            "buffer" : 0,
            "byteLength" : 12,
            "byteOffset" : 4692
        },
        {
            "buffer" : 0,
            "byteLength" : 72,
            "byteOffset" : 4704
        },
        {
            "buffer" : 0,
            "byteLength" : 72,
            "byteOffset" : 4776
        },
        {
            "buffer" : 0,
            "byteLength" : 48,
            "byteOffset" : 4848
        },
        {
            "buffer" : 0,
            "byteLength" : 12,
            "byteOffset" : 4896
        },
        {
            "buffer" : 0,
            "byteLength" : 264,
            "byteOffset" : 4908
        },
        {
            "buffer" : 0,
            "byteLength" : 264,
            "byteOffset" : 5172
        },
        {
            "buffer" : 0,
            "byteLength" : 176,
            "byteOffset" : 5436
        },
        {
            "buffer" : 0,
            "byteLength" : 48,
            "byteOffset" : 5612
        }
    ],
    "samplers" : [
        {
            "magFilter" : 9729,
            "minFilter" : 9987
        }
    ],
    "buffers" : [
        {
            "byteLength" : 5660,
            "uri" : "building_2.bin"
        }
    ]
}
