{
    "asset" : {
        "generator" : "Khronos glTF Blender I/O v1.7.33",
        "version" : "2.0"
    },
    "scene" : 0,
    "scenes" : [
        {
            "name" : "Scene",
            "nodes" : [
                0
            ]
        }
    ],
    "nodes" : [
        {
            "mesh" : 0,
            "name" : "Maxis-3d3-mesh-33",
            "rotation" : [
                0.7071068286895752,
                0,
                0,
                0.7071067094802856
            ]
        }
    ],
    "materials" : [
        {
            "doubleSided" : true,
            "name" : "mat2-62",
            "pbrMetallicRoughness" : {
                "baseColorTexture" : {
                    "index" : 0
                },
                "metallicFactor" : 0
            }
        },
        {
            "doubleSided" : true,
            "name" : "mat2-61",
            "pbrMetallicRoughness" : {
                "baseColorTexture" : {
                    "index" : 1
                },
                "metallicFactor" : 0
            }
        },
        {
            "doubleSided" : true,
            "name" : "mat2-53",
            "pbrMetallicRoughness" : {
                "baseColorTexture" : {
                    "index" : 2
                },
                "metallicFactor" : 0
            }
        },
        {
            "doubleSided" : true,
            "name" : "mat2-54",
            "pbrMetallicRoughness" : {
                "baseColorTexture" : {
                    "index" : 3
                },
                "metallicFactor" : 0
            }
        },
        {
            "doubleSided" : true,
            "name" : "mat2-63",
            "pbrMetallicRoughness" : {
                "baseColorTexture" : {
                    "index" : 4
                },
                "metallicFactor" : 0
            }
        },
        {
            "doubleSided" : true,
            "name" : "matcolour-208",
            "pbrMetallicRoughness" : {
                "baseColorFactor" : [
                    0.49803921580314636,
                    0.29019609093666077,
                    0.03921568766236305,
                    1
                ],
                "metallicFactor" : 0
            }
        },
        {
            "doubleSided" : true,
            "name" : "matcolour-48.004",
            "pbrMetallicRoughness" : {
                "baseColorFactor" : [
                    0.05882352963089943,
                    0.05882352963089943,
                    0.05882352963089943,
                    1
                ],
                "metallicFactor" : 0
            }
        },
        {
            "doubleSided" : true,
            "name" : "mat2-60",
            "pbrMetallicRoughness" : {
                "baseColorTexture" : {
                    "index" : 5
                },
                "metallicFactor" : 0
            }
        },
        {
            "doubleSided" : true,
            "name" : "mat2-55",
            "pbrMetallicRoughness" : {
                "baseColorTexture" : {
                    "index" : 6
                },
                "metallicFactor" : 0
            }
        },
        {
            "doubleSided" : true,
            "name" : "mat2-52",
            "pbrMetallicRoughness" : {
                "baseColorTexture" : {
                    "index" : 7
                },
                "metallicFactor" : 0
            }
        }
    ],
    "meshes" : [
        {
            "name" : "Maxis-3d3-mesh-33",
            "primitives" : [
                {
                    "attributes" : {
                        "POSITION" : 0,
                        "NORMAL" : 1,
                        "TEXCOORD_0" : 2
                    },
                    "indices" : 3,
                    "material" : 0
                },
                {
                    "attributes" : {
                        "POSITION" : 4,
                        "NORMAL" : 5,
                        "TEXCOORD_0" : 6
                    },
                    "indices" : 7,
                    "material" : 1
                },
                {
                    "attributes" : {
                        "POSITION" : 8,
                        "NORMAL" : 9,
                        "TEXCOORD_0" : 10
                    },
                    "indices" : 11,
                    "material" : 2
                },
                {
                    "attributes" : {
                        "POSITION" : 12,
                        "NORMAL" : 13,
                        "TEXCOORD_0" : 14
                    },
                    "indices" : 15,
                    "material" : 3
                },
                {
                    "attributes" : {
                        "POSITION" : 16,
                        "NORMAL" : 17,
                        "TEXCOORD_0" : 18
                    },
                    "indices" : 19,
                    "material" : 4
                },
                {
                    "attributes" : {
                        "POSITION" : 20,
                        "NORMAL" : 21,
                        "TEXCOORD_0" : 22
                    },
                    "indices" : 23,
                    "material" : 5
                },
                {
                    "attributes" : {
                        "POSITION" : 24,
                        "NORMAL" : 25,
                        "TEXCOORD_0" : 26
                    },
                    "indices" : 27,
                    "material" : 6
                },
                {
                    "attributes" : {
                        "POSITION" : 28,
                        "NORMAL" : 29,
                        "TEXCOORD_0" : 30
                    },
                    "indices" : 31,
                    "material" : 7
                },
                {
                    "attributes" : {
                        "POSITION" : 32,
                        "NORMAL" : 33,
                        "TEXCOORD_0" : 34
                    },
                    "indices" : 35,
                    "material" : 8
                },
                {
                    "attributes" : {
                        "POSITION" : 36,
                        "NORMAL" : 37,
                        "TEXCOORD_0" : 38
                    },
                    "indices" : 39,
                    "material" : 9
                }
            ]
        }
    ],
    "textures" : [
        {
            "sampler" : 0,
            "source" : 0
        },
        {
            "sampler" : 0,
            "source" : 1
        },
        {
            "sampler" : 0,
            "source" : 2
        },
        {
            "sampler" : 0,
            "source" : 3
        },
        {
            "sampler" : 0,
            "source" : 4
        },
        {
            "sampler" : 0,
            "source" : 5
        },
        {
            "sampler" : 0,
            "source" : 6
        },
        {
            "sampler" : 0,
            "source" : 7
        }
    ],
    "images" : [
        {
            "mimeType" : "image/png",
            "name" : "tex2-62",
            "uri" : "../../../Textures/tex2-62.png"
        },
        {
            "mimeType" : "image/png",
            "name" : "tex2-61",
            "uri" : "../../../Textures/tex2-61.png"
        },
        {
            "mimeType" : "image/png",
            "name" : "tex2-53",
            "uri" : "../../../Textures/tex2-53.png"
        },
        {
            "mimeType" : "image/png",
            "name" : "tex2-54",
            "uri" : "../../../Textures/tex2-54.png"
        },
        {
            "mimeType" : "image/png",
            "name" : "tex2-63",
            "uri" : "../../../Textures/tex2-63.png"
        },
        {
            "mimeType" : "image/png",
            "name" : "tex2-60",
            "uri" : "../../../Textures/tex2-60.png"
        },
        {
            "mimeType" : "image/png",
            "name" : "tex2-55",
            "uri" : "../../../Textures/tex2-55.png"
        },
        {
            "mimeType" : "image/png",
            "name" : "tex2-52",
            "uri" : "../../../Textures/tex2-52.png"
        }
    ],
    "accessors" : [
        {
            "bufferView" : 0,
            "componentType" : 5126,
            "count" : 22,
            "max" : [
                9.554996490478516,
                10.084999084472656,
                -19.225723266601562
            ],
            "min" : [
                -3.6812477111816406,
                -10.585002899169922,
                -23
            ],
            "type" : "VEC3"
        },
        {
            "bufferView" : 1,
            "componentType" : 5126,
            "count" : 22,
            "type" : "VEC3"
        },
        {
            "bufferView" : 2,
            "componentType" : 5126,
            "count" : 22,
            "type" : "VEC2"
        },
        {
            "bufferView" : 3,
            "componentType" : 5123,
            "count" : 24,
            "type" : "SCALAR"
        },
        {
            "bufferView" : 4,
            "componentType" : 5126,
            "count" : 20,
            "max" : [
                3.487499237060547,
                10.084999084472656,
                -19.225723266601562
            ],
            "min" : [
                -10.054996490478516,
                -10.585002899169922,
                -23
            ],
            "type" : "VEC3"
        },
        {
            "bufferView" : 5,
            "componentType" : 5126,
            "count" : 20,
            "type" : "VEC3"
        },
        {
            "bufferView" : 6,
            "componentType" : 5126,
            "count" : 20,
            "type" : "VEC2"
        },
        {
            "bufferView" : 7,
            "componentType" : 5123,
            "count" : 24,
            "type" : "SCALAR"
        },
        {
            "bufferView" : 8,
            "componentType" : 5126,
            "count" : 12,
            "max" : [
                3.487499237060547,
                9.5,
                0
            ],
            "min" : [
                -9.5,
                -10.000003814697266,
                -19.225723266601562
            ],
            "type" : "VEC3"
        },
        {
            "bufferView" : 9,
            "componentType" : 5126,
            "count" : 12,
            "type" : "VEC3"
        },
        {
            "bufferView" : 10,
            "componentType" : 5126,
            "count" : 12,
            "type" : "VEC2"
        },
        {
            "bufferView" : 11,
            "componentType" : 5123,
            "count" : 12,
            "type" : "SCALAR"
        },
        {
            "bufferView" : 12,
            "componentType" : 5126,
            "count" : 10,
            "max" : [
                9.015296936035156,
                9.5,
                0
            ],
            "min" : [
                -3.6812477111816406,
                -10,
                -19.225826263427734
            ],
            "type" : "VEC3"
        },
        {
            "bufferView" : 13,
            "componentType" : 5126,
            "count" : 10,
            "type" : "VEC3"
        },
        {
            "bufferView" : 14,
            "componentType" : 5126,
            "count" : 10,
            "type" : "VEC2"
        },
        {
            "bufferView" : 15,
            "componentType" : 5123,
            "count" : 12,
            "type" : "SCALAR"
        },
        {
            "bufferView" : 16,
            "componentType" : 5126,
            "count" : 68,
            "max" : [
                9.554996490478516,
                10.084999084472656,
                -19.225723266601562
            ],
            "min" : [
                -10.054996490478516,
                -10.584999084472656,
                -23
            ],
            "type" : "VEC3"
        },
        {
            "bufferView" : 17,
            "componentType" : 5126,
            "count" : 68,
            "type" : "VEC3"
        },
        {
            "bufferView" : 18,
            "componentType" : 5126,
            "count" : 68,
            "type" : "VEC2"
        },
        {
            "bufferView" : 19,
            "componentType" : 5123,
            "count" : 84,
            "type" : "SCALAR"
        },
        {
            "bufferView" : 20,
            "componentType" : 5126,
            "count" : 43,
            "max" : [
                9.554996490478516,
                10.08499526977539,
                -19.774272918701172
            ],
            "min" : [
                -10.054996490478516,
                -10.585002899169922,
                -19.774272918701172
            ],
            "type" : "VEC3"
        },
        {
            "bufferView" : 21,
            "componentType" : 5126,
            "count" : 43,
            "type" : "VEC3"
        },
        {
            "bufferView" : 22,
            "componentType" : 5126,
            "count" : 43,
            "type" : "VEC2"
        },
        {
            "bufferView" : 23,
            "componentType" : 5123,
            "count" : 48,
            "type" : "SCALAR"
        },
        {
            "bufferView" : 24,
            "componentType" : 5126,
            "count" : 16,
            "max" : [
                9.015296936035156,
                9.499996185302734,
                -23
            ],
            "min" : [
                -9.5,
                -10.000003814697266,
                -23
            ],
            "type" : "VEC3"
        },
        {
            "bufferView" : 25,
            "componentType" : 5126,
            "count" : 16,
            "type" : "VEC3"
        },
        {
            "bufferView" : 26,
            "componentType" : 5126,
            "count" : 16,
            "type" : "VEC2"
        },
        {
            "bufferView" : 27,
            "componentType" : 5123,
            "count" : 18,
            "type" : "SCALAR"
        },
        {
            "bufferView" : 28,
            "componentType" : 5126,
            "count" : 12,
            "max" : [
                9.554996490478516,
                -10,
                -19.225723266601562
            ],
            "min" : [
                -10.054996490478516,
                -10.585002899169922,
                -23
            ],
            "type" : "VEC3"
        },
        {
            "bufferView" : 29,
            "componentType" : 5126,
            "count" : 12,
            "type" : "VEC3"
        },
        {
            "bufferView" : 30,
            "componentType" : 5126,
            "count" : 12,
            "type" : "VEC2"
        },
        {
            "bufferView" : 31,
            "componentType" : 5123,
            "count" : 12,
            "type" : "SCALAR"
        },
        {
            "bufferView" : 32,
            "componentType" : 5126,
            "count" : 12,
            "max" : [
                9,
                9.5,
                0
            ],
            "min" : [
                -9.5,
                6.352935791015625,
                -19.225723266601562
            ],
            "type" : "VEC3"
        },
        {
            "bufferView" : 33,
            "componentType" : 5126,
            "count" : 12,
            "type" : "VEC3"
        },
        {
            "bufferView" : 34,
            "componentType" : 5126,
            "count" : 12,
            "type" : "VEC2"
        },
        {
            "bufferView" : 35,
            "componentType" : 5123,
            "count" : 18,
            "type" : "SCALAR"
        },
        {
            "bufferView" : 36,
            "componentType" : 5126,
            "count" : 6,
            "max" : [
                9.015296936035156,
                -9.999996185302734,
                0
            ],
            "min" : [
                -9.5,
                -10.000003814697266,
                -19.225826263427734
            ],
            "type" : "VEC3"
        },
        {
            "bufferView" : 37,
            "componentType" : 5126,
            "count" : 6,
            "type" : "VEC3"
        },
        {
            "bufferView" : 38,
            "componentType" : 5126,
            "count" : 6,
            "type" : "VEC2"
        },
        {
            "bufferView" : 39,
            "componentType" : 5123,
            "count" : 6,
            "type" : "SCALAR"
        }
    ],
    "bufferViews" : [
        {
            "buffer" : 0,
            "byteLength" : 264,
            "byteOffset" : 0
        },
        {
            "buffer" : 0,
            "byteLength" : 264,
            "byteOffset" : 264
        },
        {
            "buffer" : 0,
            "byteLength" : 176,
            "byteOffset" : 528
        },
        {
            "buffer" : 0,
            "byteLength" : 48,
            "byteOffset" : 704
        },
        {
            "buffer" : 0,
            "byteLength" : 240,
            "byteOffset" : 752
        },
        {
            "buffer" : 0,
            "byteLength" : 240,
            "byteOffset" : 992
        },
        {
            "buffer" : 0,
            "byteLength" : 160,
            "byteOffset" : 1232
        },
        {
            "buffer" : 0,
            "byteLength" : 48,
            "byteOffset" : 1392
        },
        {
            "buffer" : 0,
            "byteLength" : 144,
            "byteOffset" : 1440
        },
        {
            "buffer" : 0,
            "byteLength" : 144,
            "byteOffset" : 1584
        },
        {
            "buffer" : 0,
            "byteLength" : 96,
            "byteOffset" : 1728
        },
        {
            "buffer" : 0,
            "byteLength" : 24,
            "byteOffset" : 1824
        },
        {
            "buffer" : 0,
            "byteLength" : 120,
            "byteOffset" : 1848
        },
        {
            "buffer" : 0,
            "byteLength" : 120,
            "byteOffset" : 1968
        },
        {
            "buffer" : 0,
            "byteLength" : 80,
            "byteOffset" : 2088
        },
        {
            "buffer" : 0,
            "byteLength" : 24,
            "byteOffset" : 2168
        },
        {
            "buffer" : 0,
            "byteLength" : 816,
            "byteOffset" : 2192
        },
        {
            "buffer" : 0,
            "byteLength" : 816,
            "byteOffset" : 3008
        },
        {
            "buffer" : 0,
            "byteLength" : 544,
            "byteOffset" : 3824
        },
        {
            "buffer" : 0,
            "byteLength" : 168,
            "byteOffset" : 4368
        },
        {
            "buffer" : 0,
            "byteLength" : 516,
            "byteOffset" : 4536
        },
        {
            "buffer" : 0,
            "byteLength" : 516,
            "byteOffset" : 5052
        },
        {
            "buffer" : 0,
            "byteLength" : 344,
            "byteOffset" : 5568
        },
        {
            "buffer" : 0,
            "byteLength" : 96,
            "byteOffset" : 5912
        },
        {
            "buffer" : 0,
            "byteLength" : 192,
            "byteOffset" : 6008
        },
        {
            "buffer" : 0,
            "byteLength" : 192,
            "byteOffset" : 6200
        },
        {
            "buffer" : 0,
            "byteLength" : 128,
            "byteOffset" : 6392
        },
        {
            "buffer" : 0,
            "byteLength" : 36,
            "byteOffset" : 6520
        },
        {
            "buffer" : 0,
            "byteLength" : 144,
            "byteOffset" : 6556
        },
        {
            "buffer" : 0,
            "byteLength" : 144,
            "byteOffset" : 6700
        },
        {
            "buffer" : 0,
            "byteLength" : 96,
            "byteOffset" : 6844
        },
        {
            "buffer" : 0,
            "byteLength" : 24,
            "byteOffset" : 6940
        },
        {
            "buffer" : 0,
            "byteLength" : 144,
            "byteOffset" : 6964
        },
        {
            "buffer" : 0,
            "byteLength" : 144,
            "byteOffset" : 7108
        },
        {
            "buffer" : 0,
            "byteLength" : 96,
            "byteOffset" : 7252
        },
        {
            "buffer" : 0,
            "byteLength" : 36,
            "byteOffset" : 7348
        },
        {
            "buffer" : 0,
            "byteLength" : 72,
            "byteOffset" : 7384
        },
        {
            "buffer" : 0,
            "byteLength" : 72,
            "byteOffset" : 7456
        },
        {
            "buffer" : 0,
            "byteLength" : 48,
            "byteOffset" : 7528
        },
        {
            "buffer" : 0,
            "byteLength" : 12,
            "byteOffset" : 7576
        }
    ],
    "samplers" : [
        {
            "magFilter" : 9729,
            "minFilter" : 9987
        }
    ],
    "buffers" : [
        {
            "byteLength" : 7588,
            "uri" : "medium_2.bin"
        }
    ]
}
