{
	"asset":{
		"generator":"Khronos glTF Blender I/O v4.3.47",
		"version":"2.0"
	},
	"scene":0,
	"scenes":[
		{
			"name":"Scene",
			"nodes":[
				0,
				1
			]
		}
	],
	"nodes":[
		{
			"mesh":0,
			"name":"Maxis-3d1-mesh-6-Abandoned",
			"rotation":[
				0.70710688829422,
				0,
				0,
				0.7071066498756409
			]
		},
		{
			"extras":{
				"gd_node":"Decal",
				"lower_fade":9,
				"upper_fade":10
			},
			"mesh":1,
			"name":"Ground_AO",
			"scale":[
				16.265499114990234,
				1,
				12.666667938232422
			],
			"translation":[
				0.07449531555175781,
				0,
				1.890325665473938
			]
		}
	],
	"materials":[
		{
			"name":"mat40-23",
			"occlusionTexture":{
				"index":0,
				"texCoord":1
			},
			"pbrMetallicRoughness":{
				"baseColorTexture":{
					"index":1
				},
				"metallicFactor":0
			}
		},
		{
			"name":"mat40-20",
			"occlusionTexture":{
				"index":2,
				"texCoord":1
			},
			"pbrMetallicRoughness":{
				"baseColorTexture":{
					"index":3
				},
				"metallicFactor":0
			}
		},
		{
			"name":"mat40-55",
			"occlusionTexture":{
				"index":4,
				"texCoord":1
			},
			"pbrMetallicRoughness":{
				"baseColorTexture":{
					"index":5
				},
				"metallicFactor":0
			}
		},
		{
			"name":"mat40-52",
			"occlusionTexture":{
				"index":6,
				"texCoord":1
			},
			"pbrMetallicRoughness":{
				"baseColorTexture":{
					"index":7
				},
				"metallicFactor":0
			}
		},
		{
			"name":"mat40-54",
			"occlusionTexture":{
				"index":8,
				"texCoord":1
			},
			"pbrMetallicRoughness":{
				"baseColorTexture":{
					"index":9
				},
				"metallicFactor":0
			}
		},
		{
			"name":"mat40-53",
			"occlusionTexture":{
				"index":10,
				"texCoord":1
			},
			"pbrMetallicRoughness":{
				"baseColorTexture":{
					"index":11
				},
				"metallicFactor":0
			}
		},
		{
			"name":"matcolour-128",
			"occlusionTexture":{
				"index":12,
				"texCoord":1
			},
			"pbrMetallicRoughness":{
				"baseColorFactor":[
					0.12156862765550613,
					0.08235294371843338,
					0.062745101749897,
					1
				],
				"metallicFactor":0
			}
		},
		{
			"name":"Ground_AO",
			"occlusionTexture":{
				"index":13
			},
			"pbrMetallicRoughness":{
				"baseColorFactor":[
					0.800000011920929,
					0.800000011920929,
					0.800000011920929,
					1
				],
				"metallicFactor":0,
				"roughnessFactor":0.5
			}
		}
	],
	"meshes":[
		{
			"name":"Maxis-3d1-mesh-6-Abandoned",
			"primitives":[
				{
					"attributes":{
						"POSITION":0,
						"NORMAL":1,
						"TEXCOORD_0":2,
						"TEXCOORD_1":3
					},
					"indices":4,
					"material":0
				},
				{
					"attributes":{
						"POSITION":5,
						"NORMAL":6,
						"TEXCOORD_0":7,
						"TEXCOORD_1":8
					},
					"indices":9,
					"material":1
				},
				{
					"attributes":{
						"POSITION":10,
						"NORMAL":11,
						"TEXCOORD_0":12,
						"TEXCOORD_1":13
					},
					"indices":14,
					"material":2
				},
				{
					"attributes":{
						"POSITION":15,
						"NORMAL":16,
						"TEXCOORD_0":17,
						"TEXCOORD_1":18
					},
					"indices":19,
					"material":3
				},
				{
					"attributes":{
						"POSITION":20,
						"NORMAL":21,
						"TEXCOORD_0":22,
						"TEXCOORD_1":23
					},
					"indices":24,
					"material":4
				},
				{
					"attributes":{
						"POSITION":25,
						"NORMAL":26,
						"TEXCOORD_0":27,
						"TEXCOORD_1":28
					},
					"indices":29,
					"material":5
				},
				{
					"attributes":{
						"POSITION":30,
						"NORMAL":31,
						"TEXCOORD_0":32,
						"TEXCOORD_1":33
					},
					"indices":34,
					"material":6
				}
			]
		},
		{
			"name":"Plane",
			"primitives":[
				{
					"attributes":{
						"POSITION":35,
						"NORMAL":36,
						"TEXCOORD_0":37
					},
					"indices":38,
					"material":7
				}
			]
		}
	],
	"textures":[
		{
			"sampler":0,
			"source":0
		},
		{
			"sampler":0,
			"source":1
		},
		{
			"sampler":0,
			"source":0
		},
		{
			"sampler":0,
			"source":2
		},
		{
			"sampler":0,
			"source":0
		},
		{
			"sampler":0,
			"source":3
		},
		{
			"sampler":0,
			"source":0
		},
		{
			"sampler":0,
			"source":4
		},
		{
			"sampler":0,
			"source":0
		},
		{
			"sampler":0,
			"source":5
		},
		{
			"sampler":0,
			"source":0
		},
		{
			"sampler":0,
			"source":6
		},
		{
			"sampler":0,
			"source":0
		},
		{
			"sampler":0,
			"source":7
		}
	],
	"images":[
		{
			"mimeType":"image/png",
			"name":"building_1.png",
			"uri":"../../../Textures/ambient_occlusion/Buildings/Abandoned/building_1.png"
		},
		{
			"mimeType":"image/png",
			"name":"tex40-23",
			"uri":"../../../Textures/tex40-23.png"
		},
		{
			"mimeType":"image/png",
			"name":"tex40-20",
			"uri":"../../../Textures/tex40-20.png"
		},
		{
			"mimeType":"image/png",
			"name":"tex40-55",
			"uri":"../../../Textures/tex40-55.png"
		},
		{
			"mimeType":"image/png",
			"name":"tex40-52",
			"uri":"../../../Textures/tex40-52.png"
		},
		{
			"mimeType":"image/png",
			"name":"tex40-54",
			"uri":"../../../Textures/tex40-54.png"
		},
		{
			"mimeType":"image/png",
			"name":"tex40-53",
			"uri":"../../../Textures/tex40-53.png"
		},
		{
			"mimeType":"image/png",
			"name":"building_1_ground.png",
			"uri":"../../../Textures/ambient_occlusion/Buildings/Abandoned/building_1_ground.png"
		}
	],
	"accessors":[
		{
			"bufferView":0,
			"componentType":5126,
			"count":12,
			"max":[
				5.977748870849609,
				7.723659515380859,
				0
			],
			"min":[
				-6.221981048583984,
				1.2653236389160156,
				-3.0103721618652344
			],
			"type":"VEC3"
		},
		{
			"bufferView":1,
			"componentType":5126,
			"count":12,
			"type":"VEC3"
		},
		{
			"bufferView":2,
			"componentType":5126,
			"count":12,
			"type":"VEC2"
		},
		{
			"bufferView":3,
			"componentType":5126,
			"count":12,
			"type":"VEC2"
		},
		{
			"bufferView":4,
			"componentType":5123,
			"count":18,
			"type":"SCALAR"
		},
		{
			"bufferView":5,
			"componentType":5126,
			"count":4,
			"max":[
				6.394416809082031,
				-3.943004608154297,
				0
			],
			"min":[
				5.130805969238281,
				-3.9430084228515625,
				-2.4003982543945312
			],
			"type":"VEC3"
		},
		{
			"bufferView":6,
			"componentType":5126,
			"count":4,
			"type":"VEC3"
		},
		{
			"bufferView":7,
			"componentType":5126,
			"count":4,
			"type":"VEC2"
		},
		{
			"bufferView":8,
			"componentType":5126,
			"count":4,
			"type":"VEC2"
		},
		{
			"bufferView":9,
			"componentType":5123,
			"count":6,
			"type":"SCALAR"
		},
		{
			"bufferView":10,
			"componentType":5126,
			"count":8,
			"max":[
				7.707244873046875,
				7.634029388427734,
				0
			],
			"min":[
				-7.558254241943359,
				1.2173576354980469,
				-4.666667938232422
			],
			"type":"VEC3"
		},
		{
			"bufferView":11,
			"componentType":5126,
			"count":8,
			"type":"VEC3"
		},
		{
			"bufferView":12,
			"componentType":5126,
			"count":8,
			"type":"VEC2"
		},
		{
			"bufferView":13,
			"componentType":5126,
			"count":8,
			"type":"VEC2"
		},
		{
			"bufferView":14,
			"componentType":5123,
			"count":12,
			"type":"SCALAR"
		},
		{
			"bufferView":15,
			"componentType":5126,
			"count":8,
			"max":[
				7.707244873046875,
				2.5465850830078125,
				0
			],
			"min":[
				-7.558254241943359,
				-3.8700790405273438,
				-4.666664123535156
			],
			"type":"VEC3"
		},
		{
			"bufferView":16,
			"componentType":5126,
			"count":8,
			"type":"VEC3"
		},
		{
			"bufferView":17,
			"componentType":5126,
			"count":8,
			"type":"VEC2"
		},
		{
			"bufferView":18,
			"componentType":5126,
			"count":8,
			"type":"VEC2"
		},
		{
			"bufferView":19,
			"componentType":5123,
			"count":12,
			"type":"SCALAR"
		},
		{
			"bufferView":20,
			"componentType":5126,
			"count":8,
			"max":[
				7.707244873046875,
				7.634029388427734,
				0
			],
			"min":[
				3.040576934814453,
				-3.8700790405273438,
				-4.666667938232422
			],
			"type":"VEC3"
		},
		{
			"bufferView":21,
			"componentType":5126,
			"count":8,
			"type":"VEC3"
		},
		{
			"bufferView":22,
			"componentType":5126,
			"count":8,
			"type":"VEC2"
		},
		{
			"bufferView":23,
			"componentType":5126,
			"count":8,
			"type":"VEC2"
		},
		{
			"bufferView":24,
			"componentType":5123,
			"count":12,
			"type":"SCALAR"
		},
		{
			"bufferView":25,
			"componentType":5126,
			"count":8,
			"max":[
				-2.8915863037109375,
				7.634029388427734,
				0
			],
			"min":[
				-7.558254241943359,
				-3.8700790405273438,
				-4.666667938232422
			],
			"type":"VEC3"
		},
		{
			"bufferView":26,
			"componentType":5126,
			"count":8,
			"type":"VEC3"
		},
		{
			"bufferView":27,
			"componentType":5126,
			"count":8,
			"type":"VEC2"
		},
		{
			"bufferView":28,
			"componentType":5126,
			"count":8,
			"type":"VEC2"
		},
		{
			"bufferView":29,
			"componentType":5123,
			"count":12,
			"type":"SCALAR"
		},
		{
			"bufferView":30,
			"componentType":5126,
			"count":8,
			"max":[
				7.707244873046875,
				7.634025573730469,
				-4.666660308837891
			],
			"min":[
				-7.558254241943359,
				-3.8700790405273438,
				-4.666667938232422
			],
			"type":"VEC3"
		},
		{
			"bufferView":31,
			"componentType":5126,
			"count":8,
			"type":"VEC3"
		},
		{
			"bufferView":32,
			"componentType":5126,
			"count":8,
			"type":"VEC2"
		},
		{
			"bufferView":33,
			"componentType":5126,
			"count":8,
			"type":"VEC2"
		},
		{
			"bufferView":34,
			"componentType":5123,
			"count":12,
			"type":"SCALAR"
		},
		{
			"bufferView":35,
			"componentType":5126,
			"count":4,
			"max":[
				0.5,
				0,
				0.5
			],
			"min":[
				-0.5,
				0,
				-0.5
			],
			"type":"VEC3"
		},
		{
			"bufferView":36,
			"componentType":5126,
			"count":4,
			"type":"VEC3"
		},
		{
			"bufferView":37,
			"componentType":5126,
			"count":4,
			"type":"VEC2"
		},
		{
			"bufferView":38,
			"componentType":5123,
			"count":6,
			"type":"SCALAR"
		}
	],
	"bufferViews":[
		{
			"buffer":0,
			"byteLength":144,
			"byteOffset":0,
			"target":34962
		},
		{
			"buffer":0,
			"byteLength":144,
			"byteOffset":144,
			"target":34962
		},
		{
			"buffer":0,
			"byteLength":96,
			"byteOffset":288,
			"target":34962
		},
		{
			"buffer":0,
			"byteLength":96,
			"byteOffset":384,
			"target":34962
		},
		{
			"buffer":0,
			"byteLength":36,
			"byteOffset":480,
			"target":34963
		},
		{
			"buffer":0,
			"byteLength":48,
			"byteOffset":516,
			"target":34962
		},
		{
			"buffer":0,
			"byteLength":48,
			"byteOffset":564,
			"target":34962
		},
		{
			"buffer":0,
			"byteLength":32,
			"byteOffset":612,
			"target":34962
		},
		{
			"buffer":0,
			"byteLength":32,
			"byteOffset":644,
			"target":34962
		},
		{
			"buffer":0,
			"byteLength":12,
			"byteOffset":676,
			"target":34963
		},
		{
			"buffer":0,
			"byteLength":96,
			"byteOffset":688,
			"target":34962
		},
		{
			"buffer":0,
			"byteLength":96,
			"byteOffset":784,
			"target":34962
		},
		{
			"buffer":0,
			"byteLength":64,
			"byteOffset":880,
			"target":34962
		},
		{
			"buffer":0,
			"byteLength":64,
			"byteOffset":944,
			"target":34962
		},
		{
			"buffer":0,
			"byteLength":24,
			"byteOffset":1008,
			"target":34963
		},
		{
			"buffer":0,
			"byteLength":96,
			"byteOffset":1032,
			"target":34962
		},
		{
			"buffer":0,
			"byteLength":96,
			"byteOffset":1128,
			"target":34962
		},
		{
			"buffer":0,
			"byteLength":64,
			"byteOffset":1224,
			"target":34962
		},
		{
			"buffer":0,
			"byteLength":64,
			"byteOffset":1288,
			"target":34962
		},
		{
			"buffer":0,
			"byteLength":24,
			"byteOffset":1352,
			"target":34963
		},
		{
			"buffer":0,
			"byteLength":96,
			"byteOffset":1376,
			"target":34962
		},
		{
			"buffer":0,
			"byteLength":96,
			"byteOffset":1472,
			"target":34962
		},
		{
			"buffer":0,
			"byteLength":64,
			"byteOffset":1568,
			"target":34962
		},
		{
			"buffer":0,
			"byteLength":64,
			"byteOffset":1632,
			"target":34962
		},
		{
			"buffer":0,
			"byteLength":24,
			"byteOffset":1696,
			"target":34963
		},
		{
			"buffer":0,
			"byteLength":96,
			"byteOffset":1720,
			"target":34962
		},
		{
			"buffer":0,
			"byteLength":96,
			"byteOffset":1816,
			"target":34962
		},
		{
			"buffer":0,
			"byteLength":64,
			"byteOffset":1912,
			"target":34962
		},
		{
			"buffer":0,
			"byteLength":64,
			"byteOffset":1976,
			"target":34962
		},
		{
			"buffer":0,
			"byteLength":24,
			"byteOffset":2040,
			"target":34963
		},
		{
			"buffer":0,
			"byteLength":96,
			"byteOffset":2064,
			"target":34962
		},
		{
			"buffer":0,
			"byteLength":96,
			"byteOffset":2160,
			"target":34962
		},
		{
			"buffer":0,
			"byteLength":64,
			"byteOffset":2256,
			"target":34962
		},
		{
			"buffer":0,
			"byteLength":64,
			"byteOffset":2320,
			"target":34962
		},
		{
			"buffer":0,
			"byteLength":24,
			"byteOffset":2384,
			"target":34963
		},
		{
			"buffer":0,
			"byteLength":48,
			"byteOffset":2408,
			"target":34962
		},
		{
			"buffer":0,
			"byteLength":48,
			"byteOffset":2456,
			"target":34962
		},
		{
			"buffer":0,
			"byteLength":32,
			"byteOffset":2504,
			"target":34962
		},
		{
			"buffer":0,
			"byteLength":12,
			"byteOffset":2536,
			"target":34963
		}
	],
	"samplers":[
		{
			"magFilter":9729,
			"minFilter":9987
		}
	],
	"buffers":[
		{
			"byteLength":2548,
			"uri":"building_1.bin"
		}
	]
}
