{
    "asset" : {
        "generator" : "Khronos glTF Blender I/O v1.7.33",
        "version" : "2.0"
    },
    "scene" : 0,
    "scenes" : [
        {
            "name" : "Scene",
            "nodes" : [
                0
            ]
        }
    ],
    "nodes" : [
        {
            "mesh" : 0,
            "name" : "Maxis-3d1-mesh-8-abnFactory",
            "rotation" : [
                0.7071068286895752,
                0,
                0,
                0.7071067094802856
            ]
        }
    ],
    "materials" : [
        {
            "doubleSided" : true,
            "name" : "mat40-46",
            "pbrMetallicRoughness" : {
                "baseColorTexture" : {
                    "index" : 0
                },
                "metallicFactor" : 0
            }
        },
        {
            "doubleSided" : true,
            "name" : "mat40-45.001",
            "pbrMetallicRoughness" : {
                "baseColorTexture" : {
                    "index" : 1
                },
                "metallicFactor" : 0
            }
        },
        {
            "doubleSided" : true,
            "name" : "mat40-47",
            "pbrMetallicRoughness" : {
                "baseColorTexture" : {
                    "index" : 2
                },
                "metallicFactor" : 0
            }
        },
        {
            "doubleSided" : true,
            "name" : "mat40-44",
            "pbrMetallicRoughness" : {
                "baseColorTexture" : {
                    "index" : 3
                },
                "metallicFactor" : 0
            }
        },
        {
            "doubleSided" : true,
            "name" : "matcolour-128.001",
            "pbrMetallicRoughness" : {
                "baseColorFactor" : [
                    0.12156862765550613,
                    0.08235294371843338,
                    0.062745101749897,
                    1
                ],
                "metallicFactor" : 0
            }
        },
        {
            "doubleSided" : true,
            "name" : "mat40-53.001",
            "pbrMetallicRoughness" : {
                "baseColorTexture" : {
                    "index" : 4
                },
                "metallicFactor" : 0
            }
        },
        {
            "doubleSided" : true,
            "name" : "mat40-54.001",
            "pbrMetallicRoughness" : {
                "baseColorTexture" : {
                    "index" : 5
                },
                "metallicFactor" : 0
            }
        },
        {
            "doubleSided" : true,
            "name" : "mat40-52.001",
            "pbrMetallicRoughness" : {
                "baseColorTexture" : {
                    "index" : 6
                },
                "metallicFactor" : 0
            }
        },
        {
            "doubleSided" : true,
            "name" : "mat40-55.001",
            "pbrMetallicRoughness" : {
                "baseColorTexture" : {
                    "index" : 7
                },
                "metallicFactor" : 0
            }
        },
        {
            "doubleSided" : true,
            "name" : "matcolour-208",
            "pbrMetallicRoughness" : {
                "baseColorFactor" : [
                    0.49803921580314636,
                    0.29019609093666077,
                    0.03921568766236305,
                    1
                ],
                "metallicFactor" : 0
            }
        },
        {
            "doubleSided" : true,
            "name" : "matcolour-48.001",
            "pbrMetallicRoughness" : {
                "baseColorFactor" : [
                    0.05882352963089943,
                    0.05882352963089943,
                    0.05882352963089943,
                    1
                ],
                "metallicFactor" : 0
            }
        },
        {
            "doubleSided" : true,
            "name" : "matcolour-0",
            "pbrMetallicRoughness" : {
                "baseColorFactor" : [
                    0,
                    0,
                    0,
                    1
                ],
                "metallicFactor" : 0
            }
        }
    ],
    "meshes" : [
        {
            "name" : "Maxis-3d1-mesh-8-abnFactory",
            "primitives" : [
                {
                    "attributes" : {
                        "POSITION" : 0,
                        "NORMAL" : 1,
                        "TEXCOORD_0" : 2
                    },
                    "indices" : 3,
                    "material" : 0
                },
                {
                    "attributes" : {
                        "POSITION" : 4,
                        "NORMAL" : 5,
                        "TEXCOORD_0" : 6
                    },
                    "indices" : 3,
                    "material" : 1
                },
                {
                    "attributes" : {
                        "POSITION" : 7,
                        "NORMAL" : 8,
                        "TEXCOORD_0" : 9
                    },
                    "indices" : 10,
                    "material" : 2
                },
                {
                    "attributes" : {
                        "POSITION" : 11,
                        "NORMAL" : 12,
                        "TEXCOORD_0" : 13
                    },
                    "indices" : 14,
                    "material" : 3
                },
                {
                    "attributes" : {
                        "POSITION" : 15,
                        "NORMAL" : 16,
                        "TEXCOORD_0" : 17
                    },
                    "indices" : 18,
                    "material" : 4
                },
                {
                    "attributes" : {
                        "POSITION" : 19,
                        "NORMAL" : 20,
                        "TEXCOORD_0" : 21
                    },
                    "indices" : 22,
                    "material" : 5
                },
                {
                    "attributes" : {
                        "POSITION" : 23,
                        "NORMAL" : 24,
                        "TEXCOORD_0" : 25
                    },
                    "indices" : 26,
                    "material" : 6
                },
                {
                    "attributes" : {
                        "POSITION" : 27,
                        "NORMAL" : 28,
                        "TEXCOORD_0" : 29
                    },
                    "indices" : 30,
                    "material" : 7
                },
                {
                    "attributes" : {
                        "POSITION" : 31,
                        "NORMAL" : 32,
                        "TEXCOORD_0" : 33
                    },
                    "indices" : 22,
                    "material" : 8
                },
                {
                    "attributes" : {
                        "POSITION" : 34,
                        "NORMAL" : 35,
                        "TEXCOORD_0" : 36
                    },
                    "indices" : 37,
                    "material" : 9
                },
                {
                    "attributes" : {
                        "POSITION" : 38,
                        "NORMAL" : 39,
                        "TEXCOORD_0" : 40
                    },
                    "indices" : 41,
                    "material" : 10
                },
                {
                    "attributes" : {
                        "POSITION" : 42,
                        "NORMAL" : 43,
                        "TEXCOORD_0" : 44
                    },
                    "indices" : 45,
                    "material" : 11
                }
            ]
        }
    ],
    "textures" : [
        {
            "sampler" : 0,
            "source" : 0
        },
        {
            "sampler" : 0,
            "source" : 1
        },
        {
            "sampler" : 0,
            "source" : 2
        },
        {
            "sampler" : 0,
            "source" : 3
        },
        {
            "sampler" : 0,
            "source" : 4
        },
        {
            "sampler" : 0,
            "source" : 5
        },
        {
            "sampler" : 0,
            "source" : 6
        },
        {
            "sampler" : 0,
            "source" : 7
        }
    ],
    "images" : [
        {
            "mimeType" : "image/png",
            "name" : "tex40-46",
            "uri" : "../../../Textures/tex40-46.png"
        },
        {
            "mimeType" : "image/png",
            "name" : "tex40-45",
            "uri" : "../../../Textures/tex40-45.png"
        },
        {
            "mimeType" : "image/png",
            "name" : "tex40-47",
            "uri" : "../../../Textures/tex40-47.png"
        },
        {
            "mimeType" : "image/png",
            "name" : "tex40-44",
            "uri" : "../../../Textures/tex40-44.png"
        },
        {
            "mimeType" : "image/png",
            "name" : "tex40-53",
            "uri" : "../../../Textures/tex40-53.png"
        },
        {
            "mimeType" : "image/png",
            "name" : "tex40-54",
            "uri" : "../../../Textures/tex40-54.png"
        },
        {
            "mimeType" : "image/png",
            "name" : "tex40-52",
            "uri" : "../../../Textures/tex40-52.png"
        },
        {
            "mimeType" : "image/png",
            "name" : "tex40-55",
            "uri" : "../../../Textures/tex40-55.png"
        }
    ],
    "accessors" : [
        {
            "bufferView" : 0,
            "componentType" : 5126,
            "count" : 6,
            "max" : [
                12.43539810180664,
                12.435401916503906,
                3.814697265625e-06
            ],
            "min" : [
                12.43539810180664,
                -12.435401916503906,
                -14.15713119506836
            ],
            "type" : "VEC3"
        },
        {
            "bufferView" : 1,
            "componentType" : 5126,
            "count" : 6,
            "type" : "VEC3"
        },
        {
            "bufferView" : 2,
            "componentType" : 5126,
            "count" : 6,
            "type" : "VEC2"
        },
        {
            "bufferView" : 3,
            "componentType" : 5123,
            "count" : 6,
            "type" : "SCALAR"
        },
        {
            "bufferView" : 4,
            "componentType" : 5126,
            "count" : 6,
            "max" : [
                -12.43539810180664,
                12.435401916503906,
                3.814697265625e-06
            ],
            "min" : [
                -12.43539810180664,
                -12.435401916503906,
                -14.15713119506836
            ],
            "type" : "VEC3"
        },
        {
            "bufferView" : 5,
            "componentType" : 5126,
            "count" : 6,
            "type" : "VEC3"
        },
        {
            "bufferView" : 6,
            "componentType" : 5126,
            "count" : 6,
            "type" : "VEC2"
        },
        {
            "bufferView" : 7,
            "componentType" : 5126,
            "count" : 4,
            "max" : [
                12.43539810180664,
                12.435401916503906,
                -3.814697265625e-06
            ],
            "min" : [
                -12.43539810180664,
                12.43539810180664,
                -14.15713119506836
            ],
            "type" : "VEC3"
        },
        {
            "bufferView" : 8,
            "componentType" : 5126,
            "count" : 4,
            "type" : "VEC3"
        },
        {
            "bufferView" : 9,
            "componentType" : 5126,
            "count" : 4,
            "type" : "VEC2"
        },
        {
            "bufferView" : 10,
            "componentType" : 5123,
            "count" : 6,
            "type" : "SCALAR"
        },
        {
            "bufferView" : 11,
            "componentType" : 5126,
            "count" : 4,
            "max" : [
                12.43539810180664,
                -12.43539810180664,
                3.814697265625e-06
            ],
            "min" : [
                -12.43539810180664,
                -12.435401916503906,
                -14.157115936279297
            ],
            "type" : "VEC3"
        },
        {
            "bufferView" : 12,
            "componentType" : 5126,
            "count" : 4,
            "type" : "VEC3"
        },
        {
            "bufferView" : 13,
            "componentType" : 5126,
            "count" : 4,
            "type" : "VEC2"
        },
        {
            "bufferView" : 14,
            "componentType" : 5123,
            "count" : 6,
            "type" : "SCALAR"
        },
        {
            "bufferView" : 15,
            "componentType" : 5126,
            "count" : 98,
            "max" : [
                12.43539810180664,
                12.43539810180664,
                -13.299503326416016
            ],
            "min" : [
                -12.43539810180664,
                -12.435401916503906,
                -14.15713119506836
            ],
            "type" : "VEC3"
        },
        {
            "bufferView" : 16,
            "componentType" : 5126,
            "count" : 98,
            "type" : "VEC3"
        },
        {
            "bufferView" : 17,
            "componentType" : 5126,
            "count" : 98,
            "type" : "VEC2"
        },
        {
            "bufferView" : 18,
            "componentType" : 5123,
            "count" : 102,
            "type" : "SCALAR"
        },
        {
            "bufferView" : 19,
            "componentType" : 5126,
            "count" : 4,
            "max" : [
                10.94314956665039,
                10.94314956665039,
                -13.299503326416016
            ],
            "min" : [
                10.94314956665039,
                -10.943153381347656,
                -14.15713119506836
            ],
            "type" : "VEC3"
        },
        {
            "bufferView" : 20,
            "componentType" : 5126,
            "count" : 4,
            "type" : "VEC3"
        },
        {
            "bufferView" : 21,
            "componentType" : 5126,
            "count" : 4,
            "type" : "VEC2"
        },
        {
            "bufferView" : 22,
            "componentType" : 5123,
            "count" : 6,
            "type" : "SCALAR"
        },
        {
            "bufferView" : 23,
            "componentType" : 5126,
            "count" : 4,
            "max" : [
                -10.94314956665039,
                10.94314956665039,
                -13.299503326416016
            ],
            "min" : [
                -10.94314956665039,
                -10.943153381347656,
                -14.15713119506836
            ],
            "type" : "VEC3"
        },
        {
            "bufferView" : 24,
            "componentType" : 5126,
            "count" : 4,
            "type" : "VEC3"
        },
        {
            "bufferView" : 25,
            "componentType" : 5126,
            "count" : 4,
            "type" : "VEC2"
        },
        {
            "bufferView" : 26,
            "componentType" : 5123,
            "count" : 6,
            "type" : "SCALAR"
        },
        {
            "bufferView" : 27,
            "componentType" : 5126,
            "count" : 4,
            "max" : [
                10.94314956665039,
                10.94314956665039,
                -13.299510955810547
            ],
            "min" : [
                -10.94314956665039,
                10.94314956665039,
                -14.15713119506836
            ],
            "type" : "VEC3"
        },
        {
            "bufferView" : 28,
            "componentType" : 5126,
            "count" : 4,
            "type" : "VEC3"
        },
        {
            "bufferView" : 29,
            "componentType" : 5126,
            "count" : 4,
            "type" : "VEC2"
        },
        {
            "bufferView" : 30,
            "componentType" : 5123,
            "count" : 6,
            "type" : "SCALAR"
        },
        {
            "bufferView" : 31,
            "componentType" : 5126,
            "count" : 4,
            "max" : [
                10.94314956665039,
                -10.943153381347656,
                -13.299503326416016
            ],
            "min" : [
                -10.94314956665039,
                -10.943153381347656,
                -14.157115936279297
            ],
            "type" : "VEC3"
        },
        {
            "bufferView" : 32,
            "componentType" : 5126,
            "count" : 4,
            "type" : "VEC3"
        },
        {
            "bufferView" : 33,
            "componentType" : 5126,
            "count" : 4,
            "type" : "VEC2"
        },
        {
            "bufferView" : 34,
            "componentType" : 5126,
            "count" : 16,
            "max" : [
                6.785991668701172,
                4.7340240478515625,
                -13.299507141113281
            ],
            "min" : [
                -4.848609924316406,
                -5.641792297363281,
                -13.299510955810547
            ],
            "type" : "VEC3"
        },
        {
            "bufferView" : 35,
            "componentType" : 5126,
            "count" : 16,
            "type" : "VEC3"
        },
        {
            "bufferView" : 36,
            "componentType" : 5126,
            "count" : 16,
            "type" : "VEC2"
        },
        {
            "bufferView" : 37,
            "componentType" : 5123,
            "count" : 24,
            "type" : "SCALAR"
        },
        {
            "bufferView" : 38,
            "componentType" : 5126,
            "count" : 226,
            "max" : [
                7.390254974365234,
                9.007747650146484,
                -13.122184753417969
            ],
            "min" : [
                -5.667388916015625,
                -7.388118743896484,
                -15.134151458740234
            ],
            "type" : "VEC3"
        },
        {
            "bufferView" : 39,
            "componentType" : 5126,
            "count" : 226,
            "type" : "VEC3"
        },
        {
            "bufferView" : 40,
            "componentType" : 5126,
            "count" : 226,
            "type" : "VEC2"
        },
        {
            "bufferView" : 41,
            "componentType" : 5123,
            "count" : 252,
            "type" : "SCALAR"
        },
        {
            "bufferView" : 42,
            "componentType" : 5126,
            "count" : 86,
            "max" : [
                7.390254974365234,
                9.007747650146484,
                -13.122184753417969
            ],
            "min" : [
                -5.667388916015625,
                -7.388118743896484,
                -15.134151458740234
            ],
            "type" : "VEC3"
        },
        {
            "bufferView" : 43,
            "componentType" : 5126,
            "count" : 86,
            "type" : "VEC3"
        },
        {
            "bufferView" : 44,
            "componentType" : 5126,
            "count" : 86,
            "type" : "VEC2"
        },
        {
            "bufferView" : 45,
            "componentType" : 5123,
            "count" : 120,
            "type" : "SCALAR"
        }
    ],
    "bufferViews" : [
        {
            "buffer" : 0,
            "byteLength" : 72,
            "byteOffset" : 0
        },
        {
            "buffer" : 0,
            "byteLength" : 72,
            "byteOffset" : 72
        },
        {
            "buffer" : 0,
            "byteLength" : 48,
            "byteOffset" : 144
        },
        {
            "buffer" : 0,
            "byteLength" : 12,
            "byteOffset" : 192
        },
        {
            "buffer" : 0,
            "byteLength" : 72,
            "byteOffset" : 204
        },
        {
            "buffer" : 0,
            "byteLength" : 72,
            "byteOffset" : 276
        },
        {
            "buffer" : 0,
            "byteLength" : 48,
            "byteOffset" : 348
        },
        {
            "buffer" : 0,
            "byteLength" : 48,
            "byteOffset" : 396
        },
        {
            "buffer" : 0,
            "byteLength" : 48,
            "byteOffset" : 444
        },
        {
            "buffer" : 0,
            "byteLength" : 32,
            "byteOffset" : 492
        },
        {
            "buffer" : 0,
            "byteLength" : 12,
            "byteOffset" : 524
        },
        {
            "buffer" : 0,
            "byteLength" : 48,
            "byteOffset" : 536
        },
        {
            "buffer" : 0,
            "byteLength" : 48,
            "byteOffset" : 584
        },
        {
            "buffer" : 0,
            "byteLength" : 32,
            "byteOffset" : 632
        },
        {
            "buffer" : 0,
            "byteLength" : 12,
            "byteOffset" : 664
        },
        {
            "buffer" : 0,
            "byteLength" : 1176,
            "byteOffset" : 676
        },
        {
            "buffer" : 0,
            "byteLength" : 1176,
            "byteOffset" : 1852
        },
        {
            "buffer" : 0,
            "byteLength" : 784,
            "byteOffset" : 3028
        },
        {
            "buffer" : 0,
            "byteLength" : 204,
            "byteOffset" : 3812
        },
        {
            "buffer" : 0,
            "byteLength" : 48,
            "byteOffset" : 4016
        },
        {
            "buffer" : 0,
            "byteLength" : 48,
            "byteOffset" : 4064
        },
        {
            "buffer" : 0,
            "byteLength" : 32,
            "byteOffset" : 4112
        },
        {
            "buffer" : 0,
            "byteLength" : 12,
            "byteOffset" : 4144
        },
        {
            "buffer" : 0,
            "byteLength" : 48,
            "byteOffset" : 4156
        },
        {
            "buffer" : 0,
            "byteLength" : 48,
            "byteOffset" : 4204
        },
        {
            "buffer" : 0,
            "byteLength" : 32,
            "byteOffset" : 4252
        },
        {
            "buffer" : 0,
            "byteLength" : 12,
            "byteOffset" : 4284
        },
        {
            "buffer" : 0,
            "byteLength" : 48,
            "byteOffset" : 4296
        },
        {
            "buffer" : 0,
            "byteLength" : 48,
            "byteOffset" : 4344
        },
        {
            "buffer" : 0,
            "byteLength" : 32,
            "byteOffset" : 4392
        },
        {
            "buffer" : 0,
            "byteLength" : 12,
            "byteOffset" : 4424
        },
        {
            "buffer" : 0,
            "byteLength" : 48,
            "byteOffset" : 4436
        },
        {
            "buffer" : 0,
            "byteLength" : 48,
            "byteOffset" : 4484
        },
        {
            "buffer" : 0,
            "byteLength" : 32,
            "byteOffset" : 4532
        },
        {
            "buffer" : 0,
            "byteLength" : 192,
            "byteOffset" : 4564
        },
        {
            "buffer" : 0,
            "byteLength" : 192,
            "byteOffset" : 4756
        },
        {
            "buffer" : 0,
            "byteLength" : 128,
            "byteOffset" : 4948
        },
        {
            "buffer" : 0,
            "byteLength" : 48,
            "byteOffset" : 5076
        },
        {
            "buffer" : 0,
            "byteLength" : 2712,
            "byteOffset" : 5124
        },
        {
            "buffer" : 0,
            "byteLength" : 2712,
            "byteOffset" : 7836
        },
        {
            "buffer" : 0,
            "byteLength" : 1808,
            "byteOffset" : 10548
        },
        {
            "buffer" : 0,
            "byteLength" : 504,
            "byteOffset" : 12356
        },
        {
            "buffer" : 0,
            "byteLength" : 1032,
            "byteOffset" : 12860
        },
        {
            "buffer" : 0,
            "byteLength" : 1032,
            "byteOffset" : 13892
        },
        {
            "buffer" : 0,
            "byteLength" : 688,
            "byteOffset" : 14924
        },
        {
            "buffer" : 0,
            "byteLength" : 240,
            "byteOffset" : 15612
        }
    ],
    "samplers" : [
        {
            "magFilter" : 9729,
            "minFilter" : 9987
        }
    ],
    "buffers" : [
        {
            "byteLength" : 15852,
            "uri" : "building_3.bin"
        }
    ]
}
