{
	"asset":{
		"generator":"Khronos glTF Blender I/O v4.3.47",
		"version":"2.0"
	},
	"scene":0,
	"scenes":[
		{
			"name":"Scene",
			"nodes":[
				0,
				1
			]
		}
	],
	"nodes":[
		{
			"mesh":0,
			"name":"Maxis-3d1-mesh-11-ab173",
			"rotation":[
				0.70710688829422,
				0,
				0,
				0.7071066498756409
			]
		},
		{
			"extras":{
				"gd_node":"Decal",
				"lower_fade":9,
				"upper_fade":10
			},
			"mesh":1,
			"name":"Ground_AO",
			"scale":[
				21.18206787109375,
				1,
				20.821672439575195
			],
			"translation":[
				0,
				-1.2775699360645376e-05,
				0
			]
		}
	],
	"materials":[
		{
			"name":"mat2-57",
			"occlusionTexture":{
				"index":0,
				"texCoord":1
			},
			"pbrMetallicRoughness":{
				"baseColorTexture":{
					"index":1
				},
				"metallicFactor":0
			}
		},
		{
			"name":"mat39-57.001",
			"occlusionTexture":{
				"index":2,
				"texCoord":1
			},
			"pbrMetallicRoughness":{
				"baseColorTexture":{
					"index":3
				},
				"metallicFactor":0
			}
		},
		{
			"name":"mat39-58.001",
			"occlusionTexture":{
				"index":4,
				"texCoord":1
			},
			"pbrMetallicRoughness":{
				"baseColorTexture":{
					"index":5
				},
				"metallicFactor":0
			}
		},
		{
			"name":"mat2-58",
			"occlusionTexture":{
				"index":6,
				"texCoord":1
			},
			"pbrMetallicRoughness":{
				"baseColorTexture":{
					"index":7
				},
				"metallicFactor":0
			}
		},
		{
			"name":"mat2-56",
			"occlusionTexture":{
				"index":8,
				"texCoord":1
			},
			"pbrMetallicRoughness":{
				"baseColorTexture":{
					"index":9
				},
				"metallicFactor":0
			}
		},
		{
			"name":"mat2-40",
			"occlusionTexture":{
				"index":10,
				"texCoord":1
			},
			"pbrMetallicRoughness":{
				"baseColorTexture":{
					"index":11
				},
				"metallicFactor":0
			}
		},
		{
			"name":"mat39-13",
			"occlusionTexture":{
				"index":12,
				"texCoord":1
			},
			"pbrMetallicRoughness":{
				"baseColorTexture":{
					"index":13
				},
				"metallicFactor":0
			}
		},
		{
			"name":"mat40-52.002",
			"occlusionTexture":{
				"index":14,
				"texCoord":1
			},
			"pbrMetallicRoughness":{
				"baseColorTexture":{
					"index":15
				},
				"metallicFactor":0
			}
		},
		{
			"name":"mat40-53.002",
			"occlusionTexture":{
				"index":16,
				"texCoord":1
			},
			"pbrMetallicRoughness":{
				"baseColorTexture":{
					"index":17
				},
				"metallicFactor":0
			}
		},
		{
			"name":"mat40-54.002",
			"occlusionTexture":{
				"index":18,
				"texCoord":1
			},
			"pbrMetallicRoughness":{
				"baseColorTexture":{
					"index":19
				},
				"metallicFactor":0
			}
		},
		{
			"name":"matcolour-48.004",
			"occlusionTexture":{
				"index":20,
				"texCoord":1
			},
			"pbrMetallicRoughness":{
				"baseColorFactor":[
					0.05882352963089943,
					0.05882352963089943,
					0.05882352963089943,
					1
				],
				"metallicFactor":0
			}
		},
		{
			"name":"mat40-55.002",
			"occlusionTexture":{
				"index":21,
				"texCoord":1
			},
			"pbrMetallicRoughness":{
				"baseColorTexture":{
					"index":22
				},
				"metallicFactor":0
			}
		},
		{
			"name":"Ground_AO",
			"occlusionTexture":{
				"index":23
			},
			"pbrMetallicRoughness":{
				"baseColorFactor":[
					0.800000011920929,
					0.800000011920929,
					0.800000011920929,
					1
				],
				"metallicFactor":0,
				"roughnessFactor":0.5
			}
		}
	],
	"meshes":[
		{
			"name":"Maxis-3d1-mesh-11-ab173",
			"primitives":[
				{
					"attributes":{
						"POSITION":0,
						"NORMAL":1,
						"TEXCOORD_0":2,
						"TEXCOORD_1":3
					},
					"indices":4,
					"material":0
				},
				{
					"attributes":{
						"POSITION":5,
						"NORMAL":6,
						"TEXCOORD_0":7,
						"TEXCOORD_1":8
					},
					"indices":9,
					"material":1
				},
				{
					"attributes":{
						"POSITION":10,
						"NORMAL":11,
						"TEXCOORD_0":12,
						"TEXCOORD_1":13
					},
					"indices":4,
					"material":2
				},
				{
					"attributes":{
						"POSITION":14,
						"NORMAL":15,
						"TEXCOORD_0":16,
						"TEXCOORD_1":17
					},
					"indices":18,
					"material":3
				},
				{
					"attributes":{
						"POSITION":19,
						"NORMAL":20,
						"TEXCOORD_0":21,
						"TEXCOORD_1":22
					},
					"indices":23,
					"material":4
				},
				{
					"attributes":{
						"POSITION":24,
						"NORMAL":25,
						"TEXCOORD_0":26,
						"TEXCOORD_1":27
					},
					"indices":28,
					"material":5
				},
				{
					"attributes":{
						"POSITION":29,
						"NORMAL":30,
						"TEXCOORD_0":31,
						"TEXCOORD_1":32
					},
					"indices":33,
					"material":6
				},
				{
					"attributes":{
						"POSITION":34,
						"NORMAL":35,
						"TEXCOORD_0":36,
						"TEXCOORD_1":37
					},
					"indices":38,
					"material":7
				},
				{
					"attributes":{
						"POSITION":39,
						"NORMAL":40,
						"TEXCOORD_0":41,
						"TEXCOORD_1":42
					},
					"indices":33,
					"material":8
				},
				{
					"attributes":{
						"POSITION":43,
						"NORMAL":44,
						"TEXCOORD_0":45,
						"TEXCOORD_1":46
					},
					"indices":47,
					"material":9
				},
				{
					"attributes":{
						"POSITION":48,
						"NORMAL":49,
						"TEXCOORD_0":50,
						"TEXCOORD_1":51
					},
					"indices":52,
					"material":10
				},
				{
					"attributes":{
						"POSITION":53,
						"NORMAL":54,
						"TEXCOORD_0":55,
						"TEXCOORD_1":56
					},
					"indices":57,
					"material":11
				}
			]
		},
		{
			"name":"Plane",
			"primitives":[
				{
					"attributes":{
						"POSITION":58,
						"NORMAL":59,
						"TEXCOORD_0":60
					},
					"indices":61,
					"material":12
				}
			]
		}
	],
	"textures":[
		{
			"sampler":0,
			"source":0
		},
		{
			"sampler":0,
			"source":1
		},
		{
			"sampler":0,
			"source":0
		},
		{
			"sampler":0,
			"source":2
		},
		{
			"sampler":0,
			"source":0
		},
		{
			"sampler":0,
			"source":3
		},
		{
			"sampler":0,
			"source":0
		},
		{
			"sampler":0,
			"source":4
		},
		{
			"sampler":0,
			"source":0
		},
		{
			"sampler":0,
			"source":5
		},
		{
			"sampler":0,
			"source":0
		},
		{
			"sampler":0,
			"source":6
		},
		{
			"sampler":0,
			"source":0
		},
		{
			"sampler":0,
			"source":7
		},
		{
			"sampler":0,
			"source":0
		},
		{
			"sampler":0,
			"source":8
		},
		{
			"sampler":0,
			"source":0
		},
		{
			"sampler":0,
			"source":9
		},
		{
			"sampler":0,
			"source":0
		},
		{
			"sampler":0,
			"source":10
		},
		{
			"sampler":0,
			"source":0
		},
		{
			"sampler":0,
			"source":0
		},
		{
			"sampler":0,
			"source":11
		},
		{
			"sampler":0,
			"source":12
		}
	],
	"images":[
		{
			"mimeType":"image/png",
			"name":"building_6.png",
			"uri":"../../../Textures/ambient_occlusion/Buildings/Abandoned/building_6.png"
		},
		{
			"mimeType":"image/png",
			"name":"tex2-57",
			"uri":"../../../Textures/tex2-57.png"
		},
		{
			"mimeType":"image/png",
			"name":"tex39-57",
			"uri":"../../../Textures/tex39-57.png"
		},
		{
			"mimeType":"image/png",
			"name":"tex39-58",
			"uri":"../../../Textures/tex39-58.png"
		},
		{
			"mimeType":"image/png",
			"name":"tex2-58",
			"uri":"../../../Textures/tex2-58.png"
		},
		{
			"mimeType":"image/png",
			"name":"tex2-56",
			"uri":"../../../Textures/tex2-56.png"
		},
		{
			"mimeType":"image/png",
			"name":"tex2-40",
			"uri":"../../../Textures/tex2-40.png"
		},
		{
			"mimeType":"image/png",
			"name":"tex39-13",
			"uri":"../../../Textures/tex39-13.png"
		},
		{
			"mimeType":"image/png",
			"name":"tex40-52",
			"uri":"../../../Textures/tex40-52.png"
		},
		{
			"mimeType":"image/png",
			"name":"tex40-53",
			"uri":"../../../Textures/tex40-53.png"
		},
		{
			"mimeType":"image/png",
			"name":"tex40-54",
			"uri":"../../../Textures/tex40-54.png"
		},
		{
			"mimeType":"image/png",
			"name":"tex40-55",
			"uri":"../../../Textures/tex40-55.png"
		},
		{
			"mimeType":"image/png",
			"name":"building_6_ground.png",
			"uri":"../../../Textures/ambient_occlusion/Buildings/Abandoned/building_6_ground.png"
		}
	],
	"accessors":[
		{
			"bufferView":0,
			"componentType":5126,
			"count":4,
			"max":[
				-10.091022491455078,
				8.10886001586914,
				1.1444091796875e-05
			],
			"min":[
				-10.091033935546875,
				-9.910831451416016,
				-28.14449691772461
			],
			"type":"VEC3"
		},
		{
			"bufferView":1,
			"componentType":5126,
			"count":4,
			"type":"VEC3"
		},
		{
			"bufferView":2,
			"componentType":5126,
			"count":4,
			"type":"VEC2"
		},
		{
			"bufferView":3,
			"componentType":5126,
			"count":4,
			"type":"VEC2"
		},
		{
			"bufferView":4,
			"componentType":5123,
			"count":6,
			"type":"SCALAR"
		},
		{
			"bufferView":5,
			"componentType":5126,
			"count":4,
			"max":[
				-2.883148193359375,
				9.910835266113281,
				7.62939453125e-06
			],
			"min":[
				-2.8831520080566406,
				8.108856201171875,
				-28.144500732421875
			],
			"type":"VEC3"
		},
		{
			"bufferView":6,
			"componentType":5126,
			"count":4,
			"type":"VEC3"
		},
		{
			"bufferView":7,
			"componentType":5126,
			"count":4,
			"type":"VEC2"
		},
		{
			"bufferView":8,
			"componentType":5126,
			"count":4,
			"type":"VEC2"
		},
		{
			"bufferView":9,
			"componentType":5123,
			"count":6,
			"type":"SCALAR"
		},
		{
			"bufferView":10,
			"componentType":5126,
			"count":4,
			"max":[
				2.8831520080566406,
				9.910835266113281,
				7.62939453125e-06
			],
			"min":[
				2.883148193359375,
				8.108856201171875,
				-28.144500732421875
			],
			"type":"VEC3"
		},
		{
			"bufferView":11,
			"componentType":5126,
			"count":4,
			"type":"VEC3"
		},
		{
			"bufferView":12,
			"componentType":5126,
			"count":4,
			"type":"VEC2"
		},
		{
			"bufferView":13,
			"componentType":5126,
			"count":4,
			"type":"VEC2"
		},
		{
			"bufferView":14,
			"componentType":5126,
			"count":4,
			"max":[
				10.091033935546875,
				8.10886001586914,
				7.62939453125e-06
			],
			"min":[
				10.091022491455078,
				-9.910835266113281,
				-28.144500732421875
			],
			"type":"VEC3"
		},
		{
			"bufferView":15,
			"componentType":5126,
			"count":4,
			"type":"VEC3"
		},
		{
			"bufferView":16,
			"componentType":5126,
			"count":4,
			"type":"VEC2"
		},
		{
			"bufferView":17,
			"componentType":5126,
			"count":4,
			"type":"VEC2"
		},
		{
			"bufferView":18,
			"componentType":5123,
			"count":6,
			"type":"SCALAR"
		},
		{
			"bufferView":19,
			"componentType":5126,
			"count":4,
			"max":[
				10.091026306152344,
				-9.910831451416016,
				1.1444091796875e-05
			],
			"min":[
				-10.091033935546875,
				-9.910835266113281,
				-28.14449691772461
			],
			"type":"VEC3"
		},
		{
			"bufferView":20,
			"componentType":5126,
			"count":4,
			"type":"VEC3"
		},
		{
			"bufferView":21,
			"componentType":5126,
			"count":4,
			"type":"VEC2"
		},
		{
			"bufferView":22,
			"componentType":5126,
			"count":4,
			"type":"VEC2"
		},
		{
			"bufferView":23,
			"componentType":5123,
			"count":6,
			"type":"SCALAR"
		},
		{
			"bufferView":24,
			"componentType":5126,
			"count":8,
			"max":[
				10.091033935546875,
				8.10886001586914,
				7.62939453125e-06
			],
			"min":[
				-10.091026306152344,
				8.108856201171875,
				-28.144500732421875
			],
			"type":"VEC3"
		},
		{
			"bufferView":25,
			"componentType":5126,
			"count":8,
			"type":"VEC3"
		},
		{
			"bufferView":26,
			"componentType":5126,
			"count":8,
			"type":"VEC2"
		},
		{
			"bufferView":27,
			"componentType":5126,
			"count":8,
			"type":"VEC2"
		},
		{
			"bufferView":28,
			"componentType":5123,
			"count":12,
			"type":"SCALAR"
		},
		{
			"bufferView":29,
			"componentType":5126,
			"count":4,
			"max":[
				2.8831520080566406,
				9.910835266113281,
				7.62939453125e-06
			],
			"min":[
				-2.8831520080566406,
				9.91082763671875,
				-28.144493103027344
			],
			"type":"VEC3"
		},
		{
			"bufferView":30,
			"componentType":5126,
			"count":4,
			"type":"VEC3"
		},
		{
			"bufferView":31,
			"componentType":5126,
			"count":4,
			"type":"VEC2"
		},
		{
			"bufferView":32,
			"componentType":5126,
			"count":4,
			"type":"VEC2"
		},
		{
			"bufferView":33,
			"componentType":5123,
			"count":6,
			"type":"SCALAR"
		},
		{
			"bufferView":34,
			"componentType":5126,
			"count":12,
			"max":[
				9.054176330566406,
				9.167526245117188,
				-27.69400405883789
			],
			"min":[
				-9.05417251586914,
				7.500698089599609,
				-28.144500732421875
			],
			"type":"VEC3"
		},
		{
			"bufferView":35,
			"componentType":5126,
			"count":12,
			"type":"VEC3"
		},
		{
			"bufferView":36,
			"componentType":5126,
			"count":12,
			"type":"VEC2"
		},
		{
			"bufferView":37,
			"componentType":5126,
			"count":12,
			"type":"VEC2"
		},
		{
			"bufferView":38,
			"componentType":5123,
			"count":18,
			"type":"SCALAR"
		},
		{
			"bufferView":39,
			"componentType":5126,
			"count":4,
			"max":[
				9.054168701171875,
				-9.167518615722656,
				-27.69400405883789
			],
			"min":[
				-9.054180145263672,
				-9.167518615722656,
				-28.14449691772461
			],
			"type":"VEC3"
		},
		{
			"bufferView":40,
			"componentType":5126,
			"count":4,
			"type":"VEC3"
		},
		{
			"bufferView":41,
			"componentType":5126,
			"count":4,
			"type":"VEC2"
		},
		{
			"bufferView":42,
			"componentType":5126,
			"count":4,
			"type":"VEC2"
		},
		{
			"bufferView":43,
			"componentType":5126,
			"count":4,
			"max":[
				9.054176330566406,
				7.500701904296875,
				-27.694007873535156
			],
			"min":[
				9.054168701171875,
				-9.167518615722656,
				-28.144500732421875
			],
			"type":"VEC3"
		},
		{
			"bufferView":44,
			"componentType":5126,
			"count":4,
			"type":"VEC3"
		},
		{
			"bufferView":45,
			"componentType":5126,
			"count":4,
			"type":"VEC2"
		},
		{
			"bufferView":46,
			"componentType":5126,
			"count":4,
			"type":"VEC2"
		},
		{
			"bufferView":47,
			"componentType":5123,
			"count":6,
			"type":"SCALAR"
		},
		{
			"bufferView":48,
			"componentType":5126,
			"count":35,
			"max":[
				10.091022491455078,
				9.910835266113281,
				-27.69400405883789
			],
			"min":[
				-10.091033935546875,
				-9.910831451416016,
				-28.144500732421875
			],
			"type":"VEC3"
		},
		{
			"bufferView":49,
			"componentType":5126,
			"count":35,
			"type":"VEC3"
		},
		{
			"bufferView":50,
			"componentType":5126,
			"count":35,
			"type":"VEC2"
		},
		{
			"bufferView":51,
			"componentType":5126,
			"count":35,
			"type":"VEC2"
		},
		{
			"bufferView":52,
			"componentType":5123,
			"count":78,
			"type":"SCALAR"
		},
		{
			"bufferView":53,
			"componentType":5126,
			"count":4,
			"max":[
				-9.05417251586914,
				7.500701904296875,
				-27.69400405883789
			],
			"min":[
				-9.054180145263672,
				-9.167518615722656,
				-28.14449691772461
			],
			"type":"VEC3"
		},
		{
			"bufferView":54,
			"componentType":5126,
			"count":4,
			"type":"VEC3"
		},
		{
			"bufferView":55,
			"componentType":5126,
			"count":4,
			"type":"VEC2"
		},
		{
			"bufferView":56,
			"componentType":5126,
			"count":4,
			"type":"VEC2"
		},
		{
			"bufferView":57,
			"componentType":5123,
			"count":6,
			"type":"SCALAR"
		},
		{
			"bufferView":58,
			"componentType":5126,
			"count":4,
			"max":[
				0.5,
				0,
				0.5
			],
			"min":[
				-0.5,
				0,
				-0.5
			],
			"type":"VEC3"
		},
		{
			"bufferView":59,
			"componentType":5126,
			"count":4,
			"type":"VEC3"
		},
		{
			"bufferView":60,
			"componentType":5126,
			"count":4,
			"type":"VEC2"
		},
		{
			"bufferView":61,
			"componentType":5123,
			"count":6,
			"type":"SCALAR"
		}
	],
	"bufferViews":[
		{
			"buffer":0,
			"byteLength":48,
			"byteOffset":0,
			"target":34962
		},
		{
			"buffer":0,
			"byteLength":48,
			"byteOffset":48,
			"target":34962
		},
		{
			"buffer":0,
			"byteLength":32,
			"byteOffset":96,
			"target":34962
		},
		{
			"buffer":0,
			"byteLength":32,
			"byteOffset":128,
			"target":34962
		},
		{
			"buffer":0,
			"byteLength":12,
			"byteOffset":160,
			"target":34963
		},
		{
			"buffer":0,
			"byteLength":48,
			"byteOffset":172,
			"target":34962
		},
		{
			"buffer":0,
			"byteLength":48,
			"byteOffset":220,
			"target":34962
		},
		{
			"buffer":0,
			"byteLength":32,
			"byteOffset":268,
			"target":34962
		},
		{
			"buffer":0,
			"byteLength":32,
			"byteOffset":300,
			"target":34962
		},
		{
			"buffer":0,
			"byteLength":12,
			"byteOffset":332,
			"target":34963
		},
		{
			"buffer":0,
			"byteLength":48,
			"byteOffset":344,
			"target":34962
		},
		{
			"buffer":0,
			"byteLength":48,
			"byteOffset":392,
			"target":34962
		},
		{
			"buffer":0,
			"byteLength":32,
			"byteOffset":440,
			"target":34962
		},
		{
			"buffer":0,
			"byteLength":32,
			"byteOffset":472,
			"target":34962
		},
		{
			"buffer":0,
			"byteLength":48,
			"byteOffset":504,
			"target":34962
		},
		{
			"buffer":0,
			"byteLength":48,
			"byteOffset":552,
			"target":34962
		},
		{
			"buffer":0,
			"byteLength":32,
			"byteOffset":600,
			"target":34962
		},
		{
			"buffer":0,
			"byteLength":32,
			"byteOffset":632,
			"target":34962
		},
		{
			"buffer":0,
			"byteLength":12,
			"byteOffset":664,
			"target":34963
		},
		{
			"buffer":0,
			"byteLength":48,
			"byteOffset":676,
			"target":34962
		},
		{
			"buffer":0,
			"byteLength":48,
			"byteOffset":724,
			"target":34962
		},
		{
			"buffer":0,
			"byteLength":32,
			"byteOffset":772,
			"target":34962
		},
		{
			"buffer":0,
			"byteLength":32,
			"byteOffset":804,
			"target":34962
		},
		{
			"buffer":0,
			"byteLength":12,
			"byteOffset":836,
			"target":34963
		},
		{
			"buffer":0,
			"byteLength":96,
			"byteOffset":848,
			"target":34962
		},
		{
			"buffer":0,
			"byteLength":96,
			"byteOffset":944,
			"target":34962
		},
		{
			"buffer":0,
			"byteLength":64,
			"byteOffset":1040,
			"target":34962
		},
		{
			"buffer":0,
			"byteLength":64,
			"byteOffset":1104,
			"target":34962
		},
		{
			"buffer":0,
			"byteLength":24,
			"byteOffset":1168,
			"target":34963
		},
		{
			"buffer":0,
			"byteLength":48,
			"byteOffset":1192,
			"target":34962
		},
		{
			"buffer":0,
			"byteLength":48,
			"byteOffset":1240,
			"target":34962
		},
		{
			"buffer":0,
			"byteLength":32,
			"byteOffset":1288,
			"target":34962
		},
		{
			"buffer":0,
			"byteLength":32,
			"byteOffset":1320,
			"target":34962
		},
		{
			"buffer":0,
			"byteLength":12,
			"byteOffset":1352,
			"target":34963
		},
		{
			"buffer":0,
			"byteLength":144,
			"byteOffset":1364,
			"target":34962
		},
		{
			"buffer":0,
			"byteLength":144,
			"byteOffset":1508,
			"target":34962
		},
		{
			"buffer":0,
			"byteLength":96,
			"byteOffset":1652,
			"target":34962
		},
		{
			"buffer":0,
			"byteLength":96,
			"byteOffset":1748,
			"target":34962
		},
		{
			"buffer":0,
			"byteLength":36,
			"byteOffset":1844,
			"target":34963
		},
		{
			"buffer":0,
			"byteLength":48,
			"byteOffset":1880,
			"target":34962
		},
		{
			"buffer":0,
			"byteLength":48,
			"byteOffset":1928,
			"target":34962
		},
		{
			"buffer":0,
			"byteLength":32,
			"byteOffset":1976,
			"target":34962
		},
		{
			"buffer":0,
			"byteLength":32,
			"byteOffset":2008,
			"target":34962
		},
		{
			"buffer":0,
			"byteLength":48,
			"byteOffset":2040,
			"target":34962
		},
		{
			"buffer":0,
			"byteLength":48,
			"byteOffset":2088,
			"target":34962
		},
		{
			"buffer":0,
			"byteLength":32,
			"byteOffset":2136,
			"target":34962
		},
		{
			"buffer":0,
			"byteLength":32,
			"byteOffset":2168,
			"target":34962
		},
		{
			"buffer":0,
			"byteLength":12,
			"byteOffset":2200,
			"target":34963
		},
		{
			"buffer":0,
			"byteLength":420,
			"byteOffset":2212,
			"target":34962
		},
		{
			"buffer":0,
			"byteLength":420,
			"byteOffset":2632,
			"target":34962
		},
		{
			"buffer":0,
			"byteLength":280,
			"byteOffset":3052,
			"target":34962
		},
		{
			"buffer":0,
			"byteLength":280,
			"byteOffset":3332,
			"target":34962
		},
		{
			"buffer":0,
			"byteLength":156,
			"byteOffset":3612,
			"target":34963
		},
		{
			"buffer":0,
			"byteLength":48,
			"byteOffset":3768,
			"target":34962
		},
		{
			"buffer":0,
			"byteLength":48,
			"byteOffset":3816,
			"target":34962
		},
		{
			"buffer":0,
			"byteLength":32,
			"byteOffset":3864,
			"target":34962
		},
		{
			"buffer":0,
			"byteLength":32,
			"byteOffset":3896,
			"target":34962
		},
		{
			"buffer":0,
			"byteLength":12,
			"byteOffset":3928,
			"target":34963
		},
		{
			"buffer":0,
			"byteLength":48,
			"byteOffset":3940,
			"target":34962
		},
		{
			"buffer":0,
			"byteLength":48,
			"byteOffset":3988,
			"target":34962
		},
		{
			"buffer":0,
			"byteLength":32,
			"byteOffset":4036,
			"target":34962
		},
		{
			"buffer":0,
			"byteLength":12,
			"byteOffset":4068,
			"target":34963
		}
	],
	"samplers":[
		{
			"magFilter":9729,
			"minFilter":9987
		}
	],
	"buffers":[
		{
			"byteLength":4080,
			"uri":"building_6.bin"
		}
	]
}
