{
	"asset":{
		"generator":"Khronos glTF Blender I/O v4.3.47",
		"version":"2.0"
	},
	"scene":0,
	"scenes":[
		{
			"name":"Scene",
			"nodes":[
				0,
				1
			]
		}
	],
	"nodes":[
		{
			"mesh":0,
			"name":"Maxis-3d1-mesh-8-abnFactory",
			"rotation":[
				0.70710688829422,
				0,
				0,
				0.7071066498756409
			]
		},
		{
			"extras":{
				"gd_node":"Decal",
				"lower_fade":9,
				"upper_fade":10
			},
			"mesh":1,
			"name":"Ground_AO",
			"scale":[
				25.87079620361328,
				1,
				25.870803833007812
			],
			"translation":[
				0,
				-5.485503606905695e-06,
				0
			]
		}
	],
	"materials":[
		{
			"name":"mat40-46",
			"occlusionTexture":{
				"index":0,
				"texCoord":1
			},
			"pbrMetallicRoughness":{
				"baseColorTexture":{
					"index":1
				},
				"metallicFactor":0
			}
		},
		{
			"name":"mat40-45.001",
			"occlusionTexture":{
				"index":2,
				"texCoord":1
			},
			"pbrMetallicRoughness":{
				"baseColorTexture":{
					"index":3
				},
				"metallicFactor":0
			}
		},
		{
			"name":"mat40-47",
			"occlusionTexture":{
				"index":4,
				"texCoord":1
			},
			"pbrMetallicRoughness":{
				"baseColorTexture":{
					"index":5
				},
				"metallicFactor":0
			}
		},
		{
			"name":"mat40-44",
			"occlusionTexture":{
				"index":6,
				"texCoord":1
			},
			"pbrMetallicRoughness":{
				"baseColorTexture":{
					"index":7
				},
				"metallicFactor":0
			}
		},
		{
			"name":"matcolour-128.001",
			"occlusionTexture":{
				"index":8,
				"texCoord":1
			},
			"pbrMetallicRoughness":{
				"baseColorFactor":[
					0.12156862765550613,
					0.08235294371843338,
					0.062745101749897,
					1
				],
				"metallicFactor":0
			}
		},
		{
			"name":"mat40-53.001",
			"occlusionTexture":{
				"index":9,
				"texCoord":1
			},
			"pbrMetallicRoughness":{
				"baseColorTexture":{
					"index":10
				},
				"metallicFactor":0
			}
		},
		{
			"name":"mat40-54.001",
			"occlusionTexture":{
				"index":11,
				"texCoord":1
			},
			"pbrMetallicRoughness":{
				"baseColorTexture":{
					"index":12
				},
				"metallicFactor":0
			}
		},
		{
			"name":"mat40-52.001",
			"occlusionTexture":{
				"index":13,
				"texCoord":1
			},
			"pbrMetallicRoughness":{
				"baseColorTexture":{
					"index":14
				},
				"metallicFactor":0
			}
		},
		{
			"name":"mat40-55.001",
			"occlusionTexture":{
				"index":15,
				"texCoord":1
			},
			"pbrMetallicRoughness":{
				"baseColorTexture":{
					"index":16
				},
				"metallicFactor":0
			}
		},
		{
			"name":"matcolour-208",
			"occlusionTexture":{
				"index":17,
				"texCoord":1
			},
			"pbrMetallicRoughness":{
				"baseColorFactor":[
					0.49803921580314636,
					0.29019609093666077,
					0.03921568766236305,
					1
				],
				"metallicFactor":0
			}
		},
		{
			"name":"matcolour-48.001",
			"occlusionTexture":{
				"index":18,
				"texCoord":1
			},
			"pbrMetallicRoughness":{
				"baseColorFactor":[
					0.05882352963089943,
					0.05882352963089943,
					0.05882352963089943,
					1
				],
				"metallicFactor":0
			}
		},
		{
			"name":"matcolour-0",
			"occlusionTexture":{
				"index":19,
				"texCoord":1
			},
			"pbrMetallicRoughness":{
				"baseColorFactor":[
					0,
					0,
					0,
					1
				],
				"metallicFactor":0
			}
		},
		{
			"name":"Ground_AO",
			"occlusionTexture":{
				"index":20
			},
			"pbrMetallicRoughness":{
				"baseColorFactor":[
					0.800000011920929,
					0.800000011920929,
					0.800000011920929,
					1
				],
				"metallicFactor":0,
				"roughnessFactor":0.5
			}
		}
	],
	"meshes":[
		{
			"name":"Maxis-3d1-mesh-8-abnFactory",
			"primitives":[
				{
					"attributes":{
						"POSITION":0,
						"NORMAL":1,
						"TEXCOORD_0":2,
						"TEXCOORD_1":3
					},
					"indices":4,
					"material":0
				},
				{
					"attributes":{
						"POSITION":5,
						"NORMAL":6,
						"TEXCOORD_0":7,
						"TEXCOORD_1":8
					},
					"indices":9,
					"material":1
				},
				{
					"attributes":{
						"POSITION":10,
						"NORMAL":11,
						"TEXCOORD_0":12,
						"TEXCOORD_1":13
					},
					"indices":14,
					"material":2
				},
				{
					"attributes":{
						"POSITION":15,
						"NORMAL":16,
						"TEXCOORD_0":17,
						"TEXCOORD_1":18
					},
					"indices":19,
					"material":3
				},
				{
					"attributes":{
						"POSITION":20,
						"NORMAL":21,
						"TEXCOORD_0":22,
						"TEXCOORD_1":23
					},
					"indices":24,
					"material":4
				},
				{
					"attributes":{
						"POSITION":25,
						"NORMAL":26,
						"TEXCOORD_0":27,
						"TEXCOORD_1":28
					},
					"indices":29,
					"material":5
				},
				{
					"attributes":{
						"POSITION":30,
						"NORMAL":31,
						"TEXCOORD_0":32,
						"TEXCOORD_1":33
					},
					"indices":34,
					"material":6
				},
				{
					"attributes":{
						"POSITION":35,
						"NORMAL":36,
						"TEXCOORD_0":37,
						"TEXCOORD_1":38
					},
					"indices":39,
					"material":7
				},
				{
					"attributes":{
						"POSITION":40,
						"NORMAL":41,
						"TEXCOORD_0":42,
						"TEXCOORD_1":43
					},
					"indices":44,
					"material":8
				},
				{
					"attributes":{
						"POSITION":45,
						"NORMAL":46,
						"TEXCOORD_0":47,
						"TEXCOORD_1":48
					},
					"indices":49,
					"material":9
				},
				{
					"attributes":{
						"POSITION":50,
						"NORMAL":51,
						"TEXCOORD_0":52,
						"TEXCOORD_1":53
					},
					"indices":54,
					"material":10
				},
				{
					"attributes":{
						"POSITION":55,
						"NORMAL":56,
						"TEXCOORD_0":57,
						"TEXCOORD_1":58
					},
					"indices":59,
					"material":11
				}
			]
		},
		{
			"name":"Plane",
			"primitives":[
				{
					"attributes":{
						"POSITION":60,
						"NORMAL":61,
						"TEXCOORD_0":62
					},
					"indices":63,
					"material":12
				}
			]
		}
	],
	"textures":[
		{
			"sampler":0,
			"source":0
		},
		{
			"sampler":0,
			"source":1
		},
		{
			"sampler":0,
			"source":0
		},
		{
			"sampler":0,
			"source":2
		},
		{
			"sampler":0,
			"source":0
		},
		{
			"sampler":0,
			"source":3
		},
		{
			"sampler":0,
			"source":0
		},
		{
			"sampler":0,
			"source":4
		},
		{
			"sampler":0,
			"source":0
		},
		{
			"sampler":0,
			"source":0
		},
		{
			"sampler":0,
			"source":5
		},
		{
			"sampler":0,
			"source":0
		},
		{
			"sampler":0,
			"source":6
		},
		{
			"sampler":0,
			"source":0
		},
		{
			"sampler":0,
			"source":7
		},
		{
			"sampler":0,
			"source":0
		},
		{
			"sampler":0,
			"source":8
		},
		{
			"sampler":0,
			"source":0
		},
		{
			"sampler":0,
			"source":0
		},
		{
			"sampler":0,
			"source":0
		},
		{
			"sampler":0,
			"source":9
		}
	],
	"images":[
		{
			"mimeType":"image/png",
			"name":"building_3.png",
			"uri":"../../../Textures/ambient_occlusion/Buildings/Abandoned/building_3.png"
		},
		{
			"mimeType":"image/png",
			"name":"tex40-46",
			"uri":"../../../Textures/tex40-46.png"
		},
		{
			"mimeType":"image/png",
			"name":"tex40-45",
			"uri":"../../../Textures/tex40-45.png"
		},
		{
			"mimeType":"image/png",
			"name":"tex40-47",
			"uri":"../../../Textures/tex40-47.png"
		},
		{
			"mimeType":"image/png",
			"name":"tex40-44",
			"uri":"../../../Textures/tex40-44.png"
		},
		{
			"mimeType":"image/png",
			"name":"tex40-53",
			"uri":"../../../Textures/tex40-53.png"
		},
		{
			"mimeType":"image/png",
			"name":"tex40-54",
			"uri":"../../../Textures/tex40-54.png"
		},
		{
			"mimeType":"image/png",
			"name":"tex40-52",
			"uri":"../../../Textures/tex40-52.png"
		},
		{
			"mimeType":"image/png",
			"name":"tex40-55",
			"uri":"../../../Textures/tex40-55.png"
		},
		{
			"mimeType":"image/png",
			"name":"building_3_ground.png",
			"uri":"../../../Textures/ambient_occlusion/Buildings/Abandoned/building_3_ground.png"
		}
	],
	"accessors":[
		{
			"bufferView":0,
			"componentType":5126,
			"count":4,
			"max":[
				12.43539810180664,
				12.435401916503906,
				3.814697265625e-06
			],
			"min":[
				12.43539810180664,
				-12.435401916503906,
				-14.15713119506836
			],
			"type":"VEC3"
		},
		{
			"bufferView":1,
			"componentType":5126,
			"count":4,
			"type":"VEC3"
		},
		{
			"bufferView":2,
			"componentType":5126,
			"count":4,
			"type":"VEC2"
		},
		{
			"bufferView":3,
			"componentType":5126,
			"count":4,
			"type":"VEC2"
		},
		{
			"bufferView":4,
			"componentType":5123,
			"count":6,
			"type":"SCALAR"
		},
		{
			"bufferView":5,
			"componentType":5126,
			"count":4,
			"max":[
				-12.43539810180664,
				12.435401916503906,
				3.814697265625e-06
			],
			"min":[
				-12.43539810180664,
				-12.435401916503906,
				-14.15713119506836
			],
			"type":"VEC3"
		},
		{
			"bufferView":6,
			"componentType":5126,
			"count":4,
			"type":"VEC3"
		},
		{
			"bufferView":7,
			"componentType":5126,
			"count":4,
			"type":"VEC2"
		},
		{
			"bufferView":8,
			"componentType":5126,
			"count":4,
			"type":"VEC2"
		},
		{
			"bufferView":9,
			"componentType":5123,
			"count":6,
			"type":"SCALAR"
		},
		{
			"bufferView":10,
			"componentType":5126,
			"count":4,
			"max":[
				12.43539810180664,
				12.435401916503906,
				-3.814697265625e-06
			],
			"min":[
				-12.43539810180664,
				12.43539810180664,
				-14.15713119506836
			],
			"type":"VEC3"
		},
		{
			"bufferView":11,
			"componentType":5126,
			"count":4,
			"type":"VEC3"
		},
		{
			"bufferView":12,
			"componentType":5126,
			"count":4,
			"type":"VEC2"
		},
		{
			"bufferView":13,
			"componentType":5126,
			"count":4,
			"type":"VEC2"
		},
		{
			"bufferView":14,
			"componentType":5123,
			"count":6,
			"type":"SCALAR"
		},
		{
			"bufferView":15,
			"componentType":5126,
			"count":4,
			"max":[
				12.43539810180664,
				-12.43539810180664,
				3.814697265625e-06
			],
			"min":[
				-12.43539810180664,
				-12.435401916503906,
				-14.157115936279297
			],
			"type":"VEC3"
		},
		{
			"bufferView":16,
			"componentType":5126,
			"count":4,
			"type":"VEC3"
		},
		{
			"bufferView":17,
			"componentType":5126,
			"count":4,
			"type":"VEC2"
		},
		{
			"bufferView":18,
			"componentType":5126,
			"count":4,
			"type":"VEC2"
		},
		{
			"bufferView":19,
			"componentType":5123,
			"count":6,
			"type":"SCALAR"
		},
		{
			"bufferView":20,
			"componentType":5126,
			"count":66,
			"max":[
				12.43539810180664,
				12.43539810180664,
				-13.299503326416016
			],
			"min":[
				-12.43539810180664,
				-12.435401916503906,
				-14.15713119506836
			],
			"type":"VEC3"
		},
		{
			"bufferView":21,
			"componentType":5126,
			"count":66,
			"type":"VEC3"
		},
		{
			"bufferView":22,
			"componentType":5126,
			"count":66,
			"type":"VEC2"
		},
		{
			"bufferView":23,
			"componentType":5126,
			"count":66,
			"type":"VEC2"
		},
		{
			"bufferView":24,
			"componentType":5123,
			"count":102,
			"type":"SCALAR"
		},
		{
			"bufferView":25,
			"componentType":5126,
			"count":4,
			"max":[
				10.94314956665039,
				10.94314956665039,
				-13.299503326416016
			],
			"min":[
				10.94314956665039,
				-10.943153381347656,
				-14.15713119506836
			],
			"type":"VEC3"
		},
		{
			"bufferView":26,
			"componentType":5126,
			"count":4,
			"type":"VEC3"
		},
		{
			"bufferView":27,
			"componentType":5126,
			"count":4,
			"type":"VEC2"
		},
		{
			"bufferView":28,
			"componentType":5126,
			"count":4,
			"type":"VEC2"
		},
		{
			"bufferView":29,
			"componentType":5123,
			"count":6,
			"type":"SCALAR"
		},
		{
			"bufferView":30,
			"componentType":5126,
			"count":4,
			"max":[
				-10.94314956665039,
				10.94314956665039,
				-13.299503326416016
			],
			"min":[
				-10.94314956665039,
				-10.943153381347656,
				-14.15713119506836
			],
			"type":"VEC3"
		},
		{
			"bufferView":31,
			"componentType":5126,
			"count":4,
			"type":"VEC3"
		},
		{
			"bufferView":32,
			"componentType":5126,
			"count":4,
			"type":"VEC2"
		},
		{
			"bufferView":33,
			"componentType":5126,
			"count":4,
			"type":"VEC2"
		},
		{
			"bufferView":34,
			"componentType":5123,
			"count":6,
			"type":"SCALAR"
		},
		{
			"bufferView":35,
			"componentType":5126,
			"count":4,
			"max":[
				10.94314956665039,
				10.94314956665039,
				-13.299510955810547
			],
			"min":[
				-10.94314956665039,
				10.94314956665039,
				-14.15713119506836
			],
			"type":"VEC3"
		},
		{
			"bufferView":36,
			"componentType":5126,
			"count":4,
			"type":"VEC3"
		},
		{
			"bufferView":37,
			"componentType":5126,
			"count":4,
			"type":"VEC2"
		},
		{
			"bufferView":38,
			"componentType":5126,
			"count":4,
			"type":"VEC2"
		},
		{
			"bufferView":39,
			"componentType":5123,
			"count":6,
			"type":"SCALAR"
		},
		{
			"bufferView":40,
			"componentType":5126,
			"count":4,
			"max":[
				10.94314956665039,
				-10.943153381347656,
				-13.299503326416016
			],
			"min":[
				-10.94314956665039,
				-10.943153381347656,
				-14.157115936279297
			],
			"type":"VEC3"
		},
		{
			"bufferView":41,
			"componentType":5126,
			"count":4,
			"type":"VEC3"
		},
		{
			"bufferView":42,
			"componentType":5126,
			"count":4,
			"type":"VEC2"
		},
		{
			"bufferView":43,
			"componentType":5126,
			"count":4,
			"type":"VEC2"
		},
		{
			"bufferView":44,
			"componentType":5123,
			"count":6,
			"type":"SCALAR"
		},
		{
			"bufferView":45,
			"componentType":5126,
			"count":16,
			"max":[
				6.785991668701172,
				4.7340240478515625,
				-13.299507141113281
			],
			"min":[
				-4.848609924316406,
				-5.641792297363281,
				-13.299510955810547
			],
			"type":"VEC3"
		},
		{
			"bufferView":46,
			"componentType":5126,
			"count":16,
			"type":"VEC3"
		},
		{
			"bufferView":47,
			"componentType":5126,
			"count":16,
			"type":"VEC2"
		},
		{
			"bufferView":48,
			"componentType":5126,
			"count":16,
			"type":"VEC2"
		},
		{
			"bufferView":49,
			"componentType":5123,
			"count":24,
			"type":"SCALAR"
		},
		{
			"bufferView":50,
			"componentType":5126,
			"count":168,
			"max":[
				7.390254974365234,
				9.007747650146484,
				-13.122184753417969
			],
			"min":[
				-5.667388916015625,
				-7.388118743896484,
				-15.134151458740234
			],
			"type":"VEC3"
		},
		{
			"bufferView":51,
			"componentType":5126,
			"count":168,
			"type":"VEC3"
		},
		{
			"bufferView":52,
			"componentType":5126,
			"count":168,
			"type":"VEC2"
		},
		{
			"bufferView":53,
			"componentType":5126,
			"count":168,
			"type":"VEC2"
		},
		{
			"bufferView":54,
			"componentType":5123,
			"count":252,
			"type":"SCALAR"
		},
		{
			"bufferView":55,
			"componentType":5126,
			"count":60,
			"max":[
				7.390254974365234,
				9.007747650146484,
				-13.122184753417969
			],
			"min":[
				-5.667388916015625,
				-7.388118743896484,
				-15.134151458740234
			],
			"type":"VEC3"
		},
		{
			"bufferView":56,
			"componentType":5126,
			"count":60,
			"type":"VEC3"
		},
		{
			"bufferView":57,
			"componentType":5126,
			"count":60,
			"type":"VEC2"
		},
		{
			"bufferView":58,
			"componentType":5126,
			"count":60,
			"type":"VEC2"
		},
		{
			"bufferView":59,
			"componentType":5123,
			"count":120,
			"type":"SCALAR"
		},
		{
			"bufferView":60,
			"componentType":5126,
			"count":4,
			"max":[
				0.5,
				0,
				0.5
			],
			"min":[
				-0.5,
				0,
				-0.5
			],
			"type":"VEC3"
		},
		{
			"bufferView":61,
			"componentType":5126,
			"count":4,
			"type":"VEC3"
		},
		{
			"bufferView":62,
			"componentType":5126,
			"count":4,
			"type":"VEC2"
		},
		{
			"bufferView":63,
			"componentType":5123,
			"count":6,
			"type":"SCALAR"
		}
	],
	"bufferViews":[
		{
			"buffer":0,
			"byteLength":48,
			"byteOffset":0,
			"target":34962
		},
		{
			"buffer":0,
			"byteLength":48,
			"byteOffset":48,
			"target":34962
		},
		{
			"buffer":0,
			"byteLength":32,
			"byteOffset":96,
			"target":34962
		},
		{
			"buffer":0,
			"byteLength":32,
			"byteOffset":128,
			"target":34962
		},
		{
			"buffer":0,
			"byteLength":12,
			"byteOffset":160,
			"target":34963
		},
		{
			"buffer":0,
			"byteLength":48,
			"byteOffset":172,
			"target":34962
		},
		{
			"buffer":0,
			"byteLength":48,
			"byteOffset":220,
			"target":34962
		},
		{
			"buffer":0,
			"byteLength":32,
			"byteOffset":268,
			"target":34962
		},
		{
			"buffer":0,
			"byteLength":32,
			"byteOffset":300,
			"target":34962
		},
		{
			"buffer":0,
			"byteLength":12,
			"byteOffset":332,
			"target":34963
		},
		{
			"buffer":0,
			"byteLength":48,
			"byteOffset":344,
			"target":34962
		},
		{
			"buffer":0,
			"byteLength":48,
			"byteOffset":392,
			"target":34962
		},
		{
			"buffer":0,
			"byteLength":32,
			"byteOffset":440,
			"target":34962
		},
		{
			"buffer":0,
			"byteLength":32,
			"byteOffset":472,
			"target":34962
		},
		{
			"buffer":0,
			"byteLength":12,
			"byteOffset":504,
			"target":34963
		},
		{
			"buffer":0,
			"byteLength":48,
			"byteOffset":516,
			"target":34962
		},
		{
			"buffer":0,
			"byteLength":48,
			"byteOffset":564,
			"target":34962
		},
		{
			"buffer":0,
			"byteLength":32,
			"byteOffset":612,
			"target":34962
		},
		{
			"buffer":0,
			"byteLength":32,
			"byteOffset":644,
			"target":34962
		},
		{
			"buffer":0,
			"byteLength":12,
			"byteOffset":676,
			"target":34963
		},
		{
			"buffer":0,
			"byteLength":792,
			"byteOffset":688,
			"target":34962
		},
		{
			"buffer":0,
			"byteLength":792,
			"byteOffset":1480,
			"target":34962
		},
		{
			"buffer":0,
			"byteLength":528,
			"byteOffset":2272,
			"target":34962
		},
		{
			"buffer":0,
			"byteLength":528,
			"byteOffset":2800,
			"target":34962
		},
		{
			"buffer":0,
			"byteLength":204,
			"byteOffset":3328,
			"target":34963
		},
		{
			"buffer":0,
			"byteLength":48,
			"byteOffset":3532,
			"target":34962
		},
		{
			"buffer":0,
			"byteLength":48,
			"byteOffset":3580,
			"target":34962
		},
		{
			"buffer":0,
			"byteLength":32,
			"byteOffset":3628,
			"target":34962
		},
		{
			"buffer":0,
			"byteLength":32,
			"byteOffset":3660,
			"target":34962
		},
		{
			"buffer":0,
			"byteLength":12,
			"byteOffset":3692,
			"target":34963
		},
		{
			"buffer":0,
			"byteLength":48,
			"byteOffset":3704,
			"target":34962
		},
		{
			"buffer":0,
			"byteLength":48,
			"byteOffset":3752,
			"target":34962
		},
		{
			"buffer":0,
			"byteLength":32,
			"byteOffset":3800,
			"target":34962
		},
		{
			"buffer":0,
			"byteLength":32,
			"byteOffset":3832,
			"target":34962
		},
		{
			"buffer":0,
			"byteLength":12,
			"byteOffset":3864,
			"target":34963
		},
		{
			"buffer":0,
			"byteLength":48,
			"byteOffset":3876,
			"target":34962
		},
		{
			"buffer":0,
			"byteLength":48,
			"byteOffset":3924,
			"target":34962
		},
		{
			"buffer":0,
			"byteLength":32,
			"byteOffset":3972,
			"target":34962
		},
		{
			"buffer":0,
			"byteLength":32,
			"byteOffset":4004,
			"target":34962
		},
		{
			"buffer":0,
			"byteLength":12,
			"byteOffset":4036,
			"target":34963
		},
		{
			"buffer":0,
			"byteLength":48,
			"byteOffset":4048,
			"target":34962
		},
		{
			"buffer":0,
			"byteLength":48,
			"byteOffset":4096,
			"target":34962
		},
		{
			"buffer":0,
			"byteLength":32,
			"byteOffset":4144,
			"target":34962
		},
		{
			"buffer":0,
			"byteLength":32,
			"byteOffset":4176,
			"target":34962
		},
		{
			"buffer":0,
			"byteLength":12,
			"byteOffset":4208,
			"target":34963
		},
		{
			"buffer":0,
			"byteLength":192,
			"byteOffset":4220,
			"target":34962
		},
		{
			"buffer":0,
			"byteLength":192,
			"byteOffset":4412,
			"target":34962
		},
		{
			"buffer":0,
			"byteLength":128,
			"byteOffset":4604,
			"target":34962
		},
		{
			"buffer":0,
			"byteLength":128,
			"byteOffset":4732,
			"target":34962
		},
		{
			"buffer":0,
			"byteLength":48,
			"byteOffset":4860,
			"target":34963
		},
		{
			"buffer":0,
			"byteLength":2016,
			"byteOffset":4908,
			"target":34962
		},
		{
			"buffer":0,
			"byteLength":2016,
			"byteOffset":6924,
			"target":34962
		},
		{
			"buffer":0,
			"byteLength":1344,
			"byteOffset":8940,
			"target":34962
		},
		{
			"buffer":0,
			"byteLength":1344,
			"byteOffset":10284,
			"target":34962
		},
		{
			"buffer":0,
			"byteLength":504,
			"byteOffset":11628,
			"target":34963
		},
		{
			"buffer":0,
			"byteLength":720,
			"byteOffset":12132,
			"target":34962
		},
		{
			"buffer":0,
			"byteLength":720,
			"byteOffset":12852,
			"target":34962
		},
		{
			"buffer":0,
			"byteLength":480,
			"byteOffset":13572,
			"target":34962
		},
		{
			"buffer":0,
			"byteLength":480,
			"byteOffset":14052,
			"target":34962
		},
		{
			"buffer":0,
			"byteLength":240,
			"byteOffset":14532,
			"target":34963
		},
		{
			"buffer":0,
			"byteLength":48,
			"byteOffset":14772,
			"target":34962
		},
		{
			"buffer":0,
			"byteLength":48,
			"byteOffset":14820,
			"target":34962
		},
		{
			"buffer":0,
			"byteLength":32,
			"byteOffset":14868,
			"target":34962
		},
		{
			"buffer":0,
			"byteLength":12,
			"byteOffset":14900,
			"target":34963
		}
	],
	"samplers":[
		{
			"magFilter":9729,
			"minFilter":9987
		}
	],
	"buffers":[
		{
			"byteLength":14912,
			"uri":"building_3.bin"
		}
	]
}
