{
	"asset":{
		"generator":"Khronos glTF Blender I/O v4.3.47",
		"version":"2.0"
	},
	"scene":0,
	"scenes":[
		{
			"name":"Scene",
			"nodes":[
				0,
				1
			]
		}
	],
	"nodes":[
		{
			"mesh":0,
			"name":"Maxis-3d1-mesh-9-abnd4story.001",
			"rotation":[
				0.70710688829422,
				0,
				0,
				0.7071066498756409
			]
		},
		{
			"extras":{
				"gd_node":"Decal",
				"lower_fade":9,
				"upper_fade":10
			},
			"mesh":1,
			"name":"Ground_AO",
			"scale":[
				18.166275024414062,
				1,
				18.496395111083984
			],
			"translation":[
				0,
				0,
				0.16506099700927734
			]
		}
	],
	"materials":[
		{
			"name":"matcolour-48.005",
			"occlusionTexture":{
				"index":0,
				"texCoord":1
			},
			"pbrMetallicRoughness":{
				"baseColorFactor":[
					0.05882352963089943,
					0.05882352963089943,
					0.05882352963089943,
					1
				],
				"metallicFactor":0
			}
		},
		{
			"name":"mat39-5.001",
			"occlusionTexture":{
				"index":1,
				"texCoord":1
			},
			"pbrMetallicRoughness":{
				"baseColorTexture":{
					"index":2
				},
				"metallicFactor":0
			}
		},
		{
			"name":"mat39-6.001",
			"occlusionTexture":{
				"index":3,
				"texCoord":1
			},
			"pbrMetallicRoughness":{
				"baseColorTexture":{
					"index":4
				},
				"metallicFactor":0
			}
		},
		{
			"name":"mat39-4.001",
			"occlusionTexture":{
				"index":5,
				"texCoord":1
			},
			"pbrMetallicRoughness":{
				"baseColorTexture":{
					"index":6
				},
				"metallicFactor":0
			}
		},
		{
			"name":"mat39-7.001",
			"occlusionTexture":{
				"index":7,
				"texCoord":1
			},
			"pbrMetallicRoughness":{
				"baseColorTexture":{
					"index":8
				},
				"metallicFactor":0
			}
		},
		{
			"name":"mat39-56.001",
			"occlusionTexture":{
				"index":9,
				"texCoord":1
			},
			"pbrMetallicRoughness":{
				"baseColorTexture":{
					"index":10
				},
				"metallicFactor":0
			}
		},
		{
			"name":"mat39-59.001",
			"occlusionTexture":{
				"index":11,
				"texCoord":1
			},
			"pbrMetallicRoughness":{
				"baseColorTexture":{
					"index":12
				},
				"metallicFactor":0
			}
		},
		{
			"name":"mat39-57.002",
			"occlusionTexture":{
				"index":13,
				"texCoord":1
			},
			"pbrMetallicRoughness":{
				"baseColorTexture":{
					"index":14
				},
				"metallicFactor":0
			}
		},
		{
			"name":"mat39-58.002",
			"occlusionTexture":{
				"index":15,
				"texCoord":1
			},
			"pbrMetallicRoughness":{
				"baseColorTexture":{
					"index":16
				},
				"metallicFactor":0
			}
		},
		{
			"name":"Ground_AO",
			"occlusionTexture":{
				"index":17
			},
			"pbrMetallicRoughness":{
				"baseColorFactor":[
					0.800000011920929,
					0.800000011920929,
					0.800000011920929,
					1
				],
				"metallicFactor":0,
				"roughnessFactor":0.5
			}
		}
	],
	"meshes":[
		{
			"name":"Maxis-3d1-mesh-9-abnd4story.001",
			"primitives":[
				{
					"attributes":{
						"POSITION":0,
						"NORMAL":1,
						"TEXCOORD_0":2,
						"TEXCOORD_1":3
					},
					"indices":4,
					"material":0
				},
				{
					"attributes":{
						"POSITION":5,
						"NORMAL":6,
						"TEXCOORD_0":7,
						"TEXCOORD_1":8
					},
					"indices":9,
					"material":1
				},
				{
					"attributes":{
						"POSITION":10,
						"NORMAL":11,
						"TEXCOORD_0":12,
						"TEXCOORD_1":13
					},
					"indices":14,
					"material":2
				},
				{
					"attributes":{
						"POSITION":15,
						"NORMAL":16,
						"TEXCOORD_0":17,
						"TEXCOORD_1":18
					},
					"indices":19,
					"material":3
				},
				{
					"attributes":{
						"POSITION":20,
						"NORMAL":21,
						"TEXCOORD_0":22,
						"TEXCOORD_1":23
					},
					"indices":24,
					"material":4
				},
				{
					"attributes":{
						"POSITION":25,
						"NORMAL":26,
						"TEXCOORD_0":27,
						"TEXCOORD_1":28
					},
					"indices":29,
					"material":5
				},
				{
					"attributes":{
						"POSITION":30,
						"NORMAL":31,
						"TEXCOORD_0":32,
						"TEXCOORD_1":33
					},
					"indices":34,
					"material":6
				},
				{
					"attributes":{
						"POSITION":35,
						"NORMAL":36,
						"TEXCOORD_0":37,
						"TEXCOORD_1":38
					},
					"indices":39,
					"material":7
				},
				{
					"attributes":{
						"POSITION":40,
						"NORMAL":41,
						"TEXCOORD_0":42,
						"TEXCOORD_1":43
					},
					"indices":44,
					"material":8
				}
			]
		},
		{
			"name":"Plane",
			"primitives":[
				{
					"attributes":{
						"POSITION":45,
						"NORMAL":46,
						"TEXCOORD_0":47
					},
					"indices":48,
					"material":9
				}
			]
		}
	],
	"textures":[
		{
			"sampler":0,
			"source":0
		},
		{
			"sampler":0,
			"source":0
		},
		{
			"sampler":0,
			"source":1
		},
		{
			"sampler":0,
			"source":0
		},
		{
			"sampler":0,
			"source":2
		},
		{
			"sampler":0,
			"source":0
		},
		{
			"sampler":0,
			"source":3
		},
		{
			"sampler":0,
			"source":0
		},
		{
			"sampler":0,
			"source":4
		},
		{
			"sampler":0,
			"source":0
		},
		{
			"sampler":0,
			"source":5
		},
		{
			"sampler":0,
			"source":0
		},
		{
			"sampler":0,
			"source":6
		},
		{
			"sampler":0,
			"source":0
		},
		{
			"sampler":0,
			"source":7
		},
		{
			"sampler":0,
			"source":0
		},
		{
			"sampler":0,
			"source":8
		},
		{
			"sampler":0,
			"source":9
		}
	],
	"images":[
		{
			"mimeType":"image/png",
			"name":"building_4.png",
			"uri":"../../../Textures/ambient_occlusion/Buildings/Abandoned/building_4.png"
		},
		{
			"mimeType":"image/png",
			"name":"tex39-5",
			"uri":"../../../Textures/tex39-5.png"
		},
		{
			"mimeType":"image/png",
			"name":"tex39-6",
			"uri":"../../../Textures/tex39-6.png"
		},
		{
			"mimeType":"image/png",
			"name":"tex39-4",
			"uri":"../../../Textures/tex39-4.png"
		},
		{
			"mimeType":"image/png",
			"name":"tex39-7",
			"uri":"../../../Textures/tex39-7.png"
		},
		{
			"mimeType":"image/png",
			"name":"tex39-56",
			"uri":"../../../Textures/tex39-56.png"
		},
		{
			"mimeType":"image/png",
			"name":"tex39-59",
			"uri":"../../../Textures/tex39-59.png"
		},
		{
			"mimeType":"image/png",
			"name":"tex39-57",
			"uri":"../../../Textures/tex39-57.png"
		},
		{
			"mimeType":"image/png",
			"name":"tex39-58",
			"uri":"../../../Textures/tex39-58.png"
		},
		{
			"mimeType":"image/png",
			"name":"building_4_ground.png",
			"uri":"../../../Textures/ambient_occlusion/Buildings/Abandoned/building_4_ground.png"
		}
	],
	"accessors":[
		{
			"bufferView":0,
			"componentType":5126,
			"count":24,
			"max":[
				8.583133697509766,
				8.913257598876953,
				-10.443840026855469
			],
			"min":[
				-8.583137512207031,
				-8.583137512207031,
				-10.945152282714844
			],
			"type":"VEC3"
		},
		{
			"bufferView":1,
			"componentType":5126,
			"count":24,
			"type":"VEC3"
		},
		{
			"bufferView":2,
			"componentType":5126,
			"count":24,
			"type":"VEC2"
		},
		{
			"bufferView":3,
			"componentType":5126,
			"count":24,
			"type":"VEC2"
		},
		{
			"bufferView":4,
			"componentType":5123,
			"count":66,
			"type":"SCALAR"
		},
		{
			"bufferView":5,
			"componentType":5126,
			"count":8,
			"max":[
				-3.961444854736328,
				8.913257598876953,
				0
			],
			"min":[
				-8.583137512207031,
				-8.583137512207031,
				-10.945148468017578
			],
			"type":"VEC3"
		},
		{
			"bufferView":6,
			"componentType":5126,
			"count":8,
			"type":"VEC3"
		},
		{
			"bufferView":7,
			"componentType":5126,
			"count":8,
			"type":"VEC2"
		},
		{
			"bufferView":8,
			"componentType":5126,
			"count":8,
			"type":"VEC2"
		},
		{
			"bufferView":9,
			"componentType":5123,
			"count":12,
			"type":"SCALAR"
		},
		{
			"bufferView":10,
			"componentType":5126,
			"count":8,
			"max":[
				8.583137512207031,
				8.913257598876953,
				0
			],
			"min":[
				3.961444854736328,
				-8.583137512207031,
				-10.945152282714844
			],
			"type":"VEC3"
		},
		{
			"bufferView":11,
			"componentType":5126,
			"count":8,
			"type":"VEC3"
		},
		{
			"bufferView":12,
			"componentType":5126,
			"count":8,
			"type":"VEC2"
		},
		{
			"bufferView":13,
			"componentType":5126,
			"count":8,
			"type":"VEC2"
		},
		{
			"bufferView":14,
			"componentType":5123,
			"count":12,
			"type":"SCALAR"
		},
		{
			"bufferView":15,
			"componentType":5126,
			"count":4,
			"max":[
				8.583137512207031,
				-8.583133697509766,
				0
			],
			"min":[
				-8.583137512207031,
				-8.583137512207031,
				-10.945148468017578
			],
			"type":"VEC3"
		},
		{
			"bufferView":16,
			"componentType":5126,
			"count":4,
			"type":"VEC3"
		},
		{
			"bufferView":17,
			"componentType":5126,
			"count":4,
			"type":"VEC2"
		},
		{
			"bufferView":18,
			"componentType":5126,
			"count":4,
			"type":"VEC2"
		},
		{
			"bufferView":19,
			"componentType":5123,
			"count":6,
			"type":"SCALAR"
		},
		{
			"bufferView":20,
			"componentType":5126,
			"count":12,
			"max":[
				8.583137512207031,
				8.913257598876953,
				0
			],
			"min":[
				-8.583137512207031,
				5.612049102783203,
				-10.945152282714844
			],
			"type":"VEC3"
		},
		{
			"bufferView":21,
			"componentType":5126,
			"count":12,
			"type":"VEC3"
		},
		{
			"bufferView":22,
			"componentType":5126,
			"count":12,
			"type":"VEC2"
		},
		{
			"bufferView":23,
			"componentType":5126,
			"count":12,
			"type":"VEC2"
		},
		{
			"bufferView":24,
			"componentType":5123,
			"count":18,
			"type":"SCALAR"
		},
		{
			"bufferView":25,
			"componentType":5126,
			"count":12,
			"max":[
				7.709476470947266,
				7.725791931152344,
				-10.443840026855469
			],
			"min":[
				-7.709480285644531,
				4.864383697509766,
				-10.945152282714844
			],
			"type":"VEC3"
		},
		{
			"bufferView":26,
			"componentType":5126,
			"count":12,
			"type":"VEC3"
		},
		{
			"bufferView":27,
			"componentType":5126,
			"count":12,
			"type":"VEC2"
		},
		{
			"bufferView":28,
			"componentType":5126,
			"count":12,
			"type":"VEC2"
		},
		{
			"bufferView":29,
			"componentType":5123,
			"count":18,
			"type":"SCALAR"
		},
		{
			"bufferView":30,
			"componentType":5126,
			"count":4,
			"max":[
				7.709476470947266,
				-7.439647674560547,
				-10.443840026855469
			],
			"min":[
				-7.709480285644531,
				-7.439647674560547,
				-10.945148468017578
			],
			"type":"VEC3"
		},
		{
			"bufferView":31,
			"componentType":5126,
			"count":4,
			"type":"VEC3"
		},
		{
			"bufferView":32,
			"componentType":5126,
			"count":4,
			"type":"VEC2"
		},
		{
			"bufferView":33,
			"componentType":5126,
			"count":4,
			"type":"VEC2"
		},
		{
			"bufferView":34,
			"componentType":5123,
			"count":6,
			"type":"SCALAR"
		},
		{
			"bufferView":35,
			"componentType":5126,
			"count":8,
			"max":[
				7.709476470947266,
				7.725791931152344,
				-10.443840026855469
			],
			"min":[
				3.5582199096679688,
				-7.439647674560547,
				-10.945152282714844
			],
			"type":"VEC3"
		},
		{
			"bufferView":36,
			"componentType":5126,
			"count":8,
			"type":"VEC3"
		},
		{
			"bufferView":37,
			"componentType":5126,
			"count":8,
			"type":"VEC2"
		},
		{
			"bufferView":38,
			"componentType":5126,
			"count":8,
			"type":"VEC2"
		},
		{
			"bufferView":39,
			"componentType":5123,
			"count":12,
			"type":"SCALAR"
		},
		{
			"bufferView":40,
			"componentType":5126,
			"count":8,
			"max":[
				-3.5582199096679688,
				7.725788116455078,
				-10.443840026855469
			],
			"min":[
				-7.709480285644531,
				-7.439647674560547,
				-10.945148468017578
			],
			"type":"VEC3"
		},
		{
			"bufferView":41,
			"componentType":5126,
			"count":8,
			"type":"VEC3"
		},
		{
			"bufferView":42,
			"componentType":5126,
			"count":8,
			"type":"VEC2"
		},
		{
			"bufferView":43,
			"componentType":5126,
			"count":8,
			"type":"VEC2"
		},
		{
			"bufferView":44,
			"componentType":5123,
			"count":12,
			"type":"SCALAR"
		},
		{
			"bufferView":45,
			"componentType":5126,
			"count":4,
			"max":[
				0.5,
				0,
				0.5
			],
			"min":[
				-0.5,
				0,
				-0.5
			],
			"type":"VEC3"
		},
		{
			"bufferView":46,
			"componentType":5126,
			"count":4,
			"type":"VEC3"
		},
		{
			"bufferView":47,
			"componentType":5126,
			"count":4,
			"type":"VEC2"
		},
		{
			"bufferView":48,
			"componentType":5123,
			"count":6,
			"type":"SCALAR"
		}
	],
	"bufferViews":[
		{
			"buffer":0,
			"byteLength":288,
			"byteOffset":0,
			"target":34962
		},
		{
			"buffer":0,
			"byteLength":288,
			"byteOffset":288,
			"target":34962
		},
		{
			"buffer":0,
			"byteLength":192,
			"byteOffset":576,
			"target":34962
		},
		{
			"buffer":0,
			"byteLength":192,
			"byteOffset":768,
			"target":34962
		},
		{
			"buffer":0,
			"byteLength":132,
			"byteOffset":960,
			"target":34963
		},
		{
			"buffer":0,
			"byteLength":96,
			"byteOffset":1092,
			"target":34962
		},
		{
			"buffer":0,
			"byteLength":96,
			"byteOffset":1188,
			"target":34962
		},
		{
			"buffer":0,
			"byteLength":64,
			"byteOffset":1284,
			"target":34962
		},
		{
			"buffer":0,
			"byteLength":64,
			"byteOffset":1348,
			"target":34962
		},
		{
			"buffer":0,
			"byteLength":24,
			"byteOffset":1412,
			"target":34963
		},
		{
			"buffer":0,
			"byteLength":96,
			"byteOffset":1436,
			"target":34962
		},
		{
			"buffer":0,
			"byteLength":96,
			"byteOffset":1532,
			"target":34962
		},
		{
			"buffer":0,
			"byteLength":64,
			"byteOffset":1628,
			"target":34962
		},
		{
			"buffer":0,
			"byteLength":64,
			"byteOffset":1692,
			"target":34962
		},
		{
			"buffer":0,
			"byteLength":24,
			"byteOffset":1756,
			"target":34963
		},
		{
			"buffer":0,
			"byteLength":48,
			"byteOffset":1780,
			"target":34962
		},
		{
			"buffer":0,
			"byteLength":48,
			"byteOffset":1828,
			"target":34962
		},
		{
			"buffer":0,
			"byteLength":32,
			"byteOffset":1876,
			"target":34962
		},
		{
			"buffer":0,
			"byteLength":32,
			"byteOffset":1908,
			"target":34962
		},
		{
			"buffer":0,
			"byteLength":12,
			"byteOffset":1940,
			"target":34963
		},
		{
			"buffer":0,
			"byteLength":144,
			"byteOffset":1952,
			"target":34962
		},
		{
			"buffer":0,
			"byteLength":144,
			"byteOffset":2096,
			"target":34962
		},
		{
			"buffer":0,
			"byteLength":96,
			"byteOffset":2240,
			"target":34962
		},
		{
			"buffer":0,
			"byteLength":96,
			"byteOffset":2336,
			"target":34962
		},
		{
			"buffer":0,
			"byteLength":36,
			"byteOffset":2432,
			"target":34963
		},
		{
			"buffer":0,
			"byteLength":144,
			"byteOffset":2468,
			"target":34962
		},
		{
			"buffer":0,
			"byteLength":144,
			"byteOffset":2612,
			"target":34962
		},
		{
			"buffer":0,
			"byteLength":96,
			"byteOffset":2756,
			"target":34962
		},
		{
			"buffer":0,
			"byteLength":96,
			"byteOffset":2852,
			"target":34962
		},
		{
			"buffer":0,
			"byteLength":36,
			"byteOffset":2948,
			"target":34963
		},
		{
			"buffer":0,
			"byteLength":48,
			"byteOffset":2984,
			"target":34962
		},
		{
			"buffer":0,
			"byteLength":48,
			"byteOffset":3032,
			"target":34962
		},
		{
			"buffer":0,
			"byteLength":32,
			"byteOffset":3080,
			"target":34962
		},
		{
			"buffer":0,
			"byteLength":32,
			"byteOffset":3112,
			"target":34962
		},
		{
			"buffer":0,
			"byteLength":12,
			"byteOffset":3144,
			"target":34963
		},
		{
			"buffer":0,
			"byteLength":96,
			"byteOffset":3156,
			"target":34962
		},
		{
			"buffer":0,
			"byteLength":96,
			"byteOffset":3252,
			"target":34962
		},
		{
			"buffer":0,
			"byteLength":64,
			"byteOffset":3348,
			"target":34962
		},
		{
			"buffer":0,
			"byteLength":64,
			"byteOffset":3412,
			"target":34962
		},
		{
			"buffer":0,
			"byteLength":24,
			"byteOffset":3476,
			"target":34963
		},
		{
			"buffer":0,
			"byteLength":96,
			"byteOffset":3500,
			"target":34962
		},
		{
			"buffer":0,
			"byteLength":96,
			"byteOffset":3596,
			"target":34962
		},
		{
			"buffer":0,
			"byteLength":64,
			"byteOffset":3692,
			"target":34962
		},
		{
			"buffer":0,
			"byteLength":64,
			"byteOffset":3756,
			"target":34962
		},
		{
			"buffer":0,
			"byteLength":24,
			"byteOffset":3820,
			"target":34963
		},
		{
			"buffer":0,
			"byteLength":48,
			"byteOffset":3844,
			"target":34962
		},
		{
			"buffer":0,
			"byteLength":48,
			"byteOffset":3892,
			"target":34962
		},
		{
			"buffer":0,
			"byteLength":32,
			"byteOffset":3940,
			"target":34962
		},
		{
			"buffer":0,
			"byteLength":12,
			"byteOffset":3972,
			"target":34963
		}
	],
	"samplers":[
		{
			"magFilter":9729,
			"minFilter":9987
		}
	],
	"buffers":[
		{
			"byteLength":3984,
			"uri":"building_4.bin"
		}
	]
}
