{
	"asset":{
		"generator":"Khronos glTF Blender I/O v4.3.47",
		"version":"2.0"
	},
	"scene":0,
	"scenes":[
		{
			"name":"Scene",
			"nodes":[
				0,
				1
			]
		}
	],
	"nodes":[
		{
			"mesh":0,
			"name":"Maxis-3d1-mesh-10-abnd7story",
			"rotation":[
				0.70710688829422,
				0,
				0,
				0.7071066498756409
			]
		},
		{
			"extras":{
				"gd_node":"Decal",
				"lower_fade":9,
				"upper_fade":10
			},
			"mesh":1,
			"name":"Ground_AO",
			"scale":[
				19.06000518798828,
				1,
				22.672000885009766
			],
			"translation":[
				0,
				0,
				3.337860107421875e-06
			]
		}
	],
	"materials":[
		{
			"name":"matcolour-48.003",
			"occlusionTexture":{
				"index":0,
				"texCoord":1
			},
			"pbrMetallicRoughness":{
				"baseColorFactor":[
					0.05882352963089943,
					0.05882352963089943,
					0.05882352963089943,
					1
				],
				"metallicFactor":0
			}
		},
		{
			"name":"mat39-22",
			"occlusionTexture":{
				"index":1,
				"texCoord":1
			},
			"pbrMetallicRoughness":{
				"baseColorTexture":{
					"index":2
				},
				"metallicFactor":0
			}
		},
		{
			"name":"mat39-21",
			"occlusionTexture":{
				"index":3,
				"texCoord":1
			},
			"pbrMetallicRoughness":{
				"baseColorTexture":{
					"index":4
				},
				"metallicFactor":0
			}
		},
		{
			"name":"mat39-20",
			"occlusionTexture":{
				"index":5,
				"texCoord":1
			},
			"pbrMetallicRoughness":{
				"baseColorTexture":{
					"index":6
				},
				"metallicFactor":0
			}
		},
		{
			"name":"mat39-23",
			"occlusionTexture":{
				"index":7,
				"texCoord":1
			},
			"pbrMetallicRoughness":{
				"baseColorTexture":{
					"index":8
				},
				"metallicFactor":0
			}
		},
		{
			"name":"mat40-37",
			"occlusionTexture":{
				"index":9,
				"texCoord":1
			},
			"pbrMetallicRoughness":{
				"baseColorTexture":{
					"index":10
				},
				"metallicFactor":0
			}
		},
		{
			"name":"mat40-38",
			"occlusionTexture":{
				"index":11,
				"texCoord":1
			},
			"pbrMetallicRoughness":{
				"baseColorTexture":{
					"index":12
				},
				"metallicFactor":0
			}
		},
		{
			"name":"mat40-39.001",
			"occlusionTexture":{
				"index":13,
				"texCoord":1
			},
			"pbrMetallicRoughness":{
				"baseColorTexture":{
					"index":14
				},
				"metallicFactor":0
			}
		},
		{
			"name":"mat40-36",
			"occlusionTexture":{
				"index":15,
				"texCoord":1
			},
			"pbrMetallicRoughness":{
				"baseColorTexture":{
					"index":16
				},
				"metallicFactor":0
			}
		},
		{
			"name":"Ground_AO",
			"occlusionTexture":{
				"index":17
			},
			"pbrMetallicRoughness":{
				"baseColorFactor":[
					0.800000011920929,
					0.800000011920929,
					0.800000011920929,
					1
				],
				"metallicFactor":0,
				"roughnessFactor":0.5
			}
		}
	],
	"meshes":[
		{
			"name":"Maxis-3d1-mesh-10-abnd7story",
			"primitives":[
				{
					"attributes":{
						"POSITION":0,
						"NORMAL":1,
						"TEXCOORD_0":2,
						"TEXCOORD_1":3
					},
					"indices":4,
					"material":0
				},
				{
					"attributes":{
						"POSITION":5,
						"NORMAL":6,
						"TEXCOORD_0":7,
						"TEXCOORD_1":8
					},
					"indices":9,
					"material":1
				},
				{
					"attributes":{
						"POSITION":10,
						"NORMAL":11,
						"TEXCOORD_0":12,
						"TEXCOORD_1":13
					},
					"indices":14,
					"material":2
				},
				{
					"attributes":{
						"POSITION":15,
						"NORMAL":16,
						"TEXCOORD_0":17,
						"TEXCOORD_1":18
					},
					"indices":19,
					"material":3
				},
				{
					"attributes":{
						"POSITION":20,
						"NORMAL":21,
						"TEXCOORD_0":22,
						"TEXCOORD_1":23
					},
					"indices":24,
					"material":4
				},
				{
					"attributes":{
						"POSITION":25,
						"NORMAL":26,
						"TEXCOORD_0":27,
						"TEXCOORD_1":28
					},
					"indices":29,
					"material":5
				},
				{
					"attributes":{
						"POSITION":30,
						"NORMAL":31,
						"TEXCOORD_0":32,
						"TEXCOORD_1":33
					},
					"indices":34,
					"material":6
				},
				{
					"attributes":{
						"POSITION":35,
						"NORMAL":36,
						"TEXCOORD_0":37,
						"TEXCOORD_1":38
					},
					"indices":39,
					"material":7
				},
				{
					"attributes":{
						"POSITION":40,
						"NORMAL":41,
						"TEXCOORD_0":42,
						"TEXCOORD_1":43
					},
					"indices":44,
					"material":8
				}
			]
		},
		{
			"name":"Plane",
			"primitives":[
				{
					"attributes":{
						"POSITION":45,
						"NORMAL":46,
						"TEXCOORD_0":47
					},
					"indices":48,
					"material":9
				}
			]
		}
	],
	"textures":[
		{
			"sampler":0,
			"source":0
		},
		{
			"sampler":0,
			"source":0
		},
		{
			"sampler":0,
			"source":1
		},
		{
			"sampler":0,
			"source":0
		},
		{
			"sampler":0,
			"source":2
		},
		{
			"sampler":0,
			"source":0
		},
		{
			"sampler":0,
			"source":3
		},
		{
			"sampler":0,
			"source":0
		},
		{
			"sampler":0,
			"source":4
		},
		{
			"sampler":0,
			"source":0
		},
		{
			"sampler":0,
			"source":5
		},
		{
			"sampler":0,
			"source":0
		},
		{
			"sampler":0,
			"source":6
		},
		{
			"sampler":0,
			"source":0
		},
		{
			"sampler":0,
			"source":7
		},
		{
			"sampler":0,
			"source":0
		},
		{
			"sampler":0,
			"source":8
		},
		{
			"sampler":0,
			"source":9
		}
	],
	"images":[
		{
			"mimeType":"image/png",
			"name":"building_5.png",
			"uri":"../../../Textures/ambient_occlusion/Buildings/Abandoned/building_5.png"
		},
		{
			"mimeType":"image/png",
			"name":"tex39-22",
			"uri":"../../../Textures/tex39-22.png"
		},
		{
			"mimeType":"image/png",
			"name":"tex39-21",
			"uri":"../../../Textures/tex39-21.png"
		},
		{
			"mimeType":"image/png",
			"name":"tex39-20",
			"uri":"../../../Textures/tex39-20.png"
		},
		{
			"mimeType":"image/png",
			"name":"tex39-23",
			"uri":"../../../Textures/tex39-23.png"
		},
		{
			"mimeType":"image/png",
			"name":"tex40-37",
			"uri":"../../../Textures/tex40-37.png"
		},
		{
			"mimeType":"image/png",
			"name":"tex40-38",
			"uri":"../../../Textures/tex40-38.png"
		},
		{
			"mimeType":"image/png",
			"name":"tex40-39",
			"uri":"../../../Textures/tex40-39.png"
		},
		{
			"mimeType":"image/png",
			"name":"tex40-36",
			"uri":"../../../Textures/tex40-36.png"
		},
		{
			"mimeType":"image/png",
			"name":"building_5_ground.png",
			"uri":"../../../Textures/ambient_occlusion/Buildings/Abandoned/building_5_ground.png"
		}
	],
	"accessors":[
		{
			"bufferView":0,
			"componentType":5126,
			"count":28,
			"max":[
				9.03000259399414,
				10.83599853515625,
				-18.584381103515625
			],
			"min":[
				-9.029998779296875,
				-10.83599853515625,
				-21.672000885009766
			],
			"type":"VEC3"
		},
		{
			"bufferView":1,
			"componentType":5126,
			"count":28,
			"type":"VEC3"
		},
		{
			"bufferView":2,
			"componentType":5126,
			"count":28,
			"type":"VEC2"
		},
		{
			"bufferView":3,
			"componentType":5126,
			"count":28,
			"type":"VEC2"
		},
		{
			"bufferView":4,
			"componentType":5123,
			"count":108,
			"type":"SCALAR"
		},
		{
			"bufferView":5,
			"componentType":5126,
			"count":6,
			"max":[
				9.03000259399414,
				10.836002349853516,
				0
			],
			"min":[
				9.02999496459961,
				-10.83599853515625,
				-21.672000885009766
			],
			"type":"VEC3"
		},
		{
			"bufferView":6,
			"componentType":5126,
			"count":6,
			"type":"VEC3"
		},
		{
			"bufferView":7,
			"componentType":5126,
			"count":6,
			"type":"VEC2"
		},
		{
			"bufferView":8,
			"componentType":5126,
			"count":6,
			"type":"VEC2"
		},
		{
			"bufferView":9,
			"componentType":5123,
			"count":12,
			"type":"SCALAR"
		},
		{
			"bufferView":10,
			"componentType":5126,
			"count":6,
			"max":[
				-9.02999496459961,
				10.836002349853516,
				0
			],
			"min":[
				-9.03000259399414,
				-10.83599853515625,
				-21.672000885009766
			],
			"type":"VEC3"
		},
		{
			"bufferView":11,
			"componentType":5126,
			"count":6,
			"type":"VEC3"
		},
		{
			"bufferView":12,
			"componentType":5126,
			"count":6,
			"type":"VEC2"
		},
		{
			"bufferView":13,
			"componentType":5126,
			"count":6,
			"type":"VEC2"
		},
		{
			"bufferView":14,
			"componentType":5123,
			"count":12,
			"type":"SCALAR"
		},
		{
			"bufferView":15,
			"componentType":5126,
			"count":10,
			"max":[
				9.03000259399414,
				-7.506542205810547,
				0
			],
			"min":[
				-9.029998779296875,
				-10.83599853515625,
				-21.672000885009766
			],
			"type":"VEC3"
		},
		{
			"bufferView":16,
			"componentType":5126,
			"count":10,
			"type":"VEC3"
		},
		{
			"bufferView":17,
			"componentType":5126,
			"count":10,
			"type":"VEC2"
		},
		{
			"bufferView":18,
			"componentType":5126,
			"count":10,
			"type":"VEC2"
		},
		{
			"bufferView":19,
			"componentType":5123,
			"count":12,
			"type":"SCALAR"
		},
		{
			"bufferView":20,
			"componentType":5126,
			"count":6,
			"max":[
				9.029998779296875,
				10.836002349853516,
				0
			],
			"min":[
				-9.03000259399414,
				10.835994720458984,
				-21.672000885009766
			],
			"type":"VEC3"
		},
		{
			"bufferView":21,
			"componentType":5126,
			"count":6,
			"type":"VEC3"
		},
		{
			"bufferView":22,
			"componentType":5126,
			"count":6,
			"type":"VEC2"
		},
		{
			"bufferView":23,
			"componentType":5126,
			"count":6,
			"type":"VEC2"
		},
		{
			"bufferView":24,
			"componentType":5123,
			"count":6,
			"type":"SCALAR"
		},
		{
			"bufferView":25,
			"componentType":5126,
			"count":4,
			"max":[
				7.946399688720703,
				9.53567886352539,
				-21.172000885009766
			],
			"min":[
				7.946399688720703,
				-6.596317291259766,
				-21.672000885009766
			],
			"type":"VEC3"
		},
		{
			"bufferView":26,
			"componentType":5126,
			"count":4,
			"type":"VEC3"
		},
		{
			"bufferView":27,
			"componentType":5126,
			"count":4,
			"type":"VEC2"
		},
		{
			"bufferView":28,
			"componentType":5126,
			"count":4,
			"type":"VEC2"
		},
		{
			"bufferView":29,
			"componentType":5123,
			"count":6,
			"type":"SCALAR"
		},
		{
			"bufferView":30,
			"componentType":5126,
			"count":4,
			"max":[
				-7.9463958740234375,
				9.535675048828125,
				-21.172000885009766
			],
			"min":[
				-7.9463958740234375,
				-6.596321105957031,
				-21.672000885009766
			],
			"type":"VEC3"
		},
		{
			"bufferView":31,
			"componentType":5126,
			"count":4,
			"type":"VEC3"
		},
		{
			"bufferView":32,
			"componentType":5126,
			"count":4,
			"type":"VEC2"
		},
		{
			"bufferView":33,
			"componentType":5126,
			"count":4,
			"type":"VEC2"
		},
		{
			"bufferView":34,
			"componentType":5123,
			"count":6,
			"type":"SCALAR"
		},
		{
			"bufferView":35,
			"componentType":5126,
			"count":4,
			"max":[
				7.946399688720703,
				-6.596317291259766,
				-21.172000885009766
			],
			"min":[
				-7.9463958740234375,
				-6.596321105957031,
				-21.672000885009766
			],
			"type":"VEC3"
		},
		{
			"bufferView":36,
			"componentType":5126,
			"count":4,
			"type":"VEC3"
		},
		{
			"bufferView":37,
			"componentType":5126,
			"count":4,
			"type":"VEC2"
		},
		{
			"bufferView":38,
			"componentType":5126,
			"count":4,
			"type":"VEC2"
		},
		{
			"bufferView":39,
			"componentType":5123,
			"count":6,
			"type":"SCALAR"
		},
		{
			"bufferView":40,
			"componentType":5126,
			"count":4,
			"max":[
				7.946399688720703,
				9.53567886352539,
				-21.172000885009766
			],
			"min":[
				-7.9463958740234375,
				9.535675048828125,
				-21.672000885009766
			],
			"type":"VEC3"
		},
		{
			"bufferView":41,
			"componentType":5126,
			"count":4,
			"type":"VEC3"
		},
		{
			"bufferView":42,
			"componentType":5126,
			"count":4,
			"type":"VEC2"
		},
		{
			"bufferView":43,
			"componentType":5126,
			"count":4,
			"type":"VEC2"
		},
		{
			"bufferView":44,
			"componentType":5123,
			"count":6,
			"type":"SCALAR"
		},
		{
			"bufferView":45,
			"componentType":5126,
			"count":4,
			"max":[
				0.5,
				0,
				0.5
			],
			"min":[
				-0.5,
				0,
				-0.5
			],
			"type":"VEC3"
		},
		{
			"bufferView":46,
			"componentType":5126,
			"count":4,
			"type":"VEC3"
		},
		{
			"bufferView":47,
			"componentType":5126,
			"count":4,
			"type":"VEC2"
		},
		{
			"bufferView":48,
			"componentType":5123,
			"count":6,
			"type":"SCALAR"
		}
	],
	"bufferViews":[
		{
			"buffer":0,
			"byteLength":336,
			"byteOffset":0,
			"target":34962
		},
		{
			"buffer":0,
			"byteLength":336,
			"byteOffset":336,
			"target":34962
		},
		{
			"buffer":0,
			"byteLength":224,
			"byteOffset":672,
			"target":34962
		},
		{
			"buffer":0,
			"byteLength":224,
			"byteOffset":896,
			"target":34962
		},
		{
			"buffer":0,
			"byteLength":216,
			"byteOffset":1120,
			"target":34963
		},
		{
			"buffer":0,
			"byteLength":72,
			"byteOffset":1336,
			"target":34962
		},
		{
			"buffer":0,
			"byteLength":72,
			"byteOffset":1408,
			"target":34962
		},
		{
			"buffer":0,
			"byteLength":48,
			"byteOffset":1480,
			"target":34962
		},
		{
			"buffer":0,
			"byteLength":48,
			"byteOffset":1528,
			"target":34962
		},
		{
			"buffer":0,
			"byteLength":24,
			"byteOffset":1576,
			"target":34963
		},
		{
			"buffer":0,
			"byteLength":72,
			"byteOffset":1600,
			"target":34962
		},
		{
			"buffer":0,
			"byteLength":72,
			"byteOffset":1672,
			"target":34962
		},
		{
			"buffer":0,
			"byteLength":48,
			"byteOffset":1744,
			"target":34962
		},
		{
			"buffer":0,
			"byteLength":48,
			"byteOffset":1792,
			"target":34962
		},
		{
			"buffer":0,
			"byteLength":24,
			"byteOffset":1840,
			"target":34963
		},
		{
			"buffer":0,
			"byteLength":120,
			"byteOffset":1864,
			"target":34962
		},
		{
			"buffer":0,
			"byteLength":120,
			"byteOffset":1984,
			"target":34962
		},
		{
			"buffer":0,
			"byteLength":80,
			"byteOffset":2104,
			"target":34962
		},
		{
			"buffer":0,
			"byteLength":80,
			"byteOffset":2184,
			"target":34962
		},
		{
			"buffer":0,
			"byteLength":24,
			"byteOffset":2264,
			"target":34963
		},
		{
			"buffer":0,
			"byteLength":72,
			"byteOffset":2288,
			"target":34962
		},
		{
			"buffer":0,
			"byteLength":72,
			"byteOffset":2360,
			"target":34962
		},
		{
			"buffer":0,
			"byteLength":48,
			"byteOffset":2432,
			"target":34962
		},
		{
			"buffer":0,
			"byteLength":48,
			"byteOffset":2480,
			"target":34962
		},
		{
			"buffer":0,
			"byteLength":12,
			"byteOffset":2528,
			"target":34963
		},
		{
			"buffer":0,
			"byteLength":48,
			"byteOffset":2540,
			"target":34962
		},
		{
			"buffer":0,
			"byteLength":48,
			"byteOffset":2588,
			"target":34962
		},
		{
			"buffer":0,
			"byteLength":32,
			"byteOffset":2636,
			"target":34962
		},
		{
			"buffer":0,
			"byteLength":32,
			"byteOffset":2668,
			"target":34962
		},
		{
			"buffer":0,
			"byteLength":12,
			"byteOffset":2700,
			"target":34963
		},
		{
			"buffer":0,
			"byteLength":48,
			"byteOffset":2712,
			"target":34962
		},
		{
			"buffer":0,
			"byteLength":48,
			"byteOffset":2760,
			"target":34962
		},
		{
			"buffer":0,
			"byteLength":32,
			"byteOffset":2808,
			"target":34962
		},
		{
			"buffer":0,
			"byteLength":32,
			"byteOffset":2840,
			"target":34962
		},
		{
			"buffer":0,
			"byteLength":12,
			"byteOffset":2872,
			"target":34963
		},
		{
			"buffer":0,
			"byteLength":48,
			"byteOffset":2884,
			"target":34962
		},
		{
			"buffer":0,
			"byteLength":48,
			"byteOffset":2932,
			"target":34962
		},
		{
			"buffer":0,
			"byteLength":32,
			"byteOffset":2980,
			"target":34962
		},
		{
			"buffer":0,
			"byteLength":32,
			"byteOffset":3012,
			"target":34962
		},
		{
			"buffer":0,
			"byteLength":12,
			"byteOffset":3044,
			"target":34963
		},
		{
			"buffer":0,
			"byteLength":48,
			"byteOffset":3056,
			"target":34962
		},
		{
			"buffer":0,
			"byteLength":48,
			"byteOffset":3104,
			"target":34962
		},
		{
			"buffer":0,
			"byteLength":32,
			"byteOffset":3152,
			"target":34962
		},
		{
			"buffer":0,
			"byteLength":32,
			"byteOffset":3184,
			"target":34962
		},
		{
			"buffer":0,
			"byteLength":12,
			"byteOffset":3216,
			"target":34963
		},
		{
			"buffer":0,
			"byteLength":48,
			"byteOffset":3228,
			"target":34962
		},
		{
			"buffer":0,
			"byteLength":48,
			"byteOffset":3276,
			"target":34962
		},
		{
			"buffer":0,
			"byteLength":32,
			"byteOffset":3324,
			"target":34962
		},
		{
			"buffer":0,
			"byteLength":12,
			"byteOffset":3356,
			"target":34963
		}
	],
	"samplers":[
		{
			"magFilter":9729,
			"minFilter":9987
		}
	],
	"buffers":[
		{
			"byteLength":3368,
			"uri":"building_5.bin"
		}
	]
}
