{
	"asset":{
		"generator":"Khronos glTF Blender I/O v4.3.47",
		"version":"2.0"
	},
	"scene":0,
	"scenes":[
		{
			"name":"Scene",
			"nodes":[
				0,
				1
			]
		}
	],
	"nodes":[
		{
			"mesh":0,
			"name":"Maxis-3d1-mesh-7-Abandoned2",
			"rotation":[
				0.70710688829422,
				0,
				0,
				0.7071066498756409
			]
		},
		{
			"extras":{
				"gd_node":"Decal",
				"lower_fade":9,
				"upper_fade":10
			},
			"mesh":1,
			"name":"Ground_AO",
			"scale":[
				15.330657958984375,
				1,
				14.860847473144531
			],
			"translation":[
				0.3063774108886719,
				0,
				-0.456989049911499
			]
		}
	],
	"materials":[
		{
			"name":"mat39-62",
			"occlusionTexture":{
				"index":0,
				"texCoord":1
			},
			"pbrMetallicRoughness":{
				"baseColorTexture":{
					"index":1
				},
				"metallicFactor":0
			}
		},
		{
			"name":"mat39-61",
			"occlusionTexture":{
				"index":2,
				"texCoord":1
			},
			"pbrMetallicRoughness":{
				"baseColorTexture":{
					"index":3
				},
				"metallicFactor":0
			}
		},
		{
			"name":"mat39-60",
			"occlusionTexture":{
				"index":4,
				"texCoord":1
			},
			"pbrMetallicRoughness":{
				"baseColorTexture":{
					"index":5
				},
				"metallicFactor":0
			}
		},
		{
			"name":"mat39-63",
			"occlusionTexture":{
				"index":6,
				"texCoord":1
			},
			"pbrMetallicRoughness":{
				"baseColorTexture":{
					"index":7
				},
				"metallicFactor":0
			}
		},
		{
			"name":"mat40-39",
			"occlusionTexture":{
				"index":8,
				"texCoord":1
			},
			"pbrMetallicRoughness":{
				"baseColorTexture":{
					"index":9
				},
				"metallicFactor":0
			}
		},
		{
			"name":"mat2-40",
			"occlusionTexture":{
				"index":10,
				"texCoord":1
			},
			"pbrMetallicRoughness":{
				"baseColorTexture":{
					"index":11
				},
				"metallicFactor":0
			}
		},
		{
			"name":"mat2-42",
			"occlusionTexture":{
				"index":12,
				"texCoord":1
			},
			"pbrMetallicRoughness":{
				"baseColorTexture":{
					"index":13
				},
				"metallicFactor":0
			}
		},
		{
			"name":"mat40-45",
			"occlusionTexture":{
				"index":14,
				"texCoord":1
			},
			"pbrMetallicRoughness":{
				"baseColorTexture":{
					"index":15
				},
				"metallicFactor":0
			}
		},
		{
			"name":"matcolour-48",
			"occlusionTexture":{
				"index":16,
				"texCoord":1
			},
			"pbrMetallicRoughness":{
				"baseColorFactor":[
					0.05882352963089943,
					0.05882352963089943,
					0.05882352963089943,
					1
				],
				"metallicFactor":0
			}
		},
		{
			"name":"Ground_AO",
			"occlusionTexture":{
				"index":17
			},
			"pbrMetallicRoughness":{
				"baseColorFactor":[
					0.800000011920929,
					0.800000011920929,
					0.800000011920929,
					1
				],
				"metallicFactor":0,
				"roughnessFactor":0.5
			}
		}
	],
	"meshes":[
		{
			"name":"Maxis-3d1-mesh-7-Abandoned2",
			"primitives":[
				{
					"attributes":{
						"POSITION":0,
						"NORMAL":1,
						"TEXCOORD_0":2,
						"TEXCOORD_1":3
					},
					"indices":4,
					"material":0
				},
				{
					"attributes":{
						"POSITION":5,
						"NORMAL":6,
						"TEXCOORD_0":7,
						"TEXCOORD_1":8
					},
					"indices":9,
					"material":1
				},
				{
					"attributes":{
						"POSITION":10,
						"NORMAL":11,
						"TEXCOORD_0":12,
						"TEXCOORD_1":13
					},
					"indices":14,
					"material":2
				},
				{
					"attributes":{
						"POSITION":15,
						"NORMAL":16,
						"TEXCOORD_0":17,
						"TEXCOORD_1":18
					},
					"indices":19,
					"material":3
				},
				{
					"attributes":{
						"POSITION":20,
						"NORMAL":21,
						"TEXCOORD_0":22,
						"TEXCOORD_1":23
					},
					"indices":24,
					"material":4
				},
				{
					"attributes":{
						"POSITION":25,
						"NORMAL":26,
						"TEXCOORD_0":27,
						"TEXCOORD_1":28
					},
					"indices":29,
					"material":5
				},
				{
					"attributes":{
						"POSITION":30,
						"NORMAL":31,
						"TEXCOORD_0":32,
						"TEXCOORD_1":33
					},
					"indices":24,
					"material":6
				},
				{
					"attributes":{
						"POSITION":34,
						"NORMAL":35,
						"TEXCOORD_0":36,
						"TEXCOORD_1":37
					},
					"indices":38,
					"material":7
				},
				{
					"attributes":{
						"POSITION":39,
						"NORMAL":40,
						"TEXCOORD_0":41,
						"TEXCOORD_1":42
					},
					"indices":43,
					"material":8
				}
			]
		},
		{
			"name":"Plane",
			"primitives":[
				{
					"attributes":{
						"POSITION":44,
						"NORMAL":45,
						"TEXCOORD_0":46
					},
					"indices":47,
					"material":9
				}
			]
		}
	],
	"textures":[
		{
			"sampler":0,
			"source":0
		},
		{
			"sampler":0,
			"source":1
		},
		{
			"sampler":0,
			"source":0
		},
		{
			"sampler":0,
			"source":2
		},
		{
			"sampler":0,
			"source":0
		},
		{
			"sampler":0,
			"source":3
		},
		{
			"sampler":0,
			"source":0
		},
		{
			"sampler":0,
			"source":4
		},
		{
			"sampler":0,
			"source":0
		},
		{
			"sampler":0,
			"source":5
		},
		{
			"sampler":0,
			"source":0
		},
		{
			"sampler":0,
			"source":6
		},
		{
			"sampler":0,
			"source":0
		},
		{
			"sampler":0,
			"source":7
		},
		{
			"sampler":0,
			"source":0
		},
		{
			"sampler":0,
			"source":8
		},
		{
			"sampler":0,
			"source":0
		},
		{
			"sampler":0,
			"source":9
		}
	],
	"images":[
		{
			"mimeType":"image/png",
			"name":"building_2.png",
			"uri":"../../../Textures/ambient_occlusion/Buildings/Abandoned/building_2.png"
		},
		{
			"mimeType":"image/png",
			"name":"tex39-62",
			"uri":"../../../Textures/tex39-62.png"
		},
		{
			"mimeType":"image/png",
			"name":"tex39-61",
			"uri":"../../../Textures/tex39-61.png"
		},
		{
			"mimeType":"image/png",
			"name":"tex39-60",
			"uri":"../../../Textures/tex39-60.png"
		},
		{
			"mimeType":"image/png",
			"name":"tex39-63",
			"uri":"../../../Textures/tex39-63.png"
		},
		{
			"mimeType":"image/png",
			"name":"tex40-39",
			"uri":"../../../Textures/tex40-39.png"
		},
		{
			"mimeType":"image/png",
			"name":"tex2-40",
			"uri":"../../../Textures/tex2-40.png"
		},
		{
			"mimeType":"image/png",
			"name":"tex2-42",
			"uri":"../../../Textures/tex2-42.png"
		},
		{
			"mimeType":"image/png",
			"name":"tex40-45",
			"uri":"../../../Textures/tex40-45.png"
		},
		{
			"mimeType":"image/png",
			"name":"building_2_ground.png",
			"uri":"../../../Textures/ambient_occlusion/Buildings/Abandoned/building_2_ground.png"
		}
	],
	"accessors":[
		{
			"bufferView":0,
			"componentType":5126,
			"count":10,
			"max":[
				7.377635955810547,
				6.3989715576171875,
				0
			],
			"min":[
				-2.032611846923828,
				-7.302356719970703,
				-4.9202117919921875
			],
			"type":"VEC3"
		},
		{
			"bufferView":1,
			"componentType":5126,
			"count":10,
			"type":"VEC3"
		},
		{
			"bufferView":2,
			"componentType":5126,
			"count":10,
			"type":"VEC2"
		},
		{
			"bufferView":3,
			"componentType":5126,
			"count":10,
			"type":"VEC2"
		},
		{
			"bufferView":4,
			"componentType":5123,
			"count":18,
			"type":"SCALAR"
		},
		{
			"bufferView":5,
			"componentType":5126,
			"count":12,
			"max":[
				3.462970733642578,
				6.3989715576171875,
				0
			],
			"min":[
				-6.775379180908203,
				-7.302356719970703,
				-4.9202117919921875
			],
			"type":"VEC3"
		},
		{
			"bufferView":6,
			"componentType":5126,
			"count":12,
			"type":"VEC3"
		},
		{
			"bufferView":7,
			"componentType":5126,
			"count":12,
			"type":"VEC2"
		},
		{
			"bufferView":8,
			"componentType":5126,
			"count":12,
			"type":"VEC2"
		},
		{
			"bufferView":9,
			"componentType":5123,
			"count":18,
			"type":"SCALAR"
		},
		{
			"bufferView":10,
			"componentType":5126,
			"count":8,
			"max":[
				7.377635955810547,
				-3.8393821716308594,
				0
			],
			"min":[
				-6.775379180908203,
				-7.302356719970703,
				-4.920204162597656
			],
			"type":"VEC3"
		},
		{
			"bufferView":11,
			"componentType":5126,
			"count":8,
			"type":"VEC3"
		},
		{
			"bufferView":12,
			"componentType":5126,
			"count":8,
			"type":"VEC2"
		},
		{
			"bufferView":13,
			"componentType":5126,
			"count":8,
			"type":"VEC2"
		},
		{
			"bufferView":14,
			"componentType":5123,
			"count":12,
			"type":"SCALAR"
		},
		{
			"bufferView":15,
			"componentType":5126,
			"count":14,
			"max":[
				7.377635955810547,
				6.3989715576171875,
				0
			],
			"min":[
				-6.775379180908203,
				-2.0326156616210938,
				-4.9202117919921875
			],
			"type":"VEC3"
		},
		{
			"bufferView":16,
			"componentType":5126,
			"count":14,
			"type":"VEC3"
		},
		{
			"bufferView":17,
			"componentType":5126,
			"count":14,
			"type":"VEC2"
		},
		{
			"bufferView":18,
			"componentType":5126,
			"count":14,
			"type":"VEC2"
		},
		{
			"bufferView":19,
			"componentType":5123,
			"count":18,
			"type":"SCALAR"
		},
		{
			"bufferView":20,
			"componentType":5126,
			"count":8,
			"max":[
				6.041664123535156,
				2.8493881225585938,
				0
			],
			"min":[
				-4.8916473388671875,
				-3.908374786376953,
				-2.4631576538085938
			],
			"type":"VEC3"
		},
		{
			"bufferView":21,
			"componentType":5126,
			"count":8,
			"type":"VEC3"
		},
		{
			"bufferView":22,
			"componentType":5126,
			"count":8,
			"type":"VEC2"
		},
		{
			"bufferView":23,
			"componentType":5126,
			"count":8,
			"type":"VEC2"
		},
		{
			"bufferView":24,
			"componentType":5123,
			"count":12,
			"type":"SCALAR"
		},
		{
			"bufferView":25,
			"componentType":5126,
			"count":4,
			"max":[
				6.314292907714844,
				-7.387413024902344,
				-1.2976531982421875
			],
			"min":[
				0.7681045532226562,
				-7.387413024902344,
				-2.4746742248535156
			],
			"type":"VEC3"
		},
		{
			"bufferView":26,
			"componentType":5126,
			"count":4,
			"type":"VEC3"
		},
		{
			"bufferView":27,
			"componentType":5126,
			"count":4,
			"type":"VEC2"
		},
		{
			"bufferView":28,
			"componentType":5126,
			"count":4,
			"type":"VEC2"
		},
		{
			"bufferView":29,
			"componentType":5123,
			"count":6,
			"type":"SCALAR"
		},
		{
			"bufferView":30,
			"componentType":5126,
			"count":8,
			"max":[
				7.471706390380859,
				1.5274200439453125,
				-1.2814521789550781
			],
			"min":[
				7.471706390380859,
				-6.131507873535156,
				-2.4979896545410156
			],
			"type":"VEC3"
		},
		{
			"bufferView":31,
			"componentType":5126,
			"count":8,
			"type":"VEC3"
		},
		{
			"bufferView":32,
			"componentType":5126,
			"count":8,
			"type":"VEC2"
		},
		{
			"bufferView":33,
			"componentType":5126,
			"count":8,
			"type":"VEC2"
		},
		{
			"bufferView":34,
			"componentType":5126,
			"count":12,
			"max":[
				-3.5417098999023438,
				6.4734344482421875,
				-1.2757377624511719
			],
			"min":[
				-6.858951568603516,
				-3.064289093017578,
				-2.4984703063964844
			],
			"type":"VEC3"
		},
		{
			"bufferView":35,
			"componentType":5126,
			"count":12,
			"type":"VEC3"
		},
		{
			"bufferView":36,
			"componentType":5126,
			"count":12,
			"type":"VEC2"
		},
		{
			"bufferView":37,
			"componentType":5126,
			"count":12,
			"type":"VEC2"
		},
		{
			"bufferView":38,
			"componentType":5123,
			"count":18,
			"type":"SCALAR"
		},
		{
			"bufferView":39,
			"componentType":5126,
			"count":14,
			"max":[
				7.377635955810547,
				6.3989715576171875,
				-4.920204162597656
			],
			"min":[
				-6.775379180908203,
				-7.3023529052734375,
				-4.9202117919921875
			],
			"type":"VEC3"
		},
		{
			"bufferView":40,
			"componentType":5126,
			"count":14,
			"type":"VEC3"
		},
		{
			"bufferView":41,
			"componentType":5126,
			"count":14,
			"type":"VEC2"
		},
		{
			"bufferView":42,
			"componentType":5126,
			"count":14,
			"type":"VEC2"
		},
		{
			"bufferView":43,
			"componentType":5123,
			"count":21,
			"type":"SCALAR"
		},
		{
			"bufferView":44,
			"componentType":5126,
			"count":4,
			"max":[
				0.5,
				0,
				0.5
			],
			"min":[
				-0.5,
				0,
				-0.5
			],
			"type":"VEC3"
		},
		{
			"bufferView":45,
			"componentType":5126,
			"count":4,
			"type":"VEC3"
		},
		{
			"bufferView":46,
			"componentType":5126,
			"count":4,
			"type":"VEC2"
		},
		{
			"bufferView":47,
			"componentType":5123,
			"count":6,
			"type":"SCALAR"
		}
	],
	"bufferViews":[
		{
			"buffer":0,
			"byteLength":120,
			"byteOffset":0,
			"target":34962
		},
		{
			"buffer":0,
			"byteLength":120,
			"byteOffset":120,
			"target":34962
		},
		{
			"buffer":0,
			"byteLength":80,
			"byteOffset":240,
			"target":34962
		},
		{
			"buffer":0,
			"byteLength":80,
			"byteOffset":320,
			"target":34962
		},
		{
			"buffer":0,
			"byteLength":36,
			"byteOffset":400,
			"target":34963
		},
		{
			"buffer":0,
			"byteLength":144,
			"byteOffset":436,
			"target":34962
		},
		{
			"buffer":0,
			"byteLength":144,
			"byteOffset":580,
			"target":34962
		},
		{
			"buffer":0,
			"byteLength":96,
			"byteOffset":724,
			"target":34962
		},
		{
			"buffer":0,
			"byteLength":96,
			"byteOffset":820,
			"target":34962
		},
		{
			"buffer":0,
			"byteLength":36,
			"byteOffset":916,
			"target":34963
		},
		{
			"buffer":0,
			"byteLength":96,
			"byteOffset":952,
			"target":34962
		},
		{
			"buffer":0,
			"byteLength":96,
			"byteOffset":1048,
			"target":34962
		},
		{
			"buffer":0,
			"byteLength":64,
			"byteOffset":1144,
			"target":34962
		},
		{
			"buffer":0,
			"byteLength":64,
			"byteOffset":1208,
			"target":34962
		},
		{
			"buffer":0,
			"byteLength":24,
			"byteOffset":1272,
			"target":34963
		},
		{
			"buffer":0,
			"byteLength":168,
			"byteOffset":1296,
			"target":34962
		},
		{
			"buffer":0,
			"byteLength":168,
			"byteOffset":1464,
			"target":34962
		},
		{
			"buffer":0,
			"byteLength":112,
			"byteOffset":1632,
			"target":34962
		},
		{
			"buffer":0,
			"byteLength":112,
			"byteOffset":1744,
			"target":34962
		},
		{
			"buffer":0,
			"byteLength":36,
			"byteOffset":1856,
			"target":34963
		},
		{
			"buffer":0,
			"byteLength":96,
			"byteOffset":1892,
			"target":34962
		},
		{
			"buffer":0,
			"byteLength":96,
			"byteOffset":1988,
			"target":34962
		},
		{
			"buffer":0,
			"byteLength":64,
			"byteOffset":2084,
			"target":34962
		},
		{
			"buffer":0,
			"byteLength":64,
			"byteOffset":2148,
			"target":34962
		},
		{
			"buffer":0,
			"byteLength":24,
			"byteOffset":2212,
			"target":34963
		},
		{
			"buffer":0,
			"byteLength":48,
			"byteOffset":2236,
			"target":34962
		},
		{
			"buffer":0,
			"byteLength":48,
			"byteOffset":2284,
			"target":34962
		},
		{
			"buffer":0,
			"byteLength":32,
			"byteOffset":2332,
			"target":34962
		},
		{
			"buffer":0,
			"byteLength":32,
			"byteOffset":2364,
			"target":34962
		},
		{
			"buffer":0,
			"byteLength":12,
			"byteOffset":2396,
			"target":34963
		},
		{
			"buffer":0,
			"byteLength":96,
			"byteOffset":2408,
			"target":34962
		},
		{
			"buffer":0,
			"byteLength":96,
			"byteOffset":2504,
			"target":34962
		},
		{
			"buffer":0,
			"byteLength":64,
			"byteOffset":2600,
			"target":34962
		},
		{
			"buffer":0,
			"byteLength":64,
			"byteOffset":2664,
			"target":34962
		},
		{
			"buffer":0,
			"byteLength":144,
			"byteOffset":2728,
			"target":34962
		},
		{
			"buffer":0,
			"byteLength":144,
			"byteOffset":2872,
			"target":34962
		},
		{
			"buffer":0,
			"byteLength":96,
			"byteOffset":3016,
			"target":34962
		},
		{
			"buffer":0,
			"byteLength":96,
			"byteOffset":3112,
			"target":34962
		},
		{
			"buffer":0,
			"byteLength":36,
			"byteOffset":3208,
			"target":34963
		},
		{
			"buffer":0,
			"byteLength":168,
			"byteOffset":3244,
			"target":34962
		},
		{
			"buffer":0,
			"byteLength":168,
			"byteOffset":3412,
			"target":34962
		},
		{
			"buffer":0,
			"byteLength":112,
			"byteOffset":3580,
			"target":34962
		},
		{
			"buffer":0,
			"byteLength":112,
			"byteOffset":3692,
			"target":34962
		},
		{
			"buffer":0,
			"byteLength":42,
			"byteOffset":3804,
			"target":34963
		},
		{
			"buffer":0,
			"byteLength":48,
			"byteOffset":3848,
			"target":34962
		},
		{
			"buffer":0,
			"byteLength":48,
			"byteOffset":3896,
			"target":34962
		},
		{
			"buffer":0,
			"byteLength":32,
			"byteOffset":3944,
			"target":34962
		},
		{
			"buffer":0,
			"byteLength":12,
			"byteOffset":3976,
			"target":34963
		}
	],
	"samplers":[
		{
			"magFilter":9729,
			"minFilter":9987
		}
	],
	"buffers":[
		{
			"byteLength":3988,
			"uri":"building_2.bin"
		}
	]
}
