{
	"asset":{
		"generator":"Khronos glTF Blender I/O v4.3.47",
		"version":"2.0"
	},
	"scene":0,
	"scenes":[
		{
			"name":"Scene",
			"nodes":[
				0,
				1
			]
		}
	],
	"nodes":[
		{
			"mesh":0,
			"name":"Maxis-3d3-mesh-8",
			"rotation":[
				0.70710688829422,
				0,
				0,
				0.7071066498756409
			]
		},
		{
			"extras":{
				"gd_node":"Decal",
				"lower_fade":9,
				"upper_fade":10
			},
			"mesh":1,
			"name":"Ground_AO",
			"scale":[
				32.53517150878906,
				1,
				32.53486251831055
			],
			"translation":[
				-0.05493927001953125,
				-0.030550185590982437,
				-0.1964278221130371
			]
		}
	],
	"materials":[
		{
			"name":"matcolour-48.006",
			"occlusionTexture":{
				"index":0,
				"texCoord":1
			},
			"pbrMetallicRoughness":{
				"baseColorFactor":[
					0.05882352963089943,
					0.05882352963089943,
					0.05882352963089943,
					1
				],
				"metallicFactor":0
			}
		},
		{
			"name":"mat2-15",
			"occlusionTexture":{
				"index":1,
				"texCoord":1
			},
			"pbrMetallicRoughness":{
				"baseColorTexture":{
					"index":2
				},
				"metallicFactor":0
			}
		},
		{
			"name":"mat2-12",
			"occlusionTexture":{
				"index":3,
				"texCoord":1
			},
			"pbrMetallicRoughness":{
				"baseColorTexture":{
					"index":4
				},
				"metallicFactor":0
			}
		},
		{
			"name":"mat2-13",
			"occlusionTexture":{
				"index":5,
				"texCoord":1
			},
			"pbrMetallicRoughness":{
				"baseColorTexture":{
					"index":6
				},
				"metallicFactor":0
			}
		},
		{
			"name":"mat2-14",
			"occlusionTexture":{
				"index":7,
				"texCoord":1
			},
			"pbrMetallicRoughness":{
				"baseColorTexture":{
					"index":8
				},
				"metallicFactor":0
			}
		},
		{
			"name":"mat2-36.001",
			"occlusionTexture":{
				"index":9,
				"texCoord":1
			},
			"pbrMetallicRoughness":{
				"baseColorTexture":{
					"index":10
				},
				"metallicFactor":0
			}
		},
		{
			"name":"mat2-39.001",
			"occlusionTexture":{
				"index":11,
				"texCoord":1
			},
			"pbrMetallicRoughness":{
				"baseColorTexture":{
					"index":12
				},
				"metallicFactor":0
			}
		},
		{
			"name":"mat2-38.001",
			"occlusionTexture":{
				"index":13,
				"texCoord":1
			},
			"pbrMetallicRoughness":{
				"baseColorTexture":{
					"index":14
				},
				"metallicFactor":0
			}
		},
		{
			"name":"mat2-37.001",
			"occlusionTexture":{
				"index":15,
				"texCoord":1
			},
			"pbrMetallicRoughness":{
				"baseColorTexture":{
					"index":16
				},
				"metallicFactor":0
			}
		},
		{
			"name":"Ground_AO",
			"occlusionTexture":{
				"index":17
			},
			"pbrMetallicRoughness":{
				"baseColorFactor":[
					0.800000011920929,
					0.800000011920929,
					0.800000011920929,
					1
				],
				"metallicFactor":0,
				"roughnessFactor":0.5
			}
		}
	],
	"meshes":[
		{
			"name":"Maxis-3d3-mesh-8",
			"primitives":[
				{
					"attributes":{
						"POSITION":0,
						"NORMAL":1,
						"TEXCOORD_0":2,
						"TEXCOORD_1":3
					},
					"indices":4,
					"material":0
				},
				{
					"attributes":{
						"POSITION":5,
						"NORMAL":6,
						"TEXCOORD_0":7,
						"TEXCOORD_1":8
					},
					"indices":9,
					"material":1
				},
				{
					"attributes":{
						"POSITION":10,
						"NORMAL":11,
						"TEXCOORD_0":12,
						"TEXCOORD_1":13
					},
					"indices":14,
					"material":2
				},
				{
					"attributes":{
						"POSITION":15,
						"NORMAL":16,
						"TEXCOORD_0":17,
						"TEXCOORD_1":18
					},
					"indices":19,
					"material":3
				},
				{
					"attributes":{
						"POSITION":20,
						"NORMAL":21,
						"TEXCOORD_0":22,
						"TEXCOORD_1":23
					},
					"indices":24,
					"material":4
				},
				{
					"attributes":{
						"POSITION":25,
						"NORMAL":26,
						"TEXCOORD_0":27,
						"TEXCOORD_1":28
					},
					"indices":29,
					"material":5
				},
				{
					"attributes":{
						"POSITION":30,
						"NORMAL":31,
						"TEXCOORD_0":32,
						"TEXCOORD_1":33
					},
					"indices":34,
					"material":6
				},
				{
					"attributes":{
						"POSITION":35,
						"NORMAL":36,
						"TEXCOORD_0":37,
						"TEXCOORD_1":38
					},
					"indices":39,
					"material":7
				},
				{
					"attributes":{
						"POSITION":40,
						"NORMAL":41,
						"TEXCOORD_0":42,
						"TEXCOORD_1":43
					},
					"indices":44,
					"material":8
				}
			]
		},
		{
			"name":"Plane",
			"primitives":[
				{
					"attributes":{
						"POSITION":45,
						"NORMAL":46,
						"TEXCOORD_0":47
					},
					"indices":48,
					"material":9
				}
			]
		}
	],
	"textures":[
		{
			"sampler":0,
			"source":0
		},
		{
			"sampler":0,
			"source":0
		},
		{
			"sampler":0,
			"source":1
		},
		{
			"sampler":0,
			"source":0
		},
		{
			"sampler":0,
			"source":2
		},
		{
			"sampler":0,
			"source":0
		},
		{
			"sampler":0,
			"source":3
		},
		{
			"sampler":0,
			"source":0
		},
		{
			"sampler":0,
			"source":4
		},
		{
			"sampler":0,
			"source":0
		},
		{
			"sampler":0,
			"source":5
		},
		{
			"sampler":0,
			"source":0
		},
		{
			"sampler":0,
			"source":6
		},
		{
			"sampler":0,
			"source":0
		},
		{
			"sampler":0,
			"source":7
		},
		{
			"sampler":0,
			"source":0
		},
		{
			"sampler":0,
			"source":8
		},
		{
			"sampler":0,
			"source":9
		}
	],
	"images":[
		{
			"mimeType":"image/png",
			"name":"historic.png",
			"uri":"../../../Textures/ambient_occlusion/Buildings/Offices/historic.png"
		},
		{
			"mimeType":"image/png",
			"name":"tex2-15",
			"uri":"../../../Textures/tex2-15.png"
		},
		{
			"mimeType":"image/png",
			"name":"tex2-12",
			"uri":"../../../Textures/tex2-12.png"
		},
		{
			"mimeType":"image/png",
			"name":"tex2-13",
			"uri":"../../../Textures/tex2-13.png"
		},
		{
			"mimeType":"image/png",
			"name":"tex2-14",
			"uri":"../../../Textures/tex2-14.png"
		},
		{
			"mimeType":"image/png",
			"name":"tex2-36",
			"uri":"../../../Textures/tex2-36.png"
		},
		{
			"mimeType":"image/png",
			"name":"tex2-39",
			"uri":"../../../Textures/tex2-39.png"
		},
		{
			"mimeType":"image/png",
			"name":"tex2-38",
			"uri":"../../../Textures/tex2-38.png"
		},
		{
			"mimeType":"image/png",
			"name":"tex2-37",
			"uri":"../../../Textures/tex2-37.png"
		},
		{
			"mimeType":"image/png",
			"name":"historic_ground.png",
			"uri":"../../../Textures/ambient_occlusion/Buildings/Offices/historic_ground.png"
		}
	],
	"accessors":[
		{
			"bufferView":0,
			"componentType":5126,
			"count":76,
			"max":[
				15.712646484375,
				15.570999145507812,
				-3.6640281677246094
			],
			"min":[
				-15.822525024414062,
				-15.963859558105469,
				-38.468013763427734
			],
			"type":"VEC3"
		},
		{
			"bufferView":1,
			"componentType":5126,
			"count":76,
			"type":"VEC3"
		},
		{
			"bufferView":2,
			"componentType":5126,
			"count":76,
			"type":"VEC2"
		},
		{
			"bufferView":3,
			"componentType":5126,
			"count":76,
			"type":"VEC2"
		},
		{
			"bufferView":4,
			"componentType":5123,
			"count":144,
			"type":"SCALAR"
		},
		{
			"bufferView":5,
			"componentType":5126,
			"count":4,
			"max":[
				15.014999389648438,
				14.851619720458984,
				0.030521392822265625
			],
			"min":[
				-15.014999389648438,
				14.851615905761719,
				-3.6640472412109375
			],
			"type":"VEC3"
		},
		{
			"bufferView":6,
			"componentType":5126,
			"count":4,
			"type":"VEC3"
		},
		{
			"bufferView":7,
			"componentType":5126,
			"count":4,
			"type":"VEC2"
		},
		{
			"bufferView":8,
			"componentType":5126,
			"count":4,
			"type":"VEC2"
		},
		{
			"bufferView":9,
			"componentType":5123,
			"count":6,
			"type":"SCALAR"
		},
		{
			"bufferView":10,
			"componentType":5126,
			"count":4,
			"max":[
				15.014999389648438,
				-15.17837905883789,
				0.030548095703125
			],
			"min":[
				-15.014999389648438,
				-15.178382873535156,
				-3.6640281677246094
			],
			"type":"VEC3"
		},
		{
			"bufferView":11,
			"componentType":5126,
			"count":4,
			"type":"VEC3"
		},
		{
			"bufferView":12,
			"componentType":5126,
			"count":4,
			"type":"VEC2"
		},
		{
			"bufferView":13,
			"componentType":5126,
			"count":4,
			"type":"VEC2"
		},
		{
			"bufferView":14,
			"componentType":5123,
			"count":6,
			"type":"SCALAR"
		},
		{
			"bufferView":15,
			"componentType":5126,
			"count":4,
			"max":[
				-15.014999389648438,
				14.851619720458984,
				0.030548095703125
			],
			"min":[
				-15.014999389648438,
				-15.178382873535156,
				-3.6640472412109375
			],
			"type":"VEC3"
		},
		{
			"bufferView":16,
			"componentType":5126,
			"count":4,
			"type":"VEC3"
		},
		{
			"bufferView":17,
			"componentType":5126,
			"count":4,
			"type":"VEC2"
		},
		{
			"bufferView":18,
			"componentType":5126,
			"count":4,
			"type":"VEC2"
		},
		{
			"bufferView":19,
			"componentType":5123,
			"count":6,
			"type":"SCALAR"
		},
		{
			"bufferView":20,
			"componentType":5126,
			"count":4,
			"max":[
				15.014999389648438,
				14.851619720458984,
				0.030548095703125
			],
			"min":[
				15.014999389648438,
				-15.178382873535156,
				-3.6640472412109375
			],
			"type":"VEC3"
		},
		{
			"bufferView":21,
			"componentType":5126,
			"count":4,
			"type":"VEC3"
		},
		{
			"bufferView":22,
			"componentType":5126,
			"count":4,
			"type":"VEC2"
		},
		{
			"bufferView":23,
			"componentType":5126,
			"count":4,
			"type":"VEC2"
		},
		{
			"bufferView":24,
			"componentType":5123,
			"count":6,
			"type":"SCALAR"
		},
		{
			"bufferView":25,
			"componentType":5126,
			"count":12,
			"max":[
				15.014999389648438,
				-6.262908935546875,
				-4.543056488037109
			],
			"min":[
				-15.014999389648438,
				-15.178394317626953,
				-34.393287658691406
			],
			"type":"VEC3"
		},
		{
			"bufferView":26,
			"componentType":5126,
			"count":12,
			"type":"VEC3"
		},
		{
			"bufferView":27,
			"componentType":5126,
			"count":12,
			"type":"VEC2"
		},
		{
			"bufferView":28,
			"componentType":5126,
			"count":12,
			"type":"VEC2"
		},
		{
			"bufferView":29,
			"componentType":5123,
			"count":18,
			"type":"SCALAR"
		},
		{
			"bufferView":30,
			"componentType":5126,
			"count":12,
			"max":[
				15.014999389648438,
				14.851615905761719,
				-4.5430755615234375
			],
			"min":[
				-15.014999389648438,
				5.946815490722656,
				-34.393287658691406
			],
			"type":"VEC3"
		},
		{
			"bufferView":31,
			"componentType":5126,
			"count":12,
			"type":"VEC3"
		},
		{
			"bufferView":32,
			"componentType":5126,
			"count":12,
			"type":"VEC2"
		},
		{
			"bufferView":33,
			"componentType":5126,
			"count":12,
			"type":"VEC2"
		},
		{
			"bufferView":34,
			"componentType":5123,
			"count":18,
			"type":"SCALAR"
		},
		{
			"bufferView":35,
			"componentType":5126,
			"count":16,
			"max":[
				15.014999389648438,
				14.851615905761719,
				-4.543056488037109
			],
			"min":[
				-7.207328796386719,
				-15.178394317626953,
				-34.393287658691406
			],
			"type":"VEC3"
		},
		{
			"bufferView":36,
			"componentType":5126,
			"count":16,
			"type":"VEC3"
		},
		{
			"bufferView":37,
			"componentType":5126,
			"count":16,
			"type":"VEC2"
		},
		{
			"bufferView":38,
			"componentType":5126,
			"count":16,
			"type":"VEC2"
		},
		{
			"bufferView":39,
			"componentType":5123,
			"count":24,
			"type":"SCALAR"
		},
		{
			"bufferView":40,
			"componentType":5126,
			"count":16,
			"max":[
				6.891254425048828,
				14.851615905761719,
				-4.543056488037109
			],
			"min":[
				-15.014999389648438,
				-15.178394317626953,
				-34.393287658691406
			],
			"type":"VEC3"
		},
		{
			"bufferView":41,
			"componentType":5126,
			"count":16,
			"type":"VEC3"
		},
		{
			"bufferView":42,
			"componentType":5126,
			"count":16,
			"type":"VEC2"
		},
		{
			"bufferView":43,
			"componentType":5126,
			"count":16,
			"type":"VEC2"
		},
		{
			"bufferView":44,
			"componentType":5123,
			"count":24,
			"type":"SCALAR"
		},
		{
			"bufferView":45,
			"componentType":5126,
			"count":4,
			"max":[
				0.5,
				0,
				0.5
			],
			"min":[
				-0.5,
				0,
				-0.5
			],
			"type":"VEC3"
		},
		{
			"bufferView":46,
			"componentType":5126,
			"count":4,
			"type":"VEC3"
		},
		{
			"bufferView":47,
			"componentType":5126,
			"count":4,
			"type":"VEC2"
		},
		{
			"bufferView":48,
			"componentType":5123,
			"count":6,
			"type":"SCALAR"
		}
	],
	"bufferViews":[
		{
			"buffer":0,
			"byteLength":912,
			"byteOffset":0,
			"target":34962
		},
		{
			"buffer":0,
			"byteLength":912,
			"byteOffset":912,
			"target":34962
		},
		{
			"buffer":0,
			"byteLength":608,
			"byteOffset":1824,
			"target":34962
		},
		{
			"buffer":0,
			"byteLength":608,
			"byteOffset":2432,
			"target":34962
		},
		{
			"buffer":0,
			"byteLength":288,
			"byteOffset":3040,
			"target":34963
		},
		{
			"buffer":0,
			"byteLength":48,
			"byteOffset":3328,
			"target":34962
		},
		{
			"buffer":0,
			"byteLength":48,
			"byteOffset":3376,
			"target":34962
		},
		{
			"buffer":0,
			"byteLength":32,
			"byteOffset":3424,
			"target":34962
		},
		{
			"buffer":0,
			"byteLength":32,
			"byteOffset":3456,
			"target":34962
		},
		{
			"buffer":0,
			"byteLength":12,
			"byteOffset":3488,
			"target":34963
		},
		{
			"buffer":0,
			"byteLength":48,
			"byteOffset":3500,
			"target":34962
		},
		{
			"buffer":0,
			"byteLength":48,
			"byteOffset":3548,
			"target":34962
		},
		{
			"buffer":0,
			"byteLength":32,
			"byteOffset":3596,
			"target":34962
		},
		{
			"buffer":0,
			"byteLength":32,
			"byteOffset":3628,
			"target":34962
		},
		{
			"buffer":0,
			"byteLength":12,
			"byteOffset":3660,
			"target":34963
		},
		{
			"buffer":0,
			"byteLength":48,
			"byteOffset":3672,
			"target":34962
		},
		{
			"buffer":0,
			"byteLength":48,
			"byteOffset":3720,
			"target":34962
		},
		{
			"buffer":0,
			"byteLength":32,
			"byteOffset":3768,
			"target":34962
		},
		{
			"buffer":0,
			"byteLength":32,
			"byteOffset":3800,
			"target":34962
		},
		{
			"buffer":0,
			"byteLength":12,
			"byteOffset":3832,
			"target":34963
		},
		{
			"buffer":0,
			"byteLength":48,
			"byteOffset":3844,
			"target":34962
		},
		{
			"buffer":0,
			"byteLength":48,
			"byteOffset":3892,
			"target":34962
		},
		{
			"buffer":0,
			"byteLength":32,
			"byteOffset":3940,
			"target":34962
		},
		{
			"buffer":0,
			"byteLength":32,
			"byteOffset":3972,
			"target":34962
		},
		{
			"buffer":0,
			"byteLength":12,
			"byteOffset":4004,
			"target":34963
		},
		{
			"buffer":0,
			"byteLength":144,
			"byteOffset":4016,
			"target":34962
		},
		{
			"buffer":0,
			"byteLength":144,
			"byteOffset":4160,
			"target":34962
		},
		{
			"buffer":0,
			"byteLength":96,
			"byteOffset":4304,
			"target":34962
		},
		{
			"buffer":0,
			"byteLength":96,
			"byteOffset":4400,
			"target":34962
		},
		{
			"buffer":0,
			"byteLength":36,
			"byteOffset":4496,
			"target":34963
		},
		{
			"buffer":0,
			"byteLength":144,
			"byteOffset":4532,
			"target":34962
		},
		{
			"buffer":0,
			"byteLength":144,
			"byteOffset":4676,
			"target":34962
		},
		{
			"buffer":0,
			"byteLength":96,
			"byteOffset":4820,
			"target":34962
		},
		{
			"buffer":0,
			"byteLength":96,
			"byteOffset":4916,
			"target":34962
		},
		{
			"buffer":0,
			"byteLength":36,
			"byteOffset":5012,
			"target":34963
		},
		{
			"buffer":0,
			"byteLength":192,
			"byteOffset":5048,
			"target":34962
		},
		{
			"buffer":0,
			"byteLength":192,
			"byteOffset":5240,
			"target":34962
		},
		{
			"buffer":0,
			"byteLength":128,
			"byteOffset":5432,
			"target":34962
		},
		{
			"buffer":0,
			"byteLength":128,
			"byteOffset":5560,
			"target":34962
		},
		{
			"buffer":0,
			"byteLength":48,
			"byteOffset":5688,
			"target":34963
		},
		{
			"buffer":0,
			"byteLength":192,
			"byteOffset":5736,
			"target":34962
		},
		{
			"buffer":0,
			"byteLength":192,
			"byteOffset":5928,
			"target":34962
		},
		{
			"buffer":0,
			"byteLength":128,
			"byteOffset":6120,
			"target":34962
		},
		{
			"buffer":0,
			"byteLength":128,
			"byteOffset":6248,
			"target":34962
		},
		{
			"buffer":0,
			"byteLength":48,
			"byteOffset":6376,
			"target":34963
		},
		{
			"buffer":0,
			"byteLength":48,
			"byteOffset":6424,
			"target":34962
		},
		{
			"buffer":0,
			"byteLength":48,
			"byteOffset":6472,
			"target":34962
		},
		{
			"buffer":0,
			"byteLength":32,
			"byteOffset":6520,
			"target":34962
		},
		{
			"buffer":0,
			"byteLength":12,
			"byteOffset":6552,
			"target":34963
		}
	],
	"samplers":[
		{
			"magFilter":9729,
			"minFilter":9987
		}
	],
	"buffers":[
		{
			"byteLength":6564,
			"uri":"historic.bin"
		}
	]
}
