{
	"asset":{
		"generator":"Khronos glTF Blender I/O v4.3.47",
		"version":"2.0"
	},
	"scene":0,
	"scenes":[
		{
			"name":"Scene",
			"nodes":[
				0,
				1
			]
		}
	],
	"nodes":[
		{
			"mesh":0,
			"name":"Maxis-3d1-mesh-43",
			"rotation":[
				0.70710688829422,
				0,
				0,
				0.7071066498756409
			]
		},
		{
			"extras":{
				"gd_node":"Decal",
				"lower_fade":9,
				"upper_fade":10
			},
			"mesh":1,
			"name":"Ground_AO",
			"scale":[
				24.311248779296875,
				1,
				24.311254501342773
			],
			"translation":[
				0,
				-5.380734364734963e-06,
				1.1444091796875e-05
			]
		}
	],
	"materials":[
		{
			"name":"matcolour-48.005",
			"occlusionTexture":{
				"index":0,
				"texCoord":1
			},
			"pbrMetallicRoughness":{
				"baseColorFactor":[
					0.05882352963089943,
					0.05882352963089943,
					0.05882352963089943,
					1
				],
				"metallicFactor":0
			}
		},
		{
			"name":"mat2-15.001",
			"occlusionTexture":{
				"index":1,
				"texCoord":1
			},
			"pbrMetallicRoughness":{
				"baseColorTexture":{
					"index":2
				},
				"metallicFactor":0
			}
		},
		{
			"name":"mat2-12.001",
			"occlusionTexture":{
				"index":3,
				"texCoord":1
			},
			"pbrMetallicRoughness":{
				"baseColorTexture":{
					"index":4
				},
				"metallicFactor":0
			}
		},
		{
			"name":"mat2-14.001",
			"occlusionTexture":{
				"index":5,
				"texCoord":1
			},
			"pbrMetallicRoughness":{
				"baseColorTexture":{
					"index":6
				},
				"metallicFactor":0
			}
		},
		{
			"name":"mat2-13.001",
			"occlusionTexture":{
				"index":7,
				"texCoord":1
			},
			"pbrMetallicRoughness":{
				"baseColorTexture":{
					"index":8
				},
				"metallicFactor":0
			}
		},
		{
			"name":"mat2-55",
			"occlusionTexture":{
				"index":9,
				"texCoord":1
			},
			"pbrMetallicRoughness":{
				"baseColorTexture":{
					"index":10
				},
				"metallicFactor":0
			}
		},
		{
			"name":"mat2-52",
			"occlusionTexture":{
				"index":11,
				"texCoord":1
			},
			"pbrMetallicRoughness":{
				"baseColorTexture":{
					"index":12
				},
				"metallicFactor":0
			}
		},
		{
			"name":"mat2-54",
			"occlusionTexture":{
				"index":13,
				"texCoord":1
			},
			"pbrMetallicRoughness":{
				"baseColorTexture":{
					"index":14
				},
				"metallicFactor":0
			}
		},
		{
			"name":"mat2-53",
			"occlusionTexture":{
				"index":15,
				"texCoord":1
			},
			"pbrMetallicRoughness":{
				"baseColorTexture":{
					"index":16
				},
				"metallicFactor":0
			}
		},
		{
			"name":"mat2-59",
			"occlusionTexture":{
				"index":17,
				"texCoord":1
			},
			"pbrMetallicRoughness":{
				"baseColorTexture":{
					"index":18
				},
				"metallicFactor":0
			}
		},
		{
			"name":"mat2-56",
			"occlusionTexture":{
				"index":19,
				"texCoord":1
			},
			"pbrMetallicRoughness":{
				"baseColorTexture":{
					"index":20
				},
				"metallicFactor":0
			}
		},
		{
			"name":"mat2-58",
			"occlusionTexture":{
				"index":21,
				"texCoord":1
			},
			"pbrMetallicRoughness":{
				"baseColorTexture":{
					"index":22
				},
				"metallicFactor":0
			}
		},
		{
			"name":"mat2-57",
			"occlusionTexture":{
				"index":23,
				"texCoord":1
			},
			"pbrMetallicRoughness":{
				"baseColorTexture":{
					"index":24
				},
				"metallicFactor":0
			}
		},
		{
			"name":"Ground_AO",
			"occlusionTexture":{
				"index":25
			},
			"pbrMetallicRoughness":{
				"baseColorFactor":[
					0.800000011920929,
					0.800000011920929,
					0.800000011920929,
					1
				],
				"metallicFactor":0,
				"roughnessFactor":0.5
			}
		}
	],
	"meshes":[
		{
			"name":"Maxis-3d1-mesh-43",
			"primitives":[
				{
					"attributes":{
						"POSITION":0,
						"NORMAL":1,
						"TEXCOORD_0":2,
						"TEXCOORD_1":3
					},
					"indices":4,
					"material":0
				},
				{
					"attributes":{
						"POSITION":5,
						"NORMAL":6,
						"TEXCOORD_0":7,
						"TEXCOORD_1":8
					},
					"indices":9,
					"material":1
				},
				{
					"attributes":{
						"POSITION":10,
						"NORMAL":11,
						"TEXCOORD_0":12,
						"TEXCOORD_1":13
					},
					"indices":14,
					"material":2
				},
				{
					"attributes":{
						"POSITION":15,
						"NORMAL":16,
						"TEXCOORD_0":17,
						"TEXCOORD_1":18
					},
					"indices":19,
					"material":3
				},
				{
					"attributes":{
						"POSITION":20,
						"NORMAL":21,
						"TEXCOORD_0":22,
						"TEXCOORD_1":23
					},
					"indices":24,
					"material":4
				},
				{
					"attributes":{
						"POSITION":25,
						"NORMAL":26,
						"TEXCOORD_0":27,
						"TEXCOORD_1":28
					},
					"indices":29,
					"material":5
				},
				{
					"attributes":{
						"POSITION":30,
						"NORMAL":31,
						"TEXCOORD_0":32,
						"TEXCOORD_1":33
					},
					"indices":9,
					"material":6
				},
				{
					"attributes":{
						"POSITION":34,
						"NORMAL":35,
						"TEXCOORD_0":36,
						"TEXCOORD_1":37
					},
					"indices":29,
					"material":7
				},
				{
					"attributes":{
						"POSITION":38,
						"NORMAL":39,
						"TEXCOORD_0":40,
						"TEXCOORD_1":41
					},
					"indices":24,
					"material":8
				},
				{
					"attributes":{
						"POSITION":42,
						"NORMAL":43,
						"TEXCOORD_0":44,
						"TEXCOORD_1":45
					},
					"indices":46,
					"material":9
				},
				{
					"attributes":{
						"POSITION":47,
						"NORMAL":48,
						"TEXCOORD_0":49,
						"TEXCOORD_1":50
					},
					"indices":51,
					"material":10
				},
				{
					"attributes":{
						"POSITION":52,
						"NORMAL":53,
						"TEXCOORD_0":54,
						"TEXCOORD_1":55
					},
					"indices":56,
					"material":11
				},
				{
					"attributes":{
						"POSITION":57,
						"NORMAL":58,
						"TEXCOORD_0":59,
						"TEXCOORD_1":60
					},
					"indices":61,
					"material":12
				}
			]
		},
		{
			"name":"Plane",
			"primitives":[
				{
					"attributes":{
						"POSITION":62,
						"NORMAL":63,
						"TEXCOORD_0":64
					},
					"indices":29,
					"material":13
				}
			]
		}
	],
	"textures":[
		{
			"sampler":0,
			"source":0
		},
		{
			"sampler":0,
			"source":0
		},
		{
			"sampler":0,
			"source":1
		},
		{
			"sampler":0,
			"source":0
		},
		{
			"sampler":0,
			"source":2
		},
		{
			"sampler":0,
			"source":0
		},
		{
			"sampler":0,
			"source":3
		},
		{
			"sampler":0,
			"source":0
		},
		{
			"sampler":0,
			"source":4
		},
		{
			"sampler":0,
			"source":0
		},
		{
			"sampler":0,
			"source":5
		},
		{
			"sampler":0,
			"source":0
		},
		{
			"sampler":0,
			"source":6
		},
		{
			"sampler":0,
			"source":0
		},
		{
			"sampler":0,
			"source":7
		},
		{
			"sampler":0,
			"source":0
		},
		{
			"sampler":0,
			"source":8
		},
		{
			"sampler":0,
			"source":0
		},
		{
			"sampler":0,
			"source":9
		},
		{
			"sampler":0,
			"source":0
		},
		{
			"sampler":0,
			"source":10
		},
		{
			"sampler":0,
			"source":0
		},
		{
			"sampler":0,
			"source":11
		},
		{
			"sampler":0,
			"source":0
		},
		{
			"sampler":0,
			"source":12
		},
		{
			"sampler":0,
			"source":13
		}
	],
	"images":[
		{
			"mimeType":"image/png",
			"name":"medium_3.png",
			"uri":"../../../Textures/ambient_occlusion/Buildings/Offices/medium_3.png"
		},
		{
			"mimeType":"image/png",
			"name":"tex2-15",
			"uri":"../../../Textures/tex2-15.png"
		},
		{
			"mimeType":"image/png",
			"name":"tex2-12",
			"uri":"../../../Textures/tex2-12.png"
		},
		{
			"mimeType":"image/png",
			"name":"tex2-14",
			"uri":"../../../Textures/tex2-14.png"
		},
		{
			"mimeType":"image/png",
			"name":"tex2-13",
			"uri":"../../../Textures/tex2-13.png"
		},
		{
			"mimeType":"image/png",
			"name":"tex2-55",
			"uri":"../../../Textures/tex2-55.png"
		},
		{
			"mimeType":"image/png",
			"name":"tex2-52",
			"uri":"../../../Textures/tex2-52.png"
		},
		{
			"mimeType":"image/png",
			"name":"tex2-54",
			"uri":"../../../Textures/tex2-54.png"
		},
		{
			"mimeType":"image/png",
			"name":"tex2-53",
			"uri":"../../../Textures/tex2-53.png"
		},
		{
			"mimeType":"image/png",
			"name":"tex2-59",
			"uri":"../../../Textures/tex2-59.png"
		},
		{
			"mimeType":"image/png",
			"name":"tex2-56",
			"uri":"../../../Textures/tex2-56.png"
		},
		{
			"mimeType":"image/png",
			"name":"tex2-58",
			"uri":"../../../Textures/tex2-58.png"
		},
		{
			"mimeType":"image/png",
			"name":"tex2-57",
			"uri":"../../../Textures/tex2-57.png"
		},
		{
			"mimeType":"image/png",
			"name":"medium_3_ground.png",
			"uri":"../../../Textures/ambient_occlusion/Buildings/Offices/medium_3_ground.png"
		}
	],
	"accessors":[
		{
			"bufferView":0,
			"componentType":5126,
			"count":52,
			"max":[
				11.655624389648438,
				11.655632019042969,
				-4.800052642822266
			],
			"min":[
				-11.655624389648438,
				-11.655616760253906,
				-58.61704635620117
			],
			"type":"VEC3"
		},
		{
			"bufferView":1,
			"componentType":5126,
			"count":52,
			"type":"VEC3"
		},
		{
			"bufferView":2,
			"componentType":5126,
			"count":52,
			"type":"VEC2"
		},
		{
			"bufferView":3,
			"componentType":5126,
			"count":52,
			"type":"VEC2"
		},
		{
			"bufferView":4,
			"componentType":5123,
			"count":120,
			"type":"SCALAR"
		},
		{
			"bufferView":5,
			"componentType":5126,
			"count":4,
			"max":[
				11.655624389648438,
				11.655632019042969,
				0
			],
			"min":[
				-11.655624389648438,
				11.655632019042969,
				-4.800060272216797
			],
			"type":"VEC3"
		},
		{
			"bufferView":6,
			"componentType":5126,
			"count":4,
			"type":"VEC3"
		},
		{
			"bufferView":7,
			"componentType":5126,
			"count":4,
			"type":"VEC2"
		},
		{
			"bufferView":8,
			"componentType":5126,
			"count":4,
			"type":"VEC2"
		},
		{
			"bufferView":9,
			"componentType":5123,
			"count":6,
			"type":"SCALAR"
		},
		{
			"bufferView":10,
			"componentType":5126,
			"count":4,
			"max":[
				11.655624389648438,
				-11.655616760253906,
				3.814697265625e-06
			],
			"min":[
				-11.655624389648438,
				-11.655616760253906,
				-4.800052642822266
			],
			"type":"VEC3"
		},
		{
			"bufferView":11,
			"componentType":5126,
			"count":4,
			"type":"VEC3"
		},
		{
			"bufferView":12,
			"componentType":5126,
			"count":4,
			"type":"VEC2"
		},
		{
			"bufferView":13,
			"componentType":5126,
			"count":4,
			"type":"VEC2"
		},
		{
			"bufferView":14,
			"componentType":5123,
			"count":6,
			"type":"SCALAR"
		},
		{
			"bufferView":15,
			"componentType":5126,
			"count":4,
			"max":[
				11.655624389648438,
				11.655632019042969,
				3.814697265625e-06
			],
			"min":[
				11.655624389648438,
				-11.655616760253906,
				-4.800060272216797
			],
			"type":"VEC3"
		},
		{
			"bufferView":16,
			"componentType":5126,
			"count":4,
			"type":"VEC3"
		},
		{
			"bufferView":17,
			"componentType":5126,
			"count":4,
			"type":"VEC2"
		},
		{
			"bufferView":18,
			"componentType":5126,
			"count":4,
			"type":"VEC2"
		},
		{
			"bufferView":19,
			"componentType":5123,
			"count":6,
			"type":"SCALAR"
		},
		{
			"bufferView":20,
			"componentType":5126,
			"count":4,
			"max":[
				-11.655624389648438,
				11.655632019042969,
				3.814697265625e-06
			],
			"min":[
				-11.655624389648438,
				-11.655616760253906,
				-4.800060272216797
			],
			"type":"VEC3"
		},
		{
			"bufferView":21,
			"componentType":5126,
			"count":4,
			"type":"VEC3"
		},
		{
			"bufferView":22,
			"componentType":5126,
			"count":4,
			"type":"VEC2"
		},
		{
			"bufferView":23,
			"componentType":5126,
			"count":4,
			"type":"VEC2"
		},
		{
			"bufferView":24,
			"componentType":5123,
			"count":6,
			"type":"SCALAR"
		},
		{
			"bufferView":25,
			"componentType":5126,
			"count":4,
			"max":[
				10.922786712646484,
				10.92279052734375,
				-4.800056457519531
			],
			"min":[
				-10.922786712646484,
				10.922786712646484,
				-23.687477111816406
			],
			"type":"VEC3"
		},
		{
			"bufferView":26,
			"componentType":5126,
			"count":4,
			"type":"VEC3"
		},
		{
			"bufferView":27,
			"componentType":5126,
			"count":4,
			"type":"VEC2"
		},
		{
			"bufferView":28,
			"componentType":5126,
			"count":4,
			"type":"VEC2"
		},
		{
			"bufferView":29,
			"componentType":5123,
			"count":6,
			"type":"SCALAR"
		},
		{
			"bufferView":30,
			"componentType":5126,
			"count":4,
			"max":[
				10.922786712646484,
				-10.922779083251953,
				-4.800056457519531
			],
			"min":[
				-10.922786712646484,
				-10.922786712646484,
				-23.687469482421875
			],
			"type":"VEC3"
		},
		{
			"bufferView":31,
			"componentType":5126,
			"count":4,
			"type":"VEC3"
		},
		{
			"bufferView":32,
			"componentType":5126,
			"count":4,
			"type":"VEC2"
		},
		{
			"bufferView":33,
			"componentType":5126,
			"count":4,
			"type":"VEC2"
		},
		{
			"bufferView":34,
			"componentType":5126,
			"count":4,
			"max":[
				10.922786712646484,
				10.92279052734375,
				-4.800056457519531
			],
			"min":[
				10.922786712646484,
				-10.922786712646484,
				-23.687477111816406
			],
			"type":"VEC3"
		},
		{
			"bufferView":35,
			"componentType":5126,
			"count":4,
			"type":"VEC3"
		},
		{
			"bufferView":36,
			"componentType":5126,
			"count":4,
			"type":"VEC2"
		},
		{
			"bufferView":37,
			"componentType":5126,
			"count":4,
			"type":"VEC2"
		},
		{
			"bufferView":38,
			"componentType":5126,
			"count":4,
			"max":[
				-10.922786712646484,
				10.92279052734375,
				-4.800056457519531
			],
			"min":[
				-10.922786712646484,
				-10.922786712646484,
				-23.687477111816406
			],
			"type":"VEC3"
		},
		{
			"bufferView":39,
			"componentType":5126,
			"count":4,
			"type":"VEC3"
		},
		{
			"bufferView":40,
			"componentType":5126,
			"count":4,
			"type":"VEC2"
		},
		{
			"bufferView":41,
			"componentType":5126,
			"count":4,
			"type":"VEC2"
		},
		{
			"bufferView":42,
			"componentType":5126,
			"count":12,
			"max":[
				9.725414276123047,
				4.576667785644531,
				-23.687477111816406
			],
			"min":[
				-6.864997863769531,
				3.4324989318847656,
				-53.468292236328125
			],
			"type":"VEC3"
		},
		{
			"bufferView":43,
			"componentType":5126,
			"count":12,
			"type":"VEC3"
		},
		{
			"bufferView":44,
			"componentType":5126,
			"count":12,
			"type":"VEC2"
		},
		{
			"bufferView":45,
			"componentType":5126,
			"count":12,
			"type":"VEC2"
		},
		{
			"bufferView":46,
			"componentType":5123,
			"count":18,
			"type":"SCALAR"
		},
		{
			"bufferView":47,
			"componentType":5126,
			"count":12,
			"max":[
				9.725414276123047,
				-3.4324951171875,
				-23.68747329711914
			],
			"min":[
				-6.864997863769531,
				-4.576671600341797,
				-53.468292236328125
			],
			"type":"VEC3"
		},
		{
			"bufferView":48,
			"componentType":5126,
			"count":12,
			"type":"VEC3"
		},
		{
			"bufferView":49,
			"componentType":5126,
			"count":12,
			"type":"VEC2"
		},
		{
			"bufferView":50,
			"componentType":5126,
			"count":12,
			"type":"VEC2"
		},
		{
			"bufferView":51,
			"componentType":5123,
			"count":18,
			"type":"SCALAR"
		},
		{
			"bufferView":52,
			"componentType":5126,
			"count":16,
			"max":[
				9.725414276123047,
				4.576667785644531,
				-23.68747329711914
			],
			"min":[
				0.7401313781738281,
				-4.576671600341797,
				-53.468292236328125
			],
			"type":"VEC3"
		},
		{
			"bufferView":53,
			"componentType":5126,
			"count":16,
			"type":"VEC3"
		},
		{
			"bufferView":54,
			"componentType":5126,
			"count":16,
			"type":"VEC2"
		},
		{
			"bufferView":55,
			"componentType":5126,
			"count":16,
			"type":"VEC2"
		},
		{
			"bufferView":56,
			"componentType":5123,
			"count":30,
			"type":"SCALAR"
		},
		{
			"bufferView":57,
			"componentType":5126,
			"count":8,
			"max":[
				-5.888881683349609,
				4.576667785644531,
				-23.68747329711914
			],
			"min":[
				-6.864997863769531,
				-4.576671600341797,
				-53.468292236328125
			],
			"type":"VEC3"
		},
		{
			"bufferView":58,
			"componentType":5126,
			"count":8,
			"type":"VEC3"
		},
		{
			"bufferView":59,
			"componentType":5126,
			"count":8,
			"type":"VEC2"
		},
		{
			"bufferView":60,
			"componentType":5126,
			"count":8,
			"type":"VEC2"
		},
		{
			"bufferView":61,
			"componentType":5123,
			"count":12,
			"type":"SCALAR"
		},
		{
			"bufferView":62,
			"componentType":5126,
			"count":4,
			"max":[
				0.5,
				0,
				0.5
			],
			"min":[
				-0.5,
				0,
				-0.5
			],
			"type":"VEC3"
		},
		{
			"bufferView":63,
			"componentType":5126,
			"count":4,
			"type":"VEC3"
		},
		{
			"bufferView":64,
			"componentType":5126,
			"count":4,
			"type":"VEC2"
		}
	],
	"bufferViews":[
		{
			"buffer":0,
			"byteLength":624,
			"byteOffset":0,
			"target":34962
		},
		{
			"buffer":0,
			"byteLength":624,
			"byteOffset":624,
			"target":34962
		},
		{
			"buffer":0,
			"byteLength":416,
			"byteOffset":1248,
			"target":34962
		},
		{
			"buffer":0,
			"byteLength":416,
			"byteOffset":1664,
			"target":34962
		},
		{
			"buffer":0,
			"byteLength":240,
			"byteOffset":2080,
			"target":34963
		},
		{
			"buffer":0,
			"byteLength":48,
			"byteOffset":2320,
			"target":34962
		},
		{
			"buffer":0,
			"byteLength":48,
			"byteOffset":2368,
			"target":34962
		},
		{
			"buffer":0,
			"byteLength":32,
			"byteOffset":2416,
			"target":34962
		},
		{
			"buffer":0,
			"byteLength":32,
			"byteOffset":2448,
			"target":34962
		},
		{
			"buffer":0,
			"byteLength":12,
			"byteOffset":2480,
			"target":34963
		},
		{
			"buffer":0,
			"byteLength":48,
			"byteOffset":2492,
			"target":34962
		},
		{
			"buffer":0,
			"byteLength":48,
			"byteOffset":2540,
			"target":34962
		},
		{
			"buffer":0,
			"byteLength":32,
			"byteOffset":2588,
			"target":34962
		},
		{
			"buffer":0,
			"byteLength":32,
			"byteOffset":2620,
			"target":34962
		},
		{
			"buffer":0,
			"byteLength":12,
			"byteOffset":2652,
			"target":34963
		},
		{
			"buffer":0,
			"byteLength":48,
			"byteOffset":2664,
			"target":34962
		},
		{
			"buffer":0,
			"byteLength":48,
			"byteOffset":2712,
			"target":34962
		},
		{
			"buffer":0,
			"byteLength":32,
			"byteOffset":2760,
			"target":34962
		},
		{
			"buffer":0,
			"byteLength":32,
			"byteOffset":2792,
			"target":34962
		},
		{
			"buffer":0,
			"byteLength":12,
			"byteOffset":2824,
			"target":34963
		},
		{
			"buffer":0,
			"byteLength":48,
			"byteOffset":2836,
			"target":34962
		},
		{
			"buffer":0,
			"byteLength":48,
			"byteOffset":2884,
			"target":34962
		},
		{
			"buffer":0,
			"byteLength":32,
			"byteOffset":2932,
			"target":34962
		},
		{
			"buffer":0,
			"byteLength":32,
			"byteOffset":2964,
			"target":34962
		},
		{
			"buffer":0,
			"byteLength":12,
			"byteOffset":2996,
			"target":34963
		},
		{
			"buffer":0,
			"byteLength":48,
			"byteOffset":3008,
			"target":34962
		},
		{
			"buffer":0,
			"byteLength":48,
			"byteOffset":3056,
			"target":34962
		},
		{
			"buffer":0,
			"byteLength":32,
			"byteOffset":3104,
			"target":34962
		},
		{
			"buffer":0,
			"byteLength":32,
			"byteOffset":3136,
			"target":34962
		},
		{
			"buffer":0,
			"byteLength":12,
			"byteOffset":3168,
			"target":34963
		},
		{
			"buffer":0,
			"byteLength":48,
			"byteOffset":3180,
			"target":34962
		},
		{
			"buffer":0,
			"byteLength":48,
			"byteOffset":3228,
			"target":34962
		},
		{
			"buffer":0,
			"byteLength":32,
			"byteOffset":3276,
			"target":34962
		},
		{
			"buffer":0,
			"byteLength":32,
			"byteOffset":3308,
			"target":34962
		},
		{
			"buffer":0,
			"byteLength":48,
			"byteOffset":3340,
			"target":34962
		},
		{
			"buffer":0,
			"byteLength":48,
			"byteOffset":3388,
			"target":34962
		},
		{
			"buffer":0,
			"byteLength":32,
			"byteOffset":3436,
			"target":34962
		},
		{
			"buffer":0,
			"byteLength":32,
			"byteOffset":3468,
			"target":34962
		},
		{
			"buffer":0,
			"byteLength":48,
			"byteOffset":3500,
			"target":34962
		},
		{
			"buffer":0,
			"byteLength":48,
			"byteOffset":3548,
			"target":34962
		},
		{
			"buffer":0,
			"byteLength":32,
			"byteOffset":3596,
			"target":34962
		},
		{
			"buffer":0,
			"byteLength":32,
			"byteOffset":3628,
			"target":34962
		},
		{
			"buffer":0,
			"byteLength":144,
			"byteOffset":3660,
			"target":34962
		},
		{
			"buffer":0,
			"byteLength":144,
			"byteOffset":3804,
			"target":34962
		},
		{
			"buffer":0,
			"byteLength":96,
			"byteOffset":3948,
			"target":34962
		},
		{
			"buffer":0,
			"byteLength":96,
			"byteOffset":4044,
			"target":34962
		},
		{
			"buffer":0,
			"byteLength":36,
			"byteOffset":4140,
			"target":34963
		},
		{
			"buffer":0,
			"byteLength":144,
			"byteOffset":4176,
			"target":34962
		},
		{
			"buffer":0,
			"byteLength":144,
			"byteOffset":4320,
			"target":34962
		},
		{
			"buffer":0,
			"byteLength":96,
			"byteOffset":4464,
			"target":34962
		},
		{
			"buffer":0,
			"byteLength":96,
			"byteOffset":4560,
			"target":34962
		},
		{
			"buffer":0,
			"byteLength":36,
			"byteOffset":4656,
			"target":34963
		},
		{
			"buffer":0,
			"byteLength":192,
			"byteOffset":4692,
			"target":34962
		},
		{
			"buffer":0,
			"byteLength":192,
			"byteOffset":4884,
			"target":34962
		},
		{
			"buffer":0,
			"byteLength":128,
			"byteOffset":5076,
			"target":34962
		},
		{
			"buffer":0,
			"byteLength":128,
			"byteOffset":5204,
			"target":34962
		},
		{
			"buffer":0,
			"byteLength":60,
			"byteOffset":5332,
			"target":34963
		},
		{
			"buffer":0,
			"byteLength":96,
			"byteOffset":5392,
			"target":34962
		},
		{
			"buffer":0,
			"byteLength":96,
			"byteOffset":5488,
			"target":34962
		},
		{
			"buffer":0,
			"byteLength":64,
			"byteOffset":5584,
			"target":34962
		},
		{
			"buffer":0,
			"byteLength":64,
			"byteOffset":5648,
			"target":34962
		},
		{
			"buffer":0,
			"byteLength":24,
			"byteOffset":5712,
			"target":34963
		},
		{
			"buffer":0,
			"byteLength":48,
			"byteOffset":5736,
			"target":34962
		},
		{
			"buffer":0,
			"byteLength":48,
			"byteOffset":5784,
			"target":34962
		},
		{
			"buffer":0,
			"byteLength":32,
			"byteOffset":5832,
			"target":34962
		}
	],
	"samplers":[
		{
			"magFilter":9729,
			"minFilter":9987
		}
	],
	"buffers":[
		{
			"byteLength":5864,
			"uri":"medium_3.bin"
		}
	]
}
