{
	"asset":{
		"generator":"Khronos glTF Blender I/O v4.3.47",
		"version":"2.0"
	},
	"scene":0,
	"scenes":[
		{
			"name":"Scene",
			"nodes":[
				0,
				1
			]
		}
	],
	"nodes":[
		{
			"mesh":0,
			"name":"Maxis-3d1-mesh-45",
			"rotation":[
				0.70710688829422,
				0,
				0,
				0.7071066498756409
			]
		},
		{
			"extras":{
				"gd_node":"Decal",
				"lower_fade":9,
				"upper_fade":10
			},
			"mesh":1,
			"name":"Ground_AO",
			"scale":[
				26.80242919921875,
				1,
				28.04631805419922
			],
			"translation":[
				-0.6342315673828125,
				-0.020147237926721573,
				0.05417680740356445
			]
		}
	],
	"materials":[
		{
			"name":"mat2-31.003",
			"occlusionTexture":{
				"index":0,
				"texCoord":1
			},
			"pbrMetallicRoughness":{
				"baseColorTexture":{
					"index":1
				},
				"metallicFactor":0
			}
		},
		{
			"name":"mat2-28.003",
			"occlusionTexture":{
				"index":2,
				"texCoord":1
			},
			"pbrMetallicRoughness":{
				"baseColorTexture":{
					"index":3
				},
				"metallicFactor":0
			}
		},
		{
			"name":"mat2-29.003",
			"occlusionTexture":{
				"index":4,
				"texCoord":1
			},
			"pbrMetallicRoughness":{
				"baseColorTexture":{
					"index":5
				},
				"metallicFactor":0
			}
		},
		{
			"name":"mat2-30.003",
			"occlusionTexture":{
				"index":6,
				"texCoord":1
			},
			"pbrMetallicRoughness":{
				"baseColorTexture":{
					"index":7
				},
				"metallicFactor":0
			}
		},
		{
			"name":"mat39-8",
			"occlusionTexture":{
				"index":8,
				"texCoord":1
			},
			"pbrMetallicRoughness":{
				"baseColorTexture":{
					"index":9
				},
				"metallicFactor":0
			}
		},
		{
			"name":"matcolour-48.007",
			"occlusionTexture":{
				"index":10,
				"texCoord":1
			},
			"pbrMetallicRoughness":{
				"baseColorFactor":[
					0.05882352963089943,
					0.05882352963089943,
					0.05882352963089943,
					1
				],
				"metallicFactor":0
			}
		},
		{
			"name":"Ground_AO",
			"occlusionTexture":{
				"index":11
			},
			"pbrMetallicRoughness":{
				"baseColorFactor":[
					0.800000011920929,
					0.800000011920929,
					0.800000011920929,
					1
				],
				"metallicFactor":0,
				"roughnessFactor":0.5
			}
		}
	],
	"meshes":[
		{
			"name":"Maxis-3d1-mesh-45",
			"primitives":[
				{
					"attributes":{
						"POSITION":0,
						"NORMAL":1,
						"TEXCOORD_0":2,
						"TEXCOORD_1":3
					},
					"indices":4,
					"material":0
				},
				{
					"attributes":{
						"POSITION":5,
						"NORMAL":6,
						"TEXCOORD_0":7,
						"TEXCOORD_1":8
					},
					"indices":9,
					"material":1
				},
				{
					"attributes":{
						"POSITION":10,
						"NORMAL":11,
						"TEXCOORD_0":12,
						"TEXCOORD_1":13
					},
					"indices":14,
					"material":2
				},
				{
					"attributes":{
						"POSITION":15,
						"NORMAL":16,
						"TEXCOORD_0":17,
						"TEXCOORD_1":18
					},
					"indices":19,
					"material":3
				},
				{
					"attributes":{
						"POSITION":20,
						"NORMAL":21,
						"TEXCOORD_0":22,
						"TEXCOORD_1":23
					},
					"indices":24,
					"material":4
				},
				{
					"attributes":{
						"POSITION":25,
						"NORMAL":26,
						"TEXCOORD_0":27,
						"TEXCOORD_1":28
					},
					"indices":29,
					"material":5
				}
			]
		},
		{
			"name":"Plane",
			"primitives":[
				{
					"attributes":{
						"POSITION":30,
						"NORMAL":31,
						"TEXCOORD_0":32
					},
					"indices":33,
					"material":6
				}
			]
		}
	],
	"textures":[
		{
			"sampler":0,
			"source":0
		},
		{
			"sampler":0,
			"source":1
		},
		{
			"sampler":0,
			"source":0
		},
		{
			"sampler":0,
			"source":2
		},
		{
			"sampler":0,
			"source":0
		},
		{
			"sampler":0,
			"source":3
		},
		{
			"sampler":0,
			"source":0
		},
		{
			"sampler":0,
			"source":4
		},
		{
			"sampler":0,
			"source":0
		},
		{
			"sampler":0,
			"source":5
		},
		{
			"sampler":0,
			"source":0
		},
		{
			"sampler":0,
			"source":6
		}
	],
	"images":[
		{
			"mimeType":"image/png",
			"name":"medium_5.png",
			"uri":"../../../Textures/ambient_occlusion/Buildings/Offices/medium_5.png"
		},
		{
			"mimeType":"image/png",
			"name":"tex2-31",
			"uri":"../../../Textures/tex2-31.png"
		},
		{
			"mimeType":"image/png",
			"name":"tex2-28",
			"uri":"../../../Textures/tex2-28.png"
		},
		{
			"mimeType":"image/png",
			"name":"tex2-29",
			"uri":"../../../Textures/tex2-29.png"
		},
		{
			"mimeType":"image/png",
			"name":"tex2-30",
			"uri":"../../../Textures/tex2-30.png"
		},
		{
			"mimeType":"image/png",
			"name":"tex39-8",
			"uri":"../../../Textures/tex39-8.png"
		},
		{
			"mimeType":"image/png",
			"name":"medium_5_ground.png",
			"uri":"../../../Textures/ambient_occlusion/Buildings/Offices/medium_5_ground.png"
		}
	],
	"accessors":[
		{
			"bufferView":0,
			"componentType":5126,
			"count":10,
			"max":[
				12.264778137207031,
				13.57733154296875,
				0.017932891845703125
			],
			"min":[
				-13.535446166992188,
				13.577323913574219,
				-32.51018524169922
			],
			"type":"VEC3"
		},
		{
			"bufferView":1,
			"componentType":5126,
			"count":10,
			"type":"VEC3"
		},
		{
			"bufferView":2,
			"componentType":5126,
			"count":10,
			"type":"VEC2"
		},
		{
			"bufferView":3,
			"componentType":5126,
			"count":10,
			"type":"VEC2"
		},
		{
			"bufferView":4,
			"componentType":5123,
			"count":18,
			"type":"SCALAR"
		},
		{
			"bufferView":5,
			"componentType":5126,
			"count":6,
			"max":[
				12.266983032226562,
				-13.468978881835938,
				0.020145416259765625
			],
			"min":[
				-13.533241271972656,
				-13.468978881835938,
				-23.313499450683594
			],
			"type":"VEC3"
		},
		{
			"bufferView":6,
			"componentType":5126,
			"count":6,
			"type":"VEC3"
		},
		{
			"bufferView":7,
			"componentType":5126,
			"count":6,
			"type":"VEC2"
		},
		{
			"bufferView":8,
			"componentType":5126,
			"count":6,
			"type":"VEC2"
		},
		{
			"bufferView":9,
			"componentType":5123,
			"count":12,
			"type":"SCALAR"
		},
		{
			"bufferView":10,
			"componentType":5126,
			"count":8,
			"max":[
				-4.859077453613281,
				13.57733154296875,
				0.020145416259765625
			],
			"min":[
				-13.535446166992188,
				-13.468982696533203,
				-32.51018524169922
			],
			"type":"VEC3"
		},
		{
			"bufferView":11,
			"componentType":5126,
			"count":8,
			"type":"VEC3"
		},
		{
			"bufferView":12,
			"componentType":5126,
			"count":8,
			"type":"VEC2"
		},
		{
			"bufferView":13,
			"componentType":5126,
			"count":8,
			"type":"VEC2"
		},
		{
			"bufferView":14,
			"componentType":5123,
			"count":12,
			"type":"SCALAR"
		},
		{
			"bufferView":15,
			"componentType":5126,
			"count":8,
			"max":[
				12.266983032226562,
				13.57733154296875,
				0.020145416259765625
			],
			"min":[
				11.402782440185547,
				-13.468982696533203,
				-32.51018524169922
			],
			"type":"VEC3"
		},
		{
			"bufferView":16,
			"componentType":5126,
			"count":8,
			"type":"VEC3"
		},
		{
			"bufferView":17,
			"componentType":5126,
			"count":8,
			"type":"VEC2"
		},
		{
			"bufferView":18,
			"componentType":5126,
			"count":8,
			"type":"VEC2"
		},
		{
			"bufferView":19,
			"componentType":5123,
			"count":12,
			"type":"SCALAR"
		},
		{
			"bufferView":20,
			"componentType":5126,
			"count":4,
			"max":[
				11.404983520507812,
				-13.468978881835938,
				-23.291675567626953
			],
			"min":[
				-4.859077453613281,
				-13.468982696533203,
				-32.507972717285156
			],
			"type":"VEC3"
		},
		{
			"bufferView":21,
			"componentType":5126,
			"count":4,
			"type":"VEC3"
		},
		{
			"bufferView":22,
			"componentType":5126,
			"count":4,
			"type":"VEC2"
		},
		{
			"bufferView":23,
			"componentType":5126,
			"count":4,
			"type":"VEC2"
		},
		{
			"bufferView":24,
			"componentType":5123,
			"count":6,
			"type":"SCALAR"
		},
		{
			"bufferView":25,
			"componentType":5126,
			"count":40,
			"max":[
				12.266983032226562,
				13.577327728271484,
				-23.291675567626953
			],
			"min":[
				-13.535446166992188,
				-13.468982696533203,
				-32.5244140625
			],
			"type":"VEC3"
		},
		{
			"bufferView":26,
			"componentType":5126,
			"count":40,
			"type":"VEC3"
		},
		{
			"bufferView":27,
			"componentType":5126,
			"count":40,
			"type":"VEC2"
		},
		{
			"bufferView":28,
			"componentType":5126,
			"count":40,
			"type":"VEC2"
		},
		{
			"bufferView":29,
			"componentType":5123,
			"count":66,
			"type":"SCALAR"
		},
		{
			"bufferView":30,
			"componentType":5126,
			"count":4,
			"max":[
				0.5,
				0,
				0.5
			],
			"min":[
				-0.5,
				0,
				-0.5
			],
			"type":"VEC3"
		},
		{
			"bufferView":31,
			"componentType":5126,
			"count":4,
			"type":"VEC3"
		},
		{
			"bufferView":32,
			"componentType":5126,
			"count":4,
			"type":"VEC2"
		},
		{
			"bufferView":33,
			"componentType":5123,
			"count":6,
			"type":"SCALAR"
		}
	],
	"bufferViews":[
		{
			"buffer":0,
			"byteLength":120,
			"byteOffset":0,
			"target":34962
		},
		{
			"buffer":0,
			"byteLength":120,
			"byteOffset":120,
			"target":34962
		},
		{
			"buffer":0,
			"byteLength":80,
			"byteOffset":240,
			"target":34962
		},
		{
			"buffer":0,
			"byteLength":80,
			"byteOffset":320,
			"target":34962
		},
		{
			"buffer":0,
			"byteLength":36,
			"byteOffset":400,
			"target":34963
		},
		{
			"buffer":0,
			"byteLength":72,
			"byteOffset":436,
			"target":34962
		},
		{
			"buffer":0,
			"byteLength":72,
			"byteOffset":508,
			"target":34962
		},
		{
			"buffer":0,
			"byteLength":48,
			"byteOffset":580,
			"target":34962
		},
		{
			"buffer":0,
			"byteLength":48,
			"byteOffset":628,
			"target":34962
		},
		{
			"buffer":0,
			"byteLength":24,
			"byteOffset":676,
			"target":34963
		},
		{
			"buffer":0,
			"byteLength":96,
			"byteOffset":700,
			"target":34962
		},
		{
			"buffer":0,
			"byteLength":96,
			"byteOffset":796,
			"target":34962
		},
		{
			"buffer":0,
			"byteLength":64,
			"byteOffset":892,
			"target":34962
		},
		{
			"buffer":0,
			"byteLength":64,
			"byteOffset":956,
			"target":34962
		},
		{
			"buffer":0,
			"byteLength":24,
			"byteOffset":1020,
			"target":34963
		},
		{
			"buffer":0,
			"byteLength":96,
			"byteOffset":1044,
			"target":34962
		},
		{
			"buffer":0,
			"byteLength":96,
			"byteOffset":1140,
			"target":34962
		},
		{
			"buffer":0,
			"byteLength":64,
			"byteOffset":1236,
			"target":34962
		},
		{
			"buffer":0,
			"byteLength":64,
			"byteOffset":1300,
			"target":34962
		},
		{
			"buffer":0,
			"byteLength":24,
			"byteOffset":1364,
			"target":34963
		},
		{
			"buffer":0,
			"byteLength":48,
			"byteOffset":1388,
			"target":34962
		},
		{
			"buffer":0,
			"byteLength":48,
			"byteOffset":1436,
			"target":34962
		},
		{
			"buffer":0,
			"byteLength":32,
			"byteOffset":1484,
			"target":34962
		},
		{
			"buffer":0,
			"byteLength":32,
			"byteOffset":1516,
			"target":34962
		},
		{
			"buffer":0,
			"byteLength":12,
			"byteOffset":1548,
			"target":34963
		},
		{
			"buffer":0,
			"byteLength":480,
			"byteOffset":1560,
			"target":34962
		},
		{
			"buffer":0,
			"byteLength":480,
			"byteOffset":2040,
			"target":34962
		},
		{
			"buffer":0,
			"byteLength":320,
			"byteOffset":2520,
			"target":34962
		},
		{
			"buffer":0,
			"byteLength":320,
			"byteOffset":2840,
			"target":34962
		},
		{
			"buffer":0,
			"byteLength":132,
			"byteOffset":3160,
			"target":34963
		},
		{
			"buffer":0,
			"byteLength":48,
			"byteOffset":3292,
			"target":34962
		},
		{
			"buffer":0,
			"byteLength":48,
			"byteOffset":3340,
			"target":34962
		},
		{
			"buffer":0,
			"byteLength":32,
			"byteOffset":3388,
			"target":34962
		},
		{
			"buffer":0,
			"byteLength":12,
			"byteOffset":3420,
			"target":34963
		}
	],
	"samplers":[
		{
			"magFilter":9729,
			"minFilter":9987
		}
	],
	"buffers":[
		{
			"byteLength":3432,
			"uri":"medium_5.bin"
		}
	]
}
