{
	"asset":{
		"generator":"Khronos glTF Blender I/O v4.3.47",
		"version":"2.0"
	},
	"scene":0,
	"scenes":[
		{
			"name":"Scene",
			"nodes":[
				0,
				1
			]
		}
	],
	"nodes":[
		{
			"mesh":0,
			"name":"Maxis-3d1-mesh-33",
			"rotation":[
				0.70710688829422,
				0,
				0,
				0.7071066498756409
			]
		},
		{
			"extras":{
				"gd_node":"Decal",
				"lower_fade":9,
				"upper_fade":10
			},
			"mesh":1,
			"name":"Ground_AO",
			"scale":[
				25.363479614257812,
				1,
				25.36349105834961
			],
			"translation":[
				0,
				-5.451421657198807e-06,
				-4.76837158203125e-06
			]
		}
	],
	"materials":[
		{
			"name":"mat40-26",
			"occlusionTexture":{
				"index":0,
				"texCoord":1
			},
			"pbrMetallicRoughness":{
				"baseColorTexture":{
					"index":1
				},
				"metallicFactor":0
			}
		},
		{
			"name":"mat40-25",
			"occlusionTexture":{
				"index":2,
				"texCoord":1
			},
			"pbrMetallicRoughness":{
				"baseColorTexture":{
					"index":3
				},
				"metallicFactor":0
			}
		},
		{
			"name":"matcolour-48.003",
			"occlusionTexture":{
				"index":4,
				"texCoord":1
			},
			"pbrMetallicRoughness":{
				"baseColorFactor":[
					0.05882352963089943,
					0.05882352963089943,
					0.05882352963089943,
					1
				],
				"metallicFactor":0
			}
		},
		{
			"name":"mat40-27",
			"occlusionTexture":{
				"index":5,
				"texCoord":1
			},
			"pbrMetallicRoughness":{
				"baseColorTexture":{
					"index":6
				},
				"metallicFactor":0
			}
		},
		{
			"name":"mat40-24",
			"occlusionTexture":{
				"index":7,
				"texCoord":1
			},
			"pbrMetallicRoughness":{
				"baseColorTexture":{
					"index":8
				},
				"metallicFactor":0
			}
		},
		{
			"name":"Ground_AO",
			"occlusionTexture":{
				"index":9
			},
			"pbrMetallicRoughness":{
				"baseColorFactor":[
					0.800000011920929,
					0.800000011920929,
					0.800000011920929,
					1
				],
				"metallicFactor":0,
				"roughnessFactor":0.5
			}
		}
	],
	"meshes":[
		{
			"name":"Maxis-3d1-mesh-33",
			"primitives":[
				{
					"attributes":{
						"POSITION":0,
						"NORMAL":1,
						"TEXCOORD_0":2,
						"TEXCOORD_1":3
					},
					"indices":4,
					"material":0
				},
				{
					"attributes":{
						"POSITION":5,
						"NORMAL":6,
						"TEXCOORD_0":7,
						"TEXCOORD_1":8
					},
					"indices":9,
					"material":1
				},
				{
					"attributes":{
						"POSITION":10,
						"NORMAL":11,
						"TEXCOORD_0":12,
						"TEXCOORD_1":13
					},
					"indices":14,
					"material":2
				},
				{
					"attributes":{
						"POSITION":15,
						"NORMAL":16,
						"TEXCOORD_0":17,
						"TEXCOORD_1":18
					},
					"indices":19,
					"material":3
				},
				{
					"attributes":{
						"POSITION":20,
						"NORMAL":21,
						"TEXCOORD_0":22,
						"TEXCOORD_1":23
					},
					"indices":24,
					"material":4
				}
			]
		},
		{
			"name":"Plane",
			"primitives":[
				{
					"attributes":{
						"POSITION":25,
						"NORMAL":26,
						"TEXCOORD_0":27
					},
					"indices":28,
					"material":5
				}
			]
		}
	],
	"textures":[
		{
			"sampler":0,
			"source":0
		},
		{
			"sampler":0,
			"source":1
		},
		{
			"sampler":0,
			"source":0
		},
		{
			"sampler":0,
			"source":2
		},
		{
			"sampler":0,
			"source":0
		},
		{
			"sampler":0,
			"source":0
		},
		{
			"sampler":0,
			"source":3
		},
		{
			"sampler":0,
			"source":0
		},
		{
			"sampler":0,
			"source":4
		},
		{
			"sampler":0,
			"source":5
		}
	],
	"images":[
		{
			"mimeType":"image/png",
			"name":"medium_1.png",
			"uri":"../../../Textures/ambient_occlusion/Buildings/Offices/medium_1.png"
		},
		{
			"mimeType":"image/png",
			"name":"tex40-26",
			"uri":"../../../Textures/tex40-26.png"
		},
		{
			"mimeType":"image/png",
			"name":"tex40-25",
			"uri":"../../../Textures/tex40-25.png"
		},
		{
			"mimeType":"image/png",
			"name":"tex40-27",
			"uri":"../../../Textures/tex40-27.png"
		},
		{
			"mimeType":"image/png",
			"name":"tex40-24",
			"uri":"../../../Textures/tex40-24.png"
		},
		{
			"mimeType":"image/png",
			"name":"medium_1_ground.png",
			"uri":"../../../Textures/ambient_occlusion/Buildings/Offices/medium_1_ground.png"
		}
	],
	"accessors":[
		{
			"bufferView":0,
			"componentType":5126,
			"count":8,
			"max":[
				11.856071472167969,
				11.856071472167969,
				3.814697265625e-06
			],
			"min":[
				11.846813201904297,
				-11.856082916259766,
				-14.989185333251953
			],
			"type":"VEC3"
		},
		{
			"bufferView":1,
			"componentType":5126,
			"count":8,
			"type":"VEC3"
		},
		{
			"bufferView":2,
			"componentType":5126,
			"count":8,
			"type":"VEC2"
		},
		{
			"bufferView":3,
			"componentType":5126,
			"count":8,
			"type":"VEC2"
		},
		{
			"bufferView":4,
			"componentType":5123,
			"count":12,
			"type":"SCALAR"
		},
		{
			"bufferView":5,
			"componentType":5126,
			"count":8,
			"max":[
				-11.846813201904297,
				11.856071472167969,
				3.814697265625e-06
			],
			"min":[
				-11.856071472167969,
				-11.856082916259766,
				-14.989185333251953
			],
			"type":"VEC3"
		},
		{
			"bufferView":6,
			"componentType":5126,
			"count":8,
			"type":"VEC3"
		},
		{
			"bufferView":7,
			"componentType":5126,
			"count":8,
			"type":"VEC2"
		},
		{
			"bufferView":8,
			"componentType":5126,
			"count":8,
			"type":"VEC2"
		},
		{
			"bufferView":9,
			"componentType":5123,
			"count":12,
			"type":"SCALAR"
		},
		{
			"bufferView":10,
			"componentType":5126,
			"count":90,
			"max":[
				12.181739807128906,
				12.181739807128906,
				-7.191364288330078
			],
			"min":[
				-12.181739807128906,
				-12.181751251220703,
				-15.715629577636719
			],
			"type":"VEC3"
		},
		{
			"bufferView":11,
			"componentType":5126,
			"count":90,
			"type":"VEC3"
		},
		{
			"bufferView":12,
			"componentType":5126,
			"count":90,
			"type":"VEC2"
		},
		{
			"bufferView":13,
			"componentType":5126,
			"count":90,
			"type":"VEC2"
		},
		{
			"bufferView":14,
			"componentType":5123,
			"count":174,
			"type":"SCALAR"
		},
		{
			"bufferView":15,
			"componentType":5126,
			"count":8,
			"max":[
				11.856071472167969,
				11.856071472167969,
				-3.814697265625e-06
			],
			"min":[
				-11.856071472167969,
				11.846817016601562,
				-14.989185333251953
			],
			"type":"VEC3"
		},
		{
			"bufferView":16,
			"componentType":5126,
			"count":8,
			"type":"VEC3"
		},
		{
			"bufferView":17,
			"componentType":5126,
			"count":8,
			"type":"VEC2"
		},
		{
			"bufferView":18,
			"componentType":5126,
			"count":8,
			"type":"VEC2"
		},
		{
			"bufferView":19,
			"componentType":5123,
			"count":12,
			"type":"SCALAR"
		},
		{
			"bufferView":20,
			"componentType":5126,
			"count":8,
			"max":[
				11.856071472167969,
				-11.846817016601562,
				3.814697265625e-06
			],
			"min":[
				-11.856071472167969,
				-11.856082916259766,
				-14.989181518554688
			],
			"type":"VEC3"
		},
		{
			"bufferView":21,
			"componentType":5126,
			"count":8,
			"type":"VEC3"
		},
		{
			"bufferView":22,
			"componentType":5126,
			"count":8,
			"type":"VEC2"
		},
		{
			"bufferView":23,
			"componentType":5126,
			"count":8,
			"type":"VEC2"
		},
		{
			"bufferView":24,
			"componentType":5123,
			"count":12,
			"type":"SCALAR"
		},
		{
			"bufferView":25,
			"componentType":5126,
			"count":4,
			"max":[
				0.5,
				0,
				0.5
			],
			"min":[
				-0.5,
				0,
				-0.5
			],
			"type":"VEC3"
		},
		{
			"bufferView":26,
			"componentType":5126,
			"count":4,
			"type":"VEC3"
		},
		{
			"bufferView":27,
			"componentType":5126,
			"count":4,
			"type":"VEC2"
		},
		{
			"bufferView":28,
			"componentType":5123,
			"count":6,
			"type":"SCALAR"
		}
	],
	"bufferViews":[
		{
			"buffer":0,
			"byteLength":96,
			"byteOffset":0,
			"target":34962
		},
		{
			"buffer":0,
			"byteLength":96,
			"byteOffset":96,
			"target":34962
		},
		{
			"buffer":0,
			"byteLength":64,
			"byteOffset":192,
			"target":34962
		},
		{
			"buffer":0,
			"byteLength":64,
			"byteOffset":256,
			"target":34962
		},
		{
			"buffer":0,
			"byteLength":24,
			"byteOffset":320,
			"target":34963
		},
		{
			"buffer":0,
			"byteLength":96,
			"byteOffset":344,
			"target":34962
		},
		{
			"buffer":0,
			"byteLength":96,
			"byteOffset":440,
			"target":34962
		},
		{
			"buffer":0,
			"byteLength":64,
			"byteOffset":536,
			"target":34962
		},
		{
			"buffer":0,
			"byteLength":64,
			"byteOffset":600,
			"target":34962
		},
		{
			"buffer":0,
			"byteLength":24,
			"byteOffset":664,
			"target":34963
		},
		{
			"buffer":0,
			"byteLength":1080,
			"byteOffset":688,
			"target":34962
		},
		{
			"buffer":0,
			"byteLength":1080,
			"byteOffset":1768,
			"target":34962
		},
		{
			"buffer":0,
			"byteLength":720,
			"byteOffset":2848,
			"target":34962
		},
		{
			"buffer":0,
			"byteLength":720,
			"byteOffset":3568,
			"target":34962
		},
		{
			"buffer":0,
			"byteLength":348,
			"byteOffset":4288,
			"target":34963
		},
		{
			"buffer":0,
			"byteLength":96,
			"byteOffset":4636,
			"target":34962
		},
		{
			"buffer":0,
			"byteLength":96,
			"byteOffset":4732,
			"target":34962
		},
		{
			"buffer":0,
			"byteLength":64,
			"byteOffset":4828,
			"target":34962
		},
		{
			"buffer":0,
			"byteLength":64,
			"byteOffset":4892,
			"target":34962
		},
		{
			"buffer":0,
			"byteLength":24,
			"byteOffset":4956,
			"target":34963
		},
		{
			"buffer":0,
			"byteLength":96,
			"byteOffset":4980,
			"target":34962
		},
		{
			"buffer":0,
			"byteLength":96,
			"byteOffset":5076,
			"target":34962
		},
		{
			"buffer":0,
			"byteLength":64,
			"byteOffset":5172,
			"target":34962
		},
		{
			"buffer":0,
			"byteLength":64,
			"byteOffset":5236,
			"target":34962
		},
		{
			"buffer":0,
			"byteLength":24,
			"byteOffset":5300,
			"target":34963
		},
		{
			"buffer":0,
			"byteLength":48,
			"byteOffset":5324,
			"target":34962
		},
		{
			"buffer":0,
			"byteLength":48,
			"byteOffset":5372,
			"target":34962
		},
		{
			"buffer":0,
			"byteLength":32,
			"byteOffset":5420,
			"target":34962
		},
		{
			"buffer":0,
			"byteLength":12,
			"byteOffset":5452,
			"target":34963
		}
	],
	"samplers":[
		{
			"magFilter":9729,
			"minFilter":9987
		}
	],
	"buffers":[
		{
			"byteLength":5464,
			"uri":"medium_1.bin"
		}
	]
}
