{
	"asset":{
		"generator":"Khronos glTF Blender I/O v4.3.47",
		"version":"2.0"
	},
	"scene":0,
	"scenes":[
		{
			"name":"Scene",
			"nodes":[
				0,
				1
			]
		}
	],
	"nodes":[
		{
			"mesh":0,
			"name":"Maxis-3d1-mesh-42",
			"rotation":[
				0.70710688829422,
				0,
				0,
				0.7071066498756409
			]
		},
		{
			"extras":{
				"gd_node":"Decal",
				"lower_fade":9,
				"upper_fade":10
			},
			"mesh":1,
			"name":"Ground_AO",
			"scale":[
				28.743331909179688,
				1,
				30.725013732910156
			],
			"translation":[
				0.9908332824707031,
				-9.626303835830186e-06,
				0
			]
		}
	],
	"materials":[
		{
			"name":"matcolour-48.004",
			"occlusionTexture":{
				"index":0,
				"texCoord":1
			},
			"pbrMetallicRoughness":{
				"baseColorFactor":[
					0.05882352963089943,
					0.05882352963089943,
					0.05882352963089943,
					1
				],
				"metallicFactor":0
			}
		},
		{
			"name":"mat40-60.001",
			"occlusionTexture":{
				"index":1,
				"texCoord":1
			},
			"pbrMetallicRoughness":{
				"baseColorTexture":{
					"index":2
				},
				"metallicFactor":0
			}
		},
		{
			"name":"mat2-43",
			"occlusionTexture":{
				"index":3,
				"texCoord":1
			},
			"pbrMetallicRoughness":{
				"baseColorTexture":{
					"index":4
				},
				"metallicFactor":0
			}
		},
		{
			"name":"mat2-40",
			"occlusionTexture":{
				"index":5,
				"texCoord":1
			},
			"pbrMetallicRoughness":{
				"baseColorTexture":{
					"index":6
				},
				"metallicFactor":0
			}
		},
		{
			"name":"mat2-41",
			"occlusionTexture":{
				"index":7,
				"texCoord":1
			},
			"pbrMetallicRoughness":{
				"baseColorTexture":{
					"index":8
				},
				"metallicFactor":0
			}
		},
		{
			"name":"mat2-42",
			"occlusionTexture":{
				"index":9,
				"texCoord":1
			},
			"pbrMetallicRoughness":{
				"baseColorTexture":{
					"index":10
				},
				"metallicFactor":0
			}
		},
		{
			"name":"matcolour-208",
			"occlusionTexture":{
				"index":11,
				"texCoord":1
			},
			"pbrMetallicRoughness":{
				"baseColorFactor":[
					0.49803921580314636,
					0.29019609093666077,
					0.03921568766236305,
					1
				],
				"metallicFactor":0
			}
		},
		{
			"name":"mat39-22",
			"occlusionTexture":{
				"index":12,
				"texCoord":1
			},
			"pbrMetallicRoughness":{
				"baseColorTexture":{
					"index":13
				},
				"metallicFactor":0
			}
		},
		{
			"name":"mat39-21",
			"occlusionTexture":{
				"index":14,
				"texCoord":1
			},
			"pbrMetallicRoughness":{
				"baseColorTexture":{
					"index":15
				},
				"metallicFactor":0
			}
		},
		{
			"name":"mat39-23",
			"occlusionTexture":{
				"index":16,
				"texCoord":1
			},
			"pbrMetallicRoughness":{
				"baseColorTexture":{
					"index":17
				},
				"metallicFactor":0
			}
		},
		{
			"name":"mat39-20",
			"occlusionTexture":{
				"index":18,
				"texCoord":1
			},
			"pbrMetallicRoughness":{
				"baseColorTexture":{
					"index":19
				},
				"metallicFactor":0
			}
		},
		{
			"name":"Ground_AO",
			"occlusionTexture":{
				"index":20
			},
			"pbrMetallicRoughness":{
				"baseColorFactor":[
					0.800000011920929,
					0.800000011920929,
					0.800000011920929,
					1
				],
				"metallicFactor":0,
				"roughnessFactor":0.5
			}
		}
	],
	"meshes":[
		{
			"name":"Maxis-3d1-mesh-42",
			"primitives":[
				{
					"attributes":{
						"POSITION":0,
						"NORMAL":1,
						"TEXCOORD_0":2,
						"TEXCOORD_1":3
					},
					"indices":4,
					"material":0
				},
				{
					"attributes":{
						"POSITION":5,
						"NORMAL":6,
						"TEXCOORD_0":7,
						"TEXCOORD_1":8
					},
					"indices":9,
					"material":1
				},
				{
					"attributes":{
						"POSITION":10,
						"NORMAL":11,
						"TEXCOORD_0":12,
						"TEXCOORD_1":13
					},
					"indices":14,
					"material":2
				},
				{
					"attributes":{
						"POSITION":15,
						"NORMAL":16,
						"TEXCOORD_0":17,
						"TEXCOORD_1":18
					},
					"indices":19,
					"material":3
				},
				{
					"attributes":{
						"POSITION":20,
						"NORMAL":21,
						"TEXCOORD_0":22,
						"TEXCOORD_1":23
					},
					"indices":24,
					"material":4
				},
				{
					"attributes":{
						"POSITION":25,
						"NORMAL":26,
						"TEXCOORD_0":27,
						"TEXCOORD_1":28
					},
					"indices":29,
					"material":5
				},
				{
					"attributes":{
						"POSITION":30,
						"NORMAL":31,
						"TEXCOORD_0":32,
						"TEXCOORD_1":33
					},
					"indices":34,
					"material":6
				},
				{
					"attributes":{
						"POSITION":35,
						"NORMAL":36,
						"TEXCOORD_0":37,
						"TEXCOORD_1":38
					},
					"indices":39,
					"material":7
				},
				{
					"attributes":{
						"POSITION":40,
						"NORMAL":41,
						"TEXCOORD_0":42,
						"TEXCOORD_1":43
					},
					"indices":44,
					"material":8
				},
				{
					"attributes":{
						"POSITION":45,
						"NORMAL":46,
						"TEXCOORD_0":47,
						"TEXCOORD_1":48
					},
					"indices":49,
					"material":9
				},
				{
					"attributes":{
						"POSITION":50,
						"NORMAL":51,
						"TEXCOORD_0":52,
						"TEXCOORD_1":53
					},
					"indices":54,
					"material":10
				}
			]
		},
		{
			"name":"Plane",
			"primitives":[
				{
					"attributes":{
						"POSITION":55,
						"NORMAL":56,
						"TEXCOORD_0":57
					},
					"indices":58,
					"material":11
				}
			]
		}
	],
	"textures":[
		{
			"sampler":0,
			"source":0
		},
		{
			"sampler":0,
			"source":0
		},
		{
			"sampler":0,
			"source":1
		},
		{
			"sampler":0,
			"source":0
		},
		{
			"sampler":0,
			"source":2
		},
		{
			"sampler":0,
			"source":0
		},
		{
			"sampler":0,
			"source":3
		},
		{
			"sampler":0,
			"source":0
		},
		{
			"sampler":0,
			"source":4
		},
		{
			"sampler":0,
			"source":0
		},
		{
			"sampler":0,
			"source":5
		},
		{
			"sampler":0,
			"source":0
		},
		{
			"sampler":0,
			"source":0
		},
		{
			"sampler":0,
			"source":6
		},
		{
			"sampler":0,
			"source":0
		},
		{
			"sampler":0,
			"source":7
		},
		{
			"sampler":0,
			"source":0
		},
		{
			"sampler":0,
			"source":8
		},
		{
			"sampler":0,
			"source":0
		},
		{
			"sampler":0,
			"source":9
		},
		{
			"sampler":0,
			"source":10
		}
	],
	"images":[
		{
			"mimeType":"image/png",
			"name":"medium_2.png",
			"uri":"../../../Textures/ambient_occlusion/Buildings/Offices/medium_2.png"
		},
		{
			"mimeType":"image/png",
			"name":"tex40-60",
			"uri":"../../../Textures/tex40-60.png"
		},
		{
			"mimeType":"image/png",
			"name":"tex2-43",
			"uri":"../../../Textures/tex2-43.png"
		},
		{
			"mimeType":"image/png",
			"name":"tex2-40",
			"uri":"../../../Textures/tex2-40.png"
		},
		{
			"mimeType":"image/png",
			"name":"tex2-41",
			"uri":"../../../Textures/tex2-41.png"
		},
		{
			"mimeType":"image/png",
			"name":"tex2-42",
			"uri":"../../../Textures/tex2-42.png"
		},
		{
			"mimeType":"image/png",
			"name":"tex39-22",
			"uri":"../../../Textures/tex39-22.png"
		},
		{
			"mimeType":"image/png",
			"name":"tex39-21",
			"uri":"../../../Textures/tex39-21.png"
		},
		{
			"mimeType":"image/png",
			"name":"tex39-23",
			"uri":"../../../Textures/tex39-23.png"
		},
		{
			"mimeType":"image/png",
			"name":"tex39-20",
			"uri":"../../../Textures/tex39-20.png"
		},
		{
			"mimeType":"image/png",
			"name":"medium_2_ground.png",
			"uri":"../../../Textures/ambient_occlusion/Buildings/Offices/medium_2_ground.png"
		}
	],
	"accessors":[
		{
			"bufferView":0,
			"componentType":5126,
			"count":70,
			"max":[
				12.251434326171875,
				11.72922134399414,
				-13.749996185302734
			],
			"min":[
				-9.641220092773438,
				-11.715045928955078,
				-18.5
			],
			"type":"VEC3"
		},
		{
			"bufferView":1,
			"componentType":5126,
			"count":70,
			"type":"VEC3"
		},
		{
			"bufferView":2,
			"componentType":5126,
			"count":70,
			"type":"VEC2"
		},
		{
			"bufferView":3,
			"componentType":5126,
			"count":70,
			"type":"VEC2"
		},
		{
			"bufferView":4,
			"componentType":5123,
			"count":84,
			"type":"SCALAR"
		},
		{
			"bufferView":5,
			"componentType":5126,
			"count":4,
			"max":[
				-2.9630393981933594,
				-8.33529281616211,
				-15.258460998535156
			],
			"min":[
				-5.174571990966797,
				-10.546825408935547,
				-15.258460998535156
			],
			"type":"VEC3"
		},
		{
			"bufferView":6,
			"componentType":5126,
			"count":4,
			"type":"VEC3"
		},
		{
			"bufferView":7,
			"componentType":5126,
			"count":4,
			"type":"VEC2"
		},
		{
			"bufferView":8,
			"componentType":5126,
			"count":4,
			"type":"VEC2"
		},
		{
			"bufferView":9,
			"componentType":5123,
			"count":6,
			"type":"SCALAR"
		},
		{
			"bufferView":10,
			"componentType":5126,
			"count":4,
			"max":[
				-2.9630393981933594,
				-8.33529281616211,
				-13.960411071777344
			],
			"min":[
				-5.174571990966797,
				-8.33529281616211,
				-15.258460998535156
			],
			"type":"VEC3"
		},
		{
			"bufferView":11,
			"componentType":5126,
			"count":4,
			"type":"VEC3"
		},
		{
			"bufferView":12,
			"componentType":5126,
			"count":4,
			"type":"VEC2"
		},
		{
			"bufferView":13,
			"componentType":5126,
			"count":4,
			"type":"VEC2"
		},
		{
			"bufferView":14,
			"componentType":5123,
			"count":6,
			"type":"SCALAR"
		},
		{
			"bufferView":15,
			"componentType":5126,
			"count":4,
			"max":[
				-2.9630393981933594,
				-10.546825408935547,
				-13.960411071777344
			],
			"min":[
				-5.174571990966797,
				-10.546825408935547,
				-15.258460998535156
			],
			"type":"VEC3"
		},
		{
			"bufferView":16,
			"componentType":5126,
			"count":4,
			"type":"VEC3"
		},
		{
			"bufferView":17,
			"componentType":5126,
			"count":4,
			"type":"VEC2"
		},
		{
			"bufferView":18,
			"componentType":5126,
			"count":4,
			"type":"VEC2"
		},
		{
			"bufferView":19,
			"componentType":5123,
			"count":6,
			"type":"SCALAR"
		},
		{
			"bufferView":20,
			"componentType":5126,
			"count":4,
			"max":[
				-5.174571990966797,
				-8.33529281616211,
				-13.96041488647461
			],
			"min":[
				-5.174571990966797,
				-10.546825408935547,
				-15.258460998535156
			],
			"type":"VEC3"
		},
		{
			"bufferView":21,
			"componentType":5126,
			"count":4,
			"type":"VEC3"
		},
		{
			"bufferView":22,
			"componentType":5126,
			"count":4,
			"type":"VEC2"
		},
		{
			"bufferView":23,
			"componentType":5126,
			"count":4,
			"type":"VEC2"
		},
		{
			"bufferView":24,
			"componentType":5123,
			"count":6,
			"type":"SCALAR"
		},
		{
			"bufferView":25,
			"componentType":5126,
			"count":4,
			"max":[
				-2.9630393981933594,
				-8.33529281616211,
				-13.960411071777344
			],
			"min":[
				-2.9630393981933594,
				-10.546825408935547,
				-15.258460998535156
			],
			"type":"VEC3"
		},
		{
			"bufferView":26,
			"componentType":5126,
			"count":4,
			"type":"VEC3"
		},
		{
			"bufferView":27,
			"componentType":5126,
			"count":4,
			"type":"VEC2"
		},
		{
			"bufferView":28,
			"componentType":5126,
			"count":4,
			"type":"VEC2"
		},
		{
			"bufferView":29,
			"componentType":5123,
			"count":6,
			"type":"SCALAR"
		},
		{
			"bufferView":30,
			"componentType":5126,
			"count":80,
			"max":[
				14.862499237060547,
				14.862506866455078,
				-11.889999389648438
			],
			"min":[
				-12.88083267211914,
				-14.862506866455078,
				-14.38937759399414
			],
			"type":"VEC3"
		},
		{
			"bufferView":31,
			"componentType":5126,
			"count":80,
			"type":"VEC3"
		},
		{
			"bufferView":32,
			"componentType":5126,
			"count":80,
			"type":"VEC2"
		},
		{
			"bufferView":33,
			"componentType":5126,
			"count":80,
			"type":"VEC2"
		},
		{
			"bufferView":34,
			"componentType":5123,
			"count":144,
			"type":"SCALAR"
		},
		{
			"bufferView":35,
			"componentType":5126,
			"count":8,
			"max":[
				14.862499237060547,
				14.862506866455078,
				7.62939453125e-06
			],
			"min":[
				10.40374755859375,
				-14.862506866455078,
				-11.91229248046875
			],
			"type":"VEC3"
		},
		{
			"bufferView":36,
			"componentType":5126,
			"count":8,
			"type":"VEC3"
		},
		{
			"bufferView":37,
			"componentType":5126,
			"count":8,
			"type":"VEC2"
		},
		{
			"bufferView":38,
			"componentType":5126,
			"count":8,
			"type":"VEC2"
		},
		{
			"bufferView":39,
			"componentType":5123,
			"count":12,
			"type":"SCALAR"
		},
		{
			"bufferView":40,
			"componentType":5126,
			"count":8,
			"max":[
				0,
				14.862506866455078,
				3.814697265625e-06
			],
			"min":[
				-12.88083267211914,
				-14.862506866455078,
				-11.91229248046875
			],
			"type":"VEC3"
		},
		{
			"bufferView":41,
			"componentType":5126,
			"count":8,
			"type":"VEC3"
		},
		{
			"bufferView":42,
			"componentType":5126,
			"count":8,
			"type":"VEC2"
		},
		{
			"bufferView":43,
			"componentType":5126,
			"count":8,
			"type":"VEC2"
		},
		{
			"bufferView":44,
			"componentType":5123,
			"count":12,
			"type":"SCALAR"
		},
		{
			"bufferView":45,
			"componentType":5126,
			"count":8,
			"max":[
				14.862499237060547,
				14.862506866455078,
				3.814697265625e-06
			],
			"min":[
				-12.88083267211914,
				-3.9633331298828125,
				-11.91229248046875
			],
			"type":"VEC3"
		},
		{
			"bufferView":46,
			"componentType":5126,
			"count":8,
			"type":"VEC3"
		},
		{
			"bufferView":47,
			"componentType":5126,
			"count":8,
			"type":"VEC2"
		},
		{
			"bufferView":48,
			"componentType":5126,
			"count":8,
			"type":"VEC2"
		},
		{
			"bufferView":49,
			"componentType":5123,
			"count":12,
			"type":"SCALAR"
		},
		{
			"bufferView":50,
			"componentType":5126,
			"count":8,
			"max":[
				14.862499237060547,
				-2.9724960327148438,
				7.62939453125e-06
			],
			"min":[
				-12.88083267211914,
				-14.862506866455078,
				-11.912288665771484
			],
			"type":"VEC3"
		},
		{
			"bufferView":51,
			"componentType":5126,
			"count":8,
			"type":"VEC3"
		},
		{
			"bufferView":52,
			"componentType":5126,
			"count":8,
			"type":"VEC2"
		},
		{
			"bufferView":53,
			"componentType":5126,
			"count":8,
			"type":"VEC2"
		},
		{
			"bufferView":54,
			"componentType":5123,
			"count":12,
			"type":"SCALAR"
		},
		{
			"bufferView":55,
			"componentType":5126,
			"count":4,
			"max":[
				0.5,
				0,
				0.5
			],
			"min":[
				-0.5,
				0,
				-0.5
			],
			"type":"VEC3"
		},
		{
			"bufferView":56,
			"componentType":5126,
			"count":4,
			"type":"VEC3"
		},
		{
			"bufferView":57,
			"componentType":5126,
			"count":4,
			"type":"VEC2"
		},
		{
			"bufferView":58,
			"componentType":5123,
			"count":6,
			"type":"SCALAR"
		}
	],
	"bufferViews":[
		{
			"buffer":0,
			"byteLength":840,
			"byteOffset":0,
			"target":34962
		},
		{
			"buffer":0,
			"byteLength":840,
			"byteOffset":840,
			"target":34962
		},
		{
			"buffer":0,
			"byteLength":560,
			"byteOffset":1680,
			"target":34962
		},
		{
			"buffer":0,
			"byteLength":560,
			"byteOffset":2240,
			"target":34962
		},
		{
			"buffer":0,
			"byteLength":168,
			"byteOffset":2800,
			"target":34963
		},
		{
			"buffer":0,
			"byteLength":48,
			"byteOffset":2968,
			"target":34962
		},
		{
			"buffer":0,
			"byteLength":48,
			"byteOffset":3016,
			"target":34962
		},
		{
			"buffer":0,
			"byteLength":32,
			"byteOffset":3064,
			"target":34962
		},
		{
			"buffer":0,
			"byteLength":32,
			"byteOffset":3096,
			"target":34962
		},
		{
			"buffer":0,
			"byteLength":12,
			"byteOffset":3128,
			"target":34963
		},
		{
			"buffer":0,
			"byteLength":48,
			"byteOffset":3140,
			"target":34962
		},
		{
			"buffer":0,
			"byteLength":48,
			"byteOffset":3188,
			"target":34962
		},
		{
			"buffer":0,
			"byteLength":32,
			"byteOffset":3236,
			"target":34962
		},
		{
			"buffer":0,
			"byteLength":32,
			"byteOffset":3268,
			"target":34962
		},
		{
			"buffer":0,
			"byteLength":12,
			"byteOffset":3300,
			"target":34963
		},
		{
			"buffer":0,
			"byteLength":48,
			"byteOffset":3312,
			"target":34962
		},
		{
			"buffer":0,
			"byteLength":48,
			"byteOffset":3360,
			"target":34962
		},
		{
			"buffer":0,
			"byteLength":32,
			"byteOffset":3408,
			"target":34962
		},
		{
			"buffer":0,
			"byteLength":32,
			"byteOffset":3440,
			"target":34962
		},
		{
			"buffer":0,
			"byteLength":12,
			"byteOffset":3472,
			"target":34963
		},
		{
			"buffer":0,
			"byteLength":48,
			"byteOffset":3484,
			"target":34962
		},
		{
			"buffer":0,
			"byteLength":48,
			"byteOffset":3532,
			"target":34962
		},
		{
			"buffer":0,
			"byteLength":32,
			"byteOffset":3580,
			"target":34962
		},
		{
			"buffer":0,
			"byteLength":32,
			"byteOffset":3612,
			"target":34962
		},
		{
			"buffer":0,
			"byteLength":12,
			"byteOffset":3644,
			"target":34963
		},
		{
			"buffer":0,
			"byteLength":48,
			"byteOffset":3656,
			"target":34962
		},
		{
			"buffer":0,
			"byteLength":48,
			"byteOffset":3704,
			"target":34962
		},
		{
			"buffer":0,
			"byteLength":32,
			"byteOffset":3752,
			"target":34962
		},
		{
			"buffer":0,
			"byteLength":32,
			"byteOffset":3784,
			"target":34962
		},
		{
			"buffer":0,
			"byteLength":12,
			"byteOffset":3816,
			"target":34963
		},
		{
			"buffer":0,
			"byteLength":960,
			"byteOffset":3828,
			"target":34962
		},
		{
			"buffer":0,
			"byteLength":960,
			"byteOffset":4788,
			"target":34962
		},
		{
			"buffer":0,
			"byteLength":640,
			"byteOffset":5748,
			"target":34962
		},
		{
			"buffer":0,
			"byteLength":640,
			"byteOffset":6388,
			"target":34962
		},
		{
			"buffer":0,
			"byteLength":288,
			"byteOffset":7028,
			"target":34963
		},
		{
			"buffer":0,
			"byteLength":96,
			"byteOffset":7316,
			"target":34962
		},
		{
			"buffer":0,
			"byteLength":96,
			"byteOffset":7412,
			"target":34962
		},
		{
			"buffer":0,
			"byteLength":64,
			"byteOffset":7508,
			"target":34962
		},
		{
			"buffer":0,
			"byteLength":64,
			"byteOffset":7572,
			"target":34962
		},
		{
			"buffer":0,
			"byteLength":24,
			"byteOffset":7636,
			"target":34963
		},
		{
			"buffer":0,
			"byteLength":96,
			"byteOffset":7660,
			"target":34962
		},
		{
			"buffer":0,
			"byteLength":96,
			"byteOffset":7756,
			"target":34962
		},
		{
			"buffer":0,
			"byteLength":64,
			"byteOffset":7852,
			"target":34962
		},
		{
			"buffer":0,
			"byteLength":64,
			"byteOffset":7916,
			"target":34962
		},
		{
			"buffer":0,
			"byteLength":24,
			"byteOffset":7980,
			"target":34963
		},
		{
			"buffer":0,
			"byteLength":96,
			"byteOffset":8004,
			"target":34962
		},
		{
			"buffer":0,
			"byteLength":96,
			"byteOffset":8100,
			"target":34962
		},
		{
			"buffer":0,
			"byteLength":64,
			"byteOffset":8196,
			"target":34962
		},
		{
			"buffer":0,
			"byteLength":64,
			"byteOffset":8260,
			"target":34962
		},
		{
			"buffer":0,
			"byteLength":24,
			"byteOffset":8324,
			"target":34963
		},
		{
			"buffer":0,
			"byteLength":96,
			"byteOffset":8348,
			"target":34962
		},
		{
			"buffer":0,
			"byteLength":96,
			"byteOffset":8444,
			"target":34962
		},
		{
			"buffer":0,
			"byteLength":64,
			"byteOffset":8540,
			"target":34962
		},
		{
			"buffer":0,
			"byteLength":64,
			"byteOffset":8604,
			"target":34962
		},
		{
			"buffer":0,
			"byteLength":24,
			"byteOffset":8668,
			"target":34963
		},
		{
			"buffer":0,
			"byteLength":48,
			"byteOffset":8692,
			"target":34962
		},
		{
			"buffer":0,
			"byteLength":48,
			"byteOffset":8740,
			"target":34962
		},
		{
			"buffer":0,
			"byteLength":32,
			"byteOffset":8788,
			"target":34962
		},
		{
			"buffer":0,
			"byteLength":12,
			"byteOffset":8820,
			"target":34963
		}
	],
	"samplers":[
		{
			"magFilter":9729,
			"minFilter":9987
		}
	],
	"buffers":[
		{
			"byteLength":8832,
			"uri":"medium_2.bin"
		}
	]
}
