{
    "asset" : {
        "generator" : "Khronos glTF Blender I/O v1.7.33",
        "version" : "2.0"
    },
    "scene" : 0,
    "scenes" : [
        {
            "name" : "Scene",
            "nodes" : [
                0
            ]
        }
    ],
    "nodes" : [
        {
            "mesh" : 0,
            "name" : "Maxis-3d1-mesh-42",
            "rotation" : [
                0.7071068286895752,
                0,
                0,
                0.7071067094802856
            ]
        }
    ],
    "materials" : [
        {
            "doubleSided" : true,
            "name" : "matcolour-48.004",
            "pbrMetallicRoughness" : {
                "baseColorFactor" : [
                    0.05882352963089943,
                    0.05882352963089943,
                    0.05882352963089943,
                    1
                ],
                "metallicFactor" : 0
            }
        },
        {
            "doubleSided" : true,
            "name" : "mat40-60.001",
            "pbrMetallicRoughness" : {
                "baseColorTexture" : {
                    "index" : 0
                },
                "metallicFactor" : 0
            }
        },
        {
            "doubleSided" : true,
            "name" : "mat2-43",
            "pbrMetallicRoughness" : {
                "baseColorTexture" : {
                    "index" : 1
                },
                "metallicFactor" : 0
            }
        },
        {
            "doubleSided" : true,
            "name" : "mat2-40",
            "pbrMetallicRoughness" : {
                "baseColorTexture" : {
                    "index" : 2
                },
                "metallicFactor" : 0
            }
        },
        {
            "doubleSided" : true,
            "name" : "mat2-41",
            "pbrMetallicRoughness" : {
                "baseColorTexture" : {
                    "index" : 3
                },
                "metallicFactor" : 0
            }
        },
        {
            "doubleSided" : true,
            "name" : "mat2-42",
            "pbrMetallicRoughness" : {
                "baseColorTexture" : {
                    "index" : 4
                },
                "metallicFactor" : 0
            }
        },
        {
            "doubleSided" : true,
            "name" : "matcolour-208",
            "pbrMetallicRoughness" : {
                "baseColorFactor" : [
                    0.49803921580314636,
                    0.29019609093666077,
                    0.03921568766236305,
                    1
                ],
                "metallicFactor" : 0
            }
        },
        {
            "doubleSided" : true,
            "name" : "mat39-22",
            "pbrMetallicRoughness" : {
                "baseColorTexture" : {
                    "index" : 5
                },
                "metallicFactor" : 0
            }
        },
        {
            "doubleSided" : true,
            "name" : "mat39-21",
            "pbrMetallicRoughness" : {
                "baseColorTexture" : {
                    "index" : 6
                },
                "metallicFactor" : 0
            }
        },
        {
            "doubleSided" : true,
            "name" : "mat39-23",
            "pbrMetallicRoughness" : {
                "baseColorTexture" : {
                    "index" : 7
                },
                "metallicFactor" : 0
            }
        },
        {
            "doubleSided" : true,
            "name" : "mat39-20",
            "pbrMetallicRoughness" : {
                "baseColorTexture" : {
                    "index" : 8
                },
                "metallicFactor" : 0
            }
        }
    ],
    "meshes" : [
        {
            "name" : "Maxis-3d1-mesh-42",
            "primitives" : [
                {
                    "attributes" : {
                        "POSITION" : 0,
                        "NORMAL" : 1,
                        "TEXCOORD_0" : 2
                    },
                    "indices" : 3,
                    "material" : 0
                },
                {
                    "attributes" : {
                        "POSITION" : 4,
                        "NORMAL" : 5,
                        "TEXCOORD_0" : 6
                    },
                    "indices" : 7,
                    "material" : 1
                },
                {
                    "attributes" : {
                        "POSITION" : 8,
                        "NORMAL" : 9,
                        "TEXCOORD_0" : 10
                    },
                    "indices" : 11,
                    "material" : 2
                },
                {
                    "attributes" : {
                        "POSITION" : 12,
                        "NORMAL" : 13,
                        "TEXCOORD_0" : 14
                    },
                    "indices" : 15,
                    "material" : 3
                },
                {
                    "attributes" : {
                        "POSITION" : 16,
                        "NORMAL" : 17,
                        "TEXCOORD_0" : 18
                    },
                    "indices" : 19,
                    "material" : 4
                },
                {
                    "attributes" : {
                        "POSITION" : 20,
                        "NORMAL" : 21,
                        "TEXCOORD_0" : 22
                    },
                    "indices" : 23,
                    "material" : 5
                },
                {
                    "attributes" : {
                        "POSITION" : 24,
                        "NORMAL" : 25,
                        "TEXCOORD_0" : 26
                    },
                    "indices" : 27,
                    "material" : 6
                },
                {
                    "attributes" : {
                        "POSITION" : 28,
                        "NORMAL" : 29,
                        "TEXCOORD_0" : 30
                    },
                    "indices" : 31,
                    "material" : 7
                },
                {
                    "attributes" : {
                        "POSITION" : 32,
                        "NORMAL" : 33,
                        "TEXCOORD_0" : 34
                    },
                    "indices" : 35,
                    "material" : 8
                },
                {
                    "attributes" : {
                        "POSITION" : 36,
                        "NORMAL" : 37,
                        "TEXCOORD_0" : 38
                    },
                    "indices" : 39,
                    "material" : 9
                },
                {
                    "attributes" : {
                        "POSITION" : 40,
                        "NORMAL" : 41,
                        "TEXCOORD_0" : 42
                    },
                    "indices" : 43,
                    "material" : 10
                }
            ]
        }
    ],
    "textures" : [
        {
            "sampler" : 0,
            "source" : 0
        },
        {
            "sampler" : 0,
            "source" : 1
        },
        {
            "sampler" : 0,
            "source" : 2
        },
        {
            "sampler" : 0,
            "source" : 3
        },
        {
            "sampler" : 0,
            "source" : 4
        },
        {
            "sampler" : 0,
            "source" : 5
        },
        {
            "sampler" : 0,
            "source" : 6
        },
        {
            "sampler" : 0,
            "source" : 7
        },
        {
            "sampler" : 0,
            "source" : 8
        }
    ],
    "images" : [
        {
            "mimeType" : "image/png",
            "name" : "tex40-60",
            "uri" : "../../../Textures/tex40-60.png"
        },
        {
            "mimeType" : "image/png",
            "name" : "tex2-43",
            "uri" : "../../../Textures/tex2-43.png"
        },
        {
            "mimeType" : "image/png",
            "name" : "tex2-40",
            "uri" : "../../../Textures/tex2-40.png"
        },
        {
            "mimeType" : "image/png",
            "name" : "tex2-41",
            "uri" : "../../../Textures/tex2-41.png"
        },
        {
            "mimeType" : "image/png",
            "name" : "tex2-42",
            "uri" : "../../../Textures/tex2-42.png"
        },
        {
            "mimeType" : "image/png",
            "name" : "tex39-22",
            "uri" : "../../../Textures/tex39-22.png"
        },
        {
            "mimeType" : "image/png",
            "name" : "tex39-21",
            "uri" : "../../../Textures/tex39-21.png"
        },
        {
            "mimeType" : "image/png",
            "name" : "tex39-23",
            "uri" : "../../../Textures/tex39-23.png"
        },
        {
            "mimeType" : "image/png",
            "name" : "tex39-20",
            "uri" : "../../../Textures/tex39-20.png"
        }
    ],
    "accessors" : [
        {
            "bufferView" : 0,
            "componentType" : 5126,
            "count" : 72,
            "max" : [
                12.251434326171875,
                11.72922134399414,
                -13.749996185302734
            ],
            "min" : [
                -9.641220092773438,
                -11.715045928955078,
                -18.5
            ],
            "type" : "VEC3"
        },
        {
            "bufferView" : 1,
            "componentType" : 5126,
            "count" : 72,
            "type" : "VEC3"
        },
        {
            "bufferView" : 2,
            "componentType" : 5126,
            "count" : 72,
            "type" : "VEC2"
        },
        {
            "bufferView" : 3,
            "componentType" : 5123,
            "count" : 84,
            "type" : "SCALAR"
        },
        {
            "bufferView" : 4,
            "componentType" : 5126,
            "count" : 4,
            "max" : [
                -2.9630393981933594,
                -8.33529281616211,
                -15.258460998535156
            ],
            "min" : [
                -5.174571990966797,
                -10.546825408935547,
                -15.258460998535156
            ],
            "type" : "VEC3"
        },
        {
            "bufferView" : 5,
            "componentType" : 5126,
            "count" : 4,
            "type" : "VEC3"
        },
        {
            "bufferView" : 6,
            "componentType" : 5126,
            "count" : 4,
            "type" : "VEC2"
        },
        {
            "bufferView" : 7,
            "componentType" : 5123,
            "count" : 6,
            "type" : "SCALAR"
        },
        {
            "bufferView" : 8,
            "componentType" : 5126,
            "count" : 6,
            "max" : [
                -2.9630393981933594,
                -8.33529281616211,
                -13.960411071777344
            ],
            "min" : [
                -5.174571990966797,
                -8.33529281616211,
                -15.258460998535156
            ],
            "type" : "VEC3"
        },
        {
            "bufferView" : 9,
            "componentType" : 5126,
            "count" : 6,
            "type" : "VEC3"
        },
        {
            "bufferView" : 10,
            "componentType" : 5126,
            "count" : 6,
            "type" : "VEC2"
        },
        {
            "bufferView" : 11,
            "componentType" : 5123,
            "count" : 6,
            "type" : "SCALAR"
        },
        {
            "bufferView" : 12,
            "componentType" : 5126,
            "count" : 4,
            "max" : [
                -2.9630393981933594,
                -10.546825408935547,
                -13.960411071777344
            ],
            "min" : [
                -5.174571990966797,
                -10.546825408935547,
                -15.258460998535156
            ],
            "type" : "VEC3"
        },
        {
            "bufferView" : 13,
            "componentType" : 5126,
            "count" : 4,
            "type" : "VEC3"
        },
        {
            "bufferView" : 14,
            "componentType" : 5126,
            "count" : 4,
            "type" : "VEC2"
        },
        {
            "bufferView" : 15,
            "componentType" : 5123,
            "count" : 6,
            "type" : "SCALAR"
        },
        {
            "bufferView" : 16,
            "componentType" : 5126,
            "count" : 4,
            "max" : [
                -5.174571990966797,
                -8.33529281616211,
                -13.96041488647461
            ],
            "min" : [
                -5.174571990966797,
                -10.546825408935547,
                -15.258460998535156
            ],
            "type" : "VEC3"
        },
        {
            "bufferView" : 17,
            "componentType" : 5126,
            "count" : 4,
            "type" : "VEC3"
        },
        {
            "bufferView" : 18,
            "componentType" : 5126,
            "count" : 4,
            "type" : "VEC2"
        },
        {
            "bufferView" : 19,
            "componentType" : 5123,
            "count" : 6,
            "type" : "SCALAR"
        },
        {
            "bufferView" : 20,
            "componentType" : 5126,
            "count" : 4,
            "max" : [
                -2.9630393981933594,
                -8.33529281616211,
                -13.960411071777344
            ],
            "min" : [
                -2.9630393981933594,
                -10.546825408935547,
                -15.258460998535156
            ],
            "type" : "VEC3"
        },
        {
            "bufferView" : 21,
            "componentType" : 5126,
            "count" : 4,
            "type" : "VEC3"
        },
        {
            "bufferView" : 22,
            "componentType" : 5126,
            "count" : 4,
            "type" : "VEC2"
        },
        {
            "bufferView" : 23,
            "componentType" : 5123,
            "count" : 6,
            "type" : "SCALAR"
        },
        {
            "bufferView" : 24,
            "componentType" : 5126,
            "count" : 130,
            "max" : [
                14.862499237060547,
                14.862506866455078,
                -11.889999389648438
            ],
            "min" : [
                -12.88083267211914,
                -14.862506866455078,
                -14.38937759399414
            ],
            "type" : "VEC3"
        },
        {
            "bufferView" : 25,
            "componentType" : 5126,
            "count" : 130,
            "type" : "VEC3"
        },
        {
            "bufferView" : 26,
            "componentType" : 5126,
            "count" : 130,
            "type" : "VEC2"
        },
        {
            "bufferView" : 27,
            "componentType" : 5123,
            "count" : 144,
            "type" : "SCALAR"
        },
        {
            "bufferView" : 28,
            "componentType" : 5126,
            "count" : 10,
            "max" : [
                14.862499237060547,
                14.862506866455078,
                7.62939453125e-06
            ],
            "min" : [
                10.40374755859375,
                -14.862506866455078,
                -11.91229248046875
            ],
            "type" : "VEC3"
        },
        {
            "bufferView" : 29,
            "componentType" : 5126,
            "count" : 10,
            "type" : "VEC3"
        },
        {
            "bufferView" : 30,
            "componentType" : 5126,
            "count" : 10,
            "type" : "VEC2"
        },
        {
            "bufferView" : 31,
            "componentType" : 5123,
            "count" : 12,
            "type" : "SCALAR"
        },
        {
            "bufferView" : 32,
            "componentType" : 5126,
            "count" : 10,
            "max" : [
                0,
                14.862506866455078,
                3.814697265625e-06
            ],
            "min" : [
                -12.88083267211914,
                -14.862506866455078,
                -11.91229248046875
            ],
            "type" : "VEC3"
        },
        {
            "bufferView" : 33,
            "componentType" : 5126,
            "count" : 10,
            "type" : "VEC3"
        },
        {
            "bufferView" : 34,
            "componentType" : 5126,
            "count" : 10,
            "type" : "VEC2"
        },
        {
            "bufferView" : 35,
            "componentType" : 5123,
            "count" : 12,
            "type" : "SCALAR"
        },
        {
            "bufferView" : 36,
            "componentType" : 5126,
            "count" : 8,
            "max" : [
                14.862499237060547,
                14.862506866455078,
                3.814697265625e-06
            ],
            "min" : [
                -12.88083267211914,
                -3.9633331298828125,
                -11.91229248046875
            ],
            "type" : "VEC3"
        },
        {
            "bufferView" : 37,
            "componentType" : 5126,
            "count" : 8,
            "type" : "VEC3"
        },
        {
            "bufferView" : 38,
            "componentType" : 5126,
            "count" : 8,
            "type" : "VEC2"
        },
        {
            "bufferView" : 39,
            "componentType" : 5123,
            "count" : 12,
            "type" : "SCALAR"
        },
        {
            "bufferView" : 40,
            "componentType" : 5126,
            "count" : 10,
            "max" : [
                14.862499237060547,
                -2.9724960327148438,
                7.62939453125e-06
            ],
            "min" : [
                -12.88083267211914,
                -14.862506866455078,
                -11.912288665771484
            ],
            "type" : "VEC3"
        },
        {
            "bufferView" : 41,
            "componentType" : 5126,
            "count" : 10,
            "type" : "VEC3"
        },
        {
            "bufferView" : 42,
            "componentType" : 5126,
            "count" : 10,
            "type" : "VEC2"
        },
        {
            "bufferView" : 43,
            "componentType" : 5123,
            "count" : 12,
            "type" : "SCALAR"
        }
    ],
    "bufferViews" : [
        {
            "buffer" : 0,
            "byteLength" : 864,
            "byteOffset" : 0
        },
        {
            "buffer" : 0,
            "byteLength" : 864,
            "byteOffset" : 864
        },
        {
            "buffer" : 0,
            "byteLength" : 576,
            "byteOffset" : 1728
        },
        {
            "buffer" : 0,
            "byteLength" : 168,
            "byteOffset" : 2304
        },
        {
            "buffer" : 0,
            "byteLength" : 48,
            "byteOffset" : 2472
        },
        {
            "buffer" : 0,
            "byteLength" : 48,
            "byteOffset" : 2520
        },
        {
            "buffer" : 0,
            "byteLength" : 32,
            "byteOffset" : 2568
        },
        {
            "buffer" : 0,
            "byteLength" : 12,
            "byteOffset" : 2600
        },
        {
            "buffer" : 0,
            "byteLength" : 72,
            "byteOffset" : 2612
        },
        {
            "buffer" : 0,
            "byteLength" : 72,
            "byteOffset" : 2684
        },
        {
            "buffer" : 0,
            "byteLength" : 48,
            "byteOffset" : 2756
        },
        {
            "buffer" : 0,
            "byteLength" : 12,
            "byteOffset" : 2804
        },
        {
            "buffer" : 0,
            "byteLength" : 48,
            "byteOffset" : 2816
        },
        {
            "buffer" : 0,
            "byteLength" : 48,
            "byteOffset" : 2864
        },
        {
            "buffer" : 0,
            "byteLength" : 32,
            "byteOffset" : 2912
        },
        {
            "buffer" : 0,
            "byteLength" : 12,
            "byteOffset" : 2944
        },
        {
            "buffer" : 0,
            "byteLength" : 48,
            "byteOffset" : 2956
        },
        {
            "buffer" : 0,
            "byteLength" : 48,
            "byteOffset" : 3004
        },
        {
            "buffer" : 0,
            "byteLength" : 32,
            "byteOffset" : 3052
        },
        {
            "buffer" : 0,
            "byteLength" : 12,
            "byteOffset" : 3084
        },
        {
            "buffer" : 0,
            "byteLength" : 48,
            "byteOffset" : 3096
        },
        {
            "buffer" : 0,
            "byteLength" : 48,
            "byteOffset" : 3144
        },
        {
            "buffer" : 0,
            "byteLength" : 32,
            "byteOffset" : 3192
        },
        {
            "buffer" : 0,
            "byteLength" : 12,
            "byteOffset" : 3224
        },
        {
            "buffer" : 0,
            "byteLength" : 1560,
            "byteOffset" : 3236
        },
        {
            "buffer" : 0,
            "byteLength" : 1560,
            "byteOffset" : 4796
        },
        {
            "buffer" : 0,
            "byteLength" : 1040,
            "byteOffset" : 6356
        },
        {
            "buffer" : 0,
            "byteLength" : 288,
            "byteOffset" : 7396
        },
        {
            "buffer" : 0,
            "byteLength" : 120,
            "byteOffset" : 7684
        },
        {
            "buffer" : 0,
            "byteLength" : 120,
            "byteOffset" : 7804
        },
        {
            "buffer" : 0,
            "byteLength" : 80,
            "byteOffset" : 7924
        },
        {
            "buffer" : 0,
            "byteLength" : 24,
            "byteOffset" : 8004
        },
        {
            "buffer" : 0,
            "byteLength" : 120,
            "byteOffset" : 8028
        },
        {
            "buffer" : 0,
            "byteLength" : 120,
            "byteOffset" : 8148
        },
        {
            "buffer" : 0,
            "byteLength" : 80,
            "byteOffset" : 8268
        },
        {
            "buffer" : 0,
            "byteLength" : 24,
            "byteOffset" : 8348
        },
        {
            "buffer" : 0,
            "byteLength" : 96,
            "byteOffset" : 8372
        },
        {
            "buffer" : 0,
            "byteLength" : 96,
            "byteOffset" : 8468
        },
        {
            "buffer" : 0,
            "byteLength" : 64,
            "byteOffset" : 8564
        },
        {
            "buffer" : 0,
            "byteLength" : 24,
            "byteOffset" : 8628
        },
        {
            "buffer" : 0,
            "byteLength" : 120,
            "byteOffset" : 8652
        },
        {
            "buffer" : 0,
            "byteLength" : 120,
            "byteOffset" : 8772
        },
        {
            "buffer" : 0,
            "byteLength" : 80,
            "byteOffset" : 8892
        },
        {
            "buffer" : 0,
            "byteLength" : 24,
            "byteOffset" : 8972
        }
    ],
    "samplers" : [
        {
            "magFilter" : 9729,
            "minFilter" : 9987
        }
    ],
    "buffers" : [
        {
            "byteLength" : 8996,
            "uri" : "medium_2.bin"
        }
    ]
}
