{
	"asset":{
		"generator":"Khronos glTF Blender I/O v4.3.47",
		"version":"2.0"
	},
	"scene":0,
	"scenes":[
		{
			"name":"Scene",
			"nodes":[
				0,
				1
			]
		}
	],
	"nodes":[
		{
			"mesh":0,
			"name":"Maxis-3d1-mesh-44",
			"rotation":[
				0.70710688829422,
				0,
				0,
				0.7071066498756409
			]
		},
		{
			"extras":{
				"gd_node":"Decal",
				"lower_fade":9,
				"upper_fade":10
			},
			"mesh":1,
			"name":"Ground_AO",
			"scale":[
				31.118141174316406,
				1,
				31.146160125732422
			],
			"translation":[
				0.01617431640625,
				-1.7290261894231662e-05,
				0.04668378829956055
			]
		}
	],
	"materials":[
		{
			"name":"matcolour-16",
			"occlusionTexture":{
				"index":0,
				"texCoord":1
			},
			"pbrMetallicRoughness":{
				"baseColorFactor":[
					0.5607843399047852,
					0.062745101749897,
					0.019607843831181526,
					1
				],
				"metallicFactor":0
			}
		},
		{
			"name":"matcolour-48.001",
			"occlusionTexture":{
				"index":1,
				"texCoord":1
			},
			"pbrMetallicRoughness":{
				"baseColorFactor":[
					0.05882352963089943,
					0.05882352963089943,
					0.05882352963089943,
					1
				],
				"metallicFactor":0
			}
		},
		{
			"name":"mat39-1",
			"occlusionTexture":{
				"index":2,
				"texCoord":1
			},
			"pbrMetallicRoughness":{
				"baseColorTexture":{
					"index":3
				},
				"metallicFactor":0
			}
		},
		{
			"name":"mat39-2",
			"occlusionTexture":{
				"index":4,
				"texCoord":1
			},
			"pbrMetallicRoughness":{
				"baseColorTexture":{
					"index":5
				},
				"metallicFactor":0
			}
		},
		{
			"name":"mat2-56.001",
			"occlusionTexture":{
				"index":6,
				"texCoord":1
			},
			"pbrMetallicRoughness":{
				"baseColorTexture":{
					"index":7
				},
				"metallicFactor":0
			}
		},
		{
			"name":"mat2-59.001",
			"occlusionTexture":{
				"index":8,
				"texCoord":1
			},
			"pbrMetallicRoughness":{
				"baseColorTexture":{
					"index":9
				},
				"metallicFactor":0
			}
		},
		{
			"name":"mat2-57.001",
			"occlusionTexture":{
				"index":10,
				"texCoord":1
			},
			"pbrMetallicRoughness":{
				"baseColorTexture":{
					"index":11
				},
				"metallicFactor":0
			}
		},
		{
			"name":"mat2-58.001",
			"occlusionTexture":{
				"index":12,
				"texCoord":1
			},
			"pbrMetallicRoughness":{
				"baseColorTexture":{
					"index":13
				},
				"metallicFactor":0
			}
		},
		{
			"name":"mat39-3",
			"occlusionTexture":{
				"index":14,
				"texCoord":1
			},
			"pbrMetallicRoughness":{
				"baseColorTexture":{
					"index":15
				},
				"metallicFactor":0
			}
		},
		{
			"name":"mat39-0",
			"occlusionTexture":{
				"index":16,
				"texCoord":1
			},
			"pbrMetallicRoughness":{
				"baseColorTexture":{
					"index":17
				},
				"metallicFactor":0
			}
		},
		{
			"name":"Ground_AO",
			"occlusionTexture":{
				"index":18
			},
			"pbrMetallicRoughness":{
				"baseColorFactor":[
					0.800000011920929,
					0.800000011920929,
					0.800000011920929,
					1
				],
				"metallicFactor":0,
				"roughnessFactor":0.5
			}
		}
	],
	"meshes":[
		{
			"name":"Maxis-3d1-mesh-44",
			"primitives":[
				{
					"attributes":{
						"POSITION":0,
						"NORMAL":1,
						"TEXCOORD_0":2,
						"TEXCOORD_1":3
					},
					"indices":4,
					"material":0
				},
				{
					"attributes":{
						"POSITION":5,
						"NORMAL":6,
						"TEXCOORD_0":7,
						"TEXCOORD_1":8
					},
					"indices":9,
					"material":1
				},
				{
					"attributes":{
						"POSITION":10,
						"NORMAL":11,
						"TEXCOORD_0":12,
						"TEXCOORD_1":13
					},
					"indices":14,
					"material":2
				},
				{
					"attributes":{
						"POSITION":15,
						"NORMAL":16,
						"TEXCOORD_0":17,
						"TEXCOORD_1":18
					},
					"indices":19,
					"material":3
				},
				{
					"attributes":{
						"POSITION":20,
						"NORMAL":21,
						"TEXCOORD_0":22,
						"TEXCOORD_1":23
					},
					"indices":24,
					"material":4
				},
				{
					"attributes":{
						"POSITION":25,
						"NORMAL":26,
						"TEXCOORD_0":27,
						"TEXCOORD_1":28
					},
					"indices":29,
					"material":5
				},
				{
					"attributes":{
						"POSITION":30,
						"NORMAL":31,
						"TEXCOORD_0":32,
						"TEXCOORD_1":33
					},
					"indices":34,
					"material":6
				},
				{
					"attributes":{
						"POSITION":35,
						"NORMAL":36,
						"TEXCOORD_0":37,
						"TEXCOORD_1":38
					},
					"indices":39,
					"material":7
				},
				{
					"attributes":{
						"POSITION":40,
						"NORMAL":41,
						"TEXCOORD_0":42,
						"TEXCOORD_1":43
					},
					"indices":44,
					"material":8
				},
				{
					"attributes":{
						"POSITION":45,
						"NORMAL":46,
						"TEXCOORD_0":47,
						"TEXCOORD_1":48
					},
					"indices":49,
					"material":9
				}
			]
		},
		{
			"name":"Plane",
			"primitives":[
				{
					"attributes":{
						"POSITION":50,
						"NORMAL":51,
						"TEXCOORD_0":52
					},
					"indices":53,
					"material":10
				}
			]
		}
	],
	"textures":[
		{
			"sampler":0,
			"source":0
		},
		{
			"sampler":0,
			"source":0
		},
		{
			"sampler":0,
			"source":0
		},
		{
			"sampler":0,
			"source":1
		},
		{
			"sampler":0,
			"source":0
		},
		{
			"sampler":0,
			"source":2
		},
		{
			"sampler":0,
			"source":0
		},
		{
			"sampler":0,
			"source":3
		},
		{
			"sampler":0,
			"source":0
		},
		{
			"sampler":0,
			"source":4
		},
		{
			"sampler":0,
			"source":0
		},
		{
			"sampler":0,
			"source":5
		},
		{
			"sampler":0,
			"source":0
		},
		{
			"sampler":0,
			"source":6
		},
		{
			"sampler":0,
			"source":0
		},
		{
			"sampler":0,
			"source":7
		},
		{
			"sampler":0,
			"source":0
		},
		{
			"sampler":0,
			"source":8
		},
		{
			"sampler":0,
			"source":9
		}
	],
	"images":[
		{
			"mimeType":"image/png",
			"name":"medium_4.png",
			"uri":"../../../Textures/ambient_occlusion/Buildings/Offices/medium_4.png"
		},
		{
			"mimeType":"image/png",
			"name":"tex39-1",
			"uri":"../../../Textures/tex39-1.png"
		},
		{
			"mimeType":"image/png",
			"name":"tex39-2",
			"uri":"../../../Textures/tex39-2.png"
		},
		{
			"mimeType":"image/png",
			"name":"tex2-56",
			"uri":"../../../Textures/tex2-56.png"
		},
		{
			"mimeType":"image/png",
			"name":"tex2-59",
			"uri":"../../../Textures/tex2-59.png"
		},
		{
			"mimeType":"image/png",
			"name":"tex2-57",
			"uri":"../../../Textures/tex2-57.png"
		},
		{
			"mimeType":"image/png",
			"name":"tex2-58",
			"uri":"../../../Textures/tex2-58.png"
		},
		{
			"mimeType":"image/png",
			"name":"tex39-3",
			"uri":"../../../Textures/tex39-3.png"
		},
		{
			"mimeType":"image/png",
			"name":"tex39-0",
			"uri":"../../../Textures/tex39-0.png"
		},
		{
			"mimeType":"image/png",
			"name":"medium_4_ground.png",
			"uri":"../../../Textures/ambient_occlusion/Buildings/Offices/medium_4_ground.png"
		}
	],
	"accessors":[
		{
			"bufferView":0,
			"componentType":5126,
			"count":20,
			"max":[
				-5.879249572753906,
				-8.457897186279297,
				-48.74290084838867
			],
			"min":[
				-6.044376373291016,
				-8.62302017211914,
				-52.66059875488281
			],
			"type":"VEC3"
		},
		{
			"bufferView":1,
			"componentType":5126,
			"count":20,
			"type":"VEC3"
		},
		{
			"bufferView":2,
			"componentType":5126,
			"count":20,
			"type":"VEC2"
		},
		{
			"bufferView":3,
			"componentType":5126,
			"count":20,
			"type":"VEC2"
		},
		{
			"bufferView":4,
			"componentType":5123,
			"count":30,
			"type":"SCALAR"
		},
		{
			"bufferView":5,
			"componentType":5126,
			"count":94,
			"max":[
				15.075244903564453,
				15.112747192382812,
				-5.496604919433594
			],
			"min":[
				-15.042896270751953,
				-14.977916717529297,
				-48.74290084838867
			],
			"type":"VEC3"
		},
		{
			"bufferView":6,
			"componentType":5126,
			"count":94,
			"type":"VEC3"
		},
		{
			"bufferView":7,
			"componentType":5126,
			"count":94,
			"type":"VEC2"
		},
		{
			"bufferView":8,
			"componentType":5126,
			"count":94,
			"type":"VEC2"
		},
		{
			"bufferView":9,
			"componentType":5123,
			"count":183,
			"type":"SCALAR"
		},
		{
			"bufferView":10,
			"componentType":5126,
			"count":18,
			"max":[
				4.0194854736328125,
				14.600830078125,
				-6.202262878417969
			],
			"min":[
				-7.536537170410156,
				-14.546684265136719,
				-48.74290084838867
			],
			"type":"VEC3"
		},
		{
			"bufferView":11,
			"componentType":5126,
			"count":18,
			"type":"VEC3"
		},
		{
			"bufferView":12,
			"componentType":5126,
			"count":18,
			"type":"VEC2"
		},
		{
			"bufferView":13,
			"componentType":5126,
			"count":18,
			"type":"VEC2"
		},
		{
			"bufferView":14,
			"componentType":5123,
			"count":24,
			"type":"SCALAR"
		},
		{
			"bufferView":15,
			"componentType":5126,
			"count":18,
			"max":[
				14.619125366210938,
				14.600830078125,
				-6.202262878417969
			],
			"min":[
				3.0146141052246094,
				-14.546684265136719,
				-48.74290084838867
			],
			"type":"VEC3"
		},
		{
			"bufferView":16,
			"componentType":5126,
			"count":18,
			"type":"VEC3"
		},
		{
			"bufferView":17,
			"componentType":5126,
			"count":18,
			"type":"VEC2"
		},
		{
			"bufferView":18,
			"componentType":5126,
			"count":18,
			"type":"VEC2"
		},
		{
			"bufferView":19,
			"componentType":5123,
			"count":24,
			"type":"SCALAR"
		},
		{
			"bufferView":20,
			"componentType":5126,
			"count":4,
			"max":[
				15.075244903564453,
				-14.977916717529297,
				1.52587890625e-05
			],
			"min":[
				-15.02459716796875,
				-15.026397705078125,
				-6.202262878417969
			],
			"type":"VEC3"
		},
		{
			"bufferView":21,
			"componentType":5126,
			"count":4,
			"type":"VEC3"
		},
		{
			"bufferView":22,
			"componentType":5126,
			"count":4,
			"type":"VEC2"
		},
		{
			"bufferView":23,
			"componentType":5126,
			"count":4,
			"type":"VEC2"
		},
		{
			"bufferView":24,
			"componentType":5123,
			"count":6,
			"type":"SCALAR"
		},
		{
			"bufferView":25,
			"componentType":5126,
			"count":8,
			"max":[
				15.075244903564453,
				15.119758605957031,
				0
			],
			"min":[
				-15.042896270751953,
				2.0301666259765625,
				-6.2022705078125
			],
			"type":"VEC3"
		},
		{
			"bufferView":26,
			"componentType":5126,
			"count":8,
			"type":"VEC3"
		},
		{
			"bufferView":27,
			"componentType":5126,
			"count":8,
			"type":"VEC2"
		},
		{
			"bufferView":28,
			"componentType":5126,
			"count":8,
			"type":"VEC2"
		},
		{
			"bufferView":29,
			"componentType":5123,
			"count":12,
			"type":"SCALAR"
		},
		{
			"bufferView":30,
			"componentType":5126,
			"count":4,
			"max":[
				-15.012710571289062,
				15.119758605957031,
				1.52587890625e-05
			],
			"min":[
				-15.042896270751953,
				-15.026397705078125,
				-6.2022705078125
			],
			"type":"VEC3"
		},
		{
			"bufferView":31,
			"componentType":5126,
			"count":4,
			"type":"VEC3"
		},
		{
			"bufferView":32,
			"componentType":5126,
			"count":4,
			"type":"VEC2"
		},
		{
			"bufferView":33,
			"componentType":5126,
			"count":4,
			"type":"VEC2"
		},
		{
			"bufferView":34,
			"componentType":5123,
			"count":6,
			"type":"SCALAR"
		},
		{
			"bufferView":35,
			"componentType":5126,
			"count":10,
			"max":[
				15.075244903564453,
				15.119758605957031,
				7.62939453125e-06
			],
			"min":[
				10.551151275634766,
				-15.02639389038086,
				-6.2022705078125
			],
			"type":"VEC3"
		},
		{
			"bufferView":36,
			"componentType":5126,
			"count":10,
			"type":"VEC3"
		},
		{
			"bufferView":37,
			"componentType":5126,
			"count":10,
			"type":"VEC2"
		},
		{
			"bufferView":38,
			"componentType":5126,
			"count":10,
			"type":"VEC2"
		},
		{
			"bufferView":39,
			"componentType":5123,
			"count":12,
			"type":"SCALAR"
		},
		{
			"bufferView":40,
			"componentType":5126,
			"count":24,
			"max":[
				14.619125366210938,
				14.600830078125,
				-6.202262878417969
			],
			"min":[
				-7.536537170410156,
				0.5024223327636719,
				-48.74290084838867
			],
			"type":"VEC3"
		},
		{
			"bufferView":41,
			"componentType":5126,
			"count":24,
			"type":"VEC3"
		},
		{
			"bufferView":42,
			"componentType":5126,
			"count":24,
			"type":"VEC2"
		},
		{
			"bufferView":43,
			"componentType":5126,
			"count":24,
			"type":"VEC2"
		},
		{
			"bufferView":44,
			"componentType":5123,
			"count":36,
			"type":"SCALAR"
		},
		{
			"bufferView":45,
			"componentType":5126,
			"count":12,
			"max":[
				14.613994598388672,
				-9.04384994506836,
				-6.202262878417969
			],
			"min":[
				-7.488056182861328,
				-14.546684265136719,
				-48.74290084838867
			],
			"type":"VEC3"
		},
		{
			"bufferView":46,
			"componentType":5126,
			"count":12,
			"type":"VEC3"
		},
		{
			"bufferView":47,
			"componentType":5126,
			"count":12,
			"type":"VEC2"
		},
		{
			"bufferView":48,
			"componentType":5126,
			"count":12,
			"type":"VEC2"
		},
		{
			"bufferView":49,
			"componentType":5123,
			"count":18,
			"type":"SCALAR"
		},
		{
			"bufferView":50,
			"componentType":5126,
			"count":4,
			"max":[
				0.5,
				0,
				0.5
			],
			"min":[
				-0.5,
				0,
				-0.5
			],
			"type":"VEC3"
		},
		{
			"bufferView":51,
			"componentType":5126,
			"count":4,
			"type":"VEC3"
		},
		{
			"bufferView":52,
			"componentType":5126,
			"count":4,
			"type":"VEC2"
		},
		{
			"bufferView":53,
			"componentType":5123,
			"count":6,
			"type":"SCALAR"
		}
	],
	"bufferViews":[
		{
			"buffer":0,
			"byteLength":240,
			"byteOffset":0,
			"target":34962
		},
		{
			"buffer":0,
			"byteLength":240,
			"byteOffset":240,
			"target":34962
		},
		{
			"buffer":0,
			"byteLength":160,
			"byteOffset":480,
			"target":34962
		},
		{
			"buffer":0,
			"byteLength":160,
			"byteOffset":640,
			"target":34962
		},
		{
			"buffer":0,
			"byteLength":60,
			"byteOffset":800,
			"target":34963
		},
		{
			"buffer":0,
			"byteLength":1128,
			"byteOffset":860,
			"target":34962
		},
		{
			"buffer":0,
			"byteLength":1128,
			"byteOffset":1988,
			"target":34962
		},
		{
			"buffer":0,
			"byteLength":752,
			"byteOffset":3116,
			"target":34962
		},
		{
			"buffer":0,
			"byteLength":752,
			"byteOffset":3868,
			"target":34962
		},
		{
			"buffer":0,
			"byteLength":366,
			"byteOffset":4620,
			"target":34963
		},
		{
			"buffer":0,
			"byteLength":216,
			"byteOffset":4988,
			"target":34962
		},
		{
			"buffer":0,
			"byteLength":216,
			"byteOffset":5204,
			"target":34962
		},
		{
			"buffer":0,
			"byteLength":144,
			"byteOffset":5420,
			"target":34962
		},
		{
			"buffer":0,
			"byteLength":144,
			"byteOffset":5564,
			"target":34962
		},
		{
			"buffer":0,
			"byteLength":48,
			"byteOffset":5708,
			"target":34963
		},
		{
			"buffer":0,
			"byteLength":216,
			"byteOffset":5756,
			"target":34962
		},
		{
			"buffer":0,
			"byteLength":216,
			"byteOffset":5972,
			"target":34962
		},
		{
			"buffer":0,
			"byteLength":144,
			"byteOffset":6188,
			"target":34962
		},
		{
			"buffer":0,
			"byteLength":144,
			"byteOffset":6332,
			"target":34962
		},
		{
			"buffer":0,
			"byteLength":48,
			"byteOffset":6476,
			"target":34963
		},
		{
			"buffer":0,
			"byteLength":48,
			"byteOffset":6524,
			"target":34962
		},
		{
			"buffer":0,
			"byteLength":48,
			"byteOffset":6572,
			"target":34962
		},
		{
			"buffer":0,
			"byteLength":32,
			"byteOffset":6620,
			"target":34962
		},
		{
			"buffer":0,
			"byteLength":32,
			"byteOffset":6652,
			"target":34962
		},
		{
			"buffer":0,
			"byteLength":12,
			"byteOffset":6684,
			"target":34963
		},
		{
			"buffer":0,
			"byteLength":96,
			"byteOffset":6696,
			"target":34962
		},
		{
			"buffer":0,
			"byteLength":96,
			"byteOffset":6792,
			"target":34962
		},
		{
			"buffer":0,
			"byteLength":64,
			"byteOffset":6888,
			"target":34962
		},
		{
			"buffer":0,
			"byteLength":64,
			"byteOffset":6952,
			"target":34962
		},
		{
			"buffer":0,
			"byteLength":24,
			"byteOffset":7016,
			"target":34963
		},
		{
			"buffer":0,
			"byteLength":48,
			"byteOffset":7040,
			"target":34962
		},
		{
			"buffer":0,
			"byteLength":48,
			"byteOffset":7088,
			"target":34962
		},
		{
			"buffer":0,
			"byteLength":32,
			"byteOffset":7136,
			"target":34962
		},
		{
			"buffer":0,
			"byteLength":32,
			"byteOffset":7168,
			"target":34962
		},
		{
			"buffer":0,
			"byteLength":12,
			"byteOffset":7200,
			"target":34963
		},
		{
			"buffer":0,
			"byteLength":120,
			"byteOffset":7212,
			"target":34962
		},
		{
			"buffer":0,
			"byteLength":120,
			"byteOffset":7332,
			"target":34962
		},
		{
			"buffer":0,
			"byteLength":80,
			"byteOffset":7452,
			"target":34962
		},
		{
			"buffer":0,
			"byteLength":80,
			"byteOffset":7532,
			"target":34962
		},
		{
			"buffer":0,
			"byteLength":24,
			"byteOffset":7612,
			"target":34963
		},
		{
			"buffer":0,
			"byteLength":288,
			"byteOffset":7636,
			"target":34962
		},
		{
			"buffer":0,
			"byteLength":288,
			"byteOffset":7924,
			"target":34962
		},
		{
			"buffer":0,
			"byteLength":192,
			"byteOffset":8212,
			"target":34962
		},
		{
			"buffer":0,
			"byteLength":192,
			"byteOffset":8404,
			"target":34962
		},
		{
			"buffer":0,
			"byteLength":72,
			"byteOffset":8596,
			"target":34963
		},
		{
			"buffer":0,
			"byteLength":144,
			"byteOffset":8668,
			"target":34962
		},
		{
			"buffer":0,
			"byteLength":144,
			"byteOffset":8812,
			"target":34962
		},
		{
			"buffer":0,
			"byteLength":96,
			"byteOffset":8956,
			"target":34962
		},
		{
			"buffer":0,
			"byteLength":96,
			"byteOffset":9052,
			"target":34962
		},
		{
			"buffer":0,
			"byteLength":36,
			"byteOffset":9148,
			"target":34963
		},
		{
			"buffer":0,
			"byteLength":48,
			"byteOffset":9184,
			"target":34962
		},
		{
			"buffer":0,
			"byteLength":48,
			"byteOffset":9232,
			"target":34962
		},
		{
			"buffer":0,
			"byteLength":32,
			"byteOffset":9280,
			"target":34962
		},
		{
			"buffer":0,
			"byteLength":12,
			"byteOffset":9312,
			"target":34963
		}
	],
	"samplers":[
		{
			"magFilter":9729,
			"minFilter":9987
		}
	],
	"buffers":[
		{
			"byteLength":9324,
			"uri":"medium_4.bin"
		}
	]
}
