{
	"asset":{
		"generator":"Khronos glTF Blender I/O v4.3.47",
		"version":"2.0"
	},
	"scene":0,
	"scenes":[
		{
			"name":"Scene",
			"nodes":[
				0,
				1
			]
		}
	],
	"nodes":[
		{
			"mesh":0,
			"name":"Maxis-3d3-mesh-36",
			"rotation":[
				0.70710688829422,
				0,
				0,
				0.7071066498756409
			]
		},
		{
			"extras":{
				"gd_node":"Decal",
				"lower_fade":9,
				"upper_fade":10
			},
			"mesh":1,
			"name":"Ground_AO",
			"scale":[
				19.294509887695312,
				1,
				21.123958587646484
			],
			"translation":[
				-0.71856689453125,
				0,
				3.337860107421875e-06
			]
		}
	],
	"materials":[
		{
			"name":"mat40-54.001",
			"occlusionTexture":{
				"index":0,
				"texCoord":1
			},
			"pbrMetallicRoughness":{
				"baseColorTexture":{
					"index":1
				},
				"metallicFactor":0
			}
		},
		{
			"name":"mat39-20.001",
			"occlusionTexture":{
				"index":2,
				"texCoord":1
			},
			"pbrMetallicRoughness":{
				"baseColorTexture":{
					"index":3
				},
				"metallicFactor":0
			}
		},
		{
			"name":"mat39-23.001",
			"occlusionTexture":{
				"index":4,
				"texCoord":1
			},
			"pbrMetallicRoughness":{
				"baseColorTexture":{
					"index":5
				},
				"metallicFactor":0
			}
		},
		{
			"name":"mat39-22.001",
			"occlusionTexture":{
				"index":6,
				"texCoord":1
			},
			"pbrMetallicRoughness":{
				"baseColorTexture":{
					"index":7
				},
				"metallicFactor":0
			}
		},
		{
			"name":"mat39-21.001",
			"occlusionTexture":{
				"index":8,
				"texCoord":1
			},
			"pbrMetallicRoughness":{
				"baseColorTexture":{
					"index":9
				},
				"metallicFactor":0
			}
		},
		{
			"name":"matcolour-48.002",
			"occlusionTexture":{
				"index":10,
				"texCoord":1
			},
			"pbrMetallicRoughness":{
				"baseColorFactor":[
					0.05882352963089943,
					0.05882352963089943,
					0.05882352963089943,
					1
				],
				"metallicFactor":0
			}
		},
		{
			"name":"Ground_AO",
			"occlusionTexture":{
				"index":11
			},
			"pbrMetallicRoughness":{
				"baseColorFactor":[
					0.800000011920929,
					0.800000011920929,
					0.800000011920929,
					1
				],
				"metallicFactor":0,
				"roughnessFactor":0.5
			}
		}
	],
	"meshes":[
		{
			"name":"Maxis-3d3-mesh-36",
			"primitives":[
				{
					"attributes":{
						"POSITION":0,
						"NORMAL":1,
						"TEXCOORD_0":2,
						"TEXCOORD_1":3
					},
					"indices":4,
					"material":0
				},
				{
					"attributes":{
						"POSITION":5,
						"NORMAL":6,
						"TEXCOORD_0":7,
						"TEXCOORD_1":8
					},
					"indices":9,
					"material":1
				},
				{
					"attributes":{
						"POSITION":10,
						"NORMAL":11,
						"TEXCOORD_0":12,
						"TEXCOORD_1":13
					},
					"indices":14,
					"material":2
				},
				{
					"attributes":{
						"POSITION":15,
						"NORMAL":16,
						"TEXCOORD_0":17,
						"TEXCOORD_1":18
					},
					"indices":19,
					"material":3
				},
				{
					"attributes":{
						"POSITION":20,
						"NORMAL":21,
						"TEXCOORD_0":22,
						"TEXCOORD_1":23
					},
					"indices":24,
					"material":4
				},
				{
					"attributes":{
						"POSITION":25,
						"NORMAL":26,
						"TEXCOORD_0":27,
						"TEXCOORD_1":28
					},
					"indices":29,
					"material":5
				}
			]
		},
		{
			"name":"Plane",
			"primitives":[
				{
					"attributes":{
						"POSITION":30,
						"NORMAL":31,
						"TEXCOORD_0":32
					},
					"indices":33,
					"material":6
				}
			]
		}
	],
	"textures":[
		{
			"sampler":0,
			"source":0
		},
		{
			"sampler":0,
			"source":1
		},
		{
			"sampler":0,
			"source":0
		},
		{
			"sampler":0,
			"source":2
		},
		{
			"sampler":0,
			"source":0
		},
		{
			"sampler":0,
			"source":3
		},
		{
			"sampler":0,
			"source":0
		},
		{
			"sampler":0,
			"source":4
		},
		{
			"sampler":0,
			"source":0
		},
		{
			"sampler":0,
			"source":5
		},
		{
			"sampler":0,
			"source":0
		},
		{
			"sampler":0,
			"source":6
		}
	],
	"images":[
		{
			"mimeType":"image/png",
			"name":"retail.png",
			"uri":"../../../Textures/ambient_occlusion/Buildings/Offices/retail.png"
		},
		{
			"mimeType":"image/png",
			"name":"tex40-54",
			"uri":"../../../Textures/tex40-54.png"
		},
		{
			"mimeType":"image/png",
			"name":"tex39-20",
			"uri":"../../../Textures/tex39-20.png"
		},
		{
			"mimeType":"image/png",
			"name":"tex39-23",
			"uri":"../../../Textures/tex39-23.png"
		},
		{
			"mimeType":"image/png",
			"name":"tex39-22",
			"uri":"../../../Textures/tex39-22.png"
		},
		{
			"mimeType":"image/png",
			"name":"tex39-21",
			"uri":"../../../Textures/tex39-21.png"
		},
		{
			"mimeType":"image/png",
			"name":"retail_ground.png",
			"uri":"../../../Textures/ambient_occlusion/Buildings/Offices/retail_ground.png"
		}
	],
	"accessors":[
		{
			"bufferView":0,
			"componentType":5126,
			"count":4,
			"max":[
				8.428688049316406,
				-5.671295166015625,
				-12.80615234375
			],
			"min":[
				-9.86581802368164,
				-5.671298980712891,
				-20.489849090576172
			],
			"type":"VEC3"
		},
		{
			"bufferView":1,
			"componentType":5126,
			"count":4,
			"type":"VEC3"
		},
		{
			"bufferView":2,
			"componentType":5126,
			"count":4,
			"type":"VEC2"
		},
		{
			"bufferView":3,
			"componentType":5126,
			"count":4,
			"type":"VEC2"
		},
		{
			"bufferView":4,
			"componentType":5123,
			"count":6,
			"type":"SCALAR"
		},
		{
			"bufferView":5,
			"componentType":5126,
			"count":4,
			"max":[
				8.428688049316406,
				-10.061973571777344,
				0
			],
			"min":[
				-9.86581802368164,
				-10.06197738647461,
				-12.80615234375
			],
			"type":"VEC3"
		},
		{
			"bufferView":6,
			"componentType":5126,
			"count":4,
			"type":"VEC3"
		},
		{
			"bufferView":7,
			"componentType":5126,
			"count":4,
			"type":"VEC2"
		},
		{
			"bufferView":8,
			"componentType":5126,
			"count":4,
			"type":"VEC2"
		},
		{
			"bufferView":9,
			"componentType":5123,
			"count":6,
			"type":"SCALAR"
		},
		{
			"bufferView":10,
			"componentType":5126,
			"count":4,
			"max":[
				8.428688049316406,
				10.061981201171875,
				0
			],
			"min":[
				-9.865821838378906,
				10.061973571777344,
				-20.489849090576172
			],
			"type":"VEC3"
		},
		{
			"bufferView":11,
			"componentType":5126,
			"count":4,
			"type":"VEC3"
		},
		{
			"bufferView":12,
			"componentType":5126,
			"count":4,
			"type":"VEC2"
		},
		{
			"bufferView":13,
			"componentType":5126,
			"count":4,
			"type":"VEC2"
		},
		{
			"bufferView":14,
			"componentType":5123,
			"count":6,
			"type":"SCALAR"
		},
		{
			"bufferView":15,
			"componentType":5126,
			"count":6,
			"max":[
				8.428688049316406,
				10.061981201171875,
				0
			],
			"min":[
				8.42868423461914,
				-10.06197738647461,
				-20.489849090576172
			],
			"type":"VEC3"
		},
		{
			"bufferView":16,
			"componentType":5126,
			"count":6,
			"type":"VEC3"
		},
		{
			"bufferView":17,
			"componentType":5126,
			"count":6,
			"type":"VEC2"
		},
		{
			"bufferView":18,
			"componentType":5126,
			"count":6,
			"type":"VEC2"
		},
		{
			"bufferView":19,
			"componentType":5123,
			"count":12,
			"type":"SCALAR"
		},
		{
			"bufferView":20,
			"componentType":5126,
			"count":10,
			"max":[
				-9.86581802368164,
				10.06197738647461,
				0
			],
			"min":[
				-9.865821838378906,
				-10.06197738647461,
				-20.489849090576172
			],
			"type":"VEC3"
		},
		{
			"bufferView":21,
			"componentType":5126,
			"count":10,
			"type":"VEC3"
		},
		{
			"bufferView":22,
			"componentType":5126,
			"count":10,
			"type":"VEC2"
		},
		{
			"bufferView":23,
			"componentType":5126,
			"count":10,
			"type":"VEC2"
		},
		{
			"bufferView":24,
			"componentType":5123,
			"count":12,
			"type":"SCALAR"
		},
		{
			"bufferView":25,
			"componentType":5126,
			"count":39,
			"max":[
				8.428688049316406,
				10.06197738647461,
				-12.80615234375
			],
			"min":[
				-9.86581802368164,
				-10.06197738647461,
				-20.489849090576172
			],
			"type":"VEC3"
		},
		{
			"bufferView":26,
			"componentType":5126,
			"count":39,
			"type":"VEC3"
		},
		{
			"bufferView":27,
			"componentType":5126,
			"count":39,
			"type":"VEC2"
		},
		{
			"bufferView":28,
			"componentType":5126,
			"count":39,
			"type":"VEC2"
		},
		{
			"bufferView":29,
			"componentType":5123,
			"count":60,
			"type":"SCALAR"
		},
		{
			"bufferView":30,
			"componentType":5126,
			"count":4,
			"max":[
				0.5,
				0,
				0.5
			],
			"min":[
				-0.5,
				0,
				-0.5
			],
			"type":"VEC3"
		},
		{
			"bufferView":31,
			"componentType":5126,
			"count":4,
			"type":"VEC3"
		},
		{
			"bufferView":32,
			"componentType":5126,
			"count":4,
			"type":"VEC2"
		},
		{
			"bufferView":33,
			"componentType":5123,
			"count":6,
			"type":"SCALAR"
		}
	],
	"bufferViews":[
		{
			"buffer":0,
			"byteLength":48,
			"byteOffset":0,
			"target":34962
		},
		{
			"buffer":0,
			"byteLength":48,
			"byteOffset":48,
			"target":34962
		},
		{
			"buffer":0,
			"byteLength":32,
			"byteOffset":96,
			"target":34962
		},
		{
			"buffer":0,
			"byteLength":32,
			"byteOffset":128,
			"target":34962
		},
		{
			"buffer":0,
			"byteLength":12,
			"byteOffset":160,
			"target":34963
		},
		{
			"buffer":0,
			"byteLength":48,
			"byteOffset":172,
			"target":34962
		},
		{
			"buffer":0,
			"byteLength":48,
			"byteOffset":220,
			"target":34962
		},
		{
			"buffer":0,
			"byteLength":32,
			"byteOffset":268,
			"target":34962
		},
		{
			"buffer":0,
			"byteLength":32,
			"byteOffset":300,
			"target":34962
		},
		{
			"buffer":0,
			"byteLength":12,
			"byteOffset":332,
			"target":34963
		},
		{
			"buffer":0,
			"byteLength":48,
			"byteOffset":344,
			"target":34962
		},
		{
			"buffer":0,
			"byteLength":48,
			"byteOffset":392,
			"target":34962
		},
		{
			"buffer":0,
			"byteLength":32,
			"byteOffset":440,
			"target":34962
		},
		{
			"buffer":0,
			"byteLength":32,
			"byteOffset":472,
			"target":34962
		},
		{
			"buffer":0,
			"byteLength":12,
			"byteOffset":504,
			"target":34963
		},
		{
			"buffer":0,
			"byteLength":72,
			"byteOffset":516,
			"target":34962
		},
		{
			"buffer":0,
			"byteLength":72,
			"byteOffset":588,
			"target":34962
		},
		{
			"buffer":0,
			"byteLength":48,
			"byteOffset":660,
			"target":34962
		},
		{
			"buffer":0,
			"byteLength":48,
			"byteOffset":708,
			"target":34962
		},
		{
			"buffer":0,
			"byteLength":24,
			"byteOffset":756,
			"target":34963
		},
		{
			"buffer":0,
			"byteLength":120,
			"byteOffset":780,
			"target":34962
		},
		{
			"buffer":0,
			"byteLength":120,
			"byteOffset":900,
			"target":34962
		},
		{
			"buffer":0,
			"byteLength":80,
			"byteOffset":1020,
			"target":34962
		},
		{
			"buffer":0,
			"byteLength":80,
			"byteOffset":1100,
			"target":34962
		},
		{
			"buffer":0,
			"byteLength":24,
			"byteOffset":1180,
			"target":34963
		},
		{
			"buffer":0,
			"byteLength":468,
			"byteOffset":1204,
			"target":34962
		},
		{
			"buffer":0,
			"byteLength":468,
			"byteOffset":1672,
			"target":34962
		},
		{
			"buffer":0,
			"byteLength":312,
			"byteOffset":2140,
			"target":34962
		},
		{
			"buffer":0,
			"byteLength":312,
			"byteOffset":2452,
			"target":34962
		},
		{
			"buffer":0,
			"byteLength":120,
			"byteOffset":2764,
			"target":34963
		},
		{
			"buffer":0,
			"byteLength":48,
			"byteOffset":2884,
			"target":34962
		},
		{
			"buffer":0,
			"byteLength":48,
			"byteOffset":2932,
			"target":34962
		},
		{
			"buffer":0,
			"byteLength":32,
			"byteOffset":2980,
			"target":34962
		},
		{
			"buffer":0,
			"byteLength":12,
			"byteOffset":3012,
			"target":34963
		}
	],
	"samplers":[
		{
			"magFilter":9729,
			"minFilter":9987
		}
	],
	"buffers":[
		{
			"byteLength":3024,
			"uri":"retail.bin"
		}
	]
}
