{
	"asset":{
		"generator":"Khronos glTF Blender I/O v4.3.47",
		"version":"2.0"
	},
	"scene":0,
	"scenes":[
		{
			"name":"Scene",
			"nodes":[
				0,
				1
			]
		}
	],
	"nodes":[
		{
			"mesh":0,
			"name":"Maxis-3d3-mesh-25",
			"rotation":[
				0.70710688829422,
				0,
				0,
				0.7071066498756409
			]
		},
		{
			"extras":{
				"gd_node":"Decal",
				"lower_fade":9,
				"upper_fade":10
			},
			"mesh":1,
			"name":"Ground_AO",
			"scale":[
				15.239013671875,
				1,
				15.286825180053711
			],
			"translation":[
				0,
				-4.777688900503563e-06,
				0.023902416229248047
			]
		}
	],
	"materials":[
		{
			"name":"matcolour-48",
			"occlusionTexture":{
				"index":0,
				"texCoord":1
			},
			"pbrMetallicRoughness":{
				"baseColorFactor":[
					0.05882352963089943,
					0.05882352963089943,
					0.05882352963089943,
					1
				],
				"metallicFactor":0
			}
		},
		{
			"name":"mat2-55.001",
			"occlusionTexture":{
				"index":1,
				"texCoord":1
			},
			"pbrMetallicRoughness":{
				"baseColorTexture":{
					"index":2
				},
				"metallicFactor":0
			}
		},
		{
			"name":"mat2-52.001",
			"occlusionTexture":{
				"index":3,
				"texCoord":1
			},
			"pbrMetallicRoughness":{
				"baseColorTexture":{
					"index":4
				},
				"metallicFactor":0
			}
		},
		{
			"name":"mat2-40.001",
			"occlusionTexture":{
				"index":5,
				"texCoord":1
			},
			"pbrMetallicRoughness":{
				"baseColorTexture":{
					"index":6
				},
				"metallicFactor":0
			}
		},
		{
			"name":"mat2-54.001",
			"occlusionTexture":{
				"index":7,
				"texCoord":1
			},
			"pbrMetallicRoughness":{
				"baseColorTexture":{
					"index":8
				},
				"metallicFactor":0
			}
		},
		{
			"name":"mat2-53.001",
			"occlusionTexture":{
				"index":9,
				"texCoord":1
			},
			"pbrMetallicRoughness":{
				"baseColorTexture":{
					"index":10
				},
				"metallicFactor":0
			}
		},
		{
			"name":"mat40-3",
			"occlusionTexture":{
				"index":11,
				"texCoord":1
			},
			"pbrMetallicRoughness":{
				"baseColorTexture":{
					"index":12
				},
				"metallicFactor":0
			}
		},
		{
			"name":"mat40-0",
			"occlusionTexture":{
				"index":13,
				"texCoord":1
			},
			"pbrMetallicRoughness":{
				"baseColorTexture":{
					"index":14
				},
				"metallicFactor":0
			}
		},
		{
			"name":"mat40-1",
			"occlusionTexture":{
				"index":15,
				"texCoord":1
			},
			"pbrMetallicRoughness":{
				"baseColorTexture":{
					"index":16
				},
				"metallicFactor":0
			}
		},
		{
			"name":"mat40-2",
			"occlusionTexture":{
				"index":17,
				"texCoord":1
			},
			"pbrMetallicRoughness":{
				"baseColorTexture":{
					"index":18
				},
				"metallicFactor":0
			}
		},
		{
			"name":"Ground_AO",
			"occlusionTexture":{
				"index":19
			},
			"pbrMetallicRoughness":{
				"baseColorFactor":[
					0.800000011920929,
					0.800000011920929,
					0.800000011920929,
					1
				],
				"metallicFactor":0,
				"roughnessFactor":0.5
			}
		}
	],
	"meshes":[
		{
			"name":"Maxis-3d3-mesh-25",
			"primitives":[
				{
					"attributes":{
						"POSITION":0,
						"NORMAL":1,
						"TEXCOORD_0":2,
						"TEXCOORD_1":3
					},
					"indices":4,
					"material":0
				},
				{
					"attributes":{
						"POSITION":5,
						"NORMAL":6,
						"TEXCOORD_0":7,
						"TEXCOORD_1":8
					},
					"indices":9,
					"material":1
				},
				{
					"attributes":{
						"POSITION":10,
						"NORMAL":11,
						"TEXCOORD_0":12,
						"TEXCOORD_1":13
					},
					"indices":14,
					"material":2
				},
				{
					"attributes":{
						"POSITION":15,
						"NORMAL":16,
						"TEXCOORD_0":17,
						"TEXCOORD_1":18
					},
					"indices":19,
					"material":3
				},
				{
					"attributes":{
						"POSITION":20,
						"NORMAL":21,
						"TEXCOORD_0":22,
						"TEXCOORD_1":23
					},
					"indices":24,
					"material":4
				},
				{
					"attributes":{
						"POSITION":25,
						"NORMAL":26,
						"TEXCOORD_0":27,
						"TEXCOORD_1":28
					},
					"indices":29,
					"material":5
				},
				{
					"attributes":{
						"POSITION":30,
						"NORMAL":31,
						"TEXCOORD_0":32,
						"TEXCOORD_1":33
					},
					"indices":34,
					"material":6
				},
				{
					"attributes":{
						"POSITION":35,
						"NORMAL":36,
						"TEXCOORD_0":37,
						"TEXCOORD_1":38
					},
					"indices":39,
					"material":7
				},
				{
					"attributes":{
						"POSITION":40,
						"NORMAL":41,
						"TEXCOORD_0":42,
						"TEXCOORD_1":43
					},
					"indices":44,
					"material":8
				},
				{
					"attributes":{
						"POSITION":45,
						"NORMAL":46,
						"TEXCOORD_0":47,
						"TEXCOORD_1":48
					},
					"indices":49,
					"material":9
				}
			]
		},
		{
			"name":"Plane",
			"primitives":[
				{
					"attributes":{
						"POSITION":50,
						"NORMAL":51,
						"TEXCOORD_0":52
					},
					"indices":53,
					"material":10
				}
			]
		}
	],
	"textures":[
		{
			"sampler":0,
			"source":0
		},
		{
			"sampler":0,
			"source":0
		},
		{
			"sampler":0,
			"source":1
		},
		{
			"sampler":0,
			"source":0
		},
		{
			"sampler":0,
			"source":2
		},
		{
			"sampler":0,
			"source":0
		},
		{
			"sampler":0,
			"source":3
		},
		{
			"sampler":0,
			"source":0
		},
		{
			"sampler":0,
			"source":4
		},
		{
			"sampler":0,
			"source":0
		},
		{
			"sampler":0,
			"source":5
		},
		{
			"sampler":0,
			"source":0
		},
		{
			"sampler":0,
			"source":6
		},
		{
			"sampler":0,
			"source":0
		},
		{
			"sampler":0,
			"source":7
		},
		{
			"sampler":0,
			"source":0
		},
		{
			"sampler":0,
			"source":8
		},
		{
			"sampler":0,
			"source":0
		},
		{
			"sampler":0,
			"source":9
		},
		{
			"sampler":0,
			"source":10
		}
	],
	"images":[
		{
			"mimeType":"image/png",
			"name":"small_1.png",
			"uri":"../../../Textures/ambient_occlusion/Buildings/Offices/small_1.png"
		},
		{
			"mimeType":"image/png",
			"name":"tex2-55",
			"uri":"../../../Textures/tex2-55.png"
		},
		{
			"mimeType":"image/png",
			"name":"tex2-52",
			"uri":"../../../Textures/tex2-52.png"
		},
		{
			"mimeType":"image/png",
			"name":"tex2-40",
			"uri":"../../../Textures/tex2-40.png"
		},
		{
			"mimeType":"image/png",
			"name":"tex2-54",
			"uri":"../../../Textures/tex2-54.png"
		},
		{
			"mimeType":"image/png",
			"name":"tex2-53",
			"uri":"../../../Textures/tex2-53.png"
		},
		{
			"mimeType":"image/png",
			"name":"tex40-3",
			"uri":"../../../Textures/tex40-3.png"
		},
		{
			"mimeType":"image/png",
			"name":"tex40-0",
			"uri":"../../../Textures/tex40-0.png"
		},
		{
			"mimeType":"image/png",
			"name":"tex40-1",
			"uri":"../../../Textures/tex40-1.png"
		},
		{
			"mimeType":"image/png",
			"name":"tex40-2",
			"uri":"../../../Textures/tex40-2.png"
		},
		{
			"mimeType":"image/png",
			"name":"small_1_ground.png",
			"uri":"../../../Textures/ambient_occlusion/Buildings/Offices/small_1_ground.png"
		}
	],
	"accessors":[
		{
			"bufferView":0,
			"componentType":5126,
			"count":28,
			"max":[
				7.1195068359375,
				7.1195068359375,
				-13.019989013671875
			],
			"min":[
				-7.1195068359375,
				-7.119510650634766,
				-20.71456527709961
			],
			"type":"VEC3"
		},
		{
			"bufferView":1,
			"componentType":5126,
			"count":28,
			"type":"VEC3"
		},
		{
			"bufferView":2,
			"componentType":5126,
			"count":28,
			"type":"VEC2"
		},
		{
			"bufferView":3,
			"componentType":5126,
			"count":28,
			"type":"VEC2"
		},
		{
			"bufferView":4,
			"componentType":5123,
			"count":54,
			"type":"SCALAR"
		},
		{
			"bufferView":5,
			"componentType":5126,
			"count":4,
			"max":[
				7.1195068359375,
				7.119514465332031,
				-3.814697265625e-06
			],
			"min":[
				-7.1195068359375,
				7.1195068359375,
				-13.020004272460938
			],
			"type":"VEC3"
		},
		{
			"bufferView":6,
			"componentType":5126,
			"count":4,
			"type":"VEC3"
		},
		{
			"bufferView":7,
			"componentType":5126,
			"count":4,
			"type":"VEC2"
		},
		{
			"bufferView":8,
			"componentType":5126,
			"count":4,
			"type":"VEC2"
		},
		{
			"bufferView":9,
			"componentType":5123,
			"count":6,
			"type":"SCALAR"
		},
		{
			"bufferView":10,
			"componentType":5126,
			"count":4,
			"max":[
				7.1195068359375,
				-7.1195068359375,
				3.814697265625e-06
			],
			"min":[
				-7.1195068359375,
				-7.119510650634766,
				-13.019989013671875
			],
			"type":"VEC3"
		},
		{
			"bufferView":11,
			"componentType":5126,
			"count":4,
			"type":"VEC3"
		},
		{
			"bufferView":12,
			"componentType":5126,
			"count":4,
			"type":"VEC2"
		},
		{
			"bufferView":13,
			"componentType":5126,
			"count":4,
			"type":"VEC2"
		},
		{
			"bufferView":14,
			"componentType":5123,
			"count":6,
			"type":"SCALAR"
		},
		{
			"bufferView":15,
			"componentType":5126,
			"count":4,
			"max":[
				1.0948257446289062,
				7.1673126220703125,
				-0.002544403076171875
			],
			"min":[
				-1.1686325073242188,
				7.1673126220703125,
				-2.789752960205078
			],
			"type":"VEC3"
		},
		{
			"bufferView":16,
			"componentType":5126,
			"count":4,
			"type":"VEC3"
		},
		{
			"bufferView":17,
			"componentType":5126,
			"count":4,
			"type":"VEC2"
		},
		{
			"bufferView":18,
			"componentType":5126,
			"count":4,
			"type":"VEC2"
		},
		{
			"bufferView":19,
			"componentType":5123,
			"count":6,
			"type":"SCALAR"
		},
		{
			"bufferView":20,
			"componentType":5126,
			"count":4,
			"max":[
				7.1195068359375,
				7.119514465332031,
				3.814697265625e-06
			],
			"min":[
				7.1195068359375,
				-7.119510650634766,
				-13.020004272460938
			],
			"type":"VEC3"
		},
		{
			"bufferView":21,
			"componentType":5126,
			"count":4,
			"type":"VEC3"
		},
		{
			"bufferView":22,
			"componentType":5126,
			"count":4,
			"type":"VEC2"
		},
		{
			"bufferView":23,
			"componentType":5126,
			"count":4,
			"type":"VEC2"
		},
		{
			"bufferView":24,
			"componentType":5123,
			"count":6,
			"type":"SCALAR"
		},
		{
			"bufferView":25,
			"componentType":5126,
			"count":4,
			"max":[
				-7.1195068359375,
				7.119514465332031,
				3.814697265625e-06
			],
			"min":[
				-7.1195068359375,
				-7.119510650634766,
				-13.020004272460938
			],
			"type":"VEC3"
		},
		{
			"bufferView":26,
			"componentType":5126,
			"count":4,
			"type":"VEC3"
		},
		{
			"bufferView":27,
			"componentType":5126,
			"count":4,
			"type":"VEC2"
		},
		{
			"bufferView":28,
			"componentType":5126,
			"count":4,
			"type":"VEC2"
		},
		{
			"bufferView":29,
			"componentType":5123,
			"count":6,
			"type":"SCALAR"
		},
		{
			"bufferView":30,
			"componentType":5126,
			"count":8,
			"max":[
				1.8154716491699219,
				1.8154716491699219,
				-14.419696807861328
			],
			"min":[
				-1.8154716491699219,
				0.7579536437988281,
				-20.71456527709961
			],
			"type":"VEC3"
		},
		{
			"bufferView":31,
			"componentType":5126,
			"count":8,
			"type":"VEC3"
		},
		{
			"bufferView":32,
			"componentType":5126,
			"count":8,
			"type":"VEC2"
		},
		{
			"bufferView":33,
			"componentType":5126,
			"count":8,
			"type":"VEC2"
		},
		{
			"bufferView":34,
			"componentType":5123,
			"count":12,
			"type":"SCALAR"
		},
		{
			"bufferView":35,
			"componentType":5126,
			"count":8,
			"max":[
				1.8154716491699219,
				-0.7579612731933594,
				-14.419696807861328
			],
			"min":[
				-1.8154716491699219,
				-1.8154754638671875,
				-20.71456527709961
			],
			"type":"VEC3"
		},
		{
			"bufferView":36,
			"componentType":5126,
			"count":8,
			"type":"VEC3"
		},
		{
			"bufferView":37,
			"componentType":5126,
			"count":8,
			"type":"VEC2"
		},
		{
			"bufferView":38,
			"componentType":5126,
			"count":8,
			"type":"VEC2"
		},
		{
			"bufferView":39,
			"componentType":5123,
			"count":12,
			"type":"SCALAR"
		},
		{
			"bufferView":40,
			"componentType":5126,
			"count":8,
			"max":[
				-0.8214988708496094,
				1.8154716491699219,
				-14.419696807861328
			],
			"min":[
				-1.8154716491699219,
				-1.8154754638671875,
				-20.71456527709961
			],
			"type":"VEC3"
		},
		{
			"bufferView":41,
			"componentType":5126,
			"count":8,
			"type":"VEC3"
		},
		{
			"bufferView":42,
			"componentType":5126,
			"count":8,
			"type":"VEC2"
		},
		{
			"bufferView":43,
			"componentType":5126,
			"count":8,
			"type":"VEC2"
		},
		{
			"bufferView":44,
			"componentType":5123,
			"count":12,
			"type":"SCALAR"
		},
		{
			"bufferView":45,
			"componentType":5126,
			"count":8,
			"max":[
				1.8154716491699219,
				1.8154716491699219,
				-14.419696807861328
			],
			"min":[
				0.8214988708496094,
				-1.8154754638671875,
				-20.71456527709961
			],
			"type":"VEC3"
		},
		{
			"bufferView":46,
			"componentType":5126,
			"count":8,
			"type":"VEC3"
		},
		{
			"bufferView":47,
			"componentType":5126,
			"count":8,
			"type":"VEC2"
		},
		{
			"bufferView":48,
			"componentType":5126,
			"count":8,
			"type":"VEC2"
		},
		{
			"bufferView":49,
			"componentType":5123,
			"count":12,
			"type":"SCALAR"
		},
		{
			"bufferView":50,
			"componentType":5126,
			"count":4,
			"max":[
				0.5,
				0,
				0.5
			],
			"min":[
				-0.5,
				0,
				-0.5
			],
			"type":"VEC3"
		},
		{
			"bufferView":51,
			"componentType":5126,
			"count":4,
			"type":"VEC3"
		},
		{
			"bufferView":52,
			"componentType":5126,
			"count":4,
			"type":"VEC2"
		},
		{
			"bufferView":53,
			"componentType":5123,
			"count":6,
			"type":"SCALAR"
		}
	],
	"bufferViews":[
		{
			"buffer":0,
			"byteLength":336,
			"byteOffset":0,
			"target":34962
		},
		{
			"buffer":0,
			"byteLength":336,
			"byteOffset":336,
			"target":34962
		},
		{
			"buffer":0,
			"byteLength":224,
			"byteOffset":672,
			"target":34962
		},
		{
			"buffer":0,
			"byteLength":224,
			"byteOffset":896,
			"target":34962
		},
		{
			"buffer":0,
			"byteLength":108,
			"byteOffset":1120,
			"target":34963
		},
		{
			"buffer":0,
			"byteLength":48,
			"byteOffset":1228,
			"target":34962
		},
		{
			"buffer":0,
			"byteLength":48,
			"byteOffset":1276,
			"target":34962
		},
		{
			"buffer":0,
			"byteLength":32,
			"byteOffset":1324,
			"target":34962
		},
		{
			"buffer":0,
			"byteLength":32,
			"byteOffset":1356,
			"target":34962
		},
		{
			"buffer":0,
			"byteLength":12,
			"byteOffset":1388,
			"target":34963
		},
		{
			"buffer":0,
			"byteLength":48,
			"byteOffset":1400,
			"target":34962
		},
		{
			"buffer":0,
			"byteLength":48,
			"byteOffset":1448,
			"target":34962
		},
		{
			"buffer":0,
			"byteLength":32,
			"byteOffset":1496,
			"target":34962
		},
		{
			"buffer":0,
			"byteLength":32,
			"byteOffset":1528,
			"target":34962
		},
		{
			"buffer":0,
			"byteLength":12,
			"byteOffset":1560,
			"target":34963
		},
		{
			"buffer":0,
			"byteLength":48,
			"byteOffset":1572,
			"target":34962
		},
		{
			"buffer":0,
			"byteLength":48,
			"byteOffset":1620,
			"target":34962
		},
		{
			"buffer":0,
			"byteLength":32,
			"byteOffset":1668,
			"target":34962
		},
		{
			"buffer":0,
			"byteLength":32,
			"byteOffset":1700,
			"target":34962
		},
		{
			"buffer":0,
			"byteLength":12,
			"byteOffset":1732,
			"target":34963
		},
		{
			"buffer":0,
			"byteLength":48,
			"byteOffset":1744,
			"target":34962
		},
		{
			"buffer":0,
			"byteLength":48,
			"byteOffset":1792,
			"target":34962
		},
		{
			"buffer":0,
			"byteLength":32,
			"byteOffset":1840,
			"target":34962
		},
		{
			"buffer":0,
			"byteLength":32,
			"byteOffset":1872,
			"target":34962
		},
		{
			"buffer":0,
			"byteLength":12,
			"byteOffset":1904,
			"target":34963
		},
		{
			"buffer":0,
			"byteLength":48,
			"byteOffset":1916,
			"target":34962
		},
		{
			"buffer":0,
			"byteLength":48,
			"byteOffset":1964,
			"target":34962
		},
		{
			"buffer":0,
			"byteLength":32,
			"byteOffset":2012,
			"target":34962
		},
		{
			"buffer":0,
			"byteLength":32,
			"byteOffset":2044,
			"target":34962
		},
		{
			"buffer":0,
			"byteLength":12,
			"byteOffset":2076,
			"target":34963
		},
		{
			"buffer":0,
			"byteLength":96,
			"byteOffset":2088,
			"target":34962
		},
		{
			"buffer":0,
			"byteLength":96,
			"byteOffset":2184,
			"target":34962
		},
		{
			"buffer":0,
			"byteLength":64,
			"byteOffset":2280,
			"target":34962
		},
		{
			"buffer":0,
			"byteLength":64,
			"byteOffset":2344,
			"target":34962
		},
		{
			"buffer":0,
			"byteLength":24,
			"byteOffset":2408,
			"target":34963
		},
		{
			"buffer":0,
			"byteLength":96,
			"byteOffset":2432,
			"target":34962
		},
		{
			"buffer":0,
			"byteLength":96,
			"byteOffset":2528,
			"target":34962
		},
		{
			"buffer":0,
			"byteLength":64,
			"byteOffset":2624,
			"target":34962
		},
		{
			"buffer":0,
			"byteLength":64,
			"byteOffset":2688,
			"target":34962
		},
		{
			"buffer":0,
			"byteLength":24,
			"byteOffset":2752,
			"target":34963
		},
		{
			"buffer":0,
			"byteLength":96,
			"byteOffset":2776,
			"target":34962
		},
		{
			"buffer":0,
			"byteLength":96,
			"byteOffset":2872,
			"target":34962
		},
		{
			"buffer":0,
			"byteLength":64,
			"byteOffset":2968,
			"target":34962
		},
		{
			"buffer":0,
			"byteLength":64,
			"byteOffset":3032,
			"target":34962
		},
		{
			"buffer":0,
			"byteLength":24,
			"byteOffset":3096,
			"target":34963
		},
		{
			"buffer":0,
			"byteLength":96,
			"byteOffset":3120,
			"target":34962
		},
		{
			"buffer":0,
			"byteLength":96,
			"byteOffset":3216,
			"target":34962
		},
		{
			"buffer":0,
			"byteLength":64,
			"byteOffset":3312,
			"target":34962
		},
		{
			"buffer":0,
			"byteLength":64,
			"byteOffset":3376,
			"target":34962
		},
		{
			"buffer":0,
			"byteLength":24,
			"byteOffset":3440,
			"target":34963
		},
		{
			"buffer":0,
			"byteLength":48,
			"byteOffset":3464,
			"target":34962
		},
		{
			"buffer":0,
			"byteLength":48,
			"byteOffset":3512,
			"target":34962
		},
		{
			"buffer":0,
			"byteLength":32,
			"byteOffset":3560,
			"target":34962
		},
		{
			"buffer":0,
			"byteLength":12,
			"byteOffset":3592,
			"target":34963
		}
	],
	"samplers":[
		{
			"magFilter":9729,
			"minFilter":9987
		}
	],
	"buffers":[
		{
			"byteLength":3604,
			"uri":"small_1.bin"
		}
	]
}
