{
    "asset" : {
        "generator" : "Khronos glTF Blender I/O v1.7.33",
        "version" : "2.0"
    },
    "scene" : 0,
    "scenes" : [
        {
            "name" : "Scene",
            "nodes" : [
                0
            ]
        }
    ],
    "nodes" : [
        {
            "mesh" : 0,
            "name" : "Maxis-3d3-mesh-25",
            "rotation" : [
                0.7071068286895752,
                0,
                0,
                0.7071067094802856
            ]
        }
    ],
    "materials" : [
        {
            "doubleSided" : true,
            "name" : "matcolour-48",
            "pbrMetallicRoughness" : {
                "baseColorFactor" : [
                    0.05882352963089943,
                    0.05882352963089943,
                    0.05882352963089943,
                    1
                ],
                "metallicFactor" : 0
            }
        },
        {
            "doubleSided" : true,
            "name" : "mat2-55.001",
            "pbrMetallicRoughness" : {
                "baseColorTexture" : {
                    "index" : 0
                },
                "metallicFactor" : 0
            }
        },
        {
            "doubleSided" : true,
            "name" : "mat2-52.001",
            "pbrMetallicRoughness" : {
                "baseColorTexture" : {
                    "index" : 1
                },
                "metallicFactor" : 0
            }
        },
        {
            "doubleSided" : true,
            "name" : "mat2-40.001",
            "pbrMetallicRoughness" : {
                "baseColorTexture" : {
                    "index" : 2
                },
                "metallicFactor" : 0
            }
        },
        {
            "doubleSided" : true,
            "name" : "mat2-54.001",
            "pbrMetallicRoughness" : {
                "baseColorTexture" : {
                    "index" : 3
                },
                "metallicFactor" : 0
            }
        },
        {
            "doubleSided" : true,
            "name" : "mat2-53.001",
            "pbrMetallicRoughness" : {
                "baseColorTexture" : {
                    "index" : 4
                },
                "metallicFactor" : 0
            }
        },
        {
            "doubleSided" : true,
            "name" : "mat40-3",
            "pbrMetallicRoughness" : {
                "baseColorTexture" : {
                    "index" : 5
                },
                "metallicFactor" : 0
            }
        },
        {
            "doubleSided" : true,
            "name" : "mat40-0",
            "pbrMetallicRoughness" : {
                "baseColorTexture" : {
                    "index" : 6
                },
                "metallicFactor" : 0
            }
        },
        {
            "doubleSided" : true,
            "name" : "mat40-1",
            "pbrMetallicRoughness" : {
                "baseColorTexture" : {
                    "index" : 7
                },
                "metallicFactor" : 0
            }
        },
        {
            "doubleSided" : true,
            "name" : "mat40-2",
            "pbrMetallicRoughness" : {
                "baseColorTexture" : {
                    "index" : 8
                },
                "metallicFactor" : 0
            }
        }
    ],
    "meshes" : [
        {
            "name" : "Maxis-3d3-mesh-25",
            "primitives" : [
                {
                    "attributes" : {
                        "POSITION" : 0,
                        "NORMAL" : 1,
                        "TEXCOORD_0" : 2
                    },
                    "indices" : 3,
                    "material" : 0
                },
                {
                    "attributes" : {
                        "POSITION" : 4,
                        "NORMAL" : 5,
                        "TEXCOORD_0" : 6
                    },
                    "indices" : 7,
                    "material" : 1
                },
                {
                    "attributes" : {
                        "POSITION" : 8,
                        "NORMAL" : 9,
                        "TEXCOORD_0" : 10
                    },
                    "indices" : 11,
                    "material" : 2
                },
                {
                    "attributes" : {
                        "POSITION" : 12,
                        "NORMAL" : 13,
                        "TEXCOORD_0" : 14
                    },
                    "indices" : 15,
                    "material" : 3
                },
                {
                    "attributes" : {
                        "POSITION" : 16,
                        "NORMAL" : 17,
                        "TEXCOORD_0" : 18
                    },
                    "indices" : 19,
                    "material" : 4
                },
                {
                    "attributes" : {
                        "POSITION" : 20,
                        "NORMAL" : 21,
                        "TEXCOORD_0" : 22
                    },
                    "indices" : 23,
                    "material" : 5
                },
                {
                    "attributes" : {
                        "POSITION" : 24,
                        "NORMAL" : 25,
                        "TEXCOORD_0" : 26
                    },
                    "indices" : 27,
                    "material" : 6
                },
                {
                    "attributes" : {
                        "POSITION" : 28,
                        "NORMAL" : 29,
                        "TEXCOORD_0" : 30
                    },
                    "indices" : 31,
                    "material" : 7
                },
                {
                    "attributes" : {
                        "POSITION" : 32,
                        "NORMAL" : 33,
                        "TEXCOORD_0" : 34
                    },
                    "indices" : 35,
                    "material" : 8
                },
                {
                    "attributes" : {
                        "POSITION" : 36,
                        "NORMAL" : 37,
                        "TEXCOORD_0" : 38
                    },
                    "indices" : 39,
                    "material" : 9
                }
            ]
        }
    ],
    "textures" : [
        {
            "sampler" : 0,
            "source" : 0
        },
        {
            "sampler" : 0,
            "source" : 1
        },
        {
            "sampler" : 0,
            "source" : 2
        },
        {
            "sampler" : 0,
            "source" : 3
        },
        {
            "sampler" : 0,
            "source" : 4
        },
        {
            "sampler" : 0,
            "source" : 5
        },
        {
            "sampler" : 0,
            "source" : 6
        },
        {
            "sampler" : 0,
            "source" : 7
        },
        {
            "sampler" : 0,
            "source" : 8
        }
    ],
    "images" : [
        {
            "mimeType" : "image/png",
            "name" : "tex2-55",
            "uri" : "../../../Textures/tex2-55.png"
        },
        {
            "mimeType" : "image/png",
            "name" : "tex2-52",
            "uri" : "../../../Textures/tex2-52.png"
        },
        {
            "mimeType" : "image/png",
            "name" : "tex2-40",
            "uri" : "../../../Textures/tex2-40.png"
        },
        {
            "mimeType" : "image/png",
            "name" : "tex2-54",
            "uri" : "../../../Textures/tex2-54.png"
        },
        {
            "mimeType" : "image/png",
            "name" : "tex2-53",
            "uri" : "../../../Textures/tex2-53.png"
        },
        {
            "mimeType" : "image/png",
            "name" : "tex40-3",
            "uri" : "../../../Textures/tex40-3.png"
        },
        {
            "mimeType" : "image/png",
            "name" : "tex40-0",
            "uri" : "../../../Textures/tex40-0.png"
        },
        {
            "mimeType" : "image/png",
            "name" : "tex40-1",
            "uri" : "../../../Textures/tex40-1.png"
        },
        {
            "mimeType" : "image/png",
            "name" : "tex40-2",
            "uri" : "../../../Textures/tex40-2.png"
        }
    ],
    "accessors" : [
        {
            "bufferView" : 0,
            "componentType" : 5126,
            "count" : 49,
            "max" : [
                7.1195068359375,
                7.1195068359375,
                -13.019989013671875
            ],
            "min" : [
                -7.1195068359375,
                -7.119510650634766,
                -20.71456527709961
            ],
            "type" : "VEC3"
        },
        {
            "bufferView" : 1,
            "componentType" : 5126,
            "count" : 49,
            "type" : "VEC3"
        },
        {
            "bufferView" : 2,
            "componentType" : 5126,
            "count" : 49,
            "type" : "VEC2"
        },
        {
            "bufferView" : 3,
            "componentType" : 5123,
            "count" : 54,
            "type" : "SCALAR"
        },
        {
            "bufferView" : 4,
            "componentType" : 5126,
            "count" : 6,
            "max" : [
                7.1195068359375,
                7.119514465332031,
                -3.814697265625e-06
            ],
            "min" : [
                -7.1195068359375,
                7.1195068359375,
                -13.020004272460938
            ],
            "type" : "VEC3"
        },
        {
            "bufferView" : 5,
            "componentType" : 5126,
            "count" : 6,
            "type" : "VEC3"
        },
        {
            "bufferView" : 6,
            "componentType" : 5126,
            "count" : 6,
            "type" : "VEC2"
        },
        {
            "bufferView" : 7,
            "componentType" : 5123,
            "count" : 6,
            "type" : "SCALAR"
        },
        {
            "bufferView" : 8,
            "componentType" : 5126,
            "count" : 6,
            "max" : [
                7.1195068359375,
                -7.1195068359375,
                3.814697265625e-06
            ],
            "min" : [
                -7.1195068359375,
                -7.119510650634766,
                -13.019989013671875
            ],
            "type" : "VEC3"
        },
        {
            "bufferView" : 9,
            "componentType" : 5126,
            "count" : 6,
            "type" : "VEC3"
        },
        {
            "bufferView" : 10,
            "componentType" : 5126,
            "count" : 6,
            "type" : "VEC2"
        },
        {
            "bufferView" : 11,
            "componentType" : 5123,
            "count" : 6,
            "type" : "SCALAR"
        },
        {
            "bufferView" : 12,
            "componentType" : 5126,
            "count" : 4,
            "max" : [
                1.0948257446289062,
                7.1673126220703125,
                -0.002544403076171875
            ],
            "min" : [
                -1.1686325073242188,
                7.1673126220703125,
                -2.789752960205078
            ],
            "type" : "VEC3"
        },
        {
            "bufferView" : 13,
            "componentType" : 5126,
            "count" : 4,
            "type" : "VEC3"
        },
        {
            "bufferView" : 14,
            "componentType" : 5126,
            "count" : 4,
            "type" : "VEC2"
        },
        {
            "bufferView" : 15,
            "componentType" : 5123,
            "count" : 6,
            "type" : "SCALAR"
        },
        {
            "bufferView" : 16,
            "componentType" : 5126,
            "count" : 6,
            "max" : [
                7.1195068359375,
                7.119514465332031,
                3.814697265625e-06
            ],
            "min" : [
                7.1195068359375,
                -7.119510650634766,
                -13.020004272460938
            ],
            "type" : "VEC3"
        },
        {
            "bufferView" : 17,
            "componentType" : 5126,
            "count" : 6,
            "type" : "VEC3"
        },
        {
            "bufferView" : 18,
            "componentType" : 5126,
            "count" : 6,
            "type" : "VEC2"
        },
        {
            "bufferView" : 19,
            "componentType" : 5123,
            "count" : 6,
            "type" : "SCALAR"
        },
        {
            "bufferView" : 20,
            "componentType" : 5126,
            "count" : 6,
            "max" : [
                -7.1195068359375,
                7.119514465332031,
                3.814697265625e-06
            ],
            "min" : [
                -7.1195068359375,
                -7.119510650634766,
                -13.020004272460938
            ],
            "type" : "VEC3"
        },
        {
            "bufferView" : 21,
            "componentType" : 5126,
            "count" : 6,
            "type" : "VEC3"
        },
        {
            "bufferView" : 22,
            "componentType" : 5126,
            "count" : 6,
            "type" : "VEC2"
        },
        {
            "bufferView" : 23,
            "componentType" : 5123,
            "count" : 6,
            "type" : "SCALAR"
        },
        {
            "bufferView" : 24,
            "componentType" : 5126,
            "count" : 8,
            "max" : [
                1.8154716491699219,
                1.8154716491699219,
                -14.419696807861328
            ],
            "min" : [
                -1.8154716491699219,
                0.7579536437988281,
                -20.71456527709961
            ],
            "type" : "VEC3"
        },
        {
            "bufferView" : 25,
            "componentType" : 5126,
            "count" : 8,
            "type" : "VEC3"
        },
        {
            "bufferView" : 26,
            "componentType" : 5126,
            "count" : 8,
            "type" : "VEC2"
        },
        {
            "bufferView" : 27,
            "componentType" : 5123,
            "count" : 12,
            "type" : "SCALAR"
        },
        {
            "bufferView" : 28,
            "componentType" : 5126,
            "count" : 8,
            "max" : [
                1.8154716491699219,
                -0.7579612731933594,
                -14.419696807861328
            ],
            "min" : [
                -1.8154716491699219,
                -1.8154754638671875,
                -20.71456527709961
            ],
            "type" : "VEC3"
        },
        {
            "bufferView" : 29,
            "componentType" : 5126,
            "count" : 8,
            "type" : "VEC3"
        },
        {
            "bufferView" : 30,
            "componentType" : 5126,
            "count" : 8,
            "type" : "VEC2"
        },
        {
            "bufferView" : 31,
            "componentType" : 5123,
            "count" : 12,
            "type" : "SCALAR"
        },
        {
            "bufferView" : 32,
            "componentType" : 5126,
            "count" : 10,
            "max" : [
                -0.8214988708496094,
                1.8154716491699219,
                -14.419696807861328
            ],
            "min" : [
                -1.8154716491699219,
                -1.8154754638671875,
                -20.71456527709961
            ],
            "type" : "VEC3"
        },
        {
            "bufferView" : 33,
            "componentType" : 5126,
            "count" : 10,
            "type" : "VEC3"
        },
        {
            "bufferView" : 34,
            "componentType" : 5126,
            "count" : 10,
            "type" : "VEC2"
        },
        {
            "bufferView" : 35,
            "componentType" : 5123,
            "count" : 12,
            "type" : "SCALAR"
        },
        {
            "bufferView" : 36,
            "componentType" : 5126,
            "count" : 10,
            "max" : [
                1.8154716491699219,
                1.8154716491699219,
                -14.419696807861328
            ],
            "min" : [
                0.8214988708496094,
                -1.8154754638671875,
                -20.71456527709961
            ],
            "type" : "VEC3"
        },
        {
            "bufferView" : 37,
            "componentType" : 5126,
            "count" : 10,
            "type" : "VEC3"
        },
        {
            "bufferView" : 38,
            "componentType" : 5126,
            "count" : 10,
            "type" : "VEC2"
        },
        {
            "bufferView" : 39,
            "componentType" : 5123,
            "count" : 12,
            "type" : "SCALAR"
        }
    ],
    "bufferViews" : [
        {
            "buffer" : 0,
            "byteLength" : 588,
            "byteOffset" : 0
        },
        {
            "buffer" : 0,
            "byteLength" : 588,
            "byteOffset" : 588
        },
        {
            "buffer" : 0,
            "byteLength" : 392,
            "byteOffset" : 1176
        },
        {
            "buffer" : 0,
            "byteLength" : 108,
            "byteOffset" : 1568
        },
        {
            "buffer" : 0,
            "byteLength" : 72,
            "byteOffset" : 1676
        },
        {
            "buffer" : 0,
            "byteLength" : 72,
            "byteOffset" : 1748
        },
        {
            "buffer" : 0,
            "byteLength" : 48,
            "byteOffset" : 1820
        },
        {
            "buffer" : 0,
            "byteLength" : 12,
            "byteOffset" : 1868
        },
        {
            "buffer" : 0,
            "byteLength" : 72,
            "byteOffset" : 1880
        },
        {
            "buffer" : 0,
            "byteLength" : 72,
            "byteOffset" : 1952
        },
        {
            "buffer" : 0,
            "byteLength" : 48,
            "byteOffset" : 2024
        },
        {
            "buffer" : 0,
            "byteLength" : 12,
            "byteOffset" : 2072
        },
        {
            "buffer" : 0,
            "byteLength" : 48,
            "byteOffset" : 2084
        },
        {
            "buffer" : 0,
            "byteLength" : 48,
            "byteOffset" : 2132
        },
        {
            "buffer" : 0,
            "byteLength" : 32,
            "byteOffset" : 2180
        },
        {
            "buffer" : 0,
            "byteLength" : 12,
            "byteOffset" : 2212
        },
        {
            "buffer" : 0,
            "byteLength" : 72,
            "byteOffset" : 2224
        },
        {
            "buffer" : 0,
            "byteLength" : 72,
            "byteOffset" : 2296
        },
        {
            "buffer" : 0,
            "byteLength" : 48,
            "byteOffset" : 2368
        },
        {
            "buffer" : 0,
            "byteLength" : 12,
            "byteOffset" : 2416
        },
        {
            "buffer" : 0,
            "byteLength" : 72,
            "byteOffset" : 2428
        },
        {
            "buffer" : 0,
            "byteLength" : 72,
            "byteOffset" : 2500
        },
        {
            "buffer" : 0,
            "byteLength" : 48,
            "byteOffset" : 2572
        },
        {
            "buffer" : 0,
            "byteLength" : 12,
            "byteOffset" : 2620
        },
        {
            "buffer" : 0,
            "byteLength" : 96,
            "byteOffset" : 2632
        },
        {
            "buffer" : 0,
            "byteLength" : 96,
            "byteOffset" : 2728
        },
        {
            "buffer" : 0,
            "byteLength" : 64,
            "byteOffset" : 2824
        },
        {
            "buffer" : 0,
            "byteLength" : 24,
            "byteOffset" : 2888
        },
        {
            "buffer" : 0,
            "byteLength" : 96,
            "byteOffset" : 2912
        },
        {
            "buffer" : 0,
            "byteLength" : 96,
            "byteOffset" : 3008
        },
        {
            "buffer" : 0,
            "byteLength" : 64,
            "byteOffset" : 3104
        },
        {
            "buffer" : 0,
            "byteLength" : 24,
            "byteOffset" : 3168
        },
        {
            "buffer" : 0,
            "byteLength" : 120,
            "byteOffset" : 3192
        },
        {
            "buffer" : 0,
            "byteLength" : 120,
            "byteOffset" : 3312
        },
        {
            "buffer" : 0,
            "byteLength" : 80,
            "byteOffset" : 3432
        },
        {
            "buffer" : 0,
            "byteLength" : 24,
            "byteOffset" : 3512
        },
        {
            "buffer" : 0,
            "byteLength" : 120,
            "byteOffset" : 3536
        },
        {
            "buffer" : 0,
            "byteLength" : 120,
            "byteOffset" : 3656
        },
        {
            "buffer" : 0,
            "byteLength" : 80,
            "byteOffset" : 3776
        },
        {
            "buffer" : 0,
            "byteLength" : 24,
            "byteOffset" : 3856
        }
    ],
    "samplers" : [
        {
            "magFilter" : 9729,
            "minFilter" : 9987
        }
    ],
    "buffers" : [
        {
            "byteLength" : 3880,
            "uri" : "small_1.bin"
        }
    ]
}
