{
    "asset" : {
        "generator" : "Khronos glTF Blender I/O v1.7.33",
        "version" : "2.0"
    },
    "scene" : 0,
    "scenes" : [
        {
            "name" : "Scene",
            "nodes" : [
                0
            ]
        }
    ],
    "nodes" : [
        {
            "mesh" : 0,
            "name" : "Maxis-3d3-mesh-22",
            "rotation" : [
                0.7071068286895752,
                0,
                0,
                0.7071067094802856
            ]
        }
    ],
    "materials" : [
        {
            "doubleSided" : true,
            "name" : "matcolour-48",
            "pbrMetallicRoughness" : {
                "baseColorFactor" : [
                    0.05882352963089943,
                    0.05882352963089943,
                    0.05882352963089943,
                    1
                ],
                "metallicFactor" : 0
            }
        },
        {
            "doubleSided" : true,
            "name" : "mat40-55",
            "pbrMetallicRoughness" : {
                "baseColorTexture" : {
                    "index" : 0
                },
                "metallicFactor" : 0
            }
        },
        {
            "doubleSided" : true,
            "name" : "mat40-52",
            "pbrMetallicRoughness" : {
                "baseColorTexture" : {
                    "index" : 1
                },
                "metallicFactor" : 0
            }
        },
        {
            "doubleSided" : true,
            "name" : "mat40-31",
            "pbrMetallicRoughness" : {
                "baseColorTexture" : {
                    "index" : 2
                },
                "metallicFactor" : 0
            }
        },
        {
            "doubleSided" : true,
            "name" : "mat40-54",
            "pbrMetallicRoughness" : {
                "baseColorTexture" : {
                    "index" : 3
                },
                "metallicFactor" : 0
            }
        },
        {
            "doubleSided" : true,
            "name" : "mat40-53",
            "pbrMetallicRoughness" : {
                "baseColorTexture" : {
                    "index" : 4
                },
                "metallicFactor" : 0
            }
        },
        {
            "doubleSided" : true,
            "name" : "mat40-29",
            "pbrMetallicRoughness" : {
                "baseColorTexture" : {
                    "index" : 5
                },
                "metallicFactor" : 0
            }
        },
        {
            "doubleSided" : true,
            "name" : "mat40-30",
            "pbrMetallicRoughness" : {
                "baseColorTexture" : {
                    "index" : 6
                },
                "metallicFactor" : 0
            }
        },
        {
            "doubleSided" : true,
            "name" : "mat40-60",
            "pbrMetallicRoughness" : {
                "baseColorTexture" : {
                    "index" : 7
                },
                "metallicFactor" : 0
            }
        }
    ],
    "meshes" : [
        {
            "name" : "Maxis-3d3-mesh-22",
            "primitives" : [
                {
                    "attributes" : {
                        "POSITION" : 0,
                        "NORMAL" : 1,
                        "TEXCOORD_0" : 2
                    },
                    "indices" : 3,
                    "material" : 0
                },
                {
                    "attributes" : {
                        "POSITION" : 4,
                        "NORMAL" : 5,
                        "TEXCOORD_0" : 6
                    },
                    "indices" : 7,
                    "material" : 1
                },
                {
                    "attributes" : {
                        "POSITION" : 8,
                        "NORMAL" : 9,
                        "TEXCOORD_0" : 10
                    },
                    "indices" : 11,
                    "material" : 2
                },
                {
                    "attributes" : {
                        "POSITION" : 12,
                        "NORMAL" : 13,
                        "TEXCOORD_0" : 14
                    },
                    "indices" : 15,
                    "material" : 3
                },
                {
                    "attributes" : {
                        "POSITION" : 16,
                        "NORMAL" : 17,
                        "TEXCOORD_0" : 18
                    },
                    "indices" : 19,
                    "material" : 4
                },
                {
                    "attributes" : {
                        "POSITION" : 20,
                        "NORMAL" : 21,
                        "TEXCOORD_0" : 22
                    },
                    "indices" : 23,
                    "material" : 5
                },
                {
                    "attributes" : {
                        "POSITION" : 24,
                        "NORMAL" : 25,
                        "TEXCOORD_0" : 26
                    },
                    "indices" : 27,
                    "material" : 6
                },
                {
                    "attributes" : {
                        "POSITION" : 28,
                        "NORMAL" : 29,
                        "TEXCOORD_0" : 30
                    },
                    "indices" : 31,
                    "material" : 7
                },
                {
                    "attributes" : {
                        "POSITION" : 32,
                        "NORMAL" : 33,
                        "TEXCOORD_0" : 34
                    },
                    "indices" : 35,
                    "material" : 8
                }
            ]
        }
    ],
    "textures" : [
        {
            "sampler" : 0,
            "source" : 0
        },
        {
            "sampler" : 0,
            "source" : 1
        },
        {
            "sampler" : 0,
            "source" : 2
        },
        {
            "sampler" : 0,
            "source" : 3
        },
        {
            "sampler" : 0,
            "source" : 4
        },
        {
            "sampler" : 0,
            "source" : 5
        },
        {
            "sampler" : 0,
            "source" : 6
        },
        {
            "sampler" : 0,
            "source" : 7
        }
    ],
    "images" : [
        {
            "mimeType" : "image/png",
            "name" : "tex40-55",
            "uri" : "../../Textures/tex40-55.png"
        },
        {
            "mimeType" : "image/png",
            "name" : "tex40-52",
            "uri" : "../../Textures/tex40-52.png"
        },
        {
            "mimeType" : "image/png",
            "name" : "tex40-31",
            "uri" : "../../Textures/tex40-31.png"
        },
        {
            "mimeType" : "image/png",
            "name" : "tex40-54",
            "uri" : "../../Textures/tex40-54.png"
        },
        {
            "mimeType" : "image/png",
            "name" : "tex40-53",
            "uri" : "../../Textures/tex40-53.png"
        },
        {
            "mimeType" : "image/png",
            "name" : "tex40-29",
            "uri" : "../../Textures/tex40-29.png"
        },
        {
            "mimeType" : "image/png",
            "name" : "tex40-30",
            "uri" : "../../Textures/tex40-30.png"
        },
        {
            "mimeType" : "image/png",
            "name" : "tex40-60",
            "uri" : "../../Textures/tex40-60.png"
        }
    ],
    "accessors" : [
        {
            "bufferView" : 0,
            "componentType" : 5126,
            "count" : 62,
            "max" : [
                7.159679412841797,
                5.2741851806640625,
                -6.1279144287109375
            ],
            "min" : [
                -7.288280487060547,
                -7.2420806884765625,
                -14.684623718261719
            ],
            "type" : "VEC3"
        },
        {
            "bufferView" : 1,
            "componentType" : 5126,
            "count" : 62,
            "type" : "VEC3"
        },
        {
            "bufferView" : 2,
            "componentType" : 5126,
            "count" : 62,
            "type" : "VEC2"
        },
        {
            "bufferView" : 3,
            "componentType" : 5123,
            "count" : 66,
            "type" : "SCALAR"
        },
        {
            "bufferView" : 4,
            "componentType" : 5126,
            "count" : 20,
            "max" : [
                7.159679412841797,
                5.2741851806640625,
                -3.814697265625e-06
            ],
            "min" : [
                -7.288276672363281,
                -0.5658493041992188,
                -12.804733276367188
            ],
            "type" : "VEC3"
        },
        {
            "bufferView" : 5,
            "componentType" : 5126,
            "count" : 20,
            "type" : "VEC3"
        },
        {
            "bufferView" : 6,
            "componentType" : 5126,
            "count" : 20,
            "type" : "VEC2"
        },
        {
            "bufferView" : 7,
            "componentType" : 5123,
            "count" : 24,
            "type" : "SCALAR"
        },
        {
            "bufferView" : 8,
            "componentType" : 5126,
            "count" : 12,
            "max" : [
                7.159679412841797,
                -3.8993606567382812,
                0
            ],
            "min" : [
                -7.288276672363281,
                -7.2420806884765625,
                -12.804733276367188
            ],
            "type" : "VEC3"
        },
        {
            "bufferView" : 9,
            "componentType" : 5126,
            "count" : 12,
            "type" : "VEC3"
        },
        {
            "bufferView" : 10,
            "componentType" : 5126,
            "count" : 12,
            "type" : "VEC2"
        },
        {
            "bufferView" : 11,
            "componentType" : 5123,
            "count" : 12,
            "type" : "SCALAR"
        },
        {
            "bufferView" : 12,
            "componentType" : 5126,
            "count" : 4,
            "max" : [
                4.9494476318359375,
                5.274188995361328,
                0
            ],
            "min" : [
                -5.0780487060546875,
                5.2741851806640625,
                -6.127918243408203
            ],
            "type" : "VEC3"
        },
        {
            "bufferView" : 13,
            "componentType" : 5126,
            "count" : 4,
            "type" : "VEC3"
        },
        {
            "bufferView" : 14,
            "componentType" : 5126,
            "count" : 4,
            "type" : "VEC2"
        },
        {
            "bufferView" : 15,
            "componentType" : 5123,
            "count" : 6,
            "type" : "SCALAR"
        },
        {
            "bufferView" : 16,
            "componentType" : 5126,
            "count" : 26,
            "max" : [
                7.159679412841797,
                5.274188995361328,
                0
            ],
            "min" : [
                -7.288280487060547,
                -7.2420806884765625,
                -12.804733276367188
            ],
            "type" : "VEC3"
        },
        {
            "bufferView" : 17,
            "componentType" : 5126,
            "count" : 26,
            "type" : "VEC3"
        },
        {
            "bufferView" : 18,
            "componentType" : 5126,
            "count" : 26,
            "type" : "VEC2"
        },
        {
            "bufferView" : 19,
            "componentType" : 5123,
            "count" : 30,
            "type" : "SCALAR"
        },
        {
            "bufferView" : 20,
            "componentType" : 5126,
            "count" : 6,
            "max" : [
                -5.0780487060546875,
                5.274188995361328,
                0
            ],
            "min" : [
                -5.0780487060546875,
                2.7854156494140625,
                -6.127918243408203
            ],
            "type" : "VEC3"
        },
        {
            "bufferView" : 21,
            "componentType" : 5126,
            "count" : 6,
            "type" : "VEC3"
        },
        {
            "bufferView" : 22,
            "componentType" : 5126,
            "count" : 6,
            "type" : "VEC2"
        },
        {
            "bufferView" : 23,
            "componentType" : 5123,
            "count" : 6,
            "type" : "SCALAR"
        },
        {
            "bufferView" : 24,
            "componentType" : 5126,
            "count" : 6,
            "max" : [
                -7.288276672363281,
                2.785419464111328,
                0
            ],
            "min" : [
                -7.288276672363281,
                -7.2420806884765625,
                -6.127918243408203
            ],
            "type" : "VEC3"
        },
        {
            "bufferView" : 25,
            "componentType" : 5126,
            "count" : 6,
            "type" : "VEC3"
        },
        {
            "bufferView" : 26,
            "componentType" : 5126,
            "count" : 6,
            "type" : "VEC2"
        },
        {
            "bufferView" : 27,
            "componentType" : 5123,
            "count" : 6,
            "type" : "SCALAR"
        },
        {
            "bufferView" : 28,
            "componentType" : 5126,
            "count" : 6,
            "max" : [
                7.159679412841797,
                2.7854156494140625,
                0
            ],
            "min" : [
                7.159675598144531,
                -7.2420806884765625,
                -6.127918243408203
            ],
            "type" : "VEC3"
        },
        {
            "bufferView" : 29,
            "componentType" : 5126,
            "count" : 6,
            "type" : "VEC3"
        },
        {
            "bufferView" : 30,
            "componentType" : 5126,
            "count" : 6,
            "type" : "VEC2"
        },
        {
            "bufferView" : 31,
            "componentType" : 5123,
            "count" : 6,
            "type" : "SCALAR"
        },
        {
            "bufferView" : 32,
            "componentType" : 5126,
            "count" : 6,
            "max" : [
                0.7854194641113281,
                5.4010772705078125,
                -0.015411376953125
            ],
            "min" : [
                -0.6857986450195312,
                5.401069641113281,
                -2.286632537841797
            ],
            "type" : "VEC3"
        },
        {
            "bufferView" : 33,
            "componentType" : 5126,
            "count" : 6,
            "type" : "VEC3"
        },
        {
            "bufferView" : 34,
            "componentType" : 5126,
            "count" : 6,
            "type" : "VEC2"
        },
        {
            "bufferView" : 35,
            "componentType" : 5123,
            "count" : 6,
            "type" : "SCALAR"
        }
    ],
    "bufferViews" : [
        {
            "buffer" : 0,
            "byteLength" : 744,
            "byteOffset" : 0
        },
        {
            "buffer" : 0,
            "byteLength" : 744,
            "byteOffset" : 744
        },
        {
            "buffer" : 0,
            "byteLength" : 496,
            "byteOffset" : 1488
        },
        {
            "buffer" : 0,
            "byteLength" : 132,
            "byteOffset" : 1984
        },
        {
            "buffer" : 0,
            "byteLength" : 240,
            "byteOffset" : 2116
        },
        {
            "buffer" : 0,
            "byteLength" : 240,
            "byteOffset" : 2356
        },
        {
            "buffer" : 0,
            "byteLength" : 160,
            "byteOffset" : 2596
        },
        {
            "buffer" : 0,
            "byteLength" : 48,
            "byteOffset" : 2756
        },
        {
            "buffer" : 0,
            "byteLength" : 144,
            "byteOffset" : 2804
        },
        {
            "buffer" : 0,
            "byteLength" : 144,
            "byteOffset" : 2948
        },
        {
            "buffer" : 0,
            "byteLength" : 96,
            "byteOffset" : 3092
        },
        {
            "buffer" : 0,
            "byteLength" : 24,
            "byteOffset" : 3188
        },
        {
            "buffer" : 0,
            "byteLength" : 48,
            "byteOffset" : 3212
        },
        {
            "buffer" : 0,
            "byteLength" : 48,
            "byteOffset" : 3260
        },
        {
            "buffer" : 0,
            "byteLength" : 32,
            "byteOffset" : 3308
        },
        {
            "buffer" : 0,
            "byteLength" : 12,
            "byteOffset" : 3340
        },
        {
            "buffer" : 0,
            "byteLength" : 312,
            "byteOffset" : 3352
        },
        {
            "buffer" : 0,
            "byteLength" : 312,
            "byteOffset" : 3664
        },
        {
            "buffer" : 0,
            "byteLength" : 208,
            "byteOffset" : 3976
        },
        {
            "buffer" : 0,
            "byteLength" : 60,
            "byteOffset" : 4184
        },
        {
            "buffer" : 0,
            "byteLength" : 72,
            "byteOffset" : 4244
        },
        {
            "buffer" : 0,
            "byteLength" : 72,
            "byteOffset" : 4316
        },
        {
            "buffer" : 0,
            "byteLength" : 48,
            "byteOffset" : 4388
        },
        {
            "buffer" : 0,
            "byteLength" : 12,
            "byteOffset" : 4436
        },
        {
            "buffer" : 0,
            "byteLength" : 72,
            "byteOffset" : 4448
        },
        {
            "buffer" : 0,
            "byteLength" : 72,
            "byteOffset" : 4520
        },
        {
            "buffer" : 0,
            "byteLength" : 48,
            "byteOffset" : 4592
        },
        {
            "buffer" : 0,
            "byteLength" : 12,
            "byteOffset" : 4640
        },
        {
            "buffer" : 0,
            "byteLength" : 72,
            "byteOffset" : 4652
        },
        {
            "buffer" : 0,
            "byteLength" : 72,
            "byteOffset" : 4724
        },
        {
            "buffer" : 0,
            "byteLength" : 48,
            "byteOffset" : 4796
        },
        {
            "buffer" : 0,
            "byteLength" : 12,
            "byteOffset" : 4844
        },
        {
            "buffer" : 0,
            "byteLength" : 72,
            "byteOffset" : 4856
        },
        {
            "buffer" : 0,
            "byteLength" : 72,
            "byteOffset" : 4928
        },
        {
            "buffer" : 0,
            "byteLength" : 48,
            "byteOffset" : 5000
        },
        {
            "buffer" : 0,
            "byteLength" : 12,
            "byteOffset" : 5048
        }
    ],
    "samplers" : [
        {
            "magFilter" : 9729,
            "minFilter" : 9987
        }
    ],
    "buffers" : [
        {
            "byteLength" : 5060,
            "uri" : "bb_inn.bin"
        }
    ]
}
