{
	"asset":{
		"generator":"Khronos glTF Blender I/O v4.4.55",
		"version":"2.0"
	},
	"scene":0,
	"scenes":[
		{
			"name":"Scene",
			"nodes":[
				0,
				1
			]
		}
	],
	"nodes":[
		{
			"mesh":0,
			"name":"Maxis-3d3-mesh-22",
			"rotation":[
				0.70710688829422,
				0,
				0,
				0.7071066498756409
			]
		},
		{
			"extras":{
				"gd_node":"Decal",
				"lower_fade":9,
				"upper_fade":10
			},
			"mesh":1,
			"name":"Ground_AO",
			"scale":[
				15.447959899902344,
				1,
				13.64316177368164
			],
			"translation":[
				-0.064300537109375,
				0,
				-0.9204995632171631
			]
		}
	],
	"materials":[
		{
			"name":"matcolour-48",
			"occlusionTexture":{
				"index":0,
				"texCoord":1
			},
			"pbrMetallicRoughness":{
				"baseColorFactor":[
					0.05882352963089943,
					0.05882352963089943,
					0.05882352963089943,
					1
				],
				"metallicFactor":0
			}
		},
		{
			"name":"mat40-55",
			"occlusionTexture":{
				"index":1,
				"texCoord":1
			},
			"pbrMetallicRoughness":{
				"baseColorTexture":{
					"index":2
				},
				"metallicFactor":0
			}
		},
		{
			"name":"mat40-52",
			"occlusionTexture":{
				"index":3,
				"texCoord":1
			},
			"pbrMetallicRoughness":{
				"baseColorTexture":{
					"index":4
				},
				"metallicFactor":0
			}
		},
		{
			"name":"mat40-31",
			"occlusionTexture":{
				"index":5,
				"texCoord":1
			},
			"pbrMetallicRoughness":{
				"baseColorTexture":{
					"index":6
				},
				"metallicFactor":0
			}
		},
		{
			"name":"mat40-54",
			"occlusionTexture":{
				"index":7,
				"texCoord":1
			},
			"pbrMetallicRoughness":{
				"baseColorTexture":{
					"index":8
				},
				"metallicFactor":0
			}
		},
		{
			"name":"mat40-53",
			"occlusionTexture":{
				"index":9,
				"texCoord":1
			},
			"pbrMetallicRoughness":{
				"baseColorTexture":{
					"index":10
				},
				"metallicFactor":0
			}
		},
		{
			"name":"mat40-29",
			"occlusionTexture":{
				"index":11,
				"texCoord":1
			},
			"pbrMetallicRoughness":{
				"baseColorTexture":{
					"index":12
				},
				"metallicFactor":0
			}
		},
		{
			"name":"mat40-30",
			"occlusionTexture":{
				"index":13,
				"texCoord":1
			},
			"pbrMetallicRoughness":{
				"baseColorTexture":{
					"index":14
				},
				"metallicFactor":0
			}
		},
		{
			"name":"mat40-60",
			"occlusionTexture":{
				"index":15,
				"texCoord":1
			},
			"pbrMetallicRoughness":{
				"baseColorTexture":{
					"index":16
				},
				"metallicFactor":0
			}
		},
		{
			"name":"Ground_AO.001",
			"occlusionTexture":{
				"index":17
			},
			"pbrMetallicRoughness":{
				"baseColorFactor":[
					0.800000011920929,
					0.800000011920929,
					0.800000011920929,
					1
				],
				"metallicFactor":0,
				"roughnessFactor":0.5
			}
		}
	],
	"meshes":[
		{
			"name":"Maxis-3d3-mesh-22",
			"primitives":[
				{
					"attributes":{
						"POSITION":0,
						"NORMAL":1,
						"TEXCOORD_0":2,
						"TEXCOORD_1":3
					},
					"indices":4,
					"material":0
				},
				{
					"attributes":{
						"POSITION":5,
						"NORMAL":6,
						"TEXCOORD_0":7,
						"TEXCOORD_1":8
					},
					"indices":9,
					"material":1
				},
				{
					"attributes":{
						"POSITION":10,
						"NORMAL":11,
						"TEXCOORD_0":12,
						"TEXCOORD_1":13
					},
					"indices":14,
					"material":2
				},
				{
					"attributes":{
						"POSITION":15,
						"NORMAL":16,
						"TEXCOORD_0":17,
						"TEXCOORD_1":18
					},
					"indices":19,
					"material":3
				},
				{
					"attributes":{
						"POSITION":20,
						"NORMAL":21,
						"TEXCOORD_0":22,
						"TEXCOORD_1":23
					},
					"indices":24,
					"material":4
				},
				{
					"attributes":{
						"POSITION":25,
						"NORMAL":26,
						"TEXCOORD_0":27,
						"TEXCOORD_1":28
					},
					"indices":29,
					"material":5
				},
				{
					"attributes":{
						"POSITION":30,
						"NORMAL":31,
						"TEXCOORD_0":32,
						"TEXCOORD_1":33
					},
					"indices":34,
					"material":6
				},
				{
					"attributes":{
						"POSITION":35,
						"NORMAL":36,
						"TEXCOORD_0":37,
						"TEXCOORD_1":38
					},
					"indices":39,
					"material":7
				},
				{
					"attributes":{
						"POSITION":40,
						"NORMAL":41,
						"TEXCOORD_0":42,
						"TEXCOORD_1":43
					},
					"indices":44,
					"material":8
				}
			]
		},
		{
			"name":"Plane.001",
			"primitives":[
				{
					"attributes":{
						"POSITION":45,
						"NORMAL":46,
						"TEXCOORD_0":47
					},
					"indices":48,
					"material":9
				}
			]
		}
	],
	"textures":[
		{
			"sampler":0,
			"source":0
		},
		{
			"sampler":0,
			"source":0
		},
		{
			"sampler":0,
			"source":1
		},
		{
			"sampler":0,
			"source":0
		},
		{
			"sampler":0,
			"source":2
		},
		{
			"sampler":0,
			"source":0
		},
		{
			"sampler":0,
			"source":3
		},
		{
			"sampler":0,
			"source":0
		},
		{
			"sampler":0,
			"source":4
		},
		{
			"sampler":0,
			"source":0
		},
		{
			"sampler":0,
			"source":5
		},
		{
			"sampler":0,
			"source":0
		},
		{
			"sampler":0,
			"source":6
		},
		{
			"sampler":0,
			"source":0
		},
		{
			"sampler":0,
			"source":7
		},
		{
			"sampler":0,
			"source":0
		},
		{
			"sampler":0,
			"source":8
		},
		{
			"sampler":0,
			"source":9
		}
	],
	"images":[
		{
			"mimeType":"image/png",
			"name":"bb_inn.png",
			"uri":"../../Textures/ambient_occlusion/Buildings/bb_inn.png"
		},
		{
			"mimeType":"image/png",
			"name":"tex40-55",
			"uri":"../../Textures/tex40-55.png"
		},
		{
			"mimeType":"image/png",
			"name":"tex40-52",
			"uri":"../../Textures/tex40-52.png"
		},
		{
			"mimeType":"image/png",
			"name":"tex40-31",
			"uri":"../../Textures/tex40-31.png"
		},
		{
			"mimeType":"image/png",
			"name":"tex40-54",
			"uri":"../../Textures/tex40-54.png"
		},
		{
			"mimeType":"image/png",
			"name":"tex40-53",
			"uri":"../../Textures/tex40-53.png"
		},
		{
			"mimeType":"image/png",
			"name":"tex40-29",
			"uri":"../../Textures/tex40-29.png"
		},
		{
			"mimeType":"image/png",
			"name":"tex40-30",
			"uri":"../../Textures/tex40-30.png"
		},
		{
			"mimeType":"image/png",
			"name":"tex40-60",
			"uri":"../../Textures/tex40-60.png"
		},
		{
			"mimeType":"image/png",
			"name":"bb_inn_ground.png",
			"uri":"../../Textures/ambient_occlusion/Buildings/bb_inn_ground.png"
		}
	],
	"accessors":[
		{
			"bufferView":0,
			"componentType":5126,
			"count":51,
			"max":[
				7.159679412841797,
				5.2741851806640625,
				-6.1279144287109375
			],
			"min":[
				-7.288280487060547,
				-7.2420806884765625,
				-14.684623718261719
			],
			"type":"VEC3"
		},
		{
			"bufferView":1,
			"componentType":5126,
			"count":51,
			"type":"VEC3"
		},
		{
			"bufferView":2,
			"componentType":5126,
			"count":51,
			"type":"VEC2"
		},
		{
			"bufferView":3,
			"componentType":5126,
			"count":51,
			"type":"VEC2"
		},
		{
			"bufferView":4,
			"componentType":5123,
			"count":66,
			"type":"SCALAR"
		},
		{
			"bufferView":5,
			"componentType":5126,
			"count":16,
			"max":[
				7.159679412841797,
				5.2741851806640625,
				-3.814697265625e-06
			],
			"min":[
				-7.288276672363281,
				-0.5658493041992188,
				-12.804733276367188
			],
			"type":"VEC3"
		},
		{
			"bufferView":6,
			"componentType":5126,
			"count":16,
			"type":"VEC3"
		},
		{
			"bufferView":7,
			"componentType":5126,
			"count":16,
			"type":"VEC2"
		},
		{
			"bufferView":8,
			"componentType":5126,
			"count":16,
			"type":"VEC2"
		},
		{
			"bufferView":9,
			"componentType":5123,
			"count":24,
			"type":"SCALAR"
		},
		{
			"bufferView":10,
			"componentType":5126,
			"count":8,
			"max":[
				7.159679412841797,
				-3.8993606567382812,
				0
			],
			"min":[
				-7.288276672363281,
				-7.2420806884765625,
				-12.804733276367188
			],
			"type":"VEC3"
		},
		{
			"bufferView":11,
			"componentType":5126,
			"count":8,
			"type":"VEC3"
		},
		{
			"bufferView":12,
			"componentType":5126,
			"count":8,
			"type":"VEC2"
		},
		{
			"bufferView":13,
			"componentType":5126,
			"count":8,
			"type":"VEC2"
		},
		{
			"bufferView":14,
			"componentType":5123,
			"count":12,
			"type":"SCALAR"
		},
		{
			"bufferView":15,
			"componentType":5126,
			"count":4,
			"max":[
				4.9494476318359375,
				5.274188995361328,
				0
			],
			"min":[
				-5.0780487060546875,
				5.2741851806640625,
				-6.127918243408203
			],
			"type":"VEC3"
		},
		{
			"bufferView":16,
			"componentType":5126,
			"count":4,
			"type":"VEC3"
		},
		{
			"bufferView":17,
			"componentType":5126,
			"count":4,
			"type":"VEC2"
		},
		{
			"bufferView":18,
			"componentType":5126,
			"count":4,
			"type":"VEC2"
		},
		{
			"bufferView":19,
			"componentType":5123,
			"count":6,
			"type":"SCALAR"
		},
		{
			"bufferView":20,
			"componentType":5126,
			"count":24,
			"max":[
				7.159679412841797,
				5.274188995361328,
				0
			],
			"min":[
				-7.288280487060547,
				-7.2420806884765625,
				-12.804733276367188
			],
			"type":"VEC3"
		},
		{
			"bufferView":21,
			"componentType":5126,
			"count":24,
			"type":"VEC3"
		},
		{
			"bufferView":22,
			"componentType":5126,
			"count":24,
			"type":"VEC2"
		},
		{
			"bufferView":23,
			"componentType":5126,
			"count":24,
			"type":"VEC2"
		},
		{
			"bufferView":24,
			"componentType":5123,
			"count":30,
			"type":"SCALAR"
		},
		{
			"bufferView":25,
			"componentType":5126,
			"count":4,
			"max":[
				-5.0780487060546875,
				5.274188995361328,
				0
			],
			"min":[
				-5.0780487060546875,
				2.7854156494140625,
				-6.127918243408203
			],
			"type":"VEC3"
		},
		{
			"bufferView":26,
			"componentType":5126,
			"count":4,
			"type":"VEC3"
		},
		{
			"bufferView":27,
			"componentType":5126,
			"count":4,
			"type":"VEC2"
		},
		{
			"bufferView":28,
			"componentType":5126,
			"count":4,
			"type":"VEC2"
		},
		{
			"bufferView":29,
			"componentType":5123,
			"count":6,
			"type":"SCALAR"
		},
		{
			"bufferView":30,
			"componentType":5126,
			"count":4,
			"max":[
				-7.288276672363281,
				2.785419464111328,
				0
			],
			"min":[
				-7.288276672363281,
				-7.2420806884765625,
				-6.127918243408203
			],
			"type":"VEC3"
		},
		{
			"bufferView":31,
			"componentType":5126,
			"count":4,
			"type":"VEC3"
		},
		{
			"bufferView":32,
			"componentType":5126,
			"count":4,
			"type":"VEC2"
		},
		{
			"bufferView":33,
			"componentType":5126,
			"count":4,
			"type":"VEC2"
		},
		{
			"bufferView":34,
			"componentType":5123,
			"count":6,
			"type":"SCALAR"
		},
		{
			"bufferView":35,
			"componentType":5126,
			"count":4,
			"max":[
				7.159679412841797,
				2.7854156494140625,
				0
			],
			"min":[
				7.159675598144531,
				-7.2420806884765625,
				-6.127918243408203
			],
			"type":"VEC3"
		},
		{
			"bufferView":36,
			"componentType":5126,
			"count":4,
			"type":"VEC3"
		},
		{
			"bufferView":37,
			"componentType":5126,
			"count":4,
			"type":"VEC2"
		},
		{
			"bufferView":38,
			"componentType":5126,
			"count":4,
			"type":"VEC2"
		},
		{
			"bufferView":39,
			"componentType":5123,
			"count":6,
			"type":"SCALAR"
		},
		{
			"bufferView":40,
			"componentType":5126,
			"count":4,
			"max":[
				0.7854194641113281,
				5.4010772705078125,
				-0.015411376953125
			],
			"min":[
				-0.6857986450195312,
				5.401069641113281,
				-2.286632537841797
			],
			"type":"VEC3"
		},
		{
			"bufferView":41,
			"componentType":5126,
			"count":4,
			"type":"VEC3"
		},
		{
			"bufferView":42,
			"componentType":5126,
			"count":4,
			"type":"VEC2"
		},
		{
			"bufferView":43,
			"componentType":5126,
			"count":4,
			"type":"VEC2"
		},
		{
			"bufferView":44,
			"componentType":5123,
			"count":6,
			"type":"SCALAR"
		},
		{
			"bufferView":45,
			"componentType":5126,
			"count":4,
			"max":[
				0.5,
				0,
				0.5
			],
			"min":[
				-0.5,
				0,
				-0.5
			],
			"type":"VEC3"
		},
		{
			"bufferView":46,
			"componentType":5126,
			"count":4,
			"type":"VEC3"
		},
		{
			"bufferView":47,
			"componentType":5126,
			"count":4,
			"type":"VEC2"
		},
		{
			"bufferView":48,
			"componentType":5123,
			"count":6,
			"type":"SCALAR"
		}
	],
	"bufferViews":[
		{
			"buffer":0,
			"byteLength":612,
			"byteOffset":0,
			"target":34962
		},
		{
			"buffer":0,
			"byteLength":612,
			"byteOffset":612,
			"target":34962
		},
		{
			"buffer":0,
			"byteLength":408,
			"byteOffset":1224,
			"target":34962
		},
		{
			"buffer":0,
			"byteLength":408,
			"byteOffset":1632,
			"target":34962
		},
		{
			"buffer":0,
			"byteLength":132,
			"byteOffset":2040,
			"target":34963
		},
		{
			"buffer":0,
			"byteLength":192,
			"byteOffset":2172,
			"target":34962
		},
		{
			"buffer":0,
			"byteLength":192,
			"byteOffset":2364,
			"target":34962
		},
		{
			"buffer":0,
			"byteLength":128,
			"byteOffset":2556,
			"target":34962
		},
		{
			"buffer":0,
			"byteLength":128,
			"byteOffset":2684,
			"target":34962
		},
		{
			"buffer":0,
			"byteLength":48,
			"byteOffset":2812,
			"target":34963
		},
		{
			"buffer":0,
			"byteLength":96,
			"byteOffset":2860,
			"target":34962
		},
		{
			"buffer":0,
			"byteLength":96,
			"byteOffset":2956,
			"target":34962
		},
		{
			"buffer":0,
			"byteLength":64,
			"byteOffset":3052,
			"target":34962
		},
		{
			"buffer":0,
			"byteLength":64,
			"byteOffset":3116,
			"target":34962
		},
		{
			"buffer":0,
			"byteLength":24,
			"byteOffset":3180,
			"target":34963
		},
		{
			"buffer":0,
			"byteLength":48,
			"byteOffset":3204,
			"target":34962
		},
		{
			"buffer":0,
			"byteLength":48,
			"byteOffset":3252,
			"target":34962
		},
		{
			"buffer":0,
			"byteLength":32,
			"byteOffset":3300,
			"target":34962
		},
		{
			"buffer":0,
			"byteLength":32,
			"byteOffset":3332,
			"target":34962
		},
		{
			"buffer":0,
			"byteLength":12,
			"byteOffset":3364,
			"target":34963
		},
		{
			"buffer":0,
			"byteLength":288,
			"byteOffset":3376,
			"target":34962
		},
		{
			"buffer":0,
			"byteLength":288,
			"byteOffset":3664,
			"target":34962
		},
		{
			"buffer":0,
			"byteLength":192,
			"byteOffset":3952,
			"target":34962
		},
		{
			"buffer":0,
			"byteLength":192,
			"byteOffset":4144,
			"target":34962
		},
		{
			"buffer":0,
			"byteLength":60,
			"byteOffset":4336,
			"target":34963
		},
		{
			"buffer":0,
			"byteLength":48,
			"byteOffset":4396,
			"target":34962
		},
		{
			"buffer":0,
			"byteLength":48,
			"byteOffset":4444,
			"target":34962
		},
		{
			"buffer":0,
			"byteLength":32,
			"byteOffset":4492,
			"target":34962
		},
		{
			"buffer":0,
			"byteLength":32,
			"byteOffset":4524,
			"target":34962
		},
		{
			"buffer":0,
			"byteLength":12,
			"byteOffset":4556,
			"target":34963
		},
		{
			"buffer":0,
			"byteLength":48,
			"byteOffset":4568,
			"target":34962
		},
		{
			"buffer":0,
			"byteLength":48,
			"byteOffset":4616,
			"target":34962
		},
		{
			"buffer":0,
			"byteLength":32,
			"byteOffset":4664,
			"target":34962
		},
		{
			"buffer":0,
			"byteLength":32,
			"byteOffset":4696,
			"target":34962
		},
		{
			"buffer":0,
			"byteLength":12,
			"byteOffset":4728,
			"target":34963
		},
		{
			"buffer":0,
			"byteLength":48,
			"byteOffset":4740,
			"target":34962
		},
		{
			"buffer":0,
			"byteLength":48,
			"byteOffset":4788,
			"target":34962
		},
		{
			"buffer":0,
			"byteLength":32,
			"byteOffset":4836,
			"target":34962
		},
		{
			"buffer":0,
			"byteLength":32,
			"byteOffset":4868,
			"target":34962
		},
		{
			"buffer":0,
			"byteLength":12,
			"byteOffset":4900,
			"target":34963
		},
		{
			"buffer":0,
			"byteLength":48,
			"byteOffset":4912,
			"target":34962
		},
		{
			"buffer":0,
			"byteLength":48,
			"byteOffset":4960,
			"target":34962
		},
		{
			"buffer":0,
			"byteLength":32,
			"byteOffset":5008,
			"target":34962
		},
		{
			"buffer":0,
			"byteLength":32,
			"byteOffset":5040,
			"target":34962
		},
		{
			"buffer":0,
			"byteLength":12,
			"byteOffset":5072,
			"target":34963
		},
		{
			"buffer":0,
			"byteLength":48,
			"byteOffset":5084,
			"target":34962
		},
		{
			"buffer":0,
			"byteLength":48,
			"byteOffset":5132,
			"target":34962
		},
		{
			"buffer":0,
			"byteLength":32,
			"byteOffset":5180,
			"target":34962
		},
		{
			"buffer":0,
			"byteLength":12,
			"byteOffset":5212,
			"target":34963
		}
	],
	"samplers":[
		{
			"magFilter":9729,
			"minFilter":9987
		}
	],
	"buffers":[
		{
			"byteLength":5224,
			"uri":"bb_inn.bin"
		}
	]
}
