{
    "asset" : {
        "generator" : "Khronos glTF Blender I/O v1.7.33",
        "version" : "2.0"
    },
    "scene" : 0,
    "scenes" : [
        {
            "name" : "Scene",
            "nodes" : [
                0
            ]
        }
    ],
    "nodes" : [
        {
            "mesh" : 0,
            "name" : "Maxis-3d1-mesh-48-church",
            "rotation" : [
                0.7071068286895752,
                0,
                0,
                0.7071067094802856
            ]
        }
    ],
    "materials" : [
        {
            "doubleSided" : true,
            "name" : "matcolour-48.002",
            "pbrMetallicRoughness" : {
                "baseColorFactor" : [
                    0.05882352963089943,
                    0.05882352963089943,
                    0.05882352963089943,
                    1
                ],
                "metallicFactor" : 0
            }
        },
        {
            "doubleSided" : true,
            "name" : "mat2-18",
            "pbrMetallicRoughness" : {
                "baseColorTexture" : {
                    "index" : 0
                },
                "metallicFactor" : 0
            }
        },
        {
            "doubleSided" : true,
            "name" : "mat2-17",
            "pbrMetallicRoughness" : {
                "baseColorTexture" : {
                    "index" : 1
                },
                "metallicFactor" : 0
            }
        },
        {
            "doubleSided" : true,
            "name" : "mat2-16",
            "pbrMetallicRoughness" : {
                "baseColorTexture" : {
                    "index" : 2
                },
                "metallicFactor" : 0
            }
        },
        {
            "doubleSided" : true,
            "name" : "mat2-19",
            "pbrMetallicRoughness" : {
                "baseColorTexture" : {
                    "index" : 3
                },
                "metallicFactor" : 0
            }
        },
        {
            "doubleSided" : true,
            "name" : "mat40-60.002",
            "pbrMetallicRoughness" : {
                "baseColorTexture" : {
                    "index" : 4
                },
                "metallicFactor" : 0
            }
        },
        {
            "doubleSided" : true,
            "name" : "mat40-61.002",
            "pbrMetallicRoughness" : {
                "baseColorTexture" : {
                    "index" : 5
                },
                "metallicFactor" : 0
            }
        },
        {
            "doubleSided" : true,
            "name" : "mat40-63.003",
            "pbrMetallicRoughness" : {
                "baseColorTexture" : {
                    "index" : 6
                },
                "metallicFactor" : 0
            }
        },
        {
            "doubleSided" : true,
            "name" : "mat40-62.003",
            "pbrMetallicRoughness" : {
                "baseColorTexture" : {
                    "index" : 7
                },
                "metallicFactor" : 0
            }
        }
    ],
    "meshes" : [
        {
            "name" : "Maxis-3d1-mesh-48-church",
            "primitives" : [
                {
                    "attributes" : {
                        "POSITION" : 0,
                        "NORMAL" : 1,
                        "TEXCOORD_0" : 2
                    },
                    "indices" : 3,
                    "material" : 0
                },
                {
                    "attributes" : {
                        "POSITION" : 4,
                        "NORMAL" : 5,
                        "TEXCOORD_0" : 6
                    },
                    "indices" : 7,
                    "material" : 1
                },
                {
                    "attributes" : {
                        "POSITION" : 8,
                        "NORMAL" : 9,
                        "TEXCOORD_0" : 10
                    },
                    "indices" : 11,
                    "material" : 2
                },
                {
                    "attributes" : {
                        "POSITION" : 12,
                        "NORMAL" : 13,
                        "TEXCOORD_0" : 14
                    },
                    "indices" : 15,
                    "material" : 3
                },
                {
                    "attributes" : {
                        "POSITION" : 16,
                        "NORMAL" : 17,
                        "TEXCOORD_0" : 18
                    },
                    "indices" : 19,
                    "material" : 4
                },
                {
                    "attributes" : {
                        "POSITION" : 20,
                        "NORMAL" : 21,
                        "TEXCOORD_0" : 22
                    },
                    "indices" : 23,
                    "material" : 5
                },
                {
                    "attributes" : {
                        "POSITION" : 24,
                        "NORMAL" : 25,
                        "TEXCOORD_0" : 26
                    },
                    "indices" : 27,
                    "material" : 6
                },
                {
                    "attributes" : {
                        "POSITION" : 28,
                        "NORMAL" : 29,
                        "TEXCOORD_0" : 30
                    },
                    "indices" : 31,
                    "material" : 7
                },
                {
                    "attributes" : {
                        "POSITION" : 32,
                        "NORMAL" : 33,
                        "TEXCOORD_0" : 34
                    },
                    "indices" : 35,
                    "material" : 8
                }
            ]
        }
    ],
    "textures" : [
        {
            "sampler" : 0,
            "source" : 0
        },
        {
            "sampler" : 0,
            "source" : 1
        },
        {
            "sampler" : 0,
            "source" : 2
        },
        {
            "sampler" : 0,
            "source" : 3
        },
        {
            "sampler" : 0,
            "source" : 4
        },
        {
            "sampler" : 0,
            "source" : 5
        },
        {
            "sampler" : 0,
            "source" : 6
        },
        {
            "sampler" : 0,
            "source" : 7
        }
    ],
    "images" : [
        {
            "mimeType" : "image/png",
            "name" : "tex2-18",
            "uri" : "../../Textures/tex2-18.png"
        },
        {
            "mimeType" : "image/png",
            "name" : "tex2-17",
            "uri" : "../../Textures/tex2-17.png"
        },
        {
            "mimeType" : "image/png",
            "name" : "tex2-16",
            "uri" : "../../Textures/tex2-16.png"
        },
        {
            "mimeType" : "image/png",
            "name" : "tex2-19",
            "uri" : "../../Textures/tex2-19.png"
        },
        {
            "mimeType" : "image/png",
            "name" : "tex40-60",
            "uri" : "../../Textures/tex40-60.png"
        },
        {
            "mimeType" : "image/png",
            "name" : "tex40-61",
            "uri" : "../../Textures/tex40-61.png"
        },
        {
            "mimeType" : "image/png",
            "name" : "tex40-63",
            "uri" : "../../Textures/tex40-63.png"
        },
        {
            "mimeType" : "image/png",
            "name" : "tex40-62",
            "uri" : "../../Textures/tex40-62.png"
        }
    ],
    "accessors" : [
        {
            "bufferView" : 0,
            "componentType" : 5126,
            "count" : 199,
            "max" : [
                8.762508392333984,
                17.291667938232422,
                0
            ],
            "min" : [
                -11.262504577636719,
                -10.990985870361328,
                -33.955650329589844
            ],
            "type" : "VEC3"
        },
        {
            "bufferView" : 1,
            "componentType" : 5126,
            "count" : 199,
            "type" : "VEC3"
        },
        {
            "bufferView" : 2,
            "componentType" : 5126,
            "count" : 199,
            "type" : "VEC2"
        },
        {
            "bufferView" : 3,
            "componentType" : 5123,
            "count" : 246,
            "type" : "SCALAR"
        },
        {
            "bufferView" : 4,
            "componentType" : 5126,
            "count" : 6,
            "max" : [
                8.762508392333984,
                15.472965240478516,
                3.814697265625e-06
            ],
            "min" : [
                8.762508392333984,
                -10.990985870361328,
                -9.386730194091797
            ],
            "type" : "VEC3"
        },
        {
            "bufferView" : 5,
            "componentType" : 5126,
            "count" : 6,
            "type" : "VEC3"
        },
        {
            "bufferView" : 6,
            "componentType" : 5126,
            "count" : 6,
            "type" : "VEC2"
        },
        {
            "bufferView" : 7,
            "componentType" : 5123,
            "count" : 6,
            "type" : "SCALAR"
        },
        {
            "bufferView" : 8,
            "componentType" : 5126,
            "count" : 6,
            "max" : [
                -11.262504577636719,
                15.47296142578125,
                3.814697265625e-06
            ],
            "min" : [
                -11.262504577636719,
                -10.99099349975586,
                -9.386730194091797
            ],
            "type" : "VEC3"
        },
        {
            "bufferView" : 9,
            "componentType" : 5126,
            "count" : 6,
            "type" : "VEC3"
        },
        {
            "bufferView" : 10,
            "componentType" : 5126,
            "count" : 6,
            "type" : "VEC2"
        },
        {
            "bufferView" : 11,
            "componentType" : 5123,
            "count" : 6,
            "type" : "SCALAR"
        },
        {
            "bufferView" : 12,
            "componentType" : 5126,
            "count" : 6,
            "max" : [
                8.762508392333984,
                -10.990982055664062,
                3.814697265625e-06
            ],
            "min" : [
                -11.262504577636719,
                -10.99099349975586,
                -9.38671875
            ],
            "type" : "VEC3"
        },
        {
            "bufferView" : 13,
            "componentType" : 5126,
            "count" : 6,
            "type" : "VEC3"
        },
        {
            "bufferView" : 14,
            "componentType" : 5126,
            "count" : 6,
            "type" : "VEC2"
        },
        {
            "bufferView" : 15,
            "componentType" : 5123,
            "count" : 6,
            "type" : "SCALAR"
        },
        {
            "bufferView" : 16,
            "componentType" : 5126,
            "count" : 12,
            "max" : [
                8.762508392333984,
                15.472965240478516,
                -3.814697265625e-06
            ],
            "min" : [
                -11.262504577636719,
                15.472957611083984,
                -9.399822235107422
            ],
            "type" : "VEC3"
        },
        {
            "bufferView" : 17,
            "componentType" : 5126,
            "count" : 12,
            "type" : "VEC3"
        },
        {
            "bufferView" : 18,
            "componentType" : 5126,
            "count" : 12,
            "type" : "VEC2"
        },
        {
            "bufferView" : 19,
            "componentType" : 5123,
            "count" : 12,
            "type" : "SCALAR"
        },
        {
            "bufferView" : 20,
            "componentType" : 5126,
            "count" : 16,
            "max" : [
                1.9487533569335938,
                15.47296142578125,
                -9.38671875
            ],
            "min" : [
                -11.262504577636719,
                -10.990985870361328,
                -30.291664123535156
            ],
            "type" : "VEC3"
        },
        {
            "bufferView" : 21,
            "componentType" : 5126,
            "count" : 16,
            "type" : "VEC3"
        },
        {
            "bufferView" : 22,
            "componentType" : 5126,
            "count" : 16,
            "type" : "VEC2"
        },
        {
            "bufferView" : 23,
            "componentType" : 5123,
            "count" : 18,
            "type" : "SCALAR"
        },
        {
            "bufferView" : 24,
            "componentType" : 5126,
            "count" : 16,
            "max" : [
                8.762508392333984,
                16.948749542236328,
                -9.38671875
            ],
            "min" : [
                -4.448757171630859,
                -10.990982055664062,
                -30.291664123535156
            ],
            "type" : "VEC3"
        },
        {
            "bufferView" : 25,
            "componentType" : 5126,
            "count" : 16,
            "type" : "VEC3"
        },
        {
            "bufferView" : 26,
            "componentType" : 5126,
            "count" : 16,
            "type" : "VEC2"
        },
        {
            "bufferView" : 27,
            "componentType" : 5123,
            "count" : 18,
            "type" : "SCALAR"
        },
        {
            "bufferView" : 28,
            "componentType" : 5126,
            "count" : 24,
            "max" : [
                4.375,
                17.291667938232422,
                -8.013221740722656
            ],
            "min" : [
                -7.5,
                13.958328247070312,
                -30.291664123535156
            ],
            "type" : "VEC3"
        },
        {
            "bufferView" : 29,
            "componentType" : 5126,
            "count" : 24,
            "type" : "VEC3"
        },
        {
            "bufferView" : 30,
            "componentType" : 5126,
            "count" : 24,
            "type" : "VEC2"
        },
        {
            "bufferView" : 31,
            "componentType" : 5123,
            "count" : 24,
            "type" : "SCALAR"
        },
        {
            "bufferView" : 32,
            "componentType" : 5126,
            "count" : 6,
            "max" : [
                1.9487533569335938,
                16.948749542236328,
                -26.051700592041016
            ],
            "min" : [
                -1.0208320617675781,
                10.551239013671875,
                -30.291664123535156
            ],
            "type" : "VEC3"
        },
        {
            "bufferView" : 33,
            "componentType" : 5126,
            "count" : 6,
            "type" : "VEC3"
        },
        {
            "bufferView" : 34,
            "componentType" : 5126,
            "count" : 6,
            "type" : "VEC2"
        },
        {
            "bufferView" : 35,
            "componentType" : 5123,
            "count" : 6,
            "type" : "SCALAR"
        }
    ],
    "bufferViews" : [
        {
            "buffer" : 0,
            "byteLength" : 2388,
            "byteOffset" : 0
        },
        {
            "buffer" : 0,
            "byteLength" : 2388,
            "byteOffset" : 2388
        },
        {
            "buffer" : 0,
            "byteLength" : 1592,
            "byteOffset" : 4776
        },
        {
            "buffer" : 0,
            "byteLength" : 492,
            "byteOffset" : 6368
        },
        {
            "buffer" : 0,
            "byteLength" : 72,
            "byteOffset" : 6860
        },
        {
            "buffer" : 0,
            "byteLength" : 72,
            "byteOffset" : 6932
        },
        {
            "buffer" : 0,
            "byteLength" : 48,
            "byteOffset" : 7004
        },
        {
            "buffer" : 0,
            "byteLength" : 12,
            "byteOffset" : 7052
        },
        {
            "buffer" : 0,
            "byteLength" : 72,
            "byteOffset" : 7064
        },
        {
            "buffer" : 0,
            "byteLength" : 72,
            "byteOffset" : 7136
        },
        {
            "buffer" : 0,
            "byteLength" : 48,
            "byteOffset" : 7208
        },
        {
            "buffer" : 0,
            "byteLength" : 12,
            "byteOffset" : 7256
        },
        {
            "buffer" : 0,
            "byteLength" : 72,
            "byteOffset" : 7268
        },
        {
            "buffer" : 0,
            "byteLength" : 72,
            "byteOffset" : 7340
        },
        {
            "buffer" : 0,
            "byteLength" : 48,
            "byteOffset" : 7412
        },
        {
            "buffer" : 0,
            "byteLength" : 12,
            "byteOffset" : 7460
        },
        {
            "buffer" : 0,
            "byteLength" : 144,
            "byteOffset" : 7472
        },
        {
            "buffer" : 0,
            "byteLength" : 144,
            "byteOffset" : 7616
        },
        {
            "buffer" : 0,
            "byteLength" : 96,
            "byteOffset" : 7760
        },
        {
            "buffer" : 0,
            "byteLength" : 24,
            "byteOffset" : 7856
        },
        {
            "buffer" : 0,
            "byteLength" : 192,
            "byteOffset" : 7880
        },
        {
            "buffer" : 0,
            "byteLength" : 192,
            "byteOffset" : 8072
        },
        {
            "buffer" : 0,
            "byteLength" : 128,
            "byteOffset" : 8264
        },
        {
            "buffer" : 0,
            "byteLength" : 36,
            "byteOffset" : 8392
        },
        {
            "buffer" : 0,
            "byteLength" : 192,
            "byteOffset" : 8428
        },
        {
            "buffer" : 0,
            "byteLength" : 192,
            "byteOffset" : 8620
        },
        {
            "buffer" : 0,
            "byteLength" : 128,
            "byteOffset" : 8812
        },
        {
            "buffer" : 0,
            "byteLength" : 36,
            "byteOffset" : 8940
        },
        {
            "buffer" : 0,
            "byteLength" : 288,
            "byteOffset" : 8976
        },
        {
            "buffer" : 0,
            "byteLength" : 288,
            "byteOffset" : 9264
        },
        {
            "buffer" : 0,
            "byteLength" : 192,
            "byteOffset" : 9552
        },
        {
            "buffer" : 0,
            "byteLength" : 48,
            "byteOffset" : 9744
        },
        {
            "buffer" : 0,
            "byteLength" : 72,
            "byteOffset" : 9792
        },
        {
            "buffer" : 0,
            "byteLength" : 72,
            "byteOffset" : 9864
        },
        {
            "buffer" : 0,
            "byteLength" : 48,
            "byteOffset" : 9936
        },
        {
            "buffer" : 0,
            "byteLength" : 12,
            "byteOffset" : 9984
        }
    ],
    "samplers" : [
        {
            "magFilter" : 9729,
            "minFilter" : 9987
        }
    ],
    "buffers" : [
        {
            "byteLength" : 9996,
            "uri" : "church.bin"
        }
    ]
}
