{
	"asset":{
		"generator":"Khronos glTF Blender I/O v4.4.55",
		"version":"2.0"
	},
	"scene":0,
	"scenes":[
		{
			"name":"Scene",
			"nodes":[
				0,
				1
			]
		}
	],
	"nodes":[
		{
			"mesh":0,
			"name":"Maxis-3d1-mesh-48-church",
			"rotation":[
				0.70710688829422,
				0,
				0,
				0.7071066498756409
			]
		},
		{
			"extras":{
				"gd_node":"Decal",
				"lower_fade":9,
				"upper_fade":10
			},
			"mesh":1,
			"name":"Ground_AO",
			"scale":[
				21.025012969970703,
				1,
				29.282669067382812
			],
			"translation":[
				-1.2499980926513672,
				-9.053143003256992e-06,
				3.150341510772705
			]
		}
	],
	"materials":[
		{
			"name":"matcolour-48.002",
			"occlusionTexture":{
				"index":0,
				"texCoord":1
			},
			"pbrMetallicRoughness":{
				"baseColorFactor":[
					0.05882352963089943,
					0.05882352963089943,
					0.05882352963089943,
					1
				],
				"metallicFactor":0
			}
		},
		{
			"name":"mat2-18",
			"occlusionTexture":{
				"index":1,
				"texCoord":1
			},
			"pbrMetallicRoughness":{
				"baseColorTexture":{
					"index":2
				},
				"metallicFactor":0
			}
		},
		{
			"name":"mat2-17",
			"occlusionTexture":{
				"index":3,
				"texCoord":1
			},
			"pbrMetallicRoughness":{
				"baseColorTexture":{
					"index":4
				},
				"metallicFactor":0
			}
		},
		{
			"name":"mat2-16",
			"occlusionTexture":{
				"index":5,
				"texCoord":1
			},
			"pbrMetallicRoughness":{
				"baseColorTexture":{
					"index":6
				},
				"metallicFactor":0
			}
		},
		{
			"name":"mat2-19",
			"occlusionTexture":{
				"index":7,
				"texCoord":1
			},
			"pbrMetallicRoughness":{
				"baseColorTexture":{
					"index":8
				},
				"metallicFactor":0
			}
		},
		{
			"name":"mat40-60.002",
			"occlusionTexture":{
				"index":9,
				"texCoord":1
			},
			"pbrMetallicRoughness":{
				"baseColorTexture":{
					"index":10
				},
				"metallicFactor":0
			}
		},
		{
			"name":"mat40-61.002",
			"occlusionTexture":{
				"index":11,
				"texCoord":1
			},
			"pbrMetallicRoughness":{
				"baseColorTexture":{
					"index":12
				},
				"metallicFactor":0
			}
		},
		{
			"name":"mat40-63.003",
			"occlusionTexture":{
				"index":13,
				"texCoord":1
			},
			"pbrMetallicRoughness":{
				"baseColorTexture":{
					"index":14
				},
				"metallicFactor":0
			}
		},
		{
			"name":"mat40-62.003",
			"occlusionTexture":{
				"index":15,
				"texCoord":1
			},
			"pbrMetallicRoughness":{
				"baseColorTexture":{
					"index":16
				},
				"metallicFactor":0
			}
		},
		{
			"name":"Ground_AO.001",
			"occlusionTexture":{
				"index":17
			},
			"pbrMetallicRoughness":{
				"baseColorFactor":[
					0.800000011920929,
					0.800000011920929,
					0.800000011920929,
					1
				],
				"metallicFactor":0,
				"roughnessFactor":0.5
			}
		}
	],
	"meshes":[
		{
			"name":"Maxis-3d1-mesh-48-church",
			"primitives":[
				{
					"attributes":{
						"POSITION":0,
						"NORMAL":1,
						"TEXCOORD_0":2,
						"TEXCOORD_1":3
					},
					"indices":4,
					"material":0
				},
				{
					"attributes":{
						"POSITION":5,
						"NORMAL":6,
						"TEXCOORD_0":7,
						"TEXCOORD_1":8
					},
					"indices":9,
					"material":1
				},
				{
					"attributes":{
						"POSITION":10,
						"NORMAL":11,
						"TEXCOORD_0":12,
						"TEXCOORD_1":13
					},
					"indices":14,
					"material":2
				},
				{
					"attributes":{
						"POSITION":15,
						"NORMAL":16,
						"TEXCOORD_0":17,
						"TEXCOORD_1":18
					},
					"indices":19,
					"material":3
				},
				{
					"attributes":{
						"POSITION":20,
						"NORMAL":21,
						"TEXCOORD_0":22,
						"TEXCOORD_1":23
					},
					"indices":24,
					"material":4
				},
				{
					"attributes":{
						"POSITION":25,
						"NORMAL":26,
						"TEXCOORD_0":27,
						"TEXCOORD_1":28
					},
					"indices":29,
					"material":5
				},
				{
					"attributes":{
						"POSITION":30,
						"NORMAL":31,
						"TEXCOORD_0":32,
						"TEXCOORD_1":33
					},
					"indices":34,
					"material":6
				},
				{
					"attributes":{
						"POSITION":35,
						"NORMAL":36,
						"TEXCOORD_0":37,
						"TEXCOORD_1":38
					},
					"indices":39,
					"material":7
				},
				{
					"attributes":{
						"POSITION":40,
						"NORMAL":41,
						"TEXCOORD_0":42,
						"TEXCOORD_1":43
					},
					"indices":44,
					"material":8
				}
			]
		},
		{
			"name":"Plane.001",
			"primitives":[
				{
					"attributes":{
						"POSITION":45,
						"NORMAL":46,
						"TEXCOORD_0":47
					},
					"indices":48,
					"material":9
				}
			]
		}
	],
	"textures":[
		{
			"sampler":0,
			"source":0
		},
		{
			"sampler":0,
			"source":0
		},
		{
			"sampler":0,
			"source":1
		},
		{
			"sampler":0,
			"source":0
		},
		{
			"sampler":0,
			"source":2
		},
		{
			"sampler":0,
			"source":0
		},
		{
			"sampler":0,
			"source":3
		},
		{
			"sampler":0,
			"source":0
		},
		{
			"sampler":0,
			"source":4
		},
		{
			"sampler":0,
			"source":0
		},
		{
			"sampler":0,
			"source":5
		},
		{
			"sampler":0,
			"source":0
		},
		{
			"sampler":0,
			"source":6
		},
		{
			"sampler":0,
			"source":0
		},
		{
			"sampler":0,
			"source":7
		},
		{
			"sampler":0,
			"source":0
		},
		{
			"sampler":0,
			"source":8
		},
		{
			"sampler":0,
			"source":9
		}
	],
	"images":[
		{
			"mimeType":"image/png",
			"name":"church.png",
			"uri":"../../Textures/ambient_occlusion/Buildings/church.png"
		},
		{
			"mimeType":"image/png",
			"name":"tex2-18",
			"uri":"../../Textures/tex2-18.png"
		},
		{
			"mimeType":"image/png",
			"name":"tex2-17",
			"uri":"../../Textures/tex2-17.png"
		},
		{
			"mimeType":"image/png",
			"name":"tex2-16",
			"uri":"../../Textures/tex2-16.png"
		},
		{
			"mimeType":"image/png",
			"name":"tex2-19",
			"uri":"../../Textures/tex2-19.png"
		},
		{
			"mimeType":"image/png",
			"name":"tex40-60",
			"uri":"../../Textures/tex40-60.png"
		},
		{
			"mimeType":"image/png",
			"name":"tex40-61",
			"uri":"../../Textures/tex40-61.png"
		},
		{
			"mimeType":"image/png",
			"name":"tex40-63",
			"uri":"../../Textures/tex40-63.png"
		},
		{
			"mimeType":"image/png",
			"name":"tex40-62",
			"uri":"../../Textures/tex40-62.png"
		},
		{
			"mimeType":"image/png",
			"name":"church_ground.png",
			"uri":"../../Textures/ambient_occlusion/Buildings/church_ground.png"
		}
	],
	"accessors":[
		{
			"bufferView":0,
			"componentType":5126,
			"count":145,
			"max":[
				8.762508392333984,
				17.291667938232422,
				0
			],
			"min":[
				-11.262504577636719,
				-10.990985870361328,
				-33.955650329589844
			],
			"type":"VEC3"
		},
		{
			"bufferView":1,
			"componentType":5126,
			"count":145,
			"type":"VEC3"
		},
		{
			"bufferView":2,
			"componentType":5126,
			"count":145,
			"type":"VEC2"
		},
		{
			"bufferView":3,
			"componentType":5126,
			"count":145,
			"type":"VEC2"
		},
		{
			"bufferView":4,
			"componentType":5123,
			"count":246,
			"type":"SCALAR"
		},
		{
			"bufferView":5,
			"componentType":5126,
			"count":4,
			"max":[
				8.762508392333984,
				15.472965240478516,
				3.814697265625e-06
			],
			"min":[
				8.762508392333984,
				-10.990985870361328,
				-9.386730194091797
			],
			"type":"VEC3"
		},
		{
			"bufferView":6,
			"componentType":5126,
			"count":4,
			"type":"VEC3"
		},
		{
			"bufferView":7,
			"componentType":5126,
			"count":4,
			"type":"VEC2"
		},
		{
			"bufferView":8,
			"componentType":5126,
			"count":4,
			"type":"VEC2"
		},
		{
			"bufferView":9,
			"componentType":5123,
			"count":6,
			"type":"SCALAR"
		},
		{
			"bufferView":10,
			"componentType":5126,
			"count":4,
			"max":[
				-11.262504577636719,
				15.47296142578125,
				3.814697265625e-06
			],
			"min":[
				-11.262504577636719,
				-10.99099349975586,
				-9.386730194091797
			],
			"type":"VEC3"
		},
		{
			"bufferView":11,
			"componentType":5126,
			"count":4,
			"type":"VEC3"
		},
		{
			"bufferView":12,
			"componentType":5126,
			"count":4,
			"type":"VEC2"
		},
		{
			"bufferView":13,
			"componentType":5126,
			"count":4,
			"type":"VEC2"
		},
		{
			"bufferView":14,
			"componentType":5123,
			"count":6,
			"type":"SCALAR"
		},
		{
			"bufferView":15,
			"componentType":5126,
			"count":4,
			"max":[
				8.762508392333984,
				-10.990982055664062,
				3.814697265625e-06
			],
			"min":[
				-11.262504577636719,
				-10.99099349975586,
				-9.38671875
			],
			"type":"VEC3"
		},
		{
			"bufferView":16,
			"componentType":5126,
			"count":4,
			"type":"VEC3"
		},
		{
			"bufferView":17,
			"componentType":5126,
			"count":4,
			"type":"VEC2"
		},
		{
			"bufferView":18,
			"componentType":5126,
			"count":4,
			"type":"VEC2"
		},
		{
			"bufferView":19,
			"componentType":5123,
			"count":6,
			"type":"SCALAR"
		},
		{
			"bufferView":20,
			"componentType":5126,
			"count":8,
			"max":[
				8.762508392333984,
				15.472965240478516,
				-3.814697265625e-06
			],
			"min":[
				-11.262504577636719,
				15.472957611083984,
				-9.399822235107422
			],
			"type":"VEC3"
		},
		{
			"bufferView":21,
			"componentType":5126,
			"count":8,
			"type":"VEC3"
		},
		{
			"bufferView":22,
			"componentType":5126,
			"count":8,
			"type":"VEC2"
		},
		{
			"bufferView":23,
			"componentType":5126,
			"count":8,
			"type":"VEC2"
		},
		{
			"bufferView":24,
			"componentType":5123,
			"count":12,
			"type":"SCALAR"
		},
		{
			"bufferView":25,
			"componentType":5126,
			"count":10,
			"max":[
				1.9487533569335938,
				15.47296142578125,
				-9.38671875
			],
			"min":[
				-11.262504577636719,
				-10.990985870361328,
				-30.291664123535156
			],
			"type":"VEC3"
		},
		{
			"bufferView":26,
			"componentType":5126,
			"count":10,
			"type":"VEC3"
		},
		{
			"bufferView":27,
			"componentType":5126,
			"count":10,
			"type":"VEC2"
		},
		{
			"bufferView":28,
			"componentType":5126,
			"count":10,
			"type":"VEC2"
		},
		{
			"bufferView":29,
			"componentType":5123,
			"count":18,
			"type":"SCALAR"
		},
		{
			"bufferView":30,
			"componentType":5126,
			"count":10,
			"max":[
				8.762508392333984,
				16.948749542236328,
				-9.38671875
			],
			"min":[
				-4.448757171630859,
				-10.990982055664062,
				-30.291664123535156
			],
			"type":"VEC3"
		},
		{
			"bufferView":31,
			"componentType":5126,
			"count":10,
			"type":"VEC3"
		},
		{
			"bufferView":32,
			"componentType":5126,
			"count":10,
			"type":"VEC2"
		},
		{
			"bufferView":33,
			"componentType":5126,
			"count":10,
			"type":"VEC2"
		},
		{
			"bufferView":34,
			"componentType":5123,
			"count":18,
			"type":"SCALAR"
		},
		{
			"bufferView":35,
			"componentType":5126,
			"count":12,
			"max":[
				4.375,
				17.291667938232422,
				-8.013221740722656
			],
			"min":[
				-7.5,
				13.958328247070312,
				-30.291664123535156
			],
			"type":"VEC3"
		},
		{
			"bufferView":36,
			"componentType":5126,
			"count":12,
			"type":"VEC3"
		},
		{
			"bufferView":37,
			"componentType":5126,
			"count":12,
			"type":"VEC2"
		},
		{
			"bufferView":38,
			"componentType":5126,
			"count":12,
			"type":"VEC2"
		},
		{
			"bufferView":39,
			"componentType":5123,
			"count":24,
			"type":"SCALAR"
		},
		{
			"bufferView":40,
			"componentType":5126,
			"count":4,
			"max":[
				1.9487533569335938,
				16.948749542236328,
				-26.051700592041016
			],
			"min":[
				-1.0208320617675781,
				10.551239013671875,
				-30.291664123535156
			],
			"type":"VEC3"
		},
		{
			"bufferView":41,
			"componentType":5126,
			"count":4,
			"type":"VEC3"
		},
		{
			"bufferView":42,
			"componentType":5126,
			"count":4,
			"type":"VEC2"
		},
		{
			"bufferView":43,
			"componentType":5126,
			"count":4,
			"type":"VEC2"
		},
		{
			"bufferView":44,
			"componentType":5123,
			"count":6,
			"type":"SCALAR"
		},
		{
			"bufferView":45,
			"componentType":5126,
			"count":4,
			"max":[
				0.5,
				0,
				0.5
			],
			"min":[
				-0.5,
				0,
				-0.5
			],
			"type":"VEC3"
		},
		{
			"bufferView":46,
			"componentType":5126,
			"count":4,
			"type":"VEC3"
		},
		{
			"bufferView":47,
			"componentType":5126,
			"count":4,
			"type":"VEC2"
		},
		{
			"bufferView":48,
			"componentType":5123,
			"count":6,
			"type":"SCALAR"
		}
	],
	"bufferViews":[
		{
			"buffer":0,
			"byteLength":1740,
			"byteOffset":0,
			"target":34962
		},
		{
			"buffer":0,
			"byteLength":1740,
			"byteOffset":1740,
			"target":34962
		},
		{
			"buffer":0,
			"byteLength":1160,
			"byteOffset":3480,
			"target":34962
		},
		{
			"buffer":0,
			"byteLength":1160,
			"byteOffset":4640,
			"target":34962
		},
		{
			"buffer":0,
			"byteLength":492,
			"byteOffset":5800,
			"target":34963
		},
		{
			"buffer":0,
			"byteLength":48,
			"byteOffset":6292,
			"target":34962
		},
		{
			"buffer":0,
			"byteLength":48,
			"byteOffset":6340,
			"target":34962
		},
		{
			"buffer":0,
			"byteLength":32,
			"byteOffset":6388,
			"target":34962
		},
		{
			"buffer":0,
			"byteLength":32,
			"byteOffset":6420,
			"target":34962
		},
		{
			"buffer":0,
			"byteLength":12,
			"byteOffset":6452,
			"target":34963
		},
		{
			"buffer":0,
			"byteLength":48,
			"byteOffset":6464,
			"target":34962
		},
		{
			"buffer":0,
			"byteLength":48,
			"byteOffset":6512,
			"target":34962
		},
		{
			"buffer":0,
			"byteLength":32,
			"byteOffset":6560,
			"target":34962
		},
		{
			"buffer":0,
			"byteLength":32,
			"byteOffset":6592,
			"target":34962
		},
		{
			"buffer":0,
			"byteLength":12,
			"byteOffset":6624,
			"target":34963
		},
		{
			"buffer":0,
			"byteLength":48,
			"byteOffset":6636,
			"target":34962
		},
		{
			"buffer":0,
			"byteLength":48,
			"byteOffset":6684,
			"target":34962
		},
		{
			"buffer":0,
			"byteLength":32,
			"byteOffset":6732,
			"target":34962
		},
		{
			"buffer":0,
			"byteLength":32,
			"byteOffset":6764,
			"target":34962
		},
		{
			"buffer":0,
			"byteLength":12,
			"byteOffset":6796,
			"target":34963
		},
		{
			"buffer":0,
			"byteLength":96,
			"byteOffset":6808,
			"target":34962
		},
		{
			"buffer":0,
			"byteLength":96,
			"byteOffset":6904,
			"target":34962
		},
		{
			"buffer":0,
			"byteLength":64,
			"byteOffset":7000,
			"target":34962
		},
		{
			"buffer":0,
			"byteLength":64,
			"byteOffset":7064,
			"target":34962
		},
		{
			"buffer":0,
			"byteLength":24,
			"byteOffset":7128,
			"target":34963
		},
		{
			"buffer":0,
			"byteLength":120,
			"byteOffset":7152,
			"target":34962
		},
		{
			"buffer":0,
			"byteLength":120,
			"byteOffset":7272,
			"target":34962
		},
		{
			"buffer":0,
			"byteLength":80,
			"byteOffset":7392,
			"target":34962
		},
		{
			"buffer":0,
			"byteLength":80,
			"byteOffset":7472,
			"target":34962
		},
		{
			"buffer":0,
			"byteLength":36,
			"byteOffset":7552,
			"target":34963
		},
		{
			"buffer":0,
			"byteLength":120,
			"byteOffset":7588,
			"target":34962
		},
		{
			"buffer":0,
			"byteLength":120,
			"byteOffset":7708,
			"target":34962
		},
		{
			"buffer":0,
			"byteLength":80,
			"byteOffset":7828,
			"target":34962
		},
		{
			"buffer":0,
			"byteLength":80,
			"byteOffset":7908,
			"target":34962
		},
		{
			"buffer":0,
			"byteLength":36,
			"byteOffset":7988,
			"target":34963
		},
		{
			"buffer":0,
			"byteLength":144,
			"byteOffset":8024,
			"target":34962
		},
		{
			"buffer":0,
			"byteLength":144,
			"byteOffset":8168,
			"target":34962
		},
		{
			"buffer":0,
			"byteLength":96,
			"byteOffset":8312,
			"target":34962
		},
		{
			"buffer":0,
			"byteLength":96,
			"byteOffset":8408,
			"target":34962
		},
		{
			"buffer":0,
			"byteLength":48,
			"byteOffset":8504,
			"target":34963
		},
		{
			"buffer":0,
			"byteLength":48,
			"byteOffset":8552,
			"target":34962
		},
		{
			"buffer":0,
			"byteLength":48,
			"byteOffset":8600,
			"target":34962
		},
		{
			"buffer":0,
			"byteLength":32,
			"byteOffset":8648,
			"target":34962
		},
		{
			"buffer":0,
			"byteLength":32,
			"byteOffset":8680,
			"target":34962
		},
		{
			"buffer":0,
			"byteLength":12,
			"byteOffset":8712,
			"target":34963
		},
		{
			"buffer":0,
			"byteLength":48,
			"byteOffset":8724,
			"target":34962
		},
		{
			"buffer":0,
			"byteLength":48,
			"byteOffset":8772,
			"target":34962
		},
		{
			"buffer":0,
			"byteLength":32,
			"byteOffset":8820,
			"target":34962
		},
		{
			"buffer":0,
			"byteLength":12,
			"byteOffset":8852,
			"target":34963
		}
	],
	"samplers":[
		{
			"magFilter":9729,
			"minFilter":9987
		}
	],
	"buffers":[
		{
			"byteLength":8864,
			"uri":"church.bin"
		}
	]
}
