{
    "asset" : {
        "generator" : "Khronos glTF Blender I/O v1.7.33",
        "version" : "2.0"
    },
    "scene" : 0,
    "scenes" : [
        {
            "name" : "Scene",
            "nodes" : [
                0
            ]
        }
    ],
    "nodes" : [
        {
            "mesh" : 0,
            "name" : "Maxis-3d3-mesh-63",
            "rotation" : [
                0.7071068286895752,
                0,
                0,
                0.7071067094802856
            ]
        }
    ],
    "materials" : [
        {
            "doubleSided" : true,
            "name" : "matcolour-48.001",
            "pbrMetallicRoughness" : {
                "baseColorFactor" : [
                    0.05882352963089943,
                    0.05882352963089943,
                    0.05882352963089943,
                    1
                ],
                "metallicFactor" : 0
            }
        },
        {
            "doubleSided" : true,
            "name" : "mat40-55.001",
            "pbrMetallicRoughness" : {
                "baseColorTexture" : {
                    "index" : 0
                },
                "metallicFactor" : 0
            }
        },
        {
            "doubleSided" : true,
            "name" : "mat40-52.001",
            "pbrMetallicRoughness" : {
                "baseColorTexture" : {
                    "index" : 1
                },
                "metallicFactor" : 0
            }
        },
        {
            "doubleSided" : true,
            "name" : "mat40-12",
            "pbrMetallicRoughness" : {
                "baseColorTexture" : {
                    "index" : 2
                },
                "metallicFactor" : 0
            }
        },
        {
            "doubleSided" : true,
            "name" : "mat40-15",
            "pbrMetallicRoughness" : {
                "baseColorTexture" : {
                    "index" : 3
                },
                "metallicFactor" : 0
            }
        },
        {
            "doubleSided" : true,
            "name" : "mat40-14",
            "pbrMetallicRoughness" : {
                "baseColorTexture" : {
                    "index" : 4
                },
                "metallicFactor" : 0
            }
        },
        {
            "doubleSided" : true,
            "name" : "mat40-13",
            "pbrMetallicRoughness" : {
                "baseColorTexture" : {
                    "index" : 5
                },
                "metallicFactor" : 0
            }
        }
    ],
    "meshes" : [
        {
            "name" : "Maxis-3d3-mesh-63",
            "primitives" : [
                {
                    "attributes" : {
                        "POSITION" : 0,
                        "NORMAL" : 1,
                        "TEXCOORD_0" : 2
                    },
                    "indices" : 3,
                    "material" : 0
                },
                {
                    "attributes" : {
                        "POSITION" : 4,
                        "NORMAL" : 5,
                        "TEXCOORD_0" : 6
                    },
                    "indices" : 7,
                    "material" : 1
                },
                {
                    "attributes" : {
                        "POSITION" : 8,
                        "NORMAL" : 9,
                        "TEXCOORD_0" : 10
                    },
                    "indices" : 11,
                    "material" : 2
                },
                {
                    "attributes" : {
                        "POSITION" : 12,
                        "NORMAL" : 13,
                        "TEXCOORD_0" : 14
                    },
                    "indices" : 15,
                    "material" : 3
                },
                {
                    "attributes" : {
                        "POSITION" : 16,
                        "NORMAL" : 17,
                        "TEXCOORD_0" : 18
                    },
                    "indices" : 19,
                    "material" : 4
                },
                {
                    "attributes" : {
                        "POSITION" : 20,
                        "NORMAL" : 21,
                        "TEXCOORD_0" : 22
                    },
                    "indices" : 23,
                    "material" : 5
                },
                {
                    "attributes" : {
                        "POSITION" : 24,
                        "NORMAL" : 25,
                        "TEXCOORD_0" : 26
                    },
                    "indices" : 27,
                    "material" : 6
                }
            ]
        }
    ],
    "textures" : [
        {
            "sampler" : 0,
            "source" : 0
        },
        {
            "sampler" : 0,
            "source" : 1
        },
        {
            "sampler" : 0,
            "source" : 2
        },
        {
            "sampler" : 0,
            "source" : 3
        },
        {
            "sampler" : 0,
            "source" : 4
        },
        {
            "sampler" : 0,
            "source" : 5
        }
    ],
    "images" : [
        {
            "mimeType" : "image/png",
            "name" : "tex40-55",
            "uri" : "../../Textures/tex40-55.png"
        },
        {
            "mimeType" : "image/png",
            "name" : "tex40-52",
            "uri" : "../../Textures/tex40-52.png"
        },
        {
            "mimeType" : "image/png",
            "name" : "tex40-12",
            "uri" : "../../Textures/tex40-12.png"
        },
        {
            "mimeType" : "image/png",
            "name" : "tex40-15",
            "uri" : "../../Textures/tex40-15.png"
        },
        {
            "mimeType" : "image/png",
            "name" : "tex40-14",
            "uri" : "../../Textures/tex40-14.png"
        },
        {
            "mimeType" : "image/png",
            "name" : "tex40-13",
            "uri" : "../../Textures/tex40-13.png"
        }
    ],
    "accessors" : [
        {
            "bufferView" : 0,
            "componentType" : 5126,
            "count" : 90,
            "max" : [
                28.5,
                29.5,
                -16.160606384277344
            ],
            "min" : [
                -28.5,
                -29.5,
                -23.13446807861328
            ],
            "type" : "VEC3"
        },
        {
            "bufferView" : 1,
            "componentType" : 5126,
            "count" : 90,
            "type" : "VEC3"
        },
        {
            "bufferView" : 2,
            "componentType" : 5126,
            "count" : 90,
            "type" : "VEC2"
        },
        {
            "bufferView" : 3,
            "componentType" : 5123,
            "count" : 102,
            "type" : "SCALAR"
        },
        {
            "bufferView" : 4,
            "componentType" : 5126,
            "count" : 23,
            "max" : [
                19.487754821777344,
                12.597400665283203,
                -16.160621643066406
            ],
            "min" : [
                -11.561351776123047,
                12.597396850585938,
                -23.13446807861328
            ],
            "type" : "VEC3"
        },
        {
            "bufferView" : 5,
            "componentType" : 5126,
            "count" : 23,
            "type" : "VEC3"
        },
        {
            "bufferView" : 6,
            "componentType" : 5126,
            "count" : 23,
            "type" : "VEC2"
        },
        {
            "bufferView" : 7,
            "componentType" : 5123,
            "count" : 24,
            "type" : "SCALAR"
        },
        {
            "bufferView" : 8,
            "componentType" : 5126,
            "count" : 21,
            "max" : [
                19.487754821777344,
                9.597400665283203,
                -16.160621643066406
            ],
            "min" : [
                -11.561351776123047,
                9.597396850585938,
                -23.13446807861328
            ],
            "type" : "VEC3"
        },
        {
            "bufferView" : 9,
            "componentType" : 5126,
            "count" : 21,
            "type" : "VEC3"
        },
        {
            "bufferView" : 10,
            "componentType" : 5126,
            "count" : 21,
            "type" : "VEC2"
        },
        {
            "bufferView" : 11,
            "componentType" : 5123,
            "count" : 24,
            "type" : "SCALAR"
        },
        {
            "bufferView" : 12,
            "componentType" : 5126,
            "count" : 12,
            "max" : [
                28.5,
                -29.49999237060547,
                1.1444091796875e-05
            ],
            "min" : [
                -28.5,
                -29.5,
                -23.089012145996094
            ],
            "type" : "VEC3"
        },
        {
            "bufferView" : 13,
            "componentType" : 5126,
            "count" : 12,
            "type" : "VEC3"
        },
        {
            "bufferView" : 14,
            "componentType" : 5126,
            "count" : 12,
            "type" : "VEC2"
        },
        {
            "bufferView" : 15,
            "componentType" : 5123,
            "count" : 12,
            "type" : "SCALAR"
        },
        {
            "bufferView" : 16,
            "componentType" : 5126,
            "count" : 18,
            "max" : [
                28.5,
                29.5,
                3.814697265625e-06
            ],
            "min" : [
                -28.5,
                -14.571990966796875,
                -23.08902359008789
            ],
            "type" : "VEC3"
        },
        {
            "bufferView" : 17,
            "componentType" : 5126,
            "count" : 18,
            "type" : "VEC3"
        },
        {
            "bufferView" : 18,
            "componentType" : 5126,
            "count" : 18,
            "type" : "VEC2"
        },
        {
            "bufferView" : 19,
            "componentType" : 5123,
            "count" : 24,
            "type" : "SCALAR"
        },
        {
            "bufferView" : 20,
            "componentType" : 5126,
            "count" : 20,
            "max" : [
                28.5,
                29.5,
                1.1444091796875e-05
            ],
            "min" : [
                -13.911991119384766,
                -29.5,
                -23.08902359008789
            ],
            "type" : "VEC3"
        },
        {
            "bufferView" : 21,
            "componentType" : 5126,
            "count" : 20,
            "type" : "VEC3"
        },
        {
            "bufferView" : 22,
            "componentType" : 5126,
            "count" : 20,
            "type" : "VEC2"
        },
        {
            "bufferView" : 23,
            "componentType" : 5123,
            "count" : 24,
            "type" : "SCALAR"
        },
        {
            "bufferView" : 24,
            "componentType" : 5126,
            "count" : 6,
            "max" : [
                -28.5,
                29.5,
                7.62939453125e-06
            ],
            "min" : [
                -28.5,
                -29.5,
                -23.08902359008789
            ],
            "type" : "VEC3"
        },
        {
            "bufferView" : 25,
            "componentType" : 5126,
            "count" : 6,
            "type" : "VEC3"
        },
        {
            "bufferView" : 26,
            "componentType" : 5126,
            "count" : 6,
            "type" : "VEC2"
        },
        {
            "bufferView" : 27,
            "componentType" : 5123,
            "count" : 12,
            "type" : "SCALAR"
        }
    ],
    "bufferViews" : [
        {
            "buffer" : 0,
            "byteLength" : 1080,
            "byteOffset" : 0
        },
        {
            "buffer" : 0,
            "byteLength" : 1080,
            "byteOffset" : 1080
        },
        {
            "buffer" : 0,
            "byteLength" : 720,
            "byteOffset" : 2160
        },
        {
            "buffer" : 0,
            "byteLength" : 204,
            "byteOffset" : 2880
        },
        {
            "buffer" : 0,
            "byteLength" : 276,
            "byteOffset" : 3084
        },
        {
            "buffer" : 0,
            "byteLength" : 276,
            "byteOffset" : 3360
        },
        {
            "buffer" : 0,
            "byteLength" : 184,
            "byteOffset" : 3636
        },
        {
            "buffer" : 0,
            "byteLength" : 48,
            "byteOffset" : 3820
        },
        {
            "buffer" : 0,
            "byteLength" : 252,
            "byteOffset" : 3868
        },
        {
            "buffer" : 0,
            "byteLength" : 252,
            "byteOffset" : 4120
        },
        {
            "buffer" : 0,
            "byteLength" : 168,
            "byteOffset" : 4372
        },
        {
            "buffer" : 0,
            "byteLength" : 48,
            "byteOffset" : 4540
        },
        {
            "buffer" : 0,
            "byteLength" : 144,
            "byteOffset" : 4588
        },
        {
            "buffer" : 0,
            "byteLength" : 144,
            "byteOffset" : 4732
        },
        {
            "buffer" : 0,
            "byteLength" : 96,
            "byteOffset" : 4876
        },
        {
            "buffer" : 0,
            "byteLength" : 24,
            "byteOffset" : 4972
        },
        {
            "buffer" : 0,
            "byteLength" : 216,
            "byteOffset" : 4996
        },
        {
            "buffer" : 0,
            "byteLength" : 216,
            "byteOffset" : 5212
        },
        {
            "buffer" : 0,
            "byteLength" : 144,
            "byteOffset" : 5428
        },
        {
            "buffer" : 0,
            "byteLength" : 48,
            "byteOffset" : 5572
        },
        {
            "buffer" : 0,
            "byteLength" : 240,
            "byteOffset" : 5620
        },
        {
            "buffer" : 0,
            "byteLength" : 240,
            "byteOffset" : 5860
        },
        {
            "buffer" : 0,
            "byteLength" : 160,
            "byteOffset" : 6100
        },
        {
            "buffer" : 0,
            "byteLength" : 48,
            "byteOffset" : 6260
        },
        {
            "buffer" : 0,
            "byteLength" : 72,
            "byteOffset" : 6308
        },
        {
            "buffer" : 0,
            "byteLength" : 72,
            "byteOffset" : 6380
        },
        {
            "buffer" : 0,
            "byteLength" : 48,
            "byteOffset" : 6452
        },
        {
            "buffer" : 0,
            "byteLength" : 24,
            "byteOffset" : 6500
        }
    ],
    "samplers" : [
        {
            "magFilter" : 9729,
            "minFilter" : 9987
        }
    ],
    "buffers" : [
        {
            "byteLength" : 6524,
            "uri" : "college.bin"
        }
    ]
}
