{
	"asset":{
		"generator":"Khronos glTF Blender I/O v4.4.55",
		"version":"2.0"
	},
	"scene":0,
	"scenes":[
		{
			"name":"Scene",
			"nodes":[
				0,
				1
			]
		}
	],
	"nodes":[
		{
			"mesh":0,
			"name":"Maxis-3d3-mesh-63",
			"rotation":[
				0.70710688829422,
				0,
				0,
				0.7071066498756409
			]
		},
		{
			"extras":{
				"gd_node":"Decal",
				"lower_fade":9,
				"upper_fade":10
			},
			"mesh":1,
			"name":"Ground_AO",
			"scale":[
				58,
				1,
				60.000003814697266
			],
			"translation":[
				0,
				-2.038100501522422e-05,
				3.814697265625e-06
			]
		}
	],
	"materials":[
		{
			"name":"matcolour-48.001",
			"occlusionTexture":{
				"index":0,
				"texCoord":1
			},
			"pbrMetallicRoughness":{
				"baseColorFactor":[
					0.05882352963089943,
					0.05882352963089943,
					0.05882352963089943,
					1
				],
				"metallicFactor":0
			}
		},
		{
			"name":"mat40-55.001",
			"occlusionTexture":{
				"index":1,
				"texCoord":1
			},
			"pbrMetallicRoughness":{
				"baseColorTexture":{
					"index":2
				},
				"metallicFactor":0
			}
		},
		{
			"name":"mat40-52.001",
			"occlusionTexture":{
				"index":3,
				"texCoord":1
			},
			"pbrMetallicRoughness":{
				"baseColorTexture":{
					"index":4
				},
				"metallicFactor":0
			}
		},
		{
			"name":"mat40-12",
			"occlusionTexture":{
				"index":5,
				"texCoord":1
			},
			"pbrMetallicRoughness":{
				"baseColorTexture":{
					"index":6
				},
				"metallicFactor":0
			}
		},
		{
			"name":"mat40-15",
			"occlusionTexture":{
				"index":7,
				"texCoord":1
			},
			"pbrMetallicRoughness":{
				"baseColorTexture":{
					"index":8
				},
				"metallicFactor":0
			}
		},
		{
			"name":"mat40-14",
			"occlusionTexture":{
				"index":9,
				"texCoord":1
			},
			"pbrMetallicRoughness":{
				"baseColorTexture":{
					"index":10
				},
				"metallicFactor":0
			}
		},
		{
			"name":"mat40-13",
			"occlusionTexture":{
				"index":11,
				"texCoord":1
			},
			"pbrMetallicRoughness":{
				"baseColorTexture":{
					"index":12
				},
				"metallicFactor":0
			}
		},
		{
			"name":"Ground_AO.001",
			"occlusionTexture":{
				"index":13
			},
			"pbrMetallicRoughness":{
				"baseColorFactor":[
					0.800000011920929,
					0.800000011920929,
					0.800000011920929,
					1
				],
				"metallicFactor":0,
				"roughnessFactor":0.5
			}
		}
	],
	"meshes":[
		{
			"name":"Maxis-3d3-mesh-63",
			"primitives":[
				{
					"attributes":{
						"POSITION":0,
						"NORMAL":1,
						"TEXCOORD_0":2,
						"TEXCOORD_1":3
					},
					"indices":4,
					"material":0
				},
				{
					"attributes":{
						"POSITION":5,
						"NORMAL":6,
						"TEXCOORD_0":7,
						"TEXCOORD_1":8
					},
					"indices":9,
					"material":1
				},
				{
					"attributes":{
						"POSITION":10,
						"NORMAL":11,
						"TEXCOORD_0":12,
						"TEXCOORD_1":13
					},
					"indices":14,
					"material":2
				},
				{
					"attributes":{
						"POSITION":15,
						"NORMAL":16,
						"TEXCOORD_0":17,
						"TEXCOORD_1":18
					},
					"indices":19,
					"material":3
				},
				{
					"attributes":{
						"POSITION":20,
						"NORMAL":21,
						"TEXCOORD_0":22,
						"TEXCOORD_1":23
					},
					"indices":24,
					"material":4
				},
				{
					"attributes":{
						"POSITION":25,
						"NORMAL":26,
						"TEXCOORD_0":27,
						"TEXCOORD_1":28
					},
					"indices":29,
					"material":5
				},
				{
					"attributes":{
						"POSITION":30,
						"NORMAL":31,
						"TEXCOORD_0":32,
						"TEXCOORD_1":33
					},
					"indices":34,
					"material":6
				}
			]
		},
		{
			"name":"Plane.001",
			"primitives":[
				{
					"attributes":{
						"POSITION":35,
						"NORMAL":36,
						"TEXCOORD_0":37
					},
					"indices":38,
					"material":7
				}
			]
		}
	],
	"textures":[
		{
			"sampler":0,
			"source":0
		},
		{
			"sampler":0,
			"source":0
		},
		{
			"sampler":0,
			"source":1
		},
		{
			"sampler":0,
			"source":0
		},
		{
			"sampler":0,
			"source":2
		},
		{
			"sampler":0,
			"source":0
		},
		{
			"sampler":0,
			"source":3
		},
		{
			"sampler":0,
			"source":0
		},
		{
			"sampler":0,
			"source":4
		},
		{
			"sampler":0,
			"source":0
		},
		{
			"sampler":0,
			"source":5
		},
		{
			"sampler":0,
			"source":0
		},
		{
			"sampler":0,
			"source":6
		},
		{
			"sampler":0,
			"source":7
		}
	],
	"images":[
		{
			"mimeType":"image/png",
			"name":"college.png",
			"uri":"../../Textures/ambient_occlusion/Buildings/college.png"
		},
		{
			"mimeType":"image/png",
			"name":"tex40-55",
			"uri":"../../Textures/tex40-55.png"
		},
		{
			"mimeType":"image/png",
			"name":"tex40-52",
			"uri":"../../Textures/tex40-52.png"
		},
		{
			"mimeType":"image/png",
			"name":"tex40-12",
			"uri":"../../Textures/tex40-12.png"
		},
		{
			"mimeType":"image/png",
			"name":"tex40-15",
			"uri":"../../Textures/tex40-15.png"
		},
		{
			"mimeType":"image/png",
			"name":"tex40-14",
			"uri":"../../Textures/tex40-14.png"
		},
		{
			"mimeType":"image/png",
			"name":"tex40-13",
			"uri":"../../Textures/tex40-13.png"
		},
		{
			"mimeType":"image/png",
			"name":"college_ground.png",
			"uri":"../../Textures/ambient_occlusion/Buildings/college_ground.png"
		}
	],
	"accessors":[
		{
			"bufferView":0,
			"componentType":5126,
			"count":48,
			"max":[
				28.5,
				29.5,
				-16.160606384277344
			],
			"min":[
				-28.5,
				-29.5,
				-23.13446807861328
			],
			"type":"VEC3"
		},
		{
			"bufferView":1,
			"componentType":5126,
			"count":48,
			"type":"VEC3"
		},
		{
			"bufferView":2,
			"componentType":5126,
			"count":48,
			"type":"VEC2"
		},
		{
			"bufferView":3,
			"componentType":5126,
			"count":48,
			"type":"VEC2"
		},
		{
			"bufferView":4,
			"componentType":5123,
			"count":102,
			"type":"SCALAR"
		},
		{
			"bufferView":5,
			"componentType":5126,
			"count":13,
			"max":[
				19.487754821777344,
				12.597400665283203,
				-16.160621643066406
			],
			"min":[
				-11.561351776123047,
				12.597396850585938,
				-23.13446807861328
			],
			"type":"VEC3"
		},
		{
			"bufferView":6,
			"componentType":5126,
			"count":13,
			"type":"VEC3"
		},
		{
			"bufferView":7,
			"componentType":5126,
			"count":13,
			"type":"VEC2"
		},
		{
			"bufferView":8,
			"componentType":5126,
			"count":13,
			"type":"VEC2"
		},
		{
			"bufferView":9,
			"componentType":5123,
			"count":24,
			"type":"SCALAR"
		},
		{
			"bufferView":10,
			"componentType":5126,
			"count":10,
			"max":[
				19.487754821777344,
				9.597400665283203,
				-16.160621643066406
			],
			"min":[
				-11.561351776123047,
				9.597396850585938,
				-23.13446807861328
			],
			"type":"VEC3"
		},
		{
			"bufferView":11,
			"componentType":5126,
			"count":10,
			"type":"VEC3"
		},
		{
			"bufferView":12,
			"componentType":5126,
			"count":10,
			"type":"VEC2"
		},
		{
			"bufferView":13,
			"componentType":5126,
			"count":10,
			"type":"VEC2"
		},
		{
			"bufferView":14,
			"componentType":5123,
			"count":24,
			"type":"SCALAR"
		},
		{
			"bufferView":15,
			"componentType":5126,
			"count":6,
			"max":[
				28.5,
				-29.49999237060547,
				1.1444091796875e-05
			],
			"min":[
				-28.5,
				-29.5,
				-23.089012145996094
			],
			"type":"VEC3"
		},
		{
			"bufferView":16,
			"componentType":5126,
			"count":6,
			"type":"VEC3"
		},
		{
			"bufferView":17,
			"componentType":5126,
			"count":6,
			"type":"VEC2"
		},
		{
			"bufferView":18,
			"componentType":5126,
			"count":6,
			"type":"VEC2"
		},
		{
			"bufferView":19,
			"componentType":5123,
			"count":12,
			"type":"SCALAR"
		},
		{
			"bufferView":20,
			"componentType":5126,
			"count":16,
			"max":[
				28.5,
				29.5,
				3.814697265625e-06
			],
			"min":[
				-28.5,
				-14.571990966796875,
				-23.08902359008789
			],
			"type":"VEC3"
		},
		{
			"bufferView":21,
			"componentType":5126,
			"count":16,
			"type":"VEC3"
		},
		{
			"bufferView":22,
			"componentType":5126,
			"count":16,
			"type":"VEC2"
		},
		{
			"bufferView":23,
			"componentType":5126,
			"count":16,
			"type":"VEC2"
		},
		{
			"bufferView":24,
			"componentType":5123,
			"count":24,
			"type":"SCALAR"
		},
		{
			"bufferView":25,
			"componentType":5126,
			"count":16,
			"max":[
				28.5,
				29.5,
				1.1444091796875e-05
			],
			"min":[
				-13.911991119384766,
				-29.5,
				-23.08902359008789
			],
			"type":"VEC3"
		},
		{
			"bufferView":26,
			"componentType":5126,
			"count":16,
			"type":"VEC3"
		},
		{
			"bufferView":27,
			"componentType":5126,
			"count":16,
			"type":"VEC2"
		},
		{
			"bufferView":28,
			"componentType":5126,
			"count":16,
			"type":"VEC2"
		},
		{
			"bufferView":29,
			"componentType":5123,
			"count":24,
			"type":"SCALAR"
		},
		{
			"bufferView":30,
			"componentType":5126,
			"count":6,
			"max":[
				-28.5,
				29.5,
				7.62939453125e-06
			],
			"min":[
				-28.5,
				-29.5,
				-23.08902359008789
			],
			"type":"VEC3"
		},
		{
			"bufferView":31,
			"componentType":5126,
			"count":6,
			"type":"VEC3"
		},
		{
			"bufferView":32,
			"componentType":5126,
			"count":6,
			"type":"VEC2"
		},
		{
			"bufferView":33,
			"componentType":5126,
			"count":6,
			"type":"VEC2"
		},
		{
			"bufferView":34,
			"componentType":5123,
			"count":12,
			"type":"SCALAR"
		},
		{
			"bufferView":35,
			"componentType":5126,
			"count":4,
			"max":[
				0.5,
				0,
				0.5
			],
			"min":[
				-0.5,
				0,
				-0.5
			],
			"type":"VEC3"
		},
		{
			"bufferView":36,
			"componentType":5126,
			"count":4,
			"type":"VEC3"
		},
		{
			"bufferView":37,
			"componentType":5126,
			"count":4,
			"type":"VEC2"
		},
		{
			"bufferView":38,
			"componentType":5123,
			"count":6,
			"type":"SCALAR"
		}
	],
	"bufferViews":[
		{
			"buffer":0,
			"byteLength":576,
			"byteOffset":0,
			"target":34962
		},
		{
			"buffer":0,
			"byteLength":576,
			"byteOffset":576,
			"target":34962
		},
		{
			"buffer":0,
			"byteLength":384,
			"byteOffset":1152,
			"target":34962
		},
		{
			"buffer":0,
			"byteLength":384,
			"byteOffset":1536,
			"target":34962
		},
		{
			"buffer":0,
			"byteLength":204,
			"byteOffset":1920,
			"target":34963
		},
		{
			"buffer":0,
			"byteLength":156,
			"byteOffset":2124,
			"target":34962
		},
		{
			"buffer":0,
			"byteLength":156,
			"byteOffset":2280,
			"target":34962
		},
		{
			"buffer":0,
			"byteLength":104,
			"byteOffset":2436,
			"target":34962
		},
		{
			"buffer":0,
			"byteLength":104,
			"byteOffset":2540,
			"target":34962
		},
		{
			"buffer":0,
			"byteLength":48,
			"byteOffset":2644,
			"target":34963
		},
		{
			"buffer":0,
			"byteLength":120,
			"byteOffset":2692,
			"target":34962
		},
		{
			"buffer":0,
			"byteLength":120,
			"byteOffset":2812,
			"target":34962
		},
		{
			"buffer":0,
			"byteLength":80,
			"byteOffset":2932,
			"target":34962
		},
		{
			"buffer":0,
			"byteLength":80,
			"byteOffset":3012,
			"target":34962
		},
		{
			"buffer":0,
			"byteLength":48,
			"byteOffset":3092,
			"target":34963
		},
		{
			"buffer":0,
			"byteLength":72,
			"byteOffset":3140,
			"target":34962
		},
		{
			"buffer":0,
			"byteLength":72,
			"byteOffset":3212,
			"target":34962
		},
		{
			"buffer":0,
			"byteLength":48,
			"byteOffset":3284,
			"target":34962
		},
		{
			"buffer":0,
			"byteLength":48,
			"byteOffset":3332,
			"target":34962
		},
		{
			"buffer":0,
			"byteLength":24,
			"byteOffset":3380,
			"target":34963
		},
		{
			"buffer":0,
			"byteLength":192,
			"byteOffset":3404,
			"target":34962
		},
		{
			"buffer":0,
			"byteLength":192,
			"byteOffset":3596,
			"target":34962
		},
		{
			"buffer":0,
			"byteLength":128,
			"byteOffset":3788,
			"target":34962
		},
		{
			"buffer":0,
			"byteLength":128,
			"byteOffset":3916,
			"target":34962
		},
		{
			"buffer":0,
			"byteLength":48,
			"byteOffset":4044,
			"target":34963
		},
		{
			"buffer":0,
			"byteLength":192,
			"byteOffset":4092,
			"target":34962
		},
		{
			"buffer":0,
			"byteLength":192,
			"byteOffset":4284,
			"target":34962
		},
		{
			"buffer":0,
			"byteLength":128,
			"byteOffset":4476,
			"target":34962
		},
		{
			"buffer":0,
			"byteLength":128,
			"byteOffset":4604,
			"target":34962
		},
		{
			"buffer":0,
			"byteLength":48,
			"byteOffset":4732,
			"target":34963
		},
		{
			"buffer":0,
			"byteLength":72,
			"byteOffset":4780,
			"target":34962
		},
		{
			"buffer":0,
			"byteLength":72,
			"byteOffset":4852,
			"target":34962
		},
		{
			"buffer":0,
			"byteLength":48,
			"byteOffset":4924,
			"target":34962
		},
		{
			"buffer":0,
			"byteLength":48,
			"byteOffset":4972,
			"target":34962
		},
		{
			"buffer":0,
			"byteLength":24,
			"byteOffset":5020,
			"target":34963
		},
		{
			"buffer":0,
			"byteLength":48,
			"byteOffset":5044,
			"target":34962
		},
		{
			"buffer":0,
			"byteLength":48,
			"byteOffset":5092,
			"target":34962
		},
		{
			"buffer":0,
			"byteLength":32,
			"byteOffset":5140,
			"target":34962
		},
		{
			"buffer":0,
			"byteLength":12,
			"byteOffset":5172,
			"target":34963
		}
	],
	"samplers":[
		{
			"magFilter":9729,
			"minFilter":9987
		}
	],
	"buffers":[
		{
			"byteLength":5184,
			"uri":"college.bin"
		}
	]
}
