{
	"asset":{
		"generator":"Khronos glTF Blender I/O v4.4.55",
		"version":"2.0"
	},
	"scene":0,
	"scenes":[
		{
			"name":"Scene",
			"nodes":[
				0,
				1
			]
		}
	],
	"nodes":[
		{
			"mesh":0,
			"name":"Maxis-3d3-mesh-23",
			"rotation":[
				0.70710688829422,
				0,
				0,
				0.7071066498756409
			]
		},
		{
			"extras":{
				"gd_node":"Decal",
				"lower_fade":9,
				"upper_fade":10
			},
			"mesh":1,
			"name":"Ground_AO",
			"scale":[
				10.887706756591797,
				1,
				10.081512451171875
			],
			"translation":[
				0.6039867401123047,
				0,
				0.20089030265808105
			]
		}
	],
	"materials":[
		{
			"name":"mat39-31",
			"occlusionTexture":{
				"index":0,
				"texCoord":1
			},
			"pbrMetallicRoughness":{
				"baseColorTexture":{
					"index":1
				},
				"metallicFactor":0
			}
		},
		{
			"name":"matcolour-128",
			"occlusionTexture":{
				"index":2,
				"texCoord":1
			},
			"pbrMetallicRoughness":{
				"baseColorFactor":[
					0.12156862765550613,
					0.08235294371843338,
					0.062745101749897,
					1
				],
				"metallicFactor":0
			}
		},
		{
			"name":"matcolour-48.004",
			"occlusionTexture":{
				"index":3,
				"texCoord":1
			},
			"pbrMetallicRoughness":{
				"baseColorFactor":[
					0.05882352963089943,
					0.05882352963089943,
					0.05882352963089943,
					1
				],
				"metallicFactor":0
			}
		},
		{
			"name":"matcolour-16",
			"occlusionTexture":{
				"index":4,
				"texCoord":1
			},
			"pbrMetallicRoughness":{
				"baseColorFactor":[
					0.5607843399047852,
					0.062745101749897,
					0.019607843831181526,
					1
				],
				"metallicFactor":0
			}
		},
		{
			"name":"matcolour-255",
			"occlusionTexture":{
				"index":5,
				"texCoord":1
			},
			"pbrMetallicRoughness":{
				"metallicFactor":0
			}
		},
		{
			"name":"matcolour-112",
			"occlusionTexture":{
				"index":6,
				"texCoord":1
			},
			"pbrMetallicRoughness":{
				"baseColorFactor":[
					1,
					1,
					0,
					1
				],
				"metallicFactor":0
			}
		},
		{
			"name":"mat2-43.001",
			"occlusionTexture":{
				"index":7,
				"texCoord":1
			},
			"pbrMetallicRoughness":{
				"baseColorTexture":{
					"index":8
				},
				"metallicFactor":0
			}
		},
		{
			"name":"mat2-0",
			"occlusionTexture":{
				"index":9,
				"texCoord":1
			},
			"pbrMetallicRoughness":{
				"baseColorTexture":{
					"index":10
				},
				"metallicFactor":0
			}
		},
		{
			"name":"Ground_AO.001",
			"occlusionTexture":{
				"index":11
			},
			"pbrMetallicRoughness":{
				"baseColorFactor":[
					0.800000011920929,
					0.800000011920929,
					0.800000011920929,
					1
				],
				"metallicFactor":0,
				"roughnessFactor":0.5
			}
		}
	],
	"meshes":[
		{
			"name":"Maxis-3d3-mesh-23",
			"primitives":[
				{
					"attributes":{
						"POSITION":0,
						"NORMAL":1,
						"TEXCOORD_0":2,
						"TEXCOORD_1":3
					},
					"indices":4,
					"material":0
				},
				{
					"attributes":{
						"POSITION":5,
						"NORMAL":6,
						"TEXCOORD_0":7,
						"TEXCOORD_1":8
					},
					"indices":9,
					"material":1
				},
				{
					"attributes":{
						"POSITION":10,
						"NORMAL":11,
						"TEXCOORD_0":12,
						"TEXCOORD_1":13
					},
					"indices":14,
					"material":2
				},
				{
					"attributes":{
						"POSITION":15,
						"NORMAL":16,
						"TEXCOORD_0":17,
						"TEXCOORD_1":18
					},
					"indices":19,
					"material":3
				},
				{
					"attributes":{
						"POSITION":20,
						"NORMAL":21,
						"TEXCOORD_0":22,
						"TEXCOORD_1":23
					},
					"indices":24,
					"material":4
				},
				{
					"attributes":{
						"POSITION":25,
						"NORMAL":26,
						"TEXCOORD_0":27,
						"TEXCOORD_1":28
					},
					"indices":29,
					"material":5
				},
				{
					"attributes":{
						"POSITION":30,
						"NORMAL":31,
						"TEXCOORD_0":32,
						"TEXCOORD_1":33
					},
					"indices":34,
					"material":6
				},
				{
					"attributes":{
						"POSITION":35,
						"NORMAL":36,
						"TEXCOORD_0":37,
						"TEXCOORD_1":38
					},
					"indices":4,
					"material":7
				}
			]
		},
		{
			"name":"Plane.001",
			"primitives":[
				{
					"attributes":{
						"POSITION":39,
						"NORMAL":40,
						"TEXCOORD_0":41
					},
					"indices":42,
					"material":8
				}
			]
		}
	],
	"textures":[
		{
			"sampler":0,
			"source":0
		},
		{
			"sampler":0,
			"source":1
		},
		{
			"sampler":0,
			"source":0
		},
		{
			"sampler":0,
			"source":0
		},
		{
			"sampler":0,
			"source":0
		},
		{
			"sampler":0,
			"source":0
		},
		{
			"sampler":0,
			"source":0
		},
		{
			"sampler":0,
			"source":0
		},
		{
			"sampler":0,
			"source":2
		},
		{
			"sampler":0,
			"source":0
		},
		{
			"sampler":0,
			"source":3
		},
		{
			"sampler":0,
			"source":4
		}
	],
	"images":[
		{
			"mimeType":"image/png",
			"name":"convenience_store.png",
			"uri":"../../Textures/ambient_occlusion/Buildings/convenience_store.png"
		},
		{
			"mimeType":"image/png",
			"name":"tex39-31",
			"uri":"../../Textures/tex39-31.png"
		},
		{
			"mimeType":"image/png",
			"name":"tex2-43",
			"uri":"../../Textures/tex2-43.png"
		},
		{
			"mimeType":"image/png",
			"name":"tex2-0",
			"uri":"../../Textures/tex2-0.png"
		},
		{
			"mimeType":"image/png",
			"name":"convenience_store_ground.png",
			"uri":"../../Textures/ambient_occlusion/Buildings/convenience_store_ground.png"
		}
	],
	"accessors":[
		{
			"bufferView":0,
			"componentType":5126,
			"count":8,
			"max":[
				1.0676040649414062,
				0.9468002319335938,
				-1.2154312133789062
			],
			"min":[
				-2.758941650390625,
				0.9468002319335938,
				-2.5009117126464844
			],
			"type":"VEC3"
		},
		{
			"bufferView":1,
			"componentType":5126,
			"count":8,
			"type":"VEC3"
		},
		{
			"bufferView":2,
			"componentType":5126,
			"count":8,
			"type":"VEC2"
		},
		{
			"bufferView":3,
			"componentType":5126,
			"count":8,
			"type":"VEC2"
		},
		{
			"bufferView":4,
			"componentType":5123,
			"count":12,
			"type":"SCALAR"
		},
		{
			"bufferView":5,
			"componentType":5126,
			"count":16,
			"max":[
				4.339866638183594,
				0.8345909118652344,
				0
			],
			"min":[
				-4.006031036376953,
				-4.006031036376953,
				-3.195423126220703
			],
			"type":"VEC3"
		},
		{
			"bufferView":6,
			"componentType":5126,
			"count":16,
			"type":"VEC3"
		},
		{
			"bufferView":7,
			"componentType":5126,
			"count":16,
			"type":"VEC2"
		},
		{
			"bufferView":8,
			"componentType":5126,
			"count":16,
			"type":"VEC2"
		},
		{
			"bufferView":9,
			"componentType":5123,
			"count":24,
			"type":"SCALAR"
		},
		{
			"bufferView":10,
			"componentType":5126,
			"count":84,
			"max":[
				4.673702239990234,
				4.595024108886719,
				0
			],
			"min":[
				-4.339866638183594,
				-4.339866638183594,
				-5.028949737548828
			],
			"type":"VEC3"
		},
		{
			"bufferView":11,
			"componentType":5126,
			"count":84,
			"type":"VEC3"
		},
		{
			"bufferView":12,
			"componentType":5126,
			"count":84,
			"type":"VEC2"
		},
		{
			"bufferView":13,
			"componentType":5126,
			"count":84,
			"type":"VEC2"
		},
		{
			"bufferView":14,
			"componentType":5123,
			"count":138,
			"type":"SCALAR"
		},
		{
			"bufferView":15,
			"componentType":5126,
			"count":12,
			"max":[
				5.547840118408203,
				4.673702239990234,
				-3.530193328857422
			],
			"min":[
				3.3383560180664062,
				4.339862823486328,
				-4.86553955078125
			],
			"type":"VEC3"
		},
		{
			"bufferView":16,
			"componentType":5126,
			"count":12,
			"type":"VEC3"
		},
		{
			"bufferView":17,
			"componentType":5126,
			"count":12,
			"type":"VEC2"
		},
		{
			"bufferView":18,
			"componentType":5126,
			"count":12,
			"type":"VEC2"
		},
		{
			"bufferView":19,
			"componentType":5123,
			"count":18,
			"type":"SCALAR"
		},
		{
			"bufferView":20,
			"componentType":5126,
			"count":16,
			"max":[
				5.547840118408203,
				4.673702239990234,
				-3.530193328857422
			],
			"min":[
				3.3383560180664062,
				4.339862823486328,
				-4.86553955078125
			],
			"type":"VEC3"
		},
		{
			"bufferView":21,
			"componentType":5126,
			"count":16,
			"type":"VEC3"
		},
		{
			"bufferView":22,
			"componentType":5126,
			"count":16,
			"type":"VEC2"
		},
		{
			"bufferView":23,
			"componentType":5126,
			"count":16,
			"type":"VEC2"
		},
		{
			"bufferView":24,
			"componentType":5123,
			"count":24,
			"type":"SCALAR"
		},
		{
			"bufferView":25,
			"componentType":5126,
			"count":8,
			"max":[
				5.547840118408203,
				4.673702239990234,
				-3.530193328857422
			],
			"min":[
				3.3383560180664062,
				4.339862823486328,
				-4.86553955078125
			],
			"type":"VEC3"
		},
		{
			"bufferView":26,
			"componentType":5126,
			"count":8,
			"type":"VEC3"
		},
		{
			"bufferView":27,
			"componentType":5126,
			"count":8,
			"type":"VEC2"
		},
		{
			"bufferView":28,
			"componentType":5126,
			"count":8,
			"type":"VEC2"
		},
		{
			"bufferView":29,
			"componentType":5123,
			"count":12,
			"type":"SCALAR"
		},
		{
			"bufferView":30,
			"componentType":5126,
			"count":4,
			"max":[
				3.3229713439941406,
				0.9468040466308594,
				-0.004726409912109375
			],
			"min":[
				2.068683624267578,
				0.9468002319335938,
				-2.5954818725585938
			],
			"type":"VEC3"
		},
		{
			"bufferView":31,
			"componentType":5126,
			"count":4,
			"type":"VEC3"
		},
		{
			"bufferView":32,
			"componentType":5126,
			"count":4,
			"type":"VEC2"
		},
		{
			"bufferView":33,
			"componentType":5126,
			"count":4,
			"type":"VEC2"
		},
		{
			"bufferView":34,
			"componentType":5123,
			"count":6,
			"type":"SCALAR"
		},
		{
			"bufferView":35,
			"componentType":5126,
			"count":8,
			"max":[
				5.106468200683594,
				4.741645812988281,
				-3.6543006896972656
			],
			"min":[
				4.023654937744141,
				4.246685028076172,
				-4.737110137939453
			],
			"type":"VEC3"
		},
		{
			"bufferView":36,
			"componentType":5126,
			"count":8,
			"type":"VEC3"
		},
		{
			"bufferView":37,
			"componentType":5126,
			"count":8,
			"type":"VEC2"
		},
		{
			"bufferView":38,
			"componentType":5126,
			"count":8,
			"type":"VEC2"
		},
		{
			"bufferView":39,
			"componentType":5126,
			"count":4,
			"max":[
				0.5,
				0,
				0.5
			],
			"min":[
				-0.5,
				0,
				-0.5
			],
			"type":"VEC3"
		},
		{
			"bufferView":40,
			"componentType":5126,
			"count":4,
			"type":"VEC3"
		},
		{
			"bufferView":41,
			"componentType":5126,
			"count":4,
			"type":"VEC2"
		},
		{
			"bufferView":42,
			"componentType":5123,
			"count":6,
			"type":"SCALAR"
		}
	],
	"bufferViews":[
		{
			"buffer":0,
			"byteLength":96,
			"byteOffset":0,
			"target":34962
		},
		{
			"buffer":0,
			"byteLength":96,
			"byteOffset":96,
			"target":34962
		},
		{
			"buffer":0,
			"byteLength":64,
			"byteOffset":192,
			"target":34962
		},
		{
			"buffer":0,
			"byteLength":64,
			"byteOffset":256,
			"target":34962
		},
		{
			"buffer":0,
			"byteLength":24,
			"byteOffset":320,
			"target":34963
		},
		{
			"buffer":0,
			"byteLength":192,
			"byteOffset":344,
			"target":34962
		},
		{
			"buffer":0,
			"byteLength":192,
			"byteOffset":536,
			"target":34962
		},
		{
			"buffer":0,
			"byteLength":128,
			"byteOffset":728,
			"target":34962
		},
		{
			"buffer":0,
			"byteLength":128,
			"byteOffset":856,
			"target":34962
		},
		{
			"buffer":0,
			"byteLength":48,
			"byteOffset":984,
			"target":34963
		},
		{
			"buffer":0,
			"byteLength":1008,
			"byteOffset":1032,
			"target":34962
		},
		{
			"buffer":0,
			"byteLength":1008,
			"byteOffset":2040,
			"target":34962
		},
		{
			"buffer":0,
			"byteLength":672,
			"byteOffset":3048,
			"target":34962
		},
		{
			"buffer":0,
			"byteLength":672,
			"byteOffset":3720,
			"target":34962
		},
		{
			"buffer":0,
			"byteLength":276,
			"byteOffset":4392,
			"target":34963
		},
		{
			"buffer":0,
			"byteLength":144,
			"byteOffset":4668,
			"target":34962
		},
		{
			"buffer":0,
			"byteLength":144,
			"byteOffset":4812,
			"target":34962
		},
		{
			"buffer":0,
			"byteLength":96,
			"byteOffset":4956,
			"target":34962
		},
		{
			"buffer":0,
			"byteLength":96,
			"byteOffset":5052,
			"target":34962
		},
		{
			"buffer":0,
			"byteLength":36,
			"byteOffset":5148,
			"target":34963
		},
		{
			"buffer":0,
			"byteLength":192,
			"byteOffset":5184,
			"target":34962
		},
		{
			"buffer":0,
			"byteLength":192,
			"byteOffset":5376,
			"target":34962
		},
		{
			"buffer":0,
			"byteLength":128,
			"byteOffset":5568,
			"target":34962
		},
		{
			"buffer":0,
			"byteLength":128,
			"byteOffset":5696,
			"target":34962
		},
		{
			"buffer":0,
			"byteLength":48,
			"byteOffset":5824,
			"target":34963
		},
		{
			"buffer":0,
			"byteLength":96,
			"byteOffset":5872,
			"target":34962
		},
		{
			"buffer":0,
			"byteLength":96,
			"byteOffset":5968,
			"target":34962
		},
		{
			"buffer":0,
			"byteLength":64,
			"byteOffset":6064,
			"target":34962
		},
		{
			"buffer":0,
			"byteLength":64,
			"byteOffset":6128,
			"target":34962
		},
		{
			"buffer":0,
			"byteLength":24,
			"byteOffset":6192,
			"target":34963
		},
		{
			"buffer":0,
			"byteLength":48,
			"byteOffset":6216,
			"target":34962
		},
		{
			"buffer":0,
			"byteLength":48,
			"byteOffset":6264,
			"target":34962
		},
		{
			"buffer":0,
			"byteLength":32,
			"byteOffset":6312,
			"target":34962
		},
		{
			"buffer":0,
			"byteLength":32,
			"byteOffset":6344,
			"target":34962
		},
		{
			"buffer":0,
			"byteLength":12,
			"byteOffset":6376,
			"target":34963
		},
		{
			"buffer":0,
			"byteLength":96,
			"byteOffset":6388,
			"target":34962
		},
		{
			"buffer":0,
			"byteLength":96,
			"byteOffset":6484,
			"target":34962
		},
		{
			"buffer":0,
			"byteLength":64,
			"byteOffset":6580,
			"target":34962
		},
		{
			"buffer":0,
			"byteLength":64,
			"byteOffset":6644,
			"target":34962
		},
		{
			"buffer":0,
			"byteLength":48,
			"byteOffset":6708,
			"target":34962
		},
		{
			"buffer":0,
			"byteLength":48,
			"byteOffset":6756,
			"target":34962
		},
		{
			"buffer":0,
			"byteLength":32,
			"byteOffset":6804,
			"target":34962
		},
		{
			"buffer":0,
			"byteLength":12,
			"byteOffset":6836,
			"target":34963
		}
	],
	"samplers":[
		{
			"magFilter":9729,
			"minFilter":9987
		}
	],
	"buffers":[
		{
			"byteLength":6848,
			"uri":"convenience_store.bin"
		}
	]
}
