{
	"asset":{
		"generator":"Khronos glTF Blender I/O v4.4.55",
		"version":"2.0"
	},
	"scene":0,
	"scenes":[
		{
			"name":"Scene",
			"nodes":[
				0,
				1
			]
		}
	],
	"nodes":[
		{
			"mesh":0,
			"name":"Maxis-3d2-mesh-2",
			"rotation":[
				0.70710688829422,
				0,
				0,
				0.7071066498756409
			]
		},
		{
			"extras":{
				"gd_node":"Decal",
				"lower_fade":9,
				"upper_fade":10
			},
			"mesh":1,
			"name":"Ground_AO",
			"scale":[
				15.043758392333984,
				1,
				15.11886215209961
			],
			"translation":[
				0.03754997253417969,
				-2.158443521693698e-06,
				0.06541299819946289
			]
		}
	],
	"materials":[
		{
			"name":"mat40-27.001",
			"occlusionTexture":{
				"index":0,
				"texCoord":1
			},
			"pbrMetallicRoughness":{
				"baseColorTexture":{
					"index":1
				},
				"metallicFactor":0
			}
		},
		{
			"name":"mat40-24.001",
			"occlusionTexture":{
				"index":2,
				"texCoord":1
			},
			"pbrMetallicRoughness":{
				"baseColorTexture":{
					"index":3
				},
				"metallicFactor":0
			}
		},
		{
			"name":"mat40-26.001",
			"occlusionTexture":{
				"index":4,
				"texCoord":1
			},
			"pbrMetallicRoughness":{
				"baseColorTexture":{
					"index":5
				},
				"metallicFactor":0
			}
		},
		{
			"name":"mat40-25.001",
			"occlusionTexture":{
				"index":6,
				"texCoord":1
			},
			"pbrMetallicRoughness":{
				"baseColorTexture":{
					"index":7
				},
				"metallicFactor":0
			}
		},
		{
			"name":"mat40-54.001",
			"occlusionTexture":{
				"index":8,
				"texCoord":1
			},
			"pbrMetallicRoughness":{
				"baseColorTexture":{
					"index":9
				},
				"metallicFactor":0
			}
		},
		{
			"name":"mat40-53.001",
			"occlusionTexture":{
				"index":10,
				"texCoord":1
			},
			"pbrMetallicRoughness":{
				"baseColorTexture":{
					"index":11
				},
				"metallicFactor":0
			}
		},
		{
			"name":"mat40-52.007",
			"occlusionTexture":{
				"index":12,
				"texCoord":1
			},
			"pbrMetallicRoughness":{
				"baseColorTexture":{
					"index":13
				},
				"metallicFactor":0
			}
		},
		{
			"name":"mat40-55.002",
			"occlusionTexture":{
				"index":14,
				"texCoord":1
			},
			"pbrMetallicRoughness":{
				"baseColorTexture":{
					"index":15
				},
				"metallicFactor":0
			}
		},
		{
			"name":"matcolour-48.005",
			"occlusionTexture":{
				"index":16,
				"texCoord":1
			},
			"pbrMetallicRoughness":{
				"baseColorFactor":[
					0.05882352963089943,
					0.05882352963089943,
					0.05882352963089943,
					1
				],
				"metallicFactor":0
			}
		},
		{
			"name":"Ground_AO.001",
			"occlusionTexture":{
				"index":17
			},
			"pbrMetallicRoughness":{
				"baseColorFactor":[
					0.800000011920929,
					0.800000011920929,
					0.800000011920929,
					1
				],
				"metallicFactor":0,
				"roughnessFactor":0.5
			}
		}
	],
	"meshes":[
		{
			"name":"Maxis-3d2-mesh-2",
			"primitives":[
				{
					"attributes":{
						"POSITION":0,
						"NORMAL":1,
						"TEXCOORD_0":2,
						"TEXCOORD_1":3
					},
					"indices":4,
					"material":0
				},
				{
					"attributes":{
						"POSITION":5,
						"NORMAL":6,
						"TEXCOORD_0":7,
						"TEXCOORD_1":8
					},
					"indices":9,
					"material":1
				},
				{
					"attributes":{
						"POSITION":10,
						"NORMAL":11,
						"TEXCOORD_0":12,
						"TEXCOORD_1":13
					},
					"indices":14,
					"material":2
				},
				{
					"attributes":{
						"POSITION":15,
						"NORMAL":16,
						"TEXCOORD_0":17,
						"TEXCOORD_1":18
					},
					"indices":14,
					"material":3
				},
				{
					"attributes":{
						"POSITION":19,
						"NORMAL":20,
						"TEXCOORD_0":21,
						"TEXCOORD_1":22
					},
					"indices":23,
					"material":4
				},
				{
					"attributes":{
						"POSITION":24,
						"NORMAL":25,
						"TEXCOORD_0":26,
						"TEXCOORD_1":27
					},
					"indices":28,
					"material":5
				},
				{
					"attributes":{
						"POSITION":29,
						"NORMAL":30,
						"TEXCOORD_0":31,
						"TEXCOORD_1":32
					},
					"indices":33,
					"material":6
				},
				{
					"attributes":{
						"POSITION":34,
						"NORMAL":35,
						"TEXCOORD_0":36,
						"TEXCOORD_1":37
					},
					"indices":38,
					"material":7
				},
				{
					"attributes":{
						"POSITION":39,
						"NORMAL":40,
						"TEXCOORD_0":41,
						"TEXCOORD_1":42
					},
					"indices":43,
					"material":8
				}
			]
		},
		{
			"name":"Plane.001",
			"primitives":[
				{
					"attributes":{
						"POSITION":44,
						"NORMAL":45,
						"TEXCOORD_0":46
					},
					"indices":47,
					"material":9
				}
			]
		}
	],
	"textures":[
		{
			"sampler":0,
			"source":0
		},
		{
			"sampler":0,
			"source":1
		},
		{
			"sampler":0,
			"source":0
		},
		{
			"sampler":0,
			"source":2
		},
		{
			"sampler":0,
			"source":0
		},
		{
			"sampler":0,
			"source":3
		},
		{
			"sampler":0,
			"source":0
		},
		{
			"sampler":0,
			"source":4
		},
		{
			"sampler":0,
			"source":0
		},
		{
			"sampler":0,
			"source":5
		},
		{
			"sampler":0,
			"source":0
		},
		{
			"sampler":0,
			"source":6
		},
		{
			"sampler":0,
			"source":0
		},
		{
			"sampler":0,
			"source":7
		},
		{
			"sampler":0,
			"source":0
		},
		{
			"sampler":0,
			"source":8
		},
		{
			"sampler":0,
			"source":0
		},
		{
			"sampler":0,
			"source":9
		}
	],
	"images":[
		{
			"mimeType":"image/png",
			"name":"industrial_substation.png",
			"uri":"../../Textures/ambient_occlusion/Buildings/industrial_substation.png"
		},
		{
			"mimeType":"image/png",
			"name":"tex40-27",
			"uri":"../../Textures/tex40-27.png"
		},
		{
			"mimeType":"image/png",
			"name":"tex40-24",
			"uri":"../../Textures/tex40-24.png"
		},
		{
			"mimeType":"image/png",
			"name":"tex40-26",
			"uri":"../../Textures/tex40-26.png"
		},
		{
			"mimeType":"image/png",
			"name":"tex40-25",
			"uri":"../../Textures/tex40-25.png"
		},
		{
			"mimeType":"image/png",
			"name":"tex40-54",
			"uri":"../../Textures/tex40-54.png"
		},
		{
			"mimeType":"image/png",
			"name":"tex40-53",
			"uri":"../../Textures/tex40-53.png"
		},
		{
			"mimeType":"image/png",
			"name":"tex40-52",
			"uri":"../../Textures/tex40-52.png"
		},
		{
			"mimeType":"image/png",
			"name":"tex40-55",
			"uri":"../../Textures/tex40-55.png"
		},
		{
			"mimeType":"image/png",
			"name":"industrial_substation_ground.png",
			"uri":"../../Textures/ambient_occlusion/Buildings/industrial_substation_ground.png"
		}
	],
	"accessors":[
		{
			"bufferView":0,
			"componentType":5126,
			"count":4,
			"max":[
				7.059429168701172,
				7.124839782714844,
				0
			],
			"min":[
				-6.9843292236328125,
				7.124835968017578,
				-10.85000228881836
			],
			"type":"VEC3"
		},
		{
			"bufferView":1,
			"componentType":5126,
			"count":4,
			"type":"VEC3"
		},
		{
			"bufferView":2,
			"componentType":5126,
			"count":4,
			"type":"VEC2"
		},
		{
			"bufferView":3,
			"componentType":5126,
			"count":4,
			"type":"VEC2"
		},
		{
			"bufferView":4,
			"componentType":5123,
			"count":6,
			"type":"SCALAR"
		},
		{
			"bufferView":5,
			"componentType":5126,
			"count":4,
			"max":[
				7.059429168701172,
				-6.994014739990234,
				0
			],
			"min":[
				-6.9843292236328125,
				-6.9940185546875,
				-10.849994659423828
			],
			"type":"VEC3"
		},
		{
			"bufferView":6,
			"componentType":5126,
			"count":4,
			"type":"VEC3"
		},
		{
			"bufferView":7,
			"componentType":5126,
			"count":4,
			"type":"VEC2"
		},
		{
			"bufferView":8,
			"componentType":5126,
			"count":4,
			"type":"VEC2"
		},
		{
			"bufferView":9,
			"componentType":5123,
			"count":6,
			"type":"SCALAR"
		},
		{
			"bufferView":10,
			"componentType":5126,
			"count":4,
			"max":[
				7.059429168701172,
				7.124839782714844,
				0
			],
			"min":[
				7.059429168701172,
				-6.9940185546875,
				-10.85000228881836
			],
			"type":"VEC3"
		},
		{
			"bufferView":11,
			"componentType":5126,
			"count":4,
			"type":"VEC3"
		},
		{
			"bufferView":12,
			"componentType":5126,
			"count":4,
			"type":"VEC2"
		},
		{
			"bufferView":13,
			"componentType":5126,
			"count":4,
			"type":"VEC2"
		},
		{
			"bufferView":14,
			"componentType":5123,
			"count":6,
			"type":"SCALAR"
		},
		{
			"bufferView":15,
			"componentType":5126,
			"count":4,
			"max":[
				-6.9843292236328125,
				7.124839782714844,
				0
			],
			"min":[
				-6.9843292236328125,
				-6.9940185546875,
				-10.85000228881836
			],
			"type":"VEC3"
		},
		{
			"bufferView":16,
			"componentType":5126,
			"count":4,
			"type":"VEC3"
		},
		{
			"bufferView":17,
			"componentType":5126,
			"count":4,
			"type":"VEC2"
		},
		{
			"bufferView":18,
			"componentType":5126,
			"count":4,
			"type":"VEC2"
		},
		{
			"bufferView":19,
			"componentType":5126,
			"count":9,
			"max":[
				5.671123504638672,
				4.133415222167969,
				-10.849998474121094
			],
			"min":[
				-3.8427085876464844,
				-5.1665802001953125,
				-14.983333587646484
			],
			"type":"VEC3"
		},
		{
			"bufferView":20,
			"componentType":5126,
			"count":9,
			"type":"VEC3"
		},
		{
			"bufferView":21,
			"componentType":5126,
			"count":9,
			"type":"VEC2"
		},
		{
			"bufferView":22,
			"componentType":5126,
			"count":9,
			"type":"VEC2"
		},
		{
			"bufferView":23,
			"componentType":5123,
			"count":15,
			"type":"SCALAR"
		},
		{
			"bufferView":24,
			"componentType":5126,
			"count":9,
			"max":[
				1.429595947265625,
				4.133415222167969,
				-10.849998474121094
			],
			"min":[
				-5.4572906494140625,
				-5.1665802001953125,
				-14.983333587646484
			],
			"type":"VEC3"
		},
		{
			"bufferView":25,
			"componentType":5126,
			"count":9,
			"type":"VEC3"
		},
		{
			"bufferView":26,
			"componentType":5126,
			"count":9,
			"type":"VEC2"
		},
		{
			"bufferView":27,
			"componentType":5126,
			"count":9,
			"type":"VEC2"
		},
		{
			"bufferView":28,
			"componentType":5123,
			"count":15,
			"type":"SCALAR"
		},
		{
			"bufferView":29,
			"componentType":5126,
			"count":8,
			"max":[
				5.671123504638672,
				-4.4305877685546875,
				-10.849998474121094
			],
			"min":[
				-5.4572906494140625,
				-5.1665802001953125,
				-14.983333587646484
			],
			"type":"VEC3"
		},
		{
			"bufferView":30,
			"componentType":5126,
			"count":8,
			"type":"VEC3"
		},
		{
			"bufferView":31,
			"componentType":5126,
			"count":8,
			"type":"VEC2"
		},
		{
			"bufferView":32,
			"componentType":5126,
			"count":8,
			"type":"VEC2"
		},
		{
			"bufferView":33,
			"componentType":5123,
			"count":12,
			"type":"SCALAR"
		},
		{
			"bufferView":34,
			"componentType":5126,
			"count":8,
			"max":[
				5.671123504638672,
				4.133415222167969,
				-10.849998474121094
			],
			"min":[
				-5.4572906494140625,
				0.012908935546875,
				-13.38504409790039
			],
			"type":"VEC3"
		},
		{
			"bufferView":35,
			"componentType":5126,
			"count":8,
			"type":"VEC3"
		},
		{
			"bufferView":36,
			"componentType":5126,
			"count":8,
			"type":"VEC2"
		},
		{
			"bufferView":37,
			"componentType":5126,
			"count":8,
			"type":"VEC2"
		},
		{
			"bufferView":38,
			"componentType":5123,
			"count":12,
			"type":"SCALAR"
		},
		{
			"bufferView":39,
			"componentType":5126,
			"count":24,
			"max":[
				7.059429168701172,
				7.124835968017578,
				-10.849994659423828
			],
			"min":[
				-6.9843292236328125,
				-6.9940185546875,
				-14.983333587646484
			],
			"type":"VEC3"
		},
		{
			"bufferView":40,
			"componentType":5126,
			"count":24,
			"type":"VEC3"
		},
		{
			"bufferView":41,
			"componentType":5126,
			"count":24,
			"type":"VEC2"
		},
		{
			"bufferView":42,
			"componentType":5126,
			"count":24,
			"type":"VEC2"
		},
		{
			"bufferView":43,
			"componentType":5123,
			"count":60,
			"type":"SCALAR"
		},
		{
			"bufferView":44,
			"componentType":5126,
			"count":4,
			"max":[
				0.5,
				0,
				0.5
			],
			"min":[
				-0.5,
				0,
				-0.5
			],
			"type":"VEC3"
		},
		{
			"bufferView":45,
			"componentType":5126,
			"count":4,
			"type":"VEC3"
		},
		{
			"bufferView":46,
			"componentType":5126,
			"count":4,
			"type":"VEC2"
		},
		{
			"bufferView":47,
			"componentType":5123,
			"count":6,
			"type":"SCALAR"
		}
	],
	"bufferViews":[
		{
			"buffer":0,
			"byteLength":48,
			"byteOffset":0,
			"target":34962
		},
		{
			"buffer":0,
			"byteLength":48,
			"byteOffset":48,
			"target":34962
		},
		{
			"buffer":0,
			"byteLength":32,
			"byteOffset":96,
			"target":34962
		},
		{
			"buffer":0,
			"byteLength":32,
			"byteOffset":128,
			"target":34962
		},
		{
			"buffer":0,
			"byteLength":12,
			"byteOffset":160,
			"target":34963
		},
		{
			"buffer":0,
			"byteLength":48,
			"byteOffset":172,
			"target":34962
		},
		{
			"buffer":0,
			"byteLength":48,
			"byteOffset":220,
			"target":34962
		},
		{
			"buffer":0,
			"byteLength":32,
			"byteOffset":268,
			"target":34962
		},
		{
			"buffer":0,
			"byteLength":32,
			"byteOffset":300,
			"target":34962
		},
		{
			"buffer":0,
			"byteLength":12,
			"byteOffset":332,
			"target":34963
		},
		{
			"buffer":0,
			"byteLength":48,
			"byteOffset":344,
			"target":34962
		},
		{
			"buffer":0,
			"byteLength":48,
			"byteOffset":392,
			"target":34962
		},
		{
			"buffer":0,
			"byteLength":32,
			"byteOffset":440,
			"target":34962
		},
		{
			"buffer":0,
			"byteLength":32,
			"byteOffset":472,
			"target":34962
		},
		{
			"buffer":0,
			"byteLength":12,
			"byteOffset":504,
			"target":34963
		},
		{
			"buffer":0,
			"byteLength":48,
			"byteOffset":516,
			"target":34962
		},
		{
			"buffer":0,
			"byteLength":48,
			"byteOffset":564,
			"target":34962
		},
		{
			"buffer":0,
			"byteLength":32,
			"byteOffset":612,
			"target":34962
		},
		{
			"buffer":0,
			"byteLength":32,
			"byteOffset":644,
			"target":34962
		},
		{
			"buffer":0,
			"byteLength":108,
			"byteOffset":676,
			"target":34962
		},
		{
			"buffer":0,
			"byteLength":108,
			"byteOffset":784,
			"target":34962
		},
		{
			"buffer":0,
			"byteLength":72,
			"byteOffset":892,
			"target":34962
		},
		{
			"buffer":0,
			"byteLength":72,
			"byteOffset":964,
			"target":34962
		},
		{
			"buffer":0,
			"byteLength":30,
			"byteOffset":1036,
			"target":34963
		},
		{
			"buffer":0,
			"byteLength":108,
			"byteOffset":1068,
			"target":34962
		},
		{
			"buffer":0,
			"byteLength":108,
			"byteOffset":1176,
			"target":34962
		},
		{
			"buffer":0,
			"byteLength":72,
			"byteOffset":1284,
			"target":34962
		},
		{
			"buffer":0,
			"byteLength":72,
			"byteOffset":1356,
			"target":34962
		},
		{
			"buffer":0,
			"byteLength":30,
			"byteOffset":1428,
			"target":34963
		},
		{
			"buffer":0,
			"byteLength":96,
			"byteOffset":1460,
			"target":34962
		},
		{
			"buffer":0,
			"byteLength":96,
			"byteOffset":1556,
			"target":34962
		},
		{
			"buffer":0,
			"byteLength":64,
			"byteOffset":1652,
			"target":34962
		},
		{
			"buffer":0,
			"byteLength":64,
			"byteOffset":1716,
			"target":34962
		},
		{
			"buffer":0,
			"byteLength":24,
			"byteOffset":1780,
			"target":34963
		},
		{
			"buffer":0,
			"byteLength":96,
			"byteOffset":1804,
			"target":34962
		},
		{
			"buffer":0,
			"byteLength":96,
			"byteOffset":1900,
			"target":34962
		},
		{
			"buffer":0,
			"byteLength":64,
			"byteOffset":1996,
			"target":34962
		},
		{
			"buffer":0,
			"byteLength":64,
			"byteOffset":2060,
			"target":34962
		},
		{
			"buffer":0,
			"byteLength":24,
			"byteOffset":2124,
			"target":34963
		},
		{
			"buffer":0,
			"byteLength":288,
			"byteOffset":2148,
			"target":34962
		},
		{
			"buffer":0,
			"byteLength":288,
			"byteOffset":2436,
			"target":34962
		},
		{
			"buffer":0,
			"byteLength":192,
			"byteOffset":2724,
			"target":34962
		},
		{
			"buffer":0,
			"byteLength":192,
			"byteOffset":2916,
			"target":34962
		},
		{
			"buffer":0,
			"byteLength":120,
			"byteOffset":3108,
			"target":34963
		},
		{
			"buffer":0,
			"byteLength":48,
			"byteOffset":3228,
			"target":34962
		},
		{
			"buffer":0,
			"byteLength":48,
			"byteOffset":3276,
			"target":34962
		},
		{
			"buffer":0,
			"byteLength":32,
			"byteOffset":3324,
			"target":34962
		},
		{
			"buffer":0,
			"byteLength":12,
			"byteOffset":3356,
			"target":34963
		}
	],
	"samplers":[
		{
			"magFilter":9729,
			"minFilter":9987
		}
	],
	"buffers":[
		{
			"byteLength":3368,
			"uri":"industrial_substation.bin"
		}
	]
}
