{
    "asset" : {
        "generator" : "Khronos glTF Blender I/O v1.7.33",
        "version" : "2.0"
    },
    "scene" : 0,
    "scenes" : [
        {
            "name" : "Scene",
            "nodes" : [
                0
            ]
        }
    ],
    "nodes" : [
        {
            "mesh" : 0,
            "name" : "Maxis-3d1-mesh-51",
            "rotation" : [
                0.7071068286895752,
                0,
                0,
                0.7071067094802856
            ]
        }
    ],
    "materials" : [
        {
            "doubleSided" : true,
            "name" : "matcolour-48.006",
            "pbrMetallicRoughness" : {
                "baseColorFactor" : [
                    0.05882352963089943,
                    0.05882352963089943,
                    0.05882352963089943,
                    1
                ],
                "metallicFactor" : 0
            }
        },
        {
            "doubleSided" : true,
            "name" : "mat2-36.001",
            "pbrMetallicRoughness" : {
                "baseColorTexture" : {
                    "index" : 0
                },
                "metallicFactor" : 0
            }
        },
        {
            "doubleSided" : true,
            "name" : "mat2-39.001",
            "pbrMetallicRoughness" : {
                "baseColorTexture" : {
                    "index" : 1
                },
                "metallicFactor" : 0
            }
        },
        {
            "doubleSided" : true,
            "name" : "mat2-37.001",
            "pbrMetallicRoughness" : {
                "baseColorTexture" : {
                    "index" : 2
                },
                "metallicFactor" : 0
            }
        },
        {
            "doubleSided" : true,
            "name" : "mat2-38.001",
            "pbrMetallicRoughness" : {
                "baseColorTexture" : {
                    "index" : 3
                },
                "metallicFactor" : 0
            }
        },
        {
            "doubleSided" : true,
            "name" : "mat39-35.001",
            "pbrMetallicRoughness" : {
                "baseColorTexture" : {
                    "index" : 4
                },
                "metallicFactor" : 0
            }
        },
        {
            "doubleSided" : true,
            "name" : "mat40-12.002",
            "pbrMetallicRoughness" : {
                "baseColorTexture" : {
                    "index" : 5
                },
                "metallicFactor" : 0
            }
        },
        {
            "doubleSided" : true,
            "name" : "mat40-15.002",
            "pbrMetallicRoughness" : {
                "baseColorTexture" : {
                    "index" : 6
                },
                "metallicFactor" : 0
            }
        },
        {
            "doubleSided" : true,
            "name" : "mat40-14.002",
            "pbrMetallicRoughness" : {
                "baseColorTexture" : {
                    "index" : 7
                },
                "metallicFactor" : 0
            }
        },
        {
            "doubleSided" : true,
            "name" : "mat40-13.002",
            "pbrMetallicRoughness" : {
                "baseColorTexture" : {
                    "index" : 8
                },
                "metallicFactor" : 0
            }
        }
    ],
    "meshes" : [
        {
            "name" : "Maxis-3d1-mesh-51.001",
            "primitives" : [
                {
                    "attributes" : {
                        "POSITION" : 0,
                        "NORMAL" : 1,
                        "TEXCOORD_0" : 2
                    },
                    "indices" : 3,
                    "material" : 0
                },
                {
                    "attributes" : {
                        "POSITION" : 4,
                        "NORMAL" : 5,
                        "TEXCOORD_0" : 6
                    },
                    "indices" : 7,
                    "material" : 1
                },
                {
                    "attributes" : {
                        "POSITION" : 8,
                        "NORMAL" : 9,
                        "TEXCOORD_0" : 10
                    },
                    "indices" : 11,
                    "material" : 2
                },
                {
                    "attributes" : {
                        "POSITION" : 12,
                        "NORMAL" : 13,
                        "TEXCOORD_0" : 14
                    },
                    "indices" : 15,
                    "material" : 3
                },
                {
                    "attributes" : {
                        "POSITION" : 16,
                        "NORMAL" : 17,
                        "TEXCOORD_0" : 18
                    },
                    "indices" : 19,
                    "material" : 4
                },
                {
                    "attributes" : {
                        "POSITION" : 20,
                        "NORMAL" : 21,
                        "TEXCOORD_0" : 22
                    },
                    "indices" : 23,
                    "material" : 5
                },
                {
                    "attributes" : {
                        "POSITION" : 24,
                        "NORMAL" : 25,
                        "TEXCOORD_0" : 26
                    },
                    "indices" : 27,
                    "material" : 6
                },
                {
                    "attributes" : {
                        "POSITION" : 28,
                        "NORMAL" : 29,
                        "TEXCOORD_0" : 30
                    },
                    "indices" : 31,
                    "material" : 7
                },
                {
                    "attributes" : {
                        "POSITION" : 32,
                        "NORMAL" : 33,
                        "TEXCOORD_0" : 34
                    },
                    "indices" : 35,
                    "material" : 8
                },
                {
                    "attributes" : {
                        "POSITION" : 36,
                        "NORMAL" : 37,
                        "TEXCOORD_0" : 38
                    },
                    "indices" : 39,
                    "material" : 9
                }
            ]
        }
    ],
    "textures" : [
        {
            "sampler" : 0,
            "source" : 0
        },
        {
            "sampler" : 0,
            "source" : 1
        },
        {
            "sampler" : 0,
            "source" : 2
        },
        {
            "sampler" : 0,
            "source" : 3
        },
        {
            "sampler" : 0,
            "source" : 4
        },
        {
            "sampler" : 0,
            "source" : 5
        },
        {
            "sampler" : 0,
            "source" : 6
        },
        {
            "sampler" : 0,
            "source" : 7
        },
        {
            "sampler" : 0,
            "source" : 8
        }
    ],
    "images" : [
        {
            "mimeType" : "image/png",
            "name" : "tex2-36",
            "uri" : "../../Textures/tex2-36.png"
        },
        {
            "mimeType" : "image/png",
            "name" : "tex2-39",
            "uri" : "../../Textures/tex2-39.png"
        },
        {
            "mimeType" : "image/png",
            "name" : "tex2-37",
            "uri" : "../../Textures/tex2-37.png"
        },
        {
            "mimeType" : "image/png",
            "name" : "tex2-38",
            "uri" : "../../Textures/tex2-38.png"
        },
        {
            "mimeType" : "image/png",
            "name" : "tex39-35",
            "uri" : "../../Textures/tex39-35.png"
        },
        {
            "mimeType" : "image/png",
            "name" : "tex40-12",
            "uri" : "../../Textures/tex40-12.png"
        },
        {
            "mimeType" : "image/png",
            "name" : "tex40-15",
            "uri" : "../../Textures/tex40-15.png"
        },
        {
            "mimeType" : "image/png",
            "name" : "tex40-14",
            "uri" : "../../Textures/tex40-14.png"
        },
        {
            "mimeType" : "image/png",
            "name" : "tex40-13",
            "uri" : "../../Textures/tex40-13.png"
        }
    ],
    "accessors" : [
        {
            "bufferView" : 0,
            "componentType" : 5126,
            "count" : 120,
            "max" : [
                14.267341613769531,
                14.267349243164062,
                -7.078380584716797
            ],
            "min" : [
                -11.119728088378906,
                -11.11972427368164,
                -17.191303253173828
            ],
            "type" : "VEC3"
        },
        {
            "bufferView" : 1,
            "componentType" : 5126,
            "count" : 120,
            "type" : "VEC3"
        },
        {
            "bufferView" : 2,
            "componentType" : 5126,
            "count" : 120,
            "type" : "VEC2"
        },
        {
            "bufferView" : 3,
            "componentType" : 5123,
            "count" : 120,
            "type" : "SCALAR"
        },
        {
            "bufferView" : 4,
            "componentType" : 5126,
            "count" : 4,
            "max" : [
                4.738956451416016,
                -11.440845489501953,
                3.814697265625e-06
            ],
            "min" : [
                -4.738956451416016,
                -11.440845489501953,
                -7.078376770019531
            ],
            "type" : "VEC3"
        },
        {
            "bufferView" : 5,
            "componentType" : 5126,
            "count" : 4,
            "type" : "VEC3"
        },
        {
            "bufferView" : 6,
            "componentType" : 5126,
            "count" : 4,
            "type" : "VEC2"
        },
        {
            "bufferView" : 7,
            "componentType" : 5123,
            "count" : 6,
            "type" : "SCALAR"
        },
        {
            "bufferView" : 8,
            "componentType" : 5126,
            "count" : 28,
            "max" : [
                14.267341613769531,
                14.26736831665039,
                0
            ],
            "min" : [
                -11.440845489501953,
                4.738960266113281,
                -7.0783843994140625
            ],
            "type" : "VEC3"
        },
        {
            "bufferView" : 9,
            "componentType" : 5126,
            "count" : 28,
            "type" : "VEC3"
        },
        {
            "bufferView" : 10,
            "componentType" : 5126,
            "count" : 28,
            "type" : "VEC2"
        },
        {
            "bufferView" : 11,
            "componentType" : 5123,
            "count" : 30,
            "type" : "SCALAR"
        },
        {
            "bufferView" : 12,
            "componentType" : 5126,
            "count" : 12,
            "max" : [
                11.440860748291016,
                -4.738948822021484,
                3.814697265625e-06
            ],
            "min" : [
                -11.440849304199219,
                -11.440845489501953,
                -7.078376770019531
            ],
            "type" : "VEC3"
        },
        {
            "bufferView" : 13,
            "componentType" : 5126,
            "count" : 12,
            "type" : "VEC3"
        },
        {
            "bufferView" : 14,
            "componentType" : 5126,
            "count" : 12,
            "type" : "VEC2"
        },
        {
            "bufferView" : 15,
            "componentType" : 5123,
            "count" : 12,
            "type" : "SCALAR"
        },
        {
            "bufferView" : 16,
            "componentType" : 5126,
            "count" : 12,
            "max" : [
                11.440860748291016,
                4.738964080810547,
                0
            ],
            "min" : [
                -11.440849304199219,
                -4.738948822021484,
                -7.078380584716797
            ],
            "type" : "VEC3"
        },
        {
            "bufferView" : 17,
            "componentType" : 5126,
            "count" : 12,
            "type" : "VEC3"
        },
        {
            "bufferView" : 18,
            "componentType" : 5126,
            "count" : 12,
            "type" : "VEC2"
        },
        {
            "bufferView" : 19,
            "componentType" : 5123,
            "count" : 12,
            "type" : "SCALAR"
        },
        {
            "bufferView" : 20,
            "componentType" : 5126,
            "count" : 48,
            "max" : [
                11.440860748291016,
                11.440853118896484,
                -7.078376770019531
            ],
            "min" : [
                -11.440849304199219,
                -11.440845489501953,
                -8.468643188476562
            ],
            "type" : "VEC3"
        },
        {
            "bufferView" : 21,
            "componentType" : 5126,
            "count" : 48,
            "type" : "VEC3"
        },
        {
            "bufferView" : 22,
            "componentType" : 5126,
            "count" : 48,
            "type" : "VEC2"
        },
        {
            "bufferView" : 23,
            "componentType" : 5123,
            "count" : 48,
            "type" : "SCALAR"
        },
        {
            "bufferView" : 24,
            "componentType" : 5126,
            "count" : 18,
            "max" : [
                1.4034347534179688,
                -0.5813179016113281,
                -12.149612426757812
            ],
            "min" : [
                -1.4034309387207031,
                -1.4034347534179688,
                -17.191303253173828
            ],
            "type" : "VEC3"
        },
        {
            "bufferView" : 25,
            "componentType" : 5126,
            "count" : 18,
            "type" : "VEC3"
        },
        {
            "bufferView" : 26,
            "componentType" : 5126,
            "count" : 18,
            "type" : "VEC2"
        },
        {
            "bufferView" : 27,
            "componentType" : 5123,
            "count" : 18,
            "type" : "SCALAR"
        },
        {
            "bufferView" : 28,
            "componentType" : 5126,
            "count" : 16,
            "max" : [
                1.4034309387207031,
                1.4034309387207031,
                -12.149612426757812
            ],
            "min" : [
                -1.4034309387207031,
                0.5813179016113281,
                -17.191295623779297
            ],
            "type" : "VEC3"
        },
        {
            "bufferView" : 29,
            "componentType" : 5126,
            "count" : 16,
            "type" : "VEC3"
        },
        {
            "bufferView" : 30,
            "componentType" : 5126,
            "count" : 16,
            "type" : "VEC2"
        },
        {
            "bufferView" : 31,
            "componentType" : 5123,
            "count" : 18,
            "type" : "SCALAR"
        },
        {
            "bufferView" : 32,
            "componentType" : 5126,
            "count" : 6,
            "max" : [
                1.4034347534179688,
                0.5813179016113281,
                -12.149612426757812
            ],
            "min" : [
                1.4034309387207031,
                -0.5813217163085938,
                -17.191299438476562
            ],
            "type" : "VEC3"
        },
        {
            "bufferView" : 33,
            "componentType" : 5126,
            "count" : 6,
            "type" : "VEC3"
        },
        {
            "bufferView" : 34,
            "componentType" : 5126,
            "count" : 6,
            "type" : "VEC2"
        },
        {
            "bufferView" : 35,
            "componentType" : 5123,
            "count" : 6,
            "type" : "SCALAR"
        },
        {
            "bufferView" : 36,
            "componentType" : 5126,
            "count" : 6,
            "max" : [
                -1.4034309387207031,
                0.5813217163085938,
                -12.149612426757812
            ],
            "min" : [
                -1.4034309387207031,
                -0.5813217163085938,
                -17.191299438476562
            ],
            "type" : "VEC3"
        },
        {
            "bufferView" : 37,
            "componentType" : 5126,
            "count" : 6,
            "type" : "VEC3"
        },
        {
            "bufferView" : 38,
            "componentType" : 5126,
            "count" : 6,
            "type" : "VEC2"
        },
        {
            "bufferView" : 39,
            "componentType" : 5123,
            "count" : 6,
            "type" : "SCALAR"
        }
    ],
    "bufferViews" : [
        {
            "buffer" : 0,
            "byteLength" : 1440,
            "byteOffset" : 0
        },
        {
            "buffer" : 0,
            "byteLength" : 1440,
            "byteOffset" : 1440
        },
        {
            "buffer" : 0,
            "byteLength" : 960,
            "byteOffset" : 2880
        },
        {
            "buffer" : 0,
            "byteLength" : 240,
            "byteOffset" : 3840
        },
        {
            "buffer" : 0,
            "byteLength" : 48,
            "byteOffset" : 4080
        },
        {
            "buffer" : 0,
            "byteLength" : 48,
            "byteOffset" : 4128
        },
        {
            "buffer" : 0,
            "byteLength" : 32,
            "byteOffset" : 4176
        },
        {
            "buffer" : 0,
            "byteLength" : 12,
            "byteOffset" : 4208
        },
        {
            "buffer" : 0,
            "byteLength" : 336,
            "byteOffset" : 4220
        },
        {
            "buffer" : 0,
            "byteLength" : 336,
            "byteOffset" : 4556
        },
        {
            "buffer" : 0,
            "byteLength" : 224,
            "byteOffset" : 4892
        },
        {
            "buffer" : 0,
            "byteLength" : 60,
            "byteOffset" : 5116
        },
        {
            "buffer" : 0,
            "byteLength" : 144,
            "byteOffset" : 5176
        },
        {
            "buffer" : 0,
            "byteLength" : 144,
            "byteOffset" : 5320
        },
        {
            "buffer" : 0,
            "byteLength" : 96,
            "byteOffset" : 5464
        },
        {
            "buffer" : 0,
            "byteLength" : 24,
            "byteOffset" : 5560
        },
        {
            "buffer" : 0,
            "byteLength" : 144,
            "byteOffset" : 5584
        },
        {
            "buffer" : 0,
            "byteLength" : 144,
            "byteOffset" : 5728
        },
        {
            "buffer" : 0,
            "byteLength" : 96,
            "byteOffset" : 5872
        },
        {
            "buffer" : 0,
            "byteLength" : 24,
            "byteOffset" : 5968
        },
        {
            "buffer" : 0,
            "byteLength" : 576,
            "byteOffset" : 5992
        },
        {
            "buffer" : 0,
            "byteLength" : 576,
            "byteOffset" : 6568
        },
        {
            "buffer" : 0,
            "byteLength" : 384,
            "byteOffset" : 7144
        },
        {
            "buffer" : 0,
            "byteLength" : 96,
            "byteOffset" : 7528
        },
        {
            "buffer" : 0,
            "byteLength" : 216,
            "byteOffset" : 7624
        },
        {
            "buffer" : 0,
            "byteLength" : 216,
            "byteOffset" : 7840
        },
        {
            "buffer" : 0,
            "byteLength" : 144,
            "byteOffset" : 8056
        },
        {
            "buffer" : 0,
            "byteLength" : 36,
            "byteOffset" : 8200
        },
        {
            "buffer" : 0,
            "byteLength" : 192,
            "byteOffset" : 8236
        },
        {
            "buffer" : 0,
            "byteLength" : 192,
            "byteOffset" : 8428
        },
        {
            "buffer" : 0,
            "byteLength" : 128,
            "byteOffset" : 8620
        },
        {
            "buffer" : 0,
            "byteLength" : 36,
            "byteOffset" : 8748
        },
        {
            "buffer" : 0,
            "byteLength" : 72,
            "byteOffset" : 8784
        },
        {
            "buffer" : 0,
            "byteLength" : 72,
            "byteOffset" : 8856
        },
        {
            "buffer" : 0,
            "byteLength" : 48,
            "byteOffset" : 8928
        },
        {
            "buffer" : 0,
            "byteLength" : 12,
            "byteOffset" : 8976
        },
        {
            "buffer" : 0,
            "byteLength" : 72,
            "byteOffset" : 8988
        },
        {
            "buffer" : 0,
            "byteLength" : 72,
            "byteOffset" : 9060
        },
        {
            "buffer" : 0,
            "byteLength" : 48,
            "byteOffset" : 9132
        },
        {
            "buffer" : 0,
            "byteLength" : 12,
            "byteOffset" : 9180
        }
    ],
    "samplers" : [
        {
            "magFilter" : 9729,
            "minFilter" : 9987
        }
    ],
    "buffers" : [
        {
            "byteLength" : 9192,
            "uri" : "library.bin"
        }
    ]
}
