{
	"asset":{
		"generator":"Khronos glTF Blender I/O v4.4.55",
		"version":"2.0"
	},
	"scene":0,
	"scenes":[
		{
			"name":"Scene",
			"nodes":[
				0,
				1
			]
		}
	],
	"nodes":[
		{
			"mesh":0,
			"name":"Maxis-3d1-mesh-51",
			"rotation":[
				0.70710688829422,
				0,
				0,
				0.7071066498756409
			]
		},
		{
			"extras":{
				"gd_node":"Decal",
				"lower_fade":9,
				"upper_fade":10
			},
			"mesh":1,
			"name":"Ground_AO",
			"scale":[
				26.70819091796875,
				1,
				26.70821762084961
			],
			"translation":[
				1.4132461547851562,
				-8.136942597047891e-06,
				1.4132637977600098
			]
		}
	],
	"materials":[
		{
			"name":"matcolour-48.006",
			"occlusionTexture":{
				"index":0,
				"texCoord":1
			},
			"pbrMetallicRoughness":{
				"baseColorFactor":[
					0.05882352963089943,
					0.05882352963089943,
					0.05882352963089943,
					1
				],
				"metallicFactor":0
			}
		},
		{
			"name":"mat2-36.001",
			"occlusionTexture":{
				"index":1,
				"texCoord":1
			},
			"pbrMetallicRoughness":{
				"baseColorTexture":{
					"index":2
				},
				"metallicFactor":0
			}
		},
		{
			"name":"mat2-39.001",
			"occlusionTexture":{
				"index":3,
				"texCoord":1
			},
			"pbrMetallicRoughness":{
				"baseColorTexture":{
					"index":4
				},
				"metallicFactor":0
			}
		},
		{
			"name":"mat2-37.001",
			"occlusionTexture":{
				"index":5,
				"texCoord":1
			},
			"pbrMetallicRoughness":{
				"baseColorTexture":{
					"index":6
				},
				"metallicFactor":0
			}
		},
		{
			"name":"mat2-38.001",
			"occlusionTexture":{
				"index":7,
				"texCoord":1
			},
			"pbrMetallicRoughness":{
				"baseColorTexture":{
					"index":8
				},
				"metallicFactor":0
			}
		},
		{
			"name":"mat39-35.001",
			"occlusionTexture":{
				"index":9,
				"texCoord":1
			},
			"pbrMetallicRoughness":{
				"baseColorTexture":{
					"index":10
				},
				"metallicFactor":0
			}
		},
		{
			"name":"mat40-12.002",
			"occlusionTexture":{
				"index":11,
				"texCoord":1
			},
			"pbrMetallicRoughness":{
				"baseColorTexture":{
					"index":12
				},
				"metallicFactor":0
			}
		},
		{
			"name":"mat40-15.002",
			"occlusionTexture":{
				"index":13,
				"texCoord":1
			},
			"pbrMetallicRoughness":{
				"baseColorTexture":{
					"index":14
				},
				"metallicFactor":0
			}
		},
		{
			"name":"mat40-14.002",
			"occlusionTexture":{
				"index":15,
				"texCoord":1
			},
			"pbrMetallicRoughness":{
				"baseColorTexture":{
					"index":16
				},
				"metallicFactor":0
			}
		},
		{
			"name":"mat40-13.002",
			"occlusionTexture":{
				"index":17,
				"texCoord":1
			},
			"pbrMetallicRoughness":{
				"baseColorTexture":{
					"index":18
				},
				"metallicFactor":0
			}
		},
		{
			"name":"Ground_AO.001",
			"occlusionTexture":{
				"index":19
			},
			"pbrMetallicRoughness":{
				"baseColorFactor":[
					0.800000011920929,
					0.800000011920929,
					0.800000011920929,
					1
				],
				"metallicFactor":0,
				"roughnessFactor":0.5
			}
		}
	],
	"meshes":[
		{
			"name":"Maxis-3d1-mesh-51.001",
			"primitives":[
				{
					"attributes":{
						"POSITION":0,
						"NORMAL":1,
						"TEXCOORD_0":2,
						"TEXCOORD_1":3
					},
					"indices":4,
					"material":0
				},
				{
					"attributes":{
						"POSITION":5,
						"NORMAL":6,
						"TEXCOORD_0":7,
						"TEXCOORD_1":8
					},
					"indices":9,
					"material":1
				},
				{
					"attributes":{
						"POSITION":10,
						"NORMAL":11,
						"TEXCOORD_0":12,
						"TEXCOORD_1":13
					},
					"indices":14,
					"material":2
				},
				{
					"attributes":{
						"POSITION":15,
						"NORMAL":16,
						"TEXCOORD_0":17,
						"TEXCOORD_1":18
					},
					"indices":19,
					"material":3
				},
				{
					"attributes":{
						"POSITION":20,
						"NORMAL":21,
						"TEXCOORD_0":22,
						"TEXCOORD_1":23
					},
					"indices":24,
					"material":4
				},
				{
					"attributes":{
						"POSITION":25,
						"NORMAL":26,
						"TEXCOORD_0":27,
						"TEXCOORD_1":28
					},
					"indices":29,
					"material":5
				},
				{
					"attributes":{
						"POSITION":30,
						"NORMAL":31,
						"TEXCOORD_0":32,
						"TEXCOORD_1":33
					},
					"indices":34,
					"material":6
				},
				{
					"attributes":{
						"POSITION":35,
						"NORMAL":36,
						"TEXCOORD_0":37,
						"TEXCOORD_1":38
					},
					"indices":39,
					"material":7
				},
				{
					"attributes":{
						"POSITION":40,
						"NORMAL":41,
						"TEXCOORD_0":42,
						"TEXCOORD_1":43
					},
					"indices":44,
					"material":8
				},
				{
					"attributes":{
						"POSITION":45,
						"NORMAL":46,
						"TEXCOORD_0":47,
						"TEXCOORD_1":48
					},
					"indices":49,
					"material":9
				}
			]
		},
		{
			"name":"Plane.001",
			"primitives":[
				{
					"attributes":{
						"POSITION":50,
						"NORMAL":51,
						"TEXCOORD_0":52
					},
					"indices":53,
					"material":10
				}
			]
		}
	],
	"textures":[
		{
			"sampler":0,
			"source":0
		},
		{
			"sampler":0,
			"source":0
		},
		{
			"sampler":0,
			"source":1
		},
		{
			"sampler":0,
			"source":0
		},
		{
			"sampler":0,
			"source":2
		},
		{
			"sampler":0,
			"source":0
		},
		{
			"sampler":0,
			"source":3
		},
		{
			"sampler":0,
			"source":0
		},
		{
			"sampler":0,
			"source":4
		},
		{
			"sampler":0,
			"source":0
		},
		{
			"sampler":0,
			"source":5
		},
		{
			"sampler":0,
			"source":0
		},
		{
			"sampler":0,
			"source":6
		},
		{
			"sampler":0,
			"source":0
		},
		{
			"sampler":0,
			"source":7
		},
		{
			"sampler":0,
			"source":0
		},
		{
			"sampler":0,
			"source":8
		},
		{
			"sampler":0,
			"source":0
		},
		{
			"sampler":0,
			"source":9
		},
		{
			"sampler":0,
			"source":10
		}
	],
	"images":[
		{
			"mimeType":"image/png",
			"name":"library.png",
			"uri":"../../Textures/ambient_occlusion/Buildings/library.png"
		},
		{
			"mimeType":"image/png",
			"name":"tex2-36",
			"uri":"../../Textures/tex2-36.png"
		},
		{
			"mimeType":"image/png",
			"name":"tex2-39",
			"uri":"../../Textures/tex2-39.png"
		},
		{
			"mimeType":"image/png",
			"name":"tex2-37",
			"uri":"../../Textures/tex2-37.png"
		},
		{
			"mimeType":"image/png",
			"name":"tex2-38",
			"uri":"../../Textures/tex2-38.png"
		},
		{
			"mimeType":"image/png",
			"name":"tex39-35",
			"uri":"../../Textures/tex39-35.png"
		},
		{
			"mimeType":"image/png",
			"name":"tex40-12",
			"uri":"../../Textures/tex40-12.png"
		},
		{
			"mimeType":"image/png",
			"name":"tex40-15",
			"uri":"../../Textures/tex40-15.png"
		},
		{
			"mimeType":"image/png",
			"name":"tex40-14",
			"uri":"../../Textures/tex40-14.png"
		},
		{
			"mimeType":"image/png",
			"name":"tex40-13",
			"uri":"../../Textures/tex40-13.png"
		},
		{
			"mimeType":"image/png",
			"name":"library_ground.png",
			"uri":"../../Textures/ambient_occlusion/Buildings/library_ground.png"
		}
	],
	"accessors":[
		{
			"bufferView":0,
			"componentType":5126,
			"count":64,
			"max":[
				14.267341613769531,
				14.267349243164062,
				-7.078380584716797
			],
			"min":[
				-11.119728088378906,
				-11.11972427368164,
				-17.191303253173828
			],
			"type":"VEC3"
		},
		{
			"bufferView":1,
			"componentType":5126,
			"count":64,
			"type":"VEC3"
		},
		{
			"bufferView":2,
			"componentType":5126,
			"count":64,
			"type":"VEC2"
		},
		{
			"bufferView":3,
			"componentType":5126,
			"count":64,
			"type":"VEC2"
		},
		{
			"bufferView":4,
			"componentType":5123,
			"count":120,
			"type":"SCALAR"
		},
		{
			"bufferView":5,
			"componentType":5126,
			"count":4,
			"max":[
				4.738956451416016,
				-11.440845489501953,
				3.814697265625e-06
			],
			"min":[
				-4.738956451416016,
				-11.440845489501953,
				-7.078376770019531
			],
			"type":"VEC3"
		},
		{
			"bufferView":6,
			"componentType":5126,
			"count":4,
			"type":"VEC3"
		},
		{
			"bufferView":7,
			"componentType":5126,
			"count":4,
			"type":"VEC2"
		},
		{
			"bufferView":8,
			"componentType":5126,
			"count":4,
			"type":"VEC2"
		},
		{
			"bufferView":9,
			"componentType":5123,
			"count":6,
			"type":"SCALAR"
		},
		{
			"bufferView":10,
			"componentType":5126,
			"count":20,
			"max":[
				14.267341613769531,
				14.26736831665039,
				0
			],
			"min":[
				-11.440845489501953,
				4.738960266113281,
				-7.0783843994140625
			],
			"type":"VEC3"
		},
		{
			"bufferView":11,
			"componentType":5126,
			"count":20,
			"type":"VEC3"
		},
		{
			"bufferView":12,
			"componentType":5126,
			"count":20,
			"type":"VEC2"
		},
		{
			"bufferView":13,
			"componentType":5126,
			"count":20,
			"type":"VEC2"
		},
		{
			"bufferView":14,
			"componentType":5123,
			"count":30,
			"type":"SCALAR"
		},
		{
			"bufferView":15,
			"componentType":5126,
			"count":8,
			"max":[
				11.440860748291016,
				-4.738948822021484,
				3.814697265625e-06
			],
			"min":[
				-11.440849304199219,
				-11.440845489501953,
				-7.078376770019531
			],
			"type":"VEC3"
		},
		{
			"bufferView":16,
			"componentType":5126,
			"count":8,
			"type":"VEC3"
		},
		{
			"bufferView":17,
			"componentType":5126,
			"count":8,
			"type":"VEC2"
		},
		{
			"bufferView":18,
			"componentType":5126,
			"count":8,
			"type":"VEC2"
		},
		{
			"bufferView":19,
			"componentType":5123,
			"count":12,
			"type":"SCALAR"
		},
		{
			"bufferView":20,
			"componentType":5126,
			"count":8,
			"max":[
				11.440860748291016,
				4.738964080810547,
				0
			],
			"min":[
				-11.440849304199219,
				-4.738948822021484,
				-7.078380584716797
			],
			"type":"VEC3"
		},
		{
			"bufferView":21,
			"componentType":5126,
			"count":8,
			"type":"VEC3"
		},
		{
			"bufferView":22,
			"componentType":5126,
			"count":8,
			"type":"VEC2"
		},
		{
			"bufferView":23,
			"componentType":5126,
			"count":8,
			"type":"VEC2"
		},
		{
			"bufferView":24,
			"componentType":5123,
			"count":12,
			"type":"SCALAR"
		},
		{
			"bufferView":25,
			"componentType":5126,
			"count":32,
			"max":[
				11.440860748291016,
				11.440853118896484,
				-7.078376770019531
			],
			"min":[
				-11.440849304199219,
				-11.440845489501953,
				-8.468643188476562
			],
			"type":"VEC3"
		},
		{
			"bufferView":26,
			"componentType":5126,
			"count":32,
			"type":"VEC3"
		},
		{
			"bufferView":27,
			"componentType":5126,
			"count":32,
			"type":"VEC2"
		},
		{
			"bufferView":28,
			"componentType":5126,
			"count":32,
			"type":"VEC2"
		},
		{
			"bufferView":29,
			"componentType":5123,
			"count":48,
			"type":"SCALAR"
		},
		{
			"bufferView":30,
			"componentType":5126,
			"count":12,
			"max":[
				1.4034347534179688,
				-0.5813179016113281,
				-12.149612426757812
			],
			"min":[
				-1.4034309387207031,
				-1.4034347534179688,
				-17.191303253173828
			],
			"type":"VEC3"
		},
		{
			"bufferView":31,
			"componentType":5126,
			"count":12,
			"type":"VEC3"
		},
		{
			"bufferView":32,
			"componentType":5126,
			"count":12,
			"type":"VEC2"
		},
		{
			"bufferView":33,
			"componentType":5126,
			"count":12,
			"type":"VEC2"
		},
		{
			"bufferView":34,
			"componentType":5123,
			"count":18,
			"type":"SCALAR"
		},
		{
			"bufferView":35,
			"componentType":5126,
			"count":12,
			"max":[
				1.4034309387207031,
				1.4034309387207031,
				-12.149612426757812
			],
			"min":[
				-1.4034309387207031,
				0.5813179016113281,
				-17.191295623779297
			],
			"type":"VEC3"
		},
		{
			"bufferView":36,
			"componentType":5126,
			"count":12,
			"type":"VEC3"
		},
		{
			"bufferView":37,
			"componentType":5126,
			"count":12,
			"type":"VEC2"
		},
		{
			"bufferView":38,
			"componentType":5126,
			"count":12,
			"type":"VEC2"
		},
		{
			"bufferView":39,
			"componentType":5123,
			"count":18,
			"type":"SCALAR"
		},
		{
			"bufferView":40,
			"componentType":5126,
			"count":4,
			"max":[
				1.4034347534179688,
				0.5813179016113281,
				-12.149612426757812
			],
			"min":[
				1.4034309387207031,
				-0.5813217163085938,
				-17.191299438476562
			],
			"type":"VEC3"
		},
		{
			"bufferView":41,
			"componentType":5126,
			"count":4,
			"type":"VEC3"
		},
		{
			"bufferView":42,
			"componentType":5126,
			"count":4,
			"type":"VEC2"
		},
		{
			"bufferView":43,
			"componentType":5126,
			"count":4,
			"type":"VEC2"
		},
		{
			"bufferView":44,
			"componentType":5123,
			"count":6,
			"type":"SCALAR"
		},
		{
			"bufferView":45,
			"componentType":5126,
			"count":4,
			"max":[
				-1.4034309387207031,
				0.5813217163085938,
				-12.149612426757812
			],
			"min":[
				-1.4034309387207031,
				-0.5813217163085938,
				-17.191299438476562
			],
			"type":"VEC3"
		},
		{
			"bufferView":46,
			"componentType":5126,
			"count":4,
			"type":"VEC3"
		},
		{
			"bufferView":47,
			"componentType":5126,
			"count":4,
			"type":"VEC2"
		},
		{
			"bufferView":48,
			"componentType":5126,
			"count":4,
			"type":"VEC2"
		},
		{
			"bufferView":49,
			"componentType":5123,
			"count":6,
			"type":"SCALAR"
		},
		{
			"bufferView":50,
			"componentType":5126,
			"count":4,
			"max":[
				0.5,
				0,
				0.5
			],
			"min":[
				-0.5,
				0,
				-0.5
			],
			"type":"VEC3"
		},
		{
			"bufferView":51,
			"componentType":5126,
			"count":4,
			"type":"VEC3"
		},
		{
			"bufferView":52,
			"componentType":5126,
			"count":4,
			"type":"VEC2"
		},
		{
			"bufferView":53,
			"componentType":5123,
			"count":6,
			"type":"SCALAR"
		}
	],
	"bufferViews":[
		{
			"buffer":0,
			"byteLength":768,
			"byteOffset":0,
			"target":34962
		},
		{
			"buffer":0,
			"byteLength":768,
			"byteOffset":768,
			"target":34962
		},
		{
			"buffer":0,
			"byteLength":512,
			"byteOffset":1536,
			"target":34962
		},
		{
			"buffer":0,
			"byteLength":512,
			"byteOffset":2048,
			"target":34962
		},
		{
			"buffer":0,
			"byteLength":240,
			"byteOffset":2560,
			"target":34963
		},
		{
			"buffer":0,
			"byteLength":48,
			"byteOffset":2800,
			"target":34962
		},
		{
			"buffer":0,
			"byteLength":48,
			"byteOffset":2848,
			"target":34962
		},
		{
			"buffer":0,
			"byteLength":32,
			"byteOffset":2896,
			"target":34962
		},
		{
			"buffer":0,
			"byteLength":32,
			"byteOffset":2928,
			"target":34962
		},
		{
			"buffer":0,
			"byteLength":12,
			"byteOffset":2960,
			"target":34963
		},
		{
			"buffer":0,
			"byteLength":240,
			"byteOffset":2972,
			"target":34962
		},
		{
			"buffer":0,
			"byteLength":240,
			"byteOffset":3212,
			"target":34962
		},
		{
			"buffer":0,
			"byteLength":160,
			"byteOffset":3452,
			"target":34962
		},
		{
			"buffer":0,
			"byteLength":160,
			"byteOffset":3612,
			"target":34962
		},
		{
			"buffer":0,
			"byteLength":60,
			"byteOffset":3772,
			"target":34963
		},
		{
			"buffer":0,
			"byteLength":96,
			"byteOffset":3832,
			"target":34962
		},
		{
			"buffer":0,
			"byteLength":96,
			"byteOffset":3928,
			"target":34962
		},
		{
			"buffer":0,
			"byteLength":64,
			"byteOffset":4024,
			"target":34962
		},
		{
			"buffer":0,
			"byteLength":64,
			"byteOffset":4088,
			"target":34962
		},
		{
			"buffer":0,
			"byteLength":24,
			"byteOffset":4152,
			"target":34963
		},
		{
			"buffer":0,
			"byteLength":96,
			"byteOffset":4176,
			"target":34962
		},
		{
			"buffer":0,
			"byteLength":96,
			"byteOffset":4272,
			"target":34962
		},
		{
			"buffer":0,
			"byteLength":64,
			"byteOffset":4368,
			"target":34962
		},
		{
			"buffer":0,
			"byteLength":64,
			"byteOffset":4432,
			"target":34962
		},
		{
			"buffer":0,
			"byteLength":24,
			"byteOffset":4496,
			"target":34963
		},
		{
			"buffer":0,
			"byteLength":384,
			"byteOffset":4520,
			"target":34962
		},
		{
			"buffer":0,
			"byteLength":384,
			"byteOffset":4904,
			"target":34962
		},
		{
			"buffer":0,
			"byteLength":256,
			"byteOffset":5288,
			"target":34962
		},
		{
			"buffer":0,
			"byteLength":256,
			"byteOffset":5544,
			"target":34962
		},
		{
			"buffer":0,
			"byteLength":96,
			"byteOffset":5800,
			"target":34963
		},
		{
			"buffer":0,
			"byteLength":144,
			"byteOffset":5896,
			"target":34962
		},
		{
			"buffer":0,
			"byteLength":144,
			"byteOffset":6040,
			"target":34962
		},
		{
			"buffer":0,
			"byteLength":96,
			"byteOffset":6184,
			"target":34962
		},
		{
			"buffer":0,
			"byteLength":96,
			"byteOffset":6280,
			"target":34962
		},
		{
			"buffer":0,
			"byteLength":36,
			"byteOffset":6376,
			"target":34963
		},
		{
			"buffer":0,
			"byteLength":144,
			"byteOffset":6412,
			"target":34962
		},
		{
			"buffer":0,
			"byteLength":144,
			"byteOffset":6556,
			"target":34962
		},
		{
			"buffer":0,
			"byteLength":96,
			"byteOffset":6700,
			"target":34962
		},
		{
			"buffer":0,
			"byteLength":96,
			"byteOffset":6796,
			"target":34962
		},
		{
			"buffer":0,
			"byteLength":36,
			"byteOffset":6892,
			"target":34963
		},
		{
			"buffer":0,
			"byteLength":48,
			"byteOffset":6928,
			"target":34962
		},
		{
			"buffer":0,
			"byteLength":48,
			"byteOffset":6976,
			"target":34962
		},
		{
			"buffer":0,
			"byteLength":32,
			"byteOffset":7024,
			"target":34962
		},
		{
			"buffer":0,
			"byteLength":32,
			"byteOffset":7056,
			"target":34962
		},
		{
			"buffer":0,
			"byteLength":12,
			"byteOffset":7088,
			"target":34963
		},
		{
			"buffer":0,
			"byteLength":48,
			"byteOffset":7100,
			"target":34962
		},
		{
			"buffer":0,
			"byteLength":48,
			"byteOffset":7148,
			"target":34962
		},
		{
			"buffer":0,
			"byteLength":32,
			"byteOffset":7196,
			"target":34962
		},
		{
			"buffer":0,
			"byteLength":32,
			"byteOffset":7228,
			"target":34962
		},
		{
			"buffer":0,
			"byteLength":12,
			"byteOffset":7260,
			"target":34963
		},
		{
			"buffer":0,
			"byteLength":48,
			"byteOffset":7272,
			"target":34962
		},
		{
			"buffer":0,
			"byteLength":48,
			"byteOffset":7320,
			"target":34962
		},
		{
			"buffer":0,
			"byteLength":32,
			"byteOffset":7368,
			"target":34962
		},
		{
			"buffer":0,
			"byteLength":12,
			"byteOffset":7400,
			"target":34963
		}
	],
	"samplers":[
		{
			"magFilter":9729,
			"minFilter":9987
		}
	],
	"buffers":[
		{
			"byteLength":7412,
			"uri":"library.bin"
		}
	]
}
