{
	"asset":{
		"generator":"Khronos glTF Blender I/O v4.4.55",
		"version":"2.0"
	},
	"scene":0,
	"scenes":[
		{
			"name":"Scene",
			"nodes":[
				0,
				1
			]
		}
	],
	"nodes":[
		{
			"mesh":0,
			"name":"Maxis-3d3-mesh-77",
			"rotation":[
				0.70710688829422,
				0,
				0,
				0.7071066498756409
			]
		},
		{
			"extras":{
				"gd_node":"Decal",
				"lower_fade":9,
				"upper_fade":10
			},
			"mesh":1,
			"name":"Ground_AO",
			"scale":[
				47,
				1,
				46.99999237060547
			],
			"translation":[
				0,
				0.16664950549602509,
				0
			]
		}
	],
	"materials":[
		{
			"name":"matcolour-16.001",
			"occlusionTexture":{
				"index":0,
				"texCoord":1
			},
			"pbrMetallicRoughness":{
				"baseColorFactor":[
					0.5607843399047852,
					0.062745101749897,
					0.019607843831181526,
					1
				],
				"metallicFactor":0
			}
		},
		{
			"name":"mat40-55.007",
			"occlusionTexture":{
				"index":1,
				"texCoord":1
			},
			"pbrMetallicRoughness":{
				"baseColorTexture":{
					"index":2
				},
				"metallicFactor":0
			}
		},
		{
			"name":"mat40-54.002",
			"occlusionTexture":{
				"index":3,
				"texCoord":1
			},
			"pbrMetallicRoughness":{
				"baseColorTexture":{
					"index":4
				},
				"metallicFactor":0
			}
		},
		{
			"name":"mat40-53.002",
			"occlusionTexture":{
				"index":5,
				"texCoord":1
			},
			"pbrMetallicRoughness":{
				"baseColorTexture":{
					"index":6
				},
				"metallicFactor":0
			}
		},
		{
			"name":"matcolour-128.001",
			"occlusionTexture":{
				"index":7,
				"texCoord":1
			},
			"pbrMetallicRoughness":{
				"baseColorFactor":[
					0.12156862765550613,
					0.08235294371843338,
					0.062745101749897,
					1
				],
				"metallicFactor":0
			}
		},
		{
			"name":"mat40-30.001",
			"occlusionTexture":{
				"index":8,
				"texCoord":1
			},
			"pbrMetallicRoughness":{
				"baseColorTexture":{
					"index":9
				},
				"metallicFactor":0
			}
		},
		{
			"name":"mat40-29.001",
			"occlusionTexture":{
				"index":10,
				"texCoord":1
			},
			"pbrMetallicRoughness":{
				"baseColorTexture":{
					"index":11
				},
				"metallicFactor":0
			}
		},
		{
			"name":"mat40-31.001",
			"occlusionTexture":{
				"index":12,
				"texCoord":1
			},
			"pbrMetallicRoughness":{
				"baseColorTexture":{
					"index":13
				},
				"metallicFactor":0
			}
		},
		{
			"name":"mat40-28",
			"occlusionTexture":{
				"index":14,
				"texCoord":1
			},
			"pbrMetallicRoughness":{
				"baseColorTexture":{
					"index":15
				},
				"metallicFactor":0
			}
		},
		{
			"name":"Ground_AO.001",
			"occlusionTexture":{
				"index":16
			},
			"pbrMetallicRoughness":{
				"baseColorFactor":[
					0.800000011920929,
					0.800000011920929,
					0.800000011920929,
					1
				],
				"metallicFactor":0,
				"roughnessFactor":0.5
			}
		}
	],
	"meshes":[
		{
			"name":"Maxis-3d3-mesh-77",
			"primitives":[
				{
					"attributes":{
						"POSITION":0,
						"NORMAL":1,
						"TEXCOORD_0":2,
						"TEXCOORD_1":3
					},
					"indices":4,
					"material":0
				},
				{
					"attributes":{
						"POSITION":5,
						"NORMAL":6,
						"TEXCOORD_0":7,
						"TEXCOORD_1":8
					},
					"indices":9,
					"material":1
				},
				{
					"attributes":{
						"POSITION":10,
						"NORMAL":11,
						"TEXCOORD_0":12,
						"TEXCOORD_1":13
					},
					"indices":14,
					"material":2
				},
				{
					"attributes":{
						"POSITION":15,
						"NORMAL":16,
						"TEXCOORD_0":17,
						"TEXCOORD_1":18
					},
					"indices":19,
					"material":3
				},
				{
					"attributes":{
						"POSITION":20,
						"NORMAL":21,
						"TEXCOORD_0":22,
						"TEXCOORD_1":23
					},
					"indices":24,
					"material":4
				},
				{
					"attributes":{
						"POSITION":25,
						"NORMAL":26,
						"TEXCOORD_0":27,
						"TEXCOORD_1":28
					},
					"indices":29,
					"material":5
				},
				{
					"attributes":{
						"POSITION":30,
						"NORMAL":31,
						"TEXCOORD_0":32,
						"TEXCOORD_1":33
					},
					"indices":34,
					"material":6
				},
				{
					"attributes":{
						"POSITION":35,
						"NORMAL":36,
						"TEXCOORD_0":37,
						"TEXCOORD_1":38
					},
					"indices":39,
					"material":7
				},
				{
					"attributes":{
						"POSITION":40,
						"NORMAL":41,
						"TEXCOORD_0":42,
						"TEXCOORD_1":43
					},
					"indices":44,
					"material":8
				}
			]
		},
		{
			"name":"Plane.001",
			"primitives":[
				{
					"attributes":{
						"POSITION":45,
						"NORMAL":46,
						"TEXCOORD_0":47
					},
					"indices":48,
					"material":9
				}
			]
		}
	],
	"textures":[
		{
			"sampler":0,
			"source":0
		},
		{
			"sampler":0,
			"source":0
		},
		{
			"sampler":0,
			"source":1
		},
		{
			"sampler":0,
			"source":0
		},
		{
			"sampler":0,
			"source":2
		},
		{
			"sampler":0,
			"source":0
		},
		{
			"sampler":0,
			"source":3
		},
		{
			"sampler":0,
			"source":0
		},
		{
			"sampler":0,
			"source":0
		},
		{
			"sampler":0,
			"source":4
		},
		{
			"sampler":0,
			"source":0
		},
		{
			"sampler":0,
			"source":5
		},
		{
			"sampler":0,
			"source":0
		},
		{
			"sampler":0,
			"source":6
		},
		{
			"sampler":0,
			"source":0
		},
		{
			"sampler":0,
			"source":7
		},
		{
			"sampler":0,
			"source":8
		}
	],
	"images":[
		{
			"mimeType":"image/png",
			"name":"marina.png",
			"uri":"../../Textures/ambient_occlusion/Buildings/marina.png"
		},
		{
			"mimeType":"image/png",
			"name":"tex40-55",
			"uri":"../../Textures/tex40-55.png"
		},
		{
			"mimeType":"image/png",
			"name":"tex40-54",
			"uri":"../../Textures/tex40-54.png"
		},
		{
			"mimeType":"image/png",
			"name":"tex40-53",
			"uri":"../../Textures/tex40-53.png"
		},
		{
			"mimeType":"image/png",
			"name":"tex40-30",
			"uri":"../../Textures/tex40-30.png"
		},
		{
			"mimeType":"image/png",
			"name":"tex40-29",
			"uri":"../../Textures/tex40-29.png"
		},
		{
			"mimeType":"image/png",
			"name":"tex40-31",
			"uri":"../../Textures/tex40-31.png"
		},
		{
			"mimeType":"image/png",
			"name":"tex40-28",
			"uri":"../../Textures/tex40-28.png"
		},
		{
			"mimeType":"image/png",
			"name":"marina_ground.png",
			"uri":"../../Textures/ambient_occlusion/Buildings/marina_ground.png"
		}
	],
	"accessors":[
		{
			"bufferView":0,
			"componentType":5126,
			"count":82,
			"max":[
				23,
				22.999996185302734,
				-0.166656494140625
			],
			"min":[
				-23,
				-22.999996185302734,
				-0.16667556762695312
			],
			"type":"VEC3"
		},
		{
			"bufferView":1,
			"componentType":5126,
			"count":82,
			"type":"VEC3"
		},
		{
			"bufferView":2,
			"componentType":5126,
			"count":82,
			"type":"VEC2"
		},
		{
			"bufferView":3,
			"componentType":5126,
			"count":82,
			"type":"VEC2"
		},
		{
			"bufferView":4,
			"componentType":5123,
			"count":132,
			"type":"SCALAR"
		},
		{
			"bufferView":5,
			"componentType":5126,
			"count":8,
			"max":[
				10.029537200927734,
				2.6164016723632812,
				-0.16666793823242188
			],
			"min":[
				-8.939369201660156,
				2.6163978576660156,
				-6.666664123535156
			],
			"type":"VEC3"
		},
		{
			"bufferView":6,
			"componentType":5126,
			"count":8,
			"type":"VEC3"
		},
		{
			"bufferView":7,
			"componentType":5126,
			"count":8,
			"type":"VEC2"
		},
		{
			"bufferView":8,
			"componentType":5126,
			"count":8,
			"type":"VEC2"
		},
		{
			"bufferView":9,
			"componentType":5123,
			"count":18,
			"type":"SCALAR"
		},
		{
			"bufferView":10,
			"componentType":5126,
			"count":7,
			"max":[
				10.029537200927734,
				5.429035186767578,
				-0.16666793823242188
			],
			"min":[
				2.932544708251953,
				-8.503303527832031,
				-9.666664123535156
			],
			"type":"VEC3"
		},
		{
			"bufferView":11,
			"componentType":5126,
			"count":7,
			"type":"VEC3"
		},
		{
			"bufferView":12,
			"componentType":5126,
			"count":7,
			"type":"VEC2"
		},
		{
			"bufferView":13,
			"componentType":5126,
			"count":7,
			"type":"VEC2"
		},
		{
			"bufferView":14,
			"componentType":5123,
			"count":9,
			"type":"SCALAR"
		},
		{
			"bufferView":15,
			"componentType":5126,
			"count":7,
			"max":[
				-7.974571228027344,
				5.429035186767578,
				-0.16666793823242188
			],
			"min":[
				-8.939369201660156,
				-8.503303527832031,
				-9.666664123535156
			],
			"type":"VEC3"
		},
		{
			"bufferView":16,
			"componentType":5126,
			"count":7,
			"type":"VEC3"
		},
		{
			"bufferView":17,
			"componentType":5126,
			"count":7,
			"type":"VEC2"
		},
		{
			"bufferView":18,
			"componentType":5126,
			"count":7,
			"type":"VEC2"
		},
		{
			"bufferView":19,
			"componentType":5123,
			"count":9,
			"type":"SCALAR"
		},
		{
			"bufferView":20,
			"componentType":5126,
			"count":12,
			"max":[
				10.029537200927734,
				5.4290313720703125,
				-3.6106109619140625
			],
			"min":[
				-8.939369201660156,
				-8.503303527832031,
				-9.666664123535156
			],
			"type":"VEC3"
		},
		{
			"bufferView":21,
			"componentType":5126,
			"count":12,
			"type":"VEC3"
		},
		{
			"bufferView":22,
			"componentType":5126,
			"count":12,
			"type":"VEC2"
		},
		{
			"bufferView":23,
			"componentType":5126,
			"count":12,
			"type":"VEC2"
		},
		{
			"bufferView":24,
			"componentType":5123,
			"count":18,
			"type":"SCALAR"
		},
		{
			"bufferView":25,
			"componentType":5126,
			"count":4,
			"max":[
				10.029537200927734,
				2.6164016723632812,
				-0.16666030883789062
			],
			"min":[
				10.029537200927734,
				-8.503303527832031,
				-6.666664123535156
			],
			"type":"VEC3"
		},
		{
			"bufferView":26,
			"componentType":5126,
			"count":4,
			"type":"VEC3"
		},
		{
			"bufferView":27,
			"componentType":5126,
			"count":4,
			"type":"VEC2"
		},
		{
			"bufferView":28,
			"componentType":5126,
			"count":4,
			"type":"VEC2"
		},
		{
			"bufferView":29,
			"componentType":5123,
			"count":6,
			"type":"SCALAR"
		},
		{
			"bufferView":30,
			"componentType":5126,
			"count":4,
			"max":[
				-8.939369201660156,
				2.6164016723632812,
				-0.16666030883789062
			],
			"min":[
				-8.939369201660156,
				-8.503303527832031,
				-6.666664123535156
			],
			"type":"VEC3"
		},
		{
			"bufferView":31,
			"componentType":5126,
			"count":4,
			"type":"VEC3"
		},
		{
			"bufferView":32,
			"componentType":5126,
			"count":4,
			"type":"VEC2"
		},
		{
			"bufferView":33,
			"componentType":5126,
			"count":4,
			"type":"VEC2"
		},
		{
			"bufferView":34,
			"componentType":5123,
			"count":6,
			"type":"SCALAR"
		},
		{
			"bufferView":35,
			"componentType":5126,
			"count":4,
			"max":[
				2.932544708251953,
				5.429035186767578,
				-0.16666793823242188
			],
			"min":[
				-7.974571228027344,
				5.4290313720703125,
				-3.6106109619140625
			],
			"type":"VEC3"
		},
		{
			"bufferView":36,
			"componentType":5126,
			"count":4,
			"type":"VEC3"
		},
		{
			"bufferView":37,
			"componentType":5126,
			"count":4,
			"type":"VEC2"
		},
		{
			"bufferView":38,
			"componentType":5126,
			"count":4,
			"type":"VEC2"
		},
		{
			"bufferView":39,
			"componentType":5123,
			"count":6,
			"type":"SCALAR"
		},
		{
			"bufferView":40,
			"componentType":5126,
			"count":4,
			"max":[
				10.029537200927734,
				-8.503299713134766,
				-0.16666030883789062
			],
			"min":[
				-8.939369201660156,
				-8.503303527832031,
				-6.666660308837891
			],
			"type":"VEC3"
		},
		{
			"bufferView":41,
			"componentType":5126,
			"count":4,
			"type":"VEC3"
		},
		{
			"bufferView":42,
			"componentType":5126,
			"count":4,
			"type":"VEC2"
		},
		{
			"bufferView":43,
			"componentType":5126,
			"count":4,
			"type":"VEC2"
		},
		{
			"bufferView":44,
			"componentType":5123,
			"count":6,
			"type":"SCALAR"
		},
		{
			"bufferView":45,
			"componentType":5126,
			"count":4,
			"max":[
				0.5,
				0,
				0.5
			],
			"min":[
				-0.5,
				0,
				-0.5
			],
			"type":"VEC3"
		},
		{
			"bufferView":46,
			"componentType":5126,
			"count":4,
			"type":"VEC3"
		},
		{
			"bufferView":47,
			"componentType":5126,
			"count":4,
			"type":"VEC2"
		},
		{
			"bufferView":48,
			"componentType":5123,
			"count":6,
			"type":"SCALAR"
		}
	],
	"bufferViews":[
		{
			"buffer":0,
			"byteLength":984,
			"byteOffset":0,
			"target":34962
		},
		{
			"buffer":0,
			"byteLength":984,
			"byteOffset":984,
			"target":34962
		},
		{
			"buffer":0,
			"byteLength":656,
			"byteOffset":1968,
			"target":34962
		},
		{
			"buffer":0,
			"byteLength":656,
			"byteOffset":2624,
			"target":34962
		},
		{
			"buffer":0,
			"byteLength":264,
			"byteOffset":3280,
			"target":34963
		},
		{
			"buffer":0,
			"byteLength":96,
			"byteOffset":3544,
			"target":34962
		},
		{
			"buffer":0,
			"byteLength":96,
			"byteOffset":3640,
			"target":34962
		},
		{
			"buffer":0,
			"byteLength":64,
			"byteOffset":3736,
			"target":34962
		},
		{
			"buffer":0,
			"byteLength":64,
			"byteOffset":3800,
			"target":34962
		},
		{
			"buffer":0,
			"byteLength":36,
			"byteOffset":3864,
			"target":34963
		},
		{
			"buffer":0,
			"byteLength":84,
			"byteOffset":3900,
			"target":34962
		},
		{
			"buffer":0,
			"byteLength":84,
			"byteOffset":3984,
			"target":34962
		},
		{
			"buffer":0,
			"byteLength":56,
			"byteOffset":4068,
			"target":34962
		},
		{
			"buffer":0,
			"byteLength":56,
			"byteOffset":4124,
			"target":34962
		},
		{
			"buffer":0,
			"byteLength":18,
			"byteOffset":4180,
			"target":34963
		},
		{
			"buffer":0,
			"byteLength":84,
			"byteOffset":4200,
			"target":34962
		},
		{
			"buffer":0,
			"byteLength":84,
			"byteOffset":4284,
			"target":34962
		},
		{
			"buffer":0,
			"byteLength":56,
			"byteOffset":4368,
			"target":34962
		},
		{
			"buffer":0,
			"byteLength":56,
			"byteOffset":4424,
			"target":34962
		},
		{
			"buffer":0,
			"byteLength":18,
			"byteOffset":4480,
			"target":34963
		},
		{
			"buffer":0,
			"byteLength":144,
			"byteOffset":4500,
			"target":34962
		},
		{
			"buffer":0,
			"byteLength":144,
			"byteOffset":4644,
			"target":34962
		},
		{
			"buffer":0,
			"byteLength":96,
			"byteOffset":4788,
			"target":34962
		},
		{
			"buffer":0,
			"byteLength":96,
			"byteOffset":4884,
			"target":34962
		},
		{
			"buffer":0,
			"byteLength":36,
			"byteOffset":4980,
			"target":34963
		},
		{
			"buffer":0,
			"byteLength":48,
			"byteOffset":5016,
			"target":34962
		},
		{
			"buffer":0,
			"byteLength":48,
			"byteOffset":5064,
			"target":34962
		},
		{
			"buffer":0,
			"byteLength":32,
			"byteOffset":5112,
			"target":34962
		},
		{
			"buffer":0,
			"byteLength":32,
			"byteOffset":5144,
			"target":34962
		},
		{
			"buffer":0,
			"byteLength":12,
			"byteOffset":5176,
			"target":34963
		},
		{
			"buffer":0,
			"byteLength":48,
			"byteOffset":5188,
			"target":34962
		},
		{
			"buffer":0,
			"byteLength":48,
			"byteOffset":5236,
			"target":34962
		},
		{
			"buffer":0,
			"byteLength":32,
			"byteOffset":5284,
			"target":34962
		},
		{
			"buffer":0,
			"byteLength":32,
			"byteOffset":5316,
			"target":34962
		},
		{
			"buffer":0,
			"byteLength":12,
			"byteOffset":5348,
			"target":34963
		},
		{
			"buffer":0,
			"byteLength":48,
			"byteOffset":5360,
			"target":34962
		},
		{
			"buffer":0,
			"byteLength":48,
			"byteOffset":5408,
			"target":34962
		},
		{
			"buffer":0,
			"byteLength":32,
			"byteOffset":5456,
			"target":34962
		},
		{
			"buffer":0,
			"byteLength":32,
			"byteOffset":5488,
			"target":34962
		},
		{
			"buffer":0,
			"byteLength":12,
			"byteOffset":5520,
			"target":34963
		},
		{
			"buffer":0,
			"byteLength":48,
			"byteOffset":5532,
			"target":34962
		},
		{
			"buffer":0,
			"byteLength":48,
			"byteOffset":5580,
			"target":34962
		},
		{
			"buffer":0,
			"byteLength":32,
			"byteOffset":5628,
			"target":34962
		},
		{
			"buffer":0,
			"byteLength":32,
			"byteOffset":5660,
			"target":34962
		},
		{
			"buffer":0,
			"byteLength":12,
			"byteOffset":5692,
			"target":34963
		},
		{
			"buffer":0,
			"byteLength":48,
			"byteOffset":5704,
			"target":34962
		},
		{
			"buffer":0,
			"byteLength":48,
			"byteOffset":5752,
			"target":34962
		},
		{
			"buffer":0,
			"byteLength":32,
			"byteOffset":5800,
			"target":34962
		},
		{
			"buffer":0,
			"byteLength":12,
			"byteOffset":5832,
			"target":34963
		}
	],
	"samplers":[
		{
			"magFilter":9729,
			"minFilter":9987
		}
	],
	"buffers":[
		{
			"byteLength":5844,
			"uri":"marina.bin"
		}
	]
}
