{
	"asset":{
		"generator":"Khronos glTF Blender I/O v4.4.55",
		"version":"2.0"
	},
	"scene":0,
	"scenes":[
		{
			"name":"Scene",
			"nodes":[
				0,
				1
			]
		}
	],
	"nodes":[
		{
			"mesh":0,
			"name":"Maxis-3d1-mesh-52",
			"rotation":[
				0.70710688829422,
				0,
				0,
				0.7071066498756409
			]
		},
		{
			"extras":{
				"gd_node":"Decal",
				"lower_fade":9,
				"upper_fade":10
			},
			"mesh":1,
			"name":"Ground_AO",
			"scale":[
				46.01154327392578,
				1,
				45.00001525878906
			],
			"translation":[
				0.005767822265625,
				-1.0479517186468001e-05,
				6.67572021484375e-06
			]
		}
	],
	"materials":[
		{
			"name":"mat40-3",
			"occlusionTexture":{
				"index":0,
				"texCoord":1
			},
			"pbrMetallicRoughness":{
				"baseColorTexture":{
					"index":1
				},
				"metallicFactor":0
			}
		},
		{
			"name":"mat40-0",
			"occlusionTexture":{
				"index":2,
				"texCoord":1
			},
			"pbrMetallicRoughness":{
				"baseColorTexture":{
					"index":3
				},
				"metallicFactor":0
			}
		},
		{
			"name":"mat40-1",
			"occlusionTexture":{
				"index":4,
				"texCoord":1
			},
			"pbrMetallicRoughness":{
				"baseColorTexture":{
					"index":5
				},
				"metallicFactor":0
			}
		},
		{
			"name":"mat40-2",
			"occlusionTexture":{
				"index":6,
				"texCoord":1
			},
			"pbrMetallicRoughness":{
				"baseColorTexture":{
					"index":7
				},
				"metallicFactor":0
			}
		},
		{
			"name":"mat2-41",
			"occlusionTexture":{
				"index":8,
				"texCoord":1
			},
			"pbrMetallicRoughness":{
				"baseColorTexture":{
					"index":9
				},
				"metallicFactor":0
			}
		},
		{
			"name":"matcolour-48.012",
			"occlusionTexture":{
				"index":10,
				"texCoord":1
			},
			"pbrMetallicRoughness":{
				"baseColorFactor":[
					0.05882352963089943,
					0.05882352963089943,
					0.05882352963089943,
					1
				],
				"metallicFactor":0
			}
		},
		{
			"name":"Ground_AO.001",
			"occlusionTexture":{
				"index":11
			},
			"pbrMetallicRoughness":{
				"baseColorFactor":[
					0.800000011920929,
					0.800000011920929,
					0.800000011920929,
					1
				],
				"metallicFactor":0,
				"roughnessFactor":0.5
			}
		}
	],
	"meshes":[
		{
			"name":"Maxis-3d1-mesh-52",
			"primitives":[
				{
					"attributes":{
						"POSITION":0,
						"NORMAL":1,
						"TEXCOORD_0":2,
						"TEXCOORD_1":3
					},
					"indices":4,
					"material":0
				},
				{
					"attributes":{
						"POSITION":5,
						"NORMAL":6,
						"TEXCOORD_0":7,
						"TEXCOORD_1":8
					},
					"indices":9,
					"material":1
				},
				{
					"attributes":{
						"POSITION":10,
						"NORMAL":11,
						"TEXCOORD_0":12,
						"TEXCOORD_1":13
					},
					"indices":14,
					"material":2
				},
				{
					"attributes":{
						"POSITION":15,
						"NORMAL":16,
						"TEXCOORD_0":17,
						"TEXCOORD_1":18
					},
					"indices":19,
					"material":3
				},
				{
					"attributes":{
						"POSITION":20,
						"NORMAL":21,
						"TEXCOORD_0":22,
						"TEXCOORD_1":23
					},
					"indices":24,
					"material":4
				},
				{
					"attributes":{
						"POSITION":25,
						"NORMAL":26,
						"TEXCOORD_0":27,
						"TEXCOORD_1":28
					},
					"indices":29,
					"material":5
				}
			]
		},
		{
			"name":"Plane.001",
			"primitives":[
				{
					"attributes":{
						"POSITION":30,
						"NORMAL":31,
						"TEXCOORD_0":32
					},
					"indices":33,
					"material":6
				}
			]
		}
	],
	"textures":[
		{
			"sampler":0,
			"source":0
		},
		{
			"sampler":0,
			"source":1
		},
		{
			"sampler":0,
			"source":0
		},
		{
			"sampler":0,
			"source":2
		},
		{
			"sampler":0,
			"source":0
		},
		{
			"sampler":0,
			"source":3
		},
		{
			"sampler":0,
			"source":0
		},
		{
			"sampler":0,
			"source":4
		},
		{
			"sampler":0,
			"source":0
		},
		{
			"sampler":0,
			"source":5
		},
		{
			"sampler":0,
			"source":0
		},
		{
			"sampler":0,
			"source":6
		}
	],
	"images":[
		{
			"mimeType":"image/png",
			"name":"museum.png",
			"uri":"../../Textures/ambient_occlusion/Buildings/museum.png"
		},
		{
			"mimeType":"image/png",
			"name":"tex40-3",
			"uri":"../../Textures/tex40-3.png"
		},
		{
			"mimeType":"image/png",
			"name":"tex40-0",
			"uri":"../../Textures/tex40-0.png"
		},
		{
			"mimeType":"image/png",
			"name":"tex40-1",
			"uri":"../../Textures/tex40-1.png"
		},
		{
			"mimeType":"image/png",
			"name":"tex40-2",
			"uri":"../../Textures/tex40-2.png"
		},
		{
			"mimeType":"image/png",
			"name":"tex2-41",
			"uri":"../../Textures/tex2-41.png"
		},
		{
			"mimeType":"image/png",
			"name":"museum_ground.png",
			"uri":"../../Textures/ambient_occlusion/Buildings/museum_ground.png"
		}
	],
	"accessors":[
		{
			"bufferView":0,
			"componentType":5126,
			"count":28,
			"max":[
				22.499996185302734,
				22.00000762939453,
				0
			],
			"min":[
				-22.500003814697266,
				-13,
				-30
			],
			"type":"VEC3"
		},
		{
			"bufferView":1,
			"componentType":5126,
			"count":28,
			"type":"VEC3"
		},
		{
			"bufferView":2,
			"componentType":5126,
			"count":28,
			"type":"VEC2"
		},
		{
			"bufferView":3,
			"componentType":5126,
			"count":28,
			"type":"VEC2"
		},
		{
			"bufferView":4,
			"componentType":5123,
			"count":42,
			"type":"SCALAR"
		},
		{
			"bufferView":5,
			"componentType":5126,
			"count":26,
			"max":[
				22.500003814697266,
				9.000003814697266,
				3.814697265625e-06
			],
			"min":[
				-22.49999237060547,
				-22.000003814697266,
				-29.999996185302734
			],
			"type":"VEC3"
		},
		{
			"bufferView":6,
			"componentType":5126,
			"count":26,
			"type":"VEC3"
		},
		{
			"bufferView":7,
			"componentType":5126,
			"count":26,
			"type":"VEC2"
		},
		{
			"bufferView":8,
			"componentType":5126,
			"count":26,
			"type":"VEC2"
		},
		{
			"bufferView":9,
			"componentType":5123,
			"count":36,
			"type":"SCALAR"
		},
		{
			"bufferView":10,
			"componentType":5126,
			"count":20,
			"max":[
				19.500003814697266,
				22,
				3.814697265625e-06
			],
			"min":[
				-22.500003814697266,
				-22.000003814697266,
				-30
			],
			"type":"VEC3"
		},
		{
			"bufferView":11,
			"componentType":5126,
			"count":20,
			"type":"VEC3"
		},
		{
			"bufferView":12,
			"componentType":5126,
			"count":20,
			"type":"VEC2"
		},
		{
			"bufferView":13,
			"componentType":5126,
			"count":20,
			"type":"VEC2"
		},
		{
			"bufferView":14,
			"componentType":5123,
			"count":30,
			"type":"SCALAR"
		},
		{
			"bufferView":15,
			"componentType":5126,
			"count":32,
			"max":[
				22.500003814697266,
				22.00000762939453,
				0
			],
			"min":[
				-4.5,
				-21.99999237060547,
				-30
			],
			"type":"VEC3"
		},
		{
			"bufferView":16,
			"componentType":5126,
			"count":32,
			"type":"VEC3"
		},
		{
			"bufferView":17,
			"componentType":5126,
			"count":32,
			"type":"VEC2"
		},
		{
			"bufferView":18,
			"componentType":5126,
			"count":32,
			"type":"VEC2"
		},
		{
			"bufferView":19,
			"componentType":5123,
			"count":48,
			"type":"SCALAR"
		},
		{
			"bufferView":20,
			"componentType":5126,
			"count":4,
			"max":[
				22.511539459228516,
				6.8223419189453125,
				0
			],
			"min":[
				22.511539459228516,
				-6.719322204589844,
				-3.691497802734375
			],
			"type":"VEC3"
		},
		{
			"bufferView":21,
			"componentType":5126,
			"count":4,
			"type":"VEC3"
		},
		{
			"bufferView":22,
			"componentType":5126,
			"count":4,
			"type":"VEC2"
		},
		{
			"bufferView":23,
			"componentType":5126,
			"count":4,
			"type":"VEC2"
		},
		{
			"bufferView":24,
			"componentType":5123,
			"count":6,
			"type":"SCALAR"
		},
		{
			"bufferView":25,
			"componentType":5126,
			"count":64,
			"max":[
				22.500003814697266,
				22.000003814697266,
				-13.954559326171875
			],
			"min":[
				-22.500003814697266,
				-22.000003814697266,
				-30
			],
			"type":"VEC3"
		},
		{
			"bufferView":26,
			"componentType":5126,
			"count":64,
			"type":"VEC3"
		},
		{
			"bufferView":27,
			"componentType":5126,
			"count":64,
			"type":"VEC2"
		},
		{
			"bufferView":28,
			"componentType":5126,
			"count":64,
			"type":"VEC2"
		},
		{
			"bufferView":29,
			"componentType":5123,
			"count":102,
			"type":"SCALAR"
		},
		{
			"bufferView":30,
			"componentType":5126,
			"count":4,
			"max":[
				0.5,
				0,
				0.5
			],
			"min":[
				-0.5,
				0,
				-0.5
			],
			"type":"VEC3"
		},
		{
			"bufferView":31,
			"componentType":5126,
			"count":4,
			"type":"VEC3"
		},
		{
			"bufferView":32,
			"componentType":5126,
			"count":4,
			"type":"VEC2"
		},
		{
			"bufferView":33,
			"componentType":5123,
			"count":6,
			"type":"SCALAR"
		}
	],
	"bufferViews":[
		{
			"buffer":0,
			"byteLength":336,
			"byteOffset":0,
			"target":34962
		},
		{
			"buffer":0,
			"byteLength":336,
			"byteOffset":336,
			"target":34962
		},
		{
			"buffer":0,
			"byteLength":224,
			"byteOffset":672,
			"target":34962
		},
		{
			"buffer":0,
			"byteLength":224,
			"byteOffset":896,
			"target":34962
		},
		{
			"buffer":0,
			"byteLength":84,
			"byteOffset":1120,
			"target":34963
		},
		{
			"buffer":0,
			"byteLength":312,
			"byteOffset":1204,
			"target":34962
		},
		{
			"buffer":0,
			"byteLength":312,
			"byteOffset":1516,
			"target":34962
		},
		{
			"buffer":0,
			"byteLength":208,
			"byteOffset":1828,
			"target":34962
		},
		{
			"buffer":0,
			"byteLength":208,
			"byteOffset":2036,
			"target":34962
		},
		{
			"buffer":0,
			"byteLength":72,
			"byteOffset":2244,
			"target":34963
		},
		{
			"buffer":0,
			"byteLength":240,
			"byteOffset":2316,
			"target":34962
		},
		{
			"buffer":0,
			"byteLength":240,
			"byteOffset":2556,
			"target":34962
		},
		{
			"buffer":0,
			"byteLength":160,
			"byteOffset":2796,
			"target":34962
		},
		{
			"buffer":0,
			"byteLength":160,
			"byteOffset":2956,
			"target":34962
		},
		{
			"buffer":0,
			"byteLength":60,
			"byteOffset":3116,
			"target":34963
		},
		{
			"buffer":0,
			"byteLength":384,
			"byteOffset":3176,
			"target":34962
		},
		{
			"buffer":0,
			"byteLength":384,
			"byteOffset":3560,
			"target":34962
		},
		{
			"buffer":0,
			"byteLength":256,
			"byteOffset":3944,
			"target":34962
		},
		{
			"buffer":0,
			"byteLength":256,
			"byteOffset":4200,
			"target":34962
		},
		{
			"buffer":0,
			"byteLength":96,
			"byteOffset":4456,
			"target":34963
		},
		{
			"buffer":0,
			"byteLength":48,
			"byteOffset":4552,
			"target":34962
		},
		{
			"buffer":0,
			"byteLength":48,
			"byteOffset":4600,
			"target":34962
		},
		{
			"buffer":0,
			"byteLength":32,
			"byteOffset":4648,
			"target":34962
		},
		{
			"buffer":0,
			"byteLength":32,
			"byteOffset":4680,
			"target":34962
		},
		{
			"buffer":0,
			"byteLength":12,
			"byteOffset":4712,
			"target":34963
		},
		{
			"buffer":0,
			"byteLength":768,
			"byteOffset":4724,
			"target":34962
		},
		{
			"buffer":0,
			"byteLength":768,
			"byteOffset":5492,
			"target":34962
		},
		{
			"buffer":0,
			"byteLength":512,
			"byteOffset":6260,
			"target":34962
		},
		{
			"buffer":0,
			"byteLength":512,
			"byteOffset":6772,
			"target":34962
		},
		{
			"buffer":0,
			"byteLength":204,
			"byteOffset":7284,
			"target":34963
		},
		{
			"buffer":0,
			"byteLength":48,
			"byteOffset":7488,
			"target":34962
		},
		{
			"buffer":0,
			"byteLength":48,
			"byteOffset":7536,
			"target":34962
		},
		{
			"buffer":0,
			"byteLength":32,
			"byteOffset":7584,
			"target":34962
		},
		{
			"buffer":0,
			"byteLength":12,
			"byteOffset":7616,
			"target":34963
		}
	],
	"samplers":[
		{
			"magFilter":9729,
			"minFilter":9987
		}
	],
	"buffers":[
		{
			"byteLength":7628,
			"uri":"museum.bin"
		}
	]
}
