{
    "asset" : {
        "generator" : "Khronos glTF Blender I/O v1.7.33",
        "version" : "2.0"
    },
    "scene" : 0,
    "scenes" : [
        {
            "name" : "Scene",
            "nodes" : [
                0
            ]
        }
    ],
    "nodes" : [
        {
            "mesh" : 0,
            "name" : "Maxis-3d3-mesh-42",
            "rotation" : [
                0.7071068286895752,
                0,
                0,
                0.7071067094802856
            ]
        }
    ],
    "materials" : [
        {
            "doubleSided" : true,
            "name" : "matcolour-48.013",
            "pbrMetallicRoughness" : {
                "baseColorFactor" : [
                    0.05882352963089943,
                    0.05882352963089943,
                    0.05882352963089943,
                    1
                ],
                "metallicFactor" : 0
            }
        },
        {
            "doubleSided" : true,
            "name" : "mat40-19",
            "pbrMetallicRoughness" : {
                "baseColorTexture" : {
                    "index" : 0
                },
                "metallicFactor" : 0
            }
        },
        {
            "doubleSided" : true,
            "name" : "mat40-16",
            "pbrMetallicRoughness" : {
                "baseColorTexture" : {
                    "index" : 1
                },
                "metallicFactor" : 0
            }
        },
        {
            "doubleSided" : true,
            "name" : "mat40-18",
            "pbrMetallicRoughness" : {
                "baseColorTexture" : {
                    "index" : 2
                },
                "metallicFactor" : 0
            }
        },
        {
            "doubleSided" : true,
            "name" : "mat40-17",
            "pbrMetallicRoughness" : {
                "baseColorTexture" : {
                    "index" : 3
                },
                "metallicFactor" : 0
            }
        },
        {
            "doubleSided" : true,
            "name" : "mat40-8",
            "pbrMetallicRoughness" : {
                "baseColorTexture" : {
                    "index" : 4
                },
                "metallicFactor" : 0
            }
        },
        {
            "doubleSided" : true,
            "name" : "mat40-11",
            "pbrMetallicRoughness" : {
                "baseColorTexture" : {
                    "index" : 5
                },
                "metallicFactor" : 0
            }
        },
        {
            "doubleSided" : true,
            "name" : "mat40-9",
            "pbrMetallicRoughness" : {
                "baseColorTexture" : {
                    "index" : 6
                },
                "metallicFactor" : 0
            }
        },
        {
            "doubleSided" : true,
            "name" : "mat40-10",
            "pbrMetallicRoughness" : {
                "baseColorTexture" : {
                    "index" : 7
                },
                "metallicFactor" : 0
            }
        },
        {
            "doubleSided" : true,
            "name" : "matcolour-0.001",
            "pbrMetallicRoughness" : {
                "baseColorFactor" : [
                    0,
                    0,
                    0,
                    1
                ],
                "metallicFactor" : 0
            }
        }
    ],
    "meshes" : [
        {
            "name" : "Maxis-3d3-mesh-42",
            "primitives" : [
                {
                    "attributes" : {
                        "POSITION" : 0,
                        "NORMAL" : 1,
                        "TEXCOORD_0" : 2
                    },
                    "indices" : 3,
                    "material" : 0
                },
                {
                    "attributes" : {
                        "POSITION" : 4,
                        "NORMAL" : 5,
                        "TEXCOORD_0" : 6
                    },
                    "indices" : 7,
                    "material" : 1
                },
                {
                    "attributes" : {
                        "POSITION" : 8,
                        "NORMAL" : 9,
                        "TEXCOORD_0" : 10
                    },
                    "indices" : 11,
                    "material" : 2
                },
                {
                    "attributes" : {
                        "POSITION" : 12,
                        "NORMAL" : 13,
                        "TEXCOORD_0" : 14
                    },
                    "indices" : 15,
                    "material" : 3
                },
                {
                    "attributes" : {
                        "POSITION" : 16,
                        "NORMAL" : 17,
                        "TEXCOORD_0" : 18
                    },
                    "indices" : 19,
                    "material" : 4
                },
                {
                    "attributes" : {
                        "POSITION" : 20,
                        "NORMAL" : 21,
                        "TEXCOORD_0" : 22
                    },
                    "indices" : 23,
                    "material" : 5
                },
                {
                    "attributes" : {
                        "POSITION" : 24,
                        "NORMAL" : 25,
                        "TEXCOORD_0" : 26
                    },
                    "indices" : 27,
                    "material" : 6
                },
                {
                    "attributes" : {
                        "POSITION" : 28,
                        "NORMAL" : 29,
                        "TEXCOORD_0" : 30
                    },
                    "indices" : 31,
                    "material" : 7
                },
                {
                    "attributes" : {
                        "POSITION" : 32,
                        "NORMAL" : 33,
                        "TEXCOORD_0" : 34
                    },
                    "indices" : 23,
                    "material" : 8
                },
                {
                    "attributes" : {
                        "POSITION" : 35,
                        "NORMAL" : 36,
                        "TEXCOORD_0" : 37
                    },
                    "indices" : 38,
                    "material" : 9
                }
            ]
        }
    ],
    "textures" : [
        {
            "sampler" : 0,
            "source" : 0
        },
        {
            "sampler" : 0,
            "source" : 1
        },
        {
            "sampler" : 0,
            "source" : 2
        },
        {
            "sampler" : 0,
            "source" : 3
        },
        {
            "sampler" : 0,
            "source" : 4
        },
        {
            "sampler" : 0,
            "source" : 5
        },
        {
            "sampler" : 0,
            "source" : 6
        },
        {
            "sampler" : 0,
            "source" : 7
        }
    ],
    "images" : [
        {
            "mimeType" : "image/png",
            "name" : "tex40-19",
            "uri" : "../../Textures/tex40-19.png"
        },
        {
            "mimeType" : "image/png",
            "name" : "tex40-16",
            "uri" : "../../Textures/tex40-16.png"
        },
        {
            "mimeType" : "image/png",
            "name" : "tex40-18",
            "uri" : "../../Textures/tex40-18.png"
        },
        {
            "mimeType" : "image/png",
            "name" : "tex40-17",
            "uri" : "../../Textures/tex40-17.png"
        },
        {
            "mimeType" : "image/png",
            "name" : "tex40-8",
            "uri" : "../../Textures/tex40-8.png"
        },
        {
            "mimeType" : "image/png",
            "name" : "tex40-11",
            "uri" : "../../Textures/tex40-11.png"
        },
        {
            "mimeType" : "image/png",
            "name" : "tex40-9",
            "uri" : "../../Textures/tex40-9.png"
        },
        {
            "mimeType" : "image/png",
            "name" : "tex40-10",
            "uri" : "../../Textures/tex40-10.png"
        }
    ],
    "accessors" : [
        {
            "bufferView" : 0,
            "componentType" : 5126,
            "count" : 9,
            "max" : [
                20.97281265258789,
                21.10584259033203,
                -23.18442153930664
            ],
            "min" : [
                -20.97281265258789,
                -20.83978271484375,
                -23.184463500976562
            ],
            "type" : "VEC3"
        },
        {
            "bufferView" : 1,
            "componentType" : 5126,
            "count" : 9,
            "type" : "VEC3"
        },
        {
            "bufferView" : 2,
            "componentType" : 5126,
            "count" : 9,
            "type" : "VEC2"
        },
        {
            "bufferView" : 3,
            "componentType" : 5123,
            "count" : 9,
            "type" : "SCALAR"
        },
        {
            "bufferView" : 4,
            "componentType" : 5126,
            "count" : 34,
            "max" : [
                20.97281265258789,
                21.105854034423828,
                -9.702312469482422
            ],
            "min" : [
                -20.97281265258789,
                11.236282348632812,
                -23.184463500976562
            ],
            "type" : "VEC3"
        },
        {
            "bufferView" : 5,
            "componentType" : 5126,
            "count" : 34,
            "type" : "VEC3"
        },
        {
            "bufferView" : 6,
            "componentType" : 5126,
            "count" : 34,
            "type" : "VEC2"
        },
        {
            "bufferView" : 7,
            "componentType" : 5123,
            "count" : 36,
            "type" : "SCALAR"
        },
        {
            "bufferView" : 8,
            "componentType" : 5126,
            "count" : 18,
            "max" : [
                20.97281265258789,
                -20.839759826660156,
                -9.702278137207031
            ],
            "min" : [
                -20.97281265258789,
                -20.83978271484375,
                -23.18442153930664
            ],
            "type" : "VEC3"
        },
        {
            "bufferView" : 9,
            "componentType" : 5126,
            "count" : 18,
            "type" : "VEC3"
        },
        {
            "bufferView" : 10,
            "componentType" : 5126,
            "count" : 18,
            "type" : "VEC2"
        },
        {
            "bufferView" : 11,
            "componentType" : 5123,
            "count" : 18,
            "type" : "SCALAR"
        },
        {
            "bufferView" : 12,
            "componentType" : 5126,
            "count" : 18,
            "max" : [
                20.97281265258789,
                11.23629379272461,
                -9.702285766601562
            ],
            "min" : [
                20.97281265258789,
                -20.83978271484375,
                -23.1844482421875
            ],
            "type" : "VEC3"
        },
        {
            "bufferView" : 13,
            "componentType" : 5126,
            "count" : 18,
            "type" : "VEC3"
        },
        {
            "bufferView" : 14,
            "componentType" : 5126,
            "count" : 18,
            "type" : "VEC2"
        },
        {
            "bufferView" : 15,
            "componentType" : 5123,
            "count" : 18,
            "type" : "SCALAR"
        },
        {
            "bufferView" : 16,
            "componentType" : 5126,
            "count" : 18,
            "max" : [
                -20.97281265258789,
                21.105854034423828,
                -9.702278137207031
            ],
            "min" : [
                -20.97281265258789,
                -20.83978271484375,
                -23.184463500976562
            ],
            "type" : "VEC3"
        },
        {
            "bufferView" : 17,
            "componentType" : 5126,
            "count" : 18,
            "type" : "VEC3"
        },
        {
            "bufferView" : 18,
            "componentType" : 5126,
            "count" : 18,
            "type" : "VEC2"
        },
        {
            "bufferView" : 19,
            "componentType" : 5123,
            "count" : 18,
            "type" : "SCALAR"
        },
        {
            "bufferView" : 20,
            "componentType" : 5126,
            "count" : 6,
            "max" : [
                20.97281265258789,
                -20.83974838256836,
                0.07276535034179688
            ],
            "min" : [
                -20.97281265258789,
                -20.83977508544922,
                -8.065948486328125
            ],
            "type" : "VEC3"
        },
        {
            "bufferView" : 21,
            "componentType" : 5126,
            "count" : 6,
            "type" : "VEC3"
        },
        {
            "bufferView" : 22,
            "componentType" : 5126,
            "count" : 6,
            "type" : "VEC2"
        },
        {
            "bufferView" : 23,
            "componentType" : 5123,
            "count" : 6,
            "type" : "SCALAR"
        },
        {
            "bufferView" : 24,
            "componentType" : 5126,
            "count" : 12,
            "max" : [
                20.97281265258789,
                21.105865478515625,
                0.07273483276367188
            ],
            "min" : [
                -20.97281265258789,
                11.236289978027344,
                -8.06597900390625
            ],
            "type" : "VEC3"
        },
        {
            "bufferView" : 25,
            "componentType" : 5126,
            "count" : 12,
            "type" : "VEC3"
        },
        {
            "bufferView" : 26,
            "componentType" : 5126,
            "count" : 12,
            "type" : "VEC2"
        },
        {
            "bufferView" : 27,
            "componentType" : 5123,
            "count" : 12,
            "type" : "SCALAR"
        },
        {
            "bufferView" : 28,
            "componentType" : 5126,
            "count" : 6,
            "max" : [
                -20.97281265258789,
                21.105865478515625,
                0.07276535034179688
            ],
            "min" : [
                -20.97281265258789,
                -20.839771270751953,
                -8.065975189208984
            ],
            "type" : "VEC3"
        },
        {
            "bufferView" : 29,
            "componentType" : 5126,
            "count" : 6,
            "type" : "VEC3"
        },
        {
            "bufferView" : 30,
            "componentType" : 5126,
            "count" : 6,
            "type" : "VEC2"
        },
        {
            "bufferView" : 31,
            "componentType" : 5123,
            "count" : 6,
            "type" : "SCALAR"
        },
        {
            "bufferView" : 32,
            "componentType" : 5126,
            "count" : 6,
            "max" : [
                20.97281265258789,
                11.23630142211914,
                0.07275772094726562
            ],
            "min" : [
                20.97281265258789,
                -20.839771270751953,
                -8.065975189208984
            ],
            "type" : "VEC3"
        },
        {
            "bufferView" : 33,
            "componentType" : 5126,
            "count" : 6,
            "type" : "VEC3"
        },
        {
            "bufferView" : 34,
            "componentType" : 5126,
            "count" : 6,
            "type" : "VEC2"
        },
        {
            "bufferView" : 35,
            "componentType" : 5126,
            "count" : 86,
            "max" : [
                20.97281265258789,
                21.105854034423828,
                -8.065940856933594
            ],
            "min" : [
                -20.97281265258789,
                -20.839771270751953,
                -19.843765258789062
            ],
            "type" : "VEC3"
        },
        {
            "bufferView" : 36,
            "componentType" : 5126,
            "count" : 86,
            "type" : "VEC3"
        },
        {
            "bufferView" : 37,
            "componentType" : 5126,
            "count" : 86,
            "type" : "VEC2"
        },
        {
            "bufferView" : 38,
            "componentType" : 5123,
            "count" : 90,
            "type" : "SCALAR"
        }
    ],
    "bufferViews" : [
        {
            "buffer" : 0,
            "byteLength" : 108,
            "byteOffset" : 0
        },
        {
            "buffer" : 0,
            "byteLength" : 108,
            "byteOffset" : 108
        },
        {
            "buffer" : 0,
            "byteLength" : 72,
            "byteOffset" : 216
        },
        {
            "buffer" : 0,
            "byteLength" : 18,
            "byteOffset" : 288
        },
        {
            "buffer" : 0,
            "byteLength" : 408,
            "byteOffset" : 308
        },
        {
            "buffer" : 0,
            "byteLength" : 408,
            "byteOffset" : 716
        },
        {
            "buffer" : 0,
            "byteLength" : 272,
            "byteOffset" : 1124
        },
        {
            "buffer" : 0,
            "byteLength" : 72,
            "byteOffset" : 1396
        },
        {
            "buffer" : 0,
            "byteLength" : 216,
            "byteOffset" : 1468
        },
        {
            "buffer" : 0,
            "byteLength" : 216,
            "byteOffset" : 1684
        },
        {
            "buffer" : 0,
            "byteLength" : 144,
            "byteOffset" : 1900
        },
        {
            "buffer" : 0,
            "byteLength" : 36,
            "byteOffset" : 2044
        },
        {
            "buffer" : 0,
            "byteLength" : 216,
            "byteOffset" : 2080
        },
        {
            "buffer" : 0,
            "byteLength" : 216,
            "byteOffset" : 2296
        },
        {
            "buffer" : 0,
            "byteLength" : 144,
            "byteOffset" : 2512
        },
        {
            "buffer" : 0,
            "byteLength" : 36,
            "byteOffset" : 2656
        },
        {
            "buffer" : 0,
            "byteLength" : 216,
            "byteOffset" : 2692
        },
        {
            "buffer" : 0,
            "byteLength" : 216,
            "byteOffset" : 2908
        },
        {
            "buffer" : 0,
            "byteLength" : 144,
            "byteOffset" : 3124
        },
        {
            "buffer" : 0,
            "byteLength" : 36,
            "byteOffset" : 3268
        },
        {
            "buffer" : 0,
            "byteLength" : 72,
            "byteOffset" : 3304
        },
        {
            "buffer" : 0,
            "byteLength" : 72,
            "byteOffset" : 3376
        },
        {
            "buffer" : 0,
            "byteLength" : 48,
            "byteOffset" : 3448
        },
        {
            "buffer" : 0,
            "byteLength" : 12,
            "byteOffset" : 3496
        },
        {
            "buffer" : 0,
            "byteLength" : 144,
            "byteOffset" : 3508
        },
        {
            "buffer" : 0,
            "byteLength" : 144,
            "byteOffset" : 3652
        },
        {
            "buffer" : 0,
            "byteLength" : 96,
            "byteOffset" : 3796
        },
        {
            "buffer" : 0,
            "byteLength" : 24,
            "byteOffset" : 3892
        },
        {
            "buffer" : 0,
            "byteLength" : 72,
            "byteOffset" : 3916
        },
        {
            "buffer" : 0,
            "byteLength" : 72,
            "byteOffset" : 3988
        },
        {
            "buffer" : 0,
            "byteLength" : 48,
            "byteOffset" : 4060
        },
        {
            "buffer" : 0,
            "byteLength" : 12,
            "byteOffset" : 4108
        },
        {
            "buffer" : 0,
            "byteLength" : 72,
            "byteOffset" : 4120
        },
        {
            "buffer" : 0,
            "byteLength" : 72,
            "byteOffset" : 4192
        },
        {
            "buffer" : 0,
            "byteLength" : 48,
            "byteOffset" : 4264
        },
        {
            "buffer" : 0,
            "byteLength" : 1032,
            "byteOffset" : 4312
        },
        {
            "buffer" : 0,
            "byteLength" : 1032,
            "byteOffset" : 5344
        },
        {
            "buffer" : 0,
            "byteLength" : 688,
            "byteOffset" : 6376
        },
        {
            "buffer" : 0,
            "byteLength" : 180,
            "byteOffset" : 7064
        }
    ],
    "samplers" : [
        {
            "magFilter" : 9729,
            "minFilter" : 9987
        }
    ],
    "buffers" : [
        {
            "byteLength" : 7244,
            "uri" : "parking_lot.bin"
        }
    ]
}
