{
	"asset":{
		"generator":"Khronos glTF Blender I/O v4.4.55",
		"version":"2.0"
	},
	"scene":0,
	"scenes":[
		{
			"name":"Scene",
			"nodes":[
				0,
				1
			]
		}
	],
	"nodes":[
		{
			"mesh":0,
			"name":"Maxis-3d3-mesh-42",
			"rotation":[
				0.70710688829422,
				0,
				0,
				0.7071066498756409
			]
		},
		{
			"extras":{
				"gd_node":"Decal",
				"lower_fade":9,
				"upper_fade":10
			},
			"mesh":1,
			"name":"Ground_AO",
			"scale":[
				42.94562530517578,
				1,
				42.94565200805664
			],
			"translation":[
				0,
				-0.07277173548936844,
				0.13304519653320312
			]
		}
	],
	"materials":[
		{
			"name":"matcolour-48.013",
			"occlusionTexture":{
				"index":0,
				"texCoord":1
			},
			"pbrMetallicRoughness":{
				"baseColorFactor":[
					0.05882352963089943,
					0.05882352963089943,
					0.05882352963089943,
					1
				],
				"metallicFactor":0
			}
		},
		{
			"name":"mat40-19",
			"occlusionTexture":{
				"index":1,
				"texCoord":1
			},
			"pbrMetallicRoughness":{
				"baseColorTexture":{
					"index":2
				},
				"metallicFactor":0
			}
		},
		{
			"name":"mat40-16",
			"occlusionTexture":{
				"index":3,
				"texCoord":1
			},
			"pbrMetallicRoughness":{
				"baseColorTexture":{
					"index":4
				},
				"metallicFactor":0
			}
		},
		{
			"name":"mat40-18",
			"occlusionTexture":{
				"index":5,
				"texCoord":1
			},
			"pbrMetallicRoughness":{
				"baseColorTexture":{
					"index":6
				},
				"metallicFactor":0
			}
		},
		{
			"name":"mat40-17",
			"occlusionTexture":{
				"index":7,
				"texCoord":1
			},
			"pbrMetallicRoughness":{
				"baseColorTexture":{
					"index":8
				},
				"metallicFactor":0
			}
		},
		{
			"name":"mat40-8",
			"occlusionTexture":{
				"index":9,
				"texCoord":1
			},
			"pbrMetallicRoughness":{
				"baseColorTexture":{
					"index":10
				},
				"metallicFactor":0
			}
		},
		{
			"name":"mat40-11",
			"occlusionTexture":{
				"index":11,
				"texCoord":1
			},
			"pbrMetallicRoughness":{
				"baseColorTexture":{
					"index":12
				},
				"metallicFactor":0
			}
		},
		{
			"name":"mat40-9",
			"occlusionTexture":{
				"index":13,
				"texCoord":1
			},
			"pbrMetallicRoughness":{
				"baseColorTexture":{
					"index":14
				},
				"metallicFactor":0
			}
		},
		{
			"name":"mat40-10",
			"occlusionTexture":{
				"index":15,
				"texCoord":1
			},
			"pbrMetallicRoughness":{
				"baseColorTexture":{
					"index":16
				},
				"metallicFactor":0
			}
		},
		{
			"name":"matcolour-0.001",
			"occlusionTexture":{
				"index":17,
				"texCoord":1
			},
			"pbrMetallicRoughness":{
				"baseColorFactor":[
					0,
					0,
					0,
					1
				],
				"metallicFactor":0
			}
		},
		{
			"name":"Ground_AO.001",
			"occlusionTexture":{
				"index":18
			},
			"pbrMetallicRoughness":{
				"baseColorFactor":[
					0.800000011920929,
					0.800000011920929,
					0.800000011920929,
					1
				],
				"metallicFactor":0,
				"roughnessFactor":0.5
			}
		}
	],
	"meshes":[
		{
			"name":"Maxis-3d3-mesh-42",
			"primitives":[
				{
					"attributes":{
						"POSITION":0,
						"NORMAL":1,
						"TEXCOORD_0":2,
						"TEXCOORD_1":3
					},
					"indices":4,
					"material":0
				},
				{
					"attributes":{
						"POSITION":5,
						"NORMAL":6,
						"TEXCOORD_0":7,
						"TEXCOORD_1":8
					},
					"indices":9,
					"material":1
				},
				{
					"attributes":{
						"POSITION":10,
						"NORMAL":11,
						"TEXCOORD_0":12,
						"TEXCOORD_1":13
					},
					"indices":14,
					"material":2
				},
				{
					"attributes":{
						"POSITION":15,
						"NORMAL":16,
						"TEXCOORD_0":17,
						"TEXCOORD_1":18
					},
					"indices":19,
					"material":3
				},
				{
					"attributes":{
						"POSITION":20,
						"NORMAL":21,
						"TEXCOORD_0":22,
						"TEXCOORD_1":23
					},
					"indices":24,
					"material":4
				},
				{
					"attributes":{
						"POSITION":25,
						"NORMAL":26,
						"TEXCOORD_0":27,
						"TEXCOORD_1":28
					},
					"indices":29,
					"material":5
				},
				{
					"attributes":{
						"POSITION":30,
						"NORMAL":31,
						"TEXCOORD_0":32,
						"TEXCOORD_1":33
					},
					"indices":34,
					"material":6
				},
				{
					"attributes":{
						"POSITION":35,
						"NORMAL":36,
						"TEXCOORD_0":37,
						"TEXCOORD_1":38
					},
					"indices":39,
					"material":7
				},
				{
					"attributes":{
						"POSITION":40,
						"NORMAL":41,
						"TEXCOORD_0":42,
						"TEXCOORD_1":43
					},
					"indices":44,
					"material":8
				},
				{
					"attributes":{
						"POSITION":45,
						"NORMAL":46,
						"TEXCOORD_0":47,
						"TEXCOORD_1":48
					},
					"indices":49,
					"material":9
				}
			]
		},
		{
			"name":"Plane.001",
			"primitives":[
				{
					"attributes":{
						"POSITION":50,
						"NORMAL":51,
						"TEXCOORD_0":52
					},
					"indices":53,
					"material":10
				}
			]
		}
	],
	"textures":[
		{
			"sampler":0,
			"source":0
		},
		{
			"sampler":0,
			"source":0
		},
		{
			"sampler":0,
			"source":1
		},
		{
			"sampler":0,
			"source":0
		},
		{
			"sampler":0,
			"source":2
		},
		{
			"sampler":0,
			"source":0
		},
		{
			"sampler":0,
			"source":3
		},
		{
			"sampler":0,
			"source":0
		},
		{
			"sampler":0,
			"source":4
		},
		{
			"sampler":0,
			"source":0
		},
		{
			"sampler":0,
			"source":5
		},
		{
			"sampler":0,
			"source":0
		},
		{
			"sampler":0,
			"source":6
		},
		{
			"sampler":0,
			"source":0
		},
		{
			"sampler":0,
			"source":7
		},
		{
			"sampler":0,
			"source":0
		},
		{
			"sampler":0,
			"source":8
		},
		{
			"sampler":0,
			"source":0
		},
		{
			"sampler":0,
			"source":9
		}
	],
	"images":[
		{
			"mimeType":"image/png",
			"name":"parking_lot.png",
			"uri":"../../Textures/ambient_occlusion/Buildings/parking_lot.png"
		},
		{
			"mimeType":"image/png",
			"name":"tex40-19",
			"uri":"../../Textures/tex40-19.png"
		},
		{
			"mimeType":"image/png",
			"name":"tex40-16",
			"uri":"../../Textures/tex40-16.png"
		},
		{
			"mimeType":"image/png",
			"name":"tex40-18",
			"uri":"../../Textures/tex40-18.png"
		},
		{
			"mimeType":"image/png",
			"name":"tex40-17",
			"uri":"../../Textures/tex40-17.png"
		},
		{
			"mimeType":"image/png",
			"name":"tex40-8",
			"uri":"../../Textures/tex40-8.png"
		},
		{
			"mimeType":"image/png",
			"name":"tex40-11",
			"uri":"../../Textures/tex40-11.png"
		},
		{
			"mimeType":"image/png",
			"name":"tex40-9",
			"uri":"../../Textures/tex40-9.png"
		},
		{
			"mimeType":"image/png",
			"name":"tex40-10",
			"uri":"../../Textures/tex40-10.png"
		},
		{
			"mimeType":"image/png",
			"name":"parking_lot_ground.png",
			"uri":"../../Textures/ambient_occlusion/Buildings/parking_lot_ground.png"
		}
	],
	"accessors":[
		{
			"bufferView":0,
			"componentType":5126,
			"count":5,
			"max":[
				20.97281265258789,
				21.10584259033203,
				-23.18442153930664
			],
			"min":[
				-20.97281265258789,
				-20.83978271484375,
				-23.184463500976562
			],
			"type":"VEC3"
		},
		{
			"bufferView":1,
			"componentType":5126,
			"count":5,
			"type":"VEC3"
		},
		{
			"bufferView":2,
			"componentType":5126,
			"count":5,
			"type":"VEC2"
		},
		{
			"bufferView":3,
			"componentType":5126,
			"count":5,
			"type":"VEC2"
		},
		{
			"bufferView":4,
			"componentType":5123,
			"count":9,
			"type":"SCALAR"
		},
		{
			"bufferView":5,
			"componentType":5126,
			"count":24,
			"max":[
				20.97281265258789,
				21.105854034423828,
				-9.702312469482422
			],
			"min":[
				-20.97281265258789,
				11.236282348632812,
				-23.184463500976562
			],
			"type":"VEC3"
		},
		{
			"bufferView":6,
			"componentType":5126,
			"count":24,
			"type":"VEC3"
		},
		{
			"bufferView":7,
			"componentType":5126,
			"count":24,
			"type":"VEC2"
		},
		{
			"bufferView":8,
			"componentType":5126,
			"count":24,
			"type":"VEC2"
		},
		{
			"bufferView":9,
			"componentType":5123,
			"count":36,
			"type":"SCALAR"
		},
		{
			"bufferView":10,
			"componentType":5126,
			"count":12,
			"max":[
				20.97281265258789,
				-20.839759826660156,
				-9.702278137207031
			],
			"min":[
				-20.97281265258789,
				-20.83978271484375,
				-23.18442153930664
			],
			"type":"VEC3"
		},
		{
			"bufferView":11,
			"componentType":5126,
			"count":12,
			"type":"VEC3"
		},
		{
			"bufferView":12,
			"componentType":5126,
			"count":12,
			"type":"VEC2"
		},
		{
			"bufferView":13,
			"componentType":5126,
			"count":12,
			"type":"VEC2"
		},
		{
			"bufferView":14,
			"componentType":5123,
			"count":18,
			"type":"SCALAR"
		},
		{
			"bufferView":15,
			"componentType":5126,
			"count":12,
			"max":[
				20.97281265258789,
				11.23629379272461,
				-9.702285766601562
			],
			"min":[
				20.97281265258789,
				-20.83978271484375,
				-23.1844482421875
			],
			"type":"VEC3"
		},
		{
			"bufferView":16,
			"componentType":5126,
			"count":12,
			"type":"VEC3"
		},
		{
			"bufferView":17,
			"componentType":5126,
			"count":12,
			"type":"VEC2"
		},
		{
			"bufferView":18,
			"componentType":5126,
			"count":12,
			"type":"VEC2"
		},
		{
			"bufferView":19,
			"componentType":5123,
			"count":18,
			"type":"SCALAR"
		},
		{
			"bufferView":20,
			"componentType":5126,
			"count":12,
			"max":[
				-20.97281265258789,
				21.105854034423828,
				-9.702278137207031
			],
			"min":[
				-20.97281265258789,
				-20.83978271484375,
				-23.184463500976562
			],
			"type":"VEC3"
		},
		{
			"bufferView":21,
			"componentType":5126,
			"count":12,
			"type":"VEC3"
		},
		{
			"bufferView":22,
			"componentType":5126,
			"count":12,
			"type":"VEC2"
		},
		{
			"bufferView":23,
			"componentType":5126,
			"count":12,
			"type":"VEC2"
		},
		{
			"bufferView":24,
			"componentType":5123,
			"count":18,
			"type":"SCALAR"
		},
		{
			"bufferView":25,
			"componentType":5126,
			"count":4,
			"max":[
				20.97281265258789,
				-20.83974838256836,
				0.07276535034179688
			],
			"min":[
				-20.97281265258789,
				-20.83977508544922,
				-8.065948486328125
			],
			"type":"VEC3"
		},
		{
			"bufferView":26,
			"componentType":5126,
			"count":4,
			"type":"VEC3"
		},
		{
			"bufferView":27,
			"componentType":5126,
			"count":4,
			"type":"VEC2"
		},
		{
			"bufferView":28,
			"componentType":5126,
			"count":4,
			"type":"VEC2"
		},
		{
			"bufferView":29,
			"componentType":5123,
			"count":6,
			"type":"SCALAR"
		},
		{
			"bufferView":30,
			"componentType":5126,
			"count":8,
			"max":[
				20.97281265258789,
				21.105865478515625,
				0.07273483276367188
			],
			"min":[
				-20.97281265258789,
				11.236289978027344,
				-8.06597900390625
			],
			"type":"VEC3"
		},
		{
			"bufferView":31,
			"componentType":5126,
			"count":8,
			"type":"VEC3"
		},
		{
			"bufferView":32,
			"componentType":5126,
			"count":8,
			"type":"VEC2"
		},
		{
			"bufferView":33,
			"componentType":5126,
			"count":8,
			"type":"VEC2"
		},
		{
			"bufferView":34,
			"componentType":5123,
			"count":12,
			"type":"SCALAR"
		},
		{
			"bufferView":35,
			"componentType":5126,
			"count":4,
			"max":[
				-20.97281265258789,
				21.105865478515625,
				0.07276535034179688
			],
			"min":[
				-20.97281265258789,
				-20.83977508544922,
				-8.065975189208984
			],
			"type":"VEC3"
		},
		{
			"bufferView":36,
			"componentType":5126,
			"count":4,
			"type":"VEC3"
		},
		{
			"bufferView":37,
			"componentType":5126,
			"count":4,
			"type":"VEC2"
		},
		{
			"bufferView":38,
			"componentType":5126,
			"count":4,
			"type":"VEC2"
		},
		{
			"bufferView":39,
			"componentType":5123,
			"count":6,
			"type":"SCALAR"
		},
		{
			"bufferView":40,
			"componentType":5126,
			"count":4,
			"max":[
				20.97281265258789,
				11.23630142211914,
				0.07275772094726562
			],
			"min":[
				20.97281265258789,
				-20.83977508544922,
				-8.065975189208984
			],
			"type":"VEC3"
		},
		{
			"bufferView":41,
			"componentType":5126,
			"count":4,
			"type":"VEC3"
		},
		{
			"bufferView":42,
			"componentType":5126,
			"count":4,
			"type":"VEC2"
		},
		{
			"bufferView":43,
			"componentType":5126,
			"count":4,
			"type":"VEC2"
		},
		{
			"bufferView":44,
			"componentType":5123,
			"count":6,
			"type":"SCALAR"
		},
		{
			"bufferView":45,
			"componentType":5126,
			"count":60,
			"max":[
				20.97281265258789,
				21.105854034423828,
				-8.065940856933594
			],
			"min":[
				-20.97281265258789,
				-20.83977508544922,
				-19.843765258789062
			],
			"type":"VEC3"
		},
		{
			"bufferView":46,
			"componentType":5126,
			"count":60,
			"type":"VEC3"
		},
		{
			"bufferView":47,
			"componentType":5126,
			"count":60,
			"type":"VEC2"
		},
		{
			"bufferView":48,
			"componentType":5126,
			"count":60,
			"type":"VEC2"
		},
		{
			"bufferView":49,
			"componentType":5123,
			"count":90,
			"type":"SCALAR"
		},
		{
			"bufferView":50,
			"componentType":5126,
			"count":4,
			"max":[
				0.5,
				0,
				0.5
			],
			"min":[
				-0.5,
				0,
				-0.5
			],
			"type":"VEC3"
		},
		{
			"bufferView":51,
			"componentType":5126,
			"count":4,
			"type":"VEC3"
		},
		{
			"bufferView":52,
			"componentType":5126,
			"count":4,
			"type":"VEC2"
		},
		{
			"bufferView":53,
			"componentType":5123,
			"count":6,
			"type":"SCALAR"
		}
	],
	"bufferViews":[
		{
			"buffer":0,
			"byteLength":60,
			"byteOffset":0,
			"target":34962
		},
		{
			"buffer":0,
			"byteLength":60,
			"byteOffset":60,
			"target":34962
		},
		{
			"buffer":0,
			"byteLength":40,
			"byteOffset":120,
			"target":34962
		},
		{
			"buffer":0,
			"byteLength":40,
			"byteOffset":160,
			"target":34962
		},
		{
			"buffer":0,
			"byteLength":18,
			"byteOffset":200,
			"target":34963
		},
		{
			"buffer":0,
			"byteLength":288,
			"byteOffset":220,
			"target":34962
		},
		{
			"buffer":0,
			"byteLength":288,
			"byteOffset":508,
			"target":34962
		},
		{
			"buffer":0,
			"byteLength":192,
			"byteOffset":796,
			"target":34962
		},
		{
			"buffer":0,
			"byteLength":192,
			"byteOffset":988,
			"target":34962
		},
		{
			"buffer":0,
			"byteLength":72,
			"byteOffset":1180,
			"target":34963
		},
		{
			"buffer":0,
			"byteLength":144,
			"byteOffset":1252,
			"target":34962
		},
		{
			"buffer":0,
			"byteLength":144,
			"byteOffset":1396,
			"target":34962
		},
		{
			"buffer":0,
			"byteLength":96,
			"byteOffset":1540,
			"target":34962
		},
		{
			"buffer":0,
			"byteLength":96,
			"byteOffset":1636,
			"target":34962
		},
		{
			"buffer":0,
			"byteLength":36,
			"byteOffset":1732,
			"target":34963
		},
		{
			"buffer":0,
			"byteLength":144,
			"byteOffset":1768,
			"target":34962
		},
		{
			"buffer":0,
			"byteLength":144,
			"byteOffset":1912,
			"target":34962
		},
		{
			"buffer":0,
			"byteLength":96,
			"byteOffset":2056,
			"target":34962
		},
		{
			"buffer":0,
			"byteLength":96,
			"byteOffset":2152,
			"target":34962
		},
		{
			"buffer":0,
			"byteLength":36,
			"byteOffset":2248,
			"target":34963
		},
		{
			"buffer":0,
			"byteLength":144,
			"byteOffset":2284,
			"target":34962
		},
		{
			"buffer":0,
			"byteLength":144,
			"byteOffset":2428,
			"target":34962
		},
		{
			"buffer":0,
			"byteLength":96,
			"byteOffset":2572,
			"target":34962
		},
		{
			"buffer":0,
			"byteLength":96,
			"byteOffset":2668,
			"target":34962
		},
		{
			"buffer":0,
			"byteLength":36,
			"byteOffset":2764,
			"target":34963
		},
		{
			"buffer":0,
			"byteLength":48,
			"byteOffset":2800,
			"target":34962
		},
		{
			"buffer":0,
			"byteLength":48,
			"byteOffset":2848,
			"target":34962
		},
		{
			"buffer":0,
			"byteLength":32,
			"byteOffset":2896,
			"target":34962
		},
		{
			"buffer":0,
			"byteLength":32,
			"byteOffset":2928,
			"target":34962
		},
		{
			"buffer":0,
			"byteLength":12,
			"byteOffset":2960,
			"target":34963
		},
		{
			"buffer":0,
			"byteLength":96,
			"byteOffset":2972,
			"target":34962
		},
		{
			"buffer":0,
			"byteLength":96,
			"byteOffset":3068,
			"target":34962
		},
		{
			"buffer":0,
			"byteLength":64,
			"byteOffset":3164,
			"target":34962
		},
		{
			"buffer":0,
			"byteLength":64,
			"byteOffset":3228,
			"target":34962
		},
		{
			"buffer":0,
			"byteLength":24,
			"byteOffset":3292,
			"target":34963
		},
		{
			"buffer":0,
			"byteLength":48,
			"byteOffset":3316,
			"target":34962
		},
		{
			"buffer":0,
			"byteLength":48,
			"byteOffset":3364,
			"target":34962
		},
		{
			"buffer":0,
			"byteLength":32,
			"byteOffset":3412,
			"target":34962
		},
		{
			"buffer":0,
			"byteLength":32,
			"byteOffset":3444,
			"target":34962
		},
		{
			"buffer":0,
			"byteLength":12,
			"byteOffset":3476,
			"target":34963
		},
		{
			"buffer":0,
			"byteLength":48,
			"byteOffset":3488,
			"target":34962
		},
		{
			"buffer":0,
			"byteLength":48,
			"byteOffset":3536,
			"target":34962
		},
		{
			"buffer":0,
			"byteLength":32,
			"byteOffset":3584,
			"target":34962
		},
		{
			"buffer":0,
			"byteLength":32,
			"byteOffset":3616,
			"target":34962
		},
		{
			"buffer":0,
			"byteLength":12,
			"byteOffset":3648,
			"target":34963
		},
		{
			"buffer":0,
			"byteLength":720,
			"byteOffset":3660,
			"target":34962
		},
		{
			"buffer":0,
			"byteLength":720,
			"byteOffset":4380,
			"target":34962
		},
		{
			"buffer":0,
			"byteLength":480,
			"byteOffset":5100,
			"target":34962
		},
		{
			"buffer":0,
			"byteLength":480,
			"byteOffset":5580,
			"target":34962
		},
		{
			"buffer":0,
			"byteLength":180,
			"byteOffset":6060,
			"target":34963
		},
		{
			"buffer":0,
			"byteLength":48,
			"byteOffset":6240,
			"target":34962
		},
		{
			"buffer":0,
			"byteLength":48,
			"byteOffset":6288,
			"target":34962
		},
		{
			"buffer":0,
			"byteLength":32,
			"byteOffset":6336,
			"target":34962
		},
		{
			"buffer":0,
			"byteLength":12,
			"byteOffset":6368,
			"target":34963
		}
	],
	"samplers":[
		{
			"magFilter":9729,
			"minFilter":9987
		}
	],
	"buffers":[
		{
			"byteLength":6380,
			"uri":"parking_lot.bin"
		}
	]
}
