{
	"asset":{
		"generator":"Khronos glTF Blender I/O v4.4.55",
		"version":"2.0"
	},
	"scene":0,
	"scenes":[
		{
			"name":"Scene",
			"nodes":[
				0,
				1
			]
		}
	],
	"nodes":[
		{
			"mesh":0,
			"name":"Maxis-3d1-mesh-34",
			"rotation":[
				0.70710688829422,
				0,
				0,
				0.7071066498756409
			]
		},
		{
			"extras":{
				"gd_node":"Decal",
				"lower_fade":9,
				"upper_fade":10
			},
			"mesh":1,
			"name":"Ground_AO",
			"scale":[
				24.446327209472656,
				1,
				28.49383544921875
			],
			"translation":[
				-0.1207427978515625,
				-1.1833079042844474e-05,
				0.12909746170043945
			]
		}
	],
	"materials":[
		{
			"name":"mat2-31.002",
			"occlusionTexture":{
				"index":0,
				"texCoord":1
			},
			"pbrMetallicRoughness":{
				"baseColorTexture":{
					"index":1
				},
				"metallicFactor":0
			}
		},
		{
			"name":"mat2-28.002",
			"occlusionTexture":{
				"index":2,
				"texCoord":1
			},
			"pbrMetallicRoughness":{
				"baseColorTexture":{
					"index":3
				},
				"metallicFactor":0
			}
		},
		{
			"name":"mat2-30.002",
			"occlusionTexture":{
				"index":4,
				"texCoord":1
			},
			"pbrMetallicRoughness":{
				"baseColorTexture":{
					"index":5
				},
				"metallicFactor":0
			}
		},
		{
			"name":"mat39-60.002",
			"occlusionTexture":{
				"index":6,
				"texCoord":1
			},
			"pbrMetallicRoughness":{
				"baseColorTexture":{
					"index":7
				},
				"metallicFactor":0
			}
		},
		{
			"name":"mat2-36.002",
			"occlusionTexture":{
				"index":8,
				"texCoord":1
			},
			"pbrMetallicRoughness":{
				"baseColorTexture":{
					"index":9
				},
				"metallicFactor":0
			}
		},
		{
			"name":"mat2-39.002",
			"occlusionTexture":{
				"index":10,
				"texCoord":1
			},
			"pbrMetallicRoughness":{
				"baseColorTexture":{
					"index":11
				},
				"metallicFactor":0
			}
		},
		{
			"name":"mat2-38.002",
			"occlusionTexture":{
				"index":12,
				"texCoord":1
			},
			"pbrMetallicRoughness":{
				"baseColorTexture":{
					"index":13
				},
				"metallicFactor":0
			}
		},
		{
			"name":"mat2-37.002",
			"occlusionTexture":{
				"index":14,
				"texCoord":1
			},
			"pbrMetallicRoughness":{
				"baseColorTexture":{
					"index":15
				},
				"metallicFactor":0
			}
		},
		{
			"name":"mat39-61.002",
			"occlusionTexture":{
				"index":16,
				"texCoord":1
			},
			"pbrMetallicRoughness":{
				"baseColorTexture":{
					"index":17
				},
				"metallicFactor":0
			}
		},
		{
			"name":"mat40-4",
			"occlusionTexture":{
				"index":18,
				"texCoord":1
			},
			"pbrMetallicRoughness":{
				"baseColorTexture":{
					"index":19
				},
				"metallicFactor":0
			}
		},
		{
			"name":"mat40-7",
			"occlusionTexture":{
				"index":20,
				"texCoord":1
			},
			"pbrMetallicRoughness":{
				"baseColorTexture":{
					"index":21
				},
				"metallicFactor":0
			}
		},
		{
			"name":"mat40-5",
			"occlusionTexture":{
				"index":22,
				"texCoord":1
			},
			"pbrMetallicRoughness":{
				"baseColorTexture":{
					"index":23
				},
				"metallicFactor":0
			}
		},
		{
			"name":"mat40-6",
			"occlusionTexture":{
				"index":24,
				"texCoord":1
			},
			"pbrMetallicRoughness":{
				"baseColorTexture":{
					"index":25
				},
				"metallicFactor":0
			}
		},
		{
			"name":"matcolour-48.014",
			"occlusionTexture":{
				"index":26,
				"texCoord":1
			},
			"pbrMetallicRoughness":{
				"baseColorFactor":[
					0.05882352963089943,
					0.05882352963089943,
					0.05882352963089943,
					1
				],
				"metallicFactor":0
			}
		},
		{
			"name":"Ground_AO.001",
			"occlusionTexture":{
				"index":27
			},
			"pbrMetallicRoughness":{
				"baseColorFactor":[
					0.800000011920929,
					0.800000011920929,
					0.800000011920929,
					1
				],
				"metallicFactor":0,
				"roughnessFactor":0.5
			}
		}
	],
	"meshes":[
		{
			"name":"Maxis-3d1-mesh-34",
			"primitives":[
				{
					"attributes":{
						"POSITION":0,
						"NORMAL":1,
						"TEXCOORD_0":2,
						"TEXCOORD_1":3
					},
					"indices":4,
					"material":0
				},
				{
					"attributes":{
						"POSITION":5,
						"NORMAL":6,
						"TEXCOORD_0":7,
						"TEXCOORD_1":8
					},
					"indices":9,
					"material":1
				},
				{
					"attributes":{
						"POSITION":10,
						"NORMAL":11,
						"TEXCOORD_0":12,
						"TEXCOORD_1":13
					},
					"indices":14,
					"material":2
				},
				{
					"attributes":{
						"POSITION":15,
						"NORMAL":16,
						"TEXCOORD_0":17,
						"TEXCOORD_1":18
					},
					"indices":19,
					"material":3
				},
				{
					"attributes":{
						"POSITION":20,
						"NORMAL":21,
						"TEXCOORD_0":22,
						"TEXCOORD_1":23
					},
					"indices":24,
					"material":4
				},
				{
					"attributes":{
						"POSITION":25,
						"NORMAL":26,
						"TEXCOORD_0":27,
						"TEXCOORD_1":28
					},
					"indices":29,
					"material":5
				},
				{
					"attributes":{
						"POSITION":30,
						"NORMAL":31,
						"TEXCOORD_0":32,
						"TEXCOORD_1":33
					},
					"indices":34,
					"material":6
				},
				{
					"attributes":{
						"POSITION":35,
						"NORMAL":36,
						"TEXCOORD_0":37,
						"TEXCOORD_1":38
					},
					"indices":39,
					"material":7
				},
				{
					"attributes":{
						"POSITION":40,
						"NORMAL":41,
						"TEXCOORD_0":42,
						"TEXCOORD_1":43
					},
					"indices":44,
					"material":8
				},
				{
					"attributes":{
						"POSITION":45,
						"NORMAL":46,
						"TEXCOORD_0":47,
						"TEXCOORD_1":48
					},
					"indices":49,
					"material":9
				},
				{
					"attributes":{
						"POSITION":50,
						"NORMAL":51,
						"TEXCOORD_0":52,
						"TEXCOORD_1":53
					},
					"indices":54,
					"material":10
				},
				{
					"attributes":{
						"POSITION":55,
						"NORMAL":56,
						"TEXCOORD_0":57,
						"TEXCOORD_1":58
					},
					"indices":59,
					"material":11
				},
				{
					"attributes":{
						"POSITION":60,
						"NORMAL":61,
						"TEXCOORD_0":62,
						"TEXCOORD_1":63
					},
					"indices":64,
					"material":12
				},
				{
					"attributes":{
						"POSITION":65,
						"NORMAL":66,
						"TEXCOORD_0":67,
						"TEXCOORD_1":68
					},
					"indices":69,
					"material":13
				}
			]
		},
		{
			"name":"Plane.001",
			"primitives":[
				{
					"attributes":{
						"POSITION":70,
						"NORMAL":71,
						"TEXCOORD_0":72
					},
					"indices":73,
					"material":14
				}
			]
		}
	],
	"textures":[
		{
			"sampler":0,
			"source":0
		},
		{
			"sampler":0,
			"source":1
		},
		{
			"sampler":0,
			"source":0
		},
		{
			"sampler":0,
			"source":2
		},
		{
			"sampler":0,
			"source":0
		},
		{
			"sampler":0,
			"source":3
		},
		{
			"sampler":0,
			"source":0
		},
		{
			"sampler":0,
			"source":4
		},
		{
			"sampler":0,
			"source":0
		},
		{
			"sampler":0,
			"source":5
		},
		{
			"sampler":0,
			"source":0
		},
		{
			"sampler":0,
			"source":6
		},
		{
			"sampler":0,
			"source":0
		},
		{
			"sampler":0,
			"source":7
		},
		{
			"sampler":0,
			"source":0
		},
		{
			"sampler":0,
			"source":8
		},
		{
			"sampler":0,
			"source":0
		},
		{
			"sampler":0,
			"source":9
		},
		{
			"sampler":0,
			"source":0
		},
		{
			"sampler":0,
			"source":10
		},
		{
			"sampler":0,
			"source":0
		},
		{
			"sampler":0,
			"source":11
		},
		{
			"sampler":0,
			"source":0
		},
		{
			"sampler":0,
			"source":12
		},
		{
			"sampler":0,
			"source":0
		},
		{
			"sampler":0,
			"source":13
		},
		{
			"sampler":0,
			"source":0
		},
		{
			"sampler":0,
			"source":14
		}
	],
	"images":[
		{
			"mimeType":"image/png",
			"name":"resort_hotel.png",
			"uri":"../../Textures/ambient_occlusion/Buildings/resort_hotel.png"
		},
		{
			"mimeType":"image/png",
			"name":"tex2-31",
			"uri":"../../Textures/tex2-31.png"
		},
		{
			"mimeType":"image/png",
			"name":"tex2-28",
			"uri":"../../Textures/tex2-28.png"
		},
		{
			"mimeType":"image/png",
			"name":"tex2-30",
			"uri":"../../Textures/tex2-30.png"
		},
		{
			"mimeType":"image/png",
			"name":"tex39-60",
			"uri":"../../Textures/tex39-60.png"
		},
		{
			"mimeType":"image/png",
			"name":"tex2-36",
			"uri":"../../Textures/tex2-36.png"
		},
		{
			"mimeType":"image/png",
			"name":"tex2-39",
			"uri":"../../Textures/tex2-39.png"
		},
		{
			"mimeType":"image/png",
			"name":"tex2-38",
			"uri":"../../Textures/tex2-38.png"
		},
		{
			"mimeType":"image/png",
			"name":"tex2-37",
			"uri":"../../Textures/tex2-37.png"
		},
		{
			"mimeType":"image/png",
			"name":"tex39-61",
			"uri":"../../Textures/tex39-61.png"
		},
		{
			"mimeType":"image/png",
			"name":"tex40-4",
			"uri":"../../Textures/tex40-4.png"
		},
		{
			"mimeType":"image/png",
			"name":"tex40-7",
			"uri":"../../Textures/tex40-7.png"
		},
		{
			"mimeType":"image/png",
			"name":"tex40-5",
			"uri":"../../Textures/tex40-5.png"
		},
		{
			"mimeType":"image/png",
			"name":"tex40-6",
			"uri":"../../Textures/tex40-6.png"
		},
		{
			"mimeType":"image/png",
			"name":"resort_hotel_ground.png",
			"uri":"../../Textures/ambient_occlusion/Buildings/resort_hotel_ground.png"
		}
	],
	"accessors":[
		{
			"bufferView":0,
			"componentType":5126,
			"count":8,
			"max":[
				11.602420806884766,
				-5.119213104248047,
				3.814697265625e-06
			],
			"min":[
				4.483089447021484,
				-9.456409454345703,
				-4.077857971191406
			],
			"type":"VEC3"
		},
		{
			"bufferView":1,
			"componentType":5126,
			"count":8,
			"type":"VEC3"
		},
		{
			"bufferView":2,
			"componentType":5126,
			"count":8,
			"type":"VEC2"
		},
		{
			"bufferView":3,
			"componentType":5126,
			"count":8,
			"type":"VEC2"
		},
		{
			"bufferView":4,
			"componentType":5123,
			"count":12,
			"type":"SCALAR"
		},
		{
			"bufferView":5,
			"componentType":5126,
			"count":8,
			"max":[
				11.602420806884766,
				-8.15524673461914,
				3.814697265625e-06
			],
			"min":[
				4.483089447021484,
				-12.492443084716797,
				-4.077854156494141
			],
			"type":"VEC3"
		},
		{
			"bufferView":6,
			"componentType":5126,
			"count":8,
			"type":"VEC3"
		},
		{
			"bufferView":7,
			"componentType":5126,
			"count":8,
			"type":"VEC2"
		},
		{
			"bufferView":8,
			"componentType":5126,
			"count":8,
			"type":"VEC2"
		},
		{
			"bufferView":9,
			"componentType":5123,
			"count":12,
			"type":"SCALAR"
		},
		{
			"bufferView":10,
			"componentType":5126,
			"count":8,
			"max":[
				11.602420806884766,
				-5.119213104248047,
				3.814697265625e-06
			],
			"min":[
				11.602420806884766,
				-12.492443084716797,
				-4.077857971191406
			],
			"type":"VEC3"
		},
		{
			"bufferView":11,
			"componentType":5126,
			"count":8,
			"type":"VEC3"
		},
		{
			"bufferView":12,
			"componentType":5126,
			"count":8,
			"type":"VEC2"
		},
		{
			"bufferView":13,
			"componentType":5126,
			"count":8,
			"type":"VEC2"
		},
		{
			"bufferView":14,
			"componentType":5123,
			"count":12,
			"type":"SCALAR"
		},
		{
			"bufferView":15,
			"componentType":5126,
			"count":23,
			"max":[
				11.602420806884766,
				-3.668842315673828,
				3.814697265625e-06
			],
			"min":[
				-11.84390640258789,
				-13.617820739746094,
				-17.27037811279297
			],
			"type":"VEC3"
		},
		{
			"bufferView":16,
			"componentType":5126,
			"count":23,
			"type":"VEC3"
		},
		{
			"bufferView":17,
			"componentType":5126,
			"count":23,
			"type":"VEC2"
		},
		{
			"bufferView":18,
			"componentType":5126,
			"count":23,
			"type":"VEC2"
		},
		{
			"bufferView":19,
			"componentType":5123,
			"count":33,
			"type":"SCALAR"
		},
		{
			"bufferView":20,
			"componentType":5126,
			"count":12,
			"max":[
				4.483089447021484,
				-3.6688385009765625,
				7.62939453125e-06
			],
			"min":[
				-11.84390640258789,
				-13.617820739746094,
				-13.695476531982422
			],
			"type":"VEC3"
		},
		{
			"bufferView":21,
			"componentType":5126,
			"count":12,
			"type":"VEC3"
		},
		{
			"bufferView":22,
			"componentType":5126,
			"count":12,
			"type":"VEC2"
		},
		{
			"bufferView":23,
			"componentType":5126,
			"count":12,
			"type":"VEC2"
		},
		{
			"bufferView":24,
			"componentType":5123,
			"count":18,
			"type":"SCALAR"
		},
		{
			"bufferView":25,
			"componentType":5126,
			"count":12,
			"max":[
				4.483089447021484,
				3.7303848266601562,
				0
			],
			"min":[
				-11.84390640258789,
				0.8270797729492188,
				-13.695476531982422
			],
			"type":"VEC3"
		},
		{
			"bufferView":26,
			"componentType":5126,
			"count":12,
			"type":"VEC3"
		},
		{
			"bufferView":27,
			"componentType":5126,
			"count":12,
			"type":"VEC2"
		},
		{
			"bufferView":28,
			"componentType":5126,
			"count":12,
			"type":"VEC2"
		},
		{
			"bufferView":29,
			"componentType":5123,
			"count":18,
			"type":"SCALAR"
		},
		{
			"bufferView":30,
			"componentType":5126,
			"count":13,
			"max":[
				4.483089447021484,
				3.7303848266601562,
				7.62939453125e-06
			],
			"min":[
				-2.3259315490722656,
				-13.572593688964844,
				-13.695472717285156
			],
			"type":"VEC3"
		},
		{
			"bufferView":31,
			"componentType":5126,
			"count":13,
			"type":"VEC3"
		},
		{
			"bufferView":32,
			"componentType":5126,
			"count":13,
			"type":"VEC2"
		},
		{
			"bufferView":33,
			"componentType":5126,
			"count":13,
			"type":"VEC2"
		},
		{
			"bufferView":34,
			"componentType":5123,
			"count":21,
			"type":"SCALAR"
		},
		{
			"bufferView":35,
			"componentType":5126,
			"count":12,
			"max":[
				-0.19448471069335938,
				3.7303848266601562,
				7.62939453125e-06
			],
			"min":[
				-11.84390640258789,
				-13.617820739746094,
				-13.695476531982422
			],
			"type":"VEC3"
		},
		{
			"bufferView":36,
			"componentType":5126,
			"count":12,
			"type":"VEC3"
		},
		{
			"bufferView":37,
			"componentType":5126,
			"count":12,
			"type":"VEC2"
		},
		{
			"bufferView":38,
			"componentType":5126,
			"count":12,
			"type":"VEC2"
		},
		{
			"bufferView":39,
			"componentType":5123,
			"count":18,
			"type":"SCALAR"
		},
		{
			"bufferView":40,
			"componentType":5126,
			"count":6,
			"max":[
				4.483089447021484,
				3.730377197265625,
				-7.373233795166016
			],
			"min":[
				-11.84390640258789,
				0.8270797729492188,
				-17.27037811279297
			],
			"type":"VEC3"
		},
		{
			"bufferView":41,
			"componentType":5126,
			"count":6,
			"type":"VEC3"
		},
		{
			"bufferView":42,
			"componentType":5126,
			"count":6,
			"type":"VEC2"
		},
		{
			"bufferView":43,
			"componentType":5126,
			"count":6,
			"type":"VEC2"
		},
		{
			"bufferView":44,
			"componentType":5123,
			"count":6,
			"type":"SCALAR"
		},
		{
			"bufferView":45,
			"componentType":5126,
			"count":8,
			"max":[
				2.3959732055664062,
				7.1411895751953125,
				0
			],
			"min":[
				-3.1824607849121094,
				5.9848175048828125,
				-4.307037353515625
			],
			"type":"VEC3"
		},
		{
			"bufferView":46,
			"componentType":5126,
			"count":8,
			"type":"VEC3"
		},
		{
			"bufferView":47,
			"componentType":5126,
			"count":8,
			"type":"VEC2"
		},
		{
			"bufferView":48,
			"componentType":5126,
			"count":8,
			"type":"VEC2"
		},
		{
			"bufferView":49,
			"componentType":5123,
			"count":12,
			"type":"SCALAR"
		},
		{
			"bufferView":50,
			"componentType":5126,
			"count":8,
			"max":[
				2.3959732055664062,
				13.87601089477539,
				-3.814697265625e-06
			],
			"min":[
				-3.1824607849121094,
				12.719627380371094,
				-4.307041168212891
			],
			"type":"VEC3"
		},
		{
			"bufferView":51,
			"componentType":5126,
			"count":8,
			"type":"VEC3"
		},
		{
			"bufferView":52,
			"componentType":5126,
			"count":8,
			"type":"VEC2"
		},
		{
			"bufferView":53,
			"componentType":5126,
			"count":8,
			"type":"VEC2"
		},
		{
			"bufferView":54,
			"componentType":5123,
			"count":12,
			"type":"SCALAR"
		},
		{
			"bufferView":55,
			"componentType":5126,
			"count":8,
			"max":[
				3.552349090576172,
				9.930408477783203,
				0
			],
			"min":[
				-4.338836669921875,
				7.141185760498047,
				-4.307037353515625
			],
			"type":"VEC3"
		},
		{
			"bufferView":56,
			"componentType":5126,
			"count":8,
			"type":"VEC3"
		},
		{
			"bufferView":57,
			"componentType":5126,
			"count":8,
			"type":"VEC2"
		},
		{
			"bufferView":58,
			"componentType":5126,
			"count":8,
			"type":"VEC2"
		},
		{
			"bufferView":59,
			"componentType":5123,
			"count":12,
			"type":"SCALAR"
		},
		{
			"bufferView":60,
			"componentType":5126,
			"count":8,
			"max":[
				3.552349090576172,
				12.71963882446289,
				0
			],
			"min":[
				-4.338836669921875,
				9.930408477783203,
				-4.307037353515625
			],
			"type":"VEC3"
		},
		{
			"bufferView":61,
			"componentType":5126,
			"count":8,
			"type":"VEC3"
		},
		{
			"bufferView":62,
			"componentType":5126,
			"count":8,
			"type":"VEC2"
		},
		{
			"bufferView":63,
			"componentType":5126,
			"count":8,
			"type":"VEC2"
		},
		{
			"bufferView":64,
			"componentType":5123,
			"count":12,
			"type":"SCALAR"
		},
		{
			"bufferView":65,
			"componentType":5126,
			"count":80,
			"max":[
				11.602420806884766,
				13.87601089477539,
				-4.077850341796875
			],
			"min":[
				-11.84390640258789,
				-13.617820739746094,
				-17.27037811279297
			],
			"type":"VEC3"
		},
		{
			"bufferView":66,
			"componentType":5126,
			"count":80,
			"type":"VEC3"
		},
		{
			"bufferView":67,
			"componentType":5126,
			"count":80,
			"type":"VEC2"
		},
		{
			"bufferView":68,
			"componentType":5126,
			"count":80,
			"type":"VEC2"
		},
		{
			"bufferView":69,
			"componentType":5123,
			"count":120,
			"type":"SCALAR"
		},
		{
			"bufferView":70,
			"componentType":5126,
			"count":4,
			"max":[
				0.5,
				0,
				0.5
			],
			"min":[
				-0.5,
				0,
				-0.5
			],
			"type":"VEC3"
		},
		{
			"bufferView":71,
			"componentType":5126,
			"count":4,
			"type":"VEC3"
		},
		{
			"bufferView":72,
			"componentType":5126,
			"count":4,
			"type":"VEC2"
		},
		{
			"bufferView":73,
			"componentType":5123,
			"count":6,
			"type":"SCALAR"
		}
	],
	"bufferViews":[
		{
			"buffer":0,
			"byteLength":96,
			"byteOffset":0,
			"target":34962
		},
		{
			"buffer":0,
			"byteLength":96,
			"byteOffset":96,
			"target":34962
		},
		{
			"buffer":0,
			"byteLength":64,
			"byteOffset":192,
			"target":34962
		},
		{
			"buffer":0,
			"byteLength":64,
			"byteOffset":256,
			"target":34962
		},
		{
			"buffer":0,
			"byteLength":24,
			"byteOffset":320,
			"target":34963
		},
		{
			"buffer":0,
			"byteLength":96,
			"byteOffset":344,
			"target":34962
		},
		{
			"buffer":0,
			"byteLength":96,
			"byteOffset":440,
			"target":34962
		},
		{
			"buffer":0,
			"byteLength":64,
			"byteOffset":536,
			"target":34962
		},
		{
			"buffer":0,
			"byteLength":64,
			"byteOffset":600,
			"target":34962
		},
		{
			"buffer":0,
			"byteLength":24,
			"byteOffset":664,
			"target":34963
		},
		{
			"buffer":0,
			"byteLength":96,
			"byteOffset":688,
			"target":34962
		},
		{
			"buffer":0,
			"byteLength":96,
			"byteOffset":784,
			"target":34962
		},
		{
			"buffer":0,
			"byteLength":64,
			"byteOffset":880,
			"target":34962
		},
		{
			"buffer":0,
			"byteLength":64,
			"byteOffset":944,
			"target":34962
		},
		{
			"buffer":0,
			"byteLength":24,
			"byteOffset":1008,
			"target":34963
		},
		{
			"buffer":0,
			"byteLength":276,
			"byteOffset":1032,
			"target":34962
		},
		{
			"buffer":0,
			"byteLength":276,
			"byteOffset":1308,
			"target":34962
		},
		{
			"buffer":0,
			"byteLength":184,
			"byteOffset":1584,
			"target":34962
		},
		{
			"buffer":0,
			"byteLength":184,
			"byteOffset":1768,
			"target":34962
		},
		{
			"buffer":0,
			"byteLength":66,
			"byteOffset":1952,
			"target":34963
		},
		{
			"buffer":0,
			"byteLength":144,
			"byteOffset":2020,
			"target":34962
		},
		{
			"buffer":0,
			"byteLength":144,
			"byteOffset":2164,
			"target":34962
		},
		{
			"buffer":0,
			"byteLength":96,
			"byteOffset":2308,
			"target":34962
		},
		{
			"buffer":0,
			"byteLength":96,
			"byteOffset":2404,
			"target":34962
		},
		{
			"buffer":0,
			"byteLength":36,
			"byteOffset":2500,
			"target":34963
		},
		{
			"buffer":0,
			"byteLength":144,
			"byteOffset":2536,
			"target":34962
		},
		{
			"buffer":0,
			"byteLength":144,
			"byteOffset":2680,
			"target":34962
		},
		{
			"buffer":0,
			"byteLength":96,
			"byteOffset":2824,
			"target":34962
		},
		{
			"buffer":0,
			"byteLength":96,
			"byteOffset":2920,
			"target":34962
		},
		{
			"buffer":0,
			"byteLength":36,
			"byteOffset":3016,
			"target":34963
		},
		{
			"buffer":0,
			"byteLength":156,
			"byteOffset":3052,
			"target":34962
		},
		{
			"buffer":0,
			"byteLength":156,
			"byteOffset":3208,
			"target":34962
		},
		{
			"buffer":0,
			"byteLength":104,
			"byteOffset":3364,
			"target":34962
		},
		{
			"buffer":0,
			"byteLength":104,
			"byteOffset":3468,
			"target":34962
		},
		{
			"buffer":0,
			"byteLength":42,
			"byteOffset":3572,
			"target":34963
		},
		{
			"buffer":0,
			"byteLength":144,
			"byteOffset":3616,
			"target":34962
		},
		{
			"buffer":0,
			"byteLength":144,
			"byteOffset":3760,
			"target":34962
		},
		{
			"buffer":0,
			"byteLength":96,
			"byteOffset":3904,
			"target":34962
		},
		{
			"buffer":0,
			"byteLength":96,
			"byteOffset":4000,
			"target":34962
		},
		{
			"buffer":0,
			"byteLength":36,
			"byteOffset":4096,
			"target":34963
		},
		{
			"buffer":0,
			"byteLength":72,
			"byteOffset":4132,
			"target":34962
		},
		{
			"buffer":0,
			"byteLength":72,
			"byteOffset":4204,
			"target":34962
		},
		{
			"buffer":0,
			"byteLength":48,
			"byteOffset":4276,
			"target":34962
		},
		{
			"buffer":0,
			"byteLength":48,
			"byteOffset":4324,
			"target":34962
		},
		{
			"buffer":0,
			"byteLength":12,
			"byteOffset":4372,
			"target":34963
		},
		{
			"buffer":0,
			"byteLength":96,
			"byteOffset":4384,
			"target":34962
		},
		{
			"buffer":0,
			"byteLength":96,
			"byteOffset":4480,
			"target":34962
		},
		{
			"buffer":0,
			"byteLength":64,
			"byteOffset":4576,
			"target":34962
		},
		{
			"buffer":0,
			"byteLength":64,
			"byteOffset":4640,
			"target":34962
		},
		{
			"buffer":0,
			"byteLength":24,
			"byteOffset":4704,
			"target":34963
		},
		{
			"buffer":0,
			"byteLength":96,
			"byteOffset":4728,
			"target":34962
		},
		{
			"buffer":0,
			"byteLength":96,
			"byteOffset":4824,
			"target":34962
		},
		{
			"buffer":0,
			"byteLength":64,
			"byteOffset":4920,
			"target":34962
		},
		{
			"buffer":0,
			"byteLength":64,
			"byteOffset":4984,
			"target":34962
		},
		{
			"buffer":0,
			"byteLength":24,
			"byteOffset":5048,
			"target":34963
		},
		{
			"buffer":0,
			"byteLength":96,
			"byteOffset":5072,
			"target":34962
		},
		{
			"buffer":0,
			"byteLength":96,
			"byteOffset":5168,
			"target":34962
		},
		{
			"buffer":0,
			"byteLength":64,
			"byteOffset":5264,
			"target":34962
		},
		{
			"buffer":0,
			"byteLength":64,
			"byteOffset":5328,
			"target":34962
		},
		{
			"buffer":0,
			"byteLength":24,
			"byteOffset":5392,
			"target":34963
		},
		{
			"buffer":0,
			"byteLength":96,
			"byteOffset":5416,
			"target":34962
		},
		{
			"buffer":0,
			"byteLength":96,
			"byteOffset":5512,
			"target":34962
		},
		{
			"buffer":0,
			"byteLength":64,
			"byteOffset":5608,
			"target":34962
		},
		{
			"buffer":0,
			"byteLength":64,
			"byteOffset":5672,
			"target":34962
		},
		{
			"buffer":0,
			"byteLength":24,
			"byteOffset":5736,
			"target":34963
		},
		{
			"buffer":0,
			"byteLength":960,
			"byteOffset":5760,
			"target":34962
		},
		{
			"buffer":0,
			"byteLength":960,
			"byteOffset":6720,
			"target":34962
		},
		{
			"buffer":0,
			"byteLength":640,
			"byteOffset":7680,
			"target":34962
		},
		{
			"buffer":0,
			"byteLength":640,
			"byteOffset":8320,
			"target":34962
		},
		{
			"buffer":0,
			"byteLength":240,
			"byteOffset":8960,
			"target":34963
		},
		{
			"buffer":0,
			"byteLength":48,
			"byteOffset":9200,
			"target":34962
		},
		{
			"buffer":0,
			"byteLength":48,
			"byteOffset":9248,
			"target":34962
		},
		{
			"buffer":0,
			"byteLength":32,
			"byteOffset":9296,
			"target":34962
		},
		{
			"buffer":0,
			"byteLength":12,
			"byteOffset":9328,
			"target":34963
		}
	],
	"samplers":[
		{
			"magFilter":9729,
			"minFilter":9987
		}
	],
	"buffers":[
		{
			"byteLength":9340,
			"uri":"resort_hotel.bin"
		}
	]
}
