{
	"asset":{
		"generator":"Khronos glTF Blender I/O v4.4.55",
		"version":"2.0"
	},
	"scene":0,
	"scenes":[
		{
			"name":"Scene",
			"nodes":[
				0,
				1
			]
		}
	],
	"nodes":[
		{
			"mesh":0,
			"name":"Maxis-3d1-mesh-55",
			"rotation":[
				0.70710688829422,
				0,
				0,
				0.7071066498756409
			]
		},
		{
			"extras":{
				"gd_node":"Decal",
				"lower_fade":9,
				"upper_fade":10
			},
			"mesh":1,
			"name":"Ground_AO",
			"scale":[
				43.33440017700195,
				1,
				36.658592224121094
			],
			"translation":[
				-0.1628246307373047,
				-8.834786967781838e-06,
				-1.2584009170532227
			]
		}
	],
	"materials":[
		{
			"name":"mat40-12.003",
			"occlusionTexture":{
				"index":0,
				"texCoord":1
			},
			"pbrMetallicRoughness":{
				"baseColorTexture":{
					"index":1
				},
				"metallicFactor":0
			}
		},
		{
			"name":"mat40-15.003",
			"occlusionTexture":{
				"index":2,
				"texCoord":1
			},
			"pbrMetallicRoughness":{
				"baseColorTexture":{
					"index":3
				},
				"metallicFactor":0
			}
		},
		{
			"name":"mat40-13.003",
			"occlusionTexture":{
				"index":4,
				"texCoord":1
			},
			"pbrMetallicRoughness":{
				"baseColorTexture":{
					"index":5
				},
				"metallicFactor":0
			}
		},
		{
			"name":"mat40-14.003",
			"occlusionTexture":{
				"index":6,
				"texCoord":1
			},
			"pbrMetallicRoughness":{
				"baseColorTexture":{
					"index":7
				},
				"metallicFactor":0
			}
		},
		{
			"name":"matcolour-48.015",
			"occlusionTexture":{
				"index":8,
				"texCoord":1
			},
			"pbrMetallicRoughness":{
				"baseColorFactor":[
					0.05882352963089943,
					0.05882352963089943,
					0.05882352963089943,
					1
				],
				"metallicFactor":0
			}
		},
		{
			"name":"mat40-52.009",
			"occlusionTexture":{
				"index":9,
				"texCoord":1
			},
			"pbrMetallicRoughness":{
				"baseColorTexture":{
					"index":10
				},
				"metallicFactor":0
			}
		},
		{
			"name":"mat40-55.009",
			"occlusionTexture":{
				"index":11,
				"texCoord":1
			},
			"pbrMetallicRoughness":{
				"baseColorTexture":{
					"index":12
				},
				"metallicFactor":0
			}
		},
		{
			"name":"mat40-53.008",
			"occlusionTexture":{
				"index":13,
				"texCoord":1
			},
			"pbrMetallicRoughness":{
				"baseColorTexture":{
					"index":14
				},
				"metallicFactor":0
			}
		},
		{
			"name":"mat40-54.008",
			"occlusionTexture":{
				"index":15,
				"texCoord":1
			},
			"pbrMetallicRoughness":{
				"baseColorTexture":{
					"index":16
				},
				"metallicFactor":0
			}
		},
		{
			"name":"Ground_AO.001",
			"occlusionTexture":{
				"index":17
			},
			"pbrMetallicRoughness":{
				"baseColorFactor":[
					0.800000011920929,
					0.800000011920929,
					0.800000011920929,
					1
				],
				"metallicFactor":0,
				"roughnessFactor":0.5
			}
		}
	],
	"meshes":[
		{
			"name":"Maxis-3d1-mesh-55",
			"primitives":[
				{
					"attributes":{
						"POSITION":0,
						"NORMAL":1,
						"TEXCOORD_0":2,
						"TEXCOORD_1":3
					},
					"indices":4,
					"material":0
				},
				{
					"attributes":{
						"POSITION":5,
						"NORMAL":6,
						"TEXCOORD_0":7,
						"TEXCOORD_1":8
					},
					"indices":9,
					"material":1
				},
				{
					"attributes":{
						"POSITION":10,
						"NORMAL":11,
						"TEXCOORD_0":12,
						"TEXCOORD_1":13
					},
					"indices":14,
					"material":2
				},
				{
					"attributes":{
						"POSITION":15,
						"NORMAL":16,
						"TEXCOORD_0":17,
						"TEXCOORD_1":18
					},
					"indices":19,
					"material":3
				},
				{
					"attributes":{
						"POSITION":20,
						"NORMAL":21,
						"TEXCOORD_0":22,
						"TEXCOORD_1":23
					},
					"indices":24,
					"material":4
				},
				{
					"attributes":{
						"POSITION":25,
						"NORMAL":26,
						"TEXCOORD_0":27,
						"TEXCOORD_1":28
					},
					"indices":29,
					"material":5
				},
				{
					"attributes":{
						"POSITION":30,
						"NORMAL":31,
						"TEXCOORD_0":32,
						"TEXCOORD_1":33
					},
					"indices":34,
					"material":6
				},
				{
					"attributes":{
						"POSITION":35,
						"NORMAL":36,
						"TEXCOORD_0":37,
						"TEXCOORD_1":38
					},
					"indices":39,
					"material":7
				},
				{
					"attributes":{
						"POSITION":40,
						"NORMAL":41,
						"TEXCOORD_0":42,
						"TEXCOORD_1":43
					},
					"indices":44,
					"material":8
				}
			]
		},
		{
			"name":"Plane.001",
			"primitives":[
				{
					"attributes":{
						"POSITION":45,
						"NORMAL":46,
						"TEXCOORD_0":47
					},
					"indices":48,
					"material":9
				}
			]
		}
	],
	"textures":[
		{
			"sampler":0,
			"source":0
		},
		{
			"sampler":0,
			"source":1
		},
		{
			"sampler":0,
			"source":0
		},
		{
			"sampler":0,
			"source":2
		},
		{
			"sampler":0,
			"source":0
		},
		{
			"sampler":0,
			"source":3
		},
		{
			"sampler":0,
			"source":0
		},
		{
			"sampler":0,
			"source":4
		},
		{
			"sampler":0,
			"source":0
		},
		{
			"sampler":0,
			"source":0
		},
		{
			"sampler":0,
			"source":5
		},
		{
			"sampler":0,
			"source":0
		},
		{
			"sampler":0,
			"source":6
		},
		{
			"sampler":0,
			"source":0
		},
		{
			"sampler":0,
			"source":7
		},
		{
			"sampler":0,
			"source":0
		},
		{
			"sampler":0,
			"source":8
		},
		{
			"sampler":0,
			"source":9
		}
	],
	"images":[
		{
			"mimeType":"image/png",
			"name":"school.png",
			"uri":"../../Textures/ambient_occlusion/Buildings/school.png"
		},
		{
			"mimeType":"image/png",
			"name":"tex40-12",
			"uri":"../../Textures/tex40-12.png"
		},
		{
			"mimeType":"image/png",
			"name":"tex40-15",
			"uri":"../../Textures/tex40-15.png"
		},
		{
			"mimeType":"image/png",
			"name":"tex40-13",
			"uri":"../../Textures/tex40-13.png"
		},
		{
			"mimeType":"image/png",
			"name":"tex40-14",
			"uri":"../../Textures/tex40-14.png"
		},
		{
			"mimeType":"image/png",
			"name":"tex40-52",
			"uri":"../../Textures/tex40-52.png"
		},
		{
			"mimeType":"image/png",
			"name":"tex40-55",
			"uri":"../../Textures/tex40-55.png"
		},
		{
			"mimeType":"image/png",
			"name":"tex40-53",
			"uri":"../../Textures/tex40-53.png"
		},
		{
			"mimeType":"image/png",
			"name":"tex40-54",
			"uri":"../../Textures/tex40-54.png"
		},
		{
			"mimeType":"image/png",
			"name":"school_ground.png",
			"uri":"../../Textures/ambient_occlusion/Buildings/school_ground.png"
		}
	],
	"accessors":[
		{
			"bufferView":0,
			"componentType":5126,
			"count":8,
			"max":[
				21.004375457763672,
				-11.772388458251953,
				3.814697265625e-06
			],
			"min":[
				-21.33002471923828,
				-19.08769989013672,
				-21.58199691772461
			],
			"type":"VEC3"
		},
		{
			"bufferView":1,
			"componentType":5126,
			"count":8,
			"type":"VEC3"
		},
		{
			"bufferView":2,
			"componentType":5126,
			"count":8,
			"type":"VEC2"
		},
		{
			"bufferView":3,
			"componentType":5126,
			"count":8,
			"type":"VEC2"
		},
		{
			"bufferView":4,
			"componentType":5123,
			"count":12,
			"type":"SCALAR"
		},
		{
			"bufferView":5,
			"componentType":5126,
			"count":14,
			"max":[
				21.004375457763672,
				16.570892333984375,
				0
			],
			"min":[
				-21.33002471923828,
				2.1374168395996094,
				-21.58199691772461
			],
			"type":"VEC3"
		},
		{
			"bufferView":6,
			"componentType":5126,
			"count":14,
			"type":"VEC3"
		},
		{
			"bufferView":7,
			"componentType":5126,
			"count":14,
			"type":"VEC2"
		},
		{
			"bufferView":8,
			"componentType":5126,
			"count":14,
			"type":"VEC2"
		},
		{
			"bufferView":9,
			"componentType":5123,
			"count":24,
			"type":"SCALAR"
		},
		{
			"bufferView":10,
			"componentType":5126,
			"count":8,
			"max":[
				-10.655193328857422,
				16.570892333984375,
				3.814697265625e-06
			],
			"min":[
				-21.33002471923828,
				-19.08769989013672,
				-21.58199691772461
			],
			"type":"VEC3"
		},
		{
			"bufferView":11,
			"componentType":5126,
			"count":8,
			"type":"VEC3"
		},
		{
			"bufferView":12,
			"componentType":5126,
			"count":8,
			"type":"VEC2"
		},
		{
			"bufferView":13,
			"componentType":5126,
			"count":8,
			"type":"VEC2"
		},
		{
			"bufferView":14,
			"componentType":5123,
			"count":12,
			"type":"SCALAR"
		},
		{
			"bufferView":15,
			"componentType":5126,
			"count":18,
			"max":[
				21.004375457763672,
				16.570892333984375,
				3.814697265625e-06
			],
			"min":[
				-7.250312805175781,
				-19.08769989013672,
				-21.58199691772461
			],
			"type":"VEC3"
		},
		{
			"bufferView":16,
			"componentType":5126,
			"count":18,
			"type":"VEC3"
		},
		{
			"bufferView":17,
			"componentType":5126,
			"count":18,
			"type":"VEC2"
		},
		{
			"bufferView":18,
			"componentType":5126,
			"count":18,
			"type":"VEC2"
		},
		{
			"bufferView":19,
			"componentType":5123,
			"count":24,
			"type":"SCALAR"
		},
		{
			"bufferView":20,
			"componentType":5126,
			"count":28,
			"max":[
				21.004375457763672,
				16.57088851928711,
				-15.119422912597656
			],
			"min":[
				-21.33002471923828,
				-19.08769989013672,
				-21.58199691772461
			],
			"type":"VEC3"
		},
		{
			"bufferView":21,
			"componentType":5126,
			"count":28,
			"type":"VEC3"
		},
		{
			"bufferView":22,
			"componentType":5126,
			"count":28,
			"type":"VEC2"
		},
		{
			"bufferView":23,
			"componentType":5126,
			"count":28,
			"type":"VEC2"
		},
		{
			"bufferView":24,
			"componentType":5123,
			"count":54,
			"type":"SCALAR"
		},
		{
			"bufferView":25,
			"componentType":5126,
			"count":4,
			"max":[
				18.399181365966797,
				-13.388839721679688,
				-15.119422912597656
			],
			"min":[
				13.025970458984375,
				-13.388839721679688,
				-16.190715789794922
			],
			"type":"VEC3"
		},
		{
			"bufferView":26,
			"componentType":5126,
			"count":4,
			"type":"VEC3"
		},
		{
			"bufferView":27,
			"componentType":5126,
			"count":4,
			"type":"VEC2"
		},
		{
			"bufferView":28,
			"componentType":5126,
			"count":4,
			"type":"VEC2"
		},
		{
			"bufferView":29,
			"componentType":5123,
			"count":6,
			"type":"SCALAR"
		},
		{
			"bufferView":30,
			"componentType":5126,
			"count":4,
			"max":[
				18.399181365966797,
				-4.270660400390625,
				-15.119426727294922
			],
			"min":[
				13.025970458984375,
				-4.270660400390625,
				-16.190719604492188
			],
			"type":"VEC3"
		},
		{
			"bufferView":31,
			"componentType":5126,
			"count":4,
			"type":"VEC3"
		},
		{
			"bufferView":32,
			"componentType":5126,
			"count":4,
			"type":"VEC2"
		},
		{
			"bufferView":33,
			"componentType":5126,
			"count":4,
			"type":"VEC2"
		},
		{
			"bufferView":34,
			"componentType":5123,
			"count":6,
			"type":"SCALAR"
		},
		{
			"bufferView":35,
			"componentType":5126,
			"count":4,
			"max":[
				13.025970458984375,
				-4.270660400390625,
				-15.119422912597656
			],
			"min":[
				13.025970458984375,
				-13.388839721679688,
				-16.190719604492188
			],
			"type":"VEC3"
		},
		{
			"bufferView":36,
			"componentType":5126,
			"count":4,
			"type":"VEC3"
		},
		{
			"bufferView":37,
			"componentType":5126,
			"count":4,
			"type":"VEC2"
		},
		{
			"bufferView":38,
			"componentType":5126,
			"count":4,
			"type":"VEC2"
		},
		{
			"bufferView":39,
			"componentType":5123,
			"count":6,
			"type":"SCALAR"
		},
		{
			"bufferView":40,
			"componentType":5126,
			"count":4,
			"max":[
				18.399181365966797,
				-4.270660400390625,
				-15.119422912597656
			],
			"min":[
				18.399181365966797,
				-13.388839721679688,
				-16.190719604492188
			],
			"type":"VEC3"
		},
		{
			"bufferView":41,
			"componentType":5126,
			"count":4,
			"type":"VEC3"
		},
		{
			"bufferView":42,
			"componentType":5126,
			"count":4,
			"type":"VEC2"
		},
		{
			"bufferView":43,
			"componentType":5126,
			"count":4,
			"type":"VEC2"
		},
		{
			"bufferView":44,
			"componentType":5123,
			"count":6,
			"type":"SCALAR"
		},
		{
			"bufferView":45,
			"componentType":5126,
			"count":4,
			"max":[
				0.5,
				0,
				0.5
			],
			"min":[
				-0.5,
				0,
				-0.5
			],
			"type":"VEC3"
		},
		{
			"bufferView":46,
			"componentType":5126,
			"count":4,
			"type":"VEC3"
		},
		{
			"bufferView":47,
			"componentType":5126,
			"count":4,
			"type":"VEC2"
		},
		{
			"bufferView":48,
			"componentType":5123,
			"count":6,
			"type":"SCALAR"
		}
	],
	"bufferViews":[
		{
			"buffer":0,
			"byteLength":96,
			"byteOffset":0,
			"target":34962
		},
		{
			"buffer":0,
			"byteLength":96,
			"byteOffset":96,
			"target":34962
		},
		{
			"buffer":0,
			"byteLength":64,
			"byteOffset":192,
			"target":34962
		},
		{
			"buffer":0,
			"byteLength":64,
			"byteOffset":256,
			"target":34962
		},
		{
			"buffer":0,
			"byteLength":24,
			"byteOffset":320,
			"target":34963
		},
		{
			"buffer":0,
			"byteLength":168,
			"byteOffset":344,
			"target":34962
		},
		{
			"buffer":0,
			"byteLength":168,
			"byteOffset":512,
			"target":34962
		},
		{
			"buffer":0,
			"byteLength":112,
			"byteOffset":680,
			"target":34962
		},
		{
			"buffer":0,
			"byteLength":112,
			"byteOffset":792,
			"target":34962
		},
		{
			"buffer":0,
			"byteLength":48,
			"byteOffset":904,
			"target":34963
		},
		{
			"buffer":0,
			"byteLength":96,
			"byteOffset":952,
			"target":34962
		},
		{
			"buffer":0,
			"byteLength":96,
			"byteOffset":1048,
			"target":34962
		},
		{
			"buffer":0,
			"byteLength":64,
			"byteOffset":1144,
			"target":34962
		},
		{
			"buffer":0,
			"byteLength":64,
			"byteOffset":1208,
			"target":34962
		},
		{
			"buffer":0,
			"byteLength":24,
			"byteOffset":1272,
			"target":34963
		},
		{
			"buffer":0,
			"byteLength":216,
			"byteOffset":1296,
			"target":34962
		},
		{
			"buffer":0,
			"byteLength":216,
			"byteOffset":1512,
			"target":34962
		},
		{
			"buffer":0,
			"byteLength":144,
			"byteOffset":1728,
			"target":34962
		},
		{
			"buffer":0,
			"byteLength":144,
			"byteOffset":1872,
			"target":34962
		},
		{
			"buffer":0,
			"byteLength":48,
			"byteOffset":2016,
			"target":34963
		},
		{
			"buffer":0,
			"byteLength":336,
			"byteOffset":2064,
			"target":34962
		},
		{
			"buffer":0,
			"byteLength":336,
			"byteOffset":2400,
			"target":34962
		},
		{
			"buffer":0,
			"byteLength":224,
			"byteOffset":2736,
			"target":34962
		},
		{
			"buffer":0,
			"byteLength":224,
			"byteOffset":2960,
			"target":34962
		},
		{
			"buffer":0,
			"byteLength":108,
			"byteOffset":3184,
			"target":34963
		},
		{
			"buffer":0,
			"byteLength":48,
			"byteOffset":3292,
			"target":34962
		},
		{
			"buffer":0,
			"byteLength":48,
			"byteOffset":3340,
			"target":34962
		},
		{
			"buffer":0,
			"byteLength":32,
			"byteOffset":3388,
			"target":34962
		},
		{
			"buffer":0,
			"byteLength":32,
			"byteOffset":3420,
			"target":34962
		},
		{
			"buffer":0,
			"byteLength":12,
			"byteOffset":3452,
			"target":34963
		},
		{
			"buffer":0,
			"byteLength":48,
			"byteOffset":3464,
			"target":34962
		},
		{
			"buffer":0,
			"byteLength":48,
			"byteOffset":3512,
			"target":34962
		},
		{
			"buffer":0,
			"byteLength":32,
			"byteOffset":3560,
			"target":34962
		},
		{
			"buffer":0,
			"byteLength":32,
			"byteOffset":3592,
			"target":34962
		},
		{
			"buffer":0,
			"byteLength":12,
			"byteOffset":3624,
			"target":34963
		},
		{
			"buffer":0,
			"byteLength":48,
			"byteOffset":3636,
			"target":34962
		},
		{
			"buffer":0,
			"byteLength":48,
			"byteOffset":3684,
			"target":34962
		},
		{
			"buffer":0,
			"byteLength":32,
			"byteOffset":3732,
			"target":34962
		},
		{
			"buffer":0,
			"byteLength":32,
			"byteOffset":3764,
			"target":34962
		},
		{
			"buffer":0,
			"byteLength":12,
			"byteOffset":3796,
			"target":34963
		},
		{
			"buffer":0,
			"byteLength":48,
			"byteOffset":3808,
			"target":34962
		},
		{
			"buffer":0,
			"byteLength":48,
			"byteOffset":3856,
			"target":34962
		},
		{
			"buffer":0,
			"byteLength":32,
			"byteOffset":3904,
			"target":34962
		},
		{
			"buffer":0,
			"byteLength":32,
			"byteOffset":3936,
			"target":34962
		},
		{
			"buffer":0,
			"byteLength":12,
			"byteOffset":3968,
			"target":34963
		},
		{
			"buffer":0,
			"byteLength":48,
			"byteOffset":3980,
			"target":34962
		},
		{
			"buffer":0,
			"byteLength":48,
			"byteOffset":4028,
			"target":34962
		},
		{
			"buffer":0,
			"byteLength":32,
			"byteOffset":4076,
			"target":34962
		},
		{
			"buffer":0,
			"byteLength":12,
			"byteOffset":4108,
			"target":34963
		}
	],
	"samplers":[
		{
			"magFilter":9729,
			"minFilter":9987
		}
	],
	"buffers":[
		{
			"byteLength":4120,
			"uri":"school.bin"
		}
	]
}
