{
	"asset":{
		"generator":"Khronos glTF Blender I/O v4.4.55",
		"version":"2.0"
	},
	"scene":0,
	"scenes":[
		{
			"name":"Scene",
			"nodes":[
				0,
				1
			]
		}
	],
	"nodes":[
		{
			"mesh":0,
			"name":"Maxis-3d1-mesh-58-mall1",
			"rotation":[
				0.70710688829422,
				0,
				0,
				0.7071066498756409
			]
		},
		{
			"extras":{
				"gd_node":"Decal",
				"lower_fade":9,
				"upper_fade":10
			},
			"mesh":1,
			"name":"Ground_AO",
			"scale":[
				28.34667205810547,
				1,
				26.881668090820312
			],
			"translation":[
				0.23923110961914062,
				-7.735074177617207e-06,
				0
			]
		}
	],
	"materials":[
		{
			"name":"matcolour-48",
			"occlusionTexture":{
				"index":0,
				"texCoord":1
			},
			"pbrMetallicRoughness":{
				"baseColorFactor":[
					0.05882352963089943,
					0.05882352963089943,
					0.05882352963089943,
					1
				],
				"metallicFactor":0
			}
		},
		{
			"name":"mat40-51",
			"occlusionTexture":{
				"index":1,
				"texCoord":1
			},
			"pbrMetallicRoughness":{
				"baseColorTexture":{
					"index":2
				},
				"metallicFactor":0
			}
		},
		{
			"name":"matcolour-0",
			"occlusionTexture":{
				"index":3,
				"texCoord":1
			},
			"pbrMetallicRoughness":{
				"baseColorFactor":[
					0,
					0,
					0,
					1
				],
				"metallicFactor":0
			}
		},
		{
			"name":"Ground_AO.001",
			"occlusionTexture":{
				"index":4
			},
			"pbrMetallicRoughness":{
				"baseColorFactor":[
					0.800000011920929,
					0.800000011920929,
					0.800000011920929,
					1
				],
				"metallicFactor":0,
				"roughnessFactor":0.5
			}
		}
	],
	"meshes":[
		{
			"name":"Maxis-3d1-mesh-58-mall1",
			"primitives":[
				{
					"attributes":{
						"POSITION":0,
						"NORMAL":1,
						"TEXCOORD_0":2,
						"TEXCOORD_1":3
					},
					"indices":4,
					"material":0
				},
				{
					"attributes":{
						"POSITION":5,
						"NORMAL":6,
						"TEXCOORD_0":7,
						"TEXCOORD_1":8
					},
					"indices":9,
					"material":1
				},
				{
					"attributes":{
						"POSITION":10,
						"NORMAL":11,
						"TEXCOORD_0":12,
						"TEXCOORD_1":13
					},
					"indices":14,
					"material":2
				}
			]
		},
		{
			"name":"Plane.001",
			"primitives":[
				{
					"attributes":{
						"POSITION":15,
						"NORMAL":16,
						"TEXCOORD_0":17
					},
					"indices":18,
					"material":3
				}
			]
		}
	],
	"textures":[
		{
			"sampler":0,
			"source":0
		},
		{
			"sampler":0,
			"source":0
		},
		{
			"sampler":0,
			"source":1
		},
		{
			"sampler":0,
			"source":0
		},
		{
			"sampler":0,
			"source":2
		}
	],
	"images":[
		{
			"mimeType":"image/png",
			"name":"shopping_centre.png",
			"uri":"../../Textures/ambient_occlusion/Buildings/shopping_centre.png"
		},
		{
			"mimeType":"image/png",
			"name":"tex40-51",
			"uri":"../../Textures/tex40-51.png"
		},
		{
			"mimeType":"image/png",
			"name":"shopping_centre_ground.png",
			"uri":"../../Textures/ambient_occlusion/Buildings/shopping_centre_ground.png"
		}
	],
	"accessors":[
		{
			"bufferView":0,
			"componentType":5126,
			"count":154,
			"max":[
				13.91256332397461,
				12.940834045410156,
				-3.229991912841797
			],
			"min":[
				-13.434104919433594,
				-12.940834045410156,
				-8.124958038330078
			],
			"type":"VEC3"
		},
		{
			"bufferView":1,
			"componentType":5126,
			"count":154,
			"type":"VEC3"
		},
		{
			"bufferView":2,
			"componentType":5126,
			"count":154,
			"type":"VEC2"
		},
		{
			"bufferView":3,
			"componentType":5126,
			"count":154,
			"type":"VEC2"
		},
		{
			"bufferView":4,
			"componentType":5123,
			"count":252,
			"type":"SCALAR"
		},
		{
			"bufferView":5,
			"componentType":5126,
			"count":36,
			"max":[
				13.912567138671875,
				12.940834045410156,
				3.814697265625e-06
			],
			"min":[
				-13.434104919433594,
				-12.940834045410156,
				-3.8874473571777344
			],
			"type":"VEC3"
		},
		{
			"bufferView":6,
			"componentType":5126,
			"count":36,
			"type":"VEC3"
		},
		{
			"bufferView":7,
			"componentType":5126,
			"count":36,
			"type":"VEC2"
		},
		{
			"bufferView":8,
			"componentType":5126,
			"count":36,
			"type":"VEC2"
		},
		{
			"bufferView":9,
			"componentType":5123,
			"count":48,
			"type":"SCALAR"
		},
		{
			"bufferView":10,
			"componentType":5126,
			"count":12,
			"max":[
				3.425403594970703,
				2.67718505859375,
				-4.601459503173828
			],
			"min":[
				2.58209228515625,
				1.3228111267089844,
				-5.331787109375
			],
			"type":"VEC3"
		},
		{
			"bufferView":11,
			"componentType":5126,
			"count":12,
			"type":"VEC3"
		},
		{
			"bufferView":12,
			"componentType":5126,
			"count":12,
			"type":"VEC2"
		},
		{
			"bufferView":13,
			"componentType":5126,
			"count":12,
			"type":"VEC2"
		},
		{
			"bufferView":14,
			"componentType":5123,
			"count":24,
			"type":"SCALAR"
		},
		{
			"bufferView":15,
			"componentType":5126,
			"count":4,
			"max":[
				0.5,
				0,
				0.5
			],
			"min":[
				-0.5,
				0,
				-0.5
			],
			"type":"VEC3"
		},
		{
			"bufferView":16,
			"componentType":5126,
			"count":4,
			"type":"VEC3"
		},
		{
			"bufferView":17,
			"componentType":5126,
			"count":4,
			"type":"VEC2"
		},
		{
			"bufferView":18,
			"componentType":5123,
			"count":6,
			"type":"SCALAR"
		}
	],
	"bufferViews":[
		{
			"buffer":0,
			"byteLength":1848,
			"byteOffset":0,
			"target":34962
		},
		{
			"buffer":0,
			"byteLength":1848,
			"byteOffset":1848,
			"target":34962
		},
		{
			"buffer":0,
			"byteLength":1232,
			"byteOffset":3696,
			"target":34962
		},
		{
			"buffer":0,
			"byteLength":1232,
			"byteOffset":4928,
			"target":34962
		},
		{
			"buffer":0,
			"byteLength":504,
			"byteOffset":6160,
			"target":34963
		},
		{
			"buffer":0,
			"byteLength":432,
			"byteOffset":6664,
			"target":34962
		},
		{
			"buffer":0,
			"byteLength":432,
			"byteOffset":7096,
			"target":34962
		},
		{
			"buffer":0,
			"byteLength":288,
			"byteOffset":7528,
			"target":34962
		},
		{
			"buffer":0,
			"byteLength":288,
			"byteOffset":7816,
			"target":34962
		},
		{
			"buffer":0,
			"byteLength":96,
			"byteOffset":8104,
			"target":34963
		},
		{
			"buffer":0,
			"byteLength":144,
			"byteOffset":8200,
			"target":34962
		},
		{
			"buffer":0,
			"byteLength":144,
			"byteOffset":8344,
			"target":34962
		},
		{
			"buffer":0,
			"byteLength":96,
			"byteOffset":8488,
			"target":34962
		},
		{
			"buffer":0,
			"byteLength":96,
			"byteOffset":8584,
			"target":34962
		},
		{
			"buffer":0,
			"byteLength":48,
			"byteOffset":8680,
			"target":34963
		},
		{
			"buffer":0,
			"byteLength":48,
			"byteOffset":8728,
			"target":34962
		},
		{
			"buffer":0,
			"byteLength":48,
			"byteOffset":8776,
			"target":34962
		},
		{
			"buffer":0,
			"byteLength":32,
			"byteOffset":8824,
			"target":34962
		},
		{
			"buffer":0,
			"byteLength":12,
			"byteOffset":8856,
			"target":34963
		}
	],
	"samplers":[
		{
			"magFilter":9729,
			"minFilter":9987
		}
	],
	"buffers":[
		{
			"byteLength":8868,
			"uri":"shopping_centre.bin"
		}
	]
}
