{
	"asset":{
		"generator":"Khronos glTF Blender I/O v4.4.55",
		"version":"2.0"
	},
	"scene":0,
	"scenes":[
		{
			"name":"Scene",
			"nodes":[
				0,
				1
			]
		}
	],
	"nodes":[
		{
			"mesh":0,
			"name":"Maxis-3d3-mesh-67",
			"rotation":[
				0.70710688829422,
				0,
				0,
				0.7071066498756409
			]
		},
		{
			"extras":{
				"gd_node":"Decal",
				"lower_fade":9,
				"upper_fade":10
			},
			"mesh":1,
			"name":"Ground_AO",
			"scale":[
				15.186954498291016,
				1,
				12.343558311462402
			],
			"translation":[
				-0.22823524475097656,
				0,
				-0.013698577880859375
			]
		}
	],
	"materials":[
		{
			"name":"matcolour-48.017",
			"occlusionTexture":{
				"index":0,
				"texCoord":1
			},
			"pbrMetallicRoughness":{
				"baseColorFactor":[
					0.05882352963089943,
					0.05882352963089943,
					0.05882352963089943,
					1
				],
				"metallicFactor":0
			}
		},
		{
			"name":"mat40-36.002",
			"occlusionTexture":{
				"index":1,
				"texCoord":1
			},
			"pbrMetallicRoughness":{
				"baseColorTexture":{
					"index":2
				},
				"metallicFactor":0
			}
		},
		{
			"name":"mat40-39.002",
			"occlusionTexture":{
				"index":3,
				"texCoord":1
			},
			"pbrMetallicRoughness":{
				"baseColorTexture":{
					"index":4
				},
				"metallicFactor":0
			}
		},
		{
			"name":"mat40-37.002",
			"occlusionTexture":{
				"index":5,
				"texCoord":1
			},
			"pbrMetallicRoughness":{
				"baseColorTexture":{
					"index":6
				},
				"metallicFactor":0
			}
		},
		{
			"name":"mat40-38.002",
			"occlusionTexture":{
				"index":7,
				"texCoord":1
			},
			"pbrMetallicRoughness":{
				"baseColorTexture":{
					"index":8
				},
				"metallicFactor":0
			}
		},
		{
			"name":"mat40-47.001",
			"occlusionTexture":{
				"index":9,
				"texCoord":1
			},
			"pbrMetallicRoughness":{
				"baseColorTexture":{
					"index":10
				},
				"metallicFactor":0
			}
		},
		{
			"name":"mat40-44.001",
			"occlusionTexture":{
				"index":11,
				"texCoord":1
			},
			"pbrMetallicRoughness":{
				"baseColorTexture":{
					"index":12
				},
				"metallicFactor":0
			}
		},
		{
			"name":"mat40-45.002",
			"occlusionTexture":{
				"index":13,
				"texCoord":1
			},
			"pbrMetallicRoughness":{
				"baseColorTexture":{
					"index":14
				},
				"metallicFactor":0
			}
		},
		{
			"name":"mat40-46.001",
			"occlusionTexture":{
				"index":15,
				"texCoord":1
			},
			"pbrMetallicRoughness":{
				"baseColorTexture":{
					"index":16
				},
				"metallicFactor":0
			}
		},
		{
			"name":"mat40-60.003",
			"occlusionTexture":{
				"index":17,
				"texCoord":1
			},
			"pbrMetallicRoughness":{
				"baseColorTexture":{
					"index":18
				},
				"metallicFactor":0
			}
		},
		{
			"name":"mat40-61.003",
			"occlusionTexture":{
				"index":19,
				"texCoord":1
			},
			"pbrMetallicRoughness":{
				"baseColorTexture":{
					"index":20
				},
				"metallicFactor":0
			}
		},
		{
			"name":"Ground_AO.001",
			"occlusionTexture":{
				"index":21
			},
			"pbrMetallicRoughness":{
				"baseColorFactor":[
					0.800000011920929,
					0.800000011920929,
					0.800000011920929,
					1
				],
				"metallicFactor":0,
				"roughnessFactor":0.5
			}
		}
	],
	"meshes":[
		{
			"name":"Maxis-3d3-mesh-67",
			"primitives":[
				{
					"attributes":{
						"POSITION":0,
						"NORMAL":1,
						"TEXCOORD_0":2,
						"TEXCOORD_1":3
					},
					"indices":4,
					"material":0
				},
				{
					"attributes":{
						"POSITION":5,
						"NORMAL":6,
						"TEXCOORD_0":7,
						"TEXCOORD_1":8
					},
					"indices":9,
					"material":1
				},
				{
					"attributes":{
						"POSITION":10,
						"NORMAL":11,
						"TEXCOORD_0":12,
						"TEXCOORD_1":13
					},
					"indices":14,
					"material":2
				},
				{
					"attributes":{
						"POSITION":15,
						"NORMAL":16,
						"TEXCOORD_0":17,
						"TEXCOORD_1":18
					},
					"indices":19,
					"material":3
				},
				{
					"attributes":{
						"POSITION":20,
						"NORMAL":21,
						"TEXCOORD_0":22,
						"TEXCOORD_1":23
					},
					"indices":24,
					"material":4
				},
				{
					"attributes":{
						"POSITION":25,
						"NORMAL":26,
						"TEXCOORD_0":27,
						"TEXCOORD_1":28
					},
					"indices":19,
					"material":5
				},
				{
					"attributes":{
						"POSITION":29,
						"NORMAL":30,
						"TEXCOORD_0":31,
						"TEXCOORD_1":32
					},
					"indices":14,
					"material":6
				},
				{
					"attributes":{
						"POSITION":33,
						"NORMAL":34,
						"TEXCOORD_0":35,
						"TEXCOORD_1":36
					},
					"indices":37,
					"material":7
				},
				{
					"attributes":{
						"POSITION":38,
						"NORMAL":39,
						"TEXCOORD_0":40,
						"TEXCOORD_1":41
					},
					"indices":42,
					"material":8
				},
				{
					"attributes":{
						"POSITION":43,
						"NORMAL":44,
						"TEXCOORD_0":45,
						"TEXCOORD_1":46
					},
					"indices":47,
					"material":9
				},
				{
					"attributes":{
						"POSITION":48,
						"NORMAL":49,
						"TEXCOORD_0":50,
						"TEXCOORD_1":51
					},
					"indices":52,
					"material":10
				}
			]
		},
		{
			"name":"Plane.001",
			"primitives":[
				{
					"attributes":{
						"POSITION":53,
						"NORMAL":54,
						"TEXCOORD_0":55
					},
					"indices":56,
					"material":11
				}
			]
		}
	],
	"textures":[
		{
			"sampler":0,
			"source":0
		},
		{
			"sampler":0,
			"source":0
		},
		{
			"sampler":0,
			"source":1
		},
		{
			"sampler":0,
			"source":0
		},
		{
			"sampler":0,
			"source":2
		},
		{
			"sampler":0,
			"source":0
		},
		{
			"sampler":0,
			"source":3
		},
		{
			"sampler":0,
			"source":0
		},
		{
			"sampler":0,
			"source":4
		},
		{
			"sampler":0,
			"source":0
		},
		{
			"sampler":0,
			"source":5
		},
		{
			"sampler":0,
			"source":0
		},
		{
			"sampler":0,
			"source":6
		},
		{
			"sampler":0,
			"source":0
		},
		{
			"sampler":0,
			"source":7
		},
		{
			"sampler":0,
			"source":0
		},
		{
			"sampler":0,
			"source":8
		},
		{
			"sampler":0,
			"source":0
		},
		{
			"sampler":0,
			"source":9
		},
		{
			"sampler":0,
			"source":0
		},
		{
			"sampler":0,
			"source":10
		},
		{
			"sampler":0,
			"source":11
		}
	],
	"images":[
		{
			"mimeType":"image/png",
			"name":"tarmac_radar.png",
			"uri":"../../Textures/ambient_occlusion/Buildings/tarmac_radar.png"
		},
		{
			"mimeType":"image/png",
			"name":"tex40-36",
			"uri":"../../Textures/tex40-36.png"
		},
		{
			"mimeType":"image/png",
			"name":"tex40-39",
			"uri":"../../Textures/tex40-39.png"
		},
		{
			"mimeType":"image/png",
			"name":"tex40-37",
			"uri":"../../Textures/tex40-37.png"
		},
		{
			"mimeType":"image/png",
			"name":"tex40-38",
			"uri":"../../Textures/tex40-38.png"
		},
		{
			"mimeType":"image/png",
			"name":"tex40-47",
			"uri":"../../Textures/tex40-47.png"
		},
		{
			"mimeType":"image/png",
			"name":"tex40-44",
			"uri":"../../Textures/tex40-44.png"
		},
		{
			"mimeType":"image/png",
			"name":"tex40-45",
			"uri":"../../Textures/tex40-45.png"
		},
		{
			"mimeType":"image/png",
			"name":"tex40-46",
			"uri":"../../Textures/tex40-46.png"
		},
		{
			"mimeType":"image/png",
			"name":"tex40-60",
			"uri":"../../Textures/tex40-60.png"
		},
		{
			"mimeType":"image/png",
			"name":"tex40-61",
			"uri":"../../Textures/tex40-61.png"
		},
		{
			"mimeType":"image/png",
			"name":"tarmac_radar_ground.png",
			"uri":"../../Textures/ambient_occlusion/Buildings/tarmac_radar_ground.png"
		}
	],
	"accessors":[
		{
			"bufferView":0,
			"componentType":5126,
			"count":263,
			"max":[
				6.789100646972656,
				3.0748672485351562,
				-2.205059051513672
			],
			"min":[
				-2.3891525268554688,
				-3.5684051513671875,
				-12.256053924560547
			],
			"type":"VEC3"
		},
		{
			"bufferView":1,
			"componentType":5126,
			"count":263,
			"type":"VEC3"
		},
		{
			"bufferView":2,
			"componentType":5126,
			"count":263,
			"type":"VEC2"
		},
		{
			"bufferView":3,
			"componentType":5126,
			"count":263,
			"type":"VEC2"
		},
		{
			"bufferView":4,
			"componentType":5123,
			"count":480,
			"type":"SCALAR"
		},
		{
			"bufferView":5,
			"componentType":5126,
			"count":4,
			"max":[
				6.865242004394531,
				-5.685478210449219,
				0
			],
			"min":[
				-7.321708679199219,
				-5.685478210449219,
				-2.205059051513672
			],
			"type":"VEC3"
		},
		{
			"bufferView":6,
			"componentType":5126,
			"count":4,
			"type":"VEC3"
		},
		{
			"bufferView":7,
			"componentType":5126,
			"count":4,
			"type":"VEC2"
		},
		{
			"bufferView":8,
			"componentType":5126,
			"count":4,
			"type":"VEC2"
		},
		{
			"bufferView":9,
			"componentType":5123,
			"count":6,
			"type":"SCALAR"
		},
		{
			"bufferView":10,
			"componentType":5126,
			"count":4,
			"max":[
				6.865238189697266,
				5.658077239990234,
				0
			],
			"min":[
				-7.321712493896484,
				5.658077239990234,
				-2.205059051513672
			],
			"type":"VEC3"
		},
		{
			"bufferView":11,
			"componentType":5126,
			"count":4,
			"type":"VEC3"
		},
		{
			"bufferView":12,
			"componentType":5126,
			"count":4,
			"type":"VEC2"
		},
		{
			"bufferView":13,
			"componentType":5126,
			"count":4,
			"type":"VEC2"
		},
		{
			"bufferView":14,
			"componentType":5123,
			"count":6,
			"type":"SCALAR"
		},
		{
			"bufferView":15,
			"componentType":5126,
			"count":4,
			"max":[
				-7.321708679199219,
				5.658077239990234,
				0
			],
			"min":[
				-7.321712493896484,
				-5.685478210449219,
				-2.205059051513672
			],
			"type":"VEC3"
		},
		{
			"bufferView":16,
			"componentType":5126,
			"count":4,
			"type":"VEC3"
		},
		{
			"bufferView":17,
			"componentType":5126,
			"count":4,
			"type":"VEC2"
		},
		{
			"bufferView":18,
			"componentType":5126,
			"count":4,
			"type":"VEC2"
		},
		{
			"bufferView":19,
			"componentType":5123,
			"count":6,
			"type":"SCALAR"
		},
		{
			"bufferView":20,
			"componentType":5126,
			"count":4,
			"max":[
				6.865242004394531,
				5.658077239990234,
				0
			],
			"min":[
				6.865238189697266,
				-5.685478210449219,
				-2.205059051513672
			],
			"type":"VEC3"
		},
		{
			"bufferView":21,
			"componentType":5126,
			"count":4,
			"type":"VEC3"
		},
		{
			"bufferView":22,
			"componentType":5126,
			"count":4,
			"type":"VEC2"
		},
		{
			"bufferView":23,
			"componentType":5126,
			"count":4,
			"type":"VEC2"
		},
		{
			"bufferView":24,
			"componentType":5123,
			"count":6,
			"type":"SCALAR"
		},
		{
			"bufferView":25,
			"componentType":5126,
			"count":4,
			"max":[
				-0.614105224609375,
				4.250968933105469,
				-2.205059051513672
			],
			"min":[
				-6.385410308837891,
				4.250968933105469,
				-3.058216094970703
			],
			"type":"VEC3"
		},
		{
			"bufferView":26,
			"componentType":5126,
			"count":4,
			"type":"VEC3"
		},
		{
			"bufferView":27,
			"componentType":5126,
			"count":4,
			"type":"VEC2"
		},
		{
			"bufferView":28,
			"componentType":5126,
			"count":4,
			"type":"VEC2"
		},
		{
			"bufferView":29,
			"componentType":5126,
			"count":4,
			"max":[
				-0.614105224609375,
				-4.372425079345703,
				-2.205059051513672
			],
			"min":[
				-6.385410308837891,
				-4.372425079345703,
				-3.058216094970703
			],
			"type":"VEC3"
		},
		{
			"bufferView":30,
			"componentType":5126,
			"count":4,
			"type":"VEC3"
		},
		{
			"bufferView":31,
			"componentType":5126,
			"count":4,
			"type":"VEC2"
		},
		{
			"bufferView":32,
			"componentType":5126,
			"count":4,
			"type":"VEC2"
		},
		{
			"bufferView":33,
			"componentType":5126,
			"count":4,
			"max":[
				-6.385410308837891,
				4.250968933105469,
				-2.205059051513672
			],
			"min":[
				-6.385410308837891,
				-4.372425079345703,
				-3.058216094970703
			],
			"type":"VEC3"
		},
		{
			"bufferView":34,
			"componentType":5126,
			"count":4,
			"type":"VEC3"
		},
		{
			"bufferView":35,
			"componentType":5126,
			"count":4,
			"type":"VEC2"
		},
		{
			"bufferView":36,
			"componentType":5126,
			"count":4,
			"type":"VEC2"
		},
		{
			"bufferView":37,
			"componentType":5123,
			"count":6,
			"type":"SCALAR"
		},
		{
			"bufferView":38,
			"componentType":5126,
			"count":4,
			"max":[
				-0.614105224609375,
				4.250968933105469,
				-2.205059051513672
			],
			"min":[
				-0.614105224609375,
				-4.372425079345703,
				-3.058216094970703
			],
			"type":"VEC3"
		},
		{
			"bufferView":39,
			"componentType":5126,
			"count":4,
			"type":"VEC3"
		},
		{
			"bufferView":40,
			"componentType":5126,
			"count":4,
			"type":"VEC2"
		},
		{
			"bufferView":41,
			"componentType":5126,
			"count":4,
			"type":"VEC2"
		},
		{
			"bufferView":42,
			"componentType":5123,
			"count":6,
			"type":"SCALAR"
		},
		{
			"bufferView":43,
			"componentType":5126,
			"count":4,
			"max":[
				-0.614105224609375,
				4.250968933105469,
				-3.058216094970703
			],
			"min":[
				-6.385410308837891,
				-4.372425079345703,
				-3.058216094970703
			],
			"type":"VEC3"
		},
		{
			"bufferView":44,
			"componentType":5126,
			"count":4,
			"type":"VEC3"
		},
		{
			"bufferView":45,
			"componentType":5126,
			"count":4,
			"type":"VEC2"
		},
		{
			"bufferView":46,
			"componentType":5126,
			"count":4,
			"type":"VEC2"
		},
		{
			"bufferView":47,
			"componentType":5123,
			"count":6,
			"type":"SCALAR"
		},
		{
			"bufferView":48,
			"componentType":5126,
			"count":12,
			"max":[
				6.865242004394531,
				5.658077239990234,
				-2.205059051513672
			],
			"min":[
				-7.321712493896484,
				-5.685478210449219,
				-2.205059051513672
			],
			"type":"VEC3"
		},
		{
			"bufferView":49,
			"componentType":5126,
			"count":12,
			"type":"VEC3"
		},
		{
			"bufferView":50,
			"componentType":5126,
			"count":12,
			"type":"VEC2"
		},
		{
			"bufferView":51,
			"componentType":5126,
			"count":12,
			"type":"VEC2"
		},
		{
			"bufferView":52,
			"componentType":5123,
			"count":42,
			"type":"SCALAR"
		},
		{
			"bufferView":53,
			"componentType":5126,
			"count":4,
			"max":[
				0.5,
				0,
				0.5
			],
			"min":[
				-0.5,
				0,
				-0.5
			],
			"type":"VEC3"
		},
		{
			"bufferView":54,
			"componentType":5126,
			"count":4,
			"type":"VEC3"
		},
		{
			"bufferView":55,
			"componentType":5126,
			"count":4,
			"type":"VEC2"
		},
		{
			"bufferView":56,
			"componentType":5123,
			"count":6,
			"type":"SCALAR"
		}
	],
	"bufferViews":[
		{
			"buffer":0,
			"byteLength":3156,
			"byteOffset":0,
			"target":34962
		},
		{
			"buffer":0,
			"byteLength":3156,
			"byteOffset":3156,
			"target":34962
		},
		{
			"buffer":0,
			"byteLength":2104,
			"byteOffset":6312,
			"target":34962
		},
		{
			"buffer":0,
			"byteLength":2104,
			"byteOffset":8416,
			"target":34962
		},
		{
			"buffer":0,
			"byteLength":960,
			"byteOffset":10520,
			"target":34963
		},
		{
			"buffer":0,
			"byteLength":48,
			"byteOffset":11480,
			"target":34962
		},
		{
			"buffer":0,
			"byteLength":48,
			"byteOffset":11528,
			"target":34962
		},
		{
			"buffer":0,
			"byteLength":32,
			"byteOffset":11576,
			"target":34962
		},
		{
			"buffer":0,
			"byteLength":32,
			"byteOffset":11608,
			"target":34962
		},
		{
			"buffer":0,
			"byteLength":12,
			"byteOffset":11640,
			"target":34963
		},
		{
			"buffer":0,
			"byteLength":48,
			"byteOffset":11652,
			"target":34962
		},
		{
			"buffer":0,
			"byteLength":48,
			"byteOffset":11700,
			"target":34962
		},
		{
			"buffer":0,
			"byteLength":32,
			"byteOffset":11748,
			"target":34962
		},
		{
			"buffer":0,
			"byteLength":32,
			"byteOffset":11780,
			"target":34962
		},
		{
			"buffer":0,
			"byteLength":12,
			"byteOffset":11812,
			"target":34963
		},
		{
			"buffer":0,
			"byteLength":48,
			"byteOffset":11824,
			"target":34962
		},
		{
			"buffer":0,
			"byteLength":48,
			"byteOffset":11872,
			"target":34962
		},
		{
			"buffer":0,
			"byteLength":32,
			"byteOffset":11920,
			"target":34962
		},
		{
			"buffer":0,
			"byteLength":32,
			"byteOffset":11952,
			"target":34962
		},
		{
			"buffer":0,
			"byteLength":12,
			"byteOffset":11984,
			"target":34963
		},
		{
			"buffer":0,
			"byteLength":48,
			"byteOffset":11996,
			"target":34962
		},
		{
			"buffer":0,
			"byteLength":48,
			"byteOffset":12044,
			"target":34962
		},
		{
			"buffer":0,
			"byteLength":32,
			"byteOffset":12092,
			"target":34962
		},
		{
			"buffer":0,
			"byteLength":32,
			"byteOffset":12124,
			"target":34962
		},
		{
			"buffer":0,
			"byteLength":12,
			"byteOffset":12156,
			"target":34963
		},
		{
			"buffer":0,
			"byteLength":48,
			"byteOffset":12168,
			"target":34962
		},
		{
			"buffer":0,
			"byteLength":48,
			"byteOffset":12216,
			"target":34962
		},
		{
			"buffer":0,
			"byteLength":32,
			"byteOffset":12264,
			"target":34962
		},
		{
			"buffer":0,
			"byteLength":32,
			"byteOffset":12296,
			"target":34962
		},
		{
			"buffer":0,
			"byteLength":48,
			"byteOffset":12328,
			"target":34962
		},
		{
			"buffer":0,
			"byteLength":48,
			"byteOffset":12376,
			"target":34962
		},
		{
			"buffer":0,
			"byteLength":32,
			"byteOffset":12424,
			"target":34962
		},
		{
			"buffer":0,
			"byteLength":32,
			"byteOffset":12456,
			"target":34962
		},
		{
			"buffer":0,
			"byteLength":48,
			"byteOffset":12488,
			"target":34962
		},
		{
			"buffer":0,
			"byteLength":48,
			"byteOffset":12536,
			"target":34962
		},
		{
			"buffer":0,
			"byteLength":32,
			"byteOffset":12584,
			"target":34962
		},
		{
			"buffer":0,
			"byteLength":32,
			"byteOffset":12616,
			"target":34962
		},
		{
			"buffer":0,
			"byteLength":12,
			"byteOffset":12648,
			"target":34963
		},
		{
			"buffer":0,
			"byteLength":48,
			"byteOffset":12660,
			"target":34962
		},
		{
			"buffer":0,
			"byteLength":48,
			"byteOffset":12708,
			"target":34962
		},
		{
			"buffer":0,
			"byteLength":32,
			"byteOffset":12756,
			"target":34962
		},
		{
			"buffer":0,
			"byteLength":32,
			"byteOffset":12788,
			"target":34962
		},
		{
			"buffer":0,
			"byteLength":12,
			"byteOffset":12820,
			"target":34963
		},
		{
			"buffer":0,
			"byteLength":48,
			"byteOffset":12832,
			"target":34962
		},
		{
			"buffer":0,
			"byteLength":48,
			"byteOffset":12880,
			"target":34962
		},
		{
			"buffer":0,
			"byteLength":32,
			"byteOffset":12928,
			"target":34962
		},
		{
			"buffer":0,
			"byteLength":32,
			"byteOffset":12960,
			"target":34962
		},
		{
			"buffer":0,
			"byteLength":12,
			"byteOffset":12992,
			"target":34963
		},
		{
			"buffer":0,
			"byteLength":144,
			"byteOffset":13004,
			"target":34962
		},
		{
			"buffer":0,
			"byteLength":144,
			"byteOffset":13148,
			"target":34962
		},
		{
			"buffer":0,
			"byteLength":96,
			"byteOffset":13292,
			"target":34962
		},
		{
			"buffer":0,
			"byteLength":96,
			"byteOffset":13388,
			"target":34962
		},
		{
			"buffer":0,
			"byteLength":84,
			"byteOffset":13484,
			"target":34963
		},
		{
			"buffer":0,
			"byteLength":48,
			"byteOffset":13568,
			"target":34962
		},
		{
			"buffer":0,
			"byteLength":48,
			"byteOffset":13616,
			"target":34962
		},
		{
			"buffer":0,
			"byteLength":32,
			"byteOffset":13664,
			"target":34962
		},
		{
			"buffer":0,
			"byteLength":12,
			"byteOffset":13696,
			"target":34963
		}
	],
	"samplers":[
		{
			"magFilter":9729,
			"minFilter":9987
		}
	],
	"buffers":[
		{
			"byteLength":13708,
			"uri":"tarmac_radar.bin"
		}
	]
}
