{
	"asset":{
		"generator":"Khronos glTF Blender I/O v4.4.55",
		"version":"2.0"
	},
	"scene":0,
	"scenes":[
		{
			"name":"Scene",
			"nodes":[
				0,
				1
			]
		}
	],
	"nodes":[
		{
			"mesh":0,
			"name":"Maxis-3d3-mesh-27",
			"rotation":[
				0.70710688829422,
				0,
				0,
				0.7071066498756409
			]
		},
		{
			"extras":{
				"gd_node":"Decal",
				"lower_fade":9,
				"upper_fade":10
			},
			"mesh":1,
			"name":"Ground_AO",
			"scale":[
				16.195831298828125,
				1,
				16.041250228881836
			],
			"translation":[
				-0.11041641235351562,
				-2.2683097995468415e-06,
				-0.03312349319458008
			]
		}
	],
	"materials":[
		{
			"name":"matcolour-128.007",
			"occlusionTexture":{
				"index":0,
				"texCoord":1
			},
			"pbrMetallicRoughness":{
				"baseColorFactor":[
					0.12156862765550613,
					0.08235294371843338,
					0.062745101749897,
					1
				],
				"metallicFactor":0
			}
		},
		{
			"name":"mat2-51",
			"occlusionTexture":{
				"index":1,
				"texCoord":1
			},
			"pbrMetallicRoughness":{
				"baseColorTexture":{
					"index":2
				},
				"metallicFactor":0
			}
		},
		{
			"name":"mat2-41.001",
			"occlusionTexture":{
				"index":3,
				"texCoord":1
			},
			"pbrMetallicRoughness":{
				"baseColorTexture":{
					"index":4
				},
				"metallicFactor":0
			}
		},
		{
			"name":"mat2-49",
			"occlusionTexture":{
				"index":5,
				"texCoord":1
			},
			"pbrMetallicRoughness":{
				"baseColorTexture":{
					"index":6
				},
				"metallicFactor":0
			}
		},
		{
			"name":"mat2-50",
			"occlusionTexture":{
				"index":7,
				"texCoord":1
			},
			"pbrMetallicRoughness":{
				"baseColorTexture":{
					"index":8
				},
				"metallicFactor":0
			}
		},
		{
			"name":"mat39-63",
			"occlusionTexture":{
				"index":9,
				"texCoord":1
			},
			"pbrMetallicRoughness":{
				"baseColorTexture":{
					"index":10
				},
				"metallicFactor":0
			}
		},
		{
			"name":"mat2-48",
			"occlusionTexture":{
				"index":11,
				"texCoord":1
			},
			"pbrMetallicRoughness":{
				"baseColorTexture":{
					"index":12
				},
				"metallicFactor":0
			}
		},
		{
			"name":"mat40-39",
			"occlusionTexture":{
				"index":13,
				"texCoord":1
			},
			"pbrMetallicRoughness":{
				"baseColorTexture":{
					"index":14
				},
				"metallicFactor":0
			}
		},
		{
			"name":"mat40-36",
			"occlusionTexture":{
				"index":15,
				"texCoord":1
			},
			"pbrMetallicRoughness":{
				"baseColorTexture":{
					"index":16
				},
				"metallicFactor":0
			}
		},
		{
			"name":"mat40-38",
			"occlusionTexture":{
				"index":17,
				"texCoord":1
			},
			"pbrMetallicRoughness":{
				"baseColorTexture":{
					"index":18
				},
				"metallicFactor":0
			}
		},
		{
			"name":"mat40-37",
			"occlusionTexture":{
				"index":19,
				"texCoord":1
			},
			"pbrMetallicRoughness":{
				"baseColorTexture":{
					"index":20
				},
				"metallicFactor":0
			}
		},
		{
			"name":"matcolour-48.019",
			"occlusionTexture":{
				"index":21,
				"texCoord":1
			},
			"pbrMetallicRoughness":{
				"baseColorFactor":[
					0.05882352963089943,
					0.05882352963089943,
					0.05882352963089943,
					1
				],
				"metallicFactor":0
			}
		},
		{
			"name":"Ground_AO.001",
			"occlusionTexture":{
				"index":22
			},
			"pbrMetallicRoughness":{
				"baseColorFactor":[
					0.800000011920929,
					0.800000011920929,
					0.800000011920929,
					1
				],
				"metallicFactor":0,
				"roughnessFactor":0.5
			}
		}
	],
	"meshes":[
		{
			"name":"Maxis-3d3-mesh-27",
			"primitives":[
				{
					"attributes":{
						"POSITION":0,
						"NORMAL":1,
						"TEXCOORD_0":2,
						"TEXCOORD_1":3
					},
					"indices":4,
					"material":0
				},
				{
					"attributes":{
						"POSITION":5,
						"NORMAL":6,
						"TEXCOORD_0":7,
						"TEXCOORD_1":8
					},
					"indices":9,
					"material":1
				},
				{
					"attributes":{
						"POSITION":10,
						"NORMAL":11,
						"TEXCOORD_0":12,
						"TEXCOORD_1":13
					},
					"indices":14,
					"material":2
				},
				{
					"attributes":{
						"POSITION":15,
						"NORMAL":16,
						"TEXCOORD_0":17,
						"TEXCOORD_1":18
					},
					"indices":19,
					"material":3
				},
				{
					"attributes":{
						"POSITION":20,
						"NORMAL":21,
						"TEXCOORD_0":22,
						"TEXCOORD_1":23
					},
					"indices":24,
					"material":4
				},
				{
					"attributes":{
						"POSITION":25,
						"NORMAL":26,
						"TEXCOORD_0":27,
						"TEXCOORD_1":28
					},
					"indices":29,
					"material":5
				},
				{
					"attributes":{
						"POSITION":30,
						"NORMAL":31,
						"TEXCOORD_0":32,
						"TEXCOORD_1":33
					},
					"indices":34,
					"material":6
				},
				{
					"attributes":{
						"POSITION":35,
						"NORMAL":36,
						"TEXCOORD_0":37,
						"TEXCOORD_1":38
					},
					"indices":39,
					"material":7
				},
				{
					"attributes":{
						"POSITION":40,
						"NORMAL":41,
						"TEXCOORD_0":42,
						"TEXCOORD_1":43
					},
					"indices":44,
					"material":8
				},
				{
					"attributes":{
						"POSITION":45,
						"NORMAL":46,
						"TEXCOORD_0":47,
						"TEXCOORD_1":48
					},
					"indices":49,
					"material":9
				},
				{
					"attributes":{
						"POSITION":50,
						"NORMAL":51,
						"TEXCOORD_0":52,
						"TEXCOORD_1":53
					},
					"indices":54,
					"material":10
				},
				{
					"attributes":{
						"POSITION":55,
						"NORMAL":56,
						"TEXCOORD_0":57,
						"TEXCOORD_1":58
					},
					"indices":59,
					"material":11
				}
			]
		},
		{
			"name":"Plane.001",
			"primitives":[
				{
					"attributes":{
						"POSITION":60,
						"NORMAL":61,
						"TEXCOORD_0":62
					},
					"indices":63,
					"material":12
				}
			]
		}
	],
	"textures":[
		{
			"sampler":0,
			"source":0
		},
		{
			"sampler":0,
			"source":0
		},
		{
			"sampler":0,
			"source":1
		},
		{
			"sampler":0,
			"source":0
		},
		{
			"sampler":0,
			"source":2
		},
		{
			"sampler":0,
			"source":0
		},
		{
			"sampler":0,
			"source":3
		},
		{
			"sampler":0,
			"source":0
		},
		{
			"sampler":0,
			"source":4
		},
		{
			"sampler":0,
			"source":0
		},
		{
			"sampler":0,
			"source":5
		},
		{
			"sampler":0,
			"source":0
		},
		{
			"sampler":0,
			"source":6
		},
		{
			"sampler":0,
			"source":0
		},
		{
			"sampler":0,
			"source":7
		},
		{
			"sampler":0,
			"source":0
		},
		{
			"sampler":0,
			"source":8
		},
		{
			"sampler":0,
			"source":0
		},
		{
			"sampler":0,
			"source":9
		},
		{
			"sampler":0,
			"source":0
		},
		{
			"sampler":0,
			"source":10
		},
		{
			"sampler":0,
			"source":0
		},
		{
			"sampler":0,
			"source":11
		}
	],
	"images":[
		{
			"mimeType":"image/png",
			"name":"toy_store.png",
			"uri":"../../Textures/ambient_occlusion/Buildings/toy_store.png"
		},
		{
			"mimeType":"image/png",
			"name":"tex2-51",
			"uri":"../../Textures/tex2-51.png"
		},
		{
			"mimeType":"image/png",
			"name":"tex2-41",
			"uri":"../../Textures/tex2-41.png"
		},
		{
			"mimeType":"image/png",
			"name":"tex2-49",
			"uri":"../../Textures/tex2-49.png"
		},
		{
			"mimeType":"image/png",
			"name":"tex2-50",
			"uri":"../../Textures/tex2-50.png"
		},
		{
			"mimeType":"image/png",
			"name":"tex39-63",
			"uri":"../../Textures/tex39-63.png"
		},
		{
			"mimeType":"image/png",
			"name":"tex2-48",
			"uri":"../../Textures/tex2-48.png"
		},
		{
			"mimeType":"image/png",
			"name":"tex40-39",
			"uri":"../../Textures/tex40-39.png"
		},
		{
			"mimeType":"image/png",
			"name":"tex40-36",
			"uri":"../../Textures/tex40-36.png"
		},
		{
			"mimeType":"image/png",
			"name":"tex40-38",
			"uri":"../../Textures/tex40-38.png"
		},
		{
			"mimeType":"image/png",
			"name":"tex40-37",
			"uri":"../../Textures/tex40-37.png"
		},
		{
			"mimeType":"image/png",
			"name":"toy_store_ground.png",
			"uri":"../../Textures/ambient_occlusion/Buildings/toy_store_ground.png"
		}
	],
	"accessors":[
		{
			"bufferView":0,
			"componentType":5126,
			"count":8,
			"max":[
				6.988330841064453,
				6.239582061767578,
				-6.517223358154297
			],
			"min":[
				-6.988330841064453,
				-6.988334655761719,
				-9.733753204345703
			],
			"type":"VEC3"
		},
		{
			"bufferView":1,
			"componentType":5126,
			"count":8,
			"type":"VEC3"
		},
		{
			"bufferView":2,
			"componentType":5126,
			"count":8,
			"type":"VEC2"
		},
		{
			"bufferView":3,
			"componentType":5126,
			"count":8,
			"type":"VEC2"
		},
		{
			"bufferView":4,
			"componentType":5123,
			"count":12,
			"type":"SCALAR"
		},
		{
			"bufferView":5,
			"componentType":5126,
			"count":6,
			"max":[
				6.988330841064453,
				6.239582061767578,
				0
			],
			"min":[
				-6.988330841064453,
				6.239582061767578,
				-9.733753204345703
			],
			"type":"VEC3"
		},
		{
			"bufferView":6,
			"componentType":5126,
			"count":6,
			"type":"VEC3"
		},
		{
			"bufferView":7,
			"componentType":5126,
			"count":6,
			"type":"VEC2"
		},
		{
			"bufferView":8,
			"componentType":5126,
			"count":6,
			"type":"VEC2"
		},
		{
			"bufferView":9,
			"componentType":5123,
			"count":12,
			"type":"SCALAR"
		},
		{
			"bufferView":10,
			"componentType":5126,
			"count":4,
			"max":[
				4.647769927978516,
				6.256549835205078,
				0
			],
			"min":[
				2.4230575561523438,
				6.2565460205078125,
				-3.046070098876953
			],
			"type":"VEC3"
		},
		{
			"bufferView":11,
			"componentType":5126,
			"count":4,
			"type":"VEC3"
		},
		{
			"bufferView":12,
			"componentType":5126,
			"count":4,
			"type":"VEC2"
		},
		{
			"bufferView":13,
			"componentType":5126,
			"count":4,
			"type":"VEC2"
		},
		{
			"bufferView":14,
			"componentType":5123,
			"count":6,
			"type":"SCALAR"
		},
		{
			"bufferView":15,
			"componentType":5126,
			"count":4,
			"max":[
				-6.988330841064453,
				6.239582061767578,
				0
			],
			"min":[
				-6.988330841064453,
				-6.988334655761719,
				-9.733753204345703
			],
			"type":"VEC3"
		},
		{
			"bufferView":16,
			"componentType":5126,
			"count":4,
			"type":"VEC3"
		},
		{
			"bufferView":17,
			"componentType":5126,
			"count":4,
			"type":"VEC2"
		},
		{
			"bufferView":18,
			"componentType":5126,
			"count":4,
			"type":"VEC2"
		},
		{
			"bufferView":19,
			"componentType":5123,
			"count":6,
			"type":"SCALAR"
		},
		{
			"bufferView":20,
			"componentType":5126,
			"count":4,
			"max":[
				6.988330841064453,
				6.239582061767578,
				0
			],
			"min":[
				6.988330841064453,
				-3.7437477111816406,
				-6.517223358154297
			],
			"type":"VEC3"
		},
		{
			"bufferView":21,
			"componentType":5126,
			"count":4,
			"type":"VEC3"
		},
		{
			"bufferView":22,
			"componentType":5126,
			"count":4,
			"type":"VEC2"
		},
		{
			"bufferView":23,
			"componentType":5126,
			"count":4,
			"type":"VEC2"
		},
		{
			"bufferView":24,
			"componentType":5123,
			"count":6,
			"type":"SCALAR"
		},
		{
			"bufferView":25,
			"componentType":5126,
			"count":10,
			"max":[
				1.3324966430664062,
				6.239582061767578,
				0
			],
			"min":[
				1.3319854736328125,
				-6.988334655761719,
				-9.733753204345703
			],
			"type":"VEC3"
		},
		{
			"bufferView":26,
			"componentType":5126,
			"count":10,
			"type":"VEC3"
		},
		{
			"bufferView":27,
			"componentType":5126,
			"count":10,
			"type":"VEC2"
		},
		{
			"bufferView":28,
			"componentType":5126,
			"count":10,
			"type":"VEC2"
		},
		{
			"bufferView":29,
			"componentType":5123,
			"count":12,
			"type":"SCALAR"
		},
		{
			"bufferView":30,
			"componentType":5126,
			"count":8,
			"max":[
				6.988330841064453,
				-3.7437477111816406,
				0
			],
			"min":[
				-6.988330841064453,
				-6.988334655761719,
				-9.733745574951172
			],
			"type":"VEC3"
		},
		{
			"bufferView":31,
			"componentType":5126,
			"count":8,
			"type":"VEC3"
		},
		{
			"bufferView":32,
			"componentType":5126,
			"count":8,
			"type":"VEC2"
		},
		{
			"bufferView":33,
			"componentType":5126,
			"count":8,
			"type":"VEC2"
		},
		{
			"bufferView":34,
			"componentType":5123,
			"count":12,
			"type":"SCALAR"
		},
		{
			"bufferView":35,
			"componentType":5126,
			"count":16,
			"max":[
				7.487499237060547,
				7.487499237060547,
				0
			],
			"min":[
				-7.708332061767578,
				-7.304164886474609,
				-3.2445831298828125
			],
			"type":"VEC3"
		},
		{
			"bufferView":36,
			"componentType":5126,
			"count":16,
			"type":"VEC3"
		},
		{
			"bufferView":37,
			"componentType":5126,
			"count":16,
			"type":"VEC2"
		},
		{
			"bufferView":38,
			"componentType":5126,
			"count":16,
			"type":"VEC2"
		},
		{
			"bufferView":39,
			"componentType":5123,
			"count":24,
			"type":"SCALAR"
		},
		{
			"bufferView":40,
			"componentType":5126,
			"count":16,
			"max":[
				7.487499237060547,
				7.237918853759766,
				0
			],
			"min":[
				-7.708332061767578,
				-7.553749084472656,
				-3.2445831298828125
			],
			"type":"VEC3"
		},
		{
			"bufferView":41,
			"componentType":5126,
			"count":16,
			"type":"VEC3"
		},
		{
			"bufferView":42,
			"componentType":5126,
			"count":16,
			"type":"VEC2"
		},
		{
			"bufferView":43,
			"componentType":5126,
			"count":16,
			"type":"VEC2"
		},
		{
			"bufferView":44,
			"componentType":5123,
			"count":24,
			"type":"SCALAR"
		},
		{
			"bufferView":45,
			"componentType":5126,
			"count":16,
			"max":[
				7.487499237060547,
				7.487499237060547,
				0
			],
			"min":[
				-7.458747863769531,
				-7.553749084472656,
				-3.2445831298828125
			],
			"type":"VEC3"
		},
		{
			"bufferView":46,
			"componentType":5126,
			"count":16,
			"type":"VEC3"
		},
		{
			"bufferView":47,
			"componentType":5126,
			"count":16,
			"type":"VEC2"
		},
		{
			"bufferView":48,
			"componentType":5126,
			"count":16,
			"type":"VEC2"
		},
		{
			"bufferView":49,
			"componentType":5123,
			"count":24,
			"type":"SCALAR"
		},
		{
			"bufferView":50,
			"componentType":5126,
			"count":16,
			"max":[
				7.2379150390625,
				7.487499237060547,
				0
			],
			"min":[
				-7.708332061767578,
				-7.553749084472656,
				-3.2445831298828125
			],
			"type":"VEC3"
		},
		{
			"bufferView":51,
			"componentType":5126,
			"count":16,
			"type":"VEC3"
		},
		{
			"bufferView":52,
			"componentType":5126,
			"count":16,
			"type":"VEC2"
		},
		{
			"bufferView":53,
			"componentType":5126,
			"count":16,
			"type":"VEC2"
		},
		{
			"bufferView":54,
			"componentType":5123,
			"count":24,
			"type":"SCALAR"
		},
		{
			"bufferView":55,
			"componentType":5126,
			"count":16,
			"max":[
				7.487499237060547,
				7.487499237060547,
				-3.2445831298828125
			],
			"min":[
				-7.708332061767578,
				-7.553749084472656,
				-3.2445831298828125
			],
			"type":"VEC3"
		},
		{
			"bufferView":56,
			"componentType":5126,
			"count":16,
			"type":"VEC3"
		},
		{
			"bufferView":57,
			"componentType":5126,
			"count":16,
			"type":"VEC2"
		},
		{
			"bufferView":58,
			"componentType":5126,
			"count":16,
			"type":"VEC2"
		},
		{
			"bufferView":59,
			"componentType":5123,
			"count":24,
			"type":"SCALAR"
		},
		{
			"bufferView":60,
			"componentType":5126,
			"count":4,
			"max":[
				0.5,
				0,
				0.5
			],
			"min":[
				-0.5,
				0,
				-0.5
			],
			"type":"VEC3"
		},
		{
			"bufferView":61,
			"componentType":5126,
			"count":4,
			"type":"VEC3"
		},
		{
			"bufferView":62,
			"componentType":5126,
			"count":4,
			"type":"VEC2"
		},
		{
			"bufferView":63,
			"componentType":5123,
			"count":6,
			"type":"SCALAR"
		}
	],
	"bufferViews":[
		{
			"buffer":0,
			"byteLength":96,
			"byteOffset":0,
			"target":34962
		},
		{
			"buffer":0,
			"byteLength":96,
			"byteOffset":96,
			"target":34962
		},
		{
			"buffer":0,
			"byteLength":64,
			"byteOffset":192,
			"target":34962
		},
		{
			"buffer":0,
			"byteLength":64,
			"byteOffset":256,
			"target":34962
		},
		{
			"buffer":0,
			"byteLength":24,
			"byteOffset":320,
			"target":34963
		},
		{
			"buffer":0,
			"byteLength":72,
			"byteOffset":344,
			"target":34962
		},
		{
			"buffer":0,
			"byteLength":72,
			"byteOffset":416,
			"target":34962
		},
		{
			"buffer":0,
			"byteLength":48,
			"byteOffset":488,
			"target":34962
		},
		{
			"buffer":0,
			"byteLength":48,
			"byteOffset":536,
			"target":34962
		},
		{
			"buffer":0,
			"byteLength":24,
			"byteOffset":584,
			"target":34963
		},
		{
			"buffer":0,
			"byteLength":48,
			"byteOffset":608,
			"target":34962
		},
		{
			"buffer":0,
			"byteLength":48,
			"byteOffset":656,
			"target":34962
		},
		{
			"buffer":0,
			"byteLength":32,
			"byteOffset":704,
			"target":34962
		},
		{
			"buffer":0,
			"byteLength":32,
			"byteOffset":736,
			"target":34962
		},
		{
			"buffer":0,
			"byteLength":12,
			"byteOffset":768,
			"target":34963
		},
		{
			"buffer":0,
			"byteLength":48,
			"byteOffset":780,
			"target":34962
		},
		{
			"buffer":0,
			"byteLength":48,
			"byteOffset":828,
			"target":34962
		},
		{
			"buffer":0,
			"byteLength":32,
			"byteOffset":876,
			"target":34962
		},
		{
			"buffer":0,
			"byteLength":32,
			"byteOffset":908,
			"target":34962
		},
		{
			"buffer":0,
			"byteLength":12,
			"byteOffset":940,
			"target":34963
		},
		{
			"buffer":0,
			"byteLength":48,
			"byteOffset":952,
			"target":34962
		},
		{
			"buffer":0,
			"byteLength":48,
			"byteOffset":1000,
			"target":34962
		},
		{
			"buffer":0,
			"byteLength":32,
			"byteOffset":1048,
			"target":34962
		},
		{
			"buffer":0,
			"byteLength":32,
			"byteOffset":1080,
			"target":34962
		},
		{
			"buffer":0,
			"byteLength":12,
			"byteOffset":1112,
			"target":34963
		},
		{
			"buffer":0,
			"byteLength":120,
			"byteOffset":1124,
			"target":34962
		},
		{
			"buffer":0,
			"byteLength":120,
			"byteOffset":1244,
			"target":34962
		},
		{
			"buffer":0,
			"byteLength":80,
			"byteOffset":1364,
			"target":34962
		},
		{
			"buffer":0,
			"byteLength":80,
			"byteOffset":1444,
			"target":34962
		},
		{
			"buffer":0,
			"byteLength":24,
			"byteOffset":1524,
			"target":34963
		},
		{
			"buffer":0,
			"byteLength":96,
			"byteOffset":1548,
			"target":34962
		},
		{
			"buffer":0,
			"byteLength":96,
			"byteOffset":1644,
			"target":34962
		},
		{
			"buffer":0,
			"byteLength":64,
			"byteOffset":1740,
			"target":34962
		},
		{
			"buffer":0,
			"byteLength":64,
			"byteOffset":1804,
			"target":34962
		},
		{
			"buffer":0,
			"byteLength":24,
			"byteOffset":1868,
			"target":34963
		},
		{
			"buffer":0,
			"byteLength":192,
			"byteOffset":1892,
			"target":34962
		},
		{
			"buffer":0,
			"byteLength":192,
			"byteOffset":2084,
			"target":34962
		},
		{
			"buffer":0,
			"byteLength":128,
			"byteOffset":2276,
			"target":34962
		},
		{
			"buffer":0,
			"byteLength":128,
			"byteOffset":2404,
			"target":34962
		},
		{
			"buffer":0,
			"byteLength":48,
			"byteOffset":2532,
			"target":34963
		},
		{
			"buffer":0,
			"byteLength":192,
			"byteOffset":2580,
			"target":34962
		},
		{
			"buffer":0,
			"byteLength":192,
			"byteOffset":2772,
			"target":34962
		},
		{
			"buffer":0,
			"byteLength":128,
			"byteOffset":2964,
			"target":34962
		},
		{
			"buffer":0,
			"byteLength":128,
			"byteOffset":3092,
			"target":34962
		},
		{
			"buffer":0,
			"byteLength":48,
			"byteOffset":3220,
			"target":34963
		},
		{
			"buffer":0,
			"byteLength":192,
			"byteOffset":3268,
			"target":34962
		},
		{
			"buffer":0,
			"byteLength":192,
			"byteOffset":3460,
			"target":34962
		},
		{
			"buffer":0,
			"byteLength":128,
			"byteOffset":3652,
			"target":34962
		},
		{
			"buffer":0,
			"byteLength":128,
			"byteOffset":3780,
			"target":34962
		},
		{
			"buffer":0,
			"byteLength":48,
			"byteOffset":3908,
			"target":34963
		},
		{
			"buffer":0,
			"byteLength":192,
			"byteOffset":3956,
			"target":34962
		},
		{
			"buffer":0,
			"byteLength":192,
			"byteOffset":4148,
			"target":34962
		},
		{
			"buffer":0,
			"byteLength":128,
			"byteOffset":4340,
			"target":34962
		},
		{
			"buffer":0,
			"byteLength":128,
			"byteOffset":4468,
			"target":34962
		},
		{
			"buffer":0,
			"byteLength":48,
			"byteOffset":4596,
			"target":34963
		},
		{
			"buffer":0,
			"byteLength":192,
			"byteOffset":4644,
			"target":34962
		},
		{
			"buffer":0,
			"byteLength":192,
			"byteOffset":4836,
			"target":34962
		},
		{
			"buffer":0,
			"byteLength":128,
			"byteOffset":5028,
			"target":34962
		},
		{
			"buffer":0,
			"byteLength":128,
			"byteOffset":5156,
			"target":34962
		},
		{
			"buffer":0,
			"byteLength":48,
			"byteOffset":5284,
			"target":34963
		},
		{
			"buffer":0,
			"byteLength":48,
			"byteOffset":5332,
			"target":34962
		},
		{
			"buffer":0,
			"byteLength":48,
			"byteOffset":5380,
			"target":34962
		},
		{
			"buffer":0,
			"byteLength":32,
			"byteOffset":5428,
			"target":34962
		},
		{
			"buffer":0,
			"byteLength":12,
			"byteOffset":5460,
			"target":34963
		}
	],
	"samplers":[
		{
			"magFilter":9729,
			"minFilter":9987
		}
	],
	"buffers":[
		{
			"byteLength":5472,
			"uri":"toy_store.bin"
		}
	]
}
