{
	"asset":{
		"generator":"Khronos glTF Blender I/O v4.4.55",
		"version":"2.0"
	},
	"scene":0,
	"scenes":[
		{
			"name":"Scene",
			"nodes":[
				0,
				1
			]
		}
	],
	"nodes":[
		{
			"mesh":0,
			"name":"Maxis-3d3-mesh-4",
			"rotation":[
				0.70710688829422,
				0,
				0,
				0.7071066498756409
			]
		},
		{
			"extras":{
				"gd_node":"Decal",
				"lower_fade":9,
				"upper_fade":10
			},
			"mesh":1,
			"name":"Ground_AO",
			"scale":[
				15.632740020751953,
				1,
				14.806535720825195
			],
			"translation":[
				-0.024705886840820312,
				-9.720713023853023e-06,
				0
			]
		}
	],
	"materials":[
		{
			"name":"mat40-59",
			"occlusionTexture":{
				"index":0,
				"texCoord":1
			},
			"pbrMetallicRoughness":{
				"baseColorTexture":{
					"index":1
				},
				"metallicFactor":0
			}
		},
		{
			"name":"mat40-55",
			"occlusionTexture":{
				"index":2,
				"texCoord":1
			},
			"pbrMetallicRoughness":{
				"baseColorTexture":{
					"index":3
				},
				"metallicFactor":0
			}
		},
		{
			"name":"mat40-52",
			"occlusionTexture":{
				"index":4,
				"texCoord":1
			},
			"pbrMetallicRoughness":{
				"baseColorTexture":{
					"index":5
				},
				"metallicFactor":0
			}
		},
		{
			"name":"mat40-44",
			"occlusionTexture":{
				"index":6,
				"texCoord":1
			},
			"pbrMetallicRoughness":{
				"baseColorTexture":{
					"index":7
				},
				"metallicFactor":0
			}
		},
		{
			"name":"matcolour-48",
			"occlusionTexture":{
				"index":8,
				"texCoord":1
			},
			"pbrMetallicRoughness":{
				"baseColorFactor":[
					0.05882352963089943,
					0.05882352963089943,
					0.05882352963089943,
					1
				],
				"metallicFactor":0
			}
		},
		{
			"name":"mat39-56",
			"occlusionTexture":{
				"index":9,
				"texCoord":1
			},
			"pbrMetallicRoughness":{
				"baseColorTexture":{
					"index":10
				},
				"metallicFactor":0
			}
		},
		{
			"name":"matcolour-0",
			"occlusionTexture":{
				"index":11,
				"texCoord":1
			},
			"pbrMetallicRoughness":{
				"baseColorFactor":[
					0,
					0,
					0,
					1
				],
				"metallicFactor":0
			}
		},
		{
			"name":"Ground_AO.001",
			"occlusionTexture":{
				"index":12
			},
			"pbrMetallicRoughness":{
				"baseColorFactor":[
					0.800000011920929,
					0.800000011920929,
					0.800000011920929,
					1
				],
				"metallicFactor":0,
				"roughnessFactor":0.5
			}
		}
	],
	"meshes":[
		{
			"name":"Maxis-3d3-mesh-4",
			"primitives":[
				{
					"attributes":{
						"POSITION":0,
						"NORMAL":1,
						"TEXCOORD_0":2,
						"TEXCOORD_1":3
					},
					"indices":4,
					"material":0
				},
				{
					"attributes":{
						"POSITION":5,
						"NORMAL":6,
						"TEXCOORD_0":7,
						"TEXCOORD_1":8
					},
					"indices":9,
					"material":1
				},
				{
					"attributes":{
						"POSITION":10,
						"NORMAL":11,
						"TEXCOORD_0":12,
						"TEXCOORD_1":13
					},
					"indices":14,
					"material":2
				},
				{
					"attributes":{
						"POSITION":15,
						"NORMAL":16,
						"TEXCOORD_0":17,
						"TEXCOORD_1":18
					},
					"indices":19,
					"material":3
				},
				{
					"attributes":{
						"POSITION":20,
						"NORMAL":21,
						"TEXCOORD_0":22,
						"TEXCOORD_1":23
					},
					"indices":24,
					"material":4
				},
				{
					"attributes":{
						"POSITION":25,
						"NORMAL":26,
						"TEXCOORD_0":27,
						"TEXCOORD_1":28
					},
					"indices":29,
					"material":5
				},
				{
					"attributes":{
						"POSITION":30,
						"NORMAL":31,
						"TEXCOORD_0":32,
						"TEXCOORD_1":33
					},
					"indices":34,
					"material":6
				}
			]
		},
		{
			"name":"Plane.001",
			"primitives":[
				{
					"attributes":{
						"POSITION":35,
						"NORMAL":36,
						"TEXCOORD_0":37
					},
					"indices":38,
					"material":7
				}
			]
		}
	],
	"textures":[
		{
			"sampler":0,
			"source":0
		},
		{
			"sampler":0,
			"source":1
		},
		{
			"sampler":0,
			"source":0
		},
		{
			"sampler":0,
			"source":2
		},
		{
			"sampler":0,
			"source":0
		},
		{
			"sampler":0,
			"source":3
		},
		{
			"sampler":0,
			"source":0
		},
		{
			"sampler":0,
			"source":4
		},
		{
			"sampler":0,
			"source":0
		},
		{
			"sampler":0,
			"source":0
		},
		{
			"sampler":0,
			"source":5
		},
		{
			"sampler":0,
			"source":0
		},
		{
			"sampler":0,
			"source":6
		}
	],
	"images":[
		{
			"mimeType":"image/png",
			"name":"warehouse.png",
			"uri":"../../Textures/ambient_occlusion/Buildings/warehouse.png"
		},
		{
			"mimeType":"image/png",
			"name":"tex40-59",
			"uri":"../../Textures/tex40-59.png"
		},
		{
			"mimeType":"image/png",
			"name":"tex40-55",
			"uri":"../../Textures/tex40-55.png"
		},
		{
			"mimeType":"image/png",
			"name":"tex40-52",
			"uri":"../../Textures/tex40-52.png"
		},
		{
			"mimeType":"image/png",
			"name":"tex40-44",
			"uri":"../../Textures/tex40-44.png"
		},
		{
			"mimeType":"image/png",
			"name":"tex39-56",
			"uri":"../../Textures/tex39-56.png"
		},
		{
			"mimeType":"image/png",
			"name":"warehouse_ground.png",
			"uri":"../../Textures/ambient_occlusion/Buildings/warehouse_ground.png"
		}
	],
	"accessors":[
		{
			"bufferView":0,
			"componentType":5126,
			"count":18,
			"max":[
				2.2702407836914062,
				6.787982940673828,
				7.62939453125e-06
			],
			"min":[
				-7.341075897216797,
				-6.903266906738281,
				-7.0991668701171875
			],
			"type":"VEC3"
		},
		{
			"bufferView":1,
			"componentType":5126,
			"count":18,
			"type":"VEC3"
		},
		{
			"bufferView":2,
			"componentType":5126,
			"count":18,
			"type":"VEC2"
		},
		{
			"bufferView":3,
			"componentType":5126,
			"count":18,
			"type":"VEC2"
		},
		{
			"bufferView":4,
			"componentType":5123,
			"count":24,
			"type":"SCALAR"
		},
		{
			"bufferView":5,
			"componentType":5126,
			"count":16,
			"max":[
				-0.854827880859375,
				-1.3519515991210938,
				-7.099163055419922
			],
			"min":[
				-2.9186363220214844,
				-2.826099395751953,
				-7.408336639404297
			],
			"type":"VEC3"
		},
		{
			"bufferView":6,
			"componentType":5126,
			"count":16,
			"type":"VEC3"
		},
		{
			"bufferView":7,
			"componentType":5126,
			"count":16,
			"type":"VEC2"
		},
		{
			"bufferView":8,
			"componentType":5126,
			"count":16,
			"type":"VEC2"
		},
		{
			"bufferView":9,
			"componentType":5123,
			"count":24,
			"type":"SCALAR"
		},
		{
			"bufferView":10,
			"componentType":5126,
			"count":15,
			"max":[
				7.291664123535156,
				6.666664123535156,
				-2.0833282470703125
			],
			"min":[
				-2.9186363220214844,
				-6.875,
				-7.408332824707031
			],
			"type":"VEC3"
		},
		{
			"bufferView":11,
			"componentType":5126,
			"count":15,
			"type":"VEC3"
		},
		{
			"bufferView":12,
			"componentType":5126,
			"count":15,
			"type":"VEC2"
		},
		{
			"bufferView":13,
			"componentType":5126,
			"count":15,
			"type":"VEC2"
		},
		{
			"bufferView":14,
			"componentType":5123,
			"count":24,
			"type":"SCALAR"
		},
		{
			"bufferView":15,
			"componentType":5126,
			"count":4,
			"max":[
				0.38979339599609375,
				6.903266906738281,
				0
			],
			"min":[
				-1.2367897033691406,
				6.903266906738281,
				-2.6835365295410156
			],
			"type":"VEC3"
		},
		{
			"bufferView":16,
			"componentType":5126,
			"count":4,
			"type":"VEC3"
		},
		{
			"bufferView":17,
			"componentType":5126,
			"count":4,
			"type":"VEC2"
		},
		{
			"bufferView":18,
			"componentType":5126,
			"count":4,
			"type":"VEC2"
		},
		{
			"bufferView":19,
			"componentType":5123,
			"count":6,
			"type":"SCALAR"
		},
		{
			"bufferView":20,
			"componentType":5126,
			"count":75,
			"max":[
				2.2702407836914062,
				6.787982940673828,
				-7.09124755859375
			],
			"min":[
				-7.341075897216797,
				-6.902702331542969,
				-9.54935073852539
			],
			"type":"VEC3"
		},
		{
			"bufferView":21,
			"componentType":5126,
			"count":75,
			"type":"VEC3"
		},
		{
			"bufferView":22,
			"componentType":5126,
			"count":75,
			"type":"VEC2"
		},
		{
			"bufferView":23,
			"componentType":5126,
			"count":75,
			"type":"VEC2"
		},
		{
			"bufferView":24,
			"componentType":5123,
			"count":114,
			"type":"SCALAR"
		},
		{
			"bufferView":25,
			"componentType":5126,
			"count":24,
			"max":[
				7.291664123535156,
				6.666664123535156,
				3.814697265625e-06
			],
			"min":[
				2.2702407836914062,
				-6.903266906738281,
				-2.083332061767578
			],
			"type":"VEC3"
		},
		{
			"bufferView":26,
			"componentType":5126,
			"count":24,
			"type":"VEC3"
		},
		{
			"bufferView":27,
			"componentType":5126,
			"count":24,
			"type":"VEC2"
		},
		{
			"bufferView":28,
			"componentType":5126,
			"count":24,
			"type":"VEC2"
		},
		{
			"bufferView":29,
			"componentType":5123,
			"count":36,
			"type":"SCALAR"
		},
		{
			"bufferView":30,
			"componentType":5126,
			"count":24,
			"max":[
				1.1934738159179688,
				-0.87359619140625,
				-7.09124755859375
			],
			"min":[
				-5.196865081787109,
				-2.992809295654297,
				-8.658748626708984
			],
			"type":"VEC3"
		},
		{
			"bufferView":31,
			"componentType":5126,
			"count":24,
			"type":"VEC3"
		},
		{
			"bufferView":32,
			"componentType":5126,
			"count":24,
			"type":"VEC2"
		},
		{
			"bufferView":33,
			"componentType":5126,
			"count":24,
			"type":"VEC2"
		},
		{
			"bufferView":34,
			"componentType":5123,
			"count":48,
			"type":"SCALAR"
		},
		{
			"bufferView":35,
			"componentType":5126,
			"count":4,
			"max":[
				0.5,
				0,
				0.5
			],
			"min":[
				-0.5,
				0,
				-0.5
			],
			"type":"VEC3"
		},
		{
			"bufferView":36,
			"componentType":5126,
			"count":4,
			"type":"VEC3"
		},
		{
			"bufferView":37,
			"componentType":5126,
			"count":4,
			"type":"VEC2"
		},
		{
			"bufferView":38,
			"componentType":5123,
			"count":6,
			"type":"SCALAR"
		}
	],
	"bufferViews":[
		{
			"buffer":0,
			"byteLength":216,
			"byteOffset":0,
			"target":34962
		},
		{
			"buffer":0,
			"byteLength":216,
			"byteOffset":216,
			"target":34962
		},
		{
			"buffer":0,
			"byteLength":144,
			"byteOffset":432,
			"target":34962
		},
		{
			"buffer":0,
			"byteLength":144,
			"byteOffset":576,
			"target":34962
		},
		{
			"buffer":0,
			"byteLength":48,
			"byteOffset":720,
			"target":34963
		},
		{
			"buffer":0,
			"byteLength":192,
			"byteOffset":768,
			"target":34962
		},
		{
			"buffer":0,
			"byteLength":192,
			"byteOffset":960,
			"target":34962
		},
		{
			"buffer":0,
			"byteLength":128,
			"byteOffset":1152,
			"target":34962
		},
		{
			"buffer":0,
			"byteLength":128,
			"byteOffset":1280,
			"target":34962
		},
		{
			"buffer":0,
			"byteLength":48,
			"byteOffset":1408,
			"target":34963
		},
		{
			"buffer":0,
			"byteLength":180,
			"byteOffset":1456,
			"target":34962
		},
		{
			"buffer":0,
			"byteLength":180,
			"byteOffset":1636,
			"target":34962
		},
		{
			"buffer":0,
			"byteLength":120,
			"byteOffset":1816,
			"target":34962
		},
		{
			"buffer":0,
			"byteLength":120,
			"byteOffset":1936,
			"target":34962
		},
		{
			"buffer":0,
			"byteLength":48,
			"byteOffset":2056,
			"target":34963
		},
		{
			"buffer":0,
			"byteLength":48,
			"byteOffset":2104,
			"target":34962
		},
		{
			"buffer":0,
			"byteLength":48,
			"byteOffset":2152,
			"target":34962
		},
		{
			"buffer":0,
			"byteLength":32,
			"byteOffset":2200,
			"target":34962
		},
		{
			"buffer":0,
			"byteLength":32,
			"byteOffset":2232,
			"target":34962
		},
		{
			"buffer":0,
			"byteLength":12,
			"byteOffset":2264,
			"target":34963
		},
		{
			"buffer":0,
			"byteLength":900,
			"byteOffset":2276,
			"target":34962
		},
		{
			"buffer":0,
			"byteLength":900,
			"byteOffset":3176,
			"target":34962
		},
		{
			"buffer":0,
			"byteLength":600,
			"byteOffset":4076,
			"target":34962
		},
		{
			"buffer":0,
			"byteLength":600,
			"byteOffset":4676,
			"target":34962
		},
		{
			"buffer":0,
			"byteLength":228,
			"byteOffset":5276,
			"target":34963
		},
		{
			"buffer":0,
			"byteLength":288,
			"byteOffset":5504,
			"target":34962
		},
		{
			"buffer":0,
			"byteLength":288,
			"byteOffset":5792,
			"target":34962
		},
		{
			"buffer":0,
			"byteLength":192,
			"byteOffset":6080,
			"target":34962
		},
		{
			"buffer":0,
			"byteLength":192,
			"byteOffset":6272,
			"target":34962
		},
		{
			"buffer":0,
			"byteLength":72,
			"byteOffset":6464,
			"target":34963
		},
		{
			"buffer":0,
			"byteLength":288,
			"byteOffset":6536,
			"target":34962
		},
		{
			"buffer":0,
			"byteLength":288,
			"byteOffset":6824,
			"target":34962
		},
		{
			"buffer":0,
			"byteLength":192,
			"byteOffset":7112,
			"target":34962
		},
		{
			"buffer":0,
			"byteLength":192,
			"byteOffset":7304,
			"target":34962
		},
		{
			"buffer":0,
			"byteLength":96,
			"byteOffset":7496,
			"target":34963
		},
		{
			"buffer":0,
			"byteLength":48,
			"byteOffset":7592,
			"target":34962
		},
		{
			"buffer":0,
			"byteLength":48,
			"byteOffset":7640,
			"target":34962
		},
		{
			"buffer":0,
			"byteLength":32,
			"byteOffset":7688,
			"target":34962
		},
		{
			"buffer":0,
			"byteLength":12,
			"byteOffset":7720,
			"target":34963
		}
	],
	"samplers":[
		{
			"magFilter":9729,
			"minFilter":9987
		}
	],
	"buffers":[
		{
			"byteLength":7732,
			"uri":"warehouse.bin"
		}
	]
}
