{
	"asset":{
		"generator":"Khronos glTF Blender I/O v4.4.55",
		"version":"2.0"
	},
	"scene":0,
	"scenes":[
		{
			"name":"Scene",
			"nodes":[
				0,
				1
			]
		}
	],
	"nodes":[
		{
			"mesh":0,
			"name":"Maxis-3d3-mesh-76",
			"rotation":[
				0.70710688829422,
				0,
				0,
				0.7071066498756409
			]
		},
		{
			"extras":{
				"gd_node":"Decal",
				"lower_fade":9,
				"upper_fade":10
			},
			"mesh":1,
			"name":"Ground_AO",
			"scale":[
				21.263427734375,
				1,
				26.279661178588867
			],
			"translation":[
				-0.11059951782226562,
				-8.404017535212915e-06,
				2.5091323852539062
			]
		}
	],
	"materials":[
		{
			"name":"matcolour-48.023",
			"occlusionTexture":{
				"index":0,
				"texCoord":1
			},
			"pbrMetallicRoughness":{
				"baseColorFactor":[
					0.05882352963089943,
					0.05882352963089943,
					0.05882352963089943,
					1
				],
				"metallicFactor":0
			}
		},
		{
			"name":"mat39-10",
			"occlusionTexture":{
				"index":1,
				"texCoord":1
			},
			"pbrMetallicRoughness":{
				"baseColorTexture":{
					"index":2
				},
				"metallicFactor":0
			}
		},
		{
			"name":"mat39-9",
			"occlusionTexture":{
				"index":3,
				"texCoord":1
			},
			"pbrMetallicRoughness":{
				"baseColorTexture":{
					"index":4
				},
				"metallicFactor":0
			}
		},
		{
			"name":"mat39-11",
			"occlusionTexture":{
				"index":5,
				"texCoord":1
			},
			"pbrMetallicRoughness":{
				"baseColorTexture":{
					"index":6
				},
				"metallicFactor":0
			}
		},
		{
			"name":"Ground_AO.001",
			"occlusionTexture":{
				"index":7
			},
			"pbrMetallicRoughness":{
				"baseColorFactor":[
					0.800000011920929,
					0.800000011920929,
					0.800000011920929,
					1
				],
				"metallicFactor":0,
				"roughnessFactor":0.5
			}
		}
	],
	"meshes":[
		{
			"name":"Maxis-3d3-mesh-76",
			"primitives":[
				{
					"attributes":{
						"POSITION":0,
						"NORMAL":1,
						"TEXCOORD_0":2,
						"TEXCOORD_1":3
					},
					"indices":4,
					"material":0
				},
				{
					"attributes":{
						"POSITION":5,
						"NORMAL":6,
						"TEXCOORD_0":7,
						"TEXCOORD_1":8
					},
					"indices":9,
					"material":1
				},
				{
					"attributes":{
						"POSITION":10,
						"NORMAL":11,
						"TEXCOORD_0":12,
						"TEXCOORD_1":13
					},
					"indices":9,
					"material":2
				},
				{
					"attributes":{
						"POSITION":14,
						"NORMAL":15,
						"TEXCOORD_0":16,
						"TEXCOORD_1":17
					},
					"indices":18,
					"material":3
				}
			]
		},
		{
			"name":"Plane.001",
			"primitives":[
				{
					"attributes":{
						"POSITION":19,
						"NORMAL":20,
						"TEXCOORD_0":21
					},
					"indices":22,
					"material":4
				}
			]
		}
	],
	"textures":[
		{
			"sampler":0,
			"source":0
		},
		{
			"sampler":0,
			"source":0
		},
		{
			"sampler":0,
			"source":1
		},
		{
			"sampler":0,
			"source":0
		},
		{
			"sampler":0,
			"source":2
		},
		{
			"sampler":0,
			"source":0
		},
		{
			"sampler":0,
			"source":3
		},
		{
			"sampler":0,
			"source":4
		}
	],
	"images":[
		{
			"mimeType":"image/png",
			"name":"water_treatment.png",
			"uri":"../../Textures/ambient_occlusion/Buildings/water_treatment.png"
		},
		{
			"mimeType":"image/png",
			"name":"tex39-10",
			"uri":"../../Textures/tex39-10.png"
		},
		{
			"mimeType":"image/png",
			"name":"tex39-9",
			"uri":"../../Textures/tex39-9.png"
		},
		{
			"mimeType":"image/png",
			"name":"tex39-11",
			"uri":"../../Textures/tex39-11.png"
		},
		{
			"mimeType":"image/png",
			"name":"water_treatment_ground.png",
			"uri":"../../Textures/ambient_occlusion/Buildings/water_treatment_ground.png"
		}
	],
	"accessors":[
		{
			"bufferView":0,
			"componentType":5126,
			"count":128,
			"max":[
				10.021114349365234,
				15.148944854736328,
				3.814697265625e-06
			],
			"min":[
				-10.242313385009766,
				-10.130699157714844,
				-13.35000228881836
			],
			"type":"VEC3"
		},
		{
			"bufferView":1,
			"componentType":5126,
			"count":128,
			"type":"VEC3"
		},
		{
			"bufferView":2,
			"componentType":5126,
			"count":128,
			"type":"VEC2"
		},
		{
			"bufferView":3,
			"componentType":5126,
			"count":128,
			"type":"VEC2"
		},
		{
			"bufferView":4,
			"componentType":5123,
			"count":228,
			"type":"SCALAR"
		},
		{
			"bufferView":5,
			"componentType":5126,
			"count":4,
			"max":[
				2.669361114501953,
				15.121379852294922,
				-3.814697265625e-06
			],
			"min":[
				2.6576499938964844,
				10.189563751220703,
				-8.859066009521484
			],
			"type":"VEC3"
		},
		{
			"bufferView":6,
			"componentType":5126,
			"count":4,
			"type":"VEC3"
		},
		{
			"bufferView":7,
			"componentType":5126,
			"count":4,
			"type":"VEC2"
		},
		{
			"bufferView":8,
			"componentType":5126,
			"count":4,
			"type":"VEC2"
		},
		{
			"bufferView":9,
			"componentType":5123,
			"count":6,
			"type":"SCALAR"
		},
		{
			"bufferView":10,
			"componentType":5126,
			"count":4,
			"max":[
				-2.917572021484375,
				15.14896011352539,
				-3.814697265625e-06
			],
			"min":[
				-2.93707275390625,
				10.066524505615234,
				-8.859066009521484
			],
			"type":"VEC3"
		},
		{
			"bufferView":11,
			"componentType":5126,
			"count":4,
			"type":"VEC3"
		},
		{
			"bufferView":12,
			"componentType":5126,
			"count":4,
			"type":"VEC2"
		},
		{
			"bufferView":13,
			"componentType":5126,
			"count":4,
			"type":"VEC2"
		},
		{
			"bufferView":14,
			"componentType":5126,
			"count":4,
			"max":[
				2.669361114501953,
				15.14896011352539,
				-7.62939453125e-06
			],
			"min":[
				-2.93707275390625,
				15.12137222290039,
				-8.859066009521484
			],
			"type":"VEC3"
		},
		{
			"bufferView":15,
			"componentType":5126,
			"count":4,
			"type":"VEC3"
		},
		{
			"bufferView":16,
			"componentType":5126,
			"count":4,
			"type":"VEC2"
		},
		{
			"bufferView":17,
			"componentType":5126,
			"count":4,
			"type":"VEC2"
		},
		{
			"bufferView":18,
			"componentType":5123,
			"count":6,
			"type":"SCALAR"
		},
		{
			"bufferView":19,
			"componentType":5126,
			"count":4,
			"max":[
				0.5,
				0,
				0.5
			],
			"min":[
				-0.5,
				0,
				-0.5
			],
			"type":"VEC3"
		},
		{
			"bufferView":20,
			"componentType":5126,
			"count":4,
			"type":"VEC3"
		},
		{
			"bufferView":21,
			"componentType":5126,
			"count":4,
			"type":"VEC2"
		},
		{
			"bufferView":22,
			"componentType":5123,
			"count":6,
			"type":"SCALAR"
		}
	],
	"bufferViews":[
		{
			"buffer":0,
			"byteLength":1536,
			"byteOffset":0,
			"target":34962
		},
		{
			"buffer":0,
			"byteLength":1536,
			"byteOffset":1536,
			"target":34962
		},
		{
			"buffer":0,
			"byteLength":1024,
			"byteOffset":3072,
			"target":34962
		},
		{
			"buffer":0,
			"byteLength":1024,
			"byteOffset":4096,
			"target":34962
		},
		{
			"buffer":0,
			"byteLength":456,
			"byteOffset":5120,
			"target":34963
		},
		{
			"buffer":0,
			"byteLength":48,
			"byteOffset":5576,
			"target":34962
		},
		{
			"buffer":0,
			"byteLength":48,
			"byteOffset":5624,
			"target":34962
		},
		{
			"buffer":0,
			"byteLength":32,
			"byteOffset":5672,
			"target":34962
		},
		{
			"buffer":0,
			"byteLength":32,
			"byteOffset":5704,
			"target":34962
		},
		{
			"buffer":0,
			"byteLength":12,
			"byteOffset":5736,
			"target":34963
		},
		{
			"buffer":0,
			"byteLength":48,
			"byteOffset":5748,
			"target":34962
		},
		{
			"buffer":0,
			"byteLength":48,
			"byteOffset":5796,
			"target":34962
		},
		{
			"buffer":0,
			"byteLength":32,
			"byteOffset":5844,
			"target":34962
		},
		{
			"buffer":0,
			"byteLength":32,
			"byteOffset":5876,
			"target":34962
		},
		{
			"buffer":0,
			"byteLength":48,
			"byteOffset":5908,
			"target":34962
		},
		{
			"buffer":0,
			"byteLength":48,
			"byteOffset":5956,
			"target":34962
		},
		{
			"buffer":0,
			"byteLength":32,
			"byteOffset":6004,
			"target":34962
		},
		{
			"buffer":0,
			"byteLength":32,
			"byteOffset":6036,
			"target":34962
		},
		{
			"buffer":0,
			"byteLength":12,
			"byteOffset":6068,
			"target":34963
		},
		{
			"buffer":0,
			"byteLength":48,
			"byteOffset":6080,
			"target":34962
		},
		{
			"buffer":0,
			"byteLength":48,
			"byteOffset":6128,
			"target":34962
		},
		{
			"buffer":0,
			"byteLength":32,
			"byteOffset":6176,
			"target":34962
		},
		{
			"buffer":0,
			"byteLength":12,
			"byteOffset":6208,
			"target":34963
		}
	],
	"samplers":[
		{
			"magFilter":9729,
			"minFilter":9987
		}
	],
	"buffers":[
		{
			"byteLength":6220,
			"uri":"water_treatment.bin"
		}
	]
}
