{
	"asset":{
		"generator":"Khronos glTF Blender I/O v4.4.55",
		"version":"2.0"
	},
	"scene":0,
	"scenes":[
		{
			"name":"Scene",
			"nodes":[
				0,
				1
			]
		}
	],
	"nodes":[
		{
			"mesh":0,
			"name":"Maxis-3d3-mesh-65",
			"rotation":[
				0.70710688829422,
				0,
				0,
				0.7071066498756409
			]
		},
		{
			"extras":{
				"gd_node":"Decal",
				"lower_fade":9,
				"upper_fade":10
			},
			"mesh":1,
			"name":"Ground_AO",
			"scale":[
				15.953319549560547,
				1,
				15.624765396118164
			],
			"translation":[
				-0.019514083862304688,
				-0.01570345088839531,
				-0.18379449844360352
			]
		}
	],
	"materials":[
		{
			"name":"matcolour-80.002",
			"occlusionTexture":{
				"index":0,
				"texCoord":1
			},
			"pbrMetallicRoughness":{
				"baseColorFactor":[
					0.18431372940540314,
					0.14509804546833038,
					0.03921568766236305,
					1
				],
				"metallicFactor":0
			}
		},
		{
			"name":"matcolour-48.022",
			"occlusionTexture":{
				"index":1,
				"texCoord":1
			},
			"pbrMetallicRoughness":{
				"baseColorFactor":[
					0.05882352963089943,
					0.05882352963089943,
					0.05882352963089943,
					1
				],
				"metallicFactor":0
			}
		},
		{
			"name":"mat40-52.012",
			"occlusionTexture":{
				"index":2,
				"texCoord":1
			},
			"pbrMetallicRoughness":{
				"baseColorTexture":{
					"index":3
				},
				"metallicFactor":0
			}
		},
		{
			"name":"mat40-55.012",
			"occlusionTexture":{
				"index":4,
				"texCoord":1
			},
			"pbrMetallicRoughness":{
				"baseColorTexture":{
					"index":5
				},
				"metallicFactor":0
			}
		},
		{
			"name":"mat40-54.011",
			"occlusionTexture":{
				"index":6,
				"texCoord":1
			},
			"pbrMetallicRoughness":{
				"baseColorTexture":{
					"index":7
				},
				"metallicFactor":0
			}
		},
		{
			"name":"mat40-53.011",
			"occlusionTexture":{
				"index":8,
				"texCoord":1
			},
			"pbrMetallicRoughness":{
				"baseColorTexture":{
					"index":9
				},
				"metallicFactor":0
			}
		},
		{
			"name":"Ground_AO.001",
			"occlusionTexture":{
				"index":10
			},
			"pbrMetallicRoughness":{
				"baseColorFactor":[
					0.800000011920929,
					0.800000011920929,
					0.800000011920929,
					1
				],
				"metallicFactor":0,
				"roughnessFactor":0.5
			}
		}
	],
	"meshes":[
		{
			"name":"Maxis-3d3-mesh-65.001",
			"primitives":[
				{
					"attributes":{
						"POSITION":0,
						"NORMAL":1,
						"TEXCOORD_0":2,
						"TEXCOORD_1":3
					},
					"indices":4,
					"material":0
				},
				{
					"attributes":{
						"POSITION":5,
						"NORMAL":6,
						"TEXCOORD_0":7,
						"TEXCOORD_1":8
					},
					"indices":9,
					"material":1
				},
				{
					"attributes":{
						"POSITION":10,
						"NORMAL":11,
						"TEXCOORD_0":12,
						"TEXCOORD_1":13
					},
					"indices":14,
					"material":2
				},
				{
					"attributes":{
						"POSITION":15,
						"NORMAL":16,
						"TEXCOORD_0":17,
						"TEXCOORD_1":18
					},
					"indices":19,
					"material":3
				},
				{
					"attributes":{
						"POSITION":20,
						"NORMAL":21,
						"TEXCOORD_0":22,
						"TEXCOORD_1":23
					},
					"indices":24,
					"material":4
				},
				{
					"attributes":{
						"POSITION":25,
						"NORMAL":26,
						"TEXCOORD_0":27,
						"TEXCOORD_1":28
					},
					"indices":24,
					"material":5
				}
			]
		},
		{
			"name":"Plane.001",
			"primitives":[
				{
					"attributes":{
						"POSITION":29,
						"NORMAL":30,
						"TEXCOORD_0":31
					},
					"indices":32,
					"material":6
				}
			]
		}
	],
	"textures":[
		{
			"sampler":0,
			"source":0
		},
		{
			"sampler":0,
			"source":0
		},
		{
			"sampler":0,
			"source":0
		},
		{
			"sampler":0,
			"source":1
		},
		{
			"sampler":0,
			"source":0
		},
		{
			"sampler":0,
			"source":2
		},
		{
			"sampler":0,
			"source":0
		},
		{
			"sampler":0,
			"source":3
		},
		{
			"sampler":0,
			"source":0
		},
		{
			"sampler":0,
			"source":4
		},
		{
			"sampler":0,
			"source":5
		}
	],
	"images":[
		{
			"mimeType":"image/png",
			"name":"water_pump.png",
			"uri":"../../Textures/ambient_occlusion/Buildings/water_pump.png"
		},
		{
			"mimeType":"image/png",
			"name":"tex40-52",
			"uri":"../../Textures/tex40-52.png"
		},
		{
			"mimeType":"image/png",
			"name":"tex40-55",
			"uri":"../../Textures/tex40-55.png"
		},
		{
			"mimeType":"image/png",
			"name":"tex40-54",
			"uri":"../../Textures/tex40-54.png"
		},
		{
			"mimeType":"image/png",
			"name":"tex40-53",
			"uri":"../../Textures/tex40-53.png"
		},
		{
			"mimeType":"image/png",
			"name":"water_pump_ground.png",
			"uri":"../../Textures/ambient_occlusion/Buildings/water_pump_ground.png"
		}
	],
	"accessors":[
		{
			"bufferView":0,
			"componentType":5126,
			"count":189,
			"max":[
				7.457145690917969,
				7.1285858154296875,
				0
			],
			"min":[
				-5.32647705078125,
				-5.286212921142578,
				-9.599620819091797
			],
			"type":"VEC3"
		},
		{
			"bufferView":1,
			"componentType":5126,
			"count":189,
			"type":"VEC3"
		},
		{
			"bufferView":2,
			"componentType":5126,
			"count":189,
			"type":"VEC2"
		},
		{
			"bufferView":3,
			"componentType":5126,
			"count":189,
			"type":"VEC2"
		},
		{
			"bufferView":4,
			"componentType":5123,
			"count":297,
			"type":"SCALAR"
		},
		{
			"bufferView":5,
			"componentType":5126,
			"count":8,
			"max":[
				4.528583526611328,
				4.384052276611328,
				-6.675518035888672
			],
			"min":[
				-7.487117767333984,
				-7.48712158203125,
				-6.675518035888672
			],
			"type":"VEC3"
		},
		{
			"bufferView":6,
			"componentType":5126,
			"count":8,
			"type":"VEC3"
		},
		{
			"bufferView":7,
			"componentType":5126,
			"count":8,
			"type":"VEC2"
		},
		{
			"bufferView":8,
			"componentType":5126,
			"count":8,
			"type":"VEC2"
		},
		{
			"bufferView":9,
			"componentType":5123,
			"count":24,
			"type":"SCALAR"
		},
		{
			"bufferView":10,
			"componentType":5126,
			"count":4,
			"max":[
				4.51287841796875,
				-7.48712158203125,
				3.814697265625e-06
			],
			"min":[
				-7.496173858642578,
				-7.496177673339844,
				-6.675518035888672
			],
			"type":"VEC3"
		},
		{
			"bufferView":11,
			"componentType":5126,
			"count":4,
			"type":"VEC3"
		},
		{
			"bufferView":12,
			"componentType":5126,
			"count":4,
			"type":"VEC2"
		},
		{
			"bufferView":13,
			"componentType":5126,
			"count":4,
			"type":"VEC2"
		},
		{
			"bufferView":14,
			"componentType":5123,
			"count":6,
			"type":"SCALAR"
		},
		{
			"bufferView":15,
			"componentType":5126,
			"count":12,
			"max":[
				4.528583526611328,
				4.384052276611328,
				0.0157012939453125
			],
			"min":[
				-7.48046875,
				4.375,
				-6.675518035888672
			],
			"type":"VEC3"
		},
		{
			"bufferView":16,
			"componentType":5126,
			"count":12,
			"type":"VEC3"
		},
		{
			"bufferView":17,
			"componentType":5126,
			"count":12,
			"type":"VEC2"
		},
		{
			"bufferView":18,
			"componentType":5126,
			"count":12,
			"type":"VEC2"
		},
		{
			"bufferView":19,
			"componentType":5123,
			"count":42,
			"type":"SCALAR"
		},
		{
			"bufferView":20,
			"componentType":5126,
			"count":4,
			"max":[
				4.528583526611328,
				4.384052276611328,
				0.0157012939453125
			],
			"min":[
				4.503822326660156,
				-7.496177673339844,
				-6.675518035888672
			],
			"type":"VEC3"
		},
		{
			"bufferView":21,
			"componentType":5126,
			"count":4,
			"type":"VEC3"
		},
		{
			"bufferView":22,
			"componentType":5126,
			"count":4,
			"type":"VEC2"
		},
		{
			"bufferView":23,
			"componentType":5126,
			"count":4,
			"type":"VEC2"
		},
		{
			"bufferView":24,
			"componentType":5123,
			"count":6,
			"type":"SCALAR"
		},
		{
			"bufferView":25,
			"componentType":5126,
			"count":4,
			"max":[
				-7.471412658691406,
				4.384052276611328,
				0.0157012939453125
			],
			"min":[
				-7.496173858642578,
				-7.496177673339844,
				-6.675518035888672
			],
			"type":"VEC3"
		},
		{
			"bufferView":26,
			"componentType":5126,
			"count":4,
			"type":"VEC3"
		},
		{
			"bufferView":27,
			"componentType":5126,
			"count":4,
			"type":"VEC2"
		},
		{
			"bufferView":28,
			"componentType":5126,
			"count":4,
			"type":"VEC2"
		},
		{
			"bufferView":29,
			"componentType":5126,
			"count":4,
			"max":[
				0.5,
				0,
				0.5
			],
			"min":[
				-0.5,
				0,
				-0.5
			],
			"type":"VEC3"
		},
		{
			"bufferView":30,
			"componentType":5126,
			"count":4,
			"type":"VEC3"
		},
		{
			"bufferView":31,
			"componentType":5126,
			"count":4,
			"type":"VEC2"
		},
		{
			"bufferView":32,
			"componentType":5123,
			"count":6,
			"type":"SCALAR"
		}
	],
	"bufferViews":[
		{
			"buffer":0,
			"byteLength":2268,
			"byteOffset":0,
			"target":34962
		},
		{
			"buffer":0,
			"byteLength":2268,
			"byteOffset":2268,
			"target":34962
		},
		{
			"buffer":0,
			"byteLength":1512,
			"byteOffset":4536,
			"target":34962
		},
		{
			"buffer":0,
			"byteLength":1512,
			"byteOffset":6048,
			"target":34962
		},
		{
			"buffer":0,
			"byteLength":594,
			"byteOffset":7560,
			"target":34963
		},
		{
			"buffer":0,
			"byteLength":96,
			"byteOffset":8156,
			"target":34962
		},
		{
			"buffer":0,
			"byteLength":96,
			"byteOffset":8252,
			"target":34962
		},
		{
			"buffer":0,
			"byteLength":64,
			"byteOffset":8348,
			"target":34962
		},
		{
			"buffer":0,
			"byteLength":64,
			"byteOffset":8412,
			"target":34962
		},
		{
			"buffer":0,
			"byteLength":48,
			"byteOffset":8476,
			"target":34963
		},
		{
			"buffer":0,
			"byteLength":48,
			"byteOffset":8524,
			"target":34962
		},
		{
			"buffer":0,
			"byteLength":48,
			"byteOffset":8572,
			"target":34962
		},
		{
			"buffer":0,
			"byteLength":32,
			"byteOffset":8620,
			"target":34962
		},
		{
			"buffer":0,
			"byteLength":32,
			"byteOffset":8652,
			"target":34962
		},
		{
			"buffer":0,
			"byteLength":12,
			"byteOffset":8684,
			"target":34963
		},
		{
			"buffer":0,
			"byteLength":144,
			"byteOffset":8696,
			"target":34962
		},
		{
			"buffer":0,
			"byteLength":144,
			"byteOffset":8840,
			"target":34962
		},
		{
			"buffer":0,
			"byteLength":96,
			"byteOffset":8984,
			"target":34962
		},
		{
			"buffer":0,
			"byteLength":96,
			"byteOffset":9080,
			"target":34962
		},
		{
			"buffer":0,
			"byteLength":84,
			"byteOffset":9176,
			"target":34963
		},
		{
			"buffer":0,
			"byteLength":48,
			"byteOffset":9260,
			"target":34962
		},
		{
			"buffer":0,
			"byteLength":48,
			"byteOffset":9308,
			"target":34962
		},
		{
			"buffer":0,
			"byteLength":32,
			"byteOffset":9356,
			"target":34962
		},
		{
			"buffer":0,
			"byteLength":32,
			"byteOffset":9388,
			"target":34962
		},
		{
			"buffer":0,
			"byteLength":12,
			"byteOffset":9420,
			"target":34963
		},
		{
			"buffer":0,
			"byteLength":48,
			"byteOffset":9432,
			"target":34962
		},
		{
			"buffer":0,
			"byteLength":48,
			"byteOffset":9480,
			"target":34962
		},
		{
			"buffer":0,
			"byteLength":32,
			"byteOffset":9528,
			"target":34962
		},
		{
			"buffer":0,
			"byteLength":32,
			"byteOffset":9560,
			"target":34962
		},
		{
			"buffer":0,
			"byteLength":48,
			"byteOffset":9592,
			"target":34962
		},
		{
			"buffer":0,
			"byteLength":48,
			"byteOffset":9640,
			"target":34962
		},
		{
			"buffer":0,
			"byteLength":32,
			"byteOffset":9688,
			"target":34962
		},
		{
			"buffer":0,
			"byteLength":12,
			"byteOffset":9720,
			"target":34963
		}
	],
	"samplers":[
		{
			"magFilter":9729,
			"minFilter":9987
		}
	],
	"buffers":[
		{
			"byteLength":9732,
			"uri":"water_pump.bin"
		}
	]
}
