{
    "asset" : {
        "generator" : "Khronos glTF Blender I/O v1.7.33",
        "version" : "2.0"
    },
    "scene" : 0,
    "scenes" : [
        {
            "name" : "Scene",
            "nodes" : [
                0
            ]
        }
    ],
    "nodes" : [
        {
            "mesh" : 0,
            "name" : "Maxis-3d2-mesh-7.001",
            "rotation" : [
                0.7071068286895752,
                0,
                0,
                0.7071067094802856
            ]
        }
    ],
    "materials" : [
        {
            "doubleSided" : true,
            "name" : "matcolour-48.008",
            "pbrMetallicRoughness" : {
                "baseColorFactor" : [
                    0.05882352963089943,
                    0.05882352963089943,
                    0.05882352963089943,
                    1
                ],
                "metallicFactor" : 0
            }
        },
        {
            "doubleSided" : true,
            "name" : "mat39-15.001",
            "pbrMetallicRoughness" : {
                "baseColorTexture" : {
                    "index" : 0
                },
                "metallicFactor" : 0
            }
        },
        {
            "doubleSided" : true,
            "name" : "mat39-12.001",
            "pbrMetallicRoughness" : {
                "baseColorTexture" : {
                    "index" : 1
                },
                "metallicFactor" : 0
            }
        },
        {
            "doubleSided" : true,
            "name" : "mat39-14.001",
            "pbrMetallicRoughness" : {
                "baseColorTexture" : {
                    "index" : 2
                },
                "metallicFactor" : 0
            }
        },
        {
            "doubleSided" : true,
            "name" : "mat40-54.007",
            "pbrMetallicRoughness" : {
                "baseColorTexture" : {
                    "index" : 3
                },
                "metallicFactor" : 0
            }
        },
        {
            "doubleSided" : true,
            "name" : "mat39-13.001",
            "pbrMetallicRoughness" : {
                "baseColorTexture" : {
                    "index" : 4
                },
                "metallicFactor" : 0
            }
        },
        {
            "doubleSided" : true,
            "name" : "mat40-53.007",
            "pbrMetallicRoughness" : {
                "baseColorTexture" : {
                    "index" : 5
                },
                "metallicFactor" : 0
            }
        },
        {
            "doubleSided" : true,
            "name" : "mat40-52.006",
            "pbrMetallicRoughness" : {
                "baseColorTexture" : {
                    "index" : 6
                },
                "metallicFactor" : 0
            }
        },
        {
            "doubleSided" : true,
            "name" : "mat40-55.004",
            "pbrMetallicRoughness" : {
                "baseColorTexture" : {
                    "index" : 7
                },
                "metallicFactor" : 0
            }
        }
    ],
    "meshes" : [
        {
            "name" : "Maxis-3d2-mesh-7.001",
            "primitives" : [
                {
                    "attributes" : {
                        "POSITION" : 0,
                        "NORMAL" : 1,
                        "TEXCOORD_0" : 2
                    },
                    "indices" : 3,
                    "material" : 0
                },
                {
                    "attributes" : {
                        "POSITION" : 4,
                        "NORMAL" : 5,
                        "TEXCOORD_0" : 6
                    },
                    "indices" : 7,
                    "material" : 1
                },
                {
                    "attributes" : {
                        "POSITION" : 8,
                        "NORMAL" : 9,
                        "TEXCOORD_0" : 10
                    },
                    "indices" : 11,
                    "material" : 2
                },
                {
                    "attributes" : {
                        "POSITION" : 12,
                        "NORMAL" : 13,
                        "TEXCOORD_0" : 14
                    },
                    "indices" : 15,
                    "material" : 3
                },
                {
                    "attributes" : {
                        "POSITION" : 16,
                        "NORMAL" : 17,
                        "TEXCOORD_0" : 18
                    },
                    "indices" : 19,
                    "material" : 4
                },
                {
                    "attributes" : {
                        "POSITION" : 20,
                        "NORMAL" : 21,
                        "TEXCOORD_0" : 22
                    },
                    "indices" : 23,
                    "material" : 5
                },
                {
                    "attributes" : {
                        "POSITION" : 24,
                        "NORMAL" : 25,
                        "TEXCOORD_0" : 26
                    },
                    "indices" : 27,
                    "material" : 6
                },
                {
                    "attributes" : {
                        "POSITION" : 28,
                        "NORMAL" : 29,
                        "TEXCOORD_0" : 30
                    },
                    "indices" : 31,
                    "material" : 7
                },
                {
                    "attributes" : {
                        "POSITION" : 32,
                        "NORMAL" : 33,
                        "TEXCOORD_0" : 34
                    },
                    "indices" : 35,
                    "material" : 8
                }
            ]
        }
    ],
    "textures" : [
        {
            "sampler" : 0,
            "source" : 0
        },
        {
            "sampler" : 0,
            "source" : 1
        },
        {
            "sampler" : 0,
            "source" : 2
        },
        {
            "sampler" : 0,
            "source" : 3
        },
        {
            "sampler" : 0,
            "source" : 4
        },
        {
            "sampler" : 0,
            "source" : 5
        },
        {
            "sampler" : 0,
            "source" : 6
        },
        {
            "sampler" : 0,
            "source" : 7
        }
    ],
    "images" : [
        {
            "mimeType" : "image/png",
            "name" : "tex39-15",
            "uri" : "../../../Textures/tex39-15.png"
        },
        {
            "mimeType" : "image/png",
            "name" : "tex39-12",
            "uri" : "../../../Textures/tex39-12.png"
        },
        {
            "mimeType" : "image/png",
            "name" : "tex39-14",
            "uri" : "../../../Textures/tex39-14.png"
        },
        {
            "mimeType" : "image/png",
            "name" : "tex40-54",
            "uri" : "../../../Textures/tex40-54.png"
        },
        {
            "mimeType" : "image/png",
            "name" : "tex39-13",
            "uri" : "../../../Textures/tex39-13.png"
        },
        {
            "mimeType" : "image/png",
            "name" : "tex40-53",
            "uri" : "../../../Textures/tex40-53.png"
        },
        {
            "mimeType" : "image/png",
            "name" : "tex40-52",
            "uri" : "../../../Textures/tex40-52.png"
        },
        {
            "mimeType" : "image/png",
            "name" : "tex40-55",
            "uri" : "../../../Textures/tex40-55.png"
        }
    ],
    "accessors" : [
        {
            "bufferView" : 0,
            "componentType" : 5126,
            "count" : 98,
            "max" : [
                12.500572204589844,
                15.401374816894531,
                -6.494804382324219
            ],
            "min" : [
                -14.5,
                -14.5,
                -13.000003814697266
            ],
            "type" : "VEC3"
        },
        {
            "bufferView" : 1,
            "componentType" : 5126,
            "count" : 98,
            "type" : "VEC3"
        },
        {
            "bufferView" : 2,
            "componentType" : 5126,
            "count" : 98,
            "type" : "VEC2"
        },
        {
            "bufferView" : 3,
            "componentType" : 5123,
            "count" : 114,
            "type" : "SCALAR"
        },
        {
            "bufferView" : 4,
            "componentType" : 5126,
            "count" : 10,
            "max" : [
                12.500568389892578,
                15.401382446289062,
                0
            ],
            "min" : [
                -14.5,
                -9.500003814697266,
                -6.500003814697266
            ],
            "type" : "VEC3"
        },
        {
            "bufferView" : 5,
            "componentType" : 5126,
            "count" : 10,
            "type" : "VEC3"
        },
        {
            "bufferView" : 6,
            "componentType" : 5126,
            "count" : 10,
            "type" : "VEC2"
        },
        {
            "bufferView" : 7,
            "componentType" : 5123,
            "count" : 12,
            "type" : "SCALAR"
        },
        {
            "bufferView" : 8,
            "componentType" : 5126,
            "count" : 10,
            "max" : [
                12.500572204589844,
                -6.098621368408203,
                3.814697265625e-06
            ],
            "min" : [
                -14.5,
                -14.5,
                -6.499996185302734
            ],
            "type" : "VEC3"
        },
        {
            "bufferView" : 9,
            "componentType" : 5126,
            "count" : 10,
            "type" : "VEC3"
        },
        {
            "bufferView" : 10,
            "componentType" : 5126,
            "count" : 10,
            "type" : "VEC2"
        },
        {
            "bufferView" : 11,
            "componentType" : 5123,
            "count" : 12,
            "type" : "SCALAR"
        },
        {
            "bufferView" : 12,
            "componentType" : 5126,
            "count" : 10,
            "max" : [
                12.500572204589844,
                15.401382446289062,
                3.814697265625e-06
            ],
            "min" : [
                -4.5,
                -14.5,
                -6.500003814697266
            ],
            "type" : "VEC3"
        },
        {
            "bufferView" : 13,
            "componentType" : 5126,
            "count" : 10,
            "type" : "VEC3"
        },
        {
            "bufferView" : 14,
            "componentType" : 5126,
            "count" : 10,
            "type" : "VEC2"
        },
        {
            "bufferView" : 15,
            "componentType" : 5123,
            "count" : 12,
            "type" : "SCALAR"
        },
        {
            "bufferView" : 16,
            "componentType" : 5126,
            "count" : 27,
            "max" : [
                12.500572204589844,
                15.401374816894531,
                -6.499996185302734
            ],
            "min" : [
                -5.375995635986328,
                -6.098625183105469,
                -13.000003814697266
            ],
            "type" : "VEC3"
        },
        {
            "bufferView" : 17,
            "componentType" : 5126,
            "count" : 27,
            "type" : "VEC3"
        },
        {
            "bufferView" : 18,
            "componentType" : 5126,
            "count" : 27,
            "type" : "VEC2"
        },
        {
            "bufferView" : 19,
            "componentType" : 5123,
            "count" : 27,
            "type" : "SCALAR"
        },
        {
            "bufferView" : 20,
            "componentType" : 5126,
            "count" : 12,
            "max" : [
                -12.499427795410156,
                15.401378631591797,
                3.814697265625e-06
            ],
            "min" : [
                -14.5,
                -14.5,
                -6.500003814697266
            ],
            "type" : "VEC3"
        },
        {
            "bufferView" : 21,
            "componentType" : 5126,
            "count" : 12,
            "type" : "VEC3"
        },
        {
            "bufferView" : 22,
            "componentType" : 5126,
            "count" : 12,
            "type" : "VEC2"
        },
        {
            "bufferView" : 23,
            "componentType" : 5123,
            "count" : 12,
            "type" : "SCALAR"
        },
        {
            "bufferView" : 24,
            "componentType" : 5126,
            "count" : 27,
            "max" : [
                5.725185394287109,
                15.401371002197266,
                -6.499996185302734
            ],
            "min" : [
                -12.499427795410156,
                -6.098628997802734,
                -13.000003814697266
            ],
            "type" : "VEC3"
        },
        {
            "bufferView" : 25,
            "componentType" : 5126,
            "count" : 27,
            "type" : "VEC3"
        },
        {
            "bufferView" : 26,
            "componentType" : 5126,
            "count" : 27,
            "type" : "VEC2"
        },
        {
            "bufferView" : 27,
            "componentType" : 5123,
            "count" : 27,
            "type" : "SCALAR"
        },
        {
            "bufferView" : 28,
            "componentType" : 5126,
            "count" : 24,
            "max" : [
                6.713310241699219,
                13.830390930175781,
                -8.27676773071289
            ],
            "min" : [
                -6.3641204833984375,
                13.62460708618164,
                -11.35806655883789
            ],
            "type" : "VEC3"
        },
        {
            "bufferView" : 29,
            "componentType" : 5126,
            "count" : 24,
            "type" : "VEC3"
        },
        {
            "bufferView" : 30,
            "componentType" : 5126,
            "count" : 24,
            "type" : "VEC2"
        },
        {
            "bufferView" : 31,
            "componentType" : 5123,
            "count" : 24,
            "type" : "SCALAR"
        },
        {
            "bufferView" : 32,
            "componentType" : 5126,
            "count" : 24,
            "max" : [
                6.800384521484375,
                14.79806900024414,
                -7.103309631347656
            ],
            "min" : [
                -6.451194763183594,
                14.513923645019531,
                -11.35806655883789
            ],
            "type" : "VEC3"
        },
        {
            "bufferView" : 33,
            "componentType" : 5126,
            "count" : 24,
            "type" : "VEC3"
        },
        {
            "bufferView" : 34,
            "componentType" : 5126,
            "count" : 24,
            "type" : "VEC2"
        },
        {
            "bufferView" : 35,
            "componentType" : 5123,
            "count" : 24,
            "type" : "SCALAR"
        }
    ],
    "bufferViews" : [
        {
            "buffer" : 0,
            "byteLength" : 1176,
            "byteOffset" : 0
        },
        {
            "buffer" : 0,
            "byteLength" : 1176,
            "byteOffset" : 1176
        },
        {
            "buffer" : 0,
            "byteLength" : 784,
            "byteOffset" : 2352
        },
        {
            "buffer" : 0,
            "byteLength" : 228,
            "byteOffset" : 3136
        },
        {
            "buffer" : 0,
            "byteLength" : 120,
            "byteOffset" : 3364
        },
        {
            "buffer" : 0,
            "byteLength" : 120,
            "byteOffset" : 3484
        },
        {
            "buffer" : 0,
            "byteLength" : 80,
            "byteOffset" : 3604
        },
        {
            "buffer" : 0,
            "byteLength" : 24,
            "byteOffset" : 3684
        },
        {
            "buffer" : 0,
            "byteLength" : 120,
            "byteOffset" : 3708
        },
        {
            "buffer" : 0,
            "byteLength" : 120,
            "byteOffset" : 3828
        },
        {
            "buffer" : 0,
            "byteLength" : 80,
            "byteOffset" : 3948
        },
        {
            "buffer" : 0,
            "byteLength" : 24,
            "byteOffset" : 4028
        },
        {
            "buffer" : 0,
            "byteLength" : 120,
            "byteOffset" : 4052
        },
        {
            "buffer" : 0,
            "byteLength" : 120,
            "byteOffset" : 4172
        },
        {
            "buffer" : 0,
            "byteLength" : 80,
            "byteOffset" : 4292
        },
        {
            "buffer" : 0,
            "byteLength" : 24,
            "byteOffset" : 4372
        },
        {
            "buffer" : 0,
            "byteLength" : 324,
            "byteOffset" : 4396
        },
        {
            "buffer" : 0,
            "byteLength" : 324,
            "byteOffset" : 4720
        },
        {
            "buffer" : 0,
            "byteLength" : 216,
            "byteOffset" : 5044
        },
        {
            "buffer" : 0,
            "byteLength" : 54,
            "byteOffset" : 5260
        },
        {
            "buffer" : 0,
            "byteLength" : 144,
            "byteOffset" : 5316
        },
        {
            "buffer" : 0,
            "byteLength" : 144,
            "byteOffset" : 5460
        },
        {
            "buffer" : 0,
            "byteLength" : 96,
            "byteOffset" : 5604
        },
        {
            "buffer" : 0,
            "byteLength" : 24,
            "byteOffset" : 5700
        },
        {
            "buffer" : 0,
            "byteLength" : 324,
            "byteOffset" : 5724
        },
        {
            "buffer" : 0,
            "byteLength" : 324,
            "byteOffset" : 6048
        },
        {
            "buffer" : 0,
            "byteLength" : 216,
            "byteOffset" : 6372
        },
        {
            "buffer" : 0,
            "byteLength" : 54,
            "byteOffset" : 6588
        },
        {
            "buffer" : 0,
            "byteLength" : 288,
            "byteOffset" : 6644
        },
        {
            "buffer" : 0,
            "byteLength" : 288,
            "byteOffset" : 6932
        },
        {
            "buffer" : 0,
            "byteLength" : 192,
            "byteOffset" : 7220
        },
        {
            "buffer" : 0,
            "byteLength" : 48,
            "byteOffset" : 7412
        },
        {
            "buffer" : 0,
            "byteLength" : 288,
            "byteOffset" : 7460
        },
        {
            "buffer" : 0,
            "byteLength" : 288,
            "byteOffset" : 7748
        },
        {
            "buffer" : 0,
            "byteLength" : 192,
            "byteOffset" : 8036
        },
        {
            "buffer" : 0,
            "byteLength" : 48,
            "byteOffset" : 8228
        }
    ],
    "samplers" : [
        {
            "magFilter" : 9729,
            "minFilter" : 9987
        }
    ],
    "buffers" : [
        {
            "byteLength" : 8276,
            "uri" : "small_3.bin"
        }
    ]
}
