{
    "asset" : {
        "generator" : "Khronos glTF Blender I/O v1.7.33",
        "version" : "2.0"
    },
    "scene" : 0,
    "scenes" : [
        {
            "name" : "Scene",
            "nodes" : [
                0
            ]
        }
    ],
    "nodes" : [
        {
            "mesh" : 0,
            "name" : "Maxis-3d1-mesh-31",
            "rotation" : [
                0.7071068286895752,
                0,
                0,
                0.7071067094802856
            ]
        }
    ],
    "materials" : [
        {
            "doubleSided" : true,
            "name" : "matcolour-80",
            "pbrMetallicRoughness" : {
                "baseColorFactor" : [
                    0.18431372940540314,
                    0.14509804546833038,
                    0.03921568766236305,
                    1
                ],
                "metallicFactor" : 0
            }
        },
        {
            "doubleSided" : true,
            "name" : "matcolour-48.010",
            "pbrMetallicRoughness" : {
                "baseColorFactor" : [
                    0.05882352963089943,
                    0.05882352963089943,
                    0.05882352963089943,
                    1
                ],
                "metallicFactor" : 0
            }
        },
        {
            "doubleSided" : true,
            "name" : "mat40-42",
            "pbrMetallicRoughness" : {
                "baseColorTexture" : {
                    "index" : 0
                },
                "metallicFactor" : 0
            }
        },
        {
            "doubleSided" : true,
            "name" : "mat40-43.002",
            "pbrMetallicRoughness" : {
                "baseColorTexture" : {
                    "index" : 1
                },
                "metallicFactor" : 0
            }
        },
        {
            "doubleSided" : true,
            "name" : "mat40-54.002",
            "pbrMetallicRoughness" : {
                "baseColorTexture" : {
                    "index" : 2
                },
                "metallicFactor" : 0
            }
        },
        {
            "doubleSided" : true,
            "name" : "mat40-53.002",
            "pbrMetallicRoughness" : {
                "baseColorTexture" : {
                    "index" : 3
                },
                "metallicFactor" : 0
            }
        },
        {
            "doubleSided" : true,
            "name" : "mat40-52.005",
            "pbrMetallicRoughness" : {
                "baseColorTexture" : {
                    "index" : 4
                },
                "metallicFactor" : 0
            }
        },
        {
            "doubleSided" : true,
            "name" : "mat40-55.002",
            "pbrMetallicRoughness" : {
                "baseColorTexture" : {
                    "index" : 5
                },
                "metallicFactor" : 0
            }
        }
    ],
    "meshes" : [
        {
            "name" : "Maxis-3d1-mesh-31",
            "primitives" : [
                {
                    "attributes" : {
                        "POSITION" : 0,
                        "NORMAL" : 1,
                        "TEXCOORD_0" : 2
                    },
                    "indices" : 3,
                    "material" : 0
                },
                {
                    "attributes" : {
                        "POSITION" : 4,
                        "NORMAL" : 5,
                        "TEXCOORD_0" : 6
                    },
                    "indices" : 7,
                    "material" : 1
                },
                {
                    "attributes" : {
                        "POSITION" : 8,
                        "NORMAL" : 9,
                        "TEXCOORD_0" : 10
                    },
                    "indices" : 11,
                    "material" : 2
                },
                {
                    "attributes" : {
                        "POSITION" : 12,
                        "NORMAL" : 13,
                        "TEXCOORD_0" : 14
                    },
                    "indices" : 15,
                    "material" : 3
                },
                {
                    "attributes" : {
                        "POSITION" : 16,
                        "NORMAL" : 17,
                        "TEXCOORD_0" : 18
                    },
                    "indices" : 19,
                    "material" : 4
                },
                {
                    "attributes" : {
                        "POSITION" : 20,
                        "NORMAL" : 21,
                        "TEXCOORD_0" : 22
                    },
                    "indices" : 23,
                    "material" : 5
                },
                {
                    "attributes" : {
                        "POSITION" : 24,
                        "NORMAL" : 25,
                        "TEXCOORD_0" : 26
                    },
                    "indices" : 27,
                    "material" : 6
                },
                {
                    "attributes" : {
                        "POSITION" : 28,
                        "NORMAL" : 29,
                        "TEXCOORD_0" : 30
                    },
                    "indices" : 31,
                    "material" : 7
                }
            ]
        }
    ],
    "textures" : [
        {
            "sampler" : 0,
            "source" : 0
        },
        {
            "sampler" : 0,
            "source" : 1
        },
        {
            "sampler" : 0,
            "source" : 2
        },
        {
            "sampler" : 0,
            "source" : 3
        },
        {
            "sampler" : 0,
            "source" : 4
        },
        {
            "sampler" : 0,
            "source" : 5
        }
    ],
    "images" : [
        {
            "mimeType" : "image/png",
            "name" : "tex40-42",
            "uri" : "../../../Textures/tex40-42.png"
        },
        {
            "mimeType" : "image/png",
            "name" : "tex40-43",
            "uri" : "../../../Textures/tex40-43.png"
        },
        {
            "mimeType" : "image/png",
            "name" : "tex40-54",
            "uri" : "../../../Textures/tex40-54.png"
        },
        {
            "mimeType" : "image/png",
            "name" : "tex40-53",
            "uri" : "../../../Textures/tex40-53.png"
        },
        {
            "mimeType" : "image/png",
            "name" : "tex40-52",
            "uri" : "../../../Textures/tex40-52.png"
        },
        {
            "mimeType" : "image/png",
            "name" : "tex40-55",
            "uri" : "../../../Textures/tex40-55.png"
        }
    ],
    "accessors" : [
        {
            "bufferView" : 0,
            "componentType" : 5126,
            "count" : 140,
            "max" : [
                6.71624755859375,
                7.308986663818359,
                -0.01477813720703125
            ],
            "min" : [
                0.5713653564453125,
                -4.504329681396484,
                -2.9850006103515625
            ],
            "type" : "VEC3"
        },
        {
            "bufferView" : 1,
            "componentType" : 5126,
            "count" : 140,
            "type" : "VEC3"
        },
        {
            "bufferView" : 2,
            "componentType" : 5126,
            "count" : 140,
            "type" : "VEC2"
        },
        {
            "bufferView" : 3,
            "componentType" : 5123,
            "count" : 180,
            "type" : "SCALAR"
        },
        {
            "bufferView" : 4,
            "componentType" : 5126,
            "count" : 20,
            "max" : [
                7.711250305175781,
                7.711250305175781,
                0
            ],
            "min" : [
                -7.462497711181641,
                -7.462497711181641,
                -2.3619041442871094
            ],
            "type" : "VEC3"
        },
        {
            "bufferView" : 5,
            "componentType" : 5126,
            "count" : 20,
            "type" : "VEC3"
        },
        {
            "bufferView" : 6,
            "componentType" : 5126,
            "count" : 20,
            "type" : "VEC2"
        },
        {
            "bufferView" : 7,
            "componentType" : 5123,
            "count" : 24,
            "type" : "SCALAR"
        },
        {
            "bufferView" : 8,
            "componentType" : 5126,
            "count" : 4,
            "max" : [
                -4.477497100830078,
                0,
                0
            ],
            "min" : [
                -4.477497100830078,
                -7.462497711181641,
                -2.3619041442871094
            ],
            "type" : "VEC3"
        },
        {
            "bufferView" : 9,
            "componentType" : 5126,
            "count" : 4,
            "type" : "VEC3"
        },
        {
            "bufferView" : 10,
            "componentType" : 5126,
            "count" : 4,
            "type" : "VEC2"
        },
        {
            "bufferView" : 11,
            "componentType" : 5123,
            "count" : 6,
            "type" : "SCALAR"
        },
        {
            "bufferView" : 12,
            "componentType" : 5126,
            "count" : 4,
            "max" : [
                6.467498779296875,
                -5.472496032714844,
                0
            ],
            "min" : [
                0.4586296081542969,
                -5.472499847412109,
                -2.2387466430664062
            ],
            "type" : "VEC3"
        },
        {
            "bufferView" : 13,
            "componentType" : 5126,
            "count" : 4,
            "type" : "VEC3"
        },
        {
            "bufferView" : 14,
            "componentType" : 5126,
            "count" : 4,
            "type" : "VEC2"
        },
        {
            "bufferView" : 15,
            "componentType" : 5123,
            "count" : 6,
            "type" : "SCALAR"
        },
        {
            "bufferView" : 16,
            "componentType" : 5126,
            "count" : 10,
            "max" : [
                6.467498779296875,
                2.487499237060547,
                0
            ],
            "min" : [
                -4.477497100830078,
                -7.462497711181641,
                -2.2387466430664062
            ],
            "type" : "VEC3"
        },
        {
            "bufferView" : 17,
            "componentType" : 5126,
            "count" : 10,
            "type" : "VEC3"
        },
        {
            "bufferView" : 18,
            "componentType" : 5126,
            "count" : 10,
            "type" : "VEC2"
        },
        {
            "bufferView" : 19,
            "componentType" : 5123,
            "count" : 12,
            "type" : "SCALAR"
        },
        {
            "bufferView" : 20,
            "componentType" : 5126,
            "count" : 16,
            "max" : [
                0.4586296081542969,
                2.487499237060547,
                0
            ],
            "min" : [
                -7.462497711181641,
                -7.462497711181641,
                -2.3619041442871094
            ],
            "type" : "VEC3"
        },
        {
            "bufferView" : 21,
            "componentType" : 5126,
            "count" : 16,
            "type" : "VEC3"
        },
        {
            "bufferView" : 22,
            "componentType" : 5126,
            "count" : 16,
            "type" : "VEC2"
        },
        {
            "bufferView" : 23,
            "componentType" : 5123,
            "count" : 18,
            "type" : "SCALAR"
        },
        {
            "bufferView" : 24,
            "componentType" : 5126,
            "count" : 12,
            "max" : [
                6.467498779296875,
                0.248748779296875,
                0
            ],
            "min" : [
                -7.462497711181641,
                -7.462497711181641,
                -2.3619003295898438
            ],
            "type" : "VEC3"
        },
        {
            "bufferView" : 25,
            "componentType" : 5126,
            "count" : 12,
            "type" : "VEC3"
        },
        {
            "bufferView" : 26,
            "componentType" : 5126,
            "count" : 12,
            "type" : "VEC2"
        },
        {
            "bufferView" : 27,
            "componentType" : 5123,
            "count" : 18,
            "type" : "SCALAR"
        },
        {
            "bufferView" : 28,
            "componentType" : 5126,
            "count" : 8,
            "max" : [
                -4.477497100830078,
                2.487499237060547,
                0
            ],
            "min" : [
                -7.462497711181641,
                0,
                -2.3619041442871094
            ],
            "type" : "VEC3"
        },
        {
            "bufferView" : 29,
            "componentType" : 5126,
            "count" : 8,
            "type" : "VEC3"
        },
        {
            "bufferView" : 30,
            "componentType" : 5126,
            "count" : 8,
            "type" : "VEC2"
        },
        {
            "bufferView" : 31,
            "componentType" : 5123,
            "count" : 12,
            "type" : "SCALAR"
        }
    ],
    "bufferViews" : [
        {
            "buffer" : 0,
            "byteLength" : 1680,
            "byteOffset" : 0
        },
        {
            "buffer" : 0,
            "byteLength" : 1680,
            "byteOffset" : 1680
        },
        {
            "buffer" : 0,
            "byteLength" : 1120,
            "byteOffset" : 3360
        },
        {
            "buffer" : 0,
            "byteLength" : 360,
            "byteOffset" : 4480
        },
        {
            "buffer" : 0,
            "byteLength" : 240,
            "byteOffset" : 4840
        },
        {
            "buffer" : 0,
            "byteLength" : 240,
            "byteOffset" : 5080
        },
        {
            "buffer" : 0,
            "byteLength" : 160,
            "byteOffset" : 5320
        },
        {
            "buffer" : 0,
            "byteLength" : 48,
            "byteOffset" : 5480
        },
        {
            "buffer" : 0,
            "byteLength" : 48,
            "byteOffset" : 5528
        },
        {
            "buffer" : 0,
            "byteLength" : 48,
            "byteOffset" : 5576
        },
        {
            "buffer" : 0,
            "byteLength" : 32,
            "byteOffset" : 5624
        },
        {
            "buffer" : 0,
            "byteLength" : 12,
            "byteOffset" : 5656
        },
        {
            "buffer" : 0,
            "byteLength" : 48,
            "byteOffset" : 5668
        },
        {
            "buffer" : 0,
            "byteLength" : 48,
            "byteOffset" : 5716
        },
        {
            "buffer" : 0,
            "byteLength" : 32,
            "byteOffset" : 5764
        },
        {
            "buffer" : 0,
            "byteLength" : 12,
            "byteOffset" : 5796
        },
        {
            "buffer" : 0,
            "byteLength" : 120,
            "byteOffset" : 5808
        },
        {
            "buffer" : 0,
            "byteLength" : 120,
            "byteOffset" : 5928
        },
        {
            "buffer" : 0,
            "byteLength" : 80,
            "byteOffset" : 6048
        },
        {
            "buffer" : 0,
            "byteLength" : 24,
            "byteOffset" : 6128
        },
        {
            "buffer" : 0,
            "byteLength" : 192,
            "byteOffset" : 6152
        },
        {
            "buffer" : 0,
            "byteLength" : 192,
            "byteOffset" : 6344
        },
        {
            "buffer" : 0,
            "byteLength" : 128,
            "byteOffset" : 6536
        },
        {
            "buffer" : 0,
            "byteLength" : 36,
            "byteOffset" : 6664
        },
        {
            "buffer" : 0,
            "byteLength" : 144,
            "byteOffset" : 6700
        },
        {
            "buffer" : 0,
            "byteLength" : 144,
            "byteOffset" : 6844
        },
        {
            "buffer" : 0,
            "byteLength" : 96,
            "byteOffset" : 6988
        },
        {
            "buffer" : 0,
            "byteLength" : 36,
            "byteOffset" : 7084
        },
        {
            "buffer" : 0,
            "byteLength" : 96,
            "byteOffset" : 7120
        },
        {
            "buffer" : 0,
            "byteLength" : 96,
            "byteOffset" : 7216
        },
        {
            "buffer" : 0,
            "byteLength" : 64,
            "byteOffset" : 7312
        },
        {
            "buffer" : 0,
            "byteLength" : 24,
            "byteOffset" : 7376
        }
    ],
    "samplers" : [
        {
            "magFilter" : 9729,
            "minFilter" : 9987
        }
    ],
    "buffers" : [
        {
            "byteLength" : 7400,
            "uri" : "const_8.bin"
        }
    ]
}
