{
    "asset" : {
        "generator" : "Khronos glTF Blender I/O v1.7.33",
        "version" : "2.0"
    },
    "scene" : 0,
    "scenes" : [
        {
            "name" : "Scene",
            "nodes" : [
                0
            ]
        }
    ],
    "nodes" : [
        {
            "mesh" : 0,
            "name" : "Maxis-3d3-mesh-47",
            "rotation" : [
                0.7071068286895752,
                0,
                0,
                0.7071067094802856
            ]
        }
    ],
    "materials" : [
        {
            "doubleSided" : true,
            "name" : "mat40-53.001",
            "pbrMetallicRoughness" : {
                "baseColorTexture" : {
                    "index" : 0
                },
                "metallicFactor" : 0
            }
        },
        {
            "doubleSided" : true,
            "name" : "mat40-54.001",
            "pbrMetallicRoughness" : {
                "baseColorTexture" : {
                    "index" : 1
                },
                "metallicFactor" : 0
            }
        },
        {
            "doubleSided" : true,
            "name" : "matcolour-16",
            "pbrMetallicRoughness" : {
                "baseColorFactor" : [
                    0.5607843399047852,
                    0.062745101749897,
                    0.019607843831181526,
                    1
                ],
                "metallicFactor" : 0
            }
        },
        {
            "doubleSided" : true,
            "name" : "mat40-38",
            "pbrMetallicRoughness" : {
                "baseColorTexture" : {
                    "index" : 2
                },
                "metallicFactor" : 0
            }
        },
        {
            "doubleSided" : true,
            "name" : "mat40-37",
            "pbrMetallicRoughness" : {
                "baseColorTexture" : {
                    "index" : 3
                },
                "metallicFactor" : 0
            }
        },
        {
            "doubleSided" : true,
            "name" : "mat40-39",
            "pbrMetallicRoughness" : {
                "baseColorTexture" : {
                    "index" : 4
                },
                "metallicFactor" : 0
            }
        },
        {
            "doubleSided" : true,
            "name" : "mat40-36",
            "pbrMetallicRoughness" : {
                "baseColorTexture" : {
                    "index" : 5
                },
                "metallicFactor" : 0
            }
        },
        {
            "doubleSided" : true,
            "name" : "matcolour-48.001",
            "pbrMetallicRoughness" : {
                "baseColorFactor" : [
                    0.05882352963089943,
                    0.05882352963089943,
                    0.05882352963089943,
                    1
                ],
                "metallicFactor" : 0
            }
        },
        {
            "doubleSided" : true,
            "name" : "mat40-55.001",
            "pbrMetallicRoughness" : {
                "baseColorTexture" : {
                    "index" : 6
                },
                "metallicFactor" : 0
            }
        },
        {
            "doubleSided" : true,
            "name" : "mat40-52.001",
            "pbrMetallicRoughness" : {
                "baseColorTexture" : {
                    "index" : 7
                },
                "metallicFactor" : 0
            }
        }
    ],
    "meshes" : [
        {
            "name" : "Maxis-3d3-mesh-47",
            "primitives" : [
                {
                    "attributes" : {
                        "POSITION" : 0,
                        "NORMAL" : 1,
                        "TEXCOORD_0" : 2
                    },
                    "indices" : 3,
                    "material" : 0
                },
                {
                    "attributes" : {
                        "POSITION" : 4,
                        "NORMAL" : 5,
                        "TEXCOORD_0" : 6
                    },
                    "indices" : 7,
                    "material" : 1
                },
                {
                    "attributes" : {
                        "POSITION" : 8,
                        "NORMAL" : 9,
                        "TEXCOORD_0" : 10
                    },
                    "indices" : 11,
                    "material" : 2
                },
                {
                    "attributes" : {
                        "POSITION" : 12,
                        "NORMAL" : 13,
                        "TEXCOORD_0" : 14
                    },
                    "indices" : 15,
                    "material" : 3
                },
                {
                    "attributes" : {
                        "POSITION" : 16,
                        "NORMAL" : 17,
                        "TEXCOORD_0" : 18
                    },
                    "indices" : 15,
                    "material" : 4
                },
                {
                    "attributes" : {
                        "POSITION" : 19,
                        "NORMAL" : 20,
                        "TEXCOORD_0" : 21
                    },
                    "indices" : 22,
                    "material" : 5
                },
                {
                    "attributes" : {
                        "POSITION" : 23,
                        "NORMAL" : 24,
                        "TEXCOORD_0" : 25
                    },
                    "indices" : 26,
                    "material" : 6
                },
                {
                    "attributes" : {
                        "POSITION" : 27,
                        "NORMAL" : 28,
                        "TEXCOORD_0" : 29
                    },
                    "indices" : 30,
                    "material" : 7
                },
                {
                    "attributes" : {
                        "POSITION" : 31,
                        "NORMAL" : 32,
                        "TEXCOORD_0" : 33
                    },
                    "indices" : 34,
                    "material" : 8
                },
                {
                    "attributes" : {
                        "POSITION" : 35,
                        "NORMAL" : 36,
                        "TEXCOORD_0" : 37
                    },
                    "indices" : 38,
                    "material" : 9
                },
                {
                    "attributes" : {
                        "POSITION" : 39
                    },
                    "indices" : 40,
                    "material" : 0,
                    "mode" : 1
                }
            ]
        }
    ],
    "textures" : [
        {
            "sampler" : 0,
            "source" : 0
        },
        {
            "sampler" : 0,
            "source" : 1
        },
        {
            "sampler" : 0,
            "source" : 2
        },
        {
            "sampler" : 0,
            "source" : 3
        },
        {
            "sampler" : 0,
            "source" : 4
        },
        {
            "sampler" : 0,
            "source" : 5
        },
        {
            "sampler" : 0,
            "source" : 6
        },
        {
            "sampler" : 0,
            "source" : 7
        }
    ],
    "images" : [
        {
            "mimeType" : "image/png",
            "name" : "tex40-53",
            "uri" : "../../../Textures/tex40-53.png"
        },
        {
            "mimeType" : "image/png",
            "name" : "tex40-54",
            "uri" : "../../../Textures/tex40-54.png"
        },
        {
            "mimeType" : "image/png",
            "name" : "tex40-38",
            "uri" : "../../../Textures/tex40-38.png"
        },
        {
            "mimeType" : "image/png",
            "name" : "tex40-37",
            "uri" : "../../../Textures/tex40-37.png"
        },
        {
            "mimeType" : "image/png",
            "name" : "tex40-39",
            "uri" : "../../../Textures/tex40-39.png"
        },
        {
            "mimeType" : "image/png",
            "name" : "tex40-36",
            "uri" : "../../../Textures/tex40-36.png"
        },
        {
            "mimeType" : "image/png",
            "name" : "tex40-55",
            "uri" : "../../../Textures/tex40-55.png"
        },
        {
            "mimeType" : "image/png",
            "name" : "tex40-52",
            "uri" : "../../../Textures/tex40-52.png"
        }
    ],
    "accessors" : [
        {
            "bufferView" : 0,
            "componentType" : 5126,
            "count" : 18,
            "max" : [
                18.5,
                21.372142791748047,
                7.62939453125e-06
            ],
            "min" : [
                -18.5,
                -21.627853393554688,
                -18.597030639648438
            ],
            "type" : "VEC3"
        },
        {
            "bufferView" : 1,
            "componentType" : 5126,
            "count" : 18,
            "type" : "VEC3"
        },
        {
            "bufferView" : 2,
            "componentType" : 5126,
            "count" : 18,
            "type" : "VEC2"
        },
        {
            "bufferView" : 3,
            "componentType" : 5123,
            "count" : 24,
            "type" : "SCALAR"
        },
        {
            "bufferView" : 4,
            "componentType" : 5126,
            "count" : 28,
            "max" : [
                18.5,
                21.372142791748047,
                1.1444091796875e-05
            ],
            "min" : [
                -9.5,
                -21.627853393554688,
                -18.597030639648438
            ],
            "type" : "VEC3"
        },
        {
            "bufferView" : 5,
            "componentType" : 5126,
            "count" : 28,
            "type" : "VEC3"
        },
        {
            "bufferView" : 6,
            "componentType" : 5126,
            "count" : 28,
            "type" : "VEC2"
        },
        {
            "bufferView" : 7,
            "componentType" : 5123,
            "count" : 30,
            "type" : "SCALAR"
        },
        {
            "bufferView" : 8,
            "componentType" : 5126,
            "count" : 76,
            "max" : [
                28.75,
                3.5416603088378906,
                0
            ],
            "min" : [
                -12.127082824707031,
                -0.39954376220703125,
                -45
            ],
            "type" : "VEC3"
        },
        {
            "bufferView" : 9,
            "componentType" : 5126,
            "count" : 76,
            "type" : "VEC3"
        },
        {
            "bufferView" : 10,
            "componentType" : 5126,
            "count" : 76,
            "type" : "VEC2"
        },
        {
            "bufferView" : 11,
            "componentType" : 5123,
            "count" : 84,
            "type" : "SCALAR"
        },
        {
            "bufferView" : 12,
            "componentType" : 5126,
            "count" : 4,
            "max" : [
                -9.735530853271484,
                4.100284576416016,
                -25.440101623535156
            ],
            "min" : [
                -9.735530853271484,
                -0.2321624755859375,
                -28.016258239746094
            ],
            "type" : "VEC3"
        },
        {
            "bufferView" : 13,
            "componentType" : 5126,
            "count" : 4,
            "type" : "VEC3"
        },
        {
            "bufferView" : 14,
            "componentType" : 5126,
            "count" : 4,
            "type" : "VEC2"
        },
        {
            "bufferView" : 15,
            "componentType" : 5123,
            "count" : 6,
            "type" : "SCALAR"
        },
        {
            "bufferView" : 16,
            "componentType" : 5126,
            "count" : 4,
            "max" : [
                -12.311687469482422,
                4.100284576416016,
                -25.440101623535156
            ],
            "min" : [
                -12.311687469482422,
                -0.2321624755859375,
                -28.016258239746094
            ],
            "type" : "VEC3"
        },
        {
            "bufferView" : 17,
            "componentType" : 5126,
            "count" : 4,
            "type" : "VEC3"
        },
        {
            "bufferView" : 18,
            "componentType" : 5126,
            "count" : 4,
            "type" : "VEC2"
        },
        {
            "bufferView" : 19,
            "componentType" : 5126,
            "count" : 10,
            "max" : [
                -9.735530853271484,
                4.100284576416016,
                -25.440101623535156
            ],
            "min" : [
                -12.311687469482422,
                -0.2321624755859375,
                -28.016258239746094
            ],
            "type" : "VEC3"
        },
        {
            "bufferView" : 20,
            "componentType" : 5126,
            "count" : 10,
            "type" : "VEC3"
        },
        {
            "bufferView" : 21,
            "componentType" : 5126,
            "count" : 10,
            "type" : "VEC2"
        },
        {
            "bufferView" : 22,
            "componentType" : 5123,
            "count" : 12,
            "type" : "SCALAR"
        },
        {
            "bufferView" : 23,
            "componentType" : 5126,
            "count" : 10,
            "max" : [
                -9.735530853271484,
                4.100284576416016,
                -25.440101623535156
            ],
            "min" : [
                -12.311687469482422,
                -0.2321624755859375,
                -28.016258239746094
            ],
            "type" : "VEC3"
        },
        {
            "bufferView" : 24,
            "componentType" : 5126,
            "count" : 10,
            "type" : "VEC3"
        },
        {
            "bufferView" : 25,
            "componentType" : 5126,
            "count" : 10,
            "type" : "VEC2"
        },
        {
            "bufferView" : 26,
            "componentType" : 5123,
            "count" : 12,
            "type" : "SCALAR"
        },
        {
            "bufferView" : 27,
            "componentType" : 5126,
            "count" : 53,
            "max" : [
                18.5,
                21.372142791748047,
                -2.0275840759277344
            ],
            "min" : [
                -18.5,
                -21.627853393554688,
                -18.597030639648438
            ],
            "type" : "VEC3"
        },
        {
            "bufferView" : 28,
            "componentType" : 5126,
            "count" : 53,
            "type" : "VEC3"
        },
        {
            "bufferView" : 29,
            "componentType" : 5126,
            "count" : 53,
            "type" : "VEC2"
        },
        {
            "bufferView" : 30,
            "componentType" : 5123,
            "count" : 57,
            "type" : "SCALAR"
        },
        {
            "bufferView" : 31,
            "componentType" : 5126,
            "count" : 18,
            "max" : [
                18.5,
                21.372142791748047,
                0
            ],
            "min" : [
                -18.5,
                -13.627861022949219,
                -18.597030639648438
            ],
            "type" : "VEC3"
        },
        {
            "bufferView" : 32,
            "componentType" : 5126,
            "count" : 18,
            "type" : "VEC3"
        },
        {
            "bufferView" : 33,
            "componentType" : 5126,
            "count" : 18,
            "type" : "VEC2"
        },
        {
            "bufferView" : 34,
            "componentType" : 5123,
            "count" : 24,
            "type" : "SCALAR"
        },
        {
            "bufferView" : 35,
            "componentType" : 5126,
            "count" : 18,
            "max" : [
                13.5,
                13.372142791748047,
                1.1444091796875e-05
            ],
            "min" : [
                -18.5,
                -21.627853393554688,
                -18.597023010253906
            ],
            "type" : "VEC3"
        },
        {
            "bufferView" : 36,
            "componentType" : 5126,
            "count" : 18,
            "type" : "VEC3"
        },
        {
            "bufferView" : 37,
            "componentType" : 5126,
            "count" : 18,
            "type" : "VEC2"
        },
        {
            "bufferView" : 38,
            "componentType" : 5123,
            "count" : 24,
            "type" : "SCALAR"
        },
        {
            "bufferView" : 39,
            "componentType" : 5126,
            "count" : 6,
            "max" : [
                27.975238800048828,
                3.1143646240234375,
                -1.1992340087890625
            ],
            "min" : [
                -11.0340576171875,
                0.08502578735351562,
                -43.5740852355957
            ],
            "type" : "VEC3"
        },
        {
            "bufferView" : 40,
            "componentType" : 5123,
            "count" : 6,
            "type" : "SCALAR"
        }
    ],
    "bufferViews" : [
        {
            "buffer" : 0,
            "byteLength" : 216,
            "byteOffset" : 0
        },
        {
            "buffer" : 0,
            "byteLength" : 216,
            "byteOffset" : 216
        },
        {
            "buffer" : 0,
            "byteLength" : 144,
            "byteOffset" : 432
        },
        {
            "buffer" : 0,
            "byteLength" : 48,
            "byteOffset" : 576
        },
        {
            "buffer" : 0,
            "byteLength" : 336,
            "byteOffset" : 624
        },
        {
            "buffer" : 0,
            "byteLength" : 336,
            "byteOffset" : 960
        },
        {
            "buffer" : 0,
            "byteLength" : 224,
            "byteOffset" : 1296
        },
        {
            "buffer" : 0,
            "byteLength" : 60,
            "byteOffset" : 1520
        },
        {
            "buffer" : 0,
            "byteLength" : 912,
            "byteOffset" : 1580
        },
        {
            "buffer" : 0,
            "byteLength" : 912,
            "byteOffset" : 2492
        },
        {
            "buffer" : 0,
            "byteLength" : 608,
            "byteOffset" : 3404
        },
        {
            "buffer" : 0,
            "byteLength" : 168,
            "byteOffset" : 4012
        },
        {
            "buffer" : 0,
            "byteLength" : 48,
            "byteOffset" : 4180
        },
        {
            "buffer" : 0,
            "byteLength" : 48,
            "byteOffset" : 4228
        },
        {
            "buffer" : 0,
            "byteLength" : 32,
            "byteOffset" : 4276
        },
        {
            "buffer" : 0,
            "byteLength" : 12,
            "byteOffset" : 4308
        },
        {
            "buffer" : 0,
            "byteLength" : 48,
            "byteOffset" : 4320
        },
        {
            "buffer" : 0,
            "byteLength" : 48,
            "byteOffset" : 4368
        },
        {
            "buffer" : 0,
            "byteLength" : 32,
            "byteOffset" : 4416
        },
        {
            "buffer" : 0,
            "byteLength" : 120,
            "byteOffset" : 4448
        },
        {
            "buffer" : 0,
            "byteLength" : 120,
            "byteOffset" : 4568
        },
        {
            "buffer" : 0,
            "byteLength" : 80,
            "byteOffset" : 4688
        },
        {
            "buffer" : 0,
            "byteLength" : 24,
            "byteOffset" : 4768
        },
        {
            "buffer" : 0,
            "byteLength" : 120,
            "byteOffset" : 4792
        },
        {
            "buffer" : 0,
            "byteLength" : 120,
            "byteOffset" : 4912
        },
        {
            "buffer" : 0,
            "byteLength" : 80,
            "byteOffset" : 5032
        },
        {
            "buffer" : 0,
            "byteLength" : 24,
            "byteOffset" : 5112
        },
        {
            "buffer" : 0,
            "byteLength" : 636,
            "byteOffset" : 5136
        },
        {
            "buffer" : 0,
            "byteLength" : 636,
            "byteOffset" : 5772
        },
        {
            "buffer" : 0,
            "byteLength" : 424,
            "byteOffset" : 6408
        },
        {
            "buffer" : 0,
            "byteLength" : 114,
            "byteOffset" : 6832
        },
        {
            "buffer" : 0,
            "byteLength" : 216,
            "byteOffset" : 6948
        },
        {
            "buffer" : 0,
            "byteLength" : 216,
            "byteOffset" : 7164
        },
        {
            "buffer" : 0,
            "byteLength" : 144,
            "byteOffset" : 7380
        },
        {
            "buffer" : 0,
            "byteLength" : 48,
            "byteOffset" : 7524
        },
        {
            "buffer" : 0,
            "byteLength" : 216,
            "byteOffset" : 7572
        },
        {
            "buffer" : 0,
            "byteLength" : 216,
            "byteOffset" : 7788
        },
        {
            "buffer" : 0,
            "byteLength" : 144,
            "byteOffset" : 8004
        },
        {
            "buffer" : 0,
            "byteLength" : 48,
            "byteOffset" : 8148
        },
        {
            "buffer" : 0,
            "byteLength" : 72,
            "byteOffset" : 8196
        },
        {
            "buffer" : 0,
            "byteLength" : 12,
            "byteOffset" : 8268
        }
    ],
    "samplers" : [
        {
            "magFilter" : 9729,
            "minFilter" : 9987
        }
    ],
    "buffers" : [
        {
            "byteLength" : 8280,
            "uri" : "const_1-2.bin"
        }
    ]
}
