{
	"asset":{
		"generator":"Khronos glTF Blender I/O v5.1.18",
		"version":"2.0"
	},
	"scene":0,
	"scenes":[
		{
			"name":"Scene",
			"nodes":[
				0,
				1,
				2,
				3,
				4,
				5
			]
		}
	],
	"nodes":[
		{
			"extras":{
				"gltf_export":true,
				"gd_node":"Collision"
			},
			"mesh":0,
			"name":"Collision"
		},
		{
			"extras":{
				"gltf_export":true
			},
			"mesh":1,
			"name":"Ground"
		},
		{
			"extras":{
				"gltf_export":true,
				"texture_size":2
			},
			"mesh":2,
			"name":"Building"
		},
		{
			"extras":{
				"gltf_export":true
			},
			"mesh":3,
			"name":"Indoor Ground"
		},
		{
			"extras":{
				"gltf_export":true,
				"gd_node":"Occluder"
			},
			"mesh":0,
			"name":"Occluder"
		},
		{
			"extras":{
				"gltf_export":true
			},
			"mesh":4,
			"name":"Light Occluder"
		}
	],
	"materials":[
		{
			"name":"Ground",
			"normalTexture":{
				"index":0
			},
			"occlusionTexture":{
				"index":1
			},
			"pbrMetallicRoughness":{
				"baseColorTexture":{
					"index":2
				},
				"metallicRoughnessTexture":{
					"index":1
				}
			}
		},
		{
			"name":"Building",
			"normalTexture":{
				"index":3
			},
			"occlusionTexture":{
				"index":4
			},
			"pbrMetallicRoughness":{
				"baseColorTexture":{
					"index":5
				},
				"metallicRoughnessTexture":{
					"index":4
				}
			}
		},
		{
			"name":"Indoor Ground",
			"normalTexture":{
				"index":6,
				"texCoord":1
			},
			"occlusionTexture":{
				"index":7,
				"texCoord":1
			},
			"pbrMetallicRoughness":{
				"baseColorTexture":{
					"index":8,
					"texCoord":1
				},
				"metallicRoughnessTexture":{
					"index":7,
					"texCoord":1
				}
			}
		}
	],
	"meshes":[
		{
			"name":"Plane.009",
			"primitives":[
				{
					"attributes":{
						"POSITION":0,
						"NORMAL":1,
						"TEXCOORD_0":2
					},
					"indices":3
				}
			]
		},
		{
			"name":"Plane.001",
			"primitives":[
				{
					"attributes":{
						"POSITION":4,
						"NORMAL":5,
						"TEXCOORD_0":6,
						"TEXCOORD_1":7
					},
					"indices":8,
					"material":0
				}
			]
		},
		{
			"name":"Plane.005",
			"primitives":[
				{
					"attributes":{
						"POSITION":9,
						"NORMAL":10,
						"TEXCOORD_0":11
					},
					"indices":12,
					"material":1
				}
			]
		},
		{
			"name":"Plane",
			"primitives":[
				{
					"attributes":{
						"POSITION":13,
						"NORMAL":14,
						"TEXCOORD_0":15,
						"TEXCOORD_1":16
					},
					"indices":17,
					"material":2
				}
			]
		},
		{
			"name":"Plane.010",
			"primitives":[
				{
					"attributes":{
						"POSITION":18,
						"NORMAL":19,
						"TEXCOORD_0":20
					},
					"indices":21
				}
			]
		}
	],
	"textures":[
		{
			"sampler":0,
			"source":0
		},
		{
			"sampler":0,
			"source":1
		},
		{
			"sampler":0,
			"source":2
		},
		{
			"sampler":0,
			"source":3
		},
		{
			"sampler":0,
			"source":4
		},
		{
			"sampler":0,
			"source":5
		},
		{
			"sampler":0,
			"source":6
		},
		{
			"sampler":0,
			"source":7
		},
		{
			"sampler":0,
			"source":8
		}
	],
	"images":[
		{
			"mimeType":"image/png",
			"name":"ground_normal",
			"uri":"textures/ground_normal.png"
		},
		{
			"mimeType":"image/png",
			"name":"ground_orm",
			"uri":"textures/ground_orm.png"
		},
		{
			"mimeType":"image/png",
			"name":"ground_diffuse",
			"uri":"textures/ground_diffuse.png"
		},
		{
			"mimeType":"image/png",
			"name":"building_normal",
			"uri":"textures/building_normal.png"
		},
		{
			"mimeType":"image/png",
			"name":"building_orm",
			"uri":"textures/building_orm.png"
		},
		{
			"mimeType":"image/png",
			"name":"building_diffuse",
			"uri":"textures/building_diffuse.png"
		},
		{
			"mimeType":"image/png",
			"name":"indoor_ground_normal",
			"uri":"textures/indoor_ground_normal.png"
		},
		{
			"mimeType":"image/png",
			"name":"indoor_ground_orm",
			"uri":"textures/indoor_ground_orm.png"
		},
		{
			"mimeType":"image/png",
			"name":"indoor_ground_diffuse",
			"uri":"textures/indoor_ground_diffuse.png"
		}
	],
	"accessors":[
		{
			"bufferView":0,
			"componentType":5126,
			"count":110,
			"max":[
				12.060616493225098,
				10.183178901672363,
				13.636486053466797
			],
			"min":[
				-12.060616493225098,
				-0.2147727757692337,
				-13.826332092285156
			],
			"type":"VEC3"
		},
		{
			"bufferView":1,
			"componentType":5126,
			"count":110,
			"type":"VEC3"
		},
		{
			"bufferView":2,
			"componentType":5126,
			"count":110,
			"type":"VEC2"
		},
		{
			"bufferView":3,
			"componentType":5123,
			"count":180,
			"type":"SCALAR"
		},
		{
			"bufferView":4,
			"componentType":5126,
			"count":9,
			"max":[
				16,
				0,
				16
			],
			"min":[
				-16,
				-7.450580596923828e-09,
				-16
			],
			"type":"VEC3"
		},
		{
			"bufferView":5,
			"componentType":5126,
			"count":9,
			"type":"VEC3"
		},
		{
			"bufferView":6,
			"componentType":5126,
			"count":9,
			"type":"VEC2"
		},
		{
			"bufferView":7,
			"componentType":5126,
			"count":9,
			"type":"VEC2"
		},
		{
			"bufferView":8,
			"componentType":5123,
			"count":27,
			"type":"SCALAR"
		},
		{
			"bufferView":9,
			"componentType":5126,
			"count":15682,
			"max":[
				12.056805610656738,
				10.259510040283203,
				13.632832527160645
			],
			"min":[
				-12.056805610656738,
				-0.07500006258487701,
				-13.861150741577148
			],
			"type":"VEC3"
		},
		{
			"bufferView":10,
			"componentType":5126,
			"count":15682,
			"type":"VEC3"
		},
		{
			"bufferView":11,
			"componentType":5126,
			"count":15682,
			"type":"VEC2"
		},
		{
			"bufferView":12,
			"componentType":5123,
			"count":28254,
			"type":"SCALAR"
		},
		{
			"bufferView":13,
			"componentType":5126,
			"count":5,
			"max":[
				11.936236381530762,
				0,
				13.496504783630371
			],
			"min":[
				-11.936241149902344,
				0,
				-13.722539901733398
			],
			"type":"VEC3"
		},
		{
			"bufferView":14,
			"componentType":5126,
			"count":5,
			"type":"VEC3"
		},
		{
			"bufferView":15,
			"componentType":5126,
			"count":5,
			"type":"VEC2"
		},
		{
			"bufferView":16,
			"componentType":5126,
			"count":5,
			"type":"VEC2"
		},
		{
			"bufferView":17,
			"componentType":5123,
			"count":9,
			"type":"SCALAR"
		},
		{
			"bufferView":18,
			"componentType":5126,
			"count":110,
			"max":[
				14.04828929901123,
				12.334705352783203,
				15.551039695739746
			],
			"min":[
				-14.04828929901123,
				-5.154569625854492,
				-15.744148254394531
			],
			"type":"VEC3"
		},
		{
			"bufferView":19,
			"componentType":5126,
			"count":110,
			"type":"VEC3"
		},
		{
			"bufferView":20,
			"componentType":5126,
			"count":110,
			"type":"VEC2"
		},
		{
			"bufferView":21,
			"componentType":5123,
			"count":180,
			"type":"SCALAR"
		}
	],
	"bufferViews":[
		{
			"buffer":0,
			"byteLength":1320,
			"byteOffset":0,
			"target":34962
		},
		{
			"buffer":0,
			"byteLength":1320,
			"byteOffset":1320,
			"target":34962
		},
		{
			"buffer":0,
			"byteLength":880,
			"byteOffset":2640,
			"target":34962
		},
		{
			"buffer":0,
			"byteLength":360,
			"byteOffset":3520,
			"target":34963
		},
		{
			"buffer":0,
			"byteLength":108,
			"byteOffset":3880,
			"target":34962
		},
		{
			"buffer":0,
			"byteLength":108,
			"byteOffset":3988,
			"target":34962
		},
		{
			"buffer":0,
			"byteLength":72,
			"byteOffset":4096,
			"target":34962
		},
		{
			"buffer":0,
			"byteLength":72,
			"byteOffset":4168,
			"target":34962
		},
		{
			"buffer":0,
			"byteLength":54,
			"byteOffset":4240,
			"target":34963
		},
		{
			"buffer":0,
			"byteLength":188184,
			"byteOffset":4296,
			"target":34962
		},
		{
			"buffer":0,
			"byteLength":188184,
			"byteOffset":192480,
			"target":34962
		},
		{
			"buffer":0,
			"byteLength":125456,
			"byteOffset":380664,
			"target":34962
		},
		{
			"buffer":0,
			"byteLength":56508,
			"byteOffset":506120,
			"target":34963
		},
		{
			"buffer":0,
			"byteLength":60,
			"byteOffset":562628,
			"target":34962
		},
		{
			"buffer":0,
			"byteLength":60,
			"byteOffset":562688,
			"target":34962
		},
		{
			"buffer":0,
			"byteLength":40,
			"byteOffset":562748,
			"target":34962
		},
		{
			"buffer":0,
			"byteLength":40,
			"byteOffset":562788,
			"target":34962
		},
		{
			"buffer":0,
			"byteLength":18,
			"byteOffset":562828,
			"target":34963
		},
		{
			"buffer":0,
			"byteLength":1320,
			"byteOffset":562848,
			"target":34962
		},
		{
			"buffer":0,
			"byteLength":1320,
			"byteOffset":564168,
			"target":34962
		},
		{
			"buffer":0,
			"byteLength":880,
			"byteOffset":565488,
			"target":34962
		},
		{
			"buffer":0,
			"byteLength":360,
			"byteOffset":566368,
			"target":34963
		}
	],
	"samplers":[
		{
			"magFilter":9729,
			"minFilter":9987
		}
	],
	"buffers":[
		{
			"byteLength":566728,
			"uri":"hangar_2.bin"
		}
	]
}
